<?xml version="1.0" encoding="UTF-8" standalone="no"?>
<!-- Created with Inkscape (http://www.inkscape.org/) -->

<svg
   xmlns:dc="http://purl.org/dc/elements/1.1/"
   xmlns:cc="http://creativecommons.org/ns#"
   xmlns:rdf="http://www.w3.org/1999/02/22-rdf-syntax-ns#"
   xmlns:svg="http://www.w3.org/2000/svg"
   xmlns="http://www.w3.org/2000/svg"
   xmlns:sodipodi="http://sodipodi.sourceforge.net/DTD/sodipodi-0.dtd"
   xmlns:inkscape="http://www.inkscape.org/namespaces/inkscape"
   id="svg2"
   version="1.1"
   inkscape:version="0.48.4 r9939"
   width="863.68964"
   height="455.34967"
   xml:space="preserve"
   sodipodi:docname="data_shifted.svg"><metadata
     id="metadata8"><rdf:RDF><cc:Work
         rdf:about=""><dc:format>image/svg+xml</dc:format><dc:type
           rdf:resource="http://purl.org/dc/dcmitype/StillImage" /><dc:title /></cc:Work></rdf:RDF></metadata><defs
     id="defs6"><clipPath
       clipPathUnits="userSpaceOnUse"
       id="clipPath28"><path
         d="m 138.92,122.89 547.07,0 0,376.11 -547.07,0 0,-376.11 z"
         clip-rule="evenodd"
         id="path30"
         inkscape:connector-curvature="0" /></clipPath><clipPath
       clipPathUnits="userSpaceOnUse"
       id="clipPath46"><path
         d="m 138.92,122.89 547.07,0 0,376.11 -547.07,0 0,-376.11 z"
         clip-rule="evenodd"
         id="path48"
         inkscape:connector-curvature="0" /></clipPath><clipPath
       clipPathUnits="userSpaceOnUse"
       id="clipPath56"><path
         d="m 138.92,122.89 547.07,0 0,376.11 -547.07,0 0,-376.11 z"
         clip-rule="evenodd"
         id="path58"
         inkscape:connector-curvature="0" /></clipPath><clipPath
       clipPathUnits="userSpaceOnUse"
       id="clipPath66"><path
         d="m 138.92,122.89 547.07,0 0,376.11 -547.07,0 0,-376.11 z"
         clip-rule="evenodd"
         id="path68"
         inkscape:connector-curvature="0" /></clipPath><clipPath
       clipPathUnits="userSpaceOnUse"
       id="clipPath84"><path
         d="m 138.92,122.89 547.07,0 0,376.11 -547.07,0 0,-376.11 z"
         clip-rule="evenodd"
         id="path86"
         inkscape:connector-curvature="0" /></clipPath><clipPath
       clipPathUnits="userSpaceOnUse"
       id="clipPath94"><path
         d="m 138.92,122.89 547.07,0 0,376.11 -547.07,0 0,-376.11 z"
         clip-rule="evenodd"
         id="path96"
         inkscape:connector-curvature="0" /></clipPath><clipPath
       clipPathUnits="userSpaceOnUse"
       id="clipPath104"><path
         d="m 138.92,122.89 547.07,0 0,376.11 -547.07,0 0,-376.11 z"
         clip-rule="evenodd"
         id="path106"
         inkscape:connector-curvature="0" /></clipPath><clipPath
       clipPathUnits="userSpaceOnUse"
       id="clipPath122"><path
         d="m 138.92,122.89 547.07,0 0,376.11 -547.07,0 0,-376.11 z"
         clip-rule="evenodd"
         id="path124"
         inkscape:connector-curvature="0" /></clipPath><clipPath
       clipPathUnits="userSpaceOnUse"
       id="clipPath132"><path
         d="m 138.92,122.89 547.07,0 0,376.11 -547.07,0 0,-376.11 z"
         clip-rule="evenodd"
         id="path134"
         inkscape:connector-curvature="0" /></clipPath><clipPath
       clipPathUnits="userSpaceOnUse"
       id="clipPath142"><path
         d="m 138.92,122.89 547.07,0 0,376.11 -547.07,0 0,-376.11 z"
         clip-rule="evenodd"
         id="path144"
         inkscape:connector-curvature="0" /></clipPath><clipPath
       clipPathUnits="userSpaceOnUse"
       id="clipPath160"><path
         d="m 138.92,122.89 547.07,0 0,376.11 -547.07,0 0,-376.11 z"
         clip-rule="evenodd"
         id="path162"
         inkscape:connector-curvature="0" /></clipPath><clipPath
       clipPathUnits="userSpaceOnUse"
       id="clipPath170"><path
         d="m 138.92,122.89 547.07,0 0,376.11 -547.07,0 0,-376.11 z"
         clip-rule="evenodd"
         id="path172"
         inkscape:connector-curvature="0" /></clipPath><clipPath
       clipPathUnits="userSpaceOnUse"
       id="clipPath180"><path
         d="m 138.92,122.03 547.07,0 0,376.98 -547.07,0 0,-376.98 z"
         clip-rule="evenodd"
         id="path182"
         inkscape:connector-curvature="0" /></clipPath><clipPath
       clipPathUnits="userSpaceOnUse"
       id="clipPath206"><path
         d="m 138.92,122.03 547.07,0 0,376.98 -547.07,0 0,-376.98 z"
         clip-rule="evenodd"
         id="path208"
         inkscape:connector-curvature="0" /></clipPath><clipPath
       clipPathUnits="userSpaceOnUse"
       id="clipPath232"><path
         d="m 138.92,122.03 547.07,0 0,376.98 -547.07,0 0,-376.98 z"
         clip-rule="evenodd"
         id="path234"
         inkscape:connector-curvature="0" /></clipPath><clipPath
       clipPathUnits="userSpaceOnUse"
       id="clipPath258"><path
         d="m 138.92,122.03 547.07,0 0,376.98 -547.07,0 0,-376.98 z"
         clip-rule="evenodd"
         id="path260"
         inkscape:connector-curvature="0" /></clipPath><clipPath
       clipPathUnits="userSpaceOnUse"
       id="clipPath284"><path
         d="m 51,64.56 690.12,0 0,482.76 -690.12,0 0,-482.76 z"
         clip-rule="evenodd"
         id="path286"
         inkscape:connector-curvature="0" /></clipPath><clipPath
       clipPathUnits="userSpaceOnUse"
       id="clipPath296"><path
         d="m 51,64.56 690.12,0 0,482.76 -690.12,0 0,-482.76 z"
         clip-rule="evenodd"
         id="path298"
         inkscape:connector-curvature="0" /></clipPath><clipPath
       clipPathUnits="userSpaceOnUse"
       id="clipPath308"><path
         d="m 51,64.56 690.12,0 0,482.76 -690.12,0 0,-482.76 z"
         clip-rule="evenodd"
         id="path310"
         inkscape:connector-curvature="0" /></clipPath><clipPath
       clipPathUnits="userSpaceOnUse"
       id="clipPath320"><path
         d="m 51,64.56 690.12,0 0,482.76 -690.12,0 0,-482.76 z"
         clip-rule="evenodd"
         id="path322"
         inkscape:connector-curvature="0" /></clipPath><clipPath
       clipPathUnits="userSpaceOnUse"
       id="clipPath332"><path
         d="m 51,64.56 690.12,0 0,482.76 -690.12,0 0,-482.76 z"
         clip-rule="evenodd"
         id="path334"
         inkscape:connector-curvature="0" /></clipPath><clipPath
       clipPathUnits="userSpaceOnUse"
       id="clipPath344"><path
         d="m 51,64.56 690.12,0 0,482.76 -690.12,0 0,-482.76 z"
         clip-rule="evenodd"
         id="path346"
         inkscape:connector-curvature="0" /></clipPath><clipPath
       clipPathUnits="userSpaceOnUse"
       id="clipPath356"><path
         d="m 51,64.56 690.12,0 0,482.76 -690.12,0 0,-482.76 z"
         clip-rule="evenodd"
         id="path358"
         inkscape:connector-curvature="0" /></clipPath><clipPath
       clipPathUnits="userSpaceOnUse"
       id="clipPath368"><path
         d="m 51,64.56 690.12,0 0,482.76 -690.12,0 0,-482.76 z"
         clip-rule="evenodd"
         id="path370"
         inkscape:connector-curvature="0" /></clipPath><clipPath
       clipPathUnits="userSpaceOnUse"
       id="clipPath380"><path
         d="m 51,64.56 690.12,0 0,482.76 -690.12,0 0,-482.76 z"
         clip-rule="evenodd"
         id="path382"
         inkscape:connector-curvature="0" /></clipPath><clipPath
       clipPathUnits="userSpaceOnUse"
       id="clipPath398"><path
         d="m 51,64.56 690.12,0 0,482.76 -690.12,0 0,-482.76 z"
         clip-rule="evenodd"
         id="path400"
         inkscape:connector-curvature="0" /></clipPath><clipPath
       clipPathUnits="userSpaceOnUse"
       id="clipPath416"><path
         d="m 51,64.56 690.12,0 0,482.76 -690.12,0 0,-482.76 z"
         clip-rule="evenodd"
         id="path418"
         inkscape:connector-curvature="0" /></clipPath><clipPath
       clipPathUnits="userSpaceOnUse"
       id="clipPath434"><path
         d="m 51,64.56 690.12,0 0,482.76 -690.12,0 0,-482.76 z"
         clip-rule="evenodd"
         id="path436"
         inkscape:connector-curvature="0" /></clipPath><clipPath
       clipPathUnits="userSpaceOnUse"
       id="clipPath452"><path
         d="m 51,64.56 690.12,0 0,482.76 -690.12,0 0,-482.76 z"
         clip-rule="evenodd"
         id="path454"
         inkscape:connector-curvature="0" /></clipPath></defs><sodipodi:namedview
     pagecolor="#ffffff"
     bordercolor="#666666"
     borderopacity="1"
     objecttolerance="10"
     gridtolerance="10"
     guidetolerance="10"
     inkscape:pageopacity="0"
     inkscape:pageshadow="2"
     inkscape:window-width="2560"
     inkscape:window-height="1538"
     id="namedview4"
     showgrid="false"
     inkscape:zoom="2.1851339"
     inkscape:cx="360.4533"
     inkscape:cy="153.07986"
     inkscape:window-x="-8"
     inkscape:window-y="-8"
     inkscape:window-maximized="1"
     inkscape:current-layer="g10"
     fit-margin-top="0"
     fit-margin-left="0"
     fit-margin-right="0"
     fit-margin-bottom="0" /><g
     id="g10"
     inkscape:groupmode="layer"
     inkscape:label="shifted MHC plot"
     transform="matrix(1.25,0,0,-1.25,-63.263944,684.73606)"><path
   d="m 139.01,239.62918 0,259.34082"
   style="fill:none;stroke:#868686;stroke-width:0.90169001;stroke-linecap:butt;stroke-linejoin:round;stroke-miterlimit:10;stroke-opacity:1;stroke-dasharray:none"
   id="path16"
   inkscape:connector-curvature="0"
   sodipodi:nodetypes="cc" /><path
   d="m 133.2,240.33 5.81,0 m -5.81,117.58 5.81,0 m -5.81,117.56 5.81,0"
   style="fill:none;stroke:#868686;stroke-width:0.90169001;stroke-linecap:butt;stroke-linejoin:round;stroke-miterlimit:10;stroke-opacity:1;stroke-dasharray:none"
   id="path18"
   inkscape:connector-curvature="0"
   sodipodi:nodetypes="cccccc" /><path
   d="m 139.01,240.38 546.12,0"
   style="fill:none;stroke:#868686;stroke-width:0.90169001;stroke-linecap:butt;stroke-linejoin:round;stroke-miterlimit:10;stroke-opacity:1;stroke-dasharray:none"
   id="path20"
   inkscape:connector-curvature="0" /><path
   d="m 139.01,240.38 0,-5.8 m 181.98,5.8 0,-5.8 m 182.07,5.8 0,-5.8 m 182.07,5.8 0,-5.8"
   style="fill:none;stroke:#868686;stroke-width:0.90169001;stroke-linecap:butt;stroke-linejoin:round;stroke-miterlimit:10;stroke-opacity:1;stroke-dasharray:none"
   id="path22"
   inkscape:connector-curvature="0" /><g
   id="g24"><g
     id="g26"
     clip-path="url(#clipPath28)"><path
       d="m 136.3,240.38 5.41,0 m -5.41,0 5.41,0"
       style="fill:none;stroke:#000000;stroke-width:0.90169001;stroke-linecap:butt;stroke-linejoin:round;stroke-miterlimit:10;stroke-opacity:1;stroke-dasharray:none"
       id="path32"
       inkscape:connector-curvature="0" /></g></g><path
   d="m 320.99,358.05 0,-22.99 m 0,22.99 0,23 m -2.65,-45.99 5.41,0 m -5.41,45.99 5.41,0"
   style="fill:#000000;fill-opacity:1;fill-rule:nonzero;stroke:none"
   id="path34"
   inkscape:connector-curvature="0" /><path
   d="m 320.99,358.05 0,-22.99 m 0,22.99 0,23 m -2.65,-45.99 5.41,0 m -5.41,45.99 5.41,0"
   style="fill:none;stroke:#000000;stroke-width:0.90169001;stroke-linecap:butt;stroke-linejoin:round;stroke-miterlimit:10;stroke-opacity:1;stroke-dasharray:none"
   id="path36"
   inkscape:connector-curvature="0" /><path
   d="m 503.06,393.4 0,-20.93 m 0,20.93 0,20.87 m -2.68,-41.8 5.41,0 m -5.41,41.8 5.41,0"
   style="fill:#000000;fill-opacity:1;fill-rule:nonzero;stroke:none"
   id="path38"
   inkscape:connector-curvature="0" /><path
   d="m 503.06,393.4 0,-20.93 m 0,20.93 0,20.87 m -2.68,-41.8 5.41,0 m -5.41,41.8 5.41,0"
   style="fill:none;stroke:#000000;stroke-width:0.90169001;stroke-linecap:butt;stroke-linejoin:round;stroke-miterlimit:10;stroke-opacity:1;stroke-dasharray:none"
   id="path40"
   inkscape:connector-curvature="0" /><g
   id="g42"><g
     id="g44"
     clip-path="url(#clipPath46)"><path
       d="m 685.13,438.12 0,-33.92 m 0,33.92 0,33.81 m -2.71,-67.73 5.41,0 m -5.41,67.73 5.41,0"
       style="fill:#000000;fill-opacity:1;fill-rule:nonzero;stroke:none"
       id="path50"
       inkscape:connector-curvature="0" /></g></g><g
   id="g52"><g
     id="g54"
     clip-path="url(#clipPath56)"><path
       d="m 685.13,438.12 0,-33.92 m 0,33.92 0,33.81 m -2.71,-67.73 5.41,0 m -5.41,67.73 5.41,0"
       style="fill:none;stroke:#000000;stroke-width:0.90169001;stroke-linecap:butt;stroke-linejoin:round;stroke-miterlimit:10;stroke-opacity:1;stroke-dasharray:none"
       id="path60"
       inkscape:connector-curvature="0" /></g></g><g
   id="g62"><g
     id="g64"
     clip-path="url(#clipPath66)"><path
       d="m 136.3,240.38 5.41,0 m -5.41,0 5.41,0"
       style="fill:none;stroke:#c0504d;stroke-width:1.20229995;stroke-linecap:butt;stroke-linejoin:round;stroke-miterlimit:10;stroke-opacity:1;stroke-dasharray:none"
       id="path70"
       inkscape:connector-curvature="0" /></g></g><path
   d="m 320.99,283.18 0,-14.62 m 0,14.62 0,14.74 m -2.65,-29.36 5.41,0 m -5.41,29.36 5.41,0"
   style="fill:#000000;fill-opacity:1;fill-rule:nonzero;stroke:none"
   id="path72"
   inkscape:connector-curvature="0" /><path
   d="m 320.99,283.18 0,-14.62 m 0,14.62 0,14.74 m -2.65,-29.36 5.41,0 m -5.41,29.36 5.41,0"
   style="fill:none;stroke:#c0504d;stroke-width:1.20229995;stroke-linecap:butt;stroke-linejoin:round;stroke-miterlimit:10;stroke-opacity:1;stroke-dasharray:none"
   id="path74"
   inkscape:connector-curvature="0" /><path
   d="m 503.06,318.67 0,-16.87 m 0,16.87 0,16.98 m -2.68,-33.85 5.41,0 m -5.41,33.85 5.41,0"
   style="fill:#000000;fill-opacity:1;fill-rule:nonzero;stroke:none"
   id="path76"
   inkscape:connector-curvature="0" /><path
   d="m 503.06,318.67 0,-16.87 m 0,16.87 0,16.98 m -2.68,-33.85 5.41,0 m -5.41,33.85 5.41,0"
   style="fill:none;stroke:#c0504d;stroke-width:1.20229995;stroke-linecap:butt;stroke-linejoin:round;stroke-miterlimit:10;stroke-opacity:1;stroke-dasharray:none"
   id="path78"
   inkscape:connector-curvature="0" /><g
   id="g80"><g
     id="g82"
     clip-path="url(#clipPath84)"><path
       d="m 685.13,336.99 0,-13.52 m 0,13.52 0,13.63 m -2.71,-27.15 5.41,0 m -5.41,27.15 5.41,0"
       style="fill:#000000;fill-opacity:1;fill-rule:nonzero;stroke:none"
       id="path88"
       inkscape:connector-curvature="0" /></g></g><g
   id="g90"><g
     id="g92"
     clip-path="url(#clipPath94)"><path
       d="m 685.13,336.99 0,-13.52 m 0,13.52 0,13.63 m -2.71,-27.15 5.41,0 m -5.41,27.15 5.41,0"
       style="fill:none;stroke:#c0504d;stroke-width:1.20229995;stroke-linecap:butt;stroke-linejoin:round;stroke-miterlimit:10;stroke-opacity:1;stroke-dasharray:none"
       id="path98"
       inkscape:connector-curvature="0" /></g></g><g
   id="g100"><g
     id="g102"
     clip-path="url(#clipPath104)"><path
       d="m 136.3,240.38 5.41,0 m -5.41,0 5.41,0"
       style="fill:none;stroke:#000000;stroke-width:0.90169001;stroke-linecap:butt;stroke-linejoin:round;stroke-miterlimit:10;stroke-opacity:1;stroke-dasharray:none"
       id="path108"
       inkscape:connector-curvature="0" /></g></g><path
   d="m 320.99,257.5 0,-23.02 m 0,23.02 0,22.97 m -2.65,-45.99 5.41,0 m -5.41,45.99 5.41,0"
   style="fill:#000000;fill-opacity:1;fill-rule:nonzero;stroke:none"
   id="path110"
   inkscape:connector-curvature="0" /><path
   d="m 320.99,257.5 0,-23.02 m 0,23.02 0,22.97 m -2.65,-45.99 5.41,0 m -5.41,45.99 5.41,0"
   style="fill:none;stroke:#000000;stroke-width:0.90169001;stroke-linecap:butt;stroke-linejoin:round;stroke-miterlimit:10;stroke-opacity:1;stroke-dasharray:none"
   id="path112"
   inkscape:connector-curvature="0" /><path
   d="m 503.06,285.92 0,-20.92 m 0,20.92 0,20.88 m -2.68,-41.8 5.41,0 m -5.41,41.8 5.41,0"
   style="fill:#000000;fill-opacity:1;fill-rule:nonzero;stroke:none"
   id="path114"
   inkscape:connector-curvature="0" /><path
   d="m 503.06,285.92 0,-20.92 m 0,20.92 0,20.88 m -2.68,-41.8 5.41,0 m -5.41,41.8 5.41,0"
   style="fill:none;stroke:#000000;stroke-width:0.90169001;stroke-linecap:butt;stroke-linejoin:round;stroke-miterlimit:10;stroke-opacity:1;stroke-dasharray:none"
   id="path116"
   inkscape:connector-curvature="0" /><g
   id="g118"><g
     id="g120"
     clip-path="url(#clipPath122)"><path
       d="m 685.13,351.85 0,-33.86 m 0,33.86 0,33.87 m -2.71,-67.73 5.41,0 m -5.41,67.73 5.41,0"
       style="fill:#000000;fill-opacity:1;fill-rule:nonzero;stroke:none"
       id="path126"
       inkscape:connector-curvature="0" /></g></g><g
   id="g128"><g
     id="g130"
     clip-path="url(#clipPath132)"><path
       d="m 685.13,351.85 0,-33.86 m 0,33.86 0,33.87 m -2.71,-67.73 5.41,0 m -5.41,67.73 5.41,0"
       style="fill:none;stroke:#000000;stroke-width:0.90169001;stroke-linecap:butt;stroke-linejoin:round;stroke-miterlimit:10;stroke-opacity:1;stroke-dasharray:none"
       id="path136"
       inkscape:connector-curvature="0" /></g></g><g
   id="g138"><g
     id="g140"
     clip-path="url(#clipPath142)"><path
       d="m 136.3,240.38 5.41,0 m -5.41,0 5.41,0"
       style="fill:none;stroke:#c0504d;stroke-width:1.20229995;stroke-linecap:butt;stroke-linejoin:round;stroke-miterlimit:10;stroke-opacity:1;stroke-dasharray:none"
       id="path146"
       inkscape:connector-curvature="0" /></g></g><path
   d="m 320.99,339.44 0,-14.72 m 0,14.72 0,14.64 m -2.65,-29.36 5.41,0 m -5.41,29.36 5.41,0"
   style="fill:#000000;fill-opacity:1;fill-rule:nonzero;stroke:none"
   id="path148"
   inkscape:connector-curvature="0" /><path
   d="m 320.99,339.44 0,-14.72 m 0,14.72 0,14.64 m -2.65,-29.36 5.41,0 m -5.41,29.36 5.41,0"
   style="fill:none;stroke:#c0504d;stroke-width:1.20229995;stroke-linecap:butt;stroke-linejoin:round;stroke-miterlimit:10;stroke-opacity:1;stroke-dasharray:none"
   id="path150"
   inkscape:connector-curvature="0" /><path
   d="m 503.06,379.69 0,-16.89 m 0,16.89 0,16.96 m -2.68,-33.85 5.41,0 m -5.41,33.85 5.41,0"
   style="fill:#000000;fill-opacity:1;fill-rule:nonzero;stroke:none"
   id="path152"
   inkscape:connector-curvature="0" /><path
   d="m 503.06,379.69 0,-16.89 m 0,16.89 0,16.96 m -2.68,-33.85 5.41,0 m -5.41,33.85 5.41,0"
   style="fill:none;stroke:#c0504d;stroke-width:1.20229995;stroke-linecap:butt;stroke-linejoin:round;stroke-miterlimit:10;stroke-opacity:1;stroke-dasharray:none"
   id="path154"
   inkscape:connector-curvature="0" /><g
   id="g156"><g
     id="g158"
     clip-path="url(#clipPath160)"><path
       d="m 685.13,411.15 0,-13.61 m 0,13.61 0,13.53 m -2.71,-27.14 5.41,0 m -5.41,27.14 5.41,0"
       style="fill:#000000;fill-opacity:1;fill-rule:nonzero;stroke:none"
       id="path164"
       inkscape:connector-curvature="0" /></g></g><g
   id="g166"><g
     id="g168"
     clip-path="url(#clipPath170)"><path
       d="m 685.13,411.15 0,-13.61 m 0,13.61 0,13.53 m -2.71,-27.14 5.41,0 m -5.41,27.14 5.41,0"
       style="fill:none;stroke:#c0504d;stroke-width:1.20229995;stroke-linecap:butt;stroke-linejoin:round;stroke-miterlimit:10;stroke-opacity:1;stroke-dasharray:none"
       id="path174"
       inkscape:connector-curvature="0" /></g></g><g
   id="g176"><g
     id="g178"
     clip-path="url(#clipPath180)"><path
       d="m 139.01,240.38 181.98,117.67 182.07,35.35 182.07,44.67"
       style="fill:none;stroke:#000000;stroke-width:4.80900002;stroke-linecap:round;stroke-linejoin:round;stroke-miterlimit:10;stroke-opacity:1;stroke-dasharray:none"
       id="path184"
       inkscape:connector-curvature="0" /></g></g><path
   d="m 139.07,246.97 6.63,-6.64 -6.63,-6.64 -6.64,6.64 6.64,6.64 z"
   style="fill:#000000;fill-opacity:1;fill-rule:nonzero;stroke:none"
   id="path186"
   inkscape:connector-curvature="0" /><path
   d="m 139.07,246.97 6.63,-6.64 -6.63,-6.64 -6.64,6.64 6.64,6.64 z"
   style="fill:none;stroke:#98b954;stroke-width:0.86562002;stroke-linecap:butt;stroke-linejoin:round;stroke-miterlimit:10;stroke-opacity:1;stroke-dasharray:none"
   id="path188"
   inkscape:connector-curvature="0" /><path
   d="m 320.99,364.69 6.64,-6.64 -6.64,-6.63 -6.63,6.63 6.63,6.64 z"
   style="fill:#000000;fill-opacity:1;fill-rule:nonzero;stroke:none"
   id="path190"
   inkscape:connector-curvature="0" /><path
   d="m 320.99,364.69 6.64,-6.64 -6.64,-6.63 -6.63,6.63 6.63,6.64 z"
   style="fill:none;stroke:#98b954;stroke-width:0.86562002;stroke-linecap:butt;stroke-linejoin:round;stroke-miterlimit:10;stroke-opacity:1;stroke-dasharray:none"
   id="path192"
   inkscape:connector-curvature="0" /><path
   d="m 503.06,400.04 6.64,-6.64 -6.64,-6.64 -6.64,6.64 6.64,6.64 z"
   style="fill:#000000;fill-opacity:1;fill-rule:nonzero;stroke:none"
   id="path194"
   inkscape:connector-curvature="0" /><path
   d="m 503.06,400.04 6.64,-6.64 -6.64,-6.64 -6.64,6.64 6.64,6.64 z"
   style="fill:none;stroke:#98b954;stroke-width:0.86562002;stroke-linecap:butt;stroke-linejoin:round;stroke-miterlimit:10;stroke-opacity:1;stroke-dasharray:none"
   id="path196"
   inkscape:connector-curvature="0" /><path
   d="m 685.13,444.76 6.64,-6.64 -6.64,-6.63 -6.64,6.63 6.64,6.64 z"
   style="fill:#000000;fill-opacity:1;fill-rule:nonzero;stroke:none"
   id="path198"
   inkscape:connector-curvature="0" /><path
   d="m 685.13,444.76 6.64,-6.64 -6.64,-6.63 -6.64,6.63 6.64,6.64 z"
   style="fill:none;stroke:#98b954;stroke-width:0.86562002;stroke-linecap:butt;stroke-linejoin:round;stroke-miterlimit:10;stroke-opacity:1;stroke-dasharray:none"
   id="path200"
   inkscape:connector-curvature="0" /><g
   id="g202"><g
     id="g204"
     clip-path="url(#clipPath206)"><path
       d="m 139.01,240.38 181.98,42.8 182.07,35.49 182.07,18.37"
       style="fill:none;stroke:#c0504d;stroke-width:4.80900002;stroke-linecap:round;stroke-linejoin:round;stroke-miterlimit:10;stroke-opacity:1;stroke-dasharray:none"
       id="path210"
       inkscape:connector-curvature="0" /></g></g><path
   d="m 139.07,246.97 6.63,-6.64 -6.63,-6.64 -6.64,6.64 6.64,6.64 z"
   style="fill:#c00000;fill-opacity:1;fill-rule:nonzero;stroke:none"
   id="path212"
   inkscape:connector-curvature="0" /><path
   d="m 139.07,246.97 6.63,-6.64 -6.63,-6.64 -6.64,6.64 6.64,6.64 z"
   style="fill:none;stroke:#7d60a0;stroke-width:0.86562002;stroke-linecap:butt;stroke-linejoin:round;stroke-miterlimit:10;stroke-opacity:1;stroke-dasharray:none"
   id="path214"
   inkscape:connector-curvature="0" /><path
   d="m 320.99,289.81 6.64,-6.63 -6.64,-6.64 -6.63,6.64 6.63,6.63 z"
   style="fill:#c00000;fill-opacity:1;fill-rule:nonzero;stroke:none"
   id="path216"
   inkscape:connector-curvature="0" /><path
   d="m 320.99,289.81 6.64,-6.63 -6.64,-6.64 -6.63,6.64 6.63,6.63 z"
   style="fill:none;stroke:#7d60a0;stroke-width:0.86562002;stroke-linecap:butt;stroke-linejoin:round;stroke-miterlimit:10;stroke-opacity:1;stroke-dasharray:none"
   id="path218"
   inkscape:connector-curvature="0" /><path
   d="m 503.06,325.3 6.64,-6.63 -6.64,-6.64 -6.64,6.64 6.64,6.63 z"
   style="fill:#c00000;fill-opacity:1;fill-rule:nonzero;stroke:none"
   id="path220"
   inkscape:connector-curvature="0" /><path
   d="m 503.06,325.3 6.64,-6.63 -6.64,-6.64 -6.64,6.64 6.64,6.63 z"
   style="fill:none;stroke:#7d60a0;stroke-width:0.86562002;stroke-linecap:butt;stroke-linejoin:round;stroke-miterlimit:10;stroke-opacity:1;stroke-dasharray:none"
   id="path222"
   inkscape:connector-curvature="0" /><path
   d="m 685.13,343.63 6.64,-6.64 -6.64,-6.64 -6.64,6.64 6.64,6.64 z"
   style="fill:#c00000;fill-opacity:1;fill-rule:nonzero;stroke:none"
   id="path224"
   inkscape:connector-curvature="0" /><path
   d="m 685.13,343.63 6.64,-6.64 -6.64,-6.64 -6.64,6.64 6.64,6.64 z"
   style="fill:none;stroke:#7d60a0;stroke-width:0.86562002;stroke-linecap:butt;stroke-linejoin:round;stroke-miterlimit:10;stroke-opacity:1;stroke-dasharray:none"
   id="path226"
   inkscape:connector-curvature="0" /><g
   id="g228"><path
     inkscape:connector-curvature="0"
     id="path236"
     style="fill:none;stroke:#000000;stroke-width:4.80900002;stroke-linecap:butt;stroke-linejoin:round;stroke-miterlimit:10;stroke-opacity:1;stroke-dasharray:4.80900002,4.80900002;stroke-dashoffset:0"
     d="m 139.01,240.38 181.98,17.12 182.07,28.42 182.07,65.94" /></g><path
   d="m 144.77,240.55 c 0,-3.27 -2.65,-5.92 -5.92,-5.92 -3.27,0 -5.91,2.65 -5.91,5.92 0,3.26 2.64,5.91 5.91,5.91 3.27,0 5.92,-2.65 5.92,-5.91 z"
   style="fill:#000000;fill-opacity:1;fill-rule:nonzero;stroke:none"
   id="path238"
   inkscape:connector-curvature="0" /><path
   d="m 144.77,240.55 c 0,-3.27 -2.65,-5.92 -5.92,-5.92 -3.27,0 -5.91,2.65 -5.91,5.92 0,3.26 2.64,5.91 5.91,5.91 3.27,0 5.92,-2.65 5.92,-5.91 z"
   style="fill:none;stroke:#000000;stroke-width:3.60680008;stroke-linecap:butt;stroke-linejoin:round;stroke-miterlimit:10;stroke-opacity:1;stroke-dasharray:none"
   id="path240"
   inkscape:connector-curvature="0" /><path
   d="m 326.83,257.57 c 0,-3.27 -2.64,-5.92 -5.91,-5.92 -3.27,0 -5.92,2.65 -5.92,5.92 0,3.27 2.65,5.92 5.92,5.92 3.27,0 5.91,-2.65 5.91,-5.92 z"
   style="fill:#000000;fill-opacity:1;fill-rule:nonzero;stroke:none"
   id="path242"
   inkscape:connector-curvature="0" /><path
   d="m 326.83,257.57 c 0,-3.27 -2.64,-5.92 -5.91,-5.92 -3.27,0 -5.92,2.65 -5.92,5.92 0,3.27 2.65,5.92 5.92,5.92 3.27,0 5.91,-2.65 5.91,-5.92 z"
   style="fill:none;stroke:#000000;stroke-width:3.60680008;stroke-linecap:butt;stroke-linejoin:round;stroke-miterlimit:10;stroke-opacity:1;stroke-dasharray:none"
   id="path244"
   inkscape:connector-curvature="0" /><path
   d="m 508.9,285.99 c 0,-3.27 -2.64,-5.91 -5.91,-5.91 -3.27,0 -5.92,2.64 -5.92,5.91 0,3.27 2.65,5.92 5.92,5.92 3.27,0 5.91,-2.65 5.91,-5.92 z"
   style="fill:#000000;fill-opacity:1;fill-rule:nonzero;stroke:none"
   id="path246"
   inkscape:connector-curvature="0" /><path
   d="m 508.9,285.99 c 0,-3.27 -2.64,-5.91 -5.91,-5.91 -3.27,0 -5.92,2.64 -5.92,5.91 0,3.27 2.65,5.92 5.92,5.92 3.27,0 5.91,-2.65 5.91,-5.92 z"
   style="fill:none;stroke:#000000;stroke-width:3.60680008;stroke-linecap:butt;stroke-linejoin:round;stroke-miterlimit:10;stroke-opacity:1;stroke-dasharray:none"
   id="path248"
   inkscape:connector-curvature="0" /><path
   d="m 690.83,352.07 c 0,-3.27 -2.65,-5.92 -5.92,-5.92 -3.26,0 -5.91,2.65 -5.91,5.92 0,3.26 2.65,5.91 5.91,5.91 3.27,0 5.92,-2.65 5.92,-5.91 z"
   style="fill:#000000;fill-opacity:1;fill-rule:nonzero;stroke:none"
   id="path250"
   inkscape:connector-curvature="0" /><path
   d="m 690.83,352.07 c 0,-3.27 -2.65,-5.92 -5.92,-5.92 -3.26,0 -5.91,2.65 -5.91,5.92 0,3.26 2.65,5.91 5.91,5.91 3.27,0 5.92,-2.65 5.92,-5.91 z"
   style="fill:none;stroke:#000000;stroke-width:3.60680008;stroke-linecap:butt;stroke-linejoin:round;stroke-miterlimit:10;stroke-opacity:1;stroke-dasharray:none"
   id="path252"
   inkscape:connector-curvature="0" /><path
   d="m 139.01,240.38 181.98,99.06 182.07,40.25 182.07,31.42"
   style="fill:none;stroke:#c0504d;stroke-width:4.80900002;stroke-linecap:butt;stroke-linejoin:round;stroke-miterlimit:10;stroke-opacity:1;stroke-dasharray:4.80900002,4.80900002;stroke-dashoffset:0"
   id="path262"
   inkscape:connector-curvature="0" /><path
   d="m 144.77,240.55 c 0,-3.27 -2.65,-5.92 -5.92,-5.92 -3.27,0 -5.91,2.65 -5.91,5.92 0,3.26 2.64,5.91 5.91,5.91 3.27,0 5.92,-2.65 5.92,-5.91 z"
   style="fill:#c0504d;fill-opacity:1;fill-rule:nonzero;stroke:none"
   id="path264"
   inkscape:connector-curvature="0" /><path
   d="m 144.77,240.55 c 0,-3.27 -2.65,-5.92 -5.92,-5.92 -3.27,0 -5.91,2.65 -5.91,5.92 0,3.26 2.64,5.91 5.91,5.91 3.27,0 5.92,-2.65 5.92,-5.91 z"
   style="fill:none;stroke:#c0504d;stroke-width:3.60680008;stroke-linecap:butt;stroke-linejoin:round;stroke-miterlimit:10;stroke-opacity:1;stroke-dasharray:none"
   id="path266"
   inkscape:connector-curvature="0" /><path
   d="m 326.83,339.52 c 0,-3.27 -2.64,-5.92 -5.91,-5.92 -3.27,0 -5.92,2.65 -5.92,5.92 0,3.26 2.65,5.91 5.92,5.91 3.27,0 5.91,-2.65 5.91,-5.91 z"
   style="fill:#c0504d;fill-opacity:1;fill-rule:nonzero;stroke:none"
   id="path268"
   inkscape:connector-curvature="0" /><path
   d="m 326.83,339.52 c 0,-3.27 -2.64,-5.92 -5.91,-5.92 -3.27,0 -5.92,2.65 -5.92,5.92 0,3.26 2.65,5.91 5.92,5.91 3.27,0 5.91,-2.65 5.91,-5.91 z"
   style="fill:none;stroke:#c0504d;stroke-width:3.60680008;stroke-linecap:butt;stroke-linejoin:round;stroke-miterlimit:10;stroke-opacity:1;stroke-dasharray:none"
   id="path270"
   inkscape:connector-curvature="0" /><path
   d="m 508.9,379.91 c 0,-3.27 -2.64,-5.91 -5.91,-5.91 -3.27,0 -5.92,2.64 -5.92,5.91 0,3.27 2.65,5.92 5.92,5.92 3.27,0 5.91,-2.65 5.91,-5.92 z"
   style="fill:#c0504d;fill-opacity:1;fill-rule:nonzero;stroke:none"
   id="path272"
   inkscape:connector-curvature="0" /><path
   d="m 508.9,379.91 c 0,-3.27 -2.64,-5.91 -5.91,-5.91 -3.27,0 -5.92,2.64 -5.92,5.91 0,3.27 2.65,5.92 5.92,5.92 3.27,0 5.91,-2.65 5.91,-5.92 z"
   style="fill:none;stroke:#c0504d;stroke-width:3.60680008;stroke-linecap:butt;stroke-linejoin:round;stroke-miterlimit:10;stroke-opacity:1;stroke-dasharray:none"
   id="path274"
   inkscape:connector-curvature="0" /><path
   d="m 690.83,411.22 c 0,-3.27 -2.65,-5.92 -5.92,-5.92 -3.26,0 -5.91,2.65 -5.91,5.92 0,3.26 2.65,5.91 5.91,5.91 3.27,0 5.92,-2.65 5.92,-5.91 z"
   style="fill:#c0504d;fill-opacity:1;fill-rule:nonzero;stroke:none"
   id="path276"
   inkscape:connector-curvature="0" /><path
   d="m 690.83,411.22 c 0,-3.27 -2.65,-5.92 -5.92,-5.92 -3.26,0 -5.91,2.65 -5.91,5.92 0,3.26 2.65,5.91 5.91,5.91 3.27,0 5.92,-2.65 5.92,-5.91 z"
   style="fill:none;stroke:#c0504d;stroke-width:3.60680008;stroke-linecap:butt;stroke-linejoin:round;stroke-miterlimit:10;stroke-opacity:1;stroke-dasharray:none"
   id="path278"
   inkscape:connector-curvature="0" /><g
   id="g292"><g
     id="g294"
     clip-path="url(#clipPath296)"><text
   transform="matrix(1,0,0,-1,94.656,234.17)"
   id="text300"><tspan
     style="font-size:19.20000076px;font-variant:normal;font-weight:bold;writing-mode:lr-tb;fill:#000000;fill-opacity:1;fill-rule:nonzero;stroke:none;font-family:Helvetica;-inkscape-font-specification:Helvetica-Bold"
     x="0 10.68"
     y="0"
     sodipodi:role="line"
     id="tspan302">0%</tspan></text>



</g></g><g
   id="g304"><g
     id="g306"
     clip-path="url(#clipPath308)"><text
   transform="matrix(1,0,0,-1,83.952,351.72)"
   id="text312"><tspan
     style="font-size:19.1760006px;font-variant:normal;font-weight:bold;writing-mode:lr-tb;fill:#000000;fill-opacity:1;fill-rule:nonzero;stroke:none;font-family:Helvetica;-inkscape-font-specification:Helvetica-Bold"
     x="0 10.679956 21.359913"
     y="0"
     sodipodi:role="line"
     id="tspan314">25%</tspan></text>



</g></g><g
   id="g316"><g
     id="g318"
     clip-path="url(#clipPath320)"><text
   transform="matrix(1,0,0,-1,83.952,469.3)"
   id="text324"><tspan
     style="font-size:19.20000076px;font-variant:normal;font-weight:bold;writing-mode:lr-tb;fill:#000000;fill-opacity:1;fill-rule:nonzero;stroke:none;font-family:Helvetica;-inkscape-font-specification:Helvetica-Bold"
     x="0 10.68 21.360001"
     y="0"
     sodipodi:role="line"
     id="tspan326">50%</tspan></text>



</g></g><g
   id="g328"><g
     id="g330"
     clip-path="url(#clipPath332)"><text
   transform="matrix(1,0,0,-1,133.66,211.25)"
   id="text336"><tspan
     style="font-size:19.20000076px;font-variant:normal;font-weight:bold;writing-mode:lr-tb;fill:#000000;fill-opacity:1;fill-rule:nonzero;stroke:none;font-family:Helvetica;-inkscape-font-specification:Helvetica-Bold"
     x="0"
     y="0"
     id="tspan338">0</tspan></text>



</g></g><g
   id="g340"><g
     id="g342"
     clip-path="url(#clipPath344)"><text
   transform="matrix(1,0,0,-1,310.39,211.25)"
   id="text348"><tspan
     style="font-size:19.20000076px;font-variant:normal;font-weight:bold;writing-mode:lr-tb;fill:#000000;fill-opacity:1;fill-rule:nonzero;stroke:none;font-family:Helvetica;-inkscape-font-specification:Helvetica-Bold"
     x="0 10.68"
     y="0"
     sodipodi:role="line"
     id="tspan350">10</tspan></text>



</g></g><g
   id="g352"><g
     id="g354"
     clip-path="url(#clipPath356)"><text
   transform="matrix(1,0,0,-1,492.46,211.25)"
   id="text360"><tspan
     style="font-size:19.20000076px;font-variant:normal;font-weight:bold;writing-mode:lr-tb;fill:#000000;fill-opacity:1;fill-rule:nonzero;stroke:none;font-family:Helvetica;-inkscape-font-specification:Helvetica-Bold"
     x="0 10.68"
     y="0"
     sodipodi:role="line"
     id="tspan362">20</tspan></text>



</g></g><g
   id="g364"><g
     id="g366"
     clip-path="url(#clipPath368)"><text
   transform="matrix(1,0,0,-1,674.54,211.25)"
   id="text372"><tspan
     style="font-size:19.20000076px;font-variant:normal;font-weight:bold;writing-mode:lr-tb;fill:#000000;fill-opacity:1;fill-rule:nonzero;stroke:none;font-family:Helvetica;-inkscape-font-specification:Helvetica-Bold"
     x="0 10.656"
     y="0"
     sodipodi:role="line"
     id="tspan374">30</tspan></text>



</g></g><path
   d="m 166.52804,484.74047 23.08,0"
   style="fill:none;stroke:#000000;stroke-width:4.80900002;stroke-linecap:round;stroke-linejoin:round;stroke-miterlimit:10;stroke-opacity:1;stroke-dasharray:none"
   id="path388"
   inkscape:connector-curvature="0" /><path
   d="m 178.06804,488.38047 3.6,-3.61 -3.6,-3.6 -3.61,3.6 3.61,3.61 z"
   style="fill:#000000;fill-opacity:1;fill-rule:nonzero;stroke:none"
   id="path390"
   inkscape:connector-curvature="0" /><path
   d="m 178.06804,488.38047 3.6,-3.61 -3.6,-3.6 -3.61,3.6 3.61,3.61 z"
   style="fill:none;stroke:#98b954;stroke-width:0.86562002;stroke-linecap:butt;stroke-linejoin:round;stroke-miterlimit:10;stroke-opacity:1;stroke-dasharray:none"
   id="path392"
   inkscape:connector-curvature="0" /><g
   id="g394"
   transform="translate(-376.21196,239.03047)"><g
     id="g396"
     clip-path="url(#clipPath398)"><text
   transform="matrix(1,0,0,-1,568.34,197.42)"
   id="text402"><tspan
     style="font-size:11.97599983px;font-variant:normal;font-weight:normal;writing-mode:lr-tb;fill:#000000;fill-opacity:1;fill-rule:nonzero;stroke:none;font-family:Calibri;-inkscape-font-specification:Calibri"
     x="0 10.65864 16.598736 19.305311 25.544807 31.604664 37.676495 43.748329 46.454903 55.137505 59.760239 62.466816 68.826073 73.005699 78.933815 81.640388 85.688278 89.867905 95.604408 98.358887 104.70617 107.46065 113.79595"
     y="0"
     sodipodi:role="line"
     id="tspan404">WT n=16 w/ pre training</tspan></text>



</g></g><path
   d="m 166.52804,462.10047 23.08,0"
   style="fill:none;stroke:#c0504d;stroke-width:4.80900002;stroke-linecap:round;stroke-linejoin:round;stroke-miterlimit:10;stroke-opacity:1;stroke-dasharray:none"
   id="path406"
   inkscape:connector-curvature="0" /><path
   d="m 178.06804,465.73047 3.6,-3.61 -3.6,-3.6 -3.61,3.6 3.61,3.61 z"
   style="fill:#c00000;fill-opacity:1;fill-rule:nonzero;stroke:none"
   id="path408"
   inkscape:connector-curvature="0" /><path
   d="m 178.06804,465.73047 3.6,-3.61 -3.6,-3.6 -3.61,3.6 3.61,3.61 z"
   style="fill:none;stroke:#7d60a0;stroke-width:0.86562002;stroke-linecap:butt;stroke-linejoin:round;stroke-miterlimit:10;stroke-opacity:1;stroke-dasharray:none"
   id="path410"
   inkscape:connector-curvature="0" /><g
   id="g412"
   transform="translate(-376.21196,335.03047)"><g
     id="g414"
     clip-path="url(#clipPath416)"><text
   transform="scale(1,-1)"
   id="text420"
   x="568.34003"
   y="-78.789948"><tspan
     style="font-size:11.97599983px;font-variant:normal;font-weight:normal;writing-mode:lr-tb;fill:#000000;fill-opacity:1;fill-rule:nonzero;stroke:none;font-family:Calibri;-inkscape-font-specification:Calibri"
     x="568.34003 574.5675 582.49561 585.20221 591.58539 597.64526 603.7171 609.78894 612.49548 621.1781 625.80084 628.50745 634.73492 638.91455 644.97443 647.68103 651.72888 655.90851 661.64502 664.39948 670.61505 673.47729 679.69287"
     y="-78.789948"
     sodipodi:role="line"
     id="tspan422">KO n=24 w/ pre training</tspan></text>



</g></g><path
   d="m 166.52804,439.46047 23.08,0"
   style="fill:none;stroke:#000000;stroke-width:4.80880013;stroke-linecap:butt;stroke-linejoin:round;stroke-miterlimit:10;stroke-opacity:1;stroke-dasharray:4.80880013,14.42640038;stroke-dashoffset:0"
   id="path424"
   inkscape:connector-curvature="0" /><path
   d="m 181.59804,439.47047 c 0,-1.95 -1.58,-3.53 -3.53,-3.53 -1.95,0 -3.54,1.58 -3.54,3.53 0,1.96 1.59,3.54 3.54,3.54 1.95,0 3.53,-1.58 3.53,-3.54 z"
   style="fill:#000000;fill-opacity:1;fill-rule:nonzero;stroke:none"
   id="path426"
   inkscape:connector-curvature="0" /><path
   d="m 181.59804,439.47047 c 0,-1.95 -1.58,-3.53 -3.53,-3.53 -1.95,0 -3.54,1.58 -3.54,3.53 0,1.96 1.59,3.54 3.54,3.54 1.95,0 3.53,-1.58 3.53,-3.54 z"
   style="fill:none;stroke:#000000;stroke-width:3.60680008;stroke-linecap:butt;stroke-linejoin:round;stroke-miterlimit:10;stroke-opacity:1;stroke-dasharray:none"
   id="path428"
   inkscape:connector-curvature="0" /><g
   id="g430"
   transform="translate(-376.21196,328.63047)"><g
     id="g432"
     clip-path="url(#clipPath434)"><text
   transform="matrix(1,0,0,-1,568.34,152.14)"
   id="text438"><tspan
     style="font-size:11.97599983px;font-variant:normal;font-weight:normal;writing-mode:lr-tb;fill:#000000;fill-opacity:1;fill-rule:nonzero;stroke:none;font-family:Calibri;-inkscape-font-specification:Calibri"
     x="0 10.65864 16.598736 19.305311 25.544807 31.604664 37.676495 43.748329 46.454903 55.137505 59.760239 66.071594 68.826073 75.173355 79.352974 85.281097 87.987671 92.035561 96.215187 101.95169 104.70617 111.05345 113.80793 120.14323"
     y="0"
     sodipodi:role="line"
     id="tspan440">WT n=16 w/o pre training</tspan></text>



</g></g><path
   d="m 166.52804,416.81047 23.08,0"
   style="fill:none;stroke:#c0504d;stroke-width:4.80900002000000000;stroke-linecap:butt;stroke-linejoin:round;stroke-miterlimit:10;stroke-opacity:1;stroke-dasharray:4.80900002000000000, 14.42700005000000000;stroke-dashoffset:0"
   id="path442"
   inkscape:connector-curvature="0" /><path
   d="m 181.59804,416.82047 c 0,-1.95 -1.58,-3.53 -3.53,-3.53 -1.95,0 -3.54,1.58 -3.54,3.53 0,1.95 1.59,3.54 3.54,3.54 1.95,0 3.53,-1.59 3.53,-3.54 z"
   style="fill:#c0504d;fill-opacity:1;fill-rule:nonzero;stroke:none"
   id="path444"
   inkscape:connector-curvature="0" /><path
   d="m 181.59804,416.82047 c 0,-1.95 -1.58,-3.53 -3.53,-3.53 -1.95,0 -3.54,1.58 -3.54,3.53 0,1.95 1.59,3.54 3.54,3.54 1.95,0 3.53,-1.59 3.53,-3.54 z"
   style="fill:none;stroke:#c0504d;stroke-width:3.60680008;stroke-linecap:butt;stroke-linejoin:round;stroke-miterlimit:10;stroke-opacity:1;stroke-dasharray:none"
   id="path446"
   inkscape:connector-curvature="0" /><g
   id="g448"
   transform="translate(-376.21196,328.63047)"><g
     id="g450"
     clip-path="url(#clipPath452)"><text
   transform="matrix(1,0,0,-1,568.34,129.48)"
   id="text456"><tspan
     style="font-size:11.97599983px;font-variant:normal;font-weight:normal;writing-mode:lr-tb;fill:#000000;fill-opacity:1;fill-rule:nonzero;stroke:none;font-family:Calibri;-inkscape-font-specification:Calibri"
     x="0 6.22752 14.155632 16.862207 23.245417 29.305271 35.377106 41.448936 44.155514 52.838112 57.46085 63.772202 66.394943 72.742226 76.921844 82.981705 85.688278 89.736168 93.915794 99.532539 102.3948 108.61034 111.47261 117.68815"
     y="0"
     sodipodi:role="line"
     id="tspan458">KO n=24 w/o pre training</tspan></text>



</g></g><path
   d="m 51.002413,183.90037 690.169177,0 0,363.49722 -690.169177,0 0,-363.49722 z"
   style="fill:none;stroke:none;stroke-width:0.78251588000000005;stroke-linecap:butt;stroke-linejoin:round;stroke-miterlimit:10;stroke-opacity:1;stroke-dasharray:none"
   id="path460"
   inkscape:connector-curvature="0" /><text
   xml:space="preserve"
   style="font-size:32px;font-style:normal;font-weight:normal;line-height:125%;letter-spacing:0px;word-spacing:0px;fill:#000000;fill-opacity:1;stroke:none;font-family:Sans"
   x="351.09976"
   y="-196.23509"
   id="text3207"
   sodipodi:linespacing="125%"
   transform="scale(1,-1)"><tspan
     sodipodi:role="line"
     id="tspan3209"
     x="351.09976"
     y="-196.23509"
     style="font-size:22.39999962px">Time (mins)</tspan></text>


<g
   id="g3215"><text
   transform="matrix(0,1,1,0,0,0)"
   sodipodi:linespacing="125%"
   id="text3211"
   y="72.749641"
   x="248.79837"
   style="font-size:32px;font-style:normal;font-weight:normal;line-height:125%;letter-spacing:0px;word-spacing:0px;fill:#000000;fill-opacity:1;stroke:none;font-family:Sans"
   xml:space="preserve"><tspan
     y="72.749641"
     x="248.79837"
     id="tspan3213"
     sodipodi:role="line"
     style="font-size:22.39999962px">Learning (Δ VOR gain)</tspan></text>


</g><rect
   style="fill:none;stroke:#000000;stroke-width:1.60000002;stroke-miterlimit:4;stroke-dasharray:none;stroke-dashoffset:0"
   id="rect3219"
   width="166.58017"
   height="88.964798"
   x="155.74646"
   y="-494.70996"
   transform="scale(1,-1)" /></g></svg>