<?xml version="1.0" encoding="UTF-8" standalone="no"?>
<!-- Created with Inkscape (http://www.inkscape.org/) -->

<svg
   xmlns:dc="http://purl.org/dc/elements/1.1/"
   xmlns:cc="http://creativecommons.org/ns#"
   xmlns:rdf="http://www.w3.org/1999/02/22-rdf-syntax-ns#"
   xmlns:svg="http://www.w3.org/2000/svg"
   xmlns="http://www.w3.org/2000/svg"
   xmlns:sodipodi="http://sodipodi.sourceforge.net/DTD/sodipodi-0.dtd"
   xmlns:inkscape="http://www.inkscape.org/namespaces/inkscape"
   id="svg2"
   version="1.1"
   inkscape:version="0.48.4 r9939"
   width="940"
   height="940"
   xml:space="preserve"
   sodipodi:docname="binary_learnS_top.svg"><metadata
     id="metadata8"><rdf:RDF><cc:Work
         rdf:about=""><dc:format>image/svg+xml</dc:format><dc:type
           rdf:resource="http://purl.org/dc/dcmitype/StillImage" /><dc:title /></cc:Work></rdf:RDF></metadata><defs
     id="defs6"><clipPath
       clipPathUnits="userSpaceOnUse"
       id="clipPath194"><path
         d="m 986.668,6777.5 0,-6113.332 5800.002,0 0,6113.332 -5800.002,0 z"
         id="path196"
         inkscape:connector-curvature="0" /></clipPath><clipPath
       clipPathUnits="userSpaceOnUse"
       id="clipPath266"><path
         d="m 3139.17,6550.84 0,-1075.84 1493.33,0 0,1075.84 -1493.33,0 z"
         id="path268"
         inkscape:connector-curvature="0" /></clipPath><clipPath
       clipPathUnits="userSpaceOnUse"
       id="clipPath282"><path
         d="m 3139.17,6550.84 0,-1075.84 1493.33,0 0,1075.84 -1493.33,0 z"
         id="path284"
         inkscape:connector-curvature="0" /></clipPath><clipPath
       clipPathUnits="userSpaceOnUse"
       id="clipPath298"><path
         d="m 3139.17,6550.84 0,-1075.84 1493.33,0 0,1075.84 -1493.33,0 z"
         id="path300"
         inkscape:connector-curvature="0" /></clipPath><clipPath
       clipPathUnits="userSpaceOnUse"
       id="clipPath314"><path
         d="m 3139.17,6550.84 0,-1075.84 1493.33,0 0,1075.84 -1493.33,0 z"
         id="path316"
         inkscape:connector-curvature="0" /></clipPath></defs><sodipodi:namedview
     pagecolor="#ffffff"
     bordercolor="#666666"
     borderopacity="1"
     objecttolerance="10"
     gridtolerance="10"
     guidetolerance="10"
     inkscape:pageopacity="0"
     inkscape:pageshadow="2"
     inkscape:window-width="2560"
     inkscape:window-height="1538"
     id="namedview4"
     showgrid="true"
     inkscape:zoom="1.2097339"
     inkscape:cx="194.25761"
     inkscape:cy="478.75"
     inkscape:window-x="-8"
     inkscape:window-y="-8"
     inkscape:window-maximized="1"
     inkscape:current-layer="g10"
     fit-margin-top="0"
     fit-margin-left="0"
     fit-margin-right="0"
     fit-margin-bottom="0"><inkscape:grid
       type="xygrid"
       id="grid4080"
       empspacing="5"
       visible="true"
       enabled="true"
       snapvisiblegridlinesonly="true"
       originx="0px"
       originy="20px" /></sodipodi:namedview><g
     id="g10"
     inkscape:groupmode="layer"
     inkscape:label="ink_ext_XXXXXX"
     transform="matrix(1.25,0,0,-1.25,0,920)"><path
       inkscape:connector-curvature="0"
       id="path22"
       style="fill:none;stroke:#000000;stroke-width:0.5;stroke-linecap:butt;stroke-linejoin:round;stroke-miterlimit:10;stroke-opacity:1;stroke-dasharray:none"
       d="m 98.6668,66.5 579.9162,0" /><path
       inkscape:connector-curvature="0"
       id="path26"
       style="fill:none;stroke:#000000;stroke-width:0.5;stroke-linecap:butt;stroke-linejoin:round;stroke-miterlimit:10;stroke-opacity:1;stroke-dasharray:none"
       d="m 98.6668,66.5 0,611.25" /><path
       inkscape:connector-curvature="0"
       id="path28"
       style="fill:none;stroke:#000000;stroke-width:0.5;stroke-linecap:butt;stroke-linejoin:round;stroke-miterlimit:10;stroke-opacity:1;stroke-dasharray:none"
       d="m 98.6668,66.5 579.9162,0" /><path
       inkscape:connector-curvature="0"
       id="path30"
       style="fill:none;stroke:#000000;stroke-width:0.5;stroke-linecap:butt;stroke-linejoin:round;stroke-miterlimit:10;stroke-opacity:1;stroke-dasharray:none"
       d="m 98.6668,66.5 0,611.25" /><path
       inkscape:connector-curvature="0"
       id="path32"
       style="fill:none;stroke:#000000;stroke-width:0.5;stroke-linecap:butt;stroke-linejoin:round;stroke-miterlimit:10;stroke-opacity:1;stroke-dasharray:none"
       d="m 98.6668,66.5 0,6.1668" /><path
       inkscape:connector-curvature="0"
       id="path34"
       style="fill:none;stroke:#000000;stroke-width:0.5;stroke-linecap:butt;stroke-linejoin:round;stroke-miterlimit:10;stroke-opacity:1;stroke-dasharray:none"
       d="m 98.6668,677.75 0,-6.083" /><path
       inkscape:connector-curvature="0"
       id="path42"
       style="fill:none;stroke:#000000;stroke-width:0.5;stroke-linecap:butt;stroke-linejoin:round;stroke-miterlimit:10;stroke-opacity:1;stroke-dasharray:none"
       d="m 214.583,66.5 0,6.1668" /><path
       inkscape:connector-curvature="0"
       id="path44"
       style="fill:none;stroke:#000000;stroke-width:0.5;stroke-linecap:butt;stroke-linejoin:round;stroke-miterlimit:10;stroke-opacity:1;stroke-dasharray:none"
       d="m 214.583,677.75 0,-6.083" /><path
       inkscape:connector-curvature="0"
       id="path52"
       style="fill:none;stroke:#000000;stroke-width:0.5;stroke-linecap:butt;stroke-linejoin:round;stroke-miterlimit:10;stroke-opacity:1;stroke-dasharray:none"
       d="m 330.583,66.5 0,6.1668" /><path
       inkscape:connector-curvature="0"
       id="path54"
       style="fill:none;stroke:#000000;stroke-width:0.5;stroke-linecap:butt;stroke-linejoin:round;stroke-miterlimit:10;stroke-opacity:1;stroke-dasharray:none"
       d="m 330.583,677.75 0,-6.083" /><path
       inkscape:connector-curvature="0"
       id="path62"
       style="fill:none;stroke:#000000;stroke-width:0.5;stroke-linecap:butt;stroke-linejoin:round;stroke-miterlimit:10;stroke-opacity:1;stroke-dasharray:none"
       d="m 446.583,66.5 0,6.1668" /><path
       inkscape:connector-curvature="0"
       id="path64"
       style="fill:none;stroke:#000000;stroke-width:0.5;stroke-linecap:butt;stroke-linejoin:round;stroke-miterlimit:10;stroke-opacity:1;stroke-dasharray:none"
       d="m 446.583,677.75 0,-6.083" /><path
       inkscape:connector-curvature="0"
       id="path72"
       style="fill:none;stroke:#000000;stroke-width:0.5;stroke-linecap:butt;stroke-linejoin:round;stroke-miterlimit:10;stroke-opacity:1;stroke-dasharray:none"
       d="m 562.583,66.5 0,6.1668" /><path
       inkscape:connector-curvature="0"
       id="path82"
       style="fill:none;stroke:#000000;stroke-width:0.5;stroke-linecap:butt;stroke-linejoin:round;stroke-miterlimit:10;stroke-opacity:1;stroke-dasharray:none"
       d="m 678.583,66.5 0,6.1668" /><path
       inkscape:connector-curvature="0"
       id="path92"
       style="fill:none;stroke:#000000;stroke-width:0.5;stroke-linecap:butt;stroke-linejoin:round;stroke-miterlimit:10;stroke-opacity:1;stroke-dasharray:none"
       d="m 98.6668,66.5 6.0832,0" /><path
       inkscape:connector-curvature="0"
       id="path94"
       style="fill:none;stroke:#000000;stroke-width:0.5;stroke-linecap:butt;stroke-linejoin:round;stroke-miterlimit:10;stroke-opacity:1;stroke-dasharray:none"
       d="m 678.583,66.5 -6.166,0" /><path
       inkscape:connector-curvature="0"
       id="path102"
       style="fill:none;stroke:#000000;stroke-width:0.5;stroke-linecap:butt;stroke-linejoin:round;stroke-miterlimit:10;stroke-opacity:1;stroke-dasharray:none"
       d="m 98.6668,142.917 6.0832,0" /><path
       inkscape:connector-curvature="0"
       id="path112"
       style="fill:none;stroke:#000000;stroke-width:0.5;stroke-linecap:butt;stroke-linejoin:round;stroke-miterlimit:10;stroke-opacity:1;stroke-dasharray:none"
       d="m 98.6668,219.333 6.0832,0" /><path
       inkscape:connector-curvature="0"
       id="path122"
       style="fill:none;stroke:#000000;stroke-width:0.5;stroke-linecap:butt;stroke-linejoin:round;stroke-miterlimit:10;stroke-opacity:1;stroke-dasharray:none"
       d="m 98.6668,295.75 6.0832,0" /><path
       inkscape:connector-curvature="0"
       id="path132"
       style="fill:none;stroke:#000000;stroke-width:0.5;stroke-linecap:butt;stroke-linejoin:round;stroke-miterlimit:10;stroke-opacity:1;stroke-dasharray:none"
       d="m 98.6668,372.167 6.0832,0" /><path
       inkscape:connector-curvature="0"
       id="path142"
       style="fill:none;stroke:#000000;stroke-width:0.5;stroke-linecap:butt;stroke-linejoin:round;stroke-miterlimit:10;stroke-opacity:1;stroke-dasharray:none"
       d="m 98.6668,448.584 6.0832,0" /><path
       inkscape:connector-curvature="0"
       id="path152"
       style="fill:none;stroke:#000000;stroke-width:0.5;stroke-linecap:butt;stroke-linejoin:round;stroke-miterlimit:10;stroke-opacity:1;stroke-dasharray:none"
       d="m 98.6668,525 6.0832,0" /><path
       inkscape:connector-curvature="0"
       id="path162"
       style="fill:none;stroke:#000000;stroke-width:0.5;stroke-linecap:butt;stroke-linejoin:round;stroke-miterlimit:10;stroke-opacity:1;stroke-dasharray:none"
       d="m 98.6668,601.417 6.0832,0" /><path
       inkscape:connector-curvature="0"
       id="path172"
       style="fill:none;stroke:#000000;stroke-width:0.5;stroke-linecap:butt;stroke-linejoin:round;stroke-miterlimit:10;stroke-opacity:1;stroke-dasharray:none"
       d="m 98.6668,677.75 6.0832,0" /><path
       inkscape:connector-curvature="0"
       id="path184"
       style="fill:none;stroke:#000000;stroke-width:0.5;stroke-linecap:butt;stroke-linejoin:round;stroke-miterlimit:10;stroke-opacity:1;stroke-dasharray:none"
       d="m 98.6668,66.5 579.9162,0" /><path
       inkscape:connector-curvature="0"
       id="path188"
       style="fill:none;stroke:#000000;stroke-width:0.5;stroke-linecap:butt;stroke-linejoin:round;stroke-miterlimit:10;stroke-opacity:1;stroke-dasharray:none"
       d="m 98.6668,66.5 0,611.25" /><path
       inkscape:connector-curvature="0"
       id="path200"
       style="fill:none;stroke:#000000;stroke-width:2;stroke-linecap:butt;stroke-linejoin:round;stroke-miterlimit:10;stroke-opacity:1;stroke-dasharray:none"
       d="m 98.6668,66.5 5.7502,3.8332" /><path
       inkscape:connector-curvature="0"
       id="path204"
       style="fill:none;stroke:#000000;stroke-width:2;stroke-linecap:butt;stroke-linejoin:round;stroke-miterlimit:10;stroke-opacity:1;stroke-dasharray:6;stroke-dashoffset:0"
       d="m 98.6668,66.5 5.7502,5.3332" /><path
       inkscape:connector-curvature="0"
       id="path208"
       style="fill:none;stroke:#c00000;stroke-width:2;stroke-linecap:butt;stroke-linejoin:round;stroke-miterlimit:10;stroke-opacity:1;stroke-dasharray:none"
       d="m 98.6668,66.5 5.7502,5.0832" /><path
       inkscape:connector-curvature="0"
       id="path212"
       style="fill:none;stroke:#c00000;stroke-width:2;stroke-linecap:butt;stroke-linejoin:round;stroke-miterlimit:10;stroke-opacity:1;stroke-dasharray:6;stroke-dashoffset:0"
       d="m 98.6668,66.5 5.7502,8" /><g
       id="g214"><text
   style="font-size:19.20000076px"
   y="-5.0187469"
   x="206.36697"
   id="text216"
   transform="scale(1,-1)"><tspan
     id="tspan218"
     sodipodi:role="line"
     y="-5.0187469"
     x="206.36697 245.47098 266.78296 302.36697 316.57495 352.15897 366.36697 401.95096 437.53497 455.32697 473.11896 487.32697 540.63898"
     style="font-size:64px;font-variant:normal;font-weight:normal;writing-mode:lr-tb;fill:#000000;fill-opacity:1;fill-rule:nonzero;stroke:none;font-family:Helvetica;-inkscape-font-specification:Helvetica">Training time</tspan></text>















<g
   transform="matrix(1.6,0,0,1.6,-18.138983,-224.33942)"
   id="g3126"><text
   transform="matrix(0,1,1,0,40.5832,176.5)"
   id="text220"><tspan
     style="font-size:40px;font-variant:normal;font-weight:normal;writing-mode:lr-tb;fill:#000000;fill-opacity:1;fill-rule:nonzero;stroke:none;font-family:Helvetica;-inkscape-font-specification:Helvetica"
     x="0 22.24 44.48 66.720001 80.040001 102.28 111.16 133.39999 155.64 166.75999 180.08"
     y="0"
     sodipodi:role="line"
     id="tspan222">Learning (−</tspan></text>



<text
   transform="matrix(0,1,1,0,40.5832,380.917)"
   id="text224"><tspan
     style="font-size:40px;font-variant:normal;font-weight:normal;writing-mode:lr-tb;fill:#000000;fill-opacity:1;fill-rule:nonzero;stroke:none;font-family:Symbol;-inkscape-font-specification:Symbol"
     x="0"
     y="0"
     id="tspan226">∆</tspan></text>



<text
   transform="matrix(0,1,1,0,40.5832,416.4534)"
   id="text228"><tspan
     style="font-size:40px;font-variant:normal;font-weight:normal;writing-mode:lr-tb;fill:#000000;fill-opacity:1;fill-rule:nonzero;stroke:none;font-family:Helvetica;-inkscape-font-specification:Helvetica"
     x="0 33.32 55.560001 77.800003 100.04 111.16 140.03999"
     y="0"
     sodipodi:role="line"
     id="tspan230">mean w)</tspan></text>



</g>



</g><path
       sodipodi:nodetypes="ccccc"
       inkscape:connector-curvature="0"
       id="path232"
       style="fill:#ffffff;stroke:#000000;stroke-width:1.56000006;stroke-miterlimit:4;stroke-dasharray:none"
       d="m 104.21185,524.2625 405.6,0 0,202.8 -405.6,0 z" /><g
       transform="matrix(1.95,0,0,1.95,-504.18815,-552.1375)"
       id="g304"><text
   id="text306"
   transform="matrix(1,0,0,-1,352.917,555.167)"><tspan
     y="0"
     x="0"
     id="tspan308"
     sodipodi:role="line"
     style="font-size:20px;font-variant:normal;font-weight:normal;writing-mode:lr-tb;fill:#000000;fill-opacity:1;fill-rule:nonzero;stroke:none;font-family:Helvetica;-inkscape-font-specification:Helvetica">Enh.Plas. w/   rev</tspan></text>







</g><g
       transform="matrix(1.95,0,0,1.95,-504.18815,-552.1375)"
       id="g288"><text
   id="text290"
   transform="matrix(1,0,0,-1,352.917,581.167)"><tspan
     id="tspan292"
     sodipodi:role="line"
     y="0"
     x="0 18.879999 31.1"
     style="font-size:20px;font-variant:normal;font-weight:normal;writing-mode:lr-tb;fill:#000000;fill-opacity:1;fill-rule:nonzero;stroke:none;font-family:Helvetica;-inkscape-font-specification:Helvetica">WT           w/   rev</tspan></text>







</g><g
       transform="matrix(1.95,0,0,1.95,-504.18815,-552.1375)"
       id="g272"><text
   id="text274"
   transform="matrix(1,0,0,-1,352.917,607.25)"><tspan
     y="0"
     x="0"
     id="tspan276"
     sodipodi:role="line"
     style="font-size:20px;font-variant:normal;font-weight:normal;writing-mode:lr-tb;fill:#000000;fill-opacity:1;fill-rule:nonzero;stroke:none;font-family:Helvetica;-inkscape-font-specification:Helvetica">Enh.Plas. w/o rev</tspan></text>







</g><g
       transform="matrix(1.95,0,0,1.95,-504.18815,-552.1375)"
       id="g256"><text
   id="text258"
   transform="matrix(1,0,0,-1,352.917,633.25)"><tspan
     id="tspan260"
     sodipodi:role="line"
     y="0"
     x="0 18.879999 31.1 31.1"
     style="font-size:20px;font-variant:normal;font-weight:normal;writing-mode:lr-tb;fill:#000000;fill-opacity:1;fill-rule:nonzero;stroke:none;font-family:Helvetica;-inkscape-font-specification:Helvetica">WT            w/o rev</tspan></text>







</g><g
       transform="matrix(0.195,0,0,0.195,-504.18815,-552.1375)"
       style="stroke-width:40;stroke-miterlimit:10;stroke-dasharray:none"
       id="g262"><g
         style="stroke-width:40;stroke-miterlimit:10;stroke-dasharray:none"
         clip-path="url(#clipPath266)"
         id="g264"><path
           inkscape:connector-curvature="0"
           id="path270"
           style="fill:none;stroke:#000000;stroke-width:40;stroke-linecap:butt;stroke-linejoin:round;stroke-miterlimit:10;stroke-opacity:1;stroke-dasharray:none"
           d="m 3199.17,6403.34 300,0" /></g></g><g
       transform="matrix(0.195,0,0,0.195,-504.18815,-552.1375)"
       style="stroke-width:40;stroke-miterlimit:10;stroke-dasharray:none"
       id="g278"><g
         style="stroke-width:40;stroke-miterlimit:10;stroke-dasharray:none"
         clip-path="url(#clipPath282)"
         id="g280"><path
           inkscape:connector-curvature="0"
           id="path286"
           style="fill:none;stroke:#c00000;stroke-width:40;stroke-linecap:butt;stroke-linejoin:round;stroke-miterlimit:10;stroke-opacity:1;stroke-dasharray:none"
           d="m 3199.17,6143.34 300,0" /></g></g><g
       transform="matrix(0.195,0,0,0.195,-504.18815,-552.1375)"
       style="stroke-width:40;stroke-miterlimit:10;stroke-dasharray:120, 120;stroke-dashoffset:0"
       id="g294"><g
         style="stroke-width:40;stroke-miterlimit:10;stroke-dasharray:120, 120;stroke-dashoffset:0"
         clip-path="url(#clipPath298)"
         id="g296"><path
           inkscape:connector-curvature="0"
           id="path302"
           style="fill:none;stroke:#000000;stroke-width:40;stroke-linecap:butt;stroke-linejoin:round;stroke-miterlimit:10;stroke-opacity:1;stroke-dasharray:120, 120;stroke-dashoffset:0"
           d="m 3199.17,5884.17 300,0" /></g></g><g
       transform="matrix(0.195,0,0,0.195,-504.18815,-552.1375)"
       style="stroke-width:40;stroke-miterlimit:10;stroke-dasharray:120, 120;stroke-dashoffset:0"
       id="g310"><g
         style="stroke-width:40;stroke-miterlimit:10;stroke-dasharray:120, 120;stroke-dashoffset:0"
         clip-path="url(#clipPath314)"
         id="g312"><path
           inkscape:connector-curvature="0"
           id="path318"
           style="fill:none;stroke:#c00000;stroke-width:40;stroke-linecap:butt;stroke-linejoin:round;stroke-miterlimit:10;stroke-opacity:1;stroke-dasharray:120, 120;stroke-dashoffset:0"
           d="m 3199.17,5623.34 300,0" /></g></g><path
       inkscape:connector-curvature="0"
       id="path4082"
       d="m 680,416 40,0 0,-48 -40,0"
       style="fill:none;stroke:#ff6600;stroke-width:3.20000005;stroke-linecap:butt;stroke-linejoin:miter;stroke-miterlimit:4;stroke-opacity:1;stroke-dasharray:none" /><path
       inkscape:connector-curvature="0"
       id="path4084"
       d="m 680,488 64,0 0,-128 -64,0"
       style="fill:none;stroke:none;stroke-width:3.20000004999999990;stroke-linecap:butt;stroke-linejoin:miter;stroke-miterlimit:4;stroke-opacity:1;stroke-dasharray:none" /><rect
       transform="scale(1,-1)"
       y="-496"
       x="651.20001"
       height="160"
       width="32"
       id="rect3066"
       style="fill:#ffffff;fill-rule:evenodd;stroke:#ffffff;stroke-width:0.80000001px;stroke-linecap:butt;stroke-linejoin:miter;stroke-opacity:1" /><path
       inkscape:connector-curvature="0"
       id="path198"
       style="fill:none;stroke:#000000;stroke-width:6.4000001;stroke-linecap:butt;stroke-linejoin:round;stroke-miterlimit:10;stroke-opacity:1;stroke-dasharray:none"
       d="m 104.417,70.3332 5.833,3.8336 5.75,3.75 5.833,3.75 5.75,3.75 5.834,3.6664 5.833,3.75 5.75,3.6668 5.833,3.667 5.75,3.666 5.834,3.584 5.833,3.583 5.75,3.667 5.833,3.5 5.75,3.583 5.834,3.5 5.833,3.583 5.75,3.5 5.833,3.417 5.75,3.5 5.834,3.417 5.75,3.5 5.833,3.416 5.833,3.334 5.75,3.416 5.834,3.334 5.75,3.333 5.833,3.333 5.833,3.334 5.75,3.333 5.834,3.25 5.75,3.25 5.833,3.25 5.833,3.25 5.75,3.167 5.834,3.25 5.75,3.166 5.833,3.167 5.833,3.167 5.75,3.166 5.834,3.084 5.75,3.083 5.833,3.083 5.75,3.084 5.833,3.083 5.834,3 5.75,3.083 5.833,3 5.75,3 5.833,3 5.834,2.917 5.75,3 5.833,2.917 5.75,2.916 5.833,2.917 5.834,2.917 5.75,2.833 5.833,2.917 5.75,2.833 5.833,2.833 5.75,2.834 5.834,2.75 5.833,2.833 5.75,2.75 5.833,2.833 5.75,2.75 5.834,2.667 5.833,2.75 5.75,2.75 5.833,2.667 5.75,2.666 5.834,2.667 5.833,2.667 5.75,2.666 5.833,2.667 5.75,2.583 5.834,2.584 5.833,2.583 5.75,2.583 5.833,2.584 5.75,2.583 5.834,2.5 5.75,2.583 5.833,2.5 5.833,2.5 5.75,2.5 5.834,2.5 5.75,2.417 5.833,2.5 5.833,2.417 5.75,2.416 5.834,2.417 5.75,2.417 5.833,2.416 5.833,2.334 5.75,2.416 5.834,2.334 5.75,2.333 5.833,2.333 5.833,2.334" /><rect
       transform="scale(1,-1)"
       y="-736"
       x="0"
       height="752"
       width="752"
       id="rect3125"
       style="fill:none;stroke:none" /><path
       inkscape:connector-curvature="0"
       id="path206"
       style="fill:none;stroke:#c00000;stroke-width:6.4000001;stroke-linecap:butt;stroke-linejoin:round;stroke-miterlimit:10;stroke-opacity:1;stroke-dasharray:none"
       d="m 104.417,71.5832 5.833,5.0836 5.75,5 5.833,4.9164 5.75,4.9168 5.834,4.9168 5.833,4.8332 5.75,4.75 5.833,4.75 5.75,4.75 5.834,4.667 5.833,4.666 5.75,4.584 5.833,4.583 5.75,4.5 5.834,4.5 5.833,4.5 5.75,4.417 5.833,4.416 5.75,4.334 5.834,4.333 5.75,4.333 5.833,4.25 5.833,4.167 5.75,4.25 5.834,4.083 5.75,4.167 5.833,4.083 5.833,4.084 5.75,4 5.834,4 5.75,3.916 5.833,3.917 5.833,3.917 5.75,3.833 5.834,3.833 5.75,3.834 5.833,3.75 5.833,3.75 5.75,3.75 5.834,3.666 5.75,3.667 5.833,3.583 5.75,3.667 5.833,3.5 5.834,3.583 5.75,3.5 5.833,3.5 5.75,3.417 5.833,3.417 5.834,3.416 5.75,3.417 5.833,3.333 5.75,3.334 5.833,3.25 5.834,3.25 5.75,3.25 5.833,3.25 5.75,3.166 5.833,3.167 5.75,3.167 5.834,3.083 5.833,3.083 5.75,3.084 5.833,3.083 5.75,3 5.834,3 5.833,2.917 5.75,3 5.833,2.916 5.75,2.917 5.834,2.833 5.833,2.834 5.75,2.833 5.833,2.833 5.75,2.75 5.834,2.75 5.833,2.75 5.75,2.75 5.833,2.667 5.75,2.667 5.834,2.666 5.75,2.667 5.833,2.583 5.833,2.584 5.75,2.583 5.834,2.583 5.75,2.5 5.833,2.5 5.833,2.5 5.75,2.5 5.834,2.417 5.75,2.417 5.833,2.416 5.833,2.417 5.75,2.333 5.834,2.417 5.75,2.333 5.833,2.25 5.833,2.334" /></g></svg>