<?xml version="1.0" encoding="UTF-8" standalone="no"?>
<!-- Created with Inkscape (http://www.inkscape.org/) -->

<svg
   xmlns:dc="http://purl.org/dc/elements/1.1/"
   xmlns:cc="http://creativecommons.org/ns#"
   xmlns:rdf="http://www.w3.org/1999/02/22-rdf-syntax-ns#"
   xmlns:svg="http://www.w3.org/2000/svg"
   xmlns="http://www.w3.org/2000/svg"
   xmlns:sodipodi="http://sodipodi.sourceforge.net/DTD/sodipodi-0.dtd"
   xmlns:inkscape="http://www.inkscape.org/namespaces/inkscape"
   id="svg2"
   version="1.1"
   inkscape:version="0.48.4 r9939"
   width="860"
   height="865"
   xml:space="preserve"
   sodipodi:docname="cascade_long_learnS.eps"><metadata
     id="metadata8"><rdf:RDF><cc:Work
         rdf:about=""><dc:format>image/svg+xml</dc:format><dc:type
           rdf:resource="http://purl.org/dc/dcmitype/StillImage" /><dc:title></dc:title></cc:Work></rdf:RDF></metadata><defs
     id="defs6"><clipPath
       clipPathUnits="userSpaceOnUse"
       id="clipPath194"><path
         d="m 986.668,6777.5 0,-6113.332 5800.002,0 0,6113.332 -5800.002,0 z"
         id="path196" /></clipPath><clipPath
       clipPathUnits="userSpaceOnUse"
       id="clipPath266"><path
         d="m 1205.83,6550.84 0,-1075.84 1493.34,0 0,1075.84 -1493.34,0 z"
         id="path268" /></clipPath><clipPath
       clipPathUnits="userSpaceOnUse"
       id="clipPath282"><path
         d="m 1205.83,6550.84 0,-1075.84 1493.34,0 0,1075.84 -1493.34,0 z"
         id="path284" /></clipPath><clipPath
       clipPathUnits="userSpaceOnUse"
       id="clipPath298"><path
         d="m 1205.83,6550.84 0,-1075.84 1493.34,0 0,1075.84 -1493.34,0 z"
         id="path300" /></clipPath><clipPath
       clipPathUnits="userSpaceOnUse"
       id="clipPath314"><path
         d="m 1205.83,6550.84 0,-1075.84 1493.34,0 0,1075.84 -1493.34,0 z"
         id="path316" /></clipPath></defs><sodipodi:namedview
     pagecolor="#ffffff"
     bordercolor="#666666"
     borderopacity="1"
     objecttolerance="10"
     gridtolerance="10"
     guidetolerance="10"
     inkscape:pageopacity="0"
     inkscape:pageshadow="2"
     inkscape:window-width="2560"
     inkscape:window-height="1538"
     id="namedview4"
     showgrid="false"
     inkscape:zoom="1.439782"
     inkscape:cx="360.34839"
     inkscape:cy="458.75"
     inkscape:window-x="-8"
     inkscape:window-y="-8"
     inkscape:window-maximized="1"
     inkscape:current-layer="g10" /><g
     id="g10"
     inkscape:groupmode="layer"
     inkscape:label="ink_ext_XXXXXX"
     transform="matrix(1.25,0,0,-1.25,0,865)"><path
       inkscape:connector-curvature="0"
       id="path14"
       style="fill:#ffffff;fill-opacity:1;fill-rule:nonzero;stroke:none"
       d="m 0,0 749.917,0 0,734 L 0,734 0,0 z" /><path
       inkscape:connector-curvature="0"
       id="path16"
       style="fill:#ffffff;fill-opacity:1;fill-rule:evenodd;stroke:none"
       d="m 98.6668,66.5 579.916,0 0,611.25 -579.916,0 0,-611.25 z" /><path
       inkscape:connector-curvature="0"
       id="path18"
       style="fill:none;stroke:#ffffff;stroke-width:0.5;stroke-linecap:butt;stroke-linejoin:round;stroke-miterlimit:10;stroke-opacity:1;stroke-dasharray:none"
       d="m 98.6668,66.5 0,611.25 579.9162,0 0,-611.25 -579.9162,0" /><path
       inkscape:connector-curvature="0"
       id="path20"
       style="fill:none;stroke:#000000;stroke-width:0.5;stroke-linecap:butt;stroke-linejoin:round;stroke-miterlimit:10;stroke-opacity:1;stroke-dasharray:none"
       d="m 98.6668,677.75 579.9162,0" /><path
       inkscape:connector-curvature="0"
       id="path22"
       style="fill:none;stroke:#000000;stroke-width:0.5;stroke-linecap:butt;stroke-linejoin:round;stroke-miterlimit:10;stroke-opacity:1;stroke-dasharray:none"
       d="m 98.6668,66.5 579.9162,0" /><path
       inkscape:connector-curvature="0"
       id="path24"
       style="fill:none;stroke:#000000;stroke-width:0.5;stroke-linecap:butt;stroke-linejoin:round;stroke-miterlimit:10;stroke-opacity:1;stroke-dasharray:none"
       d="m 678.583,66.5 0,611.25" /><path
       inkscape:connector-curvature="0"
       id="path26"
       style="fill:none;stroke:#000000;stroke-width:0.5;stroke-linecap:butt;stroke-linejoin:round;stroke-miterlimit:10;stroke-opacity:1;stroke-dasharray:none"
       d="m 98.6668,66.5 0,611.25" /><path
       inkscape:connector-curvature="0"
       id="path28"
       style="fill:none;stroke:#000000;stroke-width:0.5;stroke-linecap:butt;stroke-linejoin:round;stroke-miterlimit:10;stroke-opacity:1;stroke-dasharray:none"
       d="m 98.6668,66.5 579.9162,0" /><path
       inkscape:connector-curvature="0"
       id="path30"
       style="fill:none;stroke:#000000;stroke-width:0.5;stroke-linecap:butt;stroke-linejoin:round;stroke-miterlimit:10;stroke-opacity:1;stroke-dasharray:none"
       d="m 98.6668,66.5 0,611.25" /><path
       inkscape:connector-curvature="0"
       id="path32"
       style="fill:none;stroke:#000000;stroke-width:0.5;stroke-linecap:butt;stroke-linejoin:round;stroke-miterlimit:10;stroke-opacity:1;stroke-dasharray:none"
       d="m 98.6668,66.5 0,6.1668" /><path
       inkscape:connector-curvature="0"
       id="path34"
       style="fill:none;stroke:#000000;stroke-width:0.5;stroke-linecap:butt;stroke-linejoin:round;stroke-miterlimit:10;stroke-opacity:1;stroke-dasharray:none"
       d="m 98.6668,677.75 0,-6.083" /><text
       transform="scale(1,-1)"
       id="text38"
       x="93.166801"
       y="-45.083199"><tspan
         style="font-size:20px;font-variant:normal;font-weight:normal;writing-mode:lr-tb;fill:#000000;fill-opacity:1;fill-rule:nonzero;stroke:none;font-family:Helvetica;-inkscape-font-specification:Helvetica"
         x="93.166801"
         y="-45.083199"
         id="tspan40">0</tspan></text>
<path
       inkscape:connector-curvature="0"
       id="path42"
       style="fill:none;stroke:#000000;stroke-width:0.5;stroke-linecap:butt;stroke-linejoin:round;stroke-miterlimit:10;stroke-opacity:1;stroke-dasharray:none"
       d="m 214.583,66.5 0,6.1668" /><path
       inkscape:connector-curvature="0"
       id="path44"
       style="fill:none;stroke:#000000;stroke-width:0.5;stroke-linecap:butt;stroke-linejoin:round;stroke-miterlimit:10;stroke-opacity:1;stroke-dasharray:none"
       d="m 214.583,677.75 0,-6.083" /><text
       transform="scale(1,-1)"
       id="text48"
       x="209.08299"
       y="-45.083199"><tspan
         style="font-size:20px;font-variant:normal;font-weight:normal;writing-mode:lr-tb;fill:#000000;fill-opacity:1;fill-rule:nonzero;stroke:none;font-family:Helvetica;-inkscape-font-specification:Helvetica"
         x="209.08299"
         y="-45.083199"
         id="tspan50">1</tspan></text>
<path
       inkscape:connector-curvature="0"
       id="path52"
       style="fill:none;stroke:#000000;stroke-width:0.5;stroke-linecap:butt;stroke-linejoin:round;stroke-miterlimit:10;stroke-opacity:1;stroke-dasharray:none"
       d="m 330.583,66.5 0,6.1668" /><path
       inkscape:connector-curvature="0"
       id="path54"
       style="fill:none;stroke:#000000;stroke-width:0.5;stroke-linecap:butt;stroke-linejoin:round;stroke-miterlimit:10;stroke-opacity:1;stroke-dasharray:none"
       d="m 330.583,677.75 0,-6.083" /><text
       transform="scale(1,-1)"
       id="text58"
       x="325.08301"
       y="-45.083199"><tspan
         style="font-size:20px;font-variant:normal;font-weight:normal;writing-mode:lr-tb;fill:#000000;fill-opacity:1;fill-rule:nonzero;stroke:none;font-family:Helvetica;-inkscape-font-specification:Helvetica"
         x="325.08301"
         y="-45.083199"
         id="tspan60">2</tspan></text>
<path
       inkscape:connector-curvature="0"
       id="path62"
       style="fill:none;stroke:#000000;stroke-width:0.5;stroke-linecap:butt;stroke-linejoin:round;stroke-miterlimit:10;stroke-opacity:1;stroke-dasharray:none"
       d="m 446.583,66.5 0,6.1668" /><path
       inkscape:connector-curvature="0"
       id="path64"
       style="fill:none;stroke:#000000;stroke-width:0.5;stroke-linecap:butt;stroke-linejoin:round;stroke-miterlimit:10;stroke-opacity:1;stroke-dasharray:none"
       d="m 446.583,677.75 0,-6.083" /><text
       transform="scale(1,-1)"
       id="text68"
       x="441.08301"
       y="-45.083199"><tspan
         style="font-size:20px;font-variant:normal;font-weight:normal;writing-mode:lr-tb;fill:#000000;fill-opacity:1;fill-rule:nonzero;stroke:none;font-family:Helvetica;-inkscape-font-specification:Helvetica"
         x="441.08301"
         y="-45.083199"
         id="tspan70">3</tspan></text>
<path
       inkscape:connector-curvature="0"
       id="path72"
       style="fill:none;stroke:#000000;stroke-width:0.5;stroke-linecap:butt;stroke-linejoin:round;stroke-miterlimit:10;stroke-opacity:1;stroke-dasharray:none"
       d="m 562.583,66.5 0,6.1668" /><path
       inkscape:connector-curvature="0"
       id="path74"
       style="fill:none;stroke:#000000;stroke-width:0.5;stroke-linecap:butt;stroke-linejoin:round;stroke-miterlimit:10;stroke-opacity:1;stroke-dasharray:none"
       d="m 562.583,677.75 0,-6.083" /><text
       transform="scale(1,-1)"
       id="text78"
       x="557.08301"
       y="-45.083199"><tspan
         style="font-size:20px;font-variant:normal;font-weight:normal;writing-mode:lr-tb;fill:#000000;fill-opacity:1;fill-rule:nonzero;stroke:none;font-family:Helvetica;-inkscape-font-specification:Helvetica"
         x="557.08301"
         y="-45.083199"
         id="tspan80">4</tspan></text>
<path
       inkscape:connector-curvature="0"
       id="path82"
       style="fill:none;stroke:#000000;stroke-width:0.5;stroke-linecap:butt;stroke-linejoin:round;stroke-miterlimit:10;stroke-opacity:1;stroke-dasharray:none"
       d="m 678.583,66.5 0,6.1668" /><path
       inkscape:connector-curvature="0"
       id="path84"
       style="fill:none;stroke:#000000;stroke-width:0.5;stroke-linecap:butt;stroke-linejoin:round;stroke-miterlimit:10;stroke-opacity:1;stroke-dasharray:none"
       d="m 678.583,677.75 0,-6.083" /><text
       transform="scale(1,-1)"
       id="text88"
       x="673.08301"
       y="-45.083199"><tspan
         style="font-size:20px;font-variant:normal;font-weight:normal;writing-mode:lr-tb;fill:#000000;fill-opacity:1;fill-rule:nonzero;stroke:none;font-family:Helvetica;-inkscape-font-specification:Helvetica"
         x="673.08301"
         y="-45.083199"
         id="tspan90">5</tspan></text>
<path
       inkscape:connector-curvature="0"
       id="path92"
       style="fill:none;stroke:#000000;stroke-width:0.5;stroke-linecap:butt;stroke-linejoin:round;stroke-miterlimit:10;stroke-opacity:1;stroke-dasharray:none"
       d="m 98.6668,66.5 6.0832,0" /><path
       inkscape:connector-curvature="0"
       id="path94"
       style="fill:none;stroke:#000000;stroke-width:0.5;stroke-linecap:butt;stroke-linejoin:round;stroke-miterlimit:10;stroke-opacity:1;stroke-dasharray:none"
       d="m 678.583,66.5 -6.166,0" /><text
       transform="scale(1,-1)"
       id="text98"
       x="84.666801"
       y="-59.083199"><tspan
         style="font-size:20px;font-variant:normal;font-weight:normal;writing-mode:lr-tb;fill:#000000;fill-opacity:1;fill-rule:nonzero;stroke:none;font-family:Helvetica;-inkscape-font-specification:Helvetica"
         x="84.666801"
         y="-59.083199"
         id="tspan100">0</tspan></text>
<path
       inkscape:connector-curvature="0"
       id="path102"
       style="fill:none;stroke:#000000;stroke-width:0.5;stroke-linecap:butt;stroke-linejoin:round;stroke-miterlimit:10;stroke-opacity:1;stroke-dasharray:none"
       d="m 98.6668,142.917 6.0832,0" /><path
       inkscape:connector-curvature="0"
       id="path104"
       style="fill:none;stroke:#000000;stroke-width:0.5;stroke-linecap:butt;stroke-linejoin:round;stroke-miterlimit:10;stroke-opacity:1;stroke-dasharray:none"
       d="m 678.583,142.917 -6.166,0" /><text
       transform="scale(1,-1)"
       id="text108"
       x="56.833199"
       y="-135.5"><tspan
         style="font-size:20px;font-variant:normal;font-weight:normal;writing-mode:lr-tb;fill:#000000;fill-opacity:1;fill-rule:nonzero;stroke:none;font-family:Helvetica;-inkscape-font-specification:Helvetica"
         x="56.833199 67.953201 73.513199 84.633202"
         y="-135.5"
         sodipodi:role="line"
         id="tspan110">0.05</tspan></text>
<path
       inkscape:connector-curvature="0"
       id="path112"
       style="fill:none;stroke:#000000;stroke-width:0.5;stroke-linecap:butt;stroke-linejoin:round;stroke-miterlimit:10;stroke-opacity:1;stroke-dasharray:none"
       d="m 98.6668,219.333 6.0832,0" /><path
       inkscape:connector-curvature="0"
       id="path114"
       style="fill:none;stroke:#000000;stroke-width:0.5;stroke-linecap:butt;stroke-linejoin:round;stroke-miterlimit:10;stroke-opacity:1;stroke-dasharray:none"
       d="m 678.583,219.333 -6.166,0" /><text
       transform="scale(1,-1)"
       id="text118"
       x="68"
       y="-211.91701"><tspan
         style="font-size:20px;font-variant:normal;font-weight:normal;writing-mode:lr-tb;fill:#000000;fill-opacity:1;fill-rule:nonzero;stroke:none;font-family:Helvetica;-inkscape-font-specification:Helvetica"
         x="68 79.120003 84.68"
         y="-211.91701"
         sodipodi:role="line"
         id="tspan120">0.1</tspan></text>
<path
       inkscape:connector-curvature="0"
       id="path122"
       style="fill:none;stroke:#000000;stroke-width:0.5;stroke-linecap:butt;stroke-linejoin:round;stroke-miterlimit:10;stroke-opacity:1;stroke-dasharray:none"
       d="m 98.6668,295.75 6.0832,0" /><path
       inkscape:connector-curvature="0"
       id="path124"
       style="fill:none;stroke:#000000;stroke-width:0.5;stroke-linecap:butt;stroke-linejoin:round;stroke-miterlimit:10;stroke-opacity:1;stroke-dasharray:none"
       d="m 678.583,295.75 -6.166,0" /><text
       transform="scale(1,-1)"
       id="text128"
       x="56.833199"
       y="-288.33301"><tspan
         style="font-size:20px;font-variant:normal;font-weight:normal;writing-mode:lr-tb;fill:#000000;fill-opacity:1;fill-rule:nonzero;stroke:none;font-family:Helvetica;-inkscape-font-specification:Helvetica"
         x="56.833199 67.953201 73.513199 84.633202"
         y="-288.33301"
         sodipodi:role="line"
         id="tspan130">0.15</tspan></text>
<path
       inkscape:connector-curvature="0"
       id="path132"
       style="fill:none;stroke:#000000;stroke-width:0.5;stroke-linecap:butt;stroke-linejoin:round;stroke-miterlimit:10;stroke-opacity:1;stroke-dasharray:none"
       d="m 98.6668,372.167 6.0832,0" /><path
       inkscape:connector-curvature="0"
       id="path134"
       style="fill:none;stroke:#000000;stroke-width:0.5;stroke-linecap:butt;stroke-linejoin:round;stroke-miterlimit:10;stroke-opacity:1;stroke-dasharray:none"
       d="m 678.583,372.167 -6.166,0" /><text
       transform="scale(1,-1)"
       id="text138"
       x="68"
       y="-364.75"><tspan
         style="font-size:20px;font-variant:normal;font-weight:normal;writing-mode:lr-tb;fill:#000000;fill-opacity:1;fill-rule:nonzero;stroke:none;font-family:Helvetica;-inkscape-font-specification:Helvetica"
         x="68 79.120003 84.68"
         y="-364.75"
         sodipodi:role="line"
         id="tspan140">0.2</tspan></text>
<path
       inkscape:connector-curvature="0"
       id="path142"
       style="fill:none;stroke:#000000;stroke-width:0.5;stroke-linecap:butt;stroke-linejoin:round;stroke-miterlimit:10;stroke-opacity:1;stroke-dasharray:none"
       d="m 98.6668,448.584 6.0832,0" /><path
       inkscape:connector-curvature="0"
       id="path144"
       style="fill:none;stroke:#000000;stroke-width:0.5;stroke-linecap:butt;stroke-linejoin:round;stroke-miterlimit:10;stroke-opacity:1;stroke-dasharray:none"
       d="m 678.583,448.584 -6.166,0" /><text
       transform="scale(1,-1)"
       id="text148"
       x="56.833199"
       y="-441.16699"><tspan
         style="font-size:20px;font-variant:normal;font-weight:normal;writing-mode:lr-tb;fill:#000000;fill-opacity:1;fill-rule:nonzero;stroke:none;font-family:Helvetica;-inkscape-font-specification:Helvetica"
         x="56.833199 67.953201 73.513199 84.633202"
         y="-441.16699"
         sodipodi:role="line"
         id="tspan150">0.25</tspan></text>
<path
       inkscape:connector-curvature="0"
       id="path152"
       style="fill:none;stroke:#000000;stroke-width:0.5;stroke-linecap:butt;stroke-linejoin:round;stroke-miterlimit:10;stroke-opacity:1;stroke-dasharray:none"
       d="m 98.6668,525 6.0832,0" /><path
       inkscape:connector-curvature="0"
       id="path154"
       style="fill:none;stroke:#000000;stroke-width:0.5;stroke-linecap:butt;stroke-linejoin:round;stroke-miterlimit:10;stroke-opacity:1;stroke-dasharray:none"
       d="m 678.583,525 -6.166,0" /><text
       transform="scale(1,-1)"
       id="text158"
       x="68"
       y="-517.58398"><tspan
         style="font-size:20px;font-variant:normal;font-weight:normal;writing-mode:lr-tb;fill:#000000;fill-opacity:1;fill-rule:nonzero;stroke:none;font-family:Helvetica;-inkscape-font-specification:Helvetica"
         x="68 79.120003 84.68"
         y="-517.58398"
         sodipodi:role="line"
         id="tspan160">0.3</tspan></text>
<path
       inkscape:connector-curvature="0"
       id="path162"
       style="fill:none;stroke:#000000;stroke-width:0.5;stroke-linecap:butt;stroke-linejoin:round;stroke-miterlimit:10;stroke-opacity:1;stroke-dasharray:none"
       d="m 98.6668,601.417 6.0832,0" /><path
       inkscape:connector-curvature="0"
       id="path164"
       style="fill:none;stroke:#000000;stroke-width:0.5;stroke-linecap:butt;stroke-linejoin:round;stroke-miterlimit:10;stroke-opacity:1;stroke-dasharray:none"
       d="m 678.583,601.417 -6.166,0" /><text
       transform="scale(1,-1)"
       id="text168"
       x="56.833199"
       y="-594"><tspan
         style="font-size:20px;font-variant:normal;font-weight:normal;writing-mode:lr-tb;fill:#000000;fill-opacity:1;fill-rule:nonzero;stroke:none;font-family:Helvetica;-inkscape-font-specification:Helvetica"
         x="56.833199 67.953201 73.513199 84.633202"
         y="-594"
         sodipodi:role="line"
         id="tspan170">0.35</tspan></text>
<path
       inkscape:connector-curvature="0"
       id="path172"
       style="fill:none;stroke:#000000;stroke-width:0.5;stroke-linecap:butt;stroke-linejoin:round;stroke-miterlimit:10;stroke-opacity:1;stroke-dasharray:none"
       d="m 98.6668,677.75 6.0832,0" /><path
       inkscape:connector-curvature="0"
       id="path174"
       style="fill:none;stroke:#000000;stroke-width:0.5;stroke-linecap:butt;stroke-linejoin:round;stroke-miterlimit:10;stroke-opacity:1;stroke-dasharray:none"
       d="m 678.583,677.75 -6.166,0" /><text
       transform="scale(1,-1)"
       id="text178"
       x="68"
       y="-670.33398"><tspan
         style="font-size:20px;font-variant:normal;font-weight:normal;writing-mode:lr-tb;fill:#000000;fill-opacity:1;fill-rule:nonzero;stroke:none;font-family:Helvetica;-inkscape-font-specification:Helvetica"
         x="68 79.120003 84.68"
         y="-670.33398"
         sodipodi:role="line"
         id="tspan180">0.4</tspan></text>
<path
       inkscape:connector-curvature="0"
       id="path182"
       style="fill:none;stroke:#000000;stroke-width:0.5;stroke-linecap:butt;stroke-linejoin:round;stroke-miterlimit:10;stroke-opacity:1;stroke-dasharray:none"
       d="m 98.6668,677.75 579.9162,0" /><path
       inkscape:connector-curvature="0"
       id="path184"
       style="fill:none;stroke:#000000;stroke-width:0.5;stroke-linecap:butt;stroke-linejoin:round;stroke-miterlimit:10;stroke-opacity:1;stroke-dasharray:none"
       d="m 98.6668,66.5 579.9162,0" /><path
       inkscape:connector-curvature="0"
       id="path186"
       style="fill:none;stroke:#000000;stroke-width:0.5;stroke-linecap:butt;stroke-linejoin:round;stroke-miterlimit:10;stroke-opacity:1;stroke-dasharray:none"
       d="m 678.583,66.5 0,611.25" /><path
       inkscape:connector-curvature="0"
       id="path188"
       style="fill:none;stroke:#000000;stroke-width:0.5;stroke-linecap:butt;stroke-linejoin:round;stroke-miterlimit:10;stroke-opacity:1;stroke-dasharray:none"
       d="m 98.6668,66.5 0,611.25" /><path
       inkscape:connector-curvature="0"
       id="path198"
       style="fill:none;stroke:#000000;stroke-width:4;stroke-linecap:butt;stroke-linejoin:round;stroke-miterlimit:10;stroke-opacity:1;stroke-dasharray:none"
       d="m 104.417,78.5 5.833,11.5832 5.75,11.0838 5.833,10.583 5.75,10.333 5.834,9.834 5.833,9.583 5.75,9.167 5.833,8.833 5.75,8.583 5.834,8.25 5.833,8 5.75,7.75 5.833,7.417 5.75,7.25 5.834,7 5.833,6.833 5.75,6.584 5.833,6.333 5.75,6.25 5.834,6 5.75,5.833 5.833,5.667 5.833,5.583 5.75,5.417 5.834,5.25 5.75,5.083 5.833,5 5.833,4.917 5.75,4.75 5.834,4.583 5.75,4.584 5.833,4.416 5.833,4.334 5.75,4.25 5.834,4.166 5.75,4.084 5.833,4 5.833,3.916 5.75,3.834 5.834,3.75 5.75,3.75 5.833,3.583 5.75,3.583 5.833,3.5 5.834,3.5 5.75,3.417 5.833,3.333 5.75,3.25 5.833,3.25 5.834,3.25 5.75,3.167 5.833,3.083 5.75,3.084 5.833,3 5.834,3 5.75,2.916 5.833,2.917 5.75,2.833 5.833,2.834 5.75,2.833 5.834,2.75 5.833,2.75 5.75,2.667 5.833,2.75 5.75,2.583 5.834,2.667 5.833,2.583 5.75,2.583 5.833,2.5 5.75,2.5 5.834,2.5 5.833,2.5 5.75,2.417 5.833,2.417 5.75,2.416 5.834,2.334 5.833,2.416 5.75,2.334 5.833,2.25 5.75,2.333 5.834,2.25 5.75,2.25 5.833,2.25 5.833,2.25 5.75,2.167 5.834,2.166 5.75,2.167 5.833,2.167 5.833,2.166 5.75,2.084 5.834,2.166 5.75,2.084 5.833,2 5.833,2.083 5.75,2.083 5.834,2 5.75,2 5.833,2 5.833,2" /><path
       inkscape:connector-curvature="0"
       id="path200"
       style="fill:none;stroke:#000000;stroke-width:2;stroke-linecap:butt;stroke-linejoin:round;stroke-miterlimit:10;stroke-opacity:1;stroke-dasharray:none"
       d="m 98.6668,66.5 5.7502,12" /><path
       inkscape:connector-curvature="0"
       id="path202"
       style="fill:none;stroke:#000000;stroke-width:4;stroke-linecap:butt;stroke-linejoin:round;stroke-miterlimit:10;stroke-opacity:1;stroke-dasharray:12,12;stroke-dashoffset:0"
       d="m 104.417,75 5.833,8.25 5.75,8 5.833,7.8332 5.75,7.4998 5.834,7.417 5.833,7.083 5.75,7 5.833,6.75 5.75,6.667 5.834,6.417 5.833,6.333 5.75,6.167 5.833,6 5.75,5.833 5.834,5.75 5.833,5.667 5.75,5.5 5.833,5.416 5.75,5.25 5.834,5.25 5.75,5.084 5.833,5 5.833,4.916 5.75,4.834 5.834,4.833 5.75,4.667 5.833,4.583 5.833,4.583 5.75,4.417 5.834,4.417 5.75,4.333 5.833,4.333 5.833,4.25 5.75,4.167 5.834,4.083 5.75,4.084 5.833,4.083 5.833,3.917 5.75,4 5.834,3.833 5.75,3.917 5.833,3.75 5.75,3.833 5.833,3.667 5.834,3.75 5.75,3.666 5.833,3.584 5.75,3.666 5.833,3.584 5.834,3.5 5.75,3.5 5.833,3.5 5.75,3.416 5.833,3.417 5.834,3.417 5.75,3.416 5.833,3.334 5.75,3.333 5.833,3.333 5.75,3.25 5.834,3.25 5.833,3.25 5.75,3.167 5.833,3.25 5.75,3.167 5.834,3.166 5.833,3.167 5.75,3.083 5.833,3.084 5.75,3.083 5.834,3.083 5.833,3.084 5.75,3 5.833,3 5.75,3 5.834,3 5.833,3 5.75,2.916 5.833,2.917 5.75,2.917 5.834,2.916 5.75,2.917 5.833,2.917 5.833,2.833 5.75,2.833 5.834,2.917 5.75,2.75 5.833,2.833 5.833,2.834 5.75,2.75 5.834,2.833 5.75,2.75 5.833,2.75 5.833,2.75 5.75,2.75 5.834,2.667 5.75,2.75 5.833,2.666 5.833,2.667" /><path
       inkscape:connector-curvature="0"
       id="path204"
       style="fill:none;stroke:#000000;stroke-width:2;stroke-linecap:butt;stroke-linejoin:round;stroke-miterlimit:10;stroke-opacity:1;stroke-dasharray:6;stroke-dashoffset:0"
       d="M 98.6668,66.5 104.417,75" /><path
       inkscape:connector-curvature="0"
       id="path206"
       style="fill:none;stroke:#c00000;stroke-width:4;stroke-linecap:butt;stroke-linejoin:round;stroke-miterlimit:10;stroke-opacity:1;stroke-dasharray:none"
       d="m 104.417,73.75 5.833,6.9168 5.75,6.5832 5.833,6.4168 5.75,6.1664 5.834,5.9168 5.833,5.667 5.75,5.5 5.833,5.333 5.75,5.083 5.834,5 5.833,4.75 5.75,4.667 5.833,4.417 5.75,4.333 5.834,4.167 5.833,4.083 5.75,3.917 5.833,3.833 5.75,3.667 5.834,3.583 5.75,3.5 5.833,3.417 5.833,3.333 5.75,3.167 5.834,3.166 5.75,3 5.833,3 5.833,2.834 5.75,2.833 5.834,2.75 5.75,2.667 5.833,2.666 5.833,2.5 5.75,2.584 5.834,2.416 5.75,2.417 5.833,2.333 5.833,2.25 5.75,2.25 5.834,2.25 5.75,2.167 5.833,2.083 5.75,2.084 5.833,2.083 5.834,2 5.75,1.917 5.833,1.916 5.75,1.917 5.833,1.917 5.834,1.833 5.75,1.75 5.833,1.833 5.75,1.75 5.833,1.667 5.834,1.75 5.75,1.667 5.833,1.666 5.75,1.584 5.833,1.583 5.75,1.583 5.834,1.584 5.833,1.5 5.75,1.5 5.833,1.5 5.75,1.5 5.834,1.5 5.833,1.416 5.75,1.417 5.833,1.417 5.75,1.333 5.834,1.417 5.833,1.333 5.75,1.333 5.833,1.334 5.75,1.333 5.834,1.25 5.833,1.25 5.75,1.333 5.833,1.25 5.75,1.167 5.834,1.25 5.75,1.25 5.833,1.167 5.833,1.166 5.75,1.167 5.834,1.167 5.75,1.166 5.833,1.167 5.833,1.083 5.75,1.084 5.834,1.166 5.75,1.084 5.833,1.083 5.833,1.083 5.75,1 5.834,1.084 5.75,1.083 5.833,1 5.833,1" /><path
       inkscape:connector-curvature="0"
       id="path208"
       style="fill:none;stroke:#c00000;stroke-width:2;stroke-linecap:butt;stroke-linejoin:round;stroke-miterlimit:10;stroke-opacity:1;stroke-dasharray:none"
       d="m 98.6668,66.5 5.7502,7.25" /><path
       inkscape:connector-curvature="0"
       id="path210"
       style="fill:none;stroke:#c00000;stroke-width:4;stroke-linecap:butt;stroke-linejoin:round;stroke-miterlimit:10;stroke-opacity:1;stroke-dasharray:12,12;stroke-dashoffset:0"
       d="m 104.417,80.0832 5.833,13.1668 5.75,12.667 5.833,12.333 5.75,12 5.834,11.583 5.833,11.334 5.75,10.916 5.833,10.75 5.75,10.334 5.834,10.083 5.833,9.917 5.75,9.583 5.833,9.333 5.75,9.167 5.834,8.917 5.833,8.666 5.75,8.584 5.833,8.333 5.75,8.167 5.834,7.916 5.75,7.834 5.833,7.666 5.833,7.5 5.75,7.417 5.834,7.25 5.75,7.083 5.833,6.917 5.833,6.917 5.75,6.75 5.834,6.583 5.75,6.5 5.833,6.417 5.833,6.333 5.75,6.25 5.834,6.083 5.75,6.084 5.833,5.916 5.833,5.917 5.75,5.75 5.834,5.75 5.75,5.583 5.833,5.584 5.75,5.5 5.833,5.5 5.834,5.333 5.75,5.333 5.833,5.25 5.75,5.167 5.833,5.167 5.834,5 5.75,5.083 5.833,4.917 5.75,4.916 5.833,4.917 5.834,4.833 5.75,4.75 5.833,4.75 5.75,4.667 5.833,4.667 5.75,4.583 5.834,4.583 5.833,4.5 5.75,4.417 5.833,4.5 5.75,4.417 5.834,4.333 5.833,4.333 5.75,4.25 5.833,4.334 5.75,4.166 5.834,4.25 5.833,4.084 5.75,4.166 5.833,4.084 5.75,4.083 5.834,4 5.833,4 5.75,4 5.833,3.917 5.75,4 5.834,3.833 5.75,3.917 5.833,3.833 5.833,3.75 5.75,3.833 5.834,3.75 5.75,3.75 5.833,3.667 5.833,3.667 5.75,3.666 5.834,3.667 5.75,3.583 5.833,3.584 5.833,3.583 5.75,3.583 5.834,3.5 5.75,3.5 5.833,3.5 5.833,3.417" /><path
       inkscape:connector-curvature="0"
       id="path212"
       style="fill:none;stroke:#c00000;stroke-width:2;stroke-linecap:butt;stroke-linejoin:round;stroke-miterlimit:10;stroke-opacity:1;stroke-dasharray:6;stroke-dashoffset:0"
       d="m 98.6668,66.5 5.7502,13.5832" /><text
       transform="scale(1,-1)"
       id="text216"
       x="275.5"
       y="-11.0832"><tspan
         style="font-size:40px;font-variant:normal;font-weight:normal;writing-mode:lr-tb;fill:#000000;fill-opacity:1;fill-rule:nonzero;stroke:none;font-family:Helvetica;-inkscape-font-specification:Helvetica"
         x="275.5 299.94 313.26001 335.5 344.38 366.62 375.5 397.73999 419.97998 431.10001 442.22 451.10001 484.41998"
         y="-11.0832"
         sodipodi:role="line"
         id="tspan218">Training time</tspan></text>
<text
       transform="matrix(0,1,1,0,0,0)"
       id="text220"
       x="176.5"
       y="40.583199"><tspan
         style="font-size:40px;font-variant:normal;font-weight:normal;writing-mode:lr-tb;fill:#000000;fill-opacity:1;fill-rule:nonzero;stroke:none;font-family:Helvetica;-inkscape-font-specification:Helvetica"
         x="176.5 198.74001 220.98 243.22 256.54001 278.78 287.66 309.89999 332.14001 343.26001 356.58002"
         y="40.583199"
         sodipodi:role="line"
         id="tspan222">Learning (−</tspan></text>
<text
       transform="matrix(0,1,1,0,0,0)"
       id="text224"
       x="380.91699"
       y="40.583199"><tspan
         style="font-size:40px;font-variant:normal;font-weight:normal;writing-mode:lr-tb;fill:#000000;fill-opacity:1;fill-rule:nonzero;stroke:none;font-family:Symbol;-inkscape-font-specification:Symbol"
         x="380.91699"
         y="40.583199"
         id="tspan226">∆</tspan></text>
<text
       transform="matrix(0,1,1,0,0,0)"
       id="text228"
       x="416.4534"
       y="40.583199"><tspan
         style="font-size:40px;font-variant:normal;font-weight:normal;writing-mode:lr-tb;fill:#000000;fill-opacity:1;fill-rule:nonzero;stroke:none;font-family:Helvetica;-inkscape-font-specification:Helvetica"
         x="416.4534 449.77341 472.0134 494.25342 516.49341 527.6134 556.49341"
         y="40.583199"
         sodipodi:role="line"
         id="tspan230">mean w)</tspan></text>
<path
       inkscape:connector-curvature="0"
       id="path232"
       style="fill:#ffffff;fill-opacity:1;fill-rule:evenodd;stroke:none"
       d="m 120.583,547.584 149.25,0 0,107.5 -149.25,0 0,-107.5 z" /><path
       inkscape:connector-curvature="0"
       id="path234"
       style="fill:none;stroke:#ffffff;stroke-width:0.5;stroke-linecap:butt;stroke-linejoin:round;stroke-miterlimit:10;stroke-opacity:1;stroke-dasharray:none"
       d="m 120.583,547.584 0,107.5 149.25,0 0,-107.5 -149.25,0" /><path
       inkscape:connector-curvature="0"
       id="path236"
       style="fill:none;stroke:#000000;stroke-width:0.5;stroke-linecap:butt;stroke-linejoin:round;stroke-miterlimit:10;stroke-opacity:1;stroke-dasharray:none"
       d="m 120.583,655.084 149.25,0" /><path
       inkscape:connector-curvature="0"
       id="path238"
       style="fill:none;stroke:#000000;stroke-width:0.5;stroke-linecap:butt;stroke-linejoin:round;stroke-miterlimit:10;stroke-opacity:1;stroke-dasharray:none"
       d="m 120.583,547.584 149.25,0" /><path
       inkscape:connector-curvature="0"
       id="path240"
       style="fill:none;stroke:#000000;stroke-width:0.5;stroke-linecap:butt;stroke-linejoin:round;stroke-miterlimit:10;stroke-opacity:1;stroke-dasharray:none"
       d="m 269.833,547.584 0,107.5" /><path
       inkscape:connector-curvature="0"
       id="path242"
       style="fill:none;stroke:#000000;stroke-width:0.5;stroke-linecap:butt;stroke-linejoin:round;stroke-miterlimit:10;stroke-opacity:1;stroke-dasharray:none"
       d="m 120.583,547.584 0,107.5" /><path
       inkscape:connector-curvature="0"
       id="path244"
       style="fill:none;stroke:#000000;stroke-width:0.5;stroke-linecap:butt;stroke-linejoin:round;stroke-miterlimit:10;stroke-opacity:1;stroke-dasharray:none"
       d="m 120.583,547.584 149.25,0" /><path
       inkscape:connector-curvature="0"
       id="path246"
       style="fill:none;stroke:#000000;stroke-width:0.5;stroke-linecap:butt;stroke-linejoin:round;stroke-miterlimit:10;stroke-opacity:1;stroke-dasharray:none"
       d="m 120.583,547.584 0,107.5" /><path
       inkscape:connector-curvature="0"
       id="path248"
       style="fill:none;stroke:#000000;stroke-width:0.5;stroke-linecap:butt;stroke-linejoin:round;stroke-miterlimit:10;stroke-opacity:1;stroke-dasharray:none"
       d="m 120.583,655.084 149.25,0" /><path
       inkscape:connector-curvature="0"
       id="path250"
       style="fill:none;stroke:#000000;stroke-width:0.5;stroke-linecap:butt;stroke-linejoin:round;stroke-miterlimit:10;stroke-opacity:1;stroke-dasharray:none"
       d="m 120.583,547.584 149.25,0" /><path
       inkscape:connector-curvature="0"
       id="path252"
       style="fill:none;stroke:#000000;stroke-width:0.5;stroke-linecap:butt;stroke-linejoin:round;stroke-miterlimit:10;stroke-opacity:1;stroke-dasharray:none"
       d="m 269.833,547.584 0,107.5" /><path
       inkscape:connector-curvature="0"
       id="path254"
       style="fill:none;stroke:#000000;stroke-width:0.5;stroke-linecap:butt;stroke-linejoin:round;stroke-miterlimit:10;stroke-opacity:1;stroke-dasharray:none"
       d="m 120.583,547.584 0,107.5" /><text
       transform="scale(1,-1)"
       id="text258"
       x="159.58299"
       y="-633.25"><tspan
         style="font-size:20px;font-variant:normal;font-weight:normal;writing-mode:lr-tb;fill:#000000;fill-opacity:1;fill-rule:nonzero;stroke:none;font-family:Helvetica;-inkscape-font-specification:Helvetica"
         x="159.58299 178.463 190.683 196.243 210.683 216.243 227.36299 232.92299 244.043 250.703"
         y="-633.25"
         sodipodi:role="line"
         id="tspan260">WT w/o pre</tspan></text>
<path
       inkscape:connector-curvature="0"
       id="path270"
       style="fill:none;stroke:#000000;stroke-width:4;stroke-linecap:butt;stroke-linejoin:round;stroke-miterlimit:10;stroke-opacity:1;stroke-dasharray:none"
       d="m 126.583,640.334 30,0" /><text
       transform="scale(1,-1)"
       id="text274"
       x="159.58299"
       y="-607.25"><tspan
         style="font-size:20px;font-variant:normal;font-weight:normal;writing-mode:lr-tb;fill:#000000;fill-opacity:1;fill-rule:nonzero;stroke:none;font-family:Helvetica;-inkscape-font-specification:Helvetica"
         x="159.58299 172.923 188.483 194.043 208.483 214.043 225.16299 230.72299 241.843 248.50299"
         y="-607.25"
         sodipodi:role="line"
         id="tspan276">KO w/o pre</tspan></text>
<path
       inkscape:connector-curvature="0"
       id="path286"
       style="fill:none;stroke:#c00000;stroke-width:4;stroke-linecap:butt;stroke-linejoin:round;stroke-miterlimit:10;stroke-opacity:1;stroke-dasharray:none"
       d="m 126.583,614.334 30,0" /><text
       transform="scale(1,-1)"
       id="text290"
       x="159.58299"
       y="-581.16699"><tspan
         style="font-size:20px;font-variant:normal;font-weight:normal;writing-mode:lr-tb;fill:#000000;fill-opacity:1;fill-rule:nonzero;stroke:none;font-family:Helvetica;-inkscape-font-specification:Helvetica"
         x="159.58299 178.463 190.683 196.243 210.683 216.243 221.80299 232.92299 239.58299"
         y="-581.16699"
         sodipodi:role="line"
         id="tspan292">WT w/ pre</tspan></text>
<path
       inkscape:connector-curvature="0"
       id="path302"
       style="fill:none;stroke:#000000;stroke-width:4;stroke-linecap:butt;stroke-linejoin:round;stroke-miterlimit:10;stroke-opacity:1;stroke-dasharray:12,12;stroke-dashoffset:0"
       d="m 126.583,588.417 30,0" /><text
       transform="scale(1,-1)"
       id="text306"
       x="159.58299"
       y="-555.16699"><tspan
         style="font-size:20px;font-variant:normal;font-weight:normal;writing-mode:lr-tb;fill:#000000;fill-opacity:1;fill-rule:nonzero;stroke:none;font-family:Helvetica;-inkscape-font-specification:Helvetica"
         x="159.58299 172.923 188.483 194.043 208.483 214.043 219.603 230.72299 237.383"
         y="-555.16699"
         sodipodi:role="line"
         id="tspan308">KO w/ pre</tspan></text>
<path
       inkscape:connector-curvature="0"
       id="path318"
       style="fill:none;stroke:#c00000;stroke-width:4;stroke-linecap:butt;stroke-linejoin:round;stroke-miterlimit:10;stroke-opacity:1;stroke-dasharray:12,12;stroke-dashoffset:0"
       d="m 126.583,562.334 30,0" /></g></svg>