<?xml version="1.0" encoding="UTF-8" standalone="no"?>
<!-- Created with Inkscape (http://www.inkscape.org/) -->

<svg
   xmlns:dc="http://purl.org/dc/elements/1.1/"
   xmlns:cc="http://creativecommons.org/ns#"
   xmlns:rdf="http://www.w3.org/1999/02/22-rdf-syntax-ns#"
   xmlns:svg="http://www.w3.org/2000/svg"
   xmlns="http://www.w3.org/2000/svg"
   xmlns:sodipodi="http://sodipodi.sourceforge.net/DTD/sodipodi-0.dtd"
   xmlns:inkscape="http://www.inkscape.org/namespaces/inkscape"
   width="742.74493"
   height="116.59055"
   id="svg5961"
   version="1.1"
   inkscape:version="0.48.4 r9939"
   sodipodi:docname="desat_2.svg">
  <defs
     id="defs5963" />
  <sodipodi:namedview
     id="base"
     pagecolor="#ffffff"
     bordercolor="#666666"
     borderopacity="1.0"
     inkscape:pageopacity="0.0"
     inkscape:pageshadow="2"
     inkscape:zoom="3.271648"
     inkscape:cx="539.73002"
     inkscape:cy="58.295279"
     inkscape:document-units="px"
     inkscape:current-layer="layer1"
     showgrid="false"
     fit-margin-top="0"
     fit-margin-left="0"
     fit-margin-right="0"
     fit-margin-bottom="0"
     inkscape:window-width="2560"
     inkscape:window-height="1538"
     inkscape:window-x="-8"
     inkscape:window-y="-8"
     inkscape:window-maximized="1">
    <inkscape:grid
       type="xygrid"
       id="grid3051"
       empspacing="5"
       visible="true"
       enabled="true"
       snapvisiblegridlinesonly="true"
       originx="198.89185px"
       originy="-3.7394531e-006px" />
  </sodipodi:namedview>
  <metadata
     id="metadata5966">
    <rdf:RDF>
      <cc:Work
         rdf:about="">
        <dc:format>image/svg+xml</dc:format>
        <dc:type
           rdf:resource="http://purl.org/dc/dcmitype/StillImage" />
        <dc:title></dc:title>
      </cc:Work>
    </rdf:RDF>
  </metadata>
  <g
     inkscape:label="Layer 1"
     inkscape:groupmode="layer"
     id="layer1"
     transform="translate(-105.19812,-239.87274)">
    <text
       style="font-size:15px"
       id="text38"
       x="409.64151"
       y="250.61005">
      <tspan
         style="font-size:15px;font-variant:normal;font-weight:bold;writing-mode:lr-tb;fill:#110f0d;fill-opacity:1;fill-rule:nonzero;stroke:none;font-family:Arial;-inkscape-font-specification:Arial-BoldMT"
         sodipodi:role="line"
         id="tspan40"
         x="409.64151"
         y="250.61005">Depleted</tspan>
    </text>
    <g
       id="g3068">
      <path
         d="m 462.83362,324.28493 0.15,0.53625 c -0.405,0.19125 -0.84125,0.465 -1.30875,0.82875 -1.0425,0.80625 -1.5525,2.34875 -2.19875,3.55625 -0.645,1.2075 -1.42,2.08125 -2.99375,1.56 -1.145,-0.3825 -1.975,-1.9875 -2.5375,-4.055 -0.2825,-1.035 -0.49875,-2.18625 -0.65125,-3.36 -0.15375,-1.00625 -0.35375,-2.21375 -0.495,-3.45625 -0.14125,-1.24 -0.22125,-2.5225 -0.12375,-3.68875 -0.34125,-1.7675 0.705,-3.27125 2.1025,-3.64625 3.425,-0.9225 4.985,3.18375 7.54375,4.29125 l -0.0312,0.0863 c 0,2.7225 1.36,4.62875 0.54375,7.3475"
         style="fill:#3b4ca7;fill-opacity:1;fill-rule:nonzero;stroke:#2f3591;stroke-width:1.25;stroke-linecap:butt;stroke-linejoin:miter;stroke-miterlimit:4;stroke-opacity:1;stroke-dasharray:none"
         id="path56"
         inkscape:connector-curvature="0" />
      <path
         d="m 462.52787,301.8698 0,0.195 c -0.13625,-0.005 -0.275,-0.005 -0.4225,-0.005 -2.79125,0.75125 -4.53625,4.8725 -7.67625,3.7475 -4.18875,-1.49875 -6.2825,-7.125 -4.88625,-12.0025 0.6975,-2.24875 2.79125,-4.875 5.23375,-3.7475 1.80875,0.645 3.9575,2.53375 5.9925,3.09375 l -0.004,0.01 c 1.41,2.64625 1.7625,5.67875 1.7625,8.70875"
         style="fill:#3b4ca7;fill-opacity:1;fill-rule:nonzero;stroke:#2f3591;stroke-width:1.25;stroke-linecap:butt;stroke-linejoin:miter;stroke-miterlimit:4;stroke-opacity:1;stroke-dasharray:none"
         id="path60"
         inkscape:connector-curvature="0" />
      <path
         d="m 468.11387,342.41605 c 0,-2.72 0.6225,-11.9575 -1.28625,-16.01625 -0.785,-1.66625 -1.99375,-2.46 -3.84375,-1.57875 -0.40375,0.19125 -0.84,0.465 -1.3075,0.82875 -1.0425,0.80625 -1.55375,2.3475 -2.2,3.55625 -0.64375,1.20625 -1.41875,2.08125 -2.99375,1.56 -1.145,-0.3825 -1.97375,-1.98875 -2.5375,-4.055 -0.2825,-1.035 -0.4975,-2.18625 -0.65125,-3.36 -0.15375,-1.00625 -0.35375,-2.21375 -0.495,-3.455 -0.14,-1.24125 -0.22125,-2.525 -0.12375,-3.69125 -0.3425,-1.76625 0.705,-3.27 2.1025,-3.645 3.425,-0.92375 4.985,3.18375 7.545,4.29 0.56375,0.2475 1.18125,0.345 1.8775,0.21 4.88375,-1.5 2.0925,-7.87625 1.49125,-12.01"
         style="fill:none;stroke:#231f20;stroke-width:0.9375;stroke-linecap:butt;stroke-linejoin:miter;stroke-miterlimit:4;stroke-opacity:1;stroke-dasharray:none"
         id="path72"
         inkscape:connector-curvature="0" />
      <path
         d="m 465.97887,305.5593 c -0.0175,-1.38 -0.46375,-2.44125 -1.18625,-3.06 -0.81,-0.37875 -1.43875,-0.43125 -2.265,-0.435 -0.13625,-0.004 -0.275,-0.004 -0.4225,-0.004 -2.7925,0.75 -4.5375,4.87125 -7.6775,3.74625 -4.1875,-1.5 -6.28125,-7.12625 -4.885,-12.0025 0.6975,-2.25 2.79125,-4.87625 5.23375,-3.74625 1.8075,0.645 3.9575,2.53125 5.9925,3.09375 1.50375,0.4125 2.9425,0.10125 4.12875,-1.9725 1.745,-3.00125 0,-6.375 0.91375,-9.23875"
         style="fill:none;stroke:#231f20;stroke-width:0.9375;stroke-linecap:butt;stroke-linejoin:miter;stroke-miterlimit:4;stroke-opacity:1;stroke-dasharray:none"
         id="path76"
         inkscape:connector-curvature="0" />
      <path
         d="m 468.87124,281.78743 c -0.3525,8.71375 2.115,16.6725 2.115,25.38625 0,4.545 -0.705,9.095 -0.705,13.64125 0.35375,6.0575 2.4675,11.365 2.4675,17.0475"
         style="fill:none;stroke:#231f20;stroke-width:0.9375;stroke-linecap:butt;stroke-linejoin:miter;stroke-miterlimit:4;stroke-opacity:1;stroke-dasharray:none"
         id="path80"
         inkscape:connector-curvature="0" />
      <path
         d="m 460.76524,293.15943 c 1.41,2.6475 1.7625,5.67875 1.7625,8.70875"
         style="fill:none;stroke:#231f20;stroke-width:0.9375;stroke-linecap:butt;stroke-linejoin:miter;stroke-miterlimit:4;stroke-opacity:1;stroke-dasharray:none"
         id="path84"
         inkscape:connector-curvature="0" />
      <path
         d="m 462.28987,316.93568 c 0,2.725 1.36,4.62875 0.54375,7.3475"
         style="fill:none;stroke:#231f20;stroke-width:0.9375;stroke-linecap:butt;stroke-linejoin:miter;stroke-miterlimit:4;stroke-opacity:1;stroke-dasharray:none"
         id="path88"
         inkscape:connector-curvature="0" />
      <path
         inkscape:connector-curvature="0"
         id="path90"
         style="fill:#231f20;fill-opacity:1;fill-rule:nonzero;stroke:none"
         d="m 401.46524,305.12605 c 12.7825,0.4875 26.7625,-7.86375 36.60125,3.77875 4.62875,5.48125 8.78375,1.2675 9.18625,-4.53125 0.23875,-3.415 0.965,-15.20875 -4.3575,-15.17625 -2.9575,0.02 -6.06,4.3325 -7.935,6.12125 -5.78875,5.5225 -16.3925,2.52 -23.60875,2.34625 -0.59875,-0.0125 -0.69,0.915 -0.0888,0.92875 7.125,0.1725 17.185,2.945 23.42125,-1.78625 1.58875,-1.20625 7.91125,-9.27625 10.05875,-5.61375 1.835,3.13 1.62375,8.41875 1.6225,11.84625 0,1.6475 -0.1275,3.33 -0.5825,4.92125 -3.09375,2.4725 -5.42875,2.585 -7.00375,0.3425 -0.56375,-0.6625 -1.1225,-1.32875 -1.67875,-2.00125 -2.0175,-2.4225 -4.26125,-3.4975 -7.33625,-4.29875 -9.15125,-2.385 -18.975,2.54625 -28.2125,2.1925 -0.59875,-0.0225 -0.6875,0.90625 -0.0863,0.93" />
      <path
         inkscape:connector-curvature="0"
         id="path92"
         style="fill:#231f20;fill-opacity:1;fill-rule:nonzero;stroke:none"
         d="m 416.54762,322.5448 c 6.5925,1.2425 13.68,2.06 20.255,0.335 1.58375,-0.415 3.0675,-1.2875 4.095,-2.5675 1.30125,-1.62 2.4775,-3.29125 3.97125,-4.75375 3.8925,-3.81125 4.465,3.08125 4.635,4.29375 0.38125,2.71375 0.6925,5.62125 0.37125,8.35 -1.045,8.87375 -9.41625,2.055 -12.33875,0.60375 -7.50125,-3.71875 -16.38375,-1.29875 -24.29125,-0.29125 -0.5975,0.075 -0.4325,0.9925 0.1625,0.91625 6.81,-0.865 14.64,-3.0175 21.355,-0.8725 3.60375,1.15 6.8325,4.70625 10.6775,5.17 6.135,0.7425 5.54875,-7.33 5.25375,-11.40875 -0.1625,-2.2525 -0.58,-11.68375 -5.5075,-8.135 -4.38125,3.15625 -5.43375,7.3425 -11.4575,8.4125 -5.51375,0.97875 -11.63875,0.0462 -17.09375,-0.9825 -0.59125,-0.11125 -0.6725,0.82 -0.0875,0.93" />
    </g>
    <g
       id="g3062">
      <path
         d="m 370.82124,309.99355 18.8,0"
         style="fill:none;stroke:#231f20;stroke-width:5;stroke-linecap:butt;stroke-linejoin:miter;stroke-miterlimit:4;stroke-opacity:1;stroke-dasharray:none"
         id="path168"
         inkscape:connector-curvature="0" />
      <path
         inkscape:connector-curvature="0"
         id="path170"
         style="fill:#231f20;fill-opacity:1;fill-rule:nonzero;stroke:none"
         d="m 381.89487,316.77818 6.785,-6.78375 -6.785,-6.785 5.755,0 6.785,6.785 -6.785,6.78375 -5.755,0 z" />
      <text
         sodipodi:linespacing="125%"
         id="text3173-9"
         y="314.0224"
         x="303.63043"
         style="font-size:15px;font-style:normal;font-variant:normal;font-weight:bold;font-stretch:normal;line-height:125%;letter-spacing:0px;word-spacing:0px;fill:#000000;fill-opacity:1;stroke:none;font-family:Arial;-inkscape-font-specification:Sans"
         xml:space="preserve"><tspan
           style="font-style:oblique;fill:#d40000;-inkscape-font-specification:Arial Bold Oblique"
           y="314.0224"
           x="303.63043"
           id="tspan3175-4"
           sodipodi:role="line">Mutation</tspan></text>
    </g>
    <rect
       style="fill:none;stroke:none"
       id="rect3030"
       width="742.74493"
       height="116.02777"
       x="105.19812"
       y="239.9222" />
    <g
       transform="translate(-193.2681,-217.13257)"
       id="g2993">
      <path
         d="m 376.675,522.13025 0,0.195 c -0.135,-0.004 -0.27625,-0.004 -0.4225,-0.004 -2.79125,0.74625 -4.54,4.8725 -7.68,3.74625 -4.185,-1.5 -6.27875,-7.12625 -4.88375,-12.0025 0.69875,-2.25 2.7925,-4.87625 5.235,-3.74625 1.8075,0.645 3.9575,2.53125 5.9925,3.09375 l -0.004,0.007 c 1.41,2.64875 1.7625,5.67875 1.7625,8.71"
         style="fill:#3b4ca7;fill-opacity:1;fill-rule:nonzero;stroke:#2f3591;stroke-width:1.25;stroke-linecap:butt;stroke-linejoin:miter;stroke-miterlimit:4;stroke-opacity:1;stroke-dasharray:none"
         id="path128-1"
         inkscape:connector-curvature="0" />
      <path
         d="m 382.26213,562.6765 c 0,-2.71875 0.62125,-11.9575 -1.2875,-16.01625 -0.9575,-2.02875 -2.54125,-2.7675 -5.15375,-0.75 -1.04,0.80625 -1.55125,2.3475 -2.19875,3.55625 -0.64375,1.2075 -1.42125,2.08125 -2.9925,1.56 -1.14375,-0.3825 -1.975,-1.98875 -2.53625,-4.055 -0.2825,-1.035 -0.49875,-2.18625 -0.6525,-3.36 -0.1525,-1.01 -0.3525,-2.21375 -0.495,-3.455 -0.14,-1.24125 -0.22125,-2.525 -0.12625,-3.69125 -0.33875,-1.76625 0.70875,-3.27 2.10375,-3.645 4.18875,-1.12625 5.585,5.25 9.4225,4.5 4.88625,-1.5 2.095,-7.87625 1.49375,-12.01"
         style="fill:none;stroke:#231f20;stroke-width:0.9375;stroke-linecap:butt;stroke-linejoin:miter;stroke-miterlimit:4;stroke-opacity:1;stroke-dasharray:none"
         id="path140-7"
         inkscape:connector-curvature="0" />
      <path
         d="m 380.12588,525.818 c -0.0175,-1.3775 -0.46375,-2.43875 -1.18625,-3.0575 -0.81,-0.37875 -1.4375,-0.43125 -2.265,-0.435 -0.135,-0.004 -0.275,-0.004 -0.4225,-0.004 -2.79125,0.74625 -4.53875,4.8725 -7.68,3.7475 -4.185,-1.50125 -6.27875,-7.12625 -4.8825,-12.0025 0.6975,-2.25125 2.79125,-4.8775 5.23375,-3.7475 1.8075,0.645 3.9575,2.53125 5.9925,3.095 1.50375,0.41125 2.9425,0.10125 4.12875,-1.97375 1.745,-3 0,-6.37625 0.91375,-9.23875"
         style="fill:none;stroke:#231f20;stroke-width:0.9375;stroke-linecap:butt;stroke-linejoin:miter;stroke-miterlimit:4;stroke-opacity:1;stroke-dasharray:none"
         id="path144-4"
         inkscape:connector-curvature="0" />
      <path
         d="m 383.019,502.04787 c -0.35125,8.71375 2.11125,16.6725 2.11125,25.38625 0,4.545 -0.70125,9.0925 -0.70125,13.64125 0.3525,6.0575 2.46875,11.365 2.46875,17.05125"
         style="fill:none;stroke:#231f20;stroke-width:0.9375;stroke-linecap:butt;stroke-linejoin:miter;stroke-miterlimit:4;stroke-opacity:1;stroke-dasharray:none"
         id="path148-0"
         inkscape:connector-curvature="0" />
      <path
         d="m 374.91225,513.4205 c 1.41,2.64875 1.7625,5.67875 1.7625,8.71"
         style="fill:none;stroke:#231f20;stroke-width:0.9375;stroke-linecap:butt;stroke-linejoin:miter;stroke-miterlimit:4;stroke-opacity:1;stroke-dasharray:none"
         id="path152-9"
         inkscape:connector-curvature="0" />
      <path
         d="m 376.38138,544.40165 0.15,0.53625 c -0.405,0.19125 -0.84125,0.465 -1.30875,0.82875 -1.0425,0.80625 -1.5525,2.34875 -2.19875,3.55625 -0.645,1.2075 -1.42,2.08125 -2.99375,1.56 -1.145,-0.3825 -1.975,-1.9875 -2.5375,-4.055 -0.2825,-1.035 -0.49875,-2.18625 -0.65125,-3.36 -0.15375,-1.00625 -0.35375,-2.21375 -0.495,-3.45625 -0.14125,-1.24 -0.22125,-2.5225 -0.12375,-3.68875 -0.34125,-1.7675 0.705,-3.27125 2.1025,-3.64625 3.425,-0.9225 4.985,3.18375 7.54375,4.29125 l -0.0312,0.0863 c 0,2.7225 1.36,4.62875 0.54375,7.3475"
         style="fill:#ff0000;fill-opacity:1;fill-rule:nonzero;stroke:#800000;stroke-width:1.25;stroke-linecap:butt;stroke-linejoin:miter;stroke-miterlimit:4;stroke-opacity:1;stroke-dasharray:none"
         id="path56-9-48"
         inkscape:connector-curvature="0" />
      <path
         d="m 375.83763,537.0524 c 0,2.725 1.36,4.62875 0.54375,7.3475"
         style="fill:#ff0000;stroke:#800000;stroke-width:0.9375;stroke-linecap:butt;stroke-linejoin:miter;stroke-miterlimit:4;stroke-opacity:1;stroke-dasharray:none"
         id="path88-4-8"
         inkscape:connector-curvature="0" />
      <text
         sodipodi:linespacing="125%"
         id="text3155"
         y="524.49121"
         x="314.8461"
         style="font-size:40px;font-style:normal;font-weight:normal;line-height:125%;letter-spacing:0px;word-spacing:0px;fill:#000000;fill-opacity:1;stroke:none;font-family:Sans"
         xml:space="preserve"><tspan
           style="font-size:18px"
           y="524.49121"
           x="314.8461"
           id="tspan3157"
           sodipodi:role="line">weak</tspan></text>
      <text
         sodipodi:linespacing="125%"
         id="text3155-2"
         y="546.19305"
         x="307.97305"
         style="font-size:40px;font-style:normal;font-weight:normal;line-height:125%;letter-spacing:0px;word-spacing:0px;fill:#000000;fill-opacity:1;stroke:none;font-family:Sans"
         xml:space="preserve"><tspan
           style="font-size:18px"
           y="546.19305"
           x="307.97305"
           id="tspan3157-4"
           sodipodi:role="line">strong</tspan></text>
    </g>
  </g>
</svg>
