<?xml version="1.0" encoding="UTF-8" standalone="no"?>
<!-- Created with Inkscape (http://www.inkscape.org/) -->

<svg
   xmlns:dc="http://purl.org/dc/elements/1.1/"
   xmlns:cc="http://creativecommons.org/ns#"
   xmlns:rdf="http://www.w3.org/1999/02/22-rdf-syntax-ns#"
   xmlns:svg="http://www.w3.org/2000/svg"
   xmlns="http://www.w3.org/2000/svg"
   xmlns:sodipodi="http://sodipodi.sourceforge.net/DTD/sodipodi-0.dtd"
   xmlns:inkscape="http://www.inkscape.org/namespaces/inkscape"
   width="744.09448819"
   height="1052.3622047"
   id="svg5054"
   version="1.1"
   inkscape:version="0.48.4 r9939"
   sodipodi:docname="gain_inc.svg">
  <defs
     id="defs5056" />
  <sodipodi:namedview
     id="base"
     pagecolor="#ffffff"
     bordercolor="#666666"
     borderopacity="1.0"
     inkscape:pageopacity="0.0"
     inkscape:pageshadow="2"
     inkscape:zoom="5.9062468"
     inkscape:cx="425.37283"
     inkscape:cy="520"
     inkscape:document-units="px"
     inkscape:current-layer="layer1"
     showgrid="false"
     inkscape:window-width="1264"
     inkscape:window-height="1522"
     inkscape:window-x="1280"
     inkscape:window-y="0"
     inkscape:window-maximized="0" />
  <metadata
     id="metadata5059">
    <rdf:RDF>
      <cc:Work
         rdf:about="">
        <dc:format>image/svg+xml</dc:format>
        <dc:type
           rdf:resource="http://purl.org/dc/dcmitype/StillImage" />
        <dc:title></dc:title>
      </cc:Work>
    </rdf:RDF>
  </metadata>
  <g
     inkscape:label="Layer 1"
     inkscape:groupmode="layer"
     id="layer1">
    <path
       inkscape:connector-curvature="0"
       id="path184"
       style="fill:none;stroke:#808182;stroke-width:1.875;stroke-linecap:butt;stroke-linejoin:bevel;stroke-miterlimit:10;stroke-opacity:1;stroke-dasharray:none"
       d="m 427.06866,597.34918 29.755,0" />
    <text
       style="font-size:15px"
       id="text186"
       x="418.65442"
       y="612.8241">
      <tspan
         style="font-size:15px;font-variant:normal;font-weight:bold;writing-mode:lr-tb;fill:#231f20;fill-opacity:1;fill-rule:nonzero;stroke:none;font-family:Arial;-inkscape-font-specification:Arial-BoldMT"
         x="418.65442 426.99442 435.33441 439.50439 452.83942 457.0094"
         y="612.8241"
         sodipodi:role="line"
         id="tspan188">10 min</tspan>
    </text>
    <path
       d="m 362.82741,615.46681 0.14875,0.35875 -0.9,-1.31625 0.26125,0.24 -1.3125,-0.87625 0.3,0.1175 -1.65125,-0.3175 0.33875,0 -1.6525,0.3175 0.3,-0.1175 -1.31375,0.87625 0.26375,-0.24 -0.9025,1.31625 0.15125,-0.35875 -0.33875,1.63625 0,-0.44125 0.33875,1.59625 -0.15125,-0.36 0.9025,1.31875 -0.225,-0.24125 1.3125,0.9175 -0.3375,-0.11875 1.6525,0.3175 -0.33875,0 1.65125,-0.3175 -0.3375,0.11875 1.31375,-0.9175 -0.225,0.24125 0.9,-1.31875 -0.14875,0.36 0.3375,-1.59625 0,0.44125 -0.3375,-1.63625 z m 2.10125,1.195 c 0.0375,0.16 0.0375,0.28125 0,0.44125 l -0.3375,1.59125 c -0.0375,0.1225 -0.0763,0.24125 -0.15125,0.36 l -0.90125,1.3175 c -0.0738,0.0775 -0.14875,0.16 -0.225,0.23875 l -1.3125,0.9175 c -0.1125,0.0387 -0.22625,0.11875 -0.33875,0.11875 l -1.65,0.31875 c -0.11375,0.04 -0.22625,0.04 -0.33875,0 l -1.65125,-0.31875 c -0.115,0 -0.225,-0.08 -0.3375,-0.11875 l -1.315,-0.9175 c -0.075,-0.0787 -0.15,-0.16125 -0.225,-0.23875 l -0.9,-1.3175 c -0.0763,-0.11875 -0.11375,-0.2375 -0.15125,-0.36 l -0.3375,-1.59125 c -0.0375,-0.16 -0.0375,-0.28125 0,-0.44125 l 0.3375,-1.6325 c 0.0375,-0.1225 0.075,-0.24 0.15125,-0.35875 l 0.9,-1.31625 c 0.075,-0.08 0.15,-0.1625 0.26375,-0.24 l 1.3125,-0.8775 c 0.0763,-0.0375 0.18625,-0.12125 0.30125,-0.12125 l 1.65125,-0.3175 c 0.1125,-0.0412 0.225,-0.0412 0.33875,0 l 1.65,0.3175 c 0.1125,0 0.22625,0.0838 0.30125,0.12125 l 1.3125,0.8775 c 0.11375,0.0775 0.18875,0.16 0.2625,0.24 l 0.90125,1.31625 c 0.075,0.11875 0.11375,0.23625 0.15125,0.35875 l 0.3375,1.6325 z"
       style="fill:#110f0d;fill-opacity:1;fill-rule:nonzero;stroke:none"
       id="path284"
       inkscape:connector-curvature="0" />
    <path
       inkscape:connector-curvature="0"
       id="path288"
       style="fill:none;stroke:#110f0d;stroke-width:0.0775;stroke-linecap:butt;stroke-linejoin:round;stroke-miterlimit:10;stroke-opacity:1;stroke-dasharray:none"
       d="m 362.82741,615.46681 0.14875,0.35875 -0.9,-1.31625 0.26125,0.24 -1.3125,-0.87625 0.3,0.1175 -1.65125,-0.3175 0.33875,0 -1.6525,0.3175 0.3,-0.1175 -1.31375,0.87625 0.26375,-0.24 -0.9025,1.31625 0.15125,-0.35875 -0.33875,1.63625 0,-0.44125 0.33875,1.59625 -0.15125,-0.36 0.9025,1.31875 -0.225,-0.24125 1.3125,0.9175 -0.3375,-0.11875 1.6525,0.3175 -0.33875,0 1.65125,-0.3175 -0.3375,0.11875 1.31375,-0.9175 -0.225,0.24125 0.9,-1.31875 -0.14875,0.36 0.3375,-1.59625 0,0.44125 -0.3375,-1.63625 z m 2.10125,1.195 c 0.0375,0.16 0.0375,0.28125 0,0.44125 l -0.3375,1.59125 c -0.0375,0.1225 -0.0763,0.24125 -0.15125,0.36 l -0.90125,1.3175 c -0.0738,0.0775 -0.14875,0.16 -0.225,0.23875 l -1.3125,0.9175 c -0.1125,0.0387 -0.22625,0.11875 -0.33875,0.11875 l -1.65,0.31875 c -0.11375,0.04 -0.22625,0.04 -0.33875,0 l -1.65125,-0.31875 c -0.115,0 -0.225,-0.08 -0.3375,-0.11875 l -1.315,-0.9175 c -0.075,-0.0787 -0.15,-0.16125 -0.225,-0.23875 l -0.9,-1.3175 c -0.0763,-0.11875 -0.11375,-0.2375 -0.15125,-0.36 l -0.3375,-1.59125 c -0.0375,-0.16 -0.0375,-0.28125 0,-0.44125 l 0.3375,-1.6325 c 0.0375,-0.1225 0.075,-0.24 0.15125,-0.35875 l 0.9,-1.31625 c 0.075,-0.08 0.15,-0.1625 0.26375,-0.24 l 1.3125,-0.8775 c 0.0763,-0.0375 0.18625,-0.12125 0.30125,-0.12125 l 1.65125,-0.3175 c 0.1125,-0.0412 0.225,-0.0412 0.33875,0 l 1.65,0.3175 c 0.1125,0 0.22625,0.0838 0.30125,0.12125 l 1.3125,0.8775 c 0.11375,0.0775 0.18875,0.16 0.2625,0.24 l 0.90125,1.31625 c 0.075,0.11875 0.11375,0.23625 0.15125,0.35875 l 0.3375,1.6325 z" />
    <path
       d="m 364.04741,616.88043 c 0,2.275 -1.8775,4.14625 -4.20625,4.14625 -2.32625,0 -4.20375,-1.87125 -4.20375,-4.14625 0,-2.3125 1.8775,-4.145 4.20375,-4.145 2.32875,0 4.20625,1.8325 4.20625,4.145"
       style="fill:#110f0d;fill-opacity:1;fill-rule:nonzero;stroke:none"
       id="path290"
       inkscape:connector-curvature="0" />
    <path
       inkscape:connector-curvature="0"
       id="path294"
       style="fill:none;stroke:#c01e24;stroke-width:1.24874997;stroke-linecap:butt;stroke-linejoin:bevel;stroke-miterlimit:10;stroke-opacity:1;stroke-dasharray:none"
       d="m 358.66116,615.48031 30.62875,-31.325 30.70375,-26.38625 c 0.0763,-0.0875 0.19,-0.1775 0.2625,-0.2225 l 30.63125,-13.5275 c 0.63875,-0.26625 1.315,0.13375 1.54,0.8475 0.2625,0.75375 -0.075,1.555 -0.675,1.82125 l -30.63,13.53 0.2625,-0.18 -30.5575,26.29875 -30.62875,31.3225 c -0.48875,0.4925 -1.23875,0.44625 -1.69,-0.175 -0.4125,-0.57875 -0.375,-1.47 0.1525,-2.00375 z" />
    <path
       inkscape:connector-curvature="0"
       id="path298"
       style="fill:none;stroke:#808182;stroke-width:1.24874997;stroke-linecap:butt;stroke-linejoin:bevel;stroke-miterlimit:10;stroke-opacity:1;stroke-dasharray:5, 5;stroke-dashoffset:0"
       d="m 357.75716,617.89481 94.1625,0" />
    <text
       transform="matrix(0,-0.99999371,1.0000063,0,0,0)"
       id="text300"
       x="-556.33453"
       y="296.31369"
       style="font-size:14.99990654px">
      <tspan
         style="font-size:20.00012779px;font-variant:normal;font-weight:bold;writing-mode:lr-tb;fill:#110f0d;fill-opacity:1;fill-rule:nonzero;stroke:none;font-family:Arial;-inkscape-font-specification:Arial-BoldMT"
         x="-556.33453 -544.1145 -532.99438 -521.87433 -514.0943 -501.87421 -496.31418 -484.09412"
         y="296.31369"
         sodipodi:role="line"
         id="tspan302">Learning</tspan>
      <tspan
         style="font-size:20.00012779px;font-variant:normal;font-weight:bold;writing-mode:lr-tb;fill:#110f0d;fill-opacity:1;fill-rule:nonzero;stroke:none;font-family:Arial;-inkscape-font-specification:Arial-BoldMT"
         x="-556.33453 -544.1145 -532.99438 -521.87433 -514.0943 -501.87421 -496.31418 -484.09412"
         y="296.31369"
         sodipodi:role="line"
         id="tspan5223" />
    </text>
    <text
       style="font-size:15px"
       id="text308"
       x="371.13004"
       y="437.37228">
      <tspan
         style="font-size:15px;font-variant:normal;font-weight:bold;writing-mode:lr-tb;fill:#231f20;fill-opacity:1;fill-rule:nonzero;stroke:none;font-family:Arial;-inkscape-font-specification:Arial-BoldMT"
         x="371.13004 385.29004"
         y="437.37228"
         sodipodi:role="line"
         id="tspan310">WT</tspan>
    </text>
    <text
       style="font-size:15px"
       id="text312"
       x="371.76004"
       y="458.10229">
      <tspan
         style="font-size:15px;font-variant:normal;font-weight:bold;writing-mode:lr-tb;fill:#c01e24;fill-opacity:1;fill-rule:nonzero;stroke:none;font-family:Arial;-inkscape-font-specification:Arial-BoldMT"
         x="371.76004"
         y="458.10229"
         id="tspan314">D</tspan>
    </text>
    <path
       inkscape:connector-curvature="0"
       id="path318"
       style="fill:none;stroke:#c01e24;stroke-width:0.0775;stroke-linecap:butt;stroke-linejoin:round;stroke-miterlimit:10;stroke-opacity:1;stroke-dasharray:none"
       d="m 372.84504,458.10118 4.08,0 c 0.8,0 1.44,-0.0763 1.91875,-0.2275 0.64,-0.205 1.1475,-0.49 1.52375,-0.85625 0.4975,-0.48375 0.88125,-1.11625 1.15,-1.8975 0.21875,-0.63875 0.32875,-1.40125 0.32875,-2.285 0,-1.00625 -0.1175,-1.85 -0.35125,-2.53875 -0.235,-0.685 -0.57625,-1.265 -1.025,-1.73875 -0.45,-0.47375 -0.98875,-0.8025 -1.61875,-0.98875 -0.46875,-0.13625 -1.15,-0.205 -2.04375,-0.205 l -3.9625,0 0,10.7375 z m 3.1425,-8.92125 c 0.88375,0 1.47625,0.035 1.78,0.1025 0.405,0.0888 0.73875,0.25625 1.0025,0.50625 0.26375,0.24875 0.46875,0.595 0.615,1.04 0.1475,0.44375 0.22,1.08125 0.22,1.91125 0,0.83 -0.0725,1.48375 -0.22,1.96625 -0.14625,0.48125 -0.335,0.82625 -0.5675,1.03625 -0.23125,0.21 -0.52375,0.35875 -0.875,0.4475 -0.26875,0.0675 -0.705,0.1025 -1.31125,0.1025 l -1.61875,0 0,-7.1125 0.975,0 z" />
    <text
       style="font-size:15px"
       id="text320"
       x="382.59366"
       y="450.60117">
      <tspan
         style="font-size:11.25px;font-variant:normal;font-weight:bold;writing-mode:lr-tb;fill:#c01e24;fill-opacity:1;fill-rule:nonzero;stroke:none;font-family:Arial;-inkscape-font-specification:Arial-BoldMT"
         x="382.59366"
         y="450.60117"
         id="tspan322">b</tspan>
    </text>
    <path
       inkscape:connector-curvature="0"
       id="path326"
       style="fill:none;stroke:#c01e24;stroke-width:0.0775;stroke-linecap:butt;stroke-linejoin:round;stroke-miterlimit:10;stroke-opacity:1;stroke-dasharray:none"
       d="m 384.76829,450.60118 0,-0.8575 c 0.235,0.32625 0.51375,0.57125 0.8375,0.73875 0.325,0.1675 0.6525,0.25 0.98625,0.25 0.6775,0 1.25375,-0.2675 1.7275,-0.8075 0.475,-0.5375 0.71125,-1.305 0.71125,-2.30125 0,-0.9625 -0.2325,-1.7025 -0.6975,-2.215 -0.46625,-0.515 -1.0525,-0.77125 -1.76375,-0.77125 -0.65125,0 -1.21375,0.2675 -1.69125,0.81125 l 0,-2.89875 -1.5425,0 0,8.05125 1.4325,0 z m 0.46625,-4.3525 c 0.245,-0.2875 0.5525,-0.4325 0.9225,-0.4325 0.3775,0 0.6875,0.14875 0.92875,0.44125 0.2425,0.29625 0.36375,0.77625 0.36375,1.44375 0,0.6275 -0.12,1.08625 -0.36125,1.375 -0.23875,0.2925 -0.52875,0.4375 -0.87,0.4375 -0.4425,0 -0.79875,-0.20625 -1.065,-0.61375 -0.19125,-0.29125 -0.28625,-0.7375 -0.28625,-1.34375 0,-0.5825 0.12375,-1.02 0.3675,-1.3075 z" />
    <text
       style="font-size:15px"
       id="text328"
       x="389.46616"
       y="458.1012">
      <tspan
         style="font-size:15px;font-variant:normal;font-weight:bold;writing-mode:lr-tb;fill:#c01e24;fill-opacity:1;fill-rule:nonzero;stroke:none;font-family:Arial;-inkscape-font-specification:Arial-BoldMT"
         x="389.46616"
         y="458.1012"
         id="tspan330">K</tspan>
    </text>
    <text
       style="font-size:15px"
       id="text332"
       x="400.29868"
       y="450.60117">
      <tspan
         style="font-size:11.25px;font-variant:normal;font-weight:bold;writing-mode:lr-tb;fill:#c01e24;fill-opacity:1;fill-rule:nonzero;stroke:none;font-family:Arial;-inkscape-font-specification:Arial-BoldMT"
         x="400.29868"
         y="450.60117"
         id="tspan334">b</tspan>
    </text>
    <path
       inkscape:connector-curvature="0"
       id="path338"
       style="fill:none;stroke:#c01e24;stroke-width:0.0775;stroke-linecap:butt;stroke-linejoin:round;stroke-miterlimit:10;stroke-opacity:1;stroke-dasharray:none"
       d="m 402.47341,450.60118 0,-0.8575 c 0.235,0.32625 0.51375,0.57125 0.8375,0.73875 0.32625,0.1675 0.6525,0.25 0.98625,0.25 0.6775,0 1.25375,-0.2675 1.7275,-0.8075 0.47625,-0.5375 0.7125,-1.305 0.7125,-2.30125 0,-0.9625 -0.23375,-1.7025 -0.69875,-2.215 -0.46625,-0.515 -1.05125,-0.77125 -1.76375,-0.77125 -0.65125,0 -1.21375,0.2675 -1.69125,0.81125 l 0,-2.89875 -1.5425,0 0,8.05125 1.4325,0 z m 0.46625,-4.3525 c 0.245,-0.2875 0.5525,-0.4325 0.9225,-0.4325 0.3775,0 0.6875,0.14875 0.92875,0.44125 0.2425,0.29625 0.36375,0.77625 0.36375,1.44375 0,0.6275 -0.12,1.08625 -0.36125,1.375 -0.23875,0.2925 -0.52875,0.4375 -0.86875,0.4375 -0.4425,0 -0.8,-0.20625 -1.06625,-0.61375 -0.19,-0.29125 -0.28625,-0.7375 -0.28625,-1.34375 0,-0.5825 0.12375,-1.02 0.3675,-1.3075 z" />
    <text
       style="font-size:15px"
       id="text340"
       x="407.17004"
       y="458.1012">
      <tspan
         style="font-size:15px;font-variant:normal;font-weight:bold;writing-mode:lr-tb;fill:#c01e24;fill-opacity:1;fill-rule:nonzero;stroke:none;font-family:Arial;-inkscape-font-specification:Arial-BoldMT"
         x="407.17004 412.16504 416.33505"
         y="458.1012"
         sodipodi:role="line"
         id="tspan342">-/-</tspan>
    </text>
    <path
       d="m 412.05479,453.17906 -4.0425,0 0,2.0575 4.0425,0 0,-2.0575 z"
       style="fill:none;stroke:#c01e24;stroke-width:0.0775;stroke-linecap:butt;stroke-linejoin:round;stroke-miterlimit:10;stroke-opacity:1;stroke-dasharray:none"
       id="path344"
       inkscape:connector-curvature="0" />
    <path
       inkscape:connector-curvature="0"
       id="path348"
       style="fill:none;stroke:#c01e24;stroke-width:0.0775;stroke-linecap:butt;stroke-linejoin:round;stroke-miterlimit:10;stroke-opacity:1;stroke-dasharray:none"
       d="m 413.65991,458.28418 2.68625,-11.10375 -1.54375,0 -2.65875,11.10375 1.51625,0 z" />
    <path
       d="m 421.21729,453.17906 -4.0425,0 0,2.0575 4.0425,0 0,-2.0575 z"
       style="fill:none;stroke:#c01e24;stroke-width:0.0775;stroke-linecap:butt;stroke-linejoin:round;stroke-miterlimit:10;stroke-opacity:1;stroke-dasharray:none"
       id="path350"
       inkscape:connector-curvature="0" />
    <text
       style="font-size:15px"
       id="text352"
       x="322.63629"
       y="532.79108">
      <tspan
         style="font-size:13.75px;font-variant:normal;font-weight:bold;writing-mode:lr-tb;fill:#231f20;fill-opacity:1;fill-rule:nonzero;stroke:none;font-family:Arial;-inkscape-font-specification:Arial-BoldMT"
         x="322.63629 330.28128 337.9263"
         y="532.79108"
         sodipodi:role="line"
         id="tspan354">25%</tspan>
    </text>
    <text
       style="font-size:15px"
       id="text356"
       x="328.89252"
       y="619.38855">
      <tspan
         style="font-size:13.75px;font-variant:normal;font-weight:bold;writing-mode:lr-tb;fill:#231f20;fill-opacity:1;fill-rule:nonzero;stroke:none;font-family:Arial;-inkscape-font-specification:Arial-BoldMT"
         x="328.89252 336.53754"
         y="619.38855"
         sodipodi:role="line"
         id="tspan358">0%</tspan>
    </text>
    <text
       style="font-size:15px"
       id="text360"
       x="322.62253"
       y="447.44479">
      <tspan
         style="font-size:13.75px;font-variant:normal;font-weight:bold;writing-mode:lr-tb;fill:#231f20;fill-opacity:1;fill-rule:nonzero;stroke:none;font-family:Arial;-inkscape-font-specification:Arial-BoldMT"
         x="322.62253 330.26755 337.91254"
         y="447.44479"
         sodipodi:role="line"
         id="tspan362">50%</tspan>
    </text>
    <path
       d="m 358.80979,422.51031 1.20125,0 0,219.70375 -1.20125,0 0,-219.70375 z"
       style="fill:none;stroke:#808182;stroke-width:1.24874997;stroke-linecap:butt;stroke-linejoin:bevel;stroke-miterlimit:10;stroke-opacity:1;stroke-dasharray:none"
       id="path364"
       inkscape:connector-curvature="0" />
    <path
       d="m 355.20604,443.54656 4.20375,0 0,1.425 -4.20375,0 0,-1.425 z m 0,86.145 4.20375,0 0,1.425 -4.20375,0 0,-1.425 z m 0,86.14625 4.20375,0 0,1.42125 -4.20375,0 0,-1.42125 z"
       style="fill:#808182;fill-opacity:1;fill-rule:nonzero;stroke:#808182;stroke-width:1.24874997;stroke-linecap:butt;stroke-linejoin:bevel;stroke-miterlimit:10;stroke-opacity:1;stroke-dasharray:none"
       id="path366"
       inkscape:connector-curvature="0" />
    <path
       inkscape:connector-curvature="0"
       id="path370"
       style="fill:none;stroke:#242222;stroke-width:1.24874997;stroke-linecap:butt;stroke-linejoin:round;stroke-miterlimit:10;stroke-opacity:1;stroke-dasharray:none"
       d="m 354.15854,616.90481 3.60375,0 m -3.60375,0 3.60375,0 m -1.8025,0 0,0" />
    <path
       d="m 388.53841,513.67243 3.60375,0 -3.60375,0 z m 0,33.46125 3.60375,0 -3.60375,0 z m 1.80125,0 0,-16.73 0,-16.73125 0,33.46125 z"
       style="fill:#110f0d;fill-opacity:1;fill-rule:nonzero;stroke:none"
       id="path372"
       inkscape:connector-curvature="0" />
    <path
       d="m 388.53854,513.31656 3.60375,0 0,0.7125 -3.60375,0 0,-0.7125 z m 0,33.46375 3.60375,0 0,0.7075 -3.60375,0 0,-0.7075 z m 1.5025,0.3525 0,-16.73 0,-16.73 0.6,0 0,16.73 0,16.73 -0.6,0 z"
       style="fill:#242222;fill-opacity:1;fill-rule:nonzero;stroke:none"
       id="path374"
       inkscape:connector-curvature="0" />
    <path
       d="m 388.53854,513.31656 3.60375,0 0,0.7125 -3.60375,0 0,-0.7125 z m 0,33.46375 3.60375,0 0,0.7075 -3.60375,0 0,-0.7075 z m 1.5025,0.3525 0,-16.73 0,-16.73 0.6,0 0,16.73 0,16.73 -0.6,0 z"
       style="fill:none;stroke:#242222;stroke-width:0.0775;stroke-linecap:butt;stroke-linejoin:round;stroke-miterlimit:10;stroke-opacity:1;stroke-dasharray:none"
       id="path376"
       inkscape:connector-curvature="0" />
    <path
       d="m 419.16829,489.46831 3.60375,0 -3.60375,0 z m 0,30.6125 3.60375,0 -3.60375,0 z m 1.80125,0 0,-15.3075 0,-15.305 0,30.6125 z"
       style="fill:#110f0d;fill-opacity:1;fill-rule:nonzero;stroke:none"
       id="path378"
       inkscape:connector-curvature="0" />
    <path
       d="m 419.16854,489.11156 3.60375,0 0,0.70875 -3.60375,0 0,-0.70875 z m 0,30.6125 3.60375,0 0,0.70875 -3.60375,0 0,-0.70875 z m 1.50125,0.3575 0,-15.3075 0,-15.30625 0.60125,0 0,15.30625 0,15.3075 -0.60125,0 z"
       style="fill:#242222;fill-opacity:1;fill-rule:nonzero;stroke:none"
       id="path380"
       inkscape:connector-curvature="0" />
    <path
       d="m 419.16854,489.11156 3.60375,0 0,0.71 -3.60375,0 0,-0.71 z m 0,30.6125 3.60375,0 0,0.71 -3.60375,0 0,-0.71 z m 1.50125,0.3575 0,-15.3075 0,-15.30625 0.60125,0 0,15.30625 0,15.3075 -0.60125,0 z"
       style="fill:none;stroke:#242222;stroke-width:0.0775;stroke-linecap:butt;stroke-linejoin:round;stroke-miterlimit:10;stroke-opacity:1;stroke-dasharray:none"
       id="path382"
       inkscape:connector-curvature="0" />
    <path
       d="m 449.79879,446.75106 3.60375,0 -3.60375,0 z m 0,49.83625 3.60375,0 -3.60375,0 z m 1.80125,0 0,-24.91875 0,-24.9175 0,49.83625 z"
       style="fill:#110f0d;fill-opacity:1;fill-rule:nonzero;stroke:none"
       id="path384"
       inkscape:connector-curvature="0" />
    <path
       d="m 449.79854,446.39406 3.60375,0 0,0.71 -3.60375,0 0,-0.71 z m 0,49.8375 3.60375,0 0,0.71125 -3.60375,0 0,-0.71125 z m 1.50125,0.355 0,-24.91875 0,-24.91625 0.60125,0 0,24.91625 0,24.91875 -0.60125,0 z"
       style="fill:#242222;fill-opacity:1;fill-rule:nonzero;stroke:none"
       id="path386"
       inkscape:connector-curvature="0" />
    <path
       d="m 449.79854,446.39406 3.60375,0 0,0.71125 -3.60375,0 0,-0.71125 z m 0,49.8375 3.60375,0 0,0.71125 -3.60375,0 0,-0.71125 z m 1.50125,0.355 0,-24.91875 0,-24.91625 0.60125,0 0,24.91625 0,24.91875 -0.60125,0 z"
       style="fill:none;stroke:#242222;stroke-width:0.0775;stroke-linecap:butt;stroke-linejoin:round;stroke-miterlimit:10;stroke-opacity:1;stroke-dasharray:none"
       id="path388"
       inkscape:connector-curvature="0" />
    <path
       d="m 388.53841,574.90043 3.60375,0 -3.60375,0 z m 0,21.35625 3.60375,0 -3.60375,0 z m 1.80125,0 0,-10.67625 0,-10.68 0,21.35625 z"
       style="fill:#110f0d;fill-opacity:1;fill-rule:nonzero;stroke:none"
       id="path390"
       inkscape:connector-curvature="0" />
    <path
       d="m 388.53854,574.54406 3.60375,0 0,0.71125 -3.60375,0 0,-0.71125 z m 0,21.35875 3.60375,0 0,0.71375 -3.60375,0 0,-0.71375 z m 1.5025,0.35375 0,-10.67625 0,-10.68 0.6,0 0,10.68 0,10.67625 -0.6,0 z"
       style="fill:#c01e24;fill-opacity:1;fill-rule:nonzero;stroke:none"
       id="path392"
       inkscape:connector-curvature="0" />
    <path
       d="m 388.53854,574.54406 3.60375,0 0,0.71125 -3.60375,0 0,-0.71125 z m 0,21.35875 3.60375,0 0,0.71375 -3.60375,0 0,-0.71375 z m 1.5025,0.35375 0,-10.67625 0,-10.68 0.6,0 0,10.68 0,10.67625 -0.6,0 z"
       style="fill:none;stroke:#c01e24;stroke-width:0.0775;stroke-linecap:butt;stroke-linejoin:round;stroke-miterlimit:10;stroke-opacity:1;stroke-dasharray:none"
       id="path394"
       inkscape:connector-curvature="0" />
    <path
       d="m 419.16829,547.13306 3.60375,0 -3.60375,0 z m 0,24.91875 3.60375,0 -3.60375,0 z m 1.80125,0 0,-12.45875 0,-12.46 0,24.91875 z"
       style="fill:#110f0d;fill-opacity:1;fill-rule:nonzero;stroke:none"
       id="path396"
       inkscape:connector-curvature="0" />
    <path
       d="m 419.16854,546.78031 3.60375,0 0,0.7075 -3.60375,0 0,-0.7075 z m 0,24.915 3.60375,0 0,0.7125 -3.60375,0 0,-0.7125 z m 1.50125,0.35625 0,-12.45875 0,-12.46 0.60125,0 0,12.46 0,12.45875 -0.60125,0 z"
       style="fill:#c01e24;fill-opacity:1;fill-rule:nonzero;stroke:none"
       id="path398"
       inkscape:connector-curvature="0" />
    <path
       d="m 419.16854,546.78031 3.60375,0 0,0.7075 -3.60375,0 0,-0.7075 z m 0,24.915 3.60375,0 0,0.7125 -3.60375,0 0,-0.7125 z m 1.50125,0.35625 0,-12.45875 0,-12.46 0.60125,0 0,12.46 0,12.45875 -0.60125,0 z"
       style="fill:none;stroke:#c01e24;stroke-width:0.0775;stroke-linecap:butt;stroke-linejoin:round;stroke-miterlimit:10;stroke-opacity:1;stroke-dasharray:none"
       id="path400"
       inkscape:connector-curvature="0" />
    <path
       d="m 449.79879,535.74393 3.60375,0 -3.60375,0 z m 0,19.97875 3.60375,0 -3.60375,0 z m 1.80125,0 0,-9.965 0,-10.01375 0,19.97875 z"
       style="fill:#110f0d;fill-opacity:1;fill-rule:nonzero;stroke:none"
       id="path402"
       inkscape:connector-curvature="0" />
    <path
       d="m 449.79854,535.38906 3.60375,0 0,0.71 -3.60375,0 0,-0.71 z m 0,19.97625 3.60375,0 0,0.71375 -3.60375,0 0,-0.71375 z m 1.50125,0.3575 0,-9.965 0,-10.01375 0.60125,0 0,10.01375 0,9.965 -0.60125,0 z"
       style="fill:#c01e24;fill-opacity:1;fill-rule:nonzero;stroke:none"
       id="path404"
       inkscape:connector-curvature="0" />
    <path
       d="m 449.79854,535.38906 3.60375,0 0,0.71 -3.60375,0 0,-0.71 z m 0,19.97625 3.60375,0 0,0.71375 -3.60375,0 0,-0.71375 z m 1.50125,0.3575 0,-9.965 0,-10.01375 0.60125,0 0,10.01375 0,9.965 -0.60125,0 z"
       style="fill:none;stroke:#c01e24;stroke-width:0.0775;stroke-linecap:butt;stroke-linejoin:round;stroke-miterlimit:10;stroke-opacity:1;stroke-dasharray:none"
       id="path406"
       inkscape:connector-curvature="0" />
    <path
       d="m 358.32241,616.01368 30.63,-86.1425 c 0.0737,-0.2225 0.22375,-0.44625 0.4125,-0.57875 l 30.63,-26.34375 30.5175,-32.66 c 0.4875,-0.53375 1.23875,-0.48875 1.68875,0.0913 0.45125,0.5775 0.41375,1.4675 -0.075,2.00125 l -30.7425,32.83625 -30.63,26.345 0.4125,-0.58 -30.63,86.145 c -0.2625,0.71125 -0.97625,1.06875 -1.57625,0.75625 -0.60125,-0.31125 -0.90125,-1.15625 -0.6375,-1.87"
       style="fill:#110f0d;fill-opacity:1;fill-rule:nonzero;stroke:none"
       id="path408"
       inkscape:connector-curvature="0" />
    <path
       inkscape:connector-curvature="0"
       id="path412"
       style="fill:none;stroke:#110f0d;stroke-width:1.24874997;stroke-linecap:butt;stroke-linejoin:bevel;stroke-miterlimit:10;stroke-opacity:1;stroke-dasharray:none"
       d="m 358.32241,616.01368 30.63,-86.1425 c 0.0737,-0.2225 0.22375,-0.44625 0.4125,-0.57875 l 30.63,-26.34375 30.5175,-32.66 c 0.4875,-0.53375 1.23875,-0.48875 1.68875,0.0913 0.45125,0.5775 0.41375,1.4675 -0.075,2.00125 l -30.7425,32.83625 -30.63,26.345 0.4125,-0.58 -30.63,86.145 c -0.2625,0.71125 -0.97625,1.06875 -1.57625,0.75625 -0.60125,-0.31125 -0.90125,-1.15625 -0.6375,-1.87 z" />
    <path
       d="m 358.66116,615.48031 30.62875,-31.325 30.70375,-26.38625 c 0.0763,-0.0875 0.19,-0.1775 0.2625,-0.2225 l 30.63125,-13.5275 c 0.63875,-0.26625 1.315,0.13375 1.54,0.8475 0.2625,0.75375 -0.075,1.555 -0.675,1.82125 l -30.63,13.53 0.2625,-0.18 -30.5575,26.29875 -30.62875,31.3225 c -0.48875,0.4925 -1.23875,0.44625 -1.69,-0.175 -0.4125,-0.57875 -0.375,-1.47 0.1525,-2.00375"
       style="fill:#c01e24;fill-opacity:1;fill-rule:nonzero;stroke:none"
       id="path414"
       inkscape:connector-curvature="0" />
    <path
       inkscape:connector-curvature="0"
       id="path418"
       style="fill:none;stroke:#110f0d;stroke-width:1.78250003;stroke-linecap:square;stroke-linejoin:miter;stroke-miterlimit:10;stroke-opacity:1;stroke-dasharray:none"
       d="m 467.10954,472.17706 0,74.1475" />
    <path
       inkscape:connector-curvature="0"
       id="path422"
       style="fill:none;stroke:#110f0d;stroke-width:1.78250003;stroke-linecap:square;stroke-linejoin:miter;stroke-miterlimit:10;stroke-opacity:1;stroke-dasharray:none"
       d="m 460.19979,471.54106 6.91,0" />
    <path
       inkscape:connector-curvature="0"
       id="path426"
       style="fill:none;stroke:#110f0d;stroke-width:1.78250003;stroke-linecap:square;stroke-linejoin:miter;stroke-miterlimit:10;stroke-opacity:1;stroke-dasharray:none"
       d="m 460.19979,546.32506 6.91,0" />
    <path
       d="m 424.23729,557.88868 0.14875,0.35875 -0.90125,-1.31625 0.2625,0.24 -1.3125,-0.87625 0.3,0.1175 -1.65125,-0.3175 0.33875,0 -1.6525,0.3175 0.3,-0.1175 -1.31375,0.87625 0.26375,-0.24 -0.9025,1.31625 0.15125,-0.35875 -0.33875,1.63625 0,-0.44125 0.33875,1.59625 -0.15125,-0.36 0.9025,1.31875 -0.225,-0.24125 1.3125,0.9175 -0.3375,-0.11875 1.6525,0.3175 -0.33875,0 1.65125,-0.3175 -0.3375,0.11875 1.31375,-0.9175 -0.22625,0.24125 0.90125,-1.31875 -0.14875,0.36 0.3375,-1.59625 0,0.44125 -0.3375,-1.63625 z m 2.10125,1.195 c 0.0375,0.16 0.0375,0.28125 0,0.44125 l -0.3375,1.59125 c -0.0375,0.1225 -0.0763,0.24125 -0.15125,0.36 l -0.90125,1.3175 c -0.0737,0.0775 -0.14875,0.15875 -0.225,0.23875 l -1.3125,0.9175 c -0.1125,0.0387 -0.22625,0.11875 -0.33875,0.11875 l -1.65,0.31875 c -0.11375,0.04 -0.22625,0.04 -0.33875,0 l -1.65125,-0.31875 c -0.11625,0 -0.225,-0.08 -0.3375,-0.11875 l -1.315,-0.9175 c -0.075,-0.08 -0.15,-0.16125 -0.225,-0.23875 l -0.9,-1.3175 c -0.0763,-0.11875 -0.11375,-0.2375 -0.1525,-0.36 l -0.33625,-1.59125 c -0.0375,-0.16 -0.0375,-0.28125 0,-0.44125 l 0.33625,-1.6325 c 0.0387,-0.12375 0.0762,-0.24 0.1525,-0.35875 l 0.9,-1.31625 c 0.075,-0.08 0.15,-0.1625 0.26375,-0.24 l 1.3125,-0.8775 c 0.0762,-0.0375 0.185,-0.12125 0.30125,-0.12125 l 1.65125,-0.3175 c 0.1125,-0.0412 0.225,-0.0412 0.33875,0 l 1.65,0.3175 c 0.1125,0 0.22625,0.0838 0.30125,0.12125 l 1.3125,0.8775 c 0.11375,0.0775 0.18875,0.16 0.2625,0.24 l 0.90125,1.31625 c 0.075,0.11875 0.11375,0.235 0.15125,0.35875 l 0.3375,1.6325 z"
       style="fill:#c01e24;fill-opacity:1;fill-rule:nonzero;stroke:none"
       id="path446"
       inkscape:connector-curvature="0" />
    <path
       d="m 425.45741,559.30231 c 0,2.275 -1.8775,4.14625 -4.20625,4.14625 -2.32625,0 -4.20375,-1.87125 -4.20375,-4.14625 0,-2.3125 1.8775,-4.145 4.20375,-4.145 2.32875,0 4.20625,1.8325 4.20625,4.145"
       style="fill:#c01e24;fill-opacity:1;fill-rule:nonzero;stroke:none"
       id="path448"
       inkscape:connector-curvature="0" />
    <path
       d="m 454.88604,468.30493 0.14875,0.35875 -0.90125,-1.31625 0.2625,0.24 -1.3125,-0.87625 0.3,0.1175 -1.65125,-0.3175 0.33875,0 -1.6525,0.3175 0.3,-0.1175 -1.31375,0.87625 0.26375,-0.24 -0.9025,1.31625 0.15125,-0.35875 -0.33875,1.63625 0,-0.44125 0.33875,1.59625 -0.15125,-0.36 0.9025,1.31875 -0.225,-0.24125 1.3125,0.9175 -0.3375,-0.11875 1.6525,0.3175 -0.33875,0 1.65125,-0.3175 -0.3375,0.11875 1.31375,-0.9175 -0.22625,0.24125 0.90125,-1.31875 -0.14875,0.36 0.3375,-1.59625 0,0.44125 -0.3375,-1.63625 z m 2.10125,1.195 c 0.0375,0.16 0.0375,0.28125 0,0.44125 l -0.3375,1.59125 c -0.0375,0.1225 -0.0763,0.24125 -0.15125,0.36 l -0.90125,1.3175 c -0.0738,0.0775 -0.14875,0.15875 -0.225,0.23875 l -1.3125,0.9175 c -0.1125,0.0387 -0.22625,0.11875 -0.33875,0.11875 l -1.65,0.31875 c -0.11375,0.04 -0.22625,0.04 -0.33875,0 l -1.65125,-0.31875 c -0.115,0 -0.225,-0.08 -0.3375,-0.11875 l -1.315,-0.9175 c -0.075,-0.08 -0.15,-0.16125 -0.225,-0.23875 l -0.9,-1.3175 c -0.0762,-0.11875 -0.11375,-0.2375 -0.15125,-0.36 l -0.3375,-1.59125 c -0.0375,-0.16 -0.0375,-0.28125 0,-0.44125 l 0.3375,-1.6325 c 0.0375,-0.12375 0.075,-0.24 0.15125,-0.35875 l 0.9,-1.31625 c 0.075,-0.08 0.15,-0.1625 0.26375,-0.24 l 1.3125,-0.8775 c 0.0762,-0.0375 0.18625,-0.12125 0.30125,-0.12125 l 1.65125,-0.3175 c 0.1125,-0.0413 0.225,-0.0413 0.33875,0 l 1.65,0.3175 c 0.1125,0 0.22625,0.0837 0.30125,0.12125 l 1.3125,0.8775 c 0.11375,0.0775 0.18875,0.16 0.2625,0.24 l 0.90125,1.31625 c 0.075,0.11875 0.11375,0.235 0.15125,0.35875 l 0.3375,1.6325 z"
       style="fill:#110f0d;fill-opacity:1;fill-rule:nonzero;stroke:none"
       id="path450"
       inkscape:connector-curvature="0" />
    <path
       inkscape:connector-curvature="0"
       id="path454"
       style="fill:none;stroke:#110f0d;stroke-width:0.0775;stroke-linecap:butt;stroke-linejoin:round;stroke-miterlimit:10;stroke-opacity:1;stroke-dasharray:none"
       d="m 454.88604,468.30493 0.14875,0.35875 -0.90125,-1.31625 0.2625,0.24 -1.3125,-0.87625 0.3,0.1175 -1.65125,-0.3175 0.33875,0 -1.6525,0.3175 0.3,-0.1175 -1.31375,0.87625 0.26375,-0.24 -0.9025,1.31625 0.15125,-0.35875 -0.33875,1.63625 0,-0.44125 0.33875,1.59625 -0.15125,-0.36 0.9025,1.31875 -0.225,-0.24125 1.3125,0.9175 -0.3375,-0.11875 1.6525,0.3175 -0.33875,0 1.65125,-0.3175 -0.3375,0.11875 1.31375,-0.9175 -0.22625,0.24125 0.90125,-1.31875 -0.14875,0.36 0.3375,-1.59625 0,0.44125 -0.3375,-1.63625 z m 2.10125,1.195 c 0.0375,0.16 0.0375,0.28125 0,0.44125 l -0.3375,1.59125 c -0.0375,0.1225 -0.0763,0.24125 -0.15125,0.36 l -0.90125,1.3175 c -0.0738,0.0775 -0.14875,0.15875 -0.225,0.23875 l -1.3125,0.9175 c -0.1125,0.0387 -0.22625,0.11875 -0.33875,0.11875 l -1.65,0.31875 c -0.11375,0.04 -0.22625,0.04 -0.33875,0 l -1.65125,-0.31875 c -0.115,0 -0.225,-0.08 -0.3375,-0.11875 l -1.315,-0.9175 c -0.075,-0.08 -0.15,-0.16125 -0.225,-0.23875 l -0.9,-1.3175 c -0.0762,-0.11875 -0.11375,-0.2375 -0.15125,-0.36 l -0.3375,-1.59125 c -0.0375,-0.16 -0.0375,-0.28125 0,-0.44125 l 0.3375,-1.6325 c 0.0375,-0.12375 0.075,-0.24 0.15125,-0.35875 l 0.9,-1.31625 c 0.075,-0.08 0.15,-0.1625 0.26375,-0.24 l 1.3125,-0.8775 c 0.0762,-0.0375 0.18625,-0.12125 0.30125,-0.12125 l 1.65125,-0.3175 c 0.1125,-0.0413 0.225,-0.0413 0.33875,0 l 1.65,0.3175 c 0.1125,0 0.22625,0.0837 0.30125,0.12125 l 1.3125,0.8775 c 0.11375,0.0775 0.18875,0.16 0.2625,0.24 l 0.90125,1.31625 c 0.075,0.11875 0.11375,0.235 0.15125,0.35875 l 0.3375,1.6325 z" />
    <path
       d="m 456.10616,469.71856 c 0,2.275 -1.8775,4.14625 -4.20625,4.14625 -2.32625,0 -4.20375,-1.87125 -4.20375,-4.14625 0,-2.3125 1.8775,-4.145 4.20375,-4.145 2.32875,0 4.20625,1.8325 4.20625,4.145"
       style="fill:#110f0d;fill-opacity:1;fill-rule:nonzero;stroke:none"
       id="path456"
       inkscape:connector-curvature="0" />
    <path
       d="m 393.53229,529.01181 0.14875,0.35875 -0.90125,-1.31625 0.2625,0.24 -1.3125,-0.87625 0.3,0.11875 -1.65125,-0.31875 0.33875,0 -1.6525,0.31875 0.3,-0.11875 -1.31375,0.87625 0.26375,-0.24 -0.9025,1.31625 0.15125,-0.35875 -0.33875,1.63625 0,-0.44125 0.33875,1.59625 -0.15125,-0.36 0.9025,1.31875 -0.225,-0.24125 1.3125,0.9175 -0.3375,-0.11875 1.6525,0.3175 -0.33875,0 1.65125,-0.3175 -0.3375,0.11875 1.31375,-0.9175 -0.22625,0.24125 0.90125,-1.31875 -0.14875,0.36 0.3375,-1.59625 0,0.44125 -0.3375,-1.63625 z m 2.10125,1.195 c 0.0375,0.16 0.0375,0.28125 0,0.44125 l -0.3375,1.59125 c -0.0375,0.1225 -0.0762,0.24125 -0.15125,0.36 l -0.90125,1.3175 c -0.0738,0.0763 -0.14875,0.16 -0.225,0.23875 l -1.3125,0.9175 c -0.1125,0.0388 -0.22625,0.12 -0.33875,0.12 l -1.65,0.3175 c -0.11375,0.04 -0.22625,0.04 -0.33875,0 l -1.65125,-0.3175 c -0.115,0 -0.225,-0.0812 -0.3375,-0.12 l -1.315,-0.9175 c -0.075,-0.0787 -0.15,-0.1625 -0.225,-0.23875 l -0.9,-1.3175 c -0.0763,-0.11875 -0.11375,-0.2375 -0.15125,-0.36 l -0.3375,-1.59125 c -0.0375,-0.16 -0.0375,-0.28125 0,-0.44125 l 0.3375,-1.6325 c 0.0375,-0.1225 0.075,-0.24 0.15125,-0.35875 l 0.9,-1.31625 c 0.075,-0.08 0.15,-0.1625 0.26375,-0.24 l 1.3125,-0.8775 c 0.0763,-0.0375 0.18625,-0.12 0.30125,-0.12 l 1.65125,-0.31875 c 0.1125,-0.0413 0.225,-0.0413 0.33875,0 l 1.65,0.31875 c 0.1125,0 0.22625,0.0825 0.30125,0.12 l 1.3125,0.8775 c 0.11375,0.0775 0.18875,0.16 0.2625,0.24 l 0.90125,1.31625 c 0.075,0.11875 0.11375,0.23625 0.15125,0.35875 l 0.3375,1.6325 z"
       style="fill:#110f0d;fill-opacity:1;fill-rule:nonzero;stroke:none"
       id="path458"
       inkscape:connector-curvature="0" />
    <path
       inkscape:connector-curvature="0"
       id="path462"
       style="fill:none;stroke:#110f0d;stroke-width:0.0775;stroke-linecap:butt;stroke-linejoin:round;stroke-miterlimit:10;stroke-opacity:1;stroke-dasharray:none"
       d="m 393.53229,529.01181 0.14875,0.35875 -0.90125,-1.31625 0.2625,0.24 -1.3125,-0.87625 0.3,0.11875 -1.65125,-0.31875 0.33875,0 -1.6525,0.31875 0.3,-0.11875 -1.31375,0.87625 0.26375,-0.24 -0.9025,1.31625 0.15125,-0.35875 -0.33875,1.63625 0,-0.44125 0.33875,1.59625 -0.15125,-0.36 0.9025,1.31875 -0.225,-0.24125 1.3125,0.9175 -0.3375,-0.11875 1.6525,0.3175 -0.33875,0 1.65125,-0.3175 -0.3375,0.11875 1.31375,-0.9175 -0.22625,0.24125 0.90125,-1.31875 -0.14875,0.36 0.3375,-1.59625 0,0.44125 -0.3375,-1.63625 z m 2.10125,1.195 c 0.0375,0.16 0.0375,0.28125 0,0.44125 l -0.3375,1.59125 c -0.0375,0.1225 -0.0762,0.24125 -0.15125,0.36 l -0.90125,1.3175 c -0.0738,0.0763 -0.14875,0.16 -0.225,0.23875 l -1.3125,0.9175 c -0.1125,0.0388 -0.22625,0.12 -0.33875,0.12 l -1.65,0.3175 c -0.11375,0.04 -0.22625,0.04 -0.33875,0 l -1.65125,-0.3175 c -0.115,0 -0.225,-0.0812 -0.3375,-0.12 l -1.315,-0.9175 c -0.075,-0.0787 -0.15,-0.1625 -0.225,-0.23875 l -0.9,-1.3175 c -0.0763,-0.11875 -0.11375,-0.2375 -0.15125,-0.36 l -0.3375,-1.59125 c -0.0375,-0.16 -0.0375,-0.28125 0,-0.44125 l 0.3375,-1.6325 c 0.0375,-0.1225 0.075,-0.24 0.15125,-0.35875 l 0.9,-1.31625 c 0.075,-0.08 0.15,-0.1625 0.26375,-0.24 l 1.3125,-0.8775 c 0.0763,-0.0375 0.18625,-0.12 0.30125,-0.12 l 1.65125,-0.31875 c 0.1125,-0.0413 0.225,-0.0413 0.33875,0 l 1.65,0.31875 c 0.1125,0 0.22625,0.0825 0.30125,0.12 l 1.3125,0.8775 c 0.11375,0.0775 0.18875,0.16 0.2625,0.24 l 0.90125,1.31625 c 0.075,0.11875 0.11375,0.23625 0.15125,0.35875 l 0.3375,1.6325 z" />
    <path
       d="m 394.75241,530.42531 c 0,2.275 -1.8775,4.14625 -4.20625,4.14625 -2.32625,0 -4.20375,-1.87125 -4.20375,-4.14625 0,-2.3125 1.8775,-4.145 4.20375,-4.145 2.32875,0 4.20625,1.8325 4.20625,4.145"
       style="fill:#110f0d;fill-opacity:1;fill-rule:nonzero;stroke:none"
       id="path464"
       inkscape:connector-curvature="0" />
    <path
       d="m 424.23729,503.06943 0.14875,0.35875 -0.90125,-1.31625 0.2625,0.24 -1.3125,-0.87625 0.3,0.1175 -1.65125,-0.3175 0.33875,0 -1.6525,0.3175 0.3,-0.1175 -1.31375,0.87625 0.26375,-0.24 -0.9025,1.31625 0.15125,-0.35875 -0.33875,1.63625 0,-0.44125 0.33875,1.59625 -0.15125,-0.36 0.9025,1.31875 -0.225,-0.24125 1.3125,0.9175 -0.3375,-0.11875 1.6525,0.3175 -0.33875,0 1.65125,-0.3175 -0.3375,0.11875 1.31375,-0.9175 -0.22625,0.24125 0.90125,-1.31875 -0.14875,0.36 0.3375,-1.59625 0,0.44125 -0.3375,-1.63625 z m 2.10125,1.195 c 0.0375,0.16 0.0375,0.28125 0,0.44125 l -0.3375,1.59125 c -0.0375,0.1225 -0.0763,0.24125 -0.15125,0.36 l -0.90125,1.3175 c -0.0737,0.0775 -0.14875,0.16 -0.225,0.2375 l -1.3125,0.91875 c -0.1125,0.0387 -0.22625,0.11875 -0.33875,0.11875 l -1.65,0.31875 c -0.11375,0.04 -0.22625,0.04 -0.33875,0 l -1.65125,-0.31875 c -0.11625,0 -0.225,-0.08 -0.3375,-0.11875 l -1.315,-0.91875 c -0.075,-0.0775 -0.15,-0.16 -0.225,-0.2375 l -0.9,-1.3175 c -0.0763,-0.11875 -0.11375,-0.2375 -0.1525,-0.36 l -0.33625,-1.59125 c -0.0375,-0.16 -0.0375,-0.28125 0,-0.44125 l 0.33625,-1.6325 c 0.0387,-0.1225 0.0762,-0.24 0.1525,-0.35875 l 0.9,-1.31625 c 0.075,-0.08 0.15,-0.1625 0.26375,-0.24 l 1.3125,-0.8775 c 0.0762,-0.0375 0.185,-0.12125 0.30125,-0.12125 l 1.65125,-0.3175 c 0.1125,-0.0425 0.225,-0.0425 0.33875,0 l 1.65,0.3175 c 0.1125,0 0.22625,0.0838 0.30125,0.12125 l 1.3125,0.8775 c 0.11375,0.0775 0.18875,0.16 0.2625,0.24 l 0.90125,1.31625 c 0.075,0.11875 0.11375,0.23625 0.15125,0.35875 l 0.3375,1.6325 z"
       style="fill:#110f0d;fill-opacity:1;fill-rule:nonzero;stroke:none"
       id="path466"
       inkscape:connector-curvature="0" />
    <path
       inkscape:connector-curvature="0"
       id="path470"
       style="fill:none;stroke:#110f0d;stroke-width:0.0775;stroke-linecap:butt;stroke-linejoin:round;stroke-miterlimit:10;stroke-opacity:1;stroke-dasharray:none"
       d="m 424.23729,503.06943 0.14875,0.35875 -0.90125,-1.31625 0.2625,0.24 -1.3125,-0.87625 0.3,0.1175 -1.65125,-0.3175 0.33875,0 -1.6525,0.3175 0.3,-0.1175 -1.31375,0.87625 0.26375,-0.24 -0.9025,1.31625 0.15125,-0.35875 -0.33875,1.63625 0,-0.44125 0.33875,1.59625 -0.15125,-0.36 0.9025,1.31875 -0.225,-0.24125 1.3125,0.9175 -0.3375,-0.11875 1.6525,0.3175 -0.33875,0 1.65125,-0.3175 -0.3375,0.11875 1.31375,-0.9175 -0.22625,0.24125 0.90125,-1.31875 -0.14875,0.36 0.3375,-1.59625 0,0.44125 -0.3375,-1.63625 z m 2.10125,1.195 c 0.0375,0.16 0.0375,0.28125 0,0.44125 l -0.3375,1.59125 c -0.0375,0.1225 -0.0763,0.24125 -0.15125,0.36 l -0.90125,1.3175 c -0.0737,0.0775 -0.14875,0.16 -0.225,0.2375 l -1.3125,0.91875 c -0.1125,0.0387 -0.22625,0.11875 -0.33875,0.11875 l -1.65,0.31875 c -0.11375,0.04 -0.22625,0.04 -0.33875,0 l -1.65125,-0.31875 c -0.11625,0 -0.225,-0.08 -0.3375,-0.11875 l -1.315,-0.91875 c -0.075,-0.0775 -0.15,-0.16 -0.225,-0.2375 l -0.9,-1.3175 c -0.0763,-0.11875 -0.11375,-0.2375 -0.1525,-0.36 l -0.33625,-1.59125 c -0.0375,-0.16 -0.0375,-0.28125 0,-0.44125 l 0.33625,-1.6325 c 0.0387,-0.1225 0.0762,-0.24 0.1525,-0.35875 l 0.9,-1.31625 c 0.075,-0.08 0.15,-0.1625 0.26375,-0.24 l 1.3125,-0.8775 c 0.0762,-0.0375 0.185,-0.12125 0.30125,-0.12125 l 1.65125,-0.3175 c 0.1125,-0.0425 0.225,-0.0425 0.33875,0 l 1.65,0.3175 c 0.1125,0 0.22625,0.0838 0.30125,0.12125 l 1.3125,0.8775 c 0.11375,0.0775 0.18875,0.16 0.2625,0.24 l 0.90125,1.31625 c 0.075,0.11875 0.11375,0.23625 0.15125,0.35875 l 0.3375,1.6325 z" />
    <path
       d="m 425.45741,504.48293 c 0,2.275 -1.8775,4.1475 -4.20625,4.1475 -2.32625,0 -4.20375,-1.8725 -4.20375,-4.1475 0,-2.3125 1.8775,-4.145 4.20375,-4.145 2.32875,0 4.20625,1.8325 4.20625,4.145"
       style="fill:#110f0d;fill-opacity:1;fill-rule:nonzero;stroke:none"
       id="path472"
       inkscape:connector-curvature="0" />
    <path
       d="m 454.90504,544.45118 0.14875,0.35875 -0.9,-1.31625 0.2625,0.24 -1.31375,-0.87625 0.3,0.1175 -1.65125,-0.3175 0.33875,0 -1.6525,0.3175 0.3,-0.1175 -1.31375,0.87625 0.26375,-0.24 -0.9025,1.31625 0.15125,-0.35875 -0.33875,1.63625 0,-0.44125 0.33875,1.59625 -0.15125,-0.36 0.9025,1.31875 -0.225,-0.24125 1.3125,0.9175 -0.3375,-0.11875 1.6525,0.3175 -0.33875,0 1.65125,-0.3175 -0.3375,0.11875 1.31375,-0.9175 -0.225,0.24125 0.9,-1.31875 -0.14875,0.36 0.3375,-1.59625 0,0.44125 -0.3375,-1.63625 z m 2.10125,1.195 c 0.0375,0.16 0.0375,0.28125 0,0.44125 l -0.3375,1.59125 c -0.0375,0.1225 -0.0762,0.24125 -0.15125,0.36 l -0.9,1.3175 c -0.075,0.0775 -0.15,0.15875 -0.22625,0.23875 l -1.3125,0.9175 c -0.1125,0.0387 -0.22625,0.11875 -0.3375,0.11875 l -1.65125,0.31875 c -0.11375,0.04 -0.225,0.04 -0.33875,0 l -1.65125,-0.31875 c -0.115,0 -0.225,-0.08 -0.3375,-0.11875 l -1.315,-0.9175 c -0.0737,-0.08 -0.15,-0.16125 -0.225,-0.23875 l -0.9,-1.3175 c -0.0762,-0.11875 -0.11375,-0.2375 -0.15125,-0.36 l -0.3375,-1.59125 c -0.0375,-0.16 -0.0375,-0.28125 0,-0.44125 l 0.3375,-1.6325 c 0.0375,-0.12375 0.075,-0.24 0.15125,-0.35875 l 0.9,-1.31625 c 0.075,-0.08 0.15125,-0.1625 0.26375,-0.24 l 1.3125,-0.8775 c 0.0763,-0.0375 0.18625,-0.12125 0.30125,-0.12125 l 1.65125,-0.3175 c 0.11375,-0.0413 0.225,-0.0413 0.33875,0 l 1.65125,0.3175 c 0.11125,0 0.225,0.0837 0.3,0.12125 l 1.31375,0.8775 c 0.1125,0.0775 0.1875,0.16 0.2625,0.24 l 0.9,1.31625 c 0.075,0.11875 0.11375,0.235 0.15125,0.35875 l 0.3375,1.6325 z"
       style="fill:#c01e24;fill-opacity:1;fill-rule:nonzero;stroke:none"
       id="path474"
       inkscape:connector-curvature="0" />
    <path
       d="m 456.12516,545.86481 c 0,2.275 -1.8775,4.14625 -4.205,4.14625 -2.3275,0 -4.205,-1.87125 -4.205,-4.14625 0,-2.3125 1.8775,-4.145 4.205,-4.145 2.3275,0 4.205,1.8325 4.205,4.145"
       style="fill:#c01e24;fill-opacity:1;fill-rule:nonzero;stroke:none"
       id="path476"
       inkscape:connector-curvature="0" />
    <path
       d="m 393.53229,583.96293 0.14875,0.35875 -0.90125,-1.31625 0.2625,0.24 -1.3125,-0.87625 0.3,0.1175 -1.65125,-0.3175 0.33875,0 -1.6525,0.3175 0.3,-0.1175 -1.31375,0.87625 0.26375,-0.24 -0.9025,1.31625 0.15125,-0.35875 -0.33875,1.63625 0,-0.44125 0.33875,1.5975 -0.15125,-0.36125 0.9025,1.31875 -0.225,-0.24125 1.3125,0.9175 -0.3375,-0.11875 1.6525,0.3175 -0.33875,0 1.65125,-0.3175 -0.3375,0.11875 1.31375,-0.9175 -0.22625,0.24125 0.90125,-1.31875 -0.14875,0.36125 0.3375,-1.5975 0,0.44125 -0.3375,-1.63625 z m 2.10125,1.195 c 0.0375,0.16 0.0375,0.28125 0,0.44125 l -0.3375,1.59125 c -0.0375,0.1225 -0.0762,0.24 -0.15125,0.36 l -0.90125,1.3175 c -0.0738,0.0775 -0.14875,0.16 -0.225,0.23875 l -1.3125,0.9175 c -0.1125,0.0387 -0.22625,0.11875 -0.33875,0.11875 l -1.65,0.31875 c -0.11375,0.04 -0.22625,0.04 -0.33875,0 l -1.65125,-0.31875 c -0.115,0 -0.225,-0.08 -0.3375,-0.11875 l -1.315,-0.9175 c -0.075,-0.0788 -0.15,-0.16125 -0.225,-0.23875 l -0.9,-1.3175 c -0.0763,-0.12 -0.11375,-0.2375 -0.15125,-0.36 l -0.3375,-1.59125 c -0.0375,-0.16 -0.0375,-0.28125 0,-0.44125 l 0.3375,-1.63375 c 0.0375,-0.12125 0.075,-0.23875 0.15125,-0.3575 l 0.9,-1.31625 c 0.075,-0.08 0.15,-0.1625 0.26375,-0.24 l 1.3125,-0.8775 c 0.0763,-0.0375 0.18625,-0.12125 0.30125,-0.12125 l 1.65125,-0.3175 c 0.1125,-0.0413 0.225,-0.0413 0.33875,0 l 1.65,0.3175 c 0.1125,0 0.22625,0.0838 0.30125,0.12125 l 1.3125,0.8775 c 0.11375,0.0775 0.18875,0.16 0.2625,0.24 l 0.90125,1.31625 c 0.075,0.11875 0.11375,0.23625 0.15125,0.3575 l 0.3375,1.63375 z"
       style="fill:#c01e24;fill-opacity:1;fill-rule:nonzero;stroke:none"
       id="path478"
       inkscape:connector-curvature="0" />
    <path
       d="m 394.75241,585.37656 c 0,2.275 -1.8775,4.14625 -4.20625,4.14625 -2.32625,0 -4.20375,-1.87125 -4.20375,-4.14625 0,-2.3125 1.8775,-4.145 4.20375,-4.145 2.32875,0 4.20625,1.8325 4.20625,4.145"
       style="fill:#c01e24;fill-opacity:1;fill-rule:nonzero;stroke:none"
       id="path480"
       inkscape:connector-curvature="0" />
    <path
       d="m 362.82741,615.46681 0.14875,0.35875 -0.9,-1.31625 0.26125,0.24 -1.3125,-0.87625 0.3,0.1175 -1.65125,-0.3175 0.33875,0 -1.6525,0.3175 0.3,-0.1175 -1.31375,0.87625 0.26375,-0.24 -0.9025,1.31625 0.15125,-0.35875 -0.33875,1.63625 0,-0.44125 0.33875,1.59625 -0.15125,-0.36 0.9025,1.31875 -0.225,-0.24125 1.3125,0.9175 -0.3375,-0.11875 1.6525,0.3175 -0.33875,0 1.65125,-0.3175 -0.3375,0.11875 1.31375,-0.9175 -0.225,0.24125 0.9,-1.31875 -0.14875,0.36 0.3375,-1.59625 0,0.44125 -0.3375,-1.63625 z m 2.10125,1.195 c 0.0375,0.16 0.0375,0.28125 0,0.44125 l -0.3375,1.59125 c -0.0375,0.1225 -0.0763,0.24125 -0.15125,0.36 l -0.90125,1.3175 c -0.0738,0.0775 -0.14875,0.16 -0.225,0.23875 l -1.3125,0.9175 c -0.1125,0.0387 -0.22625,0.11875 -0.33875,0.11875 l -1.65,0.31875 c -0.11375,0.04 -0.22625,0.04 -0.33875,0 l -1.65125,-0.31875 c -0.115,0 -0.225,-0.08 -0.3375,-0.11875 l -1.315,-0.9175 c -0.075,-0.0787 -0.15,-0.16125 -0.225,-0.23875 l -0.9,-1.3175 c -0.0763,-0.11875 -0.11375,-0.2375 -0.15125,-0.36 l -0.3375,-1.59125 c -0.0375,-0.16 -0.0375,-0.28125 0,-0.44125 l 0.3375,-1.6325 c 0.0375,-0.1225 0.075,-0.24 0.15125,-0.35875 l 0.9,-1.31625 c 0.075,-0.08 0.15,-0.1625 0.26375,-0.24 l 1.3125,-0.8775 c 0.0763,-0.0375 0.18625,-0.12125 0.30125,-0.12125 l 1.65125,-0.3175 c 0.1125,-0.0412 0.225,-0.0412 0.33875,0 l 1.65,0.3175 c 0.1125,0 0.22625,0.0838 0.30125,0.12125 l 1.3125,0.8775 c 0.11375,0.0775 0.18875,0.16 0.2625,0.24 l 0.90125,1.31625 c 0.075,0.11875 0.11375,0.23625 0.15125,0.35875 l 0.3375,1.6325 z"
       style="fill:#c01e24;fill-opacity:1;fill-rule:nonzero;stroke:none"
       id="path482"
       inkscape:connector-curvature="0" />
    <path
       d="m 364.04741,616.88043 c 0,2.275 -1.8775,4.14625 -4.20625,4.14625 -2.32625,0 -4.20375,-1.87125 -4.20375,-4.14625 0,-2.3125 1.8775,-4.145 4.20375,-4.145 2.32875,0 4.20625,1.8325 4.20625,4.145"
       style="fill:#c01e24;fill-opacity:1;fill-rule:nonzero;stroke:none"
       id="path484"
       inkscape:connector-curvature="0" />
    <text
       xml:space="preserve"
       style="font-size:20px;font-style:normal;font-variant:normal;font-weight:normal;font-stretch:normal;line-height:125%;letter-spacing:0px;word-spacing:0px;fill:#000000;fill-opacity:1;stroke:none;font-family:Arial;-inkscape-font-specification:Arial"
       x="-542.08136"
       y="313.27756"
       id="text5225"
       sodipodi:linespacing="125%"
       transform="matrix(0,-1,1,0,0,0)"><tspan
         sodipodi:role="line"
         id="tspan5227"
         x="-542.08136"
         y="313.27756"
         style="font-size:16px;font-weight:bold;-inkscape-font-specification:Arial Bold">(Δ gain)</tspan></text>
    <text
       style="font-size:15px"
       transform="matrix(0,-1,1,0,0,0)"
       id="text442"
       x="-518.56677"
       y="481.38293">
      <tspan
         style="font-size:15px;font-variant:normal;font-weight:normal;writing-mode:lr-tb;fill:#231f20;fill-opacity:1;fill-rule:nonzero;stroke:none;font-family:SimSun;-inkscape-font-specification:SimSun"
         x="-518.56677 -511.06674 -503.56674"
         y="481.38293"
         sodipodi:role="line"
         id="tspan444">* *</tspan>
    </text>
  </g>
</svg>
