<?xml version="1.0" encoding="UTF-8" standalone="no"?>
<!-- Created with Inkscape (http://www.inkscape.org/) -->

<svg
   xmlns:dc="http://purl.org/dc/elements/1.1/"
   xmlns:cc="http://creativecommons.org/ns#"
   xmlns:rdf="http://www.w3.org/1999/02/22-rdf-syntax-ns#"
   xmlns:svg="http://www.w3.org/2000/svg"
   xmlns="http://www.w3.org/2000/svg"
   xmlns:sodipodi="http://sodipodi.sourceforge.net/DTD/sodipodi-0.dtd"
   xmlns:inkscape="http://www.inkscape.org/namespaces/inkscape"
   id="svg2"
   version="1.1"
   inkscape:version="0.48.4 r9939"
   width="860"
   height="865"
   xml:space="preserve"
   sodipodi:docname="pooled_scarce_learnS.eps"><metadata
     id="metadata8"><rdf:RDF><cc:Work
         rdf:about=""><dc:format>image/svg+xml</dc:format><dc:type
           rdf:resource="http://purl.org/dc/dcmitype/StillImage" /><dc:title></dc:title></cc:Work></rdf:RDF></metadata><defs
     id="defs6"><clipPath
       clipPathUnits="userSpaceOnUse"
       id="clipPath164"><path
         d="m 1097.5,6777.5 0,-6113.332 5689.17,0 0,6113.332 -5689.17,0 z"
         id="path166" /></clipPath><clipPath
       clipPathUnits="userSpaceOnUse"
       id="clipPath236"><path
         d="m 1606.67,6603.34 0,-1180.84 1872.5,0 0,1180.84 -1872.5,0 z"
         id="path238" /></clipPath><clipPath
       clipPathUnits="userSpaceOnUse"
       id="clipPath268"><path
         d="m 1606.67,6603.34 0,-1180.84 1872.5,0 0,1180.84 -1872.5,0 z"
         id="path270" /></clipPath><clipPath
       clipPathUnits="userSpaceOnUse"
       id="clipPath284"><path
         d="m 1606.67,6603.34 0,-1180.84 1872.5,0 0,1180.84 -1872.5,0 z"
         id="path286" /></clipPath><clipPath
       clipPathUnits="userSpaceOnUse"
       id="clipPath316"><path
         d="m 1606.67,6603.34 0,-1180.84 1872.5,0 0,1180.84 -1872.5,0 z"
         id="path318" /></clipPath></defs><sodipodi:namedview
     pagecolor="#ffffff"
     bordercolor="#666666"
     borderopacity="1"
     objecttolerance="10"
     gridtolerance="10"
     guidetolerance="10"
     inkscape:pageopacity="0"
     inkscape:pageshadow="2"
     inkscape:window-width="2560"
     inkscape:window-height="1538"
     id="namedview4"
     showgrid="true"
     inkscape:zoom="1.439782"
     inkscape:cx="360.34839"
     inkscape:cy="458.75"
     inkscape:window-x="-8"
     inkscape:window-y="-8"
     inkscape:window-maximized="1"
     inkscape:current-layer="g10"><inkscape:grid
       type="xygrid"
       id="grid4294" /></sodipodi:namedview><g
     id="g10"
     inkscape:groupmode="layer"
     inkscape:label="ink_ext_XXXXXX"
     transform="matrix(1.25,0,0,-1.25,0,865)"><path
       inkscape:connector-curvature="0"
       id="path14"
       style="fill:#ffffff;fill-opacity:1;fill-rule:nonzero;stroke:none"
       d="m 0,0 749.917,0 0,734 L 0,734 0,0 z" /><path
       inkscape:connector-curvature="0"
       id="path16"
       style="fill:#ffffff;fill-opacity:1;fill-rule:evenodd;stroke:none"
       d="m 109.75,66.5 568.833,0 0,611.25 -568.833,0 0,-611.25 z" /><path
       inkscape:connector-curvature="0"
       id="path18"
       style="fill:none;stroke:#ffffff;stroke-width:0.5;stroke-linecap:butt;stroke-linejoin:round;stroke-miterlimit:10;stroke-opacity:1;stroke-dasharray:none"
       d="m 109.75,66.5 0,611.25 568.833,0 0,-611.25 -568.833,0" /><path
       inkscape:connector-curvature="0"
       id="path20"
       style="fill:none;stroke:#000000;stroke-width:0.5;stroke-linecap:butt;stroke-linejoin:round;stroke-miterlimit:10;stroke-opacity:1;stroke-dasharray:none"
       d="m 109.75,677.75 568.833,0" /><path
       inkscape:connector-curvature="0"
       id="path22"
       style="fill:none;stroke:#000000;stroke-width:0.5;stroke-linecap:butt;stroke-linejoin:round;stroke-miterlimit:10;stroke-opacity:1;stroke-dasharray:none"
       d="m 109.75,66.5 568.833,0" /><path
       inkscape:connector-curvature="0"
       id="path24"
       style="fill:none;stroke:#000000;stroke-width:0.5;stroke-linecap:butt;stroke-linejoin:round;stroke-miterlimit:10;stroke-opacity:1;stroke-dasharray:none"
       d="m 678.583,66.5 0,611.25" /><path
       inkscape:connector-curvature="0"
       id="path26"
       style="fill:none;stroke:#000000;stroke-width:0.5;stroke-linecap:butt;stroke-linejoin:round;stroke-miterlimit:10;stroke-opacity:1;stroke-dasharray:none"
       d="m 109.75,66.5 0,611.25" /><path
       inkscape:connector-curvature="0"
       id="path28"
       style="fill:none;stroke:#000000;stroke-width:0.5;stroke-linecap:butt;stroke-linejoin:round;stroke-miterlimit:10;stroke-opacity:1;stroke-dasharray:none"
       d="m 109.75,66.5 568.833,0" /><path
       inkscape:connector-curvature="0"
       id="path30"
       style="fill:none;stroke:#000000;stroke-width:0.5;stroke-linecap:butt;stroke-linejoin:round;stroke-miterlimit:10;stroke-opacity:1;stroke-dasharray:none"
       d="m 109.75,66.5 0,611.25" /><path
       inkscape:connector-curvature="0"
       id="path32"
       style="fill:none;stroke:#000000;stroke-width:0.5;stroke-linecap:butt;stroke-linejoin:round;stroke-miterlimit:10;stroke-opacity:1;stroke-dasharray:none"
       d="m 109.75,66.5 0,6.1668" /><path
       inkscape:connector-curvature="0"
       id="path34"
       style="fill:none;stroke:#000000;stroke-width:0.5;stroke-linecap:butt;stroke-linejoin:round;stroke-miterlimit:10;stroke-opacity:1;stroke-dasharray:none"
       d="m 109.75,677.75 0,-6.083" /><text
       transform="scale(1,-1)"
       id="text38"
       x="104.25"
       y="-45.083199"><tspan
         style="font-size:20px;font-variant:normal;font-weight:normal;writing-mode:lr-tb;fill:#000000;fill-opacity:1;fill-rule:nonzero;stroke:none;font-family:Helvetica;-inkscape-font-specification:Helvetica"
         x="104.25"
         y="-45.083199"
         id="tspan40">0</tspan></text>
<path
       inkscape:connector-curvature="0"
       id="path42"
       style="fill:none;stroke:#000000;stroke-width:0.5;stroke-linecap:butt;stroke-linejoin:round;stroke-miterlimit:10;stroke-opacity:1;stroke-dasharray:none"
       d="m 223.5,66.5 0,6.1668" /><path
       inkscape:connector-curvature="0"
       id="path44"
       style="fill:none;stroke:#000000;stroke-width:0.5;stroke-linecap:butt;stroke-linejoin:round;stroke-miterlimit:10;stroke-opacity:1;stroke-dasharray:none"
       d="m 223.5,677.75 0,-6.083" /><text
       transform="scale(1,-1)"
       id="text48"
       x="218"
       y="-45.083199"><tspan
         style="font-size:20px;font-variant:normal;font-weight:normal;writing-mode:lr-tb;fill:#000000;fill-opacity:1;fill-rule:nonzero;stroke:none;font-family:Helvetica;-inkscape-font-specification:Helvetica"
         x="218"
         y="-45.083199"
         id="tspan50">1</tspan></text>
<path
       inkscape:connector-curvature="0"
       id="path52"
       style="fill:none;stroke:#000000;stroke-width:0.5;stroke-linecap:butt;stroke-linejoin:round;stroke-miterlimit:10;stroke-opacity:1;stroke-dasharray:none"
       d="m 337.25,66.5 0,6.1668" /><path
       inkscape:connector-curvature="0"
       id="path54"
       style="fill:none;stroke:#000000;stroke-width:0.5;stroke-linecap:butt;stroke-linejoin:round;stroke-miterlimit:10;stroke-opacity:1;stroke-dasharray:none"
       d="m 337.25,677.75 0,-6.083" /><text
       transform="scale(1,-1)"
       id="text58"
       x="331.75"
       y="-45.083199"><tspan
         style="font-size:20px;font-variant:normal;font-weight:normal;writing-mode:lr-tb;fill:#000000;fill-opacity:1;fill-rule:nonzero;stroke:none;font-family:Helvetica;-inkscape-font-specification:Helvetica"
         x="331.75"
         y="-45.083199"
         id="tspan60">2</tspan></text>
<path
       inkscape:connector-curvature="0"
       id="path62"
       style="fill:none;stroke:#000000;stroke-width:0.5;stroke-linecap:butt;stroke-linejoin:round;stroke-miterlimit:10;stroke-opacity:1;stroke-dasharray:none"
       d="m 451,66.5 0,6.1668" /><path
       inkscape:connector-curvature="0"
       id="path64"
       style="fill:none;stroke:#000000;stroke-width:0.5;stroke-linecap:butt;stroke-linejoin:round;stroke-miterlimit:10;stroke-opacity:1;stroke-dasharray:none"
       d="m 451,677.75 0,-6.083" /><text
       transform="scale(1,-1)"
       id="text68"
       x="445.5"
       y="-45.083199"><tspan
         style="font-size:20px;font-variant:normal;font-weight:normal;writing-mode:lr-tb;fill:#000000;fill-opacity:1;fill-rule:nonzero;stroke:none;font-family:Helvetica;-inkscape-font-specification:Helvetica"
         x="445.5"
         y="-45.083199"
         id="tspan70">3</tspan></text>
<path
       inkscape:connector-curvature="0"
       id="path72"
       style="fill:none;stroke:#000000;stroke-width:0.5;stroke-linecap:butt;stroke-linejoin:round;stroke-miterlimit:10;stroke-opacity:1;stroke-dasharray:none"
       d="m 564.75,66.5 0,6.1668" /><path
       inkscape:connector-curvature="0"
       id="path74"
       style="fill:none;stroke:#000000;stroke-width:0.5;stroke-linecap:butt;stroke-linejoin:round;stroke-miterlimit:10;stroke-opacity:1;stroke-dasharray:none"
       d="m 564.75,677.75 0,-6.083" /><text
       transform="scale(1,-1)"
       id="text78"
       x="559.25"
       y="-45.083199"><tspan
         style="font-size:20px;font-variant:normal;font-weight:normal;writing-mode:lr-tb;fill:#000000;fill-opacity:1;fill-rule:nonzero;stroke:none;font-family:Helvetica;-inkscape-font-specification:Helvetica"
         x="559.25"
         y="-45.083199"
         id="tspan80">4</tspan></text>
<path
       inkscape:connector-curvature="0"
       id="path82"
       style="fill:none;stroke:#000000;stroke-width:0.5;stroke-linecap:butt;stroke-linejoin:round;stroke-miterlimit:10;stroke-opacity:1;stroke-dasharray:none"
       d="m 678.583,66.5 0,6.1668" /><path
       inkscape:connector-curvature="0"
       id="path84"
       style="fill:none;stroke:#000000;stroke-width:0.5;stroke-linecap:butt;stroke-linejoin:round;stroke-miterlimit:10;stroke-opacity:1;stroke-dasharray:none"
       d="m 678.583,677.75 0,-6.083" /><text
       transform="scale(1,-1)"
       id="text88"
       x="673.08301"
       y="-45.083199"><tspan
         style="font-size:20px;font-variant:normal;font-weight:normal;writing-mode:lr-tb;fill:#000000;fill-opacity:1;fill-rule:nonzero;stroke:none;font-family:Helvetica;-inkscape-font-specification:Helvetica"
         x="673.08301"
         y="-45.083199"
         id="tspan90">5</tspan></text>
<path
       inkscape:connector-curvature="0"
       id="path92"
       style="fill:none;stroke:#000000;stroke-width:0.5;stroke-linecap:butt;stroke-linejoin:round;stroke-miterlimit:10;stroke-opacity:1;stroke-dasharray:none"
       d="m 109.75,66.5 6.083,0" /><path
       inkscape:connector-curvature="0"
       id="path94"
       style="fill:none;stroke:#000000;stroke-width:0.5;stroke-linecap:butt;stroke-linejoin:round;stroke-miterlimit:10;stroke-opacity:1;stroke-dasharray:none"
       d="m 678.583,66.5 -6.166,0" /><text
       transform="scale(1,-1)"
       id="text98"
       x="95.75"
       y="-59.083199"><tspan
         style="font-size:20px;font-variant:normal;font-weight:normal;writing-mode:lr-tb;fill:#000000;fill-opacity:1;fill-rule:nonzero;stroke:none;font-family:Helvetica;-inkscape-font-specification:Helvetica"
         x="95.75"
         y="-59.083199"
         id="tspan100">0</tspan></text>
<path
       inkscape:connector-curvature="0"
       id="path102"
       style="fill:none;stroke:#000000;stroke-width:0.5;stroke-linecap:butt;stroke-linejoin:round;stroke-miterlimit:10;stroke-opacity:1;stroke-dasharray:none"
       d="m 109.75,188.75 6.083,0" /><path
       inkscape:connector-curvature="0"
       id="path104"
       style="fill:none;stroke:#000000;stroke-width:0.5;stroke-linecap:butt;stroke-linejoin:round;stroke-miterlimit:10;stroke-opacity:1;stroke-dasharray:none"
       d="m 678.583,188.75 -6.166,0" /><text
       transform="scale(1,-1)"
       id="text108"
       x="56.833199"
       y="-181.33299"><tspan
         style="font-size:20px;font-variant:normal;font-weight:normal;writing-mode:lr-tb;fill:#000000;fill-opacity:1;fill-rule:nonzero;stroke:none;font-family:Helvetica;-inkscape-font-specification:Helvetica"
         x="56.833199 67.953201 73.513199 84.633202 95.753197"
         y="-181.33299"
         sodipodi:role="line"
         id="tspan110">0.005</tspan></text>
<path
       inkscape:connector-curvature="0"
       id="path112"
       style="fill:none;stroke:#000000;stroke-width:0.5;stroke-linecap:butt;stroke-linejoin:round;stroke-miterlimit:10;stroke-opacity:1;stroke-dasharray:none"
       d="m 109.75,311 6.083,0" /><path
       inkscape:connector-curvature="0"
       id="path114"
       style="fill:none;stroke:#000000;stroke-width:0.5;stroke-linecap:butt;stroke-linejoin:round;stroke-miterlimit:10;stroke-opacity:1;stroke-dasharray:none"
       d="m 678.583,311 -6.166,0" /><text
       transform="scale(1,-1)"
       id="text118"
       x="67.916801"
       y="-303.58301"><tspan
         style="font-size:20px;font-variant:normal;font-weight:normal;writing-mode:lr-tb;fill:#000000;fill-opacity:1;fill-rule:nonzero;stroke:none;font-family:Helvetica;-inkscape-font-specification:Helvetica"
         x="67.916801 79.036797 84.596802 95.716797"
         y="-303.58301"
         sodipodi:role="line"
         id="tspan120">0.01</tspan></text>
<path
       inkscape:connector-curvature="0"
       id="path122"
       style="fill:none;stroke:#000000;stroke-width:0.5;stroke-linecap:butt;stroke-linejoin:round;stroke-miterlimit:10;stroke-opacity:1;stroke-dasharray:none"
       d="m 109.75,433.25 6.083,0" /><path
       inkscape:connector-curvature="0"
       id="path124"
       style="fill:none;stroke:#000000;stroke-width:0.5;stroke-linecap:butt;stroke-linejoin:round;stroke-miterlimit:10;stroke-opacity:1;stroke-dasharray:none"
       d="m 678.583,433.25 -6.166,0" /><text
       transform="scale(1,-1)"
       id="text128"
       x="56.833199"
       y="-425.83401"><tspan
         style="font-size:20px;font-variant:normal;font-weight:normal;writing-mode:lr-tb;fill:#000000;fill-opacity:1;fill-rule:nonzero;stroke:none;font-family:Helvetica;-inkscape-font-specification:Helvetica"
         x="56.833199 67.953201 73.513199 84.633202 95.753197"
         y="-425.83401"
         sodipodi:role="line"
         id="tspan130">0.015</tspan></text>
<path
       inkscape:connector-curvature="0"
       id="path132"
       style="fill:none;stroke:#000000;stroke-width:0.5;stroke-linecap:butt;stroke-linejoin:round;stroke-miterlimit:10;stroke-opacity:1;stroke-dasharray:none"
       d="m 109.75,555.5 6.083,0" /><path
       inkscape:connector-curvature="0"
       id="path134"
       style="fill:none;stroke:#000000;stroke-width:0.5;stroke-linecap:butt;stroke-linejoin:round;stroke-miterlimit:10;stroke-opacity:1;stroke-dasharray:none"
       d="m 678.583,555.5 -6.166,0" /><text
       transform="scale(1,-1)"
       id="text138"
       x="67.916801"
       y="-548.08398"><tspan
         style="font-size:20px;font-variant:normal;font-weight:normal;writing-mode:lr-tb;fill:#000000;fill-opacity:1;fill-rule:nonzero;stroke:none;font-family:Helvetica;-inkscape-font-specification:Helvetica"
         x="67.916801 79.036797 84.596802 95.716797"
         y="-548.08398"
         sodipodi:role="line"
         id="tspan140">0.02</tspan></text>
<path
       inkscape:connector-curvature="0"
       id="path142"
       style="fill:none;stroke:#000000;stroke-width:0.5;stroke-linecap:butt;stroke-linejoin:round;stroke-miterlimit:10;stroke-opacity:1;stroke-dasharray:none"
       d="m 109.75,677.75 6.083,0" /><path
       inkscape:connector-curvature="0"
       id="path144"
       style="fill:none;stroke:#000000;stroke-width:0.5;stroke-linecap:butt;stroke-linejoin:round;stroke-miterlimit:10;stroke-opacity:1;stroke-dasharray:none"
       d="m 678.583,677.75 -6.166,0" /><text
       transform="scale(1,-1)"
       id="text148"
       x="56.833199"
       y="-670.33398"><tspan
         style="font-size:20px;font-variant:normal;font-weight:normal;writing-mode:lr-tb;fill:#000000;fill-opacity:1;fill-rule:nonzero;stroke:none;font-family:Helvetica;-inkscape-font-specification:Helvetica"
         x="56.833199 67.953201 73.513199 84.633202 95.753197"
         y="-670.33398"
         sodipodi:role="line"
         id="tspan150">0.025</tspan></text>
<path
       inkscape:connector-curvature="0"
       id="path152"
       style="fill:none;stroke:#000000;stroke-width:0.5;stroke-linecap:butt;stroke-linejoin:round;stroke-miterlimit:10;stroke-opacity:1;stroke-dasharray:none"
       d="m 109.75,677.75 568.833,0" /><path
       inkscape:connector-curvature="0"
       id="path154"
       style="fill:none;stroke:#000000;stroke-width:0.5;stroke-linecap:butt;stroke-linejoin:round;stroke-miterlimit:10;stroke-opacity:1;stroke-dasharray:none"
       d="m 109.75,66.5 568.833,0" /><path
       inkscape:connector-curvature="0"
       id="path156"
       style="fill:none;stroke:#000000;stroke-width:0.5;stroke-linecap:butt;stroke-linejoin:round;stroke-miterlimit:10;stroke-opacity:1;stroke-dasharray:none"
       d="m 678.583,66.5 0,611.25" /><path
       inkscape:connector-curvature="0"
       id="path158"
       style="fill:none;stroke:#000000;stroke-width:0.5;stroke-linecap:butt;stroke-linejoin:round;stroke-miterlimit:10;stroke-opacity:1;stroke-dasharray:none"
       d="m 109.75,66.5 0,611.25" /><path
       inkscape:connector-curvature="0"
       id="path168"
       style="fill:none;stroke:#000000;stroke-width:4;stroke-linecap:butt;stroke-linejoin:round;stroke-miterlimit:10;stroke-opacity:1;stroke-dasharray:none"
       d="m 115.417,71.1668 5.666,4.6664 5.667,4.6668 5.75,4.6668 5.667,4.6664 5.666,4.6668 5.667,4.6668 5.75,4.6662 5.667,4.667 5.666,4.667 5.667,4.583 5.75,4.667 5.667,4.666 5.666,4.667 5.667,4.667 5.75,4.583 5.667,4.667 5.666,4.666 5.667,4.584 5.75,4.666 5.667,4.667 5.666,4.583 5.667,4.667 5.75,4.667 5.667,4.583 5.666,4.667 5.75,4.583 5.667,4.667 5.667,4.666 5.666,4.584 5.75,4.666 5.667,4.584 5.667,4.666 5.666,4.584 5.75,4.666 5.667,4.584 5.667,4.583 5.666,4.667 5.75,4.583 5.667,4.667 5.667,4.583 5.666,4.583 5.75,4.667 5.667,4.583 5.667,4.584 5.666,4.583 5.75,4.667 5.667,4.583 5.667,4.583 5.75,4.584 5.666,4.666 5.667,4.584 5.667,4.583 5.75,4.583 5.666,4.584 5.667,4.583 5.667,4.667 5.75,4.583 5.666,4.583 5.667,4.584 5.667,4.583 5.75,4.583 5.666,4.584 5.667,4.583 5.667,4.583 5.75,4.584 5.666,4.583 5.667,4.583 5.667,4.584 5.75,4.583 5.666,4.5 5.667,4.583 5.667,4.584 5.75,4.583 5.666,4.583 5.667,4.584 5.75,4.583 5.667,4.5 5.666,4.583 5.667,4.584 5.75,4.583 5.667,4.5 5.666,4.583 5.667,4.584 5.75,4.5 5.667,4.583 5.666,4.583 5.667,4.5 5.75,4.584 5.667,4.583 5.666,4.5 5.667,4.583 5.75,4.5 5.667,4.584 5.666,4.5 5.667,4.583 5.75,4.5 5.667,4.583 5.666,4.5 5.75,4.584" /><path
       inkscape:connector-curvature="0"
       id="path170"
       style="fill:none;stroke:#000000;stroke-width:2;stroke-linecap:butt;stroke-linejoin:round;stroke-miterlimit:10;stroke-opacity:1;stroke-dasharray:none"
       d="m 109.75,66.5 5.667,4.6668" /><path
       inkscape:connector-curvature="0"
       id="path172"
       style="fill:none;stroke:#000000;stroke-width:4;stroke-linecap:butt;stroke-linejoin:round;stroke-miterlimit:10;stroke-opacity:1;stroke-dasharray:12,12;stroke-dashoffset:0"
       d="m 115.417,71.6668 5.666,5.1664 5.667,5.0836 5.75,5.1664 5.667,5.1668 5.666,5.0832 5.667,5.1668 5.75,5.083 5.667,5.167 5.666,5.083 5.667,5.167 5.75,5.083 5.667,5.167 5.666,5.083 5.667,5.167 5.75,5.083 5.667,5.167 5.666,5.083 5.667,5.084 5.75,5.166 5.667,5.084 5.666,5.083 5.667,5.167 5.75,5.083 5.667,5.083 5.666,5.167 5.75,5.083 5.667,5.084 5.667,5.083 5.666,5.167 5.75,5.083 5.667,5.083 5.667,5.084 5.666,5.083 5.75,5.083 5.667,5.084 5.667,5.083 5.666,5.167 5.75,5.083 5.667,5.083 5.667,5.084 5.666,5.083 5.75,5.083 5.667,5.084 5.667,5.083 5.666,5.083 5.75,5.084 5.667,5 5.667,5.083 5.75,5.083 5.666,5.084 5.667,5.083 5.667,5.083 5.75,5.084 5.666,5 5.667,5.083 5.667,5.083 5.75,5.084 5.666,5 5.667,5.083 5.667,5.083 5.75,5.084 5.666,5 5.667,5.083 5.667,5.083 5.75,5 5.666,5.084 5.667,5 5.667,5.083 5.75,5.083 5.666,5 5.667,5.084 5.667,5 5.75,5.083 5.666,5 5.667,5.083 5.75,5 5.667,5.084 5.666,5 5.667,5 5.75,5.083 5.667,5 5.666,5.083 5.667,5 5.75,5 5.667,5.084 5.666,5 5.667,5 5.75,5 5.667,5.083 5.666,5 5.667,5 5.75,5 5.667,5 5.666,5.083 5.667,5 5.75,5 5.667,5 5.666,5 5.75,5" /><path
       inkscape:connector-curvature="0"
       id="path174"
       style="fill:none;stroke:#000000;stroke-width:2;stroke-linecap:butt;stroke-linejoin:round;stroke-miterlimit:10;stroke-opacity:1;stroke-dasharray:6;stroke-dashoffset:0"
       d="m 109.75,66.5 5.667,5.1668" /><path
       inkscape:connector-curvature="0"
       id="path176"
       style="fill:none;stroke:#c00000;stroke-width:4;stroke-linecap:butt;stroke-linejoin:round;stroke-miterlimit:10;stroke-opacity:1;stroke-dasharray:none"
       d="m 115.417,70.6668 5.666,4.0832 5.667,4.1668 5.75,4.0832 5.667,4.0832 5.666,4.0836 5.667,4.0832 5.75,4.0832 5.667,4.0838 5.666,4.083 5.667,4.083 5.75,4 5.667,4.084 5.666,4.083 5.667,4 5.75,4.083 5.667,4 5.666,4 5.667,4 5.75,4 5.667,4.084 5.666,4 5.667,4 5.75,3.916 5.667,4 5.666,4 5.75,4 5.667,3.917 5.667,4 5.666,3.917 5.75,4 5.667,3.916 5.667,3.917 5.666,3.917 5.75,4 5.667,3.916 5.667,3.917 5.666,3.917 5.75,3.833 5.667,3.917 5.667,3.916 5.666,3.917 5.75,3.833 5.667,3.917 5.667,3.833 5.666,3.917 5.75,3.833 5.667,3.834 5.667,3.833 5.75,3.833 5.666,3.917 5.667,3.833 5.667,3.834 5.75,3.75 5.666,3.833 5.667,3.833 5.667,3.834 5.75,3.75 5.666,3.833 5.667,3.75 5.667,3.833 5.75,3.75 5.666,3.75 5.667,3.834 5.667,3.75 5.75,3.75 5.666,3.75 5.667,3.75 5.667,3.75 5.75,3.75 5.666,3.666 5.667,3.75 5.667,3.75 5.75,3.667 5.666,3.75 5.667,3.667 5.75,3.75 5.667,3.666 5.666,3.667 5.667,3.667 5.75,3.75 5.667,3.666 5.666,3.667 5.667,3.667 5.75,3.666 5.667,3.584 5.666,3.666 5.667,3.667 5.75,3.667 5.667,3.583 5.666,3.667 5.667,3.583 5.75,3.583 5.667,3.667 5.666,3.583 5.667,3.584 5.75,3.583 5.667,3.667 5.666,3.583 5.75,3.583" /><path
       inkscape:connector-curvature="0"
       id="path178"
       style="fill:none;stroke:#c00000;stroke-width:2;stroke-linecap:butt;stroke-linejoin:round;stroke-miterlimit:10;stroke-opacity:1;stroke-dasharray:none"
       d="m 109.75,66.5 5.667,4.1668" /><path
       inkscape:connector-curvature="0"
       id="path180"
       style="fill:none;stroke:#c00000;stroke-width:4;stroke-linecap:butt;stroke-linejoin:round;stroke-miterlimit:10;stroke-opacity:1;stroke-dasharray:12,12;stroke-dashoffset:0"
       d="m 115.417,72.5832 5.666,6.0836 5.667,6.0832 5.75,6 5.667,6.0832 5.666,5.9998 5.667,6 5.75,6 5.667,6 5.666,6 5.667,6 5.75,6 5.667,6 5.666,5.917 5.667,6 5.75,5.917 5.667,5.916 5.666,6 5.667,5.917 5.75,5.917 5.667,5.916 5.666,5.834 5.667,5.916 5.75,5.917 5.667,5.833 5.666,5.917 5.75,5.833 5.667,5.834 5.667,5.833 5.666,5.833 5.75,5.834 5.667,5.833 5.667,5.833 5.666,5.75 5.75,5.834 5.667,5.75 5.667,5.833 5.666,5.75 5.75,5.75 5.667,5.75 5.667,5.75 5.666,5.75 5.75,5.75 5.667,5.75 5.667,5.667 5.666,5.75 5.75,5.666 5.667,5.75 5.667,5.667 5.75,5.667 5.666,5.666 5.667,5.667 5.667,5.667 5.75,5.666 5.666,5.584 5.667,5.666 5.667,5.584 5.75,5.666 5.666,5.584 5.667,5.583 5.667,5.583 5.75,5.667 5.666,5.5 5.667,5.583 5.667,5.584 5.75,5.583 5.666,5.5 5.667,5.583 5.667,5.5 5.75,5.584 5.666,5.5 5.667,5.5 5.667,5.5 5.75,5.5 5.666,5.5 5.667,5.5 5.75,5.416 5.667,5.5 5.666,5.417 5.667,5.5 5.75,5.417 5.667,5.416 5.666,5.417 5.667,5.5 5.75,5.333 5.667,5.417 5.666,5.417 5.667,5.416 5.75,5.334 5.667,5.416 5.666,5.334 5.667,5.416 5.75,5.334 5.667,5.333 5.666,5.333 5.667,5.334 5.75,5.333 5.667,5.333 5.666,5.334 5.75,5.25" /><path
       inkscape:connector-curvature="0"
       id="path182"
       style="fill:none;stroke:#c00000;stroke-width:2;stroke-linecap:butt;stroke-linejoin:round;stroke-miterlimit:10;stroke-opacity:1;stroke-dasharray:6;stroke-dashoffset:0"
       d="m 109.75,66.5 5.667,6.0832" /><text
       transform="scale(1,-1)"
       id="text186"
       x="281.08301"
       y="-11.0832"><tspan
         style="font-size:40px;font-variant:normal;font-weight:normal;writing-mode:lr-tb;fill:#000000;fill-opacity:1;fill-rule:nonzero;stroke:none;font-family:Helvetica;-inkscape-font-specification:Helvetica"
         x="281.08301 305.52301 318.84299 341.08301 349.96298 372.203 381.08301 403.323 425.56299 436.68301 447.80301 456.68301 490.00299"
         y="-11.0832"
         sodipodi:role="line"
         id="tspan188">Training time</tspan></text>
<text
       transform="matrix(0,1,1,0,0,0)"
       id="text190"
       x="176.5"
       y="40.583199"><tspan
         style="font-size:40px;font-variant:normal;font-weight:normal;writing-mode:lr-tb;fill:#000000;fill-opacity:1;fill-rule:nonzero;stroke:none;font-family:Helvetica;-inkscape-font-specification:Helvetica"
         x="176.5 198.74001 220.98 243.22 256.54001 278.78 287.66 309.89999 332.14001 343.26001 356.58002"
         y="40.583199"
         sodipodi:role="line"
         id="tspan192">Learning (−</tspan></text>
<text
       transform="matrix(0,1,1,0,0,0)"
       id="text194"
       x="380.91699"
       y="40.583199"><tspan
         style="font-size:40px;font-variant:normal;font-weight:normal;writing-mode:lr-tb;fill:#000000;fill-opacity:1;fill-rule:nonzero;stroke:none;font-family:Symbol;-inkscape-font-specification:Symbol"
         x="380.91699"
         y="40.583199"
         id="tspan196">∆</tspan></text>
<text
       transform="matrix(0,1,1,0,0,0)"
       id="text198"
       x="416.4534"
       y="40.583199"><tspan
         style="font-size:40px;font-variant:normal;font-weight:normal;writing-mode:lr-tb;fill:#000000;fill-opacity:1;fill-rule:nonzero;stroke:none;font-family:Helvetica;-inkscape-font-specification:Helvetica"
         x="416.4534 449.77341 472.0134 494.25342 516.49341 527.6134 556.49341"
         y="40.583199"
         sodipodi:role="line"
         id="tspan200">mean w)</tspan></text>
<path
       inkscape:connector-curvature="0"
       id="path202"
       style="fill:#ffffff;fill-opacity:1;fill-rule:evenodd;stroke:none"
       d="m 160.667,542.334 187.166,0 0,118 -187.166,0 0,-118 z" /><path
       inkscape:connector-curvature="0"
       id="path204"
       style="fill:none;stroke:#ffffff;stroke-width:0.5;stroke-linecap:butt;stroke-linejoin:round;stroke-miterlimit:10;stroke-opacity:1;stroke-dasharray:none"
       d="m 160.667,542.334 0,118 187.166,0 0,-118 -187.166,0" /><path
       inkscape:connector-curvature="0"
       id="path206"
       style="fill:none;stroke:#000000;stroke-width:0.5;stroke-linecap:butt;stroke-linejoin:round;stroke-miterlimit:10;stroke-opacity:1;stroke-dasharray:none"
       d="m 160.667,660.334 187.166,0" /><path
       inkscape:connector-curvature="0"
       id="path208"
       style="fill:none;stroke:#000000;stroke-width:0.5;stroke-linecap:butt;stroke-linejoin:round;stroke-miterlimit:10;stroke-opacity:1;stroke-dasharray:none"
       d="m 160.667,542.334 187.166,0" /><path
       inkscape:connector-curvature="0"
       id="path210"
       style="fill:none;stroke:#000000;stroke-width:0.5;stroke-linecap:butt;stroke-linejoin:round;stroke-miterlimit:10;stroke-opacity:1;stroke-dasharray:none"
       d="m 347.833,542.334 0,118" /><path
       inkscape:connector-curvature="0"
       id="path212"
       style="fill:none;stroke:#000000;stroke-width:0.5;stroke-linecap:butt;stroke-linejoin:round;stroke-miterlimit:10;stroke-opacity:1;stroke-dasharray:none"
       d="m 160.667,542.334 0,118" /><path
       inkscape:connector-curvature="0"
       id="path214"
       style="fill:none;stroke:#000000;stroke-width:0.5;stroke-linecap:butt;stroke-linejoin:round;stroke-miterlimit:10;stroke-opacity:1;stroke-dasharray:none"
       d="m 160.667,542.334 187.166,0" /><path
       inkscape:connector-curvature="0"
       id="path216"
       style="fill:none;stroke:#000000;stroke-width:0.5;stroke-linecap:butt;stroke-linejoin:round;stroke-miterlimit:10;stroke-opacity:1;stroke-dasharray:none"
       d="m 160.667,542.334 0,118" /><path
       inkscape:connector-curvature="0"
       id="path218"
       style="fill:none;stroke:#000000;stroke-width:0.5;stroke-linecap:butt;stroke-linejoin:round;stroke-miterlimit:10;stroke-opacity:1;stroke-dasharray:none"
       d="m 160.667,660.334 187.166,0" /><path
       inkscape:connector-curvature="0"
       id="path220"
       style="fill:none;stroke:#000000;stroke-width:0.5;stroke-linecap:butt;stroke-linejoin:round;stroke-miterlimit:10;stroke-opacity:1;stroke-dasharray:none"
       d="m 160.667,542.334 187.166,0" /><path
       inkscape:connector-curvature="0"
       id="path222"
       style="fill:none;stroke:#000000;stroke-width:0.5;stroke-linecap:butt;stroke-linejoin:round;stroke-miterlimit:10;stroke-opacity:1;stroke-dasharray:none"
       d="m 347.833,542.334 0,118" /><path
       inkscape:connector-curvature="0"
       id="path224"
       style="fill:none;stroke:#000000;stroke-width:0.5;stroke-linecap:butt;stroke-linejoin:round;stroke-miterlimit:10;stroke-opacity:1;stroke-dasharray:none"
       d="m 160.667,542.334 0,118" /><text
       transform="scale(1,-1)"
       id="text228"
       x="200.75"
       y="-638.5"><tspan
         style="font-size:20px;font-variant:normal;font-weight:normal;writing-mode:lr-tb;fill:#000000;fill-opacity:1;fill-rule:nonzero;stroke:none;font-family:Helvetica;-inkscape-font-specification:Helvetica"
         x="200.75 219.63 231.85001 237.41 251.85001 257.41 268.53 274.09 285.20999 291.87"
         y="-638.5"
         sodipodi:role="line"
         id="tspan230">WT w/o pre</tspan></text>
<path
       inkscape:connector-curvature="0"
       id="path240"
       style="fill:none;stroke:#000000;stroke-width:4;stroke-linecap:butt;stroke-linejoin:round;stroke-miterlimit:10;stroke-opacity:1;stroke-dasharray:none"
       d="m 166.75,645.584 30.833,0" /><text
       transform="scale(1,-1)"
       id="text244"
       x="200.75"
       y="-606.75"><tspan
         style="font-size:20px;font-variant:normal;font-weight:normal;writing-mode:lr-tb;fill:#000000;fill-opacity:1;fill-rule:nonzero;stroke:none;font-family:Helvetica;-inkscape-font-specification:Helvetica"
         x="200.75"
         y="-606.75"
         id="tspan246">D</tspan></text>
<text
       transform="scale(1,-1)"
       id="text248"
       x="215.16679"
       y="-616.75"><tspan
         style="font-size:16px;font-variant:normal;font-weight:normal;writing-mode:lr-tb;fill:#000000;fill-opacity:1;fill-rule:nonzero;stroke:none;font-family:Helvetica;-inkscape-font-specification:Helvetica"
         x="215.16679"
         y="-616.75"
         id="tspan250">b</tspan></text>
<text
       transform="scale(1,-1)"
       id="text252"
       x="224"
       y="-606.75"><tspan
         style="font-size:20px;font-variant:normal;font-weight:normal;writing-mode:lr-tb;fill:#000000;fill-opacity:1;fill-rule:nonzero;stroke:none;font-family:Helvetica;-inkscape-font-specification:Helvetica"
         x="224"
         y="-606.75"
         id="tspan254">K</tspan></text>
<text
       transform="scale(1,-1)"
       id="text256"
       x="237.33321"
       y="-616.75"><tspan
         style="font-size:16px;font-variant:normal;font-weight:normal;writing-mode:lr-tb;fill:#000000;fill-opacity:1;fill-rule:nonzero;stroke:none;font-family:Helvetica;-inkscape-font-specification:Helvetica"
         x="237.33321"
         y="-616.75"
         id="tspan258">b</tspan></text>
<text
       transform="scale(1,-1)"
       id="text260"
       x="246.16679"
       y="-606.75"><tspan
         style="font-size:20px;font-variant:normal;font-weight:normal;writing-mode:lr-tb;fill:#000000;fill-opacity:1;fill-rule:nonzero;stroke:none;font-family:Helvetica;-inkscape-font-specification:Helvetica"
         x="246.16679 257.8468 263.4068 275.08679 280.64679 295.08679 300.64679 311.76678 317.32678 328.44678 335.10678"
         y="-606.75"
         sodipodi:role="line"
         id="tspan262">−/− w/o pre</tspan></text>
<path
       inkscape:connector-curvature="0"
       id="path272"
       style="fill:none;stroke:#c00000;stroke-width:4;stroke-linecap:butt;stroke-linejoin:round;stroke-miterlimit:10;stroke-opacity:1;stroke-dasharray:none"
       d="m 166.75,617 30.833,0" /><text
       transform="scale(1,-1)"
       id="text276"
       x="200.75"
       y="-581.16699"><tspan
         style="font-size:20px;font-variant:normal;font-weight:normal;writing-mode:lr-tb;fill:#000000;fill-opacity:1;fill-rule:nonzero;stroke:none;font-family:Helvetica;-inkscape-font-specification:Helvetica"
         x="200.75 219.63 231.85001 237.41 251.85001 257.41 262.97 274.09 280.75"
         y="-581.16699"
         sodipodi:role="line"
         id="tspan278">WT w/ pre</tspan></text>
<path
       inkscape:connector-curvature="0"
       id="path288"
       style="fill:none;stroke:#000000;stroke-width:4;stroke-linecap:butt;stroke-linejoin:round;stroke-miterlimit:10;stroke-opacity:1;stroke-dasharray:12,12;stroke-dashoffset:0"
       d="m 166.75,588.334 30.833,0" /><text
       transform="scale(1,-1)"
       id="text292"
       x="200.75"
       y="-549.5"><tspan
         style="font-size:20px;font-variant:normal;font-weight:normal;writing-mode:lr-tb;fill:#000000;fill-opacity:1;fill-rule:nonzero;stroke:none;font-family:Helvetica;-inkscape-font-specification:Helvetica"
         x="200.75"
         y="-549.5"
         id="tspan294">D</tspan></text>
<text
       transform="scale(1,-1)"
       id="text296"
       x="215.16679"
       y="-559.5"><tspan
         style="font-size:16px;font-variant:normal;font-weight:normal;writing-mode:lr-tb;fill:#000000;fill-opacity:1;fill-rule:nonzero;stroke:none;font-family:Helvetica;-inkscape-font-specification:Helvetica"
         x="215.16679"
         y="-559.5"
         id="tspan298">b</tspan></text>
<text
       transform="scale(1,-1)"
       id="text300"
       x="224"
       y="-549.5"><tspan
         style="font-size:20px;font-variant:normal;font-weight:normal;writing-mode:lr-tb;fill:#000000;fill-opacity:1;fill-rule:nonzero;stroke:none;font-family:Helvetica;-inkscape-font-specification:Helvetica"
         x="224"
         y="-549.5"
         id="tspan302">K</tspan></text>
<text
       transform="scale(1,-1)"
       id="text304"
       x="237.33321"
       y="-559.5"><tspan
         style="font-size:16px;font-variant:normal;font-weight:normal;writing-mode:lr-tb;fill:#000000;fill-opacity:1;fill-rule:nonzero;stroke:none;font-family:Helvetica;-inkscape-font-specification:Helvetica"
         x="237.33321"
         y="-559.5"
         id="tspan306">b</tspan></text>
<text
       transform="scale(1,-1)"
       id="text308"
       x="246.16679"
       y="-549.5"><tspan
         style="font-size:20px;font-variant:normal;font-weight:normal;writing-mode:lr-tb;fill:#000000;fill-opacity:1;fill-rule:nonzero;stroke:none;font-family:Helvetica;-inkscape-font-specification:Helvetica"
         x="246.16679 257.8468 263.4068 275.08679 280.64679 295.08679 300.64679 306.20679 317.32678 323.98679"
         y="-549.5"
         sodipodi:role="line"
         id="tspan310">−/− w/ pre</tspan></text>
<path
       inkscape:connector-curvature="0"
       id="path320"
       style="fill:none;stroke:#c00000;stroke-width:4;stroke-linecap:butt;stroke-linejoin:round;stroke-miterlimit:10;stroke-opacity:1;stroke-dasharray:12,12;stroke-dashoffset:0"
       d="m 166.75,559.75 30.833,0" /><path
       style="fill:none;stroke:#ff6600;stroke-width:4;stroke-linecap:butt;stroke-linejoin:miter;stroke-opacity:1;stroke-miterlimit:4;stroke-dasharray:none"
       d="m 850,145 50,0 0,60 -50,0"
       id="path4296"
       inkscape:connector-curvature="0"
       transform="matrix(0.8,0,0,-0.8,0,692)" /></g></svg>