<?xml version="1.0" encoding="UTF-8" standalone="no"?>
<!-- Created with Inkscape (http://www.inkscape.org/) -->

<svg
   xmlns:dc="http://purl.org/dc/elements/1.1/"
   xmlns:cc="http://creativecommons.org/ns#"
   xmlns:rdf="http://www.w3.org/1999/02/22-rdf-syntax-ns#"
   xmlns:svg="http://www.w3.org/2000/svg"
   xmlns="http://www.w3.org/2000/svg"
   xmlns:sodipodi="http://sodipodi.sourceforge.net/DTD/sodipodi-0.dtd"
   xmlns:inkscape="http://www.inkscape.org/namespaces/inkscape"
   width="111"
   height="143.17732"
   id="svg3937"
   version="1.1"
   inkscape:version="0.48.4 r9939"
   sodipodi:docname="pot.svg">
  <sodipodi:namedview
     id="base"
     pagecolor="#ffffff"
     bordercolor="#666666"
     borderopacity="1.0"
     inkscape:pageopacity="0.0"
     inkscape:pageshadow="2"
     inkscape:zoom="4.4504505"
     inkscape:cx="55.500004"
     inkscape:cy="71.58866"
     inkscape:document-units="px"
     inkscape:current-layer="layer1"
     showgrid="true"
     inkscape:snap-grids="false"
     inkscape:snap-to-guides="true"
     inkscape:window-width="624"
     inkscape:window-height="1254"
     inkscape:window-x="0"
     inkscape:window-y="0"
     inkscape:window-maximized="0"
     fit-margin-top="0"
     fit-margin-left="0"
     fit-margin-right="0"
     fit-margin-bottom="0">
    <inkscape:grid
       type="xygrid"
       id="grid3945"
       empspacing="5"
       visible="true"
       enabled="true"
       snapvisiblegridlinesonly="true"
       originx="-130.21429px"
       originy="-565.57143px" />
  </sodipodi:namedview>
  <defs
     id="defs3939">
    <marker
       inkscape:stockid="Arrow2Mend"
       orient="auto"
       refY="0"
       refX="0"
       id="Arrow2Mend"
       style="overflow:visible">
      <path
         id="path4538"
         style="font-size:12px;fill-rule:evenodd;stroke-width:0.625;stroke-linejoin:round"
         d="M 8.7185878,4.0337352 -2.2072895,0.01601326 8.7185884,-4.0017078 c -1.7454984,2.3720609 -1.7354408,5.6174519 -6e-7,8.035443 z"
         transform="scale(-0.6,-0.6)"
         inkscape:connector-curvature="0" />
    </marker>
    <marker
       inkscape:stockid="Arrow2Send"
       orient="auto"
       refY="0"
       refX="0"
       id="Arrow2Send"
       style="overflow:visible">
      <path
         id="path4544"
         style="font-size:12px;fill-rule:evenodd;stroke-width:0.625;stroke-linejoin:round"
         d="M 8.7185878,4.0337352 -2.2072895,0.01601326 8.7185884,-4.0017078 c -1.7454984,2.3720609 -1.7354408,5.6174519 -6e-7,8.035443 z"
         transform="matrix(-0.3,0,0,-0.3,0.69,0)"
         inkscape:connector-curvature="0" />
    </marker>
    <marker
       inkscape:stockid="Arrow2Lend"
       orient="auto"
       refY="0"
       refX="0"
       id="Arrow2Lend"
       style="overflow:visible">
      <path
         id="path4532"
         style="font-size:12px;fill-rule:evenodd;stroke-width:0.625;stroke-linejoin:round"
         d="M 8.7185878,4.0337352 -2.2072895,0.01601326 8.7185884,-4.0017078 c -1.7454984,2.3720609 -1.7354408,5.6174519 -6e-7,8.035443 z"
         transform="matrix(-1.1,0,0,-1.1,-1.1,0)"
         inkscape:connector-curvature="0" />
    </marker>
    <marker
       inkscape:stockid="Arrow1Lend"
       orient="auto"
       refY="0"
       refX="0"
       id="Arrow1Lend"
       style="overflow:visible">
      <path
         id="path4514"
         d="M 0,0 5,-5 -12.5,0 5,5 0,0 z"
         style="fill-rule:evenodd;stroke:#000000;stroke-width:1pt;marker-start:none"
         transform="matrix(-0.8,0,0,-0.8,-10,0)"
         inkscape:connector-curvature="0" />
    </marker>
    <marker
       inkscape:stockid="Arrow2Send"
       orient="auto"
       refY="0"
       refX="0"
       id="Arrow2Send-7"
       style="overflow:visible">
      <path
         inkscape:connector-curvature="0"
         id="path4544-9"
         style="font-size:12px;fill-rule:evenodd;stroke-width:0.625;stroke-linejoin:round"
         d="M 8.7185878,4.0337352 -2.2072895,0.01601326 8.7185884,-4.0017078 c -1.7454984,2.3720609 -1.7354408,5.6174519 -6e-7,8.035443 z"
         transform="matrix(-0.3,0,0,-0.3,0.69,0)" />
    </marker>
    <marker
       inkscape:stockid="Arrow2Send"
       orient="auto"
       refY="0"
       refX="0"
       id="Arrow2Send-2"
       style="overflow:visible">
      <path
         inkscape:connector-curvature="0"
         id="path4544-96"
         style="font-size:12px;fill-rule:evenodd;stroke-width:0.625;stroke-linejoin:round"
         d="M 8.7185878,4.0337352 -2.2072895,0.01601326 8.7185884,-4.0017078 c -1.7454984,2.3720609 -1.7354408,5.6174519 -6e-7,8.035443 z"
         transform="matrix(-0.3,0,0,-0.3,0.69,0)" />
    </marker>
    <marker
       inkscape:stockid="Arrow2Send"
       orient="auto"
       refY="0"
       refX="0"
       id="Arrow2Send-6"
       style="overflow:visible">
      <path
         inkscape:connector-curvature="0"
         id="path4544-0"
         style="font-size:12px;fill-rule:evenodd;stroke-width:0.625;stroke-linejoin:round"
         d="M 8.7185878,4.0337352 -2.2072895,0.01601326 8.7185884,-4.0017078 c -1.7454984,2.3720609 -1.7354408,5.6174519 -6e-7,8.035443 z"
         transform="matrix(-0.3,0,0,-0.3,0.69,0)" />
    </marker>
    <marker
       inkscape:stockid="Arrow2Send"
       orient="auto"
       refY="0"
       refX="0"
       id="Arrow2Send-8"
       style="overflow:visible">
      <path
         inkscape:connector-curvature="0"
         id="path4544-6"
         style="font-size:12px;fill-rule:evenodd;stroke-width:0.625;stroke-linejoin:round"
         d="M 8.7185878,4.0337352 -2.2072895,0.01601326 8.7185884,-4.0017078 c -1.7454984,2.3720609 -1.7354408,5.6174519 -6e-7,8.035443 z"
         transform="matrix(-0.3,0,0,-0.3,0.69,0)" />
    </marker>
    <marker
       inkscape:stockid="Arrow2Send"
       orient="auto"
       refY="0"
       refX="0"
       id="Arrow2Send-26"
       style="overflow:visible">
      <path
         inkscape:connector-curvature="0"
         id="path4544-8"
         style="font-size:12px;fill-rule:evenodd;stroke-width:0.625;stroke-linejoin:round"
         d="M 8.7185878,4.0337352 -2.2072895,0.01601326 8.7185884,-4.0017078 c -1.7454984,2.3720609 -1.7354408,5.6174519 -6e-7,8.035443 z"
         transform="matrix(-0.3,0,0,-0.3,0.69,0)" />
    </marker>
    <marker
       inkscape:stockid="Arrow2Send"
       orient="auto"
       refY="0"
       refX="0"
       id="Arrow2Send-76"
       style="overflow:visible">
      <path
         inkscape:connector-curvature="0"
         id="path4544-3"
         style="font-size:12px;fill-rule:evenodd;stroke-width:0.625;stroke-linejoin:round"
         d="M 8.7185878,4.0337352 -2.2072895,0.01601326 8.7185884,-4.0017078 c -1.7454984,2.3720609 -1.7354408,5.6174519 -6e-7,8.035443 z"
         transform="matrix(-0.3,0,0,-0.3,0.69,0)" />
    </marker>
    <marker
       inkscape:stockid="Arrow2Send"
       orient="auto"
       refY="0"
       refX="0"
       id="Arrow2Send-63"
       style="overflow:visible">
      <path
         inkscape:connector-curvature="0"
         id="path4544-2"
         style="font-size:12px;fill-rule:evenodd;stroke-width:0.625;stroke-linejoin:round"
         d="M 8.7185878,4.0337352 -2.2072895,0.01601326 8.7185884,-4.0017078 c -1.7454984,2.3720609 -1.7354408,5.6174519 -6e-7,8.035443 z"
         transform="matrix(-0.3,0,0,-0.3,0.69,0)" />
    </marker>
    <marker
       inkscape:stockid="Arrow2Send"
       orient="auto"
       refY="0"
       refX="0"
       id="Arrow2Send-85"
       style="overflow:visible">
      <path
         inkscape:connector-curvature="0"
         id="path4544-00"
         style="font-size:12px;fill-rule:evenodd;stroke-width:0.625;stroke-linejoin:round"
         d="M 8.7185878,4.0337352 -2.2072895,0.01601326 8.7185884,-4.0017078 c -1.7454984,2.3720609 -1.7354408,5.6174519 -6e-7,8.035443 z"
         transform="matrix(-0.3,0,0,-0.3,0.69,0)" />
    </marker>
    <marker
       inkscape:stockid="Arrow2Send"
       orient="auto"
       refY="0"
       refX="0"
       id="Arrow2Send-22"
       style="overflow:visible">
      <path
         inkscape:connector-curvature="0"
         id="path4544-7"
         style="font-size:12px;fill-rule:evenodd;stroke-width:0.625;stroke-linejoin:round"
         d="M 8.7185878,4.0337352 -2.2072895,0.01601326 8.7185884,-4.0017078 c -1.7454984,2.3720609 -1.7354408,5.6174519 -6e-7,8.035443 z"
         transform="matrix(-0.3,0,0,-0.3,0.69,0)" />
    </marker>
    <marker
       inkscape:stockid="Arrow2Send"
       orient="auto"
       refY="0"
       refX="0"
       id="Arrow2Send-4"
       style="overflow:visible">
      <path
         inkscape:connector-curvature="0"
         id="path4544-35"
         style="font-size:12px;fill-rule:evenodd;stroke-width:0.625;stroke-linejoin:round"
         d="M 8.7185878,4.0337352 -2.2072895,0.01601326 8.7185884,-4.0017078 c -1.7454984,2.3720609 -1.7354408,5.6174519 -6e-7,8.035443 z"
         transform="matrix(-0.3,0,0,-0.3,0.69,0)" />
    </marker>
    <marker
       inkscape:stockid="Arrow2Send"
       orient="auto"
       refY="0"
       refX="0"
       id="Arrow2Send-86"
       style="overflow:visible">
      <path
         inkscape:connector-curvature="0"
         id="path4544-78"
         style="font-size:12px;fill-rule:evenodd;stroke-width:0.625;stroke-linejoin:round"
         d="M 8.7185878,4.0337352 -2.2072895,0.01601326 8.7185884,-4.0017078 c -1.7454984,2.3720609 -1.7354408,5.6174519 -6e-7,8.035443 z"
         transform="matrix(-0.3,0,0,-0.3,0.69,0)" />
    </marker>
    <marker
       inkscape:stockid="Arrow2Send"
       orient="auto"
       refY="0"
       refX="0"
       id="Arrow2Send-5"
       style="overflow:visible">
      <path
         inkscape:connector-curvature="0"
         id="path4544-82"
         style="font-size:12px;fill-rule:evenodd;stroke-width:0.625;stroke-linejoin:round"
         d="M 8.7185878,4.0337352 -2.2072895,0.01601326 8.7185884,-4.0017078 c -1.7454984,2.3720609 -1.7354408,5.6174519 -6e-7,8.035443 z"
         transform="matrix(-0.3,0,0,-0.3,0.69,0)" />
    </marker>
    <marker
       inkscape:stockid="Arrow2Send"
       orient="auto"
       refY="0"
       refX="0"
       id="Arrow2Send-79"
       style="overflow:visible">
      <path
         inkscape:connector-curvature="0"
         id="path4544-4"
         style="font-size:12px;fill-rule:evenodd;stroke-width:0.625;stroke-linejoin:round"
         d="M 8.7185878,4.0337352 -2.2072895,0.01601326 8.7185884,-4.0017078 c -1.7454984,2.3720609 -1.7354408,5.6174519 -6e-7,8.035443 z"
         transform="matrix(-0.3,0,0,-0.3,0.69,0)" />
    </marker>
    <marker
       inkscape:stockid="Arrow2Sendu"
       orient="auto"
       refY="0"
       refX="0"
       id="Arrow2Sendu"
       style="overflow:visible">
      <path
         id="path3084"
         style="font-size:12px;fill:#aa0000;fill-rule:evenodd;stroke:#aa0000;stroke-width:0.625;stroke-linejoin:round"
         d="M 8.7185878,4.0337352 -2.2072895,0.01601326 8.7185884,-4.0017078 c -1.7454984,2.3720609 -1.7354408,5.6174519 -6e-7,8.035443 z"
         transform="matrix(-0.3,0,0,-0.3,0.69,0)"
         inkscape:connector-curvature="0" />
    </marker>
    <marker
       inkscape:stockid="Arrow2SendR"
       orient="auto"
       refY="0"
       refX="0"
       id="Arrow2SendR"
       style="overflow:visible">
      <path
         id="path3087"
         style="font-size:12px;fill:#aa0000;fill-rule:evenodd;stroke:#aa0000;stroke-width:0.625;stroke-linejoin:round"
         d="M 8.7185878,4.0337352 -2.2072895,0.01601326 8.7185884,-4.0017078 c -1.7454984,2.3720609 -1.7354408,5.6174519 -6e-7,8.035443 z"
         transform="matrix(-0.3,0,0,-0.3,0.69,0)"
         inkscape:connector-curvature="0" />
    </marker>
    <marker
       inkscape:stockid="Arrow2Sendz"
       orient="auto"
       refY="0"
       refX="0"
       id="Arrow2Sendz"
       style="overflow:visible">
      <path
         id="path3090"
         style="font-size:12px;fill:#aa0000;fill-rule:evenodd;stroke:#aa0000;stroke-width:0.625;stroke-linejoin:round"
         d="M 8.7185878,4.0337352 -2.2072895,0.01601326 8.7185884,-4.0017078 c -1.7454984,2.3720609 -1.7354408,5.6174519 -6e-7,8.035443 z"
         transform="matrix(-0.3,0,0,-0.3,0.69,0)"
         inkscape:connector-curvature="0" />
    </marker>
    <marker
       inkscape:stockid="Arrow2Send6"
       orient="auto"
       refY="0"
       refX="0"
       id="Arrow2Send6"
       style="overflow:visible">
      <path
         id="path3093"
         style="font-size:12px;fill:#aa0000;fill-rule:evenodd;stroke:#aa0000;stroke-width:0.625;stroke-linejoin:round"
         d="M 8.7185878,4.0337352 -2.2072895,0.01601326 8.7185884,-4.0017078 c -1.7454984,2.3720609 -1.7354408,5.6174519 -6e-7,8.035443 z"
         transform="matrix(-0.3,0,0,-0.3,0.69,0)"
         inkscape:connector-curvature="0" />
    </marker>
    <marker
       inkscape:stockid="Arrow2Sende"
       orient="auto"
       refY="0"
       refX="0"
       id="Arrow2Sende"
       style="overflow:visible">
      <path
         id="path3096"
         style="font-size:12px;fill:#aa0000;fill-rule:evenodd;stroke:#aa0000;stroke-width:0.625;stroke-linejoin:round"
         d="M 8.7185878,4.0337352 -2.2072895,0.01601326 8.7185884,-4.0017078 c -1.7454984,2.3720609 -1.7354408,5.6174519 -6e-7,8.035443 z"
         transform="matrix(-0.3,0,0,-0.3,0.69,0)"
         inkscape:connector-curvature="0" />
    </marker>
    <marker
       inkscape:stockid="Arrow2SenduT"
       orient="auto"
       refY="0"
       refX="0"
       id="Arrow2SenduT"
       style="overflow:visible">
      <path
         id="path3099"
         style="font-size:12px;fill:#aa0000;fill-rule:evenodd;stroke:#aa0000;stroke-width:0.625;stroke-linejoin:round"
         d="M 8.7185878,4.0337352 -2.2072895,0.01601326 8.7185884,-4.0017078 c -1.7454984,2.3720609 -1.7354408,5.6174519 -6e-7,8.035443 z"
         transform="matrix(-0.3,0,0,-0.3,0.69,0)"
         inkscape:connector-curvature="0" />
    </marker>
    <marker
       inkscape:stockid="Arrow2SendJ"
       orient="auto"
       refY="0"
       refX="0"
       id="Arrow2SendJ"
       style="overflow:visible">
      <path
         id="path3102"
         style="font-size:12px;fill:#aa0000;fill-rule:evenodd;stroke:#aa0000;stroke-width:0.625;stroke-linejoin:round"
         d="M 8.7185878,4.0337352 -2.2072895,0.01601326 8.7185884,-4.0017078 c -1.7454984,2.3720609 -1.7354408,5.6174519 -6e-7,8.035443 z"
         transform="matrix(-0.3,0,0,-0.3,0.69,0)"
         inkscape:connector-curvature="0" />
    </marker>
    <marker
       inkscape:stockid="Arrow2SendG"
       orient="auto"
       refY="0"
       refX="0"
       id="Arrow2SendG"
       style="overflow:visible">
      <path
         id="path3105"
         style="font-size:12px;fill:#aa0000;fill-rule:evenodd;stroke:#aa0000;stroke-width:0.625;stroke-linejoin:round"
         d="M 8.7185878,4.0337352 -2.2072895,0.01601326 8.7185884,-4.0017078 c -1.7454984,2.3720609 -1.7354408,5.6174519 -6e-7,8.035443 z"
         transform="matrix(-0.3,0,0,-0.3,0.69,0)"
         inkscape:connector-curvature="0" />
    </marker>
    <marker
       inkscape:stockid="Arrow2Send2"
       orient="auto"
       refY="0"
       refX="0"
       id="Arrow2Send2"
       style="overflow:visible">
      <path
         id="path3108"
         style="font-size:12px;fill:#aa0000;fill-rule:evenodd;stroke:#aa0000;stroke-width:0.625;stroke-linejoin:round"
         d="M 8.7185878,4.0337352 -2.2072895,0.01601326 8.7185884,-4.0017078 c -1.7454984,2.3720609 -1.7354408,5.6174519 -6e-7,8.035443 z"
         transform="matrix(-0.3,0,0,-0.3,0.69,0)"
         inkscape:connector-curvature="0" />
    </marker>
    <marker
       inkscape:stockid="Arrow2Sendr"
       orient="auto"
       refY="0"
       refX="0"
       id="Arrow2Sendr"
       style="overflow:visible">
      <path
         id="path3111"
         style="font-size:12px;fill:#aa0000;fill-rule:evenodd;stroke:#aa0000;stroke-width:0.625;stroke-linejoin:round"
         d="M 8.7185878,4.0337352 -2.2072895,0.01601326 8.7185884,-4.0017078 c -1.7454984,2.3720609 -1.7354408,5.6174519 -6e-7,8.035443 z"
         transform="matrix(-0.3,0,0,-0.3,0.69,0)"
         inkscape:connector-curvature="0" />
    </marker>
    <marker
       inkscape:stockid="Arrow2Sendu3"
       orient="auto"
       refY="0"
       refX="0"
       id="Arrow2Sendu3"
       style="overflow:visible">
      <path
         id="path3114"
         style="font-size:12px;fill:#aa0000;fill-rule:evenodd;stroke:#aa0000;stroke-width:0.625;stroke-linejoin:round"
         d="M 8.7185878,4.0337352 -2.2072895,0.01601326 8.7185884,-4.0017078 c -1.7454984,2.3720609 -1.7354408,5.6174519 -6e-7,8.035443 z"
         transform="matrix(-0.3,0,0,-0.3,0.69,0)"
         inkscape:connector-curvature="0" />
    </marker>
    <marker
       inkscape:stockid="Arrow2SendD"
       orient="auto"
       refY="0"
       refX="0"
       id="Arrow2SendD"
       style="overflow:visible">
      <path
         id="path3117"
         style="font-size:12px;fill:#aa0000;fill-rule:evenodd;stroke:#aa0000;stroke-width:0.625;stroke-linejoin:round"
         d="M 8.7185878,4.0337352 -2.2072895,0.01601326 8.7185884,-4.0017078 c -1.7454984,2.3720609 -1.7354408,5.6174519 -6e-7,8.035443 z"
         transform="matrix(-0.3,0,0,-0.3,0.69,0)"
         inkscape:connector-curvature="0" />
    </marker>
    <marker
       inkscape:stockid="Arrow2Sendw"
       orient="auto"
       refY="0"
       refX="0"
       id="Arrow2Sendw"
       style="overflow:visible">
      <path
         id="path3120"
         style="font-size:12px;fill:#aa0000;fill-rule:evenodd;stroke:#aa0000;stroke-width:0.625;stroke-linejoin:round"
         d="M 8.7185878,4.0337352 -2.2072895,0.01601326 8.7185884,-4.0017078 c -1.7454984,2.3720609 -1.7354408,5.6174519 -6e-7,8.035443 z"
         transform="matrix(-0.3,0,0,-0.3,0.69,0)"
         inkscape:connector-curvature="0" />
    </marker>
    <marker
       inkscape:stockid="Arrow2SendA"
       orient="auto"
       refY="0"
       refX="0"
       id="Arrow2SendA"
       style="overflow:visible">
      <path
         id="path3123"
         style="font-size:12px;fill:#aa0000;fill-rule:evenodd;stroke:#aa0000;stroke-width:0.625;stroke-linejoin:round"
         d="M 8.7185878,4.0337352 -2.2072895,0.01601326 8.7185884,-4.0017078 c -1.7454984,2.3720609 -1.7354408,5.6174519 -6e-7,8.035443 z"
         transform="matrix(-0.3,0,0,-0.3,0.69,0)"
         inkscape:connector-curvature="0" />
    </marker>
    <marker
       inkscape:stockid="Arrow2Sendv"
       orient="auto"
       refY="0"
       refX="0"
       id="Arrow2Sendv"
       style="overflow:visible">
      <path
         id="path3126"
         style="font-size:12px;fill:#aa0000;fill-rule:evenodd;stroke:#aa0000;stroke-width:0.625;stroke-linejoin:round"
         d="M 8.7185878,4.0337352 -2.2072895,0.01601326 8.7185884,-4.0017078 c -1.7454984,2.3720609 -1.7354408,5.6174519 -6e-7,8.035443 z"
         transform="matrix(-0.3,0,0,-0.3,0.69,0)"
         inkscape:connector-curvature="0" />
    </marker>
    <marker
       inkscape:stockid="Arrow2SendV"
       orient="auto"
       refY="0"
       refX="0"
       id="Arrow2SendV"
       style="overflow:visible">
      <path
         id="path3329"
         style="font-size:12px;fill:#aa0000;fill-rule:evenodd;stroke:#aa0000;stroke-width:0.625;stroke-linejoin:round"
         d="M 8.7185878,4.0337352 -2.2072895,0.01601326 8.7185884,-4.0017078 c -1.7454984,2.3720609 -1.7354408,5.6174519 -6e-7,8.035443 z"
         transform="matrix(-0.3,0,0,-0.3,0.69,0)"
         inkscape:connector-curvature="0" />
    </marker>
  </defs>
  <metadata
     id="metadata3942">
    <rdf:RDF>
      <cc:Work
         rdf:about="">
        <dc:format>image/svg+xml</dc:format>
        <dc:type
           rdf:resource="http://purl.org/dc/dcmitype/StillImage" />
        <dc:title />
      </cc:Work>
    </rdf:RDF>
  </metadata>
  <g
     inkscape:label="Layer 1"
     inkscape:groupmode="layer"
     id="layer1"
     transform="translate(-130.21429,-343.61343)">
    <path
       transform="translate(-34.285714,43.928571)"
       sodipodi:type="arc"
       style="fill:#0000ff;stroke:#000000;stroke-width:1;stroke-linecap:round;stroke-linejoin:round;stroke-miterlimit:4;stroke-dasharray:none;stroke-dashoffset:0"
       id="path2994"
       sodipodi:cx="185"
       sodipodi:cy="347.36218"
       sodipodi:rx="5"
       sodipodi:ry="5"
       d="m 190,347.36218 c 0,2.76143 -2.23858,5 -5,5 -2.76142,0 -5,-2.23857 -5,-5 0,-2.76142 2.23858,-5 5,-5 2.76142,0 5,2.23858 5,5 z" />
    <path
       transform="translate(25.714286,18.928571)"
       sodipodi:type="arc"
       style="fill:#d40000;stroke:#000000;stroke-width:1;stroke-linecap:round;stroke-linejoin:round;stroke-miterlimit:4;stroke-dasharray:none;stroke-dashoffset:0"
       id="path2994-3"
       sodipodi:cx="185"
       sodipodi:cy="347.36218"
       sodipodi:rx="5"
       sodipodi:ry="5"
       d="m 190,347.36218 c 0,2.76143 -2.23858,5 -5,5 -2.76142,0 -5,-2.23857 -5,-5 0,-2.76142 2.23858,-5 5,-5 2.76142,0 5,2.23858 5,5 z" />
    <path
       transform="translate(-49.285714,73.928571)"
       sodipodi:type="arc"
       style="fill:#0000ff;stroke:#000000;stroke-width:1;stroke-linecap:round;stroke-linejoin:round;stroke-miterlimit:4;stroke-dasharray:none;stroke-dashoffset:0"
       id="path2994-4"
       sodipodi:cx="185"
       sodipodi:cy="347.36218"
       sodipodi:rx="5"
       sodipodi:ry="5"
       d="m 190,347.36218 c 0,2.76143 -2.23858,5 -5,5 -2.76142,0 -5,-2.23857 -5,-5 0,-2.76142 2.23858,-5 5,-5 2.76142,0 5,2.23858 5,5 z" />
    <path
       transform="translate(-9.2857143,73.928571)"
       sodipodi:type="arc"
       style="fill:#0000ff;stroke:#000000;stroke-width:1;stroke-linecap:round;stroke-linejoin:round;stroke-miterlimit:4;stroke-dasharray:none;stroke-dashoffset:0"
       id="path2994-47"
       sodipodi:cx="185"
       sodipodi:cy="347.36218"
       sodipodi:rx="5"
       sodipodi:ry="5"
       d="m 190,347.36218 c 0,2.76143 -2.23858,5 -5,5 -2.76142,0 -5,-2.23857 -5,-5 0,-2.76142 2.23858,-5 5,-5 2.76142,0 5,2.23858 5,5 z" />
    <path
       transform="translate(-39.285714,113.92857)"
       sodipodi:type="arc"
       style="fill:#0000ff;stroke:#000000;stroke-width:1;stroke-linecap:round;stroke-linejoin:round;stroke-miterlimit:4;stroke-dasharray:none;stroke-dashoffset:0"
       id="path2994-34"
       sodipodi:cx="185"
       sodipodi:cy="347.36218"
       sodipodi:rx="5"
       sodipodi:ry="5"
       d="m 190,347.36218 c 0,2.76143 -2.23858,5 -5,5 -2.76142,0 -5,-2.23857 -5,-5 0,-2.76142 2.23858,-5 5,-5 2.76142,0 5,2.23858 5,5 z" />
    <path
       transform="translate(0.71428571,133.92857)"
       sodipodi:type="arc"
       style="fill:#0000ff;stroke:#000000;stroke-width:1;stroke-linecap:round;stroke-linejoin:round;stroke-miterlimit:4;stroke-dasharray:none;stroke-dashoffset:0"
       id="path2994-44"
       sodipodi:cx="185"
       sodipodi:cy="347.36218"
       sodipodi:rx="5"
       sodipodi:ry="5"
       d="m 190,347.36218 c 0,2.76143 -2.23858,5 -5,5 -2.76142,0 -5,-2.23857 -5,-5 0,-2.76142 2.23858,-5 5,-5 2.76142,0 5,2.23858 5,5 z" />
    <path
       transform="translate(50.714286,83.928571)"
       sodipodi:type="arc"
       style="fill:#d40000;stroke:#000000;stroke-width:1;stroke-linecap:round;stroke-linejoin:round;stroke-miterlimit:4;stroke-dasharray:none;stroke-dashoffset:0"
       id="path2994-3-3"
       sodipodi:cx="185"
       sodipodi:cy="347.36218"
       sodipodi:rx="5"
       sodipodi:ry="5"
       d="m 190,347.36218 c 0,2.76143 -2.23858,5 -5,5 -2.76142,0 -5,-2.23857 -5,-5 0,-2.76142 2.23858,-5 5,-5 2.76142,0 5,2.23858 5,5 z" />
    <path
       transform="translate(25.714286,118.92857)"
       sodipodi:type="arc"
       style="fill:#d40000;stroke:#000000;stroke-width:1;stroke-linecap:round;stroke-linejoin:round;stroke-miterlimit:4;stroke-dasharray:none;stroke-dashoffset:0"
       id="path2994-3-6"
       sodipodi:cx="185"
       sodipodi:cy="347.36218"
       sodipodi:rx="5"
       sodipodi:ry="5"
       d="m 190,347.36218 c 0,2.76143 -2.23858,5 -5,5 -2.76142,0 -5,-2.23857 -5,-5 0,-2.76142 2.23858,-5 5,-5 2.76142,0 5,2.23858 5,5 z" />
    <path
       transform="translate(20.714286,73.928571)"
       sodipodi:type="arc"
       style="fill:#d40000;stroke:#000000;stroke-width:1;stroke-linecap:round;stroke-linejoin:round;stroke-miterlimit:4;stroke-dasharray:none;stroke-dashoffset:0"
       id="path2994-3-39"
       sodipodi:cx="185"
       sodipodi:cy="347.36218"
       sodipodi:rx="5"
       sodipodi:ry="5"
       d="m 190,347.36218 c 0,2.76143 -2.23858,5 -5,5 -2.76142,0 -5,-2.23857 -5,-5 0,-2.76142 2.23858,-5 5,-5 2.76142,0 5,2.23858 5,5 z" />
    <path
       transform="translate(-4.2857143,28.928571)"
       sodipodi:type="arc"
       style="fill:#d40000;stroke:#000000;stroke-width:1;stroke-linecap:round;stroke-linejoin:round;stroke-miterlimit:4;stroke-dasharray:none;stroke-dashoffset:0"
       id="path2994-3-2"
       sodipodi:cx="185"
       sodipodi:cy="347.36218"
       sodipodi:rx="5"
       sodipodi:ry="5"
       d="m 190,347.36218 c 0,2.76143 -2.23858,5 -5,5 -2.76142,0 -5,-2.23857 -5,-5 0,-2.76142 2.23858,-5 5,-5 2.76142,0 5,2.23858 5,5 z" />
    <path
       transform="translate(35.714286,48.928571)"
       sodipodi:type="arc"
       style="fill:#d40000;stroke:#000000;stroke-width:1;stroke-linecap:round;stroke-linejoin:round;stroke-miterlimit:4;stroke-dasharray:none;stroke-dashoffset:0"
       id="path2994-3-396"
       sodipodi:cx="185"
       sodipodi:cy="347.36218"
       sodipodi:rx="5"
       sodipodi:ry="5"
       d="m 190,347.36218 c 0,2.76143 -2.23858,5 -5,5 -2.76142,0 -5,-2.23857 -5,-5 0,-2.76142 2.23858,-5 5,-5 2.76142,0 5,2.23858 5,5 z" />
    <path
       transform="translate(-9.2857143,103.92857)"
       sodipodi:type="arc"
       style="fill:#0000ff;stroke:#000000;stroke-width:1;stroke-linecap:round;stroke-linejoin:round;stroke-miterlimit:4;stroke-dasharray:none;stroke-dashoffset:0"
       id="path2994-47-3"
       sodipodi:cx="185"
       sodipodi:cy="347.36218"
       sodipodi:rx="5"
       sodipodi:ry="5"
       d="m 190,347.36218 c 0,2.76143 -2.23858,5 -5,5 -2.76142,0 -5,-2.23857 -5,-5 0,-2.76142 2.23858,-5 5,-5 2.76142,0 5,2.23858 5,5 z" />
    <path
       style="fill:none;stroke:#aa0000;stroke-width:3;stroke-linecap:butt;stroke-linejoin:miter;stroke-miterlimit:4;stroke-opacity:1;stroke-dasharray:none;marker-end:url(#Arrow2Sendu)"
       d="m 137.90374,416.07342 8.08557,-16.84493"
       id="path3998"
       inkscape:connector-curvature="0"
       sodipodi:nodetypes="cc" />
    <path
       style="fill:none;stroke:#aa0000;stroke-width:3;stroke-linecap:butt;stroke-linejoin:miter;stroke-miterlimit:4;stroke-opacity:1;stroke-dasharray:none;marker-end:url(#Arrow2SendG)"
       d="m 150.25668,457.17502 20.43851,-29.42246"
       id="path5704"
       inkscape:connector-curvature="0" />
    <path
       style="fill:none;stroke:#aa0000;stroke-width:3;stroke-linecap:butt;stroke-linejoin:miter;stroke-miterlimit:4;stroke-opacity:1;stroke-dasharray:none;marker-end:url(#Arrow2Sendv)"
       d="m 150.93048,460.7686 16.62032,-6.06417"
       id="path5894"
       inkscape:connector-curvature="0"
       sodipodi:nodetypes="cc" />
    <path
       style="fill:none;stroke:#aa0000;stroke-width:3;stroke-linecap:butt;stroke-linejoin:miter;stroke-miterlimit:4;stroke-opacity:1;stroke-dasharray:none;marker-end:url(#Arrow2SendR)"
       d="m 183.78765,453.85272 18.64171,7.18717"
       id="path5894-3"
       inkscape:connector-curvature="0"
       sodipodi:nodetypes="cc" />
    <path
       style="fill:none;stroke:#aa0000;stroke-width:3;stroke-linecap:butt;stroke-linejoin:miter;stroke-miterlimit:4;stroke-opacity:1;stroke-dasharray:none;marker-end:url(#Arrow2SendD)"
       d="M 219.72348,390.51583 214.10851,375.0185"
       id="path5894-1"
       inkscape:connector-curvature="0"
       sodipodi:nodetypes="cc" />
    <path
       style="fill:none;stroke:#aa0000;stroke-width:3;stroke-linecap:butt;stroke-linejoin:miter;stroke-miterlimit:4;stroke-opacity:1;stroke-dasharray:none;marker-end:url(#Arrow2Send2)"
       d="m 191.64862,479.00779 12.12834,-8.31016"
       id="path5894-2"
       inkscape:connector-curvature="0"
       sodipodi:nodetypes="cc" />
    <path
       style="fill:none;stroke:#aa0000;stroke-width:3;stroke-linecap:butt;stroke-linejoin:miter;stroke-miterlimit:4;stroke-opacity:1;stroke-dasharray:none;marker-end:url(#Arrow2Sendw)"
       d="m 181.31706,421.28587 14.82353,0"
       id="path5894-9"
       inkscape:connector-curvature="0"
       sodipodi:nodetypes="cc" />
    <path
       style="fill:none;stroke:#aa0000;stroke-width:3;stroke-linecap:butt;stroke-linejoin:miter;stroke-miterlimit:4;stroke-opacity:1;stroke-dasharray:none;marker-end:url(#Arrow2SendV)"
       d="m 211.18872,423.53186 16.62032,5.61498"
       id="path5894-6"
       inkscape:connector-curvature="0"
       sodipodi:nodetypes="cc" />
    <path
       style="fill:none;stroke:#aa0000;stroke-width:3;stroke-linecap:butt;stroke-linejoin:miter;stroke-miterlimit:4;stroke-opacity:1;stroke-dasharray:none;marker-end:url(#Arrow2SendJ)"
       d="m 154.14059,385.57464 18.64171,-6.28877"
       id="path5894-5"
       inkscape:connector-curvature="0" />
    <path
       style="fill:none;stroke:#aa0000;stroke-width:3;stroke-linecap:butt;stroke-linejoin:miter;stroke-miterlimit:4;stroke-opacity:1;stroke-dasharray:none;marker-end:url(#Arrow2Send6)"
       d="m 208.71813,416.7939 8.31016,-12.57755"
       id="path5894-1-5"
       inkscape:connector-curvature="0"
       sodipodi:nodetypes="cc" />
    <path
       style="fill:none;stroke:#aa0000;stroke-width:3;stroke-linecap:butt;stroke-linejoin:miter;stroke-miterlimit:4;stroke-opacity:1;stroke-dasharray:none;marker-end:url(#Arrow2Sende)"
       d="m 150.09781,465.53187 26.72727,12.57754"
       id="path5894-1-7"
       inkscape:connector-curvature="0"
       sodipodi:nodetypes="cc" />
    <path
       style="fill:none;stroke:#aa0000;stroke-width:3;stroke-linecap:butt;stroke-linejoin:miter;stroke-miterlimit:4;stroke-opacity:1;stroke-dasharray:none;marker-end:url(#Arrow2SenduT)"
       d="m 186.48284,380.63347 24.93048,12.12834"
       id="path5894-1-1"
       inkscape:connector-curvature="0"
       sodipodi:nodetypes="cc" />
    <path
       style="fill:none;stroke:#aa0000;stroke-width:3;stroke-linecap:butt;stroke-linejoin:miter;stroke-miterlimit:4;stroke-opacity:1;stroke-dasharray:none;marker-end:url(#Arrow2SendA)"
       d="m 185.80905,374.1201 15.72192,-5.39037"
       id="path5894-1-57"
       inkscape:connector-curvature="0"
       sodipodi:nodetypes="cc" />
    <path
       style="fill:none;stroke:#aa0000;stroke-width:3;stroke-linecap:butt;stroke-linejoin:miter;stroke-miterlimit:4;stroke-opacity:1;stroke-dasharray:none;marker-end:url(#Arrow2Sendz)"
       d="m 141.33846,422.40887 26.27807,-0.4492"
       id="path5894-1-4"
       inkscape:connector-curvature="0"
       sodipodi:nodetypes="cc" />
    <path
       style="fill:none;stroke:#aa0000;stroke-width:3;stroke-linecap:butt;stroke-linejoin:miter;stroke-miterlimit:4;stroke-opacity:1;stroke-dasharray:none;marker-end:url(#Arrow2Sendr)"
       d="m 214.78231,461.48908 15.72191,-22.45989"
       id="path5894-3-5"
       inkscape:connector-curvature="0"
       sodipodi:nodetypes="cc" />
    <path
       style="fill:none;stroke:#aa0000;stroke-width:3;stroke-linecap:butt;stroke-linejoin:miter;stroke-miterlimit:4;stroke-opacity:1;stroke-dasharray:none;marker-end:url(#Arrow2Sendu3)"
       d="m 141.0053,417.73335 70.97326,-18.4171"
       id="path5894-1-4-4"
       inkscape:connector-curvature="0"
       sodipodi:nodetypes="cc" />
    <text
       xml:space="preserve"
       style="font-size:14px;font-style:normal;font-weight:normal;line-height:125%;letter-spacing:0px;word-spacing:0px;fill:#000000;fill-opacity:1;stroke:none;font-family:Sans"
       x="136.33154"
       y="353.63492"
       id="text3045"
       sodipodi:linespacing="125%"><tspan
         sodipodi:role="line"
         id="tspan3047"
         x="136.33154"
         y="353.63492">Potentiation</tspan></text>
  </g>
</svg>
