<?xml version="1.0" encoding="UTF-8" standalone="no"?>
<!-- Created with Inkscape (http://www.inkscape.org/) -->

<svg
   xmlns:dc="http://purl.org/dc/elements/1.1/"
   xmlns:cc="http://creativecommons.org/ns#"
   xmlns:rdf="http://www.w3.org/1999/02/22-rdf-syntax-ns#"
   xmlns:svg="http://www.w3.org/2000/svg"
   xmlns="http://www.w3.org/2000/svg"
   xmlns:sodipodi="http://sodipodi.sourceforge.net/DTD/sodipodi-0.dtd"
   xmlns:inkscape="http://www.inkscape.org/namespaces/inkscape"
   width="221.52277"
   height="295.87537"
   id="svg4439"
   version="1.1"
   inkscape:version="0.48.4 r9939"
   sodipodi:docname="New document 3">
  <defs
     id="defs4441" />
  <sodipodi:namedview
     id="base"
     pagecolor="#ffffff"
     bordercolor="#666666"
     borderopacity="1.0"
     inkscape:pageopacity="0.0"
     inkscape:pageshadow="2"
     inkscape:zoom="4.4106409"
     inkscape:cx="110.76138"
     inkscape:cy="147.93768"
     inkscape:document-units="px"
     inkscape:current-layer="layer1"
     showgrid="false"
     fit-margin-top="0"
     fit-margin-left="0"
     fit-margin-right="0"
     fit-margin-bottom="0"
     inkscape:window-width="1264"
     inkscape:window-height="1522"
     inkscape:window-x="1280"
     inkscape:window-y="0"
     inkscape:window-maximized="0" />
  <metadata
     id="metadata4444">
    <rdf:RDF>
      <cc:Work
         rdf:about="">
        <dc:format>image/svg+xml</dc:format>
        <dc:type
           rdf:resource="http://purl.org/dc/dcmitype/StillImage" />
        <dc:title></dc:title>
      </cc:Work>
    </rdf:RDF>
  </metadata>
  <g
     inkscape:label="Layer 1"
     inkscape:groupmode="layer"
     id="layer1"
     transform="translate(-264.23862,-384.4245)">
    <path
       d="m 361.85534,412.7595 -33.0575,0 0,43.58875 33.0575,0 0,-43.58875 z"
       style="fill:#110f0d;fill-opacity:1;fill-rule:evenodd;stroke:none"
       id="path242"
       inkscape:connector-curvature="0" />
    <path
       d="m 329.45922,413.38187 0.66125,-0.6225 0,42.965 -0.66125,-0.6225 32.39625,0 -0.6625,0.6225 0,-42.965 0.6625,0.6225 -32.39625,0 z m 32.39625,-1.245 c 0.33,0 0.66125,0.31125 0.66125,0.6225 l 0,42.965 c 0,0.35 -0.33125,0.6225 -0.66125,0.6225 l -32.39625,0 c -0.3725,0 -0.66125,-0.2725 -0.66125,-0.6225 l 0,-42.965 c 0,-0.31125 0.28875,-0.6225 0.66125,-0.6225 l 32.39625,0 z"
       style="fill:#110f0d;fill-opacity:1;fill-rule:nonzero;stroke:none"
       id="path244"
       inkscape:connector-curvature="0" />
    <path
       inkscape:connector-curvature="0"
       id="path248"
       style="fill:none;stroke:#110f0d;stroke-width:1.24874997;stroke-linecap:butt;stroke-linejoin:bevel;stroke-miterlimit:10;stroke-opacity:1;stroke-dasharray:none"
       d="m 329.45922,413.38187 0.66125,-0.6225 0,42.965 -0.66125,-0.6225 32.39625,0 -0.6625,0.6225 0,-42.965 0.6625,0.6225 -32.39625,0 z m 32.39625,-1.245 c 0.33,0 0.66125,0.31125 0.66125,0.6225 l 0,42.965 c 0,0.35 -0.33125,0.6225 -0.66125,0.6225 l -32.39625,0 c -0.3725,0 -0.66125,-0.2725 -0.66125,-0.6225 l 0,-42.965 c 0,-0.31125 0.28875,-0.6225 0.66125,-0.6225 l 32.39625,0 z" />
    <path
       d="m 373.0951,432.68612 0,3.73625 0,-3.73625 z m -22.48001,0 0,3.73625 0,-3.73625 z m 0,1.8675 11.24,0 11.24001,0 -22.48001,0 z"
       style="fill:#110f0d;fill-opacity:1;fill-rule:nonzero;stroke:none"
       id="path250"
       inkscape:connector-curvature="0" />
    <path
       d="m 373.7566,436.422 -1.3225,0 0,-3.73625 1.3225,0 0,3.73625 z m -22.48126,0 -1.32,0 0,-3.73625 1.32,0 0,3.73625 z m -0.66,-2.49125 11.24,0 11.24001,0 0,1.245 -11.24001,0 -11.24,0 0,-1.245 z"
       style="fill:#242222;fill-opacity:1;fill-rule:nonzero;stroke:none"
       id="path252"
       inkscape:connector-curvature="0" />
    <path
       d="m 373.7566,436.422 -1.3225,0 0,-3.73625 1.3225,0 0,3.73625 z m -22.48126,0 -1.32,0 0,-3.73625 1.32,0 0,3.73625 z m -0.66,-2.49125 11.24,0 11.24001,0 0,1.245 -11.24001,0 -11.24,0 0,-1.245 z"
       style="fill:none;stroke:#242222;stroke-width:0.0775;stroke-linecap:butt;stroke-linejoin:round;stroke-miterlimit:10;stroke-opacity:1;stroke-dasharray:none"
       id="path254"
       inkscape:connector-curvature="0" />
    <path
       d="m 425.32535,555.4045 -95.86751,0 0,42.96375 95.86751,0 0,-42.96375 z"
       style="fill:#c01e24;fill-opacity:1;fill-rule:evenodd;stroke:none"
       id="path256"
       inkscape:connector-curvature="0" />
    <path
       d="m 449.7876,575.3295 0,3.73625 0,-3.73625 z m -48.92375,0 0,3.73625 0,-3.73625 z m 0,1.8675 24.46125,0 24.4625,0 -48.92375,0 z"
       style="fill:#110f0d;fill-opacity:1;fill-rule:nonzero;stroke:none"
       id="path258"
       inkscape:connector-curvature="0" />
    <path
       d="m 450.45035,579.06575 -1.3225,0 0,-3.73625 1.3225,0 0,3.73625 z m -48.92625,0 -1.32125,0 0,-3.73625 1.32125,0 0,3.73625 z m -0.66,-2.49125 24.46125,0 24.4625,0 0,1.245 -24.4625,0 -24.46125,0 0,-1.245 z"
       style="fill:#242222;fill-opacity:1;fill-rule:nonzero;stroke:none"
       id="path260"
       inkscape:connector-curvature="0" />
    <path
       d="m 450.45035,579.06575 -1.3225,0 0,-3.73625 1.3225,0 0,3.73625 z m -48.92625,0 -1.32125,0 0,-3.73625 1.32125,0 0,3.73625 z m -0.66,-2.49125 24.46125,0 24.4625,0 0,1.245 -24.4625,0 -24.46125,0 0,-1.245 z"
       style="fill:none;stroke:#242222;stroke-width:0.0775;stroke-linecap:butt;stroke-linejoin:round;stroke-miterlimit:10;stroke-opacity:1;stroke-dasharray:none"
       id="path262"
       inkscape:connector-curvature="0" />
    <path
       d="m 329.45909,613.79825 123.30251,0 0,0.81625 -123.30251,0 0,-0.81625 z"
       style="fill:#808182;fill-opacity:1;fill-rule:nonzero;stroke:#808182;stroke-width:0.3125;stroke-linecap:butt;stroke-linejoin:bevel;stroke-miterlimit:10;stroke-opacity:1;stroke-dasharray:none"
       id="path264"
       inkscape:connector-curvature="0" />
    <path
       d="m 330.12034,616.707 -1.3225,0 0,-2.49125 1.3225,0 0,2.49125 z"
       style="fill:#808182;fill-opacity:1;fill-rule:nonzero;stroke:none"
       id="path266"
       inkscape:connector-curvature="0" />
    <path
       d="m 330.12034,616.707 -1.3225,0 0,-2.4925 1.3225,0 0,2.4925 z"
       style="fill:none;stroke:#808182;stroke-width:0.3125;stroke-linecap:butt;stroke-linejoin:bevel;stroke-miterlimit:10;stroke-opacity:1;stroke-dasharray:none"
       id="path268"
       inkscape:connector-curvature="0" />
    <path
       d="m 386.9791,616.707 -1.3225,0 0,-2.49125 1.3225,0 0,2.49125 z"
       style="fill:#808182;fill-opacity:1;fill-rule:nonzero;stroke:none"
       id="path270"
       inkscape:connector-curvature="0" />
    <path
       d="m 386.9791,616.707 -1.3225,0 0,-2.4925 1.3225,0 0,2.4925 z"
       style="fill:none;stroke:#808182;stroke-width:0.3125;stroke-linecap:butt;stroke-linejoin:bevel;stroke-miterlimit:10;stroke-opacity:1;stroke-dasharray:none"
       id="path272"
       inkscape:connector-curvature="0" />
    <path
       d="m 443.8391,616.707 -1.3225,0 0,-2.49125 1.3225,0 0,2.49125 z"
       style="fill:#808182;fill-opacity:1;fill-rule:nonzero;stroke:none"
       id="path274"
       inkscape:connector-curvature="0" />
    <path
       d="m 443.8391,616.707 -1.3225,0 0,-2.4925 1.3225,0 0,2.4925 z"
       style="fill:none;stroke:#808182;stroke-width:0.3125;stroke-linecap:butt;stroke-linejoin:bevel;stroke-miterlimit:10;stroke-opacity:1;stroke-dasharray:none"
       id="path276"
       inkscape:connector-curvature="0" />
    <text
       style="font-size:15px"
       id="text278"
       x="326.51123"
       y="633.58813">
      <tspan
         style="font-size:15px;font-variant:normal;font-weight:bold;writing-mode:lr-tb;fill:#231f20;fill-opacity:1;fill-rule:nonzero;stroke:none;font-family:Arial;-inkscape-font-specification:Arial-BoldMT"
         x="326.51123 334.85123"
         y="633.58813"
         sodipodi:role="line"
         id="tspan280">0%</tspan>
    </text>
    <text
       style="font-size:15px"
       id="text282"
       x="373.49121"
       y="633.58813">
      <tspan
         style="font-size:15px;font-variant:normal;font-weight:bold;writing-mode:lr-tb;fill:#231f20;fill-opacity:1;fill-rule:nonzero;stroke:none;font-family:Arial;-inkscape-font-specification:Arial-BoldMT"
         x="373.49121 381.83124 390.1712"
         y="633.58813"
         sodipodi:role="line"
         id="tspan284">10%</tspan>
    </text>
    <text
       style="font-size:15px"
       id="text286"
       x="430.89621"
       y="633.58813">
      <tspan
         style="font-size:15px;font-variant:normal;font-weight:bold;writing-mode:lr-tb;fill:#231f20;fill-opacity:1;fill-rule:nonzero;stroke:none;font-family:Arial;-inkscape-font-specification:Arial-BoldMT"
         x="430.89621 439.23621 447.5762"
         y="633.58813"
         sodipodi:role="line"
         id="tspan288">20%</tspan>
    </text>
    <text
       style="font-size:15px"
       id="text290"
       x="367.49884"
       y="659.08624">
      <tspan
         style="font-size:17.5px;font-variant:normal;font-weight:bold;writing-mode:lr-tb;fill:#231f20;fill-opacity:1;fill-rule:nonzero;stroke:none;font-family:Arial;-inkscape-font-specification:Arial-BoldMT"
         x="367.49884 378.19135 389.86383 399.59384 406.40134 416.13135 425.86136"
         y="659.08624"
         sodipodi:role="line"
         id="tspan292">pSer880</tspan>
    </text>
    <text
       style="font-size:15px"
       id="text294"
       x="316.46884"
       y="680.08624">
      <tspan
         style="font-size:17.5px;font-variant:normal;font-weight:bold;writing-mode:lr-tb;fill:#231f20;fill-opacity:1;fill-rule:nonzero;stroke:none;font-family:Arial;-inkscape-font-specification:Arial-BoldMT"
         x="316.46884 327.16135 337.85385 344.66135 360.21884 369.94885 374.81384 379.67883 388.42883 398.15884 408.85135 413.71634 419.54385 430.23636 435.10135 448.71634 453.58136 464.27386 476.90884"
         y="680.08624"
         sodipodi:role="line"
         id="tspan296">normalized to GluR2</tspan>
    </text>
    <path
       inkscape:connector-curvature="0"
       id="path300"
       style="fill:none;stroke:#231f20;stroke-width:0.625;stroke-linecap:butt;stroke-linejoin:miter;stroke-miterlimit:4;stroke-opacity:1;stroke-dasharray:none"
       d="m 460.26185,434.24187 0,142.83875" />
    <path
       inkscape:connector-curvature="0"
       id="path304"
       style="fill:none;stroke:#231f20;stroke-width:0.625;stroke-linecap:butt;stroke-linejoin:miter;stroke-miterlimit:4;stroke-opacity:1;stroke-dasharray:none"
       d="m 455.59022,434.24187 4.67125,0" />
    <path
       inkscape:connector-curvature="0"
       id="path308"
       style="fill:none;stroke:#231f20;stroke-width:0.625;stroke-linecap:butt;stroke-linejoin:miter;stroke-miterlimit:4;stroke-opacity:1;stroke-dasharray:none"
       d="m 455.59022,577.08062 4.67125,0" />
    <text
       style="font-size:15px"
       id="text310"
       x="468.9837"
       y="511.02347">
      <tspan
         style="font-size:17.5px;font-variant:normal;font-weight:normal;writing-mode:lr-tb;fill:#231f20;fill-opacity:1;fill-rule:nonzero;stroke:none;font-family:SimSun;-inkscape-font-specification:SimSun"
         x="468.9837"
         y="511.02347"
         id="tspan312">*</tspan>
    </text>
    <text
       style="font-size:15px"
       id="text648"
       x="270.62146"
       y="430.48828">
      <tspan
         style="font-size:17.5px;font-variant:normal;font-weight:bold;writing-mode:lr-tb;fill:#110f0d;fill-opacity:1;fill-rule:nonzero;stroke:none;font-family:Arial;-inkscape-font-specification:Arial-BoldMT"
         x="270.62146 287.14148 292.00647 296.87146 307.56396"
         y="430.48828"
         sodipodi:role="line"
         id="tspan650">Wild</tspan>
    </text>
    <text
       style="font-size:15px"
       id="text652"
       x="271.09396"
       y="451.48825">
      <tspan
         style="font-size:17.5px;font-variant:normal;font-weight:bold;writing-mode:lr-tb;fill:#110f0d;fill-opacity:1;fill-rule:nonzero;stroke:none;font-family:Arial;-inkscape-font-specification:Arial-BoldMT"
         x="271.09396 281.78647 291.51648 302.20898"
         y="451.48825"
         sodipodi:role="line"
         id="tspan654">Type</tspan>
    </text>
    <text
       style="font-size:15px"
       id="text656"
       x="269.15146"
       y="573.13074">
      <tspan
         style="font-size:17.5px;font-variant:normal;font-weight:bold;writing-mode:lr-tb;fill:#110f0d;fill-opacity:1;fill-rule:nonzero;stroke:none;font-family:Arial;-inkscape-font-specification:Arial-BoldMT"
         x="269.15146 283.72897 296.36395 308.99896"
         y="573.13074"
         sodipodi:role="line"
         id="tspan658">MHC</tspan>
    </text>
    <text
       style="font-size:15px"
       id="text660"
       x="262.97397"
       y="594.13074">
      <tspan
         style="font-size:17.5px;font-variant:normal;font-weight:bold;writing-mode:lr-tb;fill:#110f0d;fill-opacity:1;fill-rule:nonzero;stroke:none;font-family:Arial;-inkscape-font-specification:Arial-BoldMT"
         x="262.97397"
         y="594.13074"
         id="tspan662">D</tspan>
    </text>
    <text
       style="font-size:15px"
       id="text664"
       x="275.61584"
       y="589.13684">
      <tspan
         style="font-size:12.5px;font-variant:normal;font-weight:bold;writing-mode:lr-tb;fill:#110f0d;fill-opacity:1;fill-rule:nonzero;stroke:none;font-family:Arial;-inkscape-font-specification:Arial-BoldMT"
         x="275.61584"
         y="589.13684"
         id="tspan666">b</tspan>
    </text>
    <text
       style="font-size:15px"
       id="text668"
       x="283.25134"
       y="594.13684">
      <tspan
         style="font-size:17.5px;font-variant:normal;font-weight:bold;writing-mode:lr-tb;fill:#110f0d;fill-opacity:1;fill-rule:nonzero;stroke:none;font-family:Arial;-inkscape-font-specification:Arial-BoldMT"
         x="283.25134"
         y="594.13684"
         id="tspan670">K</tspan>
    </text>
    <text
       style="font-size:15px"
       id="text672"
       x="295.88934"
       y="589.13684">
      <tspan
         style="font-size:12.5px;font-variant:normal;font-weight:bold;writing-mode:lr-tb;fill:#110f0d;fill-opacity:1;fill-rule:nonzero;stroke:none;font-family:Arial;-inkscape-font-specification:Arial-BoldMT"
         x="295.88934"
         y="589.13684"
         id="tspan674">b</tspan>
    </text>
    <text
       style="font-size:15px"
       id="text676"
       x="303.52484"
       y="594.13684">
      <tspan
         style="font-size:17.5px;font-variant:normal;font-weight:bold;writing-mode:lr-tb;fill:#110f0d;fill-opacity:1;fill-rule:nonzero;stroke:none;font-family:Arial;-inkscape-font-specification:Arial-BoldMT"
         x="303.52484 309.35236 314.21735"
         y="594.13684"
         sodipodi:role="line"
         id="tspan678">-/-</tspan>
    </text>
    <path
       d="m 328.55284,384.58075 0.45875,0 0,229.88375 -0.45875,0 0,-229.88375 z"
       style="fill:#808182;fill-opacity:1;fill-rule:nonzero;stroke:#808182;stroke-width:0.3125;stroke-linecap:butt;stroke-linejoin:bevel;stroke-miterlimit:10;stroke-opacity:1;stroke-dasharray:none"
       id="path680"
       inkscape:connector-curvature="0" />
  </g>
</svg>
