<?xml version="1.0" encoding="UTF-8" standalone="no"?>
<!-- Created with Inkscape (http://www.inkscape.org/) -->

<svg
   xmlns:dc="http://purl.org/dc/elements/1.1/"
   xmlns:cc="http://creativecommons.org/ns#"
   xmlns:rdf="http://www.w3.org/1999/02/22-rdf-syntax-ns#"
   xmlns:svg="http://www.w3.org/2000/svg"
   xmlns="http://www.w3.org/2000/svg"
   xmlns:sodipodi="http://sodipodi.sourceforge.net/DTD/sodipodi-0.dtd"
   xmlns:inkscape="http://www.inkscape.org/namespaces/inkscape"
   width="270.67276"
   height="231.64886"
   id="svg5510"
   version="1.1"
   inkscape:version="0.48.4 r9939"
   sodipodi:docname="rescue.svg">
  <defs
     id="defs5512" />
  <sodipodi:namedview
     id="base"
     pagecolor="#ffffff"
     bordercolor="#666666"
     borderopacity="1.0"
     inkscape:pageopacity="0.0"
     inkscape:pageshadow="2"
     inkscape:zoom="4.189561"
     inkscape:cx="135.33638"
     inkscape:cy="115.82443"
     inkscape:document-units="px"
     inkscape:current-layer="layer1"
     showgrid="false"
     inkscape:window-width="1264"
     inkscape:window-height="1522"
     inkscape:window-x="1280"
     inkscape:window-y="0"
     inkscape:window-maximized="0"
     fit-margin-top="0"
     fit-margin-left="0"
     fit-margin-right="0"
     fit-margin-bottom="0" />
  <metadata
     id="metadata5515">
    <rdf:RDF>
      <cc:Work
         rdf:about="">
        <dc:format>image/svg+xml</dc:format>
        <dc:type
           rdf:resource="http://purl.org/dc/dcmitype/StillImage" />
        <dc:title />
      </cc:Work>
    </rdf:RDF>
  </metadata>
  <g
     inkscape:label="Layer 1"
     inkscape:groupmode="layer"
     id="layer1"
     transform="translate(-239.66362,-416.53776)">
    <g
       id="g230"
       transform="matrix(1.25,0,0,-1.25,434.84855,485.0735)">
      <path
         d="m 0,0 c -0.592,-3.785 -3.667,-5 -6.624,-3.244 -1.064,0.81 -1.892,2.838 -0.709,4.053 0.945,0.812 2.956,0.947 4.257,0.947 0.592,0.135 1.301,-0.272 1.42,0.541 0.118,0 0.236,0 0.355,0.135 0,0.269 0.117,0.541 0,0.81"
         style="fill:none;stroke:#110f0d;stroke-width:3.13100004;stroke-linecap:butt;stroke-linejoin:miter;stroke-miterlimit:4;stroke-opacity:1;stroke-dasharray:none"
         id="path232"
         inkscape:connector-curvature="0" />
    </g>
    <g
       id="g234"
       transform="matrix(1.25,0,0,-1.25,424.79492,484.56813)">
      <path
         d="m 0,0 c 0,-1.486 0.354,-4.594 -1.893,-3.648 -1.301,0.675 -1.419,2.972 -1.419,4.324 0,3.377 1.893,5.81 4.731,6.486 1.065,0.27 4.731,0.404 5.086,1.484"
         style="fill:none;stroke:#110f0d;stroke-width:3.13100004;stroke-linecap:butt;stroke-linejoin:miter;stroke-miterlimit:4;stroke-opacity:1;stroke-dasharray:none"
         id="path236"
         inkscape:connector-curvature="0" />
    </g>
    <g
       id="g238"
       transform="matrix(1.25,0,0,-1.25,426.86392,474.77075)">
      <path
         d="m 0,0 c 0,0.809 0,1.621 -0.236,2.297 -1.065,0.135 -2.839,0.945 -3.431,2.025 -0.709,1.217 -0.709,3.921 -0.117,5.136 0.591,1.352 1.774,2.566 2.601,3.514 1.065,1.08 1.775,2.025 2.839,3.107 0.118,0.27 0.355,0.541 0.355,0.811 0.71,0.541 2.366,0.945 2.839,0.269 0.71,-0.81 0.71,-2.431 0.71,-3.783 C 5.56,12.024 5.204,10.944 4.85,9.593 4.612,8.782 3.903,7.026 4.14,6.215"
         style="fill:none;stroke:#110f0d;stroke-width:3.13100004;stroke-linecap:butt;stroke-linejoin:miter;stroke-miterlimit:4;stroke-opacity:1;stroke-dasharray:none"
         id="path240"
         inkscape:connector-curvature="0" />
    </g>
    <g
       id="g242"
       transform="matrix(1.25,0,0,-1.25,431.30004,452.6455)">
      <path
         d="m 0,0 c 0.118,0.541 1.063,1.758 1.538,2.162 l 0,0.27 C 2.72,3.379 4.14,3.918 5.677,3.783 6.388,1.893 6.032,-0.134 5.56,-1.893 5.204,-3.513 5.56,-6.08 4.376,-7.297"
         style="fill:none;stroke:#110f0d;stroke-width:3.13100004;stroke-linecap:butt;stroke-linejoin:miter;stroke-miterlimit:4;stroke-opacity:1;stroke-dasharray:none"
         id="path244"
         inkscape:connector-curvature="0" />
    </g>
    <g
       id="g246"
       transform="matrix(1.25,0,0,-1.25,438.69255,448.76063)">
      <path
         d="m 0,0 c 0.71,1.893 2.839,2.568 4.494,3.244 0.946,0.404 2.011,0.404 3.194,0.541 1.301,0 2.129,-0.406 3.194,-0.678 0.827,-1.349 -0.473,-3.242 -1.656,-3.511 l 0,-0.272 C 7.451,-1.215 6.741,-2.297 5.796,-3.918 4.612,-5.674 4.73,-7.566 4.376,-9.729"
         style="fill:none;stroke:#110f0d;stroke-width:3.13100004;stroke-linecap:butt;stroke-linejoin:miter;stroke-miterlimit:4;stroke-opacity:1;stroke-dasharray:none"
         id="path248"
         inkscape:connector-curvature="0" />
    </g>
    <g
       id="g250"
       transform="matrix(1.25,0,0,-1.25,484.67217,452.30863)">
      <path
         d="M 0,0 C 0,1.217 -0.591,4.055 -1.183,4.73 -2.129,5.811 -3.902,6.217 -5.086,6.486 -5.914,6.623 -7.096,6.758 -7.924,6.623 -8.871,6.352 -8.871,5.945 -9.107,5 c -0.356,-1.891 0.236,-2.838 1.3,-4.189 0,-0.135 0.356,0 0.356,0 0.118,-0.135 0.118,-0.54 0.236,-0.674 0.119,-0.137 0.237,-0.541 0.355,-0.813 0.237,-0.539 0.473,-1.215 0.828,-1.756 0.591,-1.216 1.302,-2.701 2.13,-3.377 0,-0.406 0.117,-0.541 0.353,-0.81"
         style="fill:none;stroke:#110f0d;stroke-width:3.13100004;stroke-linecap:butt;stroke-linejoin:miter;stroke-miterlimit:4;stroke-opacity:1;stroke-dasharray:none"
         id="path252"
         inkscape:connector-curvature="0" />
    </g>
    <g
       id="g254"
       transform="matrix(1.25,0,0,-1.25,452.44255,445.21325)">
      <path
         d="m 0,0 c 0.472,0.27 0.709,0.675 1.183,0.947 0.472,0.405 1.183,0.405 1.3,1.079 0.829,0.677 2.957,0.27 4.022,0.27 1.42,0 2.839,0 4.258,-0.134 2.13,-0.271 4.139,-1.621 5.796,-3.107"
         style="fill:none;stroke:#110f0d;stroke-width:3.13100004;stroke-linecap:butt;stroke-linejoin:miter;stroke-miterlimit:4;stroke-opacity:1;stroke-dasharray:none"
         id="path256"
         inkscape:connector-curvature="0" />
    </g>
    <g
       id="g258"
       transform="matrix(1.25,0,0,-1.25,483.93367,447.74813)">
      <path
         d="M 0,0 0,0.271 C 0.946,1.352 3.076,1.082 4.139,0.541 4.73,0.271 5.086,0 5.559,-0.404 6.27,-1.08 6.625,-0.945 7.453,-1.215 c 0,-1.217 0,-2.297 -0.355,-3.379 C 6.625,-5.404 6.505,-6.35 6.389,-7.432 5.914,-9.322 4.73,-11.078 4.495,-13.105"
         style="fill:none;stroke:#110f0d;stroke-width:3.13100004;stroke-linecap:butt;stroke-linejoin:miter;stroke-miterlimit:4;stroke-opacity:1;stroke-dasharray:none"
         id="path260"
         inkscape:connector-curvature="0" />
    </g>
    <g
       id="g262"
       transform="matrix(1.25,0,0,-1.25,493.25004,450.95613)">
      <path
         d="m 0,0 c 0.117,0.945 1.182,0.945 1.891,0.811 0.827,0 1.065,-0.27 1.775,-0.811 1.063,-1.082 2.01,-1.758 2.957,-2.838 0.591,-0.676 1.065,-1.08 1.536,-1.756 0.473,-0.541 0.948,-1.082 1.42,-1.892 0.355,-0.676 0.592,-1.08 0.826,-2.026 0,-0.406 0.12,-0.812 0.12,-1.351 0,-0.946 0.118,-0.811 -0.591,-1.082 -0.593,-0.27 -1.658,-0.135 -2.366,-0.135 0.829,0 1.893,-3.108 1.301,-3.919 -0.828,-0.945 -3.074,0.945 -3.666,1.352 -1.183,0.675 -2.602,0.81 -4.021,0.404 -0.947,-0.27 -2.602,-1.215 -3.313,-2.16"
         style="fill:none;stroke:#110f0d;stroke-width:3.13100004;stroke-linecap:butt;stroke-linejoin:miter;stroke-miterlimit:4;stroke-opacity:1;stroke-dasharray:none"
         id="path264"
         inkscape:connector-curvature="0" />
    </g>
    <g
       id="g266"
       transform="matrix(1.25,0,0,-1.25,496.79617,478.65688)">
      <path
         d="m 0,0 c 0.356,-0.539 0.236,-0.945 0.946,-1.215 0.709,-0.269 1.537,-0.135 2.247,0 1.42,0 2.722,0.27 3.549,-0.676 0.592,-0.675 0.71,-2.568 0.592,-3.513 -0.119,-1.352 -1.419,-1.487 -2.13,-2.297 -0.709,0 -1.773,-0.135 -2.365,-0.135 -0.828,0.135 -0.947,0.404 -1.537,0.811 -1.066,0.675 -1.775,1.08 -2.486,2.027 -0.944,1.621 -1.653,4.594 -3.547,5.404 -0.119,0.135 0,0.269 -0.119,0.269"
         style="fill:none;stroke:#110f0d;stroke-width:3.13100004;stroke-linecap:butt;stroke-linejoin:miter;stroke-miterlimit:4;stroke-opacity:1;stroke-dasharray:none"
         id="path268"
         inkscape:connector-curvature="0" />
    </g>
    <g
       id="g270"
       transform="matrix(1.25,0,0,-1.25,501.23104,469.02863)">
      <path
         d="m 0,0 c 0.237,-0.541 0.475,-0.811 0.71,-0.945 0,-0.948 0.119,-2.299 -0.235,-2.703 0.354,-0.946 1.062,-0.541 1.654,-0.811 0.354,-0.135 0.947,-0.676 1.419,-1.082 1.064,-0.945 1.183,-2.973 2.012,-4.188 0.473,-3.107 -0.12,-3.513 -1.657,-3.783"
         style="fill:none;stroke:#110f0d;stroke-width:3.13100004;stroke-linecap:butt;stroke-linejoin:miter;stroke-miterlimit:4;stroke-opacity:1;stroke-dasharray:none"
         id="path272"
         inkscape:connector-curvature="0" />
    </g>
    <g
       id="g274"
       transform="matrix(1.25,0,0,-1.25,433.96117,486.76363)">
      <path
         d="m 0,0 c 0.473,-1.757 0.354,-3.244 1.064,-4.865 0.591,-1.08 2.011,-2.701 2.839,-3.242 3.312,-1.891 6.86,-3.92 10.645,-4.055 4.495,-0.27 9.107,0 13.601,0 3.431,0 6.979,-0.135 10.173,0.81 1.065,0.272 1.893,1.082 2.72,1.759 0.829,0.538 2.012,1.079 2.603,2.027 1.419,0.404 3.075,2.432 4.022,3.646 1.537,1.893 1.892,3.649 1.892,6.08"
         style="fill:none;stroke:#110f0d;stroke-width:3.13100004;stroke-linecap:butt;stroke-linejoin:miter;stroke-miterlimit:4;stroke-opacity:1;stroke-dasharray:none"
         id="path276"
         inkscape:connector-curvature="0" />
    </g>
    <g
       id="g278"
       transform="matrix(1.25,0,0,-1.25,453.32879,458.8955)">
      <path
         d="m 0,0 c 2.957,1.758 3.549,5.136 7.925,4.729 3.193,-0.134 5.914,-3.108 7.57,-5.541"
         style="fill:none;stroke:#110f0d;stroke-width:3.13100004;stroke-linecap:butt;stroke-linejoin:miter;stroke-miterlimit:4;stroke-opacity:1;stroke-dasharray:none"
         id="path280"
         inkscape:connector-curvature="0" />
    </g>
    <path
       d="m 420.65492,485.91825 c 0,1.01625 0.44375,1.86 0.8875,1.86 0.59125,0 1.03375,-0.84375 1.03375,-1.86 0,-1.18125 -0.4425,-2.02625 -1.03375,-2.02625 -0.44375,0 -0.8875,0.845 -0.8875,2.02625"
       style="fill:#110f0d;fill-opacity:1;fill-rule:nonzero;stroke:none"
       id="path282"
       inkscape:connector-curvature="0" />
    <path
       d="m 421.09854,485.91825 c 0,1.01625 0.44375,1.86 0.88625,1.86 0.59125,0 1.03625,-0.84375 1.03625,-1.86 0,-1.18125 -0.445,-2.02625 -1.03625,-2.02625 -0.4425,0 -0.88625,0.845 -0.88625,2.02625"
       style="fill:#110f0d;fill-opacity:1;fill-rule:nonzero;stroke:none"
       id="path284"
       inkscape:connector-curvature="0" />
    <path
       d="m 421.98479,485.91825 c 0,1.01625 0.44375,1.86 0.73875,1.86 0.44375,0 0.74125,-0.84375 0.74125,-1.86 0,-1.18125 -0.2975,-2.02625 -0.74125,-2.02625 -0.295,0 -0.73875,0.845 -0.73875,2.02625"
       style="fill:#ffffff;fill-opacity:1;fill-rule:nonzero;stroke:none"
       id="path286"
       inkscape:connector-curvature="0" />
    <path
       d="m 432.57242,445.59838 -6.38875,0 0,-16.6125 6.38875,0 0,16.6125 z"
       style="fill:none;stroke:#110f0d;stroke-width:1.46749997;stroke-linecap:butt;stroke-linejoin:miter;stroke-miterlimit:4;stroke-opacity:1;stroke-dasharray:none"
       id="path288"
       inkscape:connector-curvature="0" />
    <path
       d="m 432.57242,445.59838 -6.38875,0 0,-8.99625 6.38875,0 0,8.99625 z"
       style="fill:#32902d;fill-opacity:1;fill-rule:nonzero;stroke:#110f0d;stroke-width:0.97874999;stroke-linecap:butt;stroke-linejoin:miter;stroke-miterlimit:4;stroke-opacity:1;stroke-dasharray:none"
       id="path290"
       inkscape:connector-curvature="0" />
    <g
       id="g292"
       transform="matrix(1.25,0,0,-1.25,429.16379,428.98588)">
      <path
         d="M 0,0 0,9.567"
         style="fill:none;stroke:#110f0d;stroke-width:0.78299999;stroke-linecap:butt;stroke-linejoin:miter;stroke-miterlimit:4;stroke-opacity:1;stroke-dasharray:none"
         id="path294"
         inkscape:connector-curvature="0" />
    </g>
    <g
       id="g296"
       transform="matrix(1.25,0,0,-1.25,427.03605,417.02726)">
      <path
         d="M 0,0 3.576,0"
         style="fill:none;stroke:#110f0d;stroke-width:0.78299999;stroke-linecap:butt;stroke-linejoin:miter;stroke-miterlimit:4;stroke-opacity:1;stroke-dasharray:none"
         id="path298"
         inkscape:connector-curvature="0" />
    </g>
    <g
       id="g300"
       transform="matrix(1.25,0,0,-1.25,429.22967,445.38238)">
      <path
         d="M 0,0 0,-32.7"
         style="fill:none;stroke:#110f0d;stroke-width:1.56599998;stroke-linecap:butt;stroke-linejoin:miter;stroke-miterlimit:4;stroke-opacity:1;stroke-dasharray:none"
         id="path302"
         inkscape:connector-curvature="0" />
    </g>
    <text
       transform="scale(0.95799848,1.043843)"
       id="text304"
       x="376.66898"
       y="568.03241"
       style="font-size:14.36997795px">
      <tspan
         style="font-size:21.55496597px;font-variant:normal;font-weight:bold;writing-mode:lr-tb;fill:#110f0d;fill-opacity:1;fill-rule:nonzero;stroke:none;font-family:Arial;-inkscape-font-specification:Arial-BoldMT"
         x="376.66898"
         y="568.03241"
         id="tspan306">-</tspan>
    </text>
    <g
       id="g308"
       transform="matrix(1.25,0,0,-1.25,432.74229,495.31463)">
      <path
         d="M 0,0 -17.59,-28.858"
         style="fill:none;stroke:#110f0d;stroke-width:0.5;stroke-linecap:butt;stroke-linejoin:miter;stroke-miterlimit:4;stroke-opacity:1;stroke-dasharray:2, 2;stroke-dashoffset:0"
         id="path310"
         inkscape:connector-curvature="0" />
    </g>
    <text
       style="font-size:15px"
       id="text312"
       x="239.67216"
       y="602.40259">
      <tspan
         style="font-size:17.5px;font-variant:normal;font-weight:bold;writing-mode:lr-tb;fill:#110f0d;fill-opacity:1;fill-rule:nonzero;stroke:none;font-family:Arial;-inkscape-font-specification:Arial-BoldMT"
         x="239.67216 251.34467 261.07468 270.80466 276.63217 281.49716 292.18967 302.88217 307.74716 317.47717"
         y="602.40259"
         sodipodi:role="line"
         id="tspan314">Vestibular</tspan>
    </text>
    <text
       style="font-size:15px"
       id="text316"
       x="239.67216"
       y="622.77258">
      <tspan
         style="font-size:17.5px;font-variant:normal;font-weight:bold;writing-mode:lr-tb;fill:#110f0d;fill-opacity:1;fill-rule:nonzero;stroke:none;font-family:Arial;-inkscape-font-specification:Arial-BoldMT"
         x="239.67216 244.53717 255.22968 265.92218 276.61469"
         y="622.77258"
         sodipodi:role="line"
         id="tspan318">input</tspan>
    </text>
    <path
       d="m 346.59842,431.51575 6.41625,10.7275"
       style="fill:#0b8ed8;fill-opacity:1;fill-rule:nonzero;stroke:none"
       id="path320"
       inkscape:connector-curvature="0" />
    <g
       id="g322"
       transform="matrix(1.25,0,0,-1.25,346.59842,431.51576)">
      <path
         d="M 0,0 5.133,-8.582"
         style="fill:#3b4ca7;fill-opacity:1;fill-rule:nonzero;stroke:#2f3591;stroke-width:4;stroke-linecap:butt;stroke-linejoin:miter;stroke-miterlimit:4;stroke-opacity:1;stroke-dasharray:none"
         id="path324"
         inkscape:connector-curvature="0" />
    </g>
    <path
       d="m 341.46354,440.97075 9.96625,-1.37875 5.9275,-8.12625 3.3175,23.585 -19.21125,-14.08 z"
       style="fill:#3b4ca7;fill-opacity:1;fill-rule:nonzero;stroke:none"
       id="path326"
       inkscape:connector-curvature="0" />
    <g
       id="g328"
       transform="matrix(1.25,0,0,-1.25,341.46354,440.97075)">
      <path
         d="M 0,0 7.973,1.103 12.715,7.604 15.369,-11.264 0,0 z"
         style="fill:none;stroke:#2f3591;stroke-width:1;stroke-linecap:butt;stroke-linejoin:miter;stroke-miterlimit:4;stroke-opacity:1;stroke-dasharray:none"
         id="path330"
         inkscape:connector-curvature="0" />
    </g>
    <g
       id="g332"
       transform="matrix(1.25,0,0,-1.25,426.50142,477.84938)">
      <path
         d="M 0,0 -29.058,16.167"
         style="fill:none;stroke:#110f0d;stroke-width:0.5;stroke-linecap:butt;stroke-linejoin:miter;stroke-miterlimit:4;stroke-opacity:1;stroke-dasharray:2, 2;stroke-dashoffset:0"
         id="path334"
         inkscape:connector-curvature="0" />
    </g>
    <text
       style="font-size:15px"
       id="text336"
       x="299.67041"
       y="480.73386">
      <tspan
         style="font-size:17.5px;font-variant:normal;font-weight:bold;writing-mode:lr-tb;fill:#231f20;fill-opacity:1;fill-rule:nonzero;stroke:none;font-family:Arial;-inkscape-font-specification:Arial-BoldMT"
         x="299.67041 311.34293"
         y="480.73386"
         sodipodi:role="line"
         id="tspan338">PF</tspan>
    </text>
    <path
       d="m 388.22142,460.57463 c 0.36375,-0.0113 0.69625,0.085 0.9525,0.2525 0.8025,1.56 2.9725,2.69875 2.90625,4.29875 -0.0675,1.595 -1.8925,2.975 -2.59,4.58875 -0.235,0.18625 -0.5575,0.31 -0.92125,0.32125 -0.3625,0.015 -0.69375,-0.0838 -0.93625,-0.25125 -0.24375,-0.1725 -0.4,-0.41 -0.4025,-0.68375 0.6475,-2.60375 0.30375,-5.1225 -0.29125,-7.72625 -0.007,-0.19125 0.11125,-0.38125 0.36625,-0.4775 0.23125,-0.1875 0.555,-0.30875 0.91625,-0.3225"
       style="fill:#231f20;fill-opacity:1;fill-rule:nonzero;stroke:none"
       id="path384"
       inkscape:connector-curvature="0" />
    <path
       inkscape:connector-curvature="0"
       id="path388"
       style="fill:none;stroke:#231f20;stroke-width:1.25;stroke-linecap:round;stroke-linejoin:miter;stroke-miterlimit:1;stroke-opacity:1;stroke-dasharray:none"
       d="m 388.22142,460.57463 c 0.36375,-0.0113 0.69625,0.085 0.9525,0.2525 0.8025,1.56 2.9725,2.69875 2.90625,4.29875 -0.0675,1.595 -1.8925,2.975 -2.59,4.58875 -0.235,0.18625 -0.5575,0.31 -0.92125,0.32125 -0.3625,0.015 -0.69375,-0.0838 -0.93625,-0.25125 -0.24375,-0.1725 -0.4,-0.41 -0.4025,-0.68375 0.6475,-2.60375 0.30375,-5.1225 -0.29125,-7.72625 -0.007,-0.19125 0.11125,-0.38125 0.36625,-0.4775 0.23125,-0.1875 0.555,-0.30875 0.91625,-0.3225 z" />
    <path
       d="m 336.20842,560.29687 c 0,0.36375 -0.11,0.6925 -0.28625,0.9425 -1.58875,0.74625 -2.8075,2.87125 -4.40125,2.74625 -1.5925,-0.125 -2.905,-2 -4.4925,-2.75625 -0.1775,-0.24125 -0.2875,-0.56875 -0.2875,-0.9325 0,-0.36125 0.11,-0.69 0.2875,-0.9275 0.17875,-0.2375 0.42375,-0.38375 0.69625,-0.37625 2.5775,0.7425 5.11,0.4925 7.73375,-0.007 0.18875,0 0.375,0.125 0.4625,0.38375 0.1775,0.2375 0.2875,0.56625 0.2875,0.9275"
       style="fill:#231f20;fill-opacity:1;fill-rule:nonzero;stroke:none"
       id="path390"
       inkscape:connector-curvature="0" />
    <path
       inkscape:connector-curvature="0"
       id="path394"
       style="fill:none;stroke:#231f20;stroke-width:1.25;stroke-linecap:round;stroke-linejoin:miter;stroke-miterlimit:1;stroke-opacity:1;stroke-dasharray:none"
       d="m 336.20842,560.29687 c 0,0.36375 -0.11,0.6925 -0.28625,0.9425 -1.58875,0.74625 -2.8075,2.87125 -4.40125,2.74625 -1.5925,-0.125 -2.905,-2 -4.4925,-2.75625 -0.1775,-0.24125 -0.2875,-0.56875 -0.2875,-0.9325 0,-0.36125 0.11,-0.69 0.2875,-0.9275 0.17875,-0.2375 0.42375,-0.38375 0.69625,-0.37625 2.5775,0.7425 5.11,0.4925 7.73375,-0.007 0.18875,0 0.375,0.125 0.4625,0.38375 0.1775,0.2375 0.2875,0.56625 0.2875,0.9275 z" />
    <path
       d="m 355.00367,611.84475 c -0.36375,0 -0.6925,-0.11 -0.9425,-0.28625 -0.74625,-1.58875 -2.87125,-2.8075 -2.74625,-4.40125 0.125,-1.5925 2,-2.905 2.75625,-4.4925 0.24125,-0.1775 0.56875,-0.2875 0.9325,-0.2875 0.36125,0 0.69,0.11 0.9275,0.2875 0.2375,0.17875 0.38375,0.42375 0.37625,0.69625 -0.7425,2.5775 -0.4925,5.11 0.008,7.73375 0,0.18875 -0.125,0.375 -0.38375,0.4625 -0.2375,0.1775 -0.56625,0.2875 -0.9275,0.2875"
       style="fill:#231f20;fill-opacity:1;fill-rule:nonzero;stroke:none"
       id="path396"
       inkscape:connector-curvature="0" />
    <path
       inkscape:connector-curvature="0"
       id="path400"
       style="fill:none;stroke:#231f20;stroke-width:1.875;stroke-linecap:round;stroke-linejoin:miter;stroke-miterlimit:1;stroke-opacity:1;stroke-dasharray:none"
       d="m 355.00367,611.84475 c -0.36375,0 -0.6925,-0.11 -0.9425,-0.28625 -0.74625,-1.58875 -2.87125,-2.8075 -2.74625,-4.40125 0.125,-1.5925 2,-2.905 2.75625,-4.4925 0.24125,-0.1775 0.56875,-0.2875 0.9325,-0.2875 0.36125,0 0.69,0.11 0.9275,0.2875 0.2375,0.17875 0.38375,0.42375 0.37625,0.69625 -0.7425,2.5775 -0.4925,5.11 0.008,7.73375 0,0.18875 -0.125,0.375 -0.38375,0.4625 -0.2375,0.1775 -0.56625,0.2875 -0.9275,0.2875 z" />
    <path
       d="m 377.29979,585.86087 c 0,1.74625 -1.46875,3.16375 -3.28125,3.16375 -1.81125,0 -3.28125,-1.4175 -3.28125,-3.16375 0,-1.74625 1.47,-3.16375 3.28125,-3.16375 1.8125,0 3.28125,1.4175 3.28125,3.16375"
       style="fill:#0a6b38;fill-opacity:1;fill-rule:nonzero;stroke:none"
       id="path402"
       inkscape:connector-curvature="0" />
    <path
       inkscape:connector-curvature="0"
       id="path406"
       style="fill:none;stroke:#231f20;stroke-width:1.875;stroke-linecap:butt;stroke-linejoin:round;stroke-miterlimit:10;stroke-opacity:1;stroke-dasharray:none"
       d="m 424.23217,567.836 c 0,8.80375 -7.13625,15.9375 -15.9375,15.9375 -8.8025,0 -15.9375,-7.13375 -15.9375,-15.9375 0,-8.80125 7.135,-15.9375 15.9375,-15.9375 8.80125,0 15.9375,7.13625 15.9375,15.9375 z" />
    <path
       inkscape:connector-curvature="0"
       id="path410"
       style="fill:#231f20;fill-opacity:1;fill-rule:nonzero;stroke:#0a6b38;stroke-width:1.875;stroke-linecap:round;stroke-linejoin:miter;stroke-miterlimit:1;stroke-opacity:1;stroke-dasharray:none"
       d="m 364.11617,467.11088 20,16.25" />
    <path
       inkscape:connector-curvature="0"
       id="path414"
       style="fill:none;stroke:#0a6b38;stroke-width:1.875;stroke-linecap:round;stroke-linejoin:miter;stroke-miterlimit:1;stroke-opacity:1;stroke-dasharray:none"
       d="m 364.74117,442.73588 0,24.375" />
    <path
       inkscape:connector-curvature="0"
       id="path418"
       style="fill:none;stroke:#0a6b38;stroke-width:1.875;stroke-linecap:round;stroke-linejoin:miter;stroke-miterlimit:1;stroke-opacity:1;stroke-dasharray:none"
       d="m 384.11617,457.73588 0,24.375" />
    <path
       inkscape:connector-curvature="0"
       id="path422"
       style="fill:none;stroke:#0a6b38;stroke-width:1.875;stroke-linecap:round;stroke-linejoin:miter;stroke-miterlimit:1;stroke-opacity:1;stroke-dasharray:none"
       d="m 373.95992,474.61088 0,14.375" />
    <path
       inkscape:connector-curvature="0"
       id="path426"
       style="fill:none;stroke:#0a6b38;stroke-width:1.875;stroke-linecap:round;stroke-linejoin:miter;stroke-miterlimit:1;stroke-opacity:1;stroke-dasharray:none"
       d="m 373.95992,451.17338 0,24.375" />
    <path
       inkscape:connector-curvature="0"
       id="path430"
       style="fill:none;stroke:#0a6b38;stroke-width:1.875;stroke-linecap:round;stroke-linejoin:round;stroke-miterlimit:10;stroke-opacity:1;stroke-dasharray:none"
       d="m 389.91629,513.82963 c 0,8.89249 -7.075,16.09999 -15.8,16.09999 -8.72625,0 -15.79875,-7.2075 -15.79875,-16.09999 0,-1.4825 0.195,-2.91875 0.56375,-4.29 2.43625,-6.81 6.43375,-11.61125 10.83375,-17.21 2.4,-2.79875 6.40125,-2.79875 8.80125,0 4.4,5.2 8.4,10.4 10.835,17.21 0.3675,1.37125 0.565,2.8075 0.565,4.29 z" />
    <path
       inkscape:connector-curvature="0"
       id="path434"
       style="fill:none;stroke:#0a6b38;stroke-width:1.875;stroke-linecap:round;stroke-linejoin:round;stroke-miterlimit:10;stroke-opacity:1;stroke-dasharray:none"
       d="m 374.01854,529.9295 0,54.68125" />
    <path
       inkscape:connector-curvature="0"
       id="path438"
       style="fill:#231f20;fill-opacity:1;fill-rule:nonzero;stroke:#231f20;stroke-width:1.875;stroke-linecap:round;stroke-linejoin:miter;stroke-miterlimit:1;stroke-opacity:1;stroke-dasharray:none"
       d="m 284.58492,463.36088 75.625,0" />
    <path
       inkscape:connector-curvature="0"
       id="path442"
       style="fill:#231f20;fill-opacity:1;fill-rule:nonzero;stroke:#231f20;stroke-width:1.875;stroke-linecap:round;stroke-linejoin:miter;stroke-miterlimit:1;stroke-opacity:1;stroke-dasharray:none"
       d="m 257.08492,607.11087 95.4775,0" />
    <path
       inkscape:connector-curvature="0"
       id="path446"
       style="fill:none;stroke:#231f20;stroke-width:1.875;stroke-linecap:round;stroke-linejoin:miter;stroke-miterlimit:1;stroke-opacity:1;stroke-dasharray:none"
       d="m 331.47517,607.11087 0,-43.125" />
    <path
       inkscape:connector-curvature="0"
       id="path450"
       style="fill:#231f20;fill-opacity:1;fill-rule:nonzero;stroke:#231f20;stroke-width:1.875;stroke-linecap:round;stroke-linejoin:miter;stroke-miterlimit:1;stroke-opacity:1;stroke-dasharray:none"
       d="m 408.29467,550.86087 0,-73.12499" />
    <path
       inkscape:connector-curvature="0"
       id="path454"
       style="fill:none;stroke:#231f20;stroke-width:1.875;stroke-linecap:round;stroke-linejoin:miter;stroke-miterlimit:1;stroke-opacity:1;stroke-dasharray:none"
       d="m 392.14354,465.11325 16.15125,13.2475" />
    <path
       d="m 360.15129,468.09475 c -0.36375,0 -0.6925,-0.11 -0.9425,-0.28625 -0.74625,-1.58875 -2.87125,-2.8075 -2.74625,-4.40125 0.125,-1.5925 2,-2.905 2.75625,-4.4925 0.24125,-0.1775 0.56875,-0.2875 0.9325,-0.2875 0.36125,0 0.69,0.11 0.9275,0.2875 0.2375,0.17875 0.38375,0.42375 0.37625,0.69625 -0.7425,2.5775 -0.4925,5.11 0.007,7.73375 0,0.18875 -0.125,0.375 -0.38375,0.4625 -0.2375,0.1775 -0.56625,0.2875 -0.9275,0.2875"
       style="fill:#231f20;fill-opacity:1;fill-rule:nonzero;stroke:none"
       id="path456"
       inkscape:connector-curvature="0" />
    <path
       inkscape:connector-curvature="0"
       id="path460"
       style="fill:none;stroke:#231f20;stroke-width:1.25;stroke-linecap:round;stroke-linejoin:miter;stroke-miterlimit:1;stroke-opacity:1;stroke-dasharray:none"
       d="m 360.15129,468.09475 c -0.36375,0 -0.6925,-0.11 -0.9425,-0.28625 -0.74625,-1.58875 -2.87125,-2.8075 -2.74625,-4.40125 0.125,-1.5925 2,-2.905 2.75625,-4.4925 0.24125,-0.1775 0.56875,-0.2875 0.9325,-0.2875 0.36125,0 0.69,0.11 0.9275,0.2875 0.2375,0.17875 0.38375,0.42375 0.37625,0.69625 -0.7425,2.5775 -0.4925,5.11 0.007,7.73375 0,0.18875 -0.125,0.375 -0.38375,0.4625 -0.2375,0.1775 -0.56625,0.2875 -0.9275,0.2875 z" />
    <text
       style="font-size:15px"
       id="text462"
       x="361.43066"
       y="613.11121">
      <tspan
         style="font-size:17.5px;font-variant:normal;font-weight:bold;writing-mode:lr-tb;fill:#110f0d;fill-opacity:1;fill-rule:nonzero;stroke:none;font-family:Arial;-inkscape-font-specification:Arial-BoldMT"
         x="361.43066"
         y="613.11121"
         id="tspan464">V</tspan>
    </text>
    <text
       style="font-size:15px"
       id="text466"
       x="375.18567"
       y="613.11121">
      <tspan
         style="font-size:17.5px;font-variant:normal;font-weight:bold;writing-mode:lr-tb;fill:#110f0d;fill-opacity:1;fill-rule:nonzero;stroke:none;font-family:Arial;-inkscape-font-specification:Arial-BoldMT"
         x="375.18567"
         y="613.11121"
         id="tspan468">N</tspan>
    </text>
    <path
       inkscape:connector-curvature="0"
       id="path472"
       style="fill:none;stroke:#110f0d;stroke-width:1.25;stroke-linecap:butt;stroke-linejoin:round;stroke-miterlimit:10;stroke-opacity:1;stroke-dasharray:none"
       d="m 389.82717,606.39987 c 0,8.83625 -6.805,15.99875 -15.2,15.99875 -8.395,0 -15.19875,-7.1625 -15.19875,-15.99875 0,-8.83625 6.80375,-16 15.19875,-16 8.395,0 15.2,7.16375 15.2,16 z" />
    <text
       style="font-size:15px"
       id="text474"
       x="399.05756"
       y="573.29919">
      <tspan
         style="font-size:17.5px;font-variant:normal;font-weight:bold;writing-mode:lr-tb;fill:#110f0d;fill-opacity:1;fill-rule:nonzero;stroke:none;font-family:Arial;-inkscape-font-specification:Arial-BoldMT"
         x="399.05756 403.92255"
         y="573.29919"
         sodipodi:role="line"
         id="tspan476">IO</tspan>
    </text>
    <text
       style="font-size:15px"
       id="text478"
       x="364.94318"
       y="518.15338">
      <tspan
         style="font-size:15px;font-variant:normal;font-weight:bold;writing-mode:lr-tb;fill:#0a6b38;fill-opacity:1;fill-rule:nonzero;stroke:none;font-family:Arial;-inkscape-font-specification:Arial-BoldMT"
         x="364.94318 374.94818"
         y="518.15338"
         sodipodi:role="line"
         id="tspan480">Pk</tspan>
    </text>
    <text
       style="font-size:15px"
       id="text482"
       x="384.58493"
       y="496.48587">
      <tspan
         style="font-size:17.5px;font-variant:normal;font-weight:bold;writing-mode:lr-tb;fill:#231f20;fill-opacity:1;fill-rule:nonzero;stroke:none;font-family:Arial;-inkscape-font-specification:Arial-BoldMT"
         x="384.58493 397.21994"
         y="496.48587"
         sodipodi:role="line"
         id="tspan484">CF</tspan>
    </text>
    <path
       d="m 390.20992,607.11087 91.875,0"
       style="fill:#231f20;fill-opacity:1;fill-rule:nonzero;stroke:none"
       id="path486"
       inkscape:connector-curvature="0" />
    <path
       d="m 484.44754,606.08612 c -1.655,-0.49875 -2.72875,-0.96 -4.055,-1.49125 l 0,5.04375 c 0.47375,-0.225 2.4,-0.99125 4.055,-1.49125 1.77,-0.53375 3.3725,-0.9 4.4125,-1.03125 -1.04,-0.12875 -2.6425,-0.495 -4.4125,-1.03"
       style="fill:#231f20;fill-opacity:1;fill-rule:nonzero;stroke:none"
       id="path488"
       inkscape:connector-curvature="0" />
    <path
       inkscape:connector-curvature="0"
       id="path492"
       style="fill:none;stroke:#231f20;stroke-width:1.875;stroke-linecap:round;stroke-linejoin:miter;stroke-miterlimit:1;stroke-opacity:1;stroke-dasharray:none"
       d="m 390.20992,607.11087 91.875,0" />
    <path
       d="m 485.62742,605.57462 c -2.48,-0.75125 -4.09125,-1.43875 -6.08125,-2.23875 l 0,7.5675 c 0.7125,-0.33875 3.60125,-1.49125 6.08125,-2.2375 2.655,-0.8025 5.06125,-1.35 6.6225,-1.5475 -1.56125,-0.195 -3.9675,-0.7425 -6.6225,-1.54375"
       style="fill:#231f20;fill-opacity:1;fill-rule:nonzero;stroke:none"
       id="path494"
       inkscape:connector-curvature="0" />
    <text
       style="font-size:15px"
       id="text496"
       x="294.65567"
       y="555.94153">
      <tspan
         style="font-size:17.5px;font-variant:normal;font-weight:bold;writing-mode:lr-tb;fill:#231f20;fill-opacity:1;fill-rule:nonzero;stroke:none;font-family:Arial;-inkscape-font-specification:Arial-BoldMT"
         x="294.65567 308.27066"
         y="555.94153"
         sodipodi:role="line"
         id="tspan498">GC</tspan>
    </text>
    <path
       inkscape:connector-curvature="0"
       id="path502"
       style="fill:none;stroke:#110f0d;stroke-width:1.875;stroke-linecap:round;stroke-linejoin:round;stroke-miterlimit:10;stroke-opacity:1;stroke-dasharray:none"
       d="m 336.94517,550.75587 c 0,3.21 -2.6025,5.8125 -5.8125,5.8125 -3.21,0 -5.8125,-2.6025 -5.8125,-5.8125 0,-3.21 2.6025,-5.8125 5.8125,-5.8125 3.21,0 5.8125,2.6025 5.8125,5.8125 z" />
    <path
       inkscape:connector-curvature="0"
       id="path506"
       style="fill:none;stroke:#231f20;stroke-width:1.875;stroke-linecap:round;stroke-linejoin:miter;stroke-miterlimit:1;stroke-opacity:1;stroke-dasharray:none"
       d="m 330.83492,544.9435 0,-80.75" />
    <g
       id="g754"
       transform="matrix(1.25,0,0,-1.25,383.90379,646.84349)">
      <path
         d="M 0,0 0,0"
         style="fill:none;stroke:#110f0d;stroke-width:2.14899993;stroke-linecap:square;stroke-linejoin:miter;stroke-miterlimit:10;stroke-opacity:1;stroke-dasharray:none"
         id="path756"
         inkscape:connector-curvature="0" />
    </g>
    <text
       style="font-size:15px"
       id="text1308"
       x="414.67218"
       y="602.40259">
      <tspan
         style="font-size:17.5px;font-variant:normal;font-weight:bold;writing-mode:lr-tb;fill:#110f0d;fill-opacity:1;fill-rule:nonzero;stroke:none;font-family:Arial;-inkscape-font-specification:Arial-BoldMT"
         x="414.67218 426.3447 436.07468"
         y="602.40259"
         sodipodi:role="line"
         id="tspan1310">Eye</tspan>
    </text>
    <text
       style="font-size:15px"
       id="text1312"
       x="414.67218"
       y="622.77258">
      <tspan
         style="font-size:17.5px;font-variant:normal;font-weight:bold;writing-mode:lr-tb;fill:#110f0d;fill-opacity:1;fill-rule:nonzero;stroke:none;font-family:Arial;-inkscape-font-specification:Arial-BoldMT"
         x="414.67218 430.22968 440.92218 450.65219 460.38217 475.93967 485.66968 496.36218"
         y="622.77258"
         sodipodi:role="line"
         id="tspan1314">movement</tspan>
    </text>
  </g>
</svg>
