<?xml version="1.0" encoding="UTF-8" standalone="no"?>
<!-- Created with Inkscape (http://www.inkscape.org/) -->

<svg
   xmlns:dc="http://purl.org/dc/elements/1.1/"
   xmlns:cc="http://creativecommons.org/ns#"
   xmlns:rdf="http://www.w3.org/1999/02/22-rdf-syntax-ns#"
   xmlns:svg="http://www.w3.org/2000/svg"
   xmlns="http://www.w3.org/2000/svg"
   xmlns:sodipodi="http://sodipodi.sourceforge.net/DTD/sodipodi-0.dtd"
   xmlns:inkscape="http://www.inkscape.org/namespaces/inkscape"
   width="419.10873"
   height="301.33643"
   id="svg4625"
   version="1.1"
   inkscape:version="0.48.4 r9939"
   sodipodi:docname="sat_model_2.svg">
  <defs
     id="defs4627" />
  <sodipodi:namedview
     id="base"
     pagecolor="#ffffff"
     bordercolor="#666666"
     borderopacity="1.0"
     inkscape:pageopacity="0.0"
     inkscape:pageshadow="2"
     inkscape:zoom="3.7997397"
     inkscape:cx="227.84303"
     inkscape:cy="161.4542"
     inkscape:document-units="px"
     inkscape:current-layer="layer1"
     showgrid="false"
     fit-margin-top="0"
     fit-margin-left="0"
     fit-margin-right="0"
     fit-margin-bottom="0"
     inkscape:window-width="2560"
     inkscape:window-height="1538"
     inkscape:window-x="2552"
     inkscape:window-y="-8"
     inkscape:window-maximized="1" />
  <metadata
     id="metadata4630">
    <rdf:RDF>
      <cc:Work
         rdf:about="">
        <dc:format>image/svg+xml</dc:format>
        <dc:type
           rdf:resource="http://purl.org/dc/dcmitype/StillImage" />
        <dc:title></dc:title>
      </cc:Work>
    </rdf:RDF>
  </metadata>
  <g
     inkscape:label="Layer 1"
     inkscape:groupmode="layer"
     id="layer1"
     transform="translate(-339.21981,-823.32928)">
    <text
       style="font-size:15px"
       id="text52"
       x="508.87238"
       y="838.7558">
      <tspan
         style="font-size:17.5px;font-variant:normal;font-weight:bold;writing-mode:lr-tb;fill:#110f0d;fill-opacity:1;fill-rule:nonzero;stroke:none;font-family:Arial;-inkscape-font-specification:Arial-BoldMT"
         x="508.87238 521.50739 531.23737 536.10236 545.8324"
         y="838.7558"
         sodipodi:role="line"
         id="tspan54">Naive</tspan>
    </text>
    <text
       style="font-size:15px"
       id="text68"
       x="477.88266"
       y="966.08948">
      <tspan
         style="font-size:15px;font-variant:normal;font-weight:bold;writing-mode:lr-tb;fill:#231f20;fill-opacity:1;fill-rule:nonzero;stroke:none;font-family:Arial;-inkscape-font-specification:Arial-BoldMT"
         x="477.88266 487.04764 492.88266 501.22263 505.39267 514.55762 518.72766 527.89264"
         y="966.08948"
         sodipodi:role="line"
         id="tspan70">Training</tspan>
    </text>
    <g
       id="g3112"
       transform="translate(-176.85422,276.23137)">
      <text
         y="818.75092"
         x="654.77209"
         id="text190"
         style="font-size:15px">
        <tspan
           id="tspan192"
           sodipodi:role="line"
           y="818.75092"
           x="654.77209 667.4071 678.09961 684.9071 700.46466 710.19464"
           style="font-size:17.5px;font-variant:normal;font-weight:bold;writing-mode:lr-tb;fill:#110f0d;fill-opacity:1;fill-rule:nonzero;stroke:none;font-family:Arial;-inkscape-font-specification:Arial-BoldMT">Normal</tspan>
      </text>
      <text
         y="839.75098"
         x="647.9646"
         id="text194"
         style="font-size:15px">
        <tspan
           id="tspan196"
           sodipodi:role="line"
           y="839.75098"
           x="647.9646 658.6571 668.38715 678.11713 684.92462 695.61713 700.48212 711.17462"
           style="font-size:17.5px;font-variant:normal;font-weight:bold;writing-mode:lr-tb;fill:#110f0d;fill-opacity:1;fill-rule:nonzero;stroke:none;font-family:Arial;-inkscape-font-specification:Arial-BoldMT">Learning</tspan>
      </text>
    </g>
    <g
       id="g3104"
       transform="matrix(0,1,-1,0,1435.0588,363.30284)">
      <path
         d="m 580.93175,892.86409 39.375,0"
         style="fill:none;stroke:#110f0d;stroke-width:2.5;stroke-linecap:butt;stroke-linejoin:round;stroke-miterlimit:10;stroke-opacity:1;stroke-dasharray:none"
         id="path208"
         inkscape:connector-curvature="0" />
      <path
         inkscape:connector-curvature="0"
         id="path210"
         style="fill:#110f0d;fill-opacity:1;fill-rule:nonzero;stroke:none"
         d="m 615.22625,897.94522 -1.51375,-1.5125 3.5675,-3.5675 -3.5675,-3.5675 1.51375,-1.51375 5.08,5.08125 -5.08,5.08 z" />
    </g>
    <path
       inkscape:connector-curvature="0"
       id="path220"
       style="fill:none;stroke:#231f20;stroke-width:0.9375;stroke-linecap:butt;stroke-linejoin:miter;stroke-miterlimit:4;stroke-opacity:1;stroke-dasharray:none"
       d="m 554.66462,930.63634 c 0,-3.195 0.69375,-14.045 -1.4325,-18.8125 -1.0675,-2.385 -2.8325,-3.25125 -5.74,-0.88125 -1.1625,0.94625 -1.73125,2.75875 -2.44875,4.17625 -0.72,1.42 -1.5825,2.445 -3.3375,1.8325 -1.275,-0.45 -2.2,-2.335 -2.825,-4.76125 -0.315,-1.2175 -0.55625,-2.57 -0.7275,-3.95 -0.17125,-1.18375 -0.3925,-2.59875 -0.55125,-4.0575 -0.15625,-1.4575 -0.2475,-2.965 -0.1375,-4.33375 -0.38,-2.08 0.78625,-3.84375 2.34125,-4.28375 4.66625,-1.32125 6.21875,6.16875 10.49875,5.2875 5.44125,-1.76125 2.33125,-9.2525 1.6625,-14.10625" />
    <path
       inkscape:connector-curvature="0"
       id="path224"
       style="fill:none;stroke:#231f20;stroke-width:0.9375;stroke-linecap:butt;stroke-linejoin:miter;stroke-miterlimit:4;stroke-opacity:1;stroke-dasharray:none"
       d="m 552.28674,887.34047 c -0.0225,-1.61625 -0.5175,-2.86375 -1.32375,-3.59125 -1.04875,-0.52 -1.8275,-0.52 -2.9925,-0.52 -3.11,0.8825 -5.05375,5.72875 -8.5525,4.40625 -4.6675,-1.76125 -7,-8.37 -5.44375,-14.09875 0.77625,-2.645 3.11,-5.7275 5.8325,-4.405 3.4975,1.32125 8.16375,7.04875 11.27375,1.32125 1.94375,-3.525 0,-7.49 1.01875,-10.85125" />
    <path
       inkscape:connector-curvature="0"
       id="path228"
       style="fill:none;stroke:#231f20;stroke-width:0.9375;stroke-linecap:butt;stroke-linejoin:miter;stroke-miterlimit:4;stroke-opacity:1;stroke-dasharray:none"
       d="m 555.50937,859.42047 c -0.3925,10.235 2.35625,19.58375 2.35625,29.81875 0,5.34 -0.78625,10.68 -0.78625,16.02 0.3925,7.12 2.74875,13.35375 2.74875,20.02875" />
    <path
       d="m 477.16949,888.25047 c 13.80125,0.59625 30.86125,-9.1225 41.43125,3.60375 4.79,5.7725 10.26125,4.13625 11.01,-3.44625 0.39125,-3.9475 1.30625,-18.1275 -4.74375,-18.33125 -3.48875,-0.11625 -7.22125,5.17 -9.41875,7.2375 -6.535,6.15 -18.845,2.67625 -26.94125,2.5075 -0.5975,-0.0125 -0.6875,0.915 -0.0875,0.92875 8.12,0.16875 19.55625,3.38375 26.70375,-1.9225 1.9,-1.41 9.71,-11.05 12.0175,-6.03875 1.90625,4.14875 1.7425,9.95875 1.61375,14.37375 -0.0475,1.53 -0.2125,3.07 -0.67625,4.53375 -2.55375,8.06875 -8.985,-0.72125 -10.43,-2.425 -1.8975,-2.2425 -4.4725,-3.73 -7.36625,-4.325 -11.1275,-2.29375 -21.89875,2.855 -33.025,2.375 -0.5975,-0.0263 -0.68625,0.9025 -0.0875,0.92875"
       style="fill:#231f20;fill-opacity:1;fill-rule:nonzero;stroke:none"
       id="path230"
       inkscape:connector-curvature="0" />
    <path
       d="m 494.48887,908.25047 c 7.64375,1.45625 16.1675,2.53 23.7425,0.2175 2.095,-0.6375 3.45,-1.9 4.7975,-3.54125 1.62875,-1.98375 2.925,-4.10625 5.15625,-5.52125 3.70375,-2.35125 4.01375,4.39125 4.23125,5.9975 0.4125,3.0575 0.79125,6.34375 0.4025,9.42 -1.17125,9.34375 -9.61625,3.1575 -13.855,0.96625 -8.75,-4.5175 -18.9725,-1.72125 -28.26125,-0.54625 -0.59625,0.075 -0.4325,0.99375 0.16375,0.91875 8.02625,-1.015 17.55125,-3.7125 25.35375,-0.68 3.735,1.45 7.485,5.2025 11.61125,5.645 6.90625,0.73875 6.12,-8.71 5.77625,-13.24 -0.37625,-4.92375 -1.39125,-13.54 -7.84625,-7.79875 -1.36,1.21125 -2.4,2.8725 -3.49625,4.30625 -2.44875,3.2025 -6.10125,3.85625 -9.88125,4.25875 -5.86375,0.62625 -12.045,-0.23375 -17.8075,-1.33125 -0.59,-0.1125 -0.67125,0.8175 -0.0875,0.92875"
       style="fill:#231f20;fill-opacity:1;fill-rule:nonzero;stroke:none"
       id="path232"
       inkscape:connector-curvature="0" />
    <path
       inkscape:connector-curvature="0"
       id="path164-1"
       style="fill:#3b4ca7;fill-opacity:1;fill-rule:nonzero;stroke:#000080;stroke-width:1.25;stroke-linecap:butt;stroke-linejoin:miter;stroke-miterlimit:4;stroke-opacity:1;stroke-dasharray:none"
       d="m 548.66791,882.95886 0,0.22 c -0.15625,-0.01 -0.3175,-0.01 -0.48625,-0.01 -3.205,0.8612 -5.21,5.5987 -8.815,4.3087 -4.8075,-1.7237 -7.2125,-8.185 -5.61125,-13.78249 0.80375,-2.585 3.20625,-5.6 6.01125,-4.3062 2.0775,0.745 4.54375,2.9112 6.88,3.5525 l -0.003,0.01 c 1.61875,3.04499 2.02375,6.52369 2.02375,10.00499" />
    <path
       inkscape:connector-curvature="0"
       id="path160-7"
       style="fill:#ff0000;fill-opacity:1;fill-rule:nonzero;stroke:#800000;stroke-width:1.25;stroke-linecap:butt;stroke-linejoin:miter;stroke-miterlimit:4;stroke-opacity:1;stroke-dasharray:none"
       d="m 548.79201,909.30578 0.17375,0.6175 c -0.46625,0.2175 -0.9675,0.5325 -1.50375,0.95 -1.19625,0.9262 -1.785,2.6962 -2.525,4.0837 -0.7425,1.3863 -1.63125,2.39 -3.4375,1.7913 -1.31625,-0.44 -2.2675,-2.2825 -2.915,-4.6563 -0.3225,-1.1887 -0.57125,-2.51 -0.7475,-3.8587 -0.175,-1.1588 -0.405,-2.5413 -0.56875,-3.965 -0.16125,-1.4263 -0.25375,-2.9 -0.14125,-4.2388 -0.3925,-2.0325 0.81,-3.755 2.4125,-4.1875 3.935,-1.0587 5.7275,3.6575 8.66375,4.9275 l -0.0363,0.099 c 0,3.1275 1.5625,5.315 0.625,8.4375" />
    <path
       inkscape:connector-curvature="0"
       id="path136"
       style="fill:#3b4ca7;fill-opacity:1;fill-rule:nonzero;stroke:#2f3591;stroke-width:1.25;stroke-linecap:butt;stroke-linejoin:miter;stroke-miterlimit:4;stroke-opacity:1;stroke-dasharray:none"
       d="m 550.53765,1032.0268 0,0.2187 c -0.15625,0 -0.315,0 -0.48375,0 -3.205,0.8613 -5.205,5.5988 -8.815,4.3075 -4.81,-1.7225 -7.21,-8.1825 -5.60625,-13.7837 0.79625,-2.5825 3.20125,-5.5988 6.01125,-4.305 2.07,0.745 4.53875,2.9112 6.875,3.5537 l 0,0.01 c 1.61875,3.045 2.01875,6.5225 2.01875,10.0038" />
    <path
       inkscape:connector-curvature="0"
       id="path140"
       style="fill:none;stroke:#231f20;stroke-width:0.9375;stroke-linecap:butt;stroke-linejoin:miter;stroke-miterlimit:4;stroke-opacity:1;stroke-dasharray:none"
       d="m 556.95852,1078.5825 c 0,-3.1225 0.7075,-13.73 -1.4825,-18.39 -1.0975,-2.33 -2.915,-3.1775 -5.915,-0.8612 -1.19875,0.9262 -1.78,2.6962 -2.525,4.0825 -0.74125,1.3875 -1.63,2.39 -3.4375,1.7925 -1.315,-0.44 -2.2675,-2.2825 -2.915,-4.6563 -0.32125,-1.1887 -0.57125,-2.5112 -0.74625,-3.8587 -0.17875,-1.1588 -0.405,-2.5413 -0.57125,-3.9663 -0.15875,-1.4262 -0.24625,-2.8987 -0.14,-4.2387 -0.3925,-2.0325 0.81375,-3.755 2.4175,-4.185 4.8075,-1.2925 6.40625,6.0287 10.8175,5.1675 5.60625,-1.7225 2.4,-9.0438 1.71625,-13.79" />
    <path
       inkscape:connector-curvature="0"
       id="path144"
       style="fill:none;stroke:#231f20;stroke-width:0.9375;stroke-linecap:butt;stroke-linejoin:miter;stroke-miterlimit:4;stroke-opacity:1;stroke-dasharray:none"
       d="m 554.50252,1036.2602 c -0.0225,-1.5813 -0.535,-2.8 -1.36,-3.51 -0.9325,-0.435 -1.655,-0.5 -2.605,-0.5038 -0.15625,0 -0.315,0 -0.48375,0 -3.205,0.8613 -5.205,5.5988 -8.815,4.3063 -4.81,-1.7213 -7.21,-8.1813 -5.60625,-13.7813 0.79625,-2.5837 3.20125,-5.5987 6.01125,-4.3062 2.07,0.745 4.53875,2.9112 6.875,3.5537 1.72875,0.4725 3.37875,0.115 4.74125,-2.2625 2.00375,-3.445 0,-7.32 1.05,-10.6062" />
    <path
       inkscape:connector-curvature="0"
       id="path148"
       style="fill:none;stroke:#231f20;stroke-width:0.9375;stroke-linecap:butt;stroke-linejoin:miter;stroke-miterlimit:4;stroke-opacity:1;stroke-dasharray:none"
       d="m 557.8229,1008.9677 c -0.4025,10.005 2.42875,19.1437 2.42875,29.1487 0,5.22 -0.81,10.4388 -0.81,15.6588 0.405,6.96 2.835,13.055 2.835,19.5787" />
    <path
       inkscape:connector-curvature="0"
       id="path152"
       style="fill:none;stroke:#231f20;stroke-width:0.9375;stroke-linecap:butt;stroke-linejoin:miter;stroke-miterlimit:4;stroke-opacity:1;stroke-dasharray:none"
       d="m 548.51865,1022.0219 c 1.61875,3.045 2.01875,6.525 2.01875,10.0038" />
    <path
       d="m 480.43515,1036.4615 c 13.79875,0.5963 30.86,-9.1212 41.42625,3.605 4.7925,5.7713 10.26375,4.1375 11.0125,-3.4462 0.39125,-3.9463 1.30625,-18.13 -4.74375,-18.3313 -3.48875,-0.1162 -7.22125,5.1688 -9.41875,7.2363 -6.535,6.15 -18.845,2.6762 -26.94125,2.5075 -0.5975,-0.013 -0.6875,0.9162 -0.0875,0.9287 8.1225,0.1688 19.55625,3.3838 26.70375,-1.9212 1.9025,-1.4113 9.7125,-11.05 12.0175,-6.04 1.90625,4.15 1.7425,9.96 1.61375,14.375 -0.0463,1.5287 -0.2125,3.07 -0.67625,4.5337 -2.55125,8.07 -8.9875,-0.7225 -10.43,-2.4262 -1.8975,-2.2413 -4.475,-3.7288 -7.36625,-4.325 -11.1275,-2.2925 -21.89875,2.855 -33.0225,2.375 -0.6,-0.026 -0.6875,0.9025 -0.0875,0.9287"
       style="fill:#231f20;fill-opacity:1;fill-rule:nonzero;stroke:none"
       id="path154"
       inkscape:connector-curvature="0" />
    <path
       d="m 497.75202,1056.4615 c 7.64375,1.4563 16.1675,2.5313 23.7425,0.22 2.0975,-0.64 3.45,-1.9 4.7975,-3.5412 1.62875,-1.9863 2.9275,-4.1075 5.15625,-5.5238 3.70375,-2.3512 4.01375,4.3913 4.23125,5.9975 0.4125,3.0588 0.78875,6.345 0.4025,9.4225 -1.17375,9.3438 -9.61625,3.1563 -13.855,0.9663 -8.7475,-4.52 -18.9725,-1.7225 -28.26125,-0.5475 -0.59875,0.075 -0.4325,0.9937 0.16125,0.9187 8.02875,-1.015 17.55375,-3.7137 25.35625,-0.6812 3.735,1.4512 7.485,5.205 11.60875,5.6462 6.90875,0.7388 6.1225,-8.7112 5.77875,-13.2412 -0.37375,-4.9238 -1.39375,-13.54 -7.84625,-7.7988 -1.36,1.2113 -2.4025,2.8725 -3.49625,4.3063 -2.44875,3.2037 -6.10125,3.8562 -9.88125,4.26 -5.86375,0.6262 -12.045,-0.235 -17.8075,-1.3325 -0.59,-0.1125 -0.67125,0.8175 -0.0875,0.9287"
       style="fill:#231f20;fill-opacity:1;fill-rule:nonzero;stroke:none"
       id="path156"
       inkscape:connector-curvature="0" />
    <path
       inkscape:connector-curvature="0"
       id="path160-7-4"
       style="fill:#3b4ca7;fill-opacity:1;fill-rule:nonzero;stroke:#000080;stroke-width:1.25;stroke-linecap:butt;stroke-linejoin:miter;stroke-miterlimit:4;stroke-opacity:1;stroke-dasharray:none"
       d="m 551.27584,1058.2633 0.17375,0.6175 c -0.46625,0.2175 -0.9675,0.5325 -1.50375,0.95 -1.19625,0.9262 -1.785,2.6962 -2.525,4.0837 -0.7425,1.3863 -1.63125,2.39 -3.4375,1.7913 -1.31625,-0.44 -2.2675,-2.2825 -2.915,-4.6563 -0.3225,-1.1887 -0.57125,-2.51 -0.7475,-3.8587 -0.175,-1.1588 -0.405,-2.5413 -0.56875,-3.965 -0.16125,-1.4263 -0.25375,-2.9 -0.14125,-4.2388 -0.3925,-2.0325 0.81,-3.755 2.4125,-4.1875 3.935,-1.0587 5.7275,3.6575 8.66375,4.9275 l -0.0363,0.099 c 0,3.1275 1.5625,5.315 0.625,8.4375" />
    <rect
       style="fill:none;stroke:none"
       id="rect3095"
       width="287.84048"
       height="301.33643"
       x="470.48807"
       y="823.32928" />
    <g
       transform="translate(30.693042,431.76621)"
       id="g2993">
      <path
         d="m 376.675,522.13025 0,0.195 c -0.135,-0.004 -0.27625,-0.004 -0.4225,-0.004 -2.79125,0.74625 -4.54,4.8725 -7.68,3.74625 -4.185,-1.5 -6.27875,-7.12625 -4.88375,-12.0025 0.69875,-2.25 2.7925,-4.87625 5.235,-3.74625 1.8075,0.645 3.9575,2.53125 5.9925,3.09375 l -0.004,0.007 c 1.41,2.64875 1.7625,5.67875 1.7625,8.71"
         style="fill:#3b4ca7;fill-opacity:1;fill-rule:nonzero;stroke:#2f3591;stroke-width:1.25;stroke-linecap:butt;stroke-linejoin:miter;stroke-miterlimit:4;stroke-opacity:1;stroke-dasharray:none"
         id="path128-1"
         inkscape:connector-curvature="0" />
      <path
         d="m 382.26213,562.6765 c 0,-2.71875 0.62125,-11.9575 -1.2875,-16.01625 -0.9575,-2.02875 -2.54125,-2.7675 -5.15375,-0.75 -1.04,0.80625 -1.55125,2.3475 -2.19875,3.55625 -0.64375,1.2075 -1.42125,2.08125 -2.9925,1.56 -1.14375,-0.3825 -1.975,-1.98875 -2.53625,-4.055 -0.2825,-1.035 -0.49875,-2.18625 -0.6525,-3.36 -0.1525,-1.01 -0.3525,-2.21375 -0.495,-3.455 -0.14,-1.24125 -0.22125,-2.525 -0.12625,-3.69125 -0.33875,-1.76625 0.70875,-3.27 2.10375,-3.645 4.18875,-1.12625 5.585,5.25 9.4225,4.5 4.88625,-1.5 2.095,-7.87625 1.49375,-12.01"
         style="fill:none;stroke:#231f20;stroke-width:0.9375;stroke-linecap:butt;stroke-linejoin:miter;stroke-miterlimit:4;stroke-opacity:1;stroke-dasharray:none"
         id="path140-7"
         inkscape:connector-curvature="0" />
      <path
         d="m 380.12588,525.818 c -0.0175,-1.3775 -0.46375,-2.43875 -1.18625,-3.0575 -0.81,-0.37875 -1.4375,-0.43125 -2.265,-0.435 -0.135,-0.004 -0.275,-0.004 -0.4225,-0.004 -2.79125,0.74625 -4.53875,4.8725 -7.68,3.7475 -4.185,-1.50125 -6.27875,-7.12625 -4.8825,-12.0025 0.6975,-2.25125 2.79125,-4.8775 5.23375,-3.7475 1.8075,0.645 3.9575,2.53125 5.9925,3.095 1.50375,0.41125 2.9425,0.10125 4.12875,-1.97375 1.745,-3 0,-6.37625 0.91375,-9.23875"
         style="fill:none;stroke:#231f20;stroke-width:0.9375;stroke-linecap:butt;stroke-linejoin:miter;stroke-miterlimit:4;stroke-opacity:1;stroke-dasharray:none"
         id="path144-4"
         inkscape:connector-curvature="0" />
      <path
         d="m 383.019,502.04787 c -0.35125,8.71375 2.11125,16.6725 2.11125,25.38625 0,4.545 -0.70125,9.0925 -0.70125,13.64125 0.3525,6.0575 2.46875,11.365 2.46875,17.05125"
         style="fill:none;stroke:#231f20;stroke-width:0.9375;stroke-linecap:butt;stroke-linejoin:miter;stroke-miterlimit:4;stroke-opacity:1;stroke-dasharray:none"
         id="path148-0"
         inkscape:connector-curvature="0" />
      <path
         d="m 374.91225,513.4205 c 1.41,2.64875 1.7625,5.67875 1.7625,8.71"
         style="fill:none;stroke:#231f20;stroke-width:0.9375;stroke-linecap:butt;stroke-linejoin:miter;stroke-miterlimit:4;stroke-opacity:1;stroke-dasharray:none"
         id="path152-9"
         inkscape:connector-curvature="0" />
      <path
         d="m 376.38138,544.40165 0.15,0.53625 c -0.405,0.19125 -0.84125,0.465 -1.30875,0.82875 -1.0425,0.80625 -1.5525,2.34875 -2.19875,3.55625 -0.645,1.2075 -1.42,2.08125 -2.99375,1.56 -1.145,-0.3825 -1.975,-1.9875 -2.5375,-4.055 -0.2825,-1.035 -0.49875,-2.18625 -0.65125,-3.36 -0.15375,-1.00625 -0.35375,-2.21375 -0.495,-3.45625 -0.14125,-1.24 -0.22125,-2.5225 -0.12375,-3.68875 -0.34125,-1.7675 0.705,-3.27125 2.1025,-3.64625 3.425,-0.9225 4.985,3.18375 7.54375,4.29125 l -0.0312,0.0863 c 0,2.7225 1.36,4.62875 0.54375,7.3475"
         style="fill:#ff0000;fill-opacity:1;fill-rule:nonzero;stroke:#800000;stroke-width:1.25;stroke-linecap:butt;stroke-linejoin:miter;stroke-miterlimit:4;stroke-opacity:1;stroke-dasharray:none"
         id="path56-9-48"
         inkscape:connector-curvature="0" />
      <path
         d="m 375.83763,537.0524 c 0,2.725 1.36,4.62875 0.54375,7.3475"
         style="fill:#ff0000;stroke:#800000;stroke-width:0.9375;stroke-linecap:butt;stroke-linejoin:miter;stroke-miterlimit:4;stroke-opacity:1;stroke-dasharray:none"
         id="path88-4-8"
         inkscape:connector-curvature="0" />
      <text
         sodipodi:linespacing="125%"
         id="text3155"
         y="524.49121"
         x="314.8461"
         style="font-size:40px;font-style:normal;font-weight:normal;line-height:125%;letter-spacing:0px;word-spacing:0px;fill:#000000;fill-opacity:1;stroke:none;font-family:Sans"
         xml:space="preserve"><tspan
           style="font-size:18px"
           y="524.49121"
           x="314.8461"
           id="tspan3157"
           sodipodi:role="line">weak</tspan></text>
      <text
         sodipodi:linespacing="125%"
         id="text3155-2"
         y="546.19305"
         x="307.97305"
         style="font-size:40px;font-style:normal;font-weight:normal;line-height:125%;letter-spacing:0px;word-spacing:0px;fill:#000000;fill-opacity:1;stroke:none;font-family:Sans"
         xml:space="preserve"><tspan
           style="font-size:18px"
           y="546.19305"
           x="307.97305"
           id="tspan3157-4"
           sodipodi:role="line">strong</tspan></text>
    </g>
  </g>
</svg>
