<?xml version="1.0" encoding="UTF-8" standalone="no"?>
<!-- Created with Inkscape (http://www.inkscape.org/) -->

<svg
   xmlns:dc="http://purl.org/dc/elements/1.1/"
   xmlns:cc="http://creativecommons.org/ns#"
   xmlns:rdf="http://www.w3.org/1999/02/22-rdf-syntax-ns#"
   xmlns:svg="http://www.w3.org/2000/svg"
   xmlns="http://www.w3.org/2000/svg"
   xmlns:sodipodi="http://sodipodi.sourceforge.net/DTD/sodipodi-0.dtd"
   xmlns:inkscape="http://www.inkscape.org/namespaces/inkscape"
   width="287.84048"
   height="301.33643"
   id="svg4625"
   version="1.1"
   inkscape:version="0.48.4 r9939"
   sodipodi:docname="sat_model_2.svg">
  <defs
     id="defs4627" />
  <sodipodi:namedview
     id="base"
     pagecolor="#ffffff"
     bordercolor="#666666"
     borderopacity="1.0"
     inkscape:pageopacity="0.0"
     inkscape:pageshadow="2"
     inkscape:zoom="3.7997397"
     inkscape:cx="96.574765"
     inkscape:cy="161.4542"
     inkscape:document-units="px"
     inkscape:current-layer="layer1"
     showgrid="false"
     fit-margin-top="0"
     fit-margin-left="0"
     fit-margin-right="0"
     fit-margin-bottom="0"
     inkscape:window-width="2560"
     inkscape:window-height="1538"
     inkscape:window-x="-8"
     inkscape:window-y="-8"
     inkscape:window-maximized="1" />
  <metadata
     id="metadata4630">
    <rdf:RDF>
      <cc:Work
         rdf:about="">
        <dc:format>image/svg+xml</dc:format>
        <dc:type
           rdf:resource="http://purl.org/dc/dcmitype/StillImage" />
        <dc:title />
      </cc:Work>
    </rdf:RDF>
  </metadata>
  <g
     inkscape:label="Layer 1"
     inkscape:groupmode="layer"
     id="layer1"
     transform="translate(-470.48807,-823.32928)">
    <text
       style="font-size:15px"
       id="text48"
       x="698.05414"
       y="966.08948">
      <tspan
         style="font-size:15px;font-variant:normal;font-weight:bold;writing-mode:lr-tb;fill:#231f20;fill-opacity:1;fill-rule:nonzero;stroke:none;font-family:Arial;-inkscape-font-specification:Arial-BoldMT"
         x="698.05414 707.21912 713.05414 721.3941 725.56415 734.72913 738.89917 748.06415"
         y="966.08948"
         sodipodi:role="line"
         id="tspan50">Training</tspan>
    </text>
    <text
       style="font-size:15px"
       id="text52"
       x="508.87238"
       y="838.7558">
      <tspan
         style="font-size:17.5px;font-variant:normal;font-weight:bold;writing-mode:lr-tb;fill:#110f0d;fill-opacity:1;fill-rule:nonzero;stroke:none;font-family:Arial;-inkscape-font-specification:Arial-BoldMT"
         x="508.87238 521.50739 531.23737 536.10236 545.8324"
         y="838.7558"
         sodipodi:role="line"
         id="tspan54">Naive</tspan>
    </text>
    <text
       style="font-size:15px"
       id="text60"
       x="666.78503"
       y="838.7558">
      <tspan
         style="font-size:17.5px;font-variant:normal;font-weight:bold;writing-mode:lr-tb;fill:#110f0d;fill-opacity:1;fill-rule:nonzero;stroke:none;font-family:Arial;-inkscape-font-specification:Arial-BoldMT"
         sodipodi:role="line"
         id="tspan62"
         x="666.78503"
         y="838.7558">Depleted</tspan>
    </text>
    <text
       style="font-size:15px"
       id="text68"
       x="477.88266"
       y="966.08948">
      <tspan
         style="font-size:15px;font-variant:normal;font-weight:bold;writing-mode:lr-tb;fill:#231f20;fill-opacity:1;fill-rule:nonzero;stroke:none;font-family:Arial;-inkscape-font-specification:Arial-BoldMT"
         x="477.88266 487.04764 492.88266 501.22263 505.39267 514.55762 518.72766 527.89264"
         y="966.08948"
         sodipodi:role="line"
         id="tspan70">Training</tspan>
    </text>
    <g
       id="g3108"
       transform="matrix(0,-1,1,0,-356.47529,1425.1437)">
      <path
         d="m 533.58799,949.49009 0,27.8775"
         style="fill:none;stroke:#110f0d;stroke-width:5;stroke-linecap:butt;stroke-linejoin:round;stroke-miterlimit:10;stroke-opacity:1;stroke-dasharray:none"
         id="path74"
         inkscape:connector-curvature="0" />
      <path
         inkscape:connector-curvature="0"
         id="path76"
         style="fill:#110f0d;fill-opacity:1;fill-rule:nonzero;stroke:none"
         d="m 523.42687,972.28547 3.025,-3.0275 7.13625,7.13625 7.13375,-7.13625 3.0275,3.0275 -10.16125,10.16125 -10.16125,-10.16125 z" />
    </g>
    <text
       style="font-size:15px;fill:#d40000;stroke:none"
       id="text78"
       x="571.57684"
       y="872.14783">
      <tspan
         style="font-size:17.5px;font-style:italic;font-variant:normal;font-weight:bold;writing-mode:lr-tb;fill:#d40000;fill-opacity:1;fill-rule:nonzero;stroke:none;font-family:Arial;-inkscape-font-specification:Arial-BoldItalicMT"
         sodipodi:role="line"
         id="tspan80"
         x="571.57684"
         y="872.14783">Mutation</tspan>
    </text>
    <g
       id="g3072"
       transform="translate(22,0)">
      <path
         d="m 705.463,1057.5516 0.17375,0.6162 c -0.46375,0.2188 -0.9675,0.5338 -1.5025,0.9513 -1.1975,0.9262 -1.78375,2.6962 -2.52625,4.0837 -0.74,1.385 -1.63125,2.39 -3.4375,1.7913 -1.31375,-0.4388 -2.2675,-2.2825 -2.9125,-4.6563 -0.325,-1.1887 -0.57375,-2.51 -0.75,-3.8587 -0.175,-1.1588 -0.405,-2.5413 -0.56875,-3.9663 -0.16125,-1.425 -0.25125,-2.8987 -0.13875,-4.2375 -0.395,-2.0325 0.8075,-3.7562 2.4125,-4.1875 3.9325,-1.0587 5.725,3.6575 8.66125,4.9275 l -0.0362,0.099 c 0,3.1275 1.5625,5.315 0.625,8.4375"
         style="fill:#3b4ca7;fill-opacity:1;fill-rule:nonzero;stroke:#2f3591;stroke-width:1.25;stroke-linecap:butt;stroke-linejoin:miter;stroke-miterlimit:4;stroke-opacity:1;stroke-dasharray:none"
         id="path104"
         inkscape:connector-curvature="0" />
      <path
         d="m 705.1115,1031.8143 0,0.22 c -0.15625,-0.01 -0.3175,-0.01 -0.48625,-0.01 -3.205,0.8613 -5.2075,5.5988 -8.8125,4.3075 -4.81,-1.7225 -7.215,-8.1837 -5.61125,-13.7825 0.80125,-2.5837 3.20625,-5.5987 6.01125,-4.3075 2.075,0.7463 4.54375,2.9125 6.88,3.5538 l -0.005,0.01 c 1.61875,3.0437 2.02375,6.5237 2.02375,10.0037"
         style="fill:#3b4ca7;fill-opacity:1;fill-rule:nonzero;stroke:#2f3591;stroke-width:1.25;stroke-linecap:butt;stroke-linejoin:miter;stroke-miterlimit:4;stroke-opacity:1;stroke-dasharray:none"
         id="path108"
         inkscape:connector-curvature="0" />
      <path
         d="m 711.5275,1078.3701 c 0,-3.1225 0.7125,-13.73 -1.48,-18.39 -0.9,-1.9125 -2.2875,-2.825 -4.41125,-1.8138 -0.46375,0.2213 -0.96625,0.5363 -1.50125,0.9525 -1.19875,0.9263 -1.785,2.6963 -2.5275,4.0825 -0.73875,1.3875 -1.63,2.39 -3.4375,1.7925 -1.3125,-0.44 -2.2675,-2.2812 -2.9125,-4.655 -0.32375,-1.19 -0.57375,-2.5125 -0.74875,-3.86 -0.17625,-1.1587 -0.405,-2.5412 -0.56875,-3.9675 -0.16125,-1.425 -0.25125,-2.8975 -0.14,-4.2375 -0.3925,-2.0325 0.80875,-3.755 2.4125,-4.185 3.93375,-1.06 5.725,3.6563 8.6625,4.9263 0.64875,0.2862 1.36,0.3962 2.155,0.2412 5.61125,-1.7225 2.405,-9.0437 1.71625,-13.7887"
         style="fill:none;stroke:#231f20;stroke-width:0.9375;stroke-linecap:butt;stroke-linejoin:miter;stroke-miterlimit:4;stroke-opacity:1;stroke-dasharray:none"
         id="path112"
         inkscape:connector-curvature="0" />
      <path
         d="m 709.07387,1036.0477 c -0.02,-1.58 -0.5325,-2.7987 -1.3625,-3.51 -0.93,-0.435 -1.65,-0.5 -2.6,-0.5037 -0.15625,0 -0.3175,0 -0.48625,0 -3.205,0.8612 -5.2075,5.5987 -8.8125,4.3062 -4.81,-1.7225 -7.215,-8.1825 -5.61125,-13.7812 0.80125,-2.5838 3.20625,-5.5988 6.01125,-4.3075 2.075,0.745 4.54375,2.9112 6.88,3.5537 1.72625,0.4738 3.37625,0.1163 4.73875,-2.2612 2.00375,-3.445 0,-7.3213 1.05,-10.6075"
         style="fill:none;stroke:#231f20;stroke-width:0.9375;stroke-linecap:butt;stroke-linejoin:miter;stroke-miterlimit:4;stroke-opacity:1;stroke-dasharray:none"
         id="path116"
         inkscape:connector-curvature="0" />
      <path
         d="m 712.39662,1008.7552 c -0.405,10.005 2.42875,19.1438 2.42875,29.1488 0,5.2212 -0.81,10.4387 -0.81,15.66 0.405,6.96 2.8325,13.055 2.8325,19.5775"
         style="fill:none;stroke:#231f20;stroke-width:0.9375;stroke-linecap:butt;stroke-linejoin:miter;stroke-miterlimit:4;stroke-opacity:1;stroke-dasharray:none"
         id="path120"
         inkscape:connector-curvature="0" />
      <path
         d="m 703.0875,1021.81 c 1.61875,3.045 2.02375,6.525 2.02375,10.0037"
         style="fill:none;stroke:#231f20;stroke-width:0.9375;stroke-linecap:butt;stroke-linejoin:miter;stroke-miterlimit:4;stroke-opacity:1;stroke-dasharray:none"
         id="path124"
         inkscape:connector-curvature="0" />
      <path
         d="m 704.838,1049.1153 c 0,3.1263 1.5625,5.315 0.625,8.4375"
         style="fill:none;stroke:#231f20;stroke-width:0.9375;stroke-linecap:butt;stroke-linejoin:miter;stroke-miterlimit:4;stroke-opacity:1;stroke-dasharray:none"
         id="path128"
         inkscape:connector-curvature="0" />
      <path
         inkscape:connector-curvature="0"
         id="path130"
         style="fill:#231f20;fill-opacity:1;fill-rule:nonzero;stroke:none"
         d="m 635.004,1035.4813 c 13.80125,0.5963 30.86125,-9.1225 41.42875,3.605 4.7925,5.7725 10.26375,4.1363 11.0125,-3.4475 0.39125,-3.9462 1.30625,-18.1287 -4.74375,-18.3312 -3.48875,-0.1163 -7.22125,5.17 -9.41875,7.2375 -6.535,6.15 -18.845,2.6762 -26.94125,2.5075 -0.5975,-0.013 -0.6875,0.9162 -0.0875,0.9287 8.12,0.1688 19.55625,3.3838 26.70375,-1.9212 1.9025,-1.4113 9.7125,-11.0513 12.0175,-6.04 1.90625,4.1487 1.7425,9.9587 1.61375,14.3737 -0.0487,1.53 -0.2125,3.07 -0.67625,4.5338 -2.55125,8.0712 -8.9875,-0.7225 -10.43,-2.425 -1.8975,-2.2425 -4.4725,-3.73 -7.36625,-4.325 -11.1275,-2.2938 -21.89875,2.855 -33.025,2.375 -0.5975,-0.026 -0.6875,0.9025 -0.0875,0.9287" />
      <path
         inkscape:connector-curvature="0"
         id="path132"
         style="fill:#231f20;fill-opacity:1;fill-rule:nonzero;stroke:none"
         d="m 652.32337,1055.4813 c 7.64375,1.4563 16.1675,2.53 23.7425,0.2188 2.095,-0.64 3.45,-1.9 4.7975,-3.5413 1.62875,-1.9862 2.9275,-4.1075 5.15625,-5.5225 3.70375,-2.3512 4.01375,4.3913 4.23125,5.9975 0.4125,3.0575 0.78875,6.3438 0.4025,9.4213 -1.17375,9.3425 -9.61625,3.1562 -13.855,0.9662 -8.75,-4.5187 -18.9725,-1.7225 -28.26125,-0.5475 -0.59875,0.075 -0.4325,0.9938 0.16125,0.9175 8.02875,-1.0137 17.55375,-3.7112 25.35625,-0.6787 3.735,1.4512 7.485,5.2037 11.60875,5.645 6.90875,0.7387 6.1225,-8.71 5.77875,-13.24 -0.37375,-4.9238 -1.39375,-13.54 -7.84625,-7.7988 -1.36,1.2113 -2.4025,2.8725 -3.49625,4.3063 -2.44875,3.2037 -6.10125,3.8562 -9.88125,4.26 -5.86375,0.6262 -12.045,-0.235 -17.8075,-1.3325 -0.59,-0.1125 -0.67125,0.8175 -0.0875,0.9287" />
    </g>
    <g
       id="g3061"
       transform="translate(174.52925,-150.10253)">
      <path
         d="m 552.93374,1058.3176 0.17375,0.6175 c -0.46625,0.2175 -0.9675,0.5325 -1.50375,0.95 -1.19625,0.9262 -1.785,2.6962 -2.525,4.0837 -0.7425,1.3863 -1.63125,2.39 -3.4375,1.7913 -1.31625,-0.44 -2.2675,-2.2825 -2.915,-4.6563 -0.3225,-1.1887 -0.57125,-2.51 -0.7475,-3.8587 -0.175,-1.1588 -0.405,-2.5413 -0.56875,-3.965 -0.16125,-1.4263 -0.25375,-2.9 -0.14125,-4.2388 -0.3925,-2.0325 0.81,-3.755 2.4125,-4.1875 3.935,-1.0587 5.7275,3.6575 8.66375,4.9275 l -0.0363,0.099 c 0,3.1275 1.5625,5.315 0.625,8.4375"
         style="fill:#3b4ca7;fill-opacity:1;fill-rule:nonzero;stroke:#2f3591;stroke-width:1.25;stroke-linecap:butt;stroke-linejoin:miter;stroke-miterlimit:4;stroke-opacity:1;stroke-dasharray:none"
         id="path160"
         inkscape:connector-curvature="0" />
      <path
         d="m 552.58212,1032.5815 0,0.22 c -0.15625,-0.01 -0.3175,-0.01 -0.48625,-0.01 -3.205,0.8612 -5.21,5.5987 -8.815,4.3087 -4.8075,-1.7237 -7.2125,-8.185 -5.61125,-13.7825 0.80375,-2.585 3.20625,-5.6 6.01125,-4.3062 2.0775,0.745 4.54375,2.9112 6.88,3.5525 l -0.003,0.01 c 1.61875,3.045 2.02375,6.5237 2.02375,10.005"
         style="fill:#3b4ca7;fill-opacity:1;fill-rule:nonzero;stroke:#2f3591;stroke-width:1.25;stroke-linecap:butt;stroke-linejoin:miter;stroke-miterlimit:4;stroke-opacity:1;stroke-dasharray:none"
         id="path164"
         inkscape:connector-curvature="0" />
      <path
         d="m 558.99574,1079.1367 c 0,-3.1225 0.7125,-13.7287 -1.4775,-18.3887 -0.9,-1.9138 -2.29,-2.8263 -4.41125,-1.8138 -0.46625,0.22 -0.96625,0.535 -1.50375,0.9525 -1.19875,0.925 -1.7825,2.695 -2.525,4.0813 -0.73875,1.3887 -1.63,2.3912 -3.4375,1.7925 -1.3125,-0.44 -2.2675,-2.2825 -2.9125,-4.6563 -0.32375,-1.1875 -0.57375,-2.51 -0.75125,-3.8587 -0.17625,-1.1575 -0.40375,-2.54 -0.56625,-3.9663 -0.16125,-1.425 -0.25375,-2.8975 -0.1425,-4.2375 -0.3925,-2.0325 0.80875,-3.755 2.4125,-4.1862 3.935,-1.0588 5.7275,3.6575 8.665,4.9275 0.64875,0.2837 1.3575,0.3962 2.155,0.2412 5.61125,-1.7225 2.405,-9.045 1.71375,-13.7925"
         style="fill:none;stroke:#231f20;stroke-width:0.9375;stroke-linecap:butt;stroke-linejoin:miter;stroke-miterlimit:4;stroke-opacity:1;stroke-dasharray:none"
         id="path168"
         inkscape:connector-curvature="0" />
      <path
         d="m 556.54449,1036.8143 c -0.02,-1.5812 -0.535,-2.7987 -1.3625,-3.51 -0.93,-0.435 -1.6525,-0.5 -2.6,-0.5037 -0.15625,0 -0.3175,0 -0.48625,0 -3.205,0.8612 -5.21,5.5987 -8.815,4.3062 -4.81,-1.7225 -7.2125,-8.1825 -5.61125,-13.7812 0.80125,-2.585 3.20625,-5.5988 6.01125,-4.3063 2.075,0.7438 4.54625,2.91 6.88,3.5525 1.72875,0.4725 3.37875,0.1163 4.74125,-2.2612 2.00375,-3.445 0,-7.3213 1.05,-10.6075"
         style="fill:none;stroke:#231f20;stroke-width:0.9375;stroke-linecap:butt;stroke-linejoin:miter;stroke-miterlimit:4;stroke-opacity:1;stroke-dasharray:none"
         id="path172"
         inkscape:connector-curvature="0" />
      <path
         d="m 559.86487,1009.523 c -0.405,10.0037 2.42875,19.1437 2.42875,29.1475 0,5.22 -0.81,10.44 -0.81,15.66 0.405,6.96 2.835,13.0537 2.835,19.5787"
         style="fill:none;stroke:#231f20;stroke-width:0.9375;stroke-linecap:butt;stroke-linejoin:miter;stroke-miterlimit:4;stroke-opacity:1;stroke-dasharray:none"
         id="path176"
         inkscape:connector-curvature="0" />
      <path
         d="m 550.55824,1022.5766 c 1.61875,3.045 2.02375,6.525 2.02375,10.005"
         style="fill:none;stroke:#231f20;stroke-width:0.9375;stroke-linecap:butt;stroke-linejoin:miter;stroke-miterlimit:4;stroke-opacity:1;stroke-dasharray:none"
         id="path180"
         inkscape:connector-curvature="0" />
      <path
         d="m 552.30874,1049.8813 c 0,3.1263 1.5625,5.3138 0.625,8.4375"
         style="fill:none;stroke:#231f20;stroke-width:0.9375;stroke-linecap:butt;stroke-linejoin:miter;stroke-miterlimit:4;stroke-opacity:1;stroke-dasharray:none"
         id="path184"
         inkscape:connector-curvature="0" />
      <path
         inkscape:connector-curvature="0"
         id="path186"
         style="fill:#231f20;fill-opacity:1;fill-rule:nonzero;stroke:none"
         d="m 482.47474,1036.2467 c 13.80125,0.5963 30.86125,-9.1225 41.43125,3.6038 4.7925,5.7737 10.26125,4.1375 11.01,-3.4463 0.39125,-3.9475 1.30625,-18.1287 -4.74125,-18.3312 -3.49125,-0.1163 -7.22375,5.17 -9.42125,7.2375 -6.535,6.15 -18.845,2.6762 -26.94125,2.5075 -0.5975,-0.013 -0.6875,0.9162 -0.0875,0.9287 8.12,0.1675 19.5575,3.3838 26.70375,-1.9212 1.9025,-1.4113 9.7125,-11.0513 12.0175,-6.04 1.90625,4.1487 1.745,9.9587 1.61375,14.3737 -0.0475,1.53 -0.2125,3.07 -0.67375,4.5338 -2.55375,8.0712 -8.99,-0.7225 -10.4325,-2.425 -1.8975,-2.2425 -4.475,-3.73 -7.36625,-4.3263 -11.1275,-2.2925 -21.89875,2.8563 -33.025,2.3763 -0.5975,-0.026 -0.68625,0.9025 -0.0875,0.9287" />
      <path
         inkscape:connector-curvature="0"
         id="path188"
         style="fill:#231f20;fill-opacity:1;fill-rule:nonzero;stroke:none"
         d="m 499.79399,1056.2467 c 7.64375,1.4563 16.17,2.53 23.7425,0.2175 2.0975,-0.6387 3.45,-1.9 4.7975,-3.5412 1.62875,-1.9838 2.9275,-4.1063 5.15625,-5.5225 3.70375,-2.35 4.01375,4.3925 4.23125,5.9987 0.4125,3.0575 0.79125,6.3438 0.4025,9.42 -1.17125,9.3425 -9.61375,3.1575 -13.855,0.9675 -8.7475,-4.5187 -18.9725,-1.7225 -28.26125,-0.5487 -0.59625,0.076 -0.4325,0.9937 0.16375,0.92 8.02625,-1.015 17.55125,-3.7125 25.35625,-0.68 3.7325,1.45 7.4825,5.2037 11.60875,5.6437 6.90625,0.74 6.12,-8.7087 5.77625,-13.2387 -0.37375,-4.9238 -1.39125,-13.54 -7.84625,-7.7988 -1.36,1.2113 -2.4,2.8725 -3.49625,4.305 -2.44875,3.205 -6.10125,3.8575 -9.88125,4.2613 -5.86375,0.6262 -12.045,-0.2363 -17.8075,-1.3325 -0.59,-0.1125 -0.67125,0.8175 -0.0875,0.9287" />
    </g>
    <g
       id="g3112"
       transform="translate(-176.85422,276.23137)">
      <text
         y="818.75092"
         x="654.77209"
         id="text190"
         style="font-size:15px">
        <tspan
           id="tspan192"
           sodipodi:role="line"
           y="818.75092"
           x="654.77209 667.4071 678.09961 684.9071 700.46466 710.19464"
           style="font-size:17.5px;font-variant:normal;font-weight:bold;writing-mode:lr-tb;fill:#110f0d;fill-opacity:1;fill-rule:nonzero;stroke:none;font-family:Arial;-inkscape-font-specification:Arial-BoldMT">Normal</tspan>
      </text>
      <text
         y="839.75098"
         x="647.9646"
         id="text194"
         style="font-size:15px">
        <tspan
           id="tspan196"
           sodipodi:role="line"
           y="839.75098"
           x="647.9646 658.6571 668.38715 678.11713 684.92462 695.61713 700.48212 711.17462"
           style="font-size:17.5px;font-variant:normal;font-weight:bold;writing-mode:lr-tb;fill:#110f0d;fill-opacity:1;fill-rule:nonzero;stroke:none;font-family:Arial;-inkscape-font-specification:Arial-BoldMT">Learning</tspan>
      </text>
    </g>
    <text
       style="font-size:15px"
       id="text198"
       x="670.43713"
       y="1097.246">
      <tspan
         style="font-size:17.5px;font-variant:normal;font-weight:bold;writing-mode:lr-tb;fill:#110f0d;fill-opacity:1;fill-rule:nonzero;stroke:none;font-family:Arial;-inkscape-font-specification:Arial-BoldMT"
         x="670.43713 675.30212 690.85962 701.55212 711.2821 716.14709 722.95465 732.68463"
         y="1097.246"
         sodipodi:role="line"
         id="tspan200">Impaired</tspan>
    </text>
    <text
       style="font-size:15px"
       id="text202"
       x="669.9646"
       y="1118.246">
      <tspan
         style="font-size:17.5px;font-variant:normal;font-weight:bold;writing-mode:lr-tb;fill:#110f0d;fill-opacity:1;fill-rule:nonzero;stroke:none;font-family:Arial;-inkscape-font-specification:Arial-BoldMT"
         x="669.9646 680.6571 690.38715 700.11713 706.92462 717.61713 722.48212 733.17462"
         y="1118.246"
         sodipodi:role="line"
         id="tspan204">Learning</tspan>
    </text>
    <g
       id="g3104"
       transform="matrix(0,1,-1,0,1435.0588,363.30284)">
      <path
         d="m 580.93175,892.86409 39.375,0"
         style="fill:none;stroke:#110f0d;stroke-width:2.5;stroke-linecap:butt;stroke-linejoin:round;stroke-miterlimit:10;stroke-opacity:1;stroke-dasharray:none"
         id="path208"
         inkscape:connector-curvature="0" />
      <path
         inkscape:connector-curvature="0"
         id="path210"
         style="fill:#110f0d;fill-opacity:1;fill-rule:nonzero;stroke:none"
         d="m 615.22625,897.94522 -1.51375,-1.5125 3.5675,-3.5675 -3.5675,-3.5675 1.51375,-1.51375 5.08,5.08125 -5.08,5.08 z" />
    </g>
    <g
       id="g3100"
       transform="matrix(0,1,-1,0,1738.7782,363.30284)">
      <path
         d="m 580.93175,1045.3641 39.375,0"
         style="fill:none;stroke:#110f0d;stroke-width:2.5;stroke-linecap:butt;stroke-linejoin:round;stroke-miterlimit:10;stroke-opacity:1;stroke-dasharray:none"
         id="path214"
         inkscape:connector-curvature="0" />
      <path
         inkscape:connector-curvature="0"
         id="path216"
         style="fill:#110f0d;fill-opacity:1;fill-rule:nonzero;stroke:none"
         d="m 615.22625,1050.4452 -1.51375,-1.5125 3.5675,-3.5675 -3.5675,-3.5675 1.51375,-1.5137 5.08,5.0812 -5.08,5.08 z" />
    </g>
    <path
       inkscape:connector-curvature="0"
       id="path220"
       style="fill:none;stroke:#231f20;stroke-width:0.9375;stroke-linecap:butt;stroke-linejoin:miter;stroke-miterlimit:4;stroke-opacity:1;stroke-dasharray:none"
       d="m 554.66462,930.63634 c 0,-3.195 0.69375,-14.045 -1.4325,-18.8125 -1.0675,-2.385 -2.8325,-3.25125 -5.74,-0.88125 -1.1625,0.94625 -1.73125,2.75875 -2.44875,4.17625 -0.72,1.42 -1.5825,2.445 -3.3375,1.8325 -1.275,-0.45 -2.2,-2.335 -2.825,-4.76125 -0.315,-1.2175 -0.55625,-2.57 -0.7275,-3.95 -0.17125,-1.18375 -0.3925,-2.59875 -0.55125,-4.0575 -0.15625,-1.4575 -0.2475,-2.965 -0.1375,-4.33375 -0.38,-2.08 0.78625,-3.84375 2.34125,-4.28375 4.66625,-1.32125 6.21875,6.16875 10.49875,5.2875 5.44125,-1.76125 2.33125,-9.2525 1.6625,-14.10625" />
    <path
       inkscape:connector-curvature="0"
       id="path224"
       style="fill:none;stroke:#231f20;stroke-width:0.9375;stroke-linecap:butt;stroke-linejoin:miter;stroke-miterlimit:4;stroke-opacity:1;stroke-dasharray:none"
       d="m 552.28674,887.34047 c -0.0225,-1.61625 -0.5175,-2.86375 -1.32375,-3.59125 -1.04875,-0.52 -1.8275,-0.52 -2.9925,-0.52 -3.11,0.8825 -5.05375,5.72875 -8.5525,4.40625 -4.6675,-1.76125 -7,-8.37 -5.44375,-14.09875 0.77625,-2.645 3.11,-5.7275 5.8325,-4.405 3.4975,1.32125 8.16375,7.04875 11.27375,1.32125 1.94375,-3.525 0,-7.49 1.01875,-10.85125" />
    <path
       inkscape:connector-curvature="0"
       id="path228"
       style="fill:none;stroke:#231f20;stroke-width:0.9375;stroke-linecap:butt;stroke-linejoin:miter;stroke-miterlimit:4;stroke-opacity:1;stroke-dasharray:none"
       d="m 555.50937,859.42047 c -0.3925,10.235 2.35625,19.58375 2.35625,29.81875 0,5.34 -0.78625,10.68 -0.78625,16.02 0.3925,7.12 2.74875,13.35375 2.74875,20.02875" />
    <path
       d="m 477.16949,888.25047 c 13.80125,0.59625 30.86125,-9.1225 41.43125,3.60375 4.79,5.7725 10.26125,4.13625 11.01,-3.44625 0.39125,-3.9475 1.30625,-18.1275 -4.74375,-18.33125 -3.48875,-0.11625 -7.22125,5.17 -9.41875,7.2375 -6.535,6.15 -18.845,2.67625 -26.94125,2.5075 -0.5975,-0.0125 -0.6875,0.915 -0.0875,0.92875 8.12,0.16875 19.55625,3.38375 26.70375,-1.9225 1.9,-1.41 9.71,-11.05 12.0175,-6.03875 1.90625,4.14875 1.7425,9.95875 1.61375,14.37375 -0.0475,1.53 -0.2125,3.07 -0.67625,4.53375 -2.55375,8.06875 -8.985,-0.72125 -10.43,-2.425 -1.8975,-2.2425 -4.4725,-3.73 -7.36625,-4.325 -11.1275,-2.29375 -21.89875,2.855 -33.025,2.375 -0.5975,-0.0263 -0.68625,0.9025 -0.0875,0.92875"
       style="fill:#231f20;fill-opacity:1;fill-rule:nonzero;stroke:none"
       id="path230"
       inkscape:connector-curvature="0" />
    <path
       d="m 494.48887,908.25047 c 7.64375,1.45625 16.1675,2.53 23.7425,0.2175 2.095,-0.6375 3.45,-1.9 4.7975,-3.54125 1.62875,-1.98375 2.925,-4.10625 5.15625,-5.52125 3.70375,-2.35125 4.01375,4.39125 4.23125,5.9975 0.4125,3.0575 0.79125,6.34375 0.4025,9.42 -1.17125,9.34375 -9.61625,3.1575 -13.855,0.96625 -8.75,-4.5175 -18.9725,-1.72125 -28.26125,-0.54625 -0.59625,0.075 -0.4325,0.99375 0.16375,0.91875 8.02625,-1.015 17.55125,-3.7125 25.35375,-0.68 3.735,1.45 7.485,5.2025 11.61125,5.645 6.90625,0.73875 6.12,-8.71 5.77625,-13.24 -0.37625,-4.92375 -1.39125,-13.54 -7.84625,-7.79875 -1.36,1.21125 -2.4,2.8725 -3.49625,4.30625 -2.44875,3.2025 -6.10125,3.85625 -9.88125,4.25875 -5.86375,0.62625 -12.045,-0.23375 -17.8075,-1.33125 -0.59,-0.1125 -0.67125,0.8175 -0.0875,0.92875"
       style="fill:#231f20;fill-opacity:1;fill-rule:nonzero;stroke:none"
       id="path232"
       inkscape:connector-curvature="0" />
    <path
       inkscape:connector-curvature="0"
       id="path164-1"
       style="fill:#3b4ca7;fill-opacity:1;fill-rule:nonzero;stroke:#000080;stroke-width:1.25000000000000000;stroke-linecap:butt;stroke-linejoin:miter;stroke-miterlimit:4;stroke-opacity:1;stroke-dasharray:none"
       d="m 548.66791,882.95886 0,0.22 c -0.15625,-0.01 -0.3175,-0.01 -0.48625,-0.01 -3.205,0.8612 -5.21,5.5987 -8.815,4.3087 -4.8075,-1.7237 -7.2125,-8.185 -5.61125,-13.78249 0.80375,-2.585 3.20625,-5.6 6.01125,-4.3062 2.0775,0.745 4.54375,2.9112 6.88,3.5525 l -0.003,0.01 c 1.61875,3.04499 2.02375,6.52369 2.02375,10.00499" />
    <path
       inkscape:connector-curvature="0"
       id="path160-7"
       style="fill:#ff0000;fill-opacity:1;fill-rule:nonzero;stroke:#800000;stroke-width:1.25;stroke-linecap:butt;stroke-linejoin:miter;stroke-miterlimit:4;stroke-opacity:1;stroke-dasharray:none"
       d="m 548.79201,909.30578 0.17375,0.6175 c -0.46625,0.2175 -0.9675,0.5325 -1.50375,0.95 -1.19625,0.9262 -1.785,2.6962 -2.525,4.0837 -0.7425,1.3863 -1.63125,2.39 -3.4375,1.7913 -1.31625,-0.44 -2.2675,-2.2825 -2.915,-4.6563 -0.3225,-1.1887 -0.57125,-2.51 -0.7475,-3.8587 -0.175,-1.1588 -0.405,-2.5413 -0.56875,-3.965 -0.16125,-1.4263 -0.25375,-2.9 -0.14125,-4.2388 -0.3925,-2.0325 0.81,-3.755 2.4125,-4.1875 3.935,-1.0587 5.7275,3.6575 8.66375,4.9275 l -0.0363,0.099 c 0,3.1275 1.5625,5.315 0.625,8.4375" />
    <path
       inkscape:connector-curvature="0"
       id="path136"
       style="fill:#3b4ca7;fill-opacity:1;fill-rule:nonzero;stroke:#2f3591;stroke-width:1.25;stroke-linecap:butt;stroke-linejoin:miter;stroke-miterlimit:4;stroke-opacity:1;stroke-dasharray:none"
       d="m 550.53765,1032.0268 0,0.2187 c -0.15625,-0 -0.315,-0 -0.48375,-0 -3.205,0.8613 -5.205,5.5988 -8.815,4.3075 -4.81,-1.7225 -7.21,-8.1825 -5.60625,-13.7837 0.79625,-2.5825 3.20125,-5.5988 6.01125,-4.305 2.07,0.745 4.53875,2.9112 6.875,3.5537 l 0,0.01 c 1.61875,3.045 2.01875,6.5225 2.01875,10.0038" />
    <path
       inkscape:connector-curvature="0"
       id="path140"
       style="fill:none;stroke:#231f20;stroke-width:0.9375;stroke-linecap:butt;stroke-linejoin:miter;stroke-miterlimit:4;stroke-opacity:1;stroke-dasharray:none"
       d="m 556.95852,1078.5825 c 0,-3.1225 0.7075,-13.73 -1.4825,-18.39 -1.0975,-2.33 -2.915,-3.1775 -5.915,-0.8612 -1.19875,0.9262 -1.78,2.6962 -2.525,4.0825 -0.74125,1.3875 -1.63,2.39 -3.4375,1.7925 -1.315,-0.44 -2.2675,-2.2825 -2.915,-4.6563 -0.32125,-1.1887 -0.57125,-2.5112 -0.74625,-3.8587 -0.17875,-1.1588 -0.405,-2.5413 -0.57125,-3.9663 -0.15875,-1.4262 -0.24625,-2.8987 -0.14,-4.2387 -0.3925,-2.0325 0.81375,-3.755 2.4175,-4.185 4.8075,-1.2925 6.40625,6.0287 10.8175,5.1675 5.60625,-1.7225 2.4,-9.0438 1.71625,-13.79" />
    <path
       inkscape:connector-curvature="0"
       id="path144"
       style="fill:none;stroke:#231f20;stroke-width:0.9375;stroke-linecap:butt;stroke-linejoin:miter;stroke-miterlimit:4;stroke-opacity:1;stroke-dasharray:none"
       d="m 554.50252,1036.2602 c -0.0225,-1.5813 -0.535,-2.8 -1.36,-3.51 -0.9325,-0.435 -1.655,-0.5 -2.605,-0.5038 -0.15625,-0 -0.315,-0 -0.48375,-0 -3.205,0.8613 -5.205,5.5988 -8.815,4.3063 -4.81,-1.7213 -7.21,-8.1813 -5.60625,-13.7813 0.79625,-2.5837 3.20125,-5.5987 6.01125,-4.3062 2.07,0.745 4.53875,2.9112 6.875,3.5537 1.72875,0.4725 3.37875,0.115 4.74125,-2.2625 2.00375,-3.445 0,-7.32 1.05,-10.6062" />
    <path
       inkscape:connector-curvature="0"
       id="path148"
       style="fill:none;stroke:#231f20;stroke-width:0.9375;stroke-linecap:butt;stroke-linejoin:miter;stroke-miterlimit:4;stroke-opacity:1;stroke-dasharray:none"
       d="m 557.8229,1008.9677 c -0.4025,10.005 2.42875,19.1437 2.42875,29.1487 0,5.22 -0.81,10.4388 -0.81,15.6588 0.405,6.96 2.835,13.055 2.835,19.5787" />
    <path
       inkscape:connector-curvature="0"
       id="path152"
       style="fill:none;stroke:#231f20;stroke-width:0.9375;stroke-linecap:butt;stroke-linejoin:miter;stroke-miterlimit:4;stroke-opacity:1;stroke-dasharray:none"
       d="m 548.51865,1022.0219 c 1.61875,3.045 2.01875,6.525 2.01875,10.0038" />
    <path
       d="m 480.43515,1036.4615 c 13.79875,0.5963 30.86,-9.1212 41.42625,3.605 4.7925,5.7713 10.26375,4.1375 11.0125,-3.4462 0.39125,-3.9463 1.30625,-18.13 -4.74375,-18.3313 -3.48875,-0.1162 -7.22125,5.1688 -9.41875,7.2363 -6.535,6.15 -18.845,2.6762 -26.94125,2.5075 -0.5975,-0.013 -0.6875,0.9162 -0.0875,0.9287 8.1225,0.1688 19.55625,3.3838 26.70375,-1.9212 1.9025,-1.4113 9.7125,-11.05 12.0175,-6.04 1.90625,4.15 1.7425,9.96 1.61375,14.375 -0.0463,1.5287 -0.2125,3.07 -0.67625,4.5337 -2.55125,8.07 -8.9875,-0.7225 -10.43,-2.4262 -1.8975,-2.2413 -4.475,-3.7288 -7.36625,-4.325 -11.1275,-2.2925 -21.89875,2.855 -33.0225,2.375 -0.6,-0.026 -0.6875,0.9025 -0.0875,0.9287"
       style="fill:#231f20;fill-opacity:1;fill-rule:nonzero;stroke:none"
       id="path154"
       inkscape:connector-curvature="0" />
    <path
       d="m 497.75202,1056.4615 c 7.64375,1.4563 16.1675,2.5313 23.7425,0.22 2.0975,-0.64 3.45,-1.9 4.7975,-3.5412 1.62875,-1.9863 2.9275,-4.1075 5.15625,-5.5238 3.70375,-2.3512 4.01375,4.3913 4.23125,5.9975 0.4125,3.0588 0.78875,6.345 0.4025,9.4225 -1.17375,9.3438 -9.61625,3.1563 -13.855,0.9663 -8.7475,-4.52 -18.9725,-1.7225 -28.26125,-0.5475 -0.59875,0.075 -0.4325,0.9937 0.16125,0.9187 8.02875,-1.015 17.55375,-3.7137 25.35625,-0.6812 3.735,1.4512 7.485,5.205 11.60875,5.6462 6.90875,0.7388 6.1225,-8.7112 5.77875,-13.2412 -0.37375,-4.9238 -1.39375,-13.54 -7.84625,-7.7988 -1.36,1.2113 -2.4025,2.8725 -3.49625,4.3063 -2.44875,3.2037 -6.10125,3.8562 -9.88125,4.26 -5.86375,0.6262 -12.045,-0.235 -17.8075,-1.3325 -0.59,-0.1125 -0.67125,0.8175 -0.0875,0.9287"
       style="fill:#231f20;fill-opacity:1;fill-rule:nonzero;stroke:none"
       id="path156"
       inkscape:connector-curvature="0" />
    <path
       inkscape:connector-curvature="0"
       id="path160-7-4"
       style="fill:#3b4ca7;fill-opacity:1;fill-rule:nonzero;stroke:#000080;stroke-width:1.25000000000000000;stroke-linecap:butt;stroke-linejoin:miter;stroke-miterlimit:4;stroke-opacity:1;stroke-dasharray:none"
       d="m 551.27584,1058.2633 0.17375,0.6175 c -0.46625,0.2175 -0.9675,0.5325 -1.50375,0.95 -1.19625,0.9262 -1.785,2.6962 -2.525,4.0837 -0.7425,1.3863 -1.63125,2.39 -3.4375,1.7913 -1.31625,-0.44 -2.2675,-2.2825 -2.915,-4.6563 -0.3225,-1.1887 -0.57125,-2.51 -0.7475,-3.8587 -0.175,-1.1588 -0.405,-2.5413 -0.56875,-3.965 -0.16125,-1.4263 -0.25375,-2.9 -0.14125,-4.2388 -0.3925,-2.0325 0.81,-3.755 2.4125,-4.1875 3.935,-1.0587 5.7275,3.6575 8.66375,4.9275 l -0.0363,0.099 c 0,3.1275 1.5625,5.315 0.625,8.4375" />
    <rect
       style="fill:none;stroke:none"
       id="rect3095"
       width="287.84048"
       height="301.33643"
       x="470.48807"
       y="823.32928" />
  </g>
</svg>
