<?xml version="1.0" encoding="UTF-8" standalone="no"?>
<!-- Created with Inkscape (http://www.inkscape.org/) -->

<svg
   xmlns:dc="http://purl.org/dc/elements/1.1/"
   xmlns:cc="http://creativecommons.org/ns#"
   xmlns:rdf="http://www.w3.org/1999/02/22-rdf-syntax-ns#"
   xmlns:svg="http://www.w3.org/2000/svg"
   xmlns="http://www.w3.org/2000/svg"
   xmlns:sodipodi="http://sodipodi.sourceforge.net/DTD/sodipodi-0.dtd"
   xmlns:inkscape="http://www.inkscape.org/namespaces/inkscape"
   id="svg2"
   version="1.1"
   inkscape:version="0.48.4 r9939"
   width="872.23041"
   height="872.23041"
   xml:space="preserve"
   sodipodi:docname="serial_fit_learnS_left.svg"><metadata
     id="metadata8"><rdf:RDF><cc:Work
         rdf:about=""><dc:format>image/svg+xml</dc:format><dc:type
           rdf:resource="http://purl.org/dc/dcmitype/StillImage" /><dc:title></dc:title></cc:Work></rdf:RDF></metadata><defs
     id="defs6"><clipPath
   clipPathUnits="userSpaceOnUse"
   id="clipPath174"><path
     d="m 986.668,6777.5 0,-6113.332 5800.002,0 0,6113.332 -5800.002,0 z"
     id="path176"
     inkscape:connector-curvature="0" /></clipPath><clipPath
   clipPathUnits="userSpaceOnUse"
   id="clipPath246"><path
     d="m 1200.83,6603.34 0,-1180.84 2551.67,0 0,1180.84 -2551.67,0 z"
     id="path248"
     inkscape:connector-curvature="0" /></clipPath><clipPath
   clipPathUnits="userSpaceOnUse"
   id="clipPath278"><path
     d="m 1200.83,6603.34 0,-1180.84 2551.67,0 0,1180.84 -2551.67,0 z"
     id="path280"
     inkscape:connector-curvature="0" /></clipPath><clipPath
   clipPathUnits="userSpaceOnUse"
   id="clipPath294"><path
     d="m 1200.83,6603.34 0,-1180.84 2551.67,0 0,1180.84 -2551.67,0 z"
     id="path296"
     inkscape:connector-curvature="0" /></clipPath><clipPath
   clipPathUnits="userSpaceOnUse"
   id="clipPath326"><path
     d="m 1200.83,6603.34 0,-1180.84 2551.67,0 0,1180.84 -2551.67,0 z"
     id="path328"
     inkscape:connector-curvature="0" /></clipPath><clipPath
   clipPathUnits="userSpaceOnUse"
   id="clipPath314"><path
     d="m 3139.17,6550.84 0,-1075.84 1493.33,0 0,1075.84 -1493.33,0 z"
     id="path316"
     inkscape:connector-curvature="0" /></clipPath><clipPath
   clipPathUnits="userSpaceOnUse"
   id="clipPath298"><path
     d="m 3139.17,6550.84 0,-1075.84 1493.33,0 0,1075.84 -1493.33,0 z"
     id="path300"
     inkscape:connector-curvature="0" /></clipPath><clipPath
   clipPathUnits="userSpaceOnUse"
   id="clipPath282"><path
     d="m 3139.17,6550.84 0,-1075.84 1493.33,0 0,1075.84 -1493.33,0 z"
     id="path284"
     inkscape:connector-curvature="0" /></clipPath><clipPath
   clipPathUnits="userSpaceOnUse"
   id="clipPath266"><path
     d="m 3139.17,6550.84 0,-1075.84 1493.33,0 0,1075.84 -1493.33,0 z"
     id="path268"
     inkscape:connector-curvature="0" /></clipPath>











</defs><sodipodi:namedview
     pagecolor="#ffffff"
     bordercolor="#666666"
     borderopacity="1"
     objecttolerance="10"
     gridtolerance="10"
     guidetolerance="10"
     inkscape:pageopacity="0"
     inkscape:pageshadow="2"
     inkscape:window-width="2560"
     inkscape:window-height="1538"
     id="namedview4"
     showgrid="false"
     inkscape:zoom="1.0180796"
     inkscape:cx="181.3227"
     inkscape:cy="463.66121"
     inkscape:window-x="-8"
     inkscape:window-y="-8"
     inkscape:window-maximized="1"
     inkscape:current-layer="g12"
     fit-margin-top="0"
     fit-margin-left="0"
     fit-margin-right="0"
     fit-margin-bottom="0" /><g
     id="g10"
     inkscape:groupmode="layer"
     inkscape:label="ink_ext_XXXXXX"
     transform="matrix(1.25,0,0,-1.25,0,867.3192)"><g
       id="g12"
       transform="scale(0.1,0.1)"><path
   inkscape:connector-curvature="0"
   d="m 1001.2528,677.76083 0,6113.32997 5799.162,0 0,-6113.32997 -5799.162,0"
   style="fill:none;stroke:#ffffff;stroke-width:5;stroke-linecap:butt;stroke-linejoin:round;stroke-miterlimit:10;stroke-opacity:1;stroke-dasharray:none"
   id="path18" /><path
   inkscape:connector-curvature="0"
   d="m 1001.2528,677.76083 5799.162,0"
   style="fill:none;stroke:#000000;stroke-width:5;stroke-linecap:butt;stroke-linejoin:round;stroke-miterlimit:10;stroke-opacity:1;stroke-dasharray:none"
   id="path22" /><path
   inkscape:connector-curvature="0"
   d="m 1001.2528,677.76083 0,6113.33997"
   style="fill:none;stroke:#000000;stroke-width:5;stroke-linecap:butt;stroke-linejoin:round;stroke-miterlimit:10;stroke-opacity:1;stroke-dasharray:none"
   id="path26" /><path
   inkscape:connector-curvature="0"
   d="m 1001.2528,677.76083 5799.162,0"
   style="fill:none;stroke:#000000;stroke-width:5;stroke-linecap:butt;stroke-linejoin:round;stroke-miterlimit:10;stroke-opacity:1;stroke-dasharray:none"
   id="path28" /><path
   inkscape:connector-curvature="0"
   d="m 1001.2528,677.76083 0,6113.33997"
   style="fill:none;stroke:#000000;stroke-width:5;stroke-linecap:butt;stroke-linejoin:round;stroke-miterlimit:10;stroke-opacity:1;stroke-dasharray:none"
   id="path30" /><path
   inkscape:connector-curvature="0"
   d="m 1001.2528,677.76083 0,61.668"
   style="fill:none;stroke:#000000;stroke-width:5;stroke-linecap:butt;stroke-linejoin:round;stroke-miterlimit:10;stroke-opacity:1;stroke-dasharray:none"
   id="path32" /><path
   inkscape:connector-curvature="0"
   d="m 1001.2528,6790.2608 0,-60.83"
   style="fill:none;stroke:#000000;stroke-width:5;stroke-linecap:butt;stroke-linejoin:round;stroke-miterlimit:10;stroke-opacity:1;stroke-dasharray:none"
   id="path34" /><path
   inkscape:connector-curvature="0"
   d="m 2160.4148,677.76083 0,61.668"
   style="fill:none;stroke:#000000;stroke-width:5;stroke-linecap:butt;stroke-linejoin:round;stroke-miterlimit:10;stroke-opacity:1;stroke-dasharray:none"
   id="path42" /><path
   inkscape:connector-curvature="0"
   d="m 3320.4148,677.76083 0,61.668"
   style="fill:none;stroke:#000000;stroke-width:5;stroke-linecap:butt;stroke-linejoin:round;stroke-miterlimit:10;stroke-opacity:1;stroke-dasharray:none"
   id="path52" /><path
   inkscape:connector-curvature="0"
   d="m 4480.4148,677.76083 0,61.668"
   style="fill:none;stroke:#000000;stroke-width:5;stroke-linecap:butt;stroke-linejoin:round;stroke-miterlimit:10;stroke-opacity:1;stroke-dasharray:none"
   id="path62" /><path
   inkscape:connector-curvature="0"
   d="m 5640.4148,677.76083 0,61.668"
   style="fill:none;stroke:#000000;stroke-width:5;stroke-linecap:butt;stroke-linejoin:round;stroke-miterlimit:10;stroke-opacity:1;stroke-dasharray:none"
   id="path72" /><path
   inkscape:connector-curvature="0"
   d="m 1001.2528,677.76083 60.832,0"
   style="fill:none;stroke:#000000;stroke-width:5;stroke-linecap:butt;stroke-linejoin:round;stroke-miterlimit:10;stroke-opacity:1;stroke-dasharray:none"
   id="path92" /><path
   inkscape:connector-curvature="0"
   d="m 6800.4148,677.76083 -61.66,0"
   style="fill:none;stroke:#000000;stroke-width:5;stroke-linecap:butt;stroke-linejoin:round;stroke-miterlimit:10;stroke-opacity:1;stroke-dasharray:none"
   id="path94" /><g
   id="g96"
   transform="matrix(10,0,0,10,14.584771,12.760828)"><text
   transform="matrix(1,0,0,-1,84.6668,59.0832)"
   id="text98"><tspan
     style="font-size:20px;font-variant:normal;font-weight:normal;writing-mode:lr-tb;fill:#000000;fill-opacity:1;fill-rule:nonzero;stroke:none;font-family:Helvetica;-inkscape-font-specification:Helvetica"
     x="0"
     y="0"
     id="tspan100">0</tspan></text>




</g><path
   inkscape:connector-curvature="0"
   d="m 1001.2528,1696.9308 60.832,0"
   style="fill:none;stroke:#000000;stroke-width:5;stroke-linecap:butt;stroke-linejoin:round;stroke-miterlimit:10;stroke-opacity:1;stroke-dasharray:none"
   id="path102" /><path
   inkscape:connector-curvature="0"
   d="m 1001.2528,2715.2608 60.832,0"
   style="fill:none;stroke:#000000;stroke-width:5;stroke-linecap:butt;stroke-linejoin:round;stroke-miterlimit:10;stroke-opacity:1;stroke-dasharray:none"
   id="path112" /><path
   inkscape:connector-curvature="0"
   d="m 1001.2528,3734.4308 60.832,0"
   style="fill:none;stroke:#000000;stroke-width:5;stroke-linecap:butt;stroke-linejoin:round;stroke-miterlimit:10;stroke-opacity:1;stroke-dasharray:none"
   id="path122" /><path
   inkscape:connector-curvature="0"
   d="m 1001.2528,4753.6008 60.832,0"
   style="fill:none;stroke:#000000;stroke-width:5;stroke-linecap:butt;stroke-linejoin:round;stroke-miterlimit:10;stroke-opacity:1;stroke-dasharray:none"
   id="path132" /><path
   inkscape:connector-curvature="0"
   d="m 1001.2528,5771.9308 60.832,0"
   style="fill:none;stroke:#000000;stroke-width:5;stroke-linecap:butt;stroke-linejoin:round;stroke-miterlimit:10;stroke-opacity:1;stroke-dasharray:none"
   id="path142" /><path
   inkscape:connector-curvature="0"
   d="m 1001.2528,6790.2608 60.832,0"
   style="fill:none;stroke:#000000;stroke-width:5;stroke-linecap:butt;stroke-linejoin:round;stroke-miterlimit:10;stroke-opacity:1;stroke-dasharray:none"
   id="path152" /><path
   inkscape:connector-curvature="0"
   d="m 1001.2528,677.76083 5799.162,0"
   style="fill:none;stroke:#000000;stroke-width:5;stroke-linecap:butt;stroke-linejoin:round;stroke-miterlimit:10;stroke-opacity:1;stroke-dasharray:none"
   id="path164" /><path
   inkscape:connector-curvature="0"
   d="m 1001.2528,677.76083 0,6113.33997"
   style="fill:none;stroke:#000000;stroke-width:5;stroke-linecap:butt;stroke-linejoin:round;stroke-miterlimit:10;stroke-opacity:1;stroke-dasharray:none"
   id="path168" /><path
   d="m 1058.7548,725.26083 58.33,46.668 57.5,46.664 58.33,46.668 57.5,46.668 58.34,46.664 58.33,45.83597 57.5,46.662 58.33,46.67 57.5,46.67 58.34,45.83 58.33,46.67 57.5,46.66 58.33,45.84 57.5,46.66 58.34,45.84 58.33,45.83 57.5,46.67 58.33,45.83 57.5,45.83 58.34,46.67 57.5,45.83 58.33,45.84 58.33,45.83 57.5,45.83 58.34,45.84 57.5,45.83 58.33,45.83 58.33,45.84 57.5,45.83 58.34,45.83 57.5,45.84 58.33,45 58.33,45.83 57.5,45.83 58.34,45 57.5,45.84 58.33,45 58.33,45.83 57.5,45 58.34,45.83 57.5,45 58.33,45 57.5,45 58.33,45.84 58.34,45 57.5,45 58.33,45 57.5,45 58.33,45 58.34,45 57.5,45 58.33,45 57.5,45 58.33,45 58.34,44.16 57.5,45 58.33,45 57.5,44.17 58.33,45 57.5,44.17 58.34,45 58.33,44.16 57.5,45 58.33,44.17 57.5,45 58.34,44.17 58.33,44.16 57.5,44.17 58.33,44.17 57.5,45 58.34,44.16 58.33,44.17 57.5,44.17 58.33,44.16 57.5,44.17 58.34,43.33 58.33,44.17 57.5,44.17 58.33,44.16 57.5,44.17 58.34,43.33 57.5,44.17 58.33,43.33 58.33,44.17 57.5,44.17 58.34,43.33 57.5,43.33 58.33,44.17 58.33,43.33 57.5,43.34 58.34,44.16 57.5,43.34 58.33,43.33 58.33,43.33 57.5,43.34 58.34,43.33 57.5,43.33 58.33,43.34 58.33,43.33"
   style="fill:none;stroke:#000000;stroke-width:64;stroke-linecap:butt;stroke-linejoin:round;stroke-miterlimit:10;stroke-opacity:1;stroke-dasharray:none"
   id="path178"
   inkscape:connector-curvature="0" /><path
   d="m 1001.2528,677.76083 57.502,47.5"
   style="fill:none;stroke:#000000;stroke-width:20;stroke-linecap:butt;stroke-linejoin:round;stroke-miterlimit:10;stroke-opacity:1;stroke-dasharray:none"
   id="path180"
   inkscape:connector-curvature="0" /><path
   d="m 1058.7548,691.09283 58.33,13.336 57.5,14.164 58.33,13.336 57.5,13.332 58.34,13.332 58.33,13.336 57.5,14.164 58.33,13.336 57.5,14.164 58.34,13.336 58.33,14.164 57.5,13.336 58.33,14.164 57.5,14.168 58.34,14.168 58.33,13.332 57.5,14.168 58.33,14.164 57.5,14.168 58.34,14.168 57.5,15 58.33,14.164 58.33,14.16797 57.5,14.17 58.34,15 57.5,14.16 58.33,15 58.33,14.17 57.5,15 58.34,15 57.5,15 58.33,14.17 58.33,15 57.5,15 58.34,15 57.5,15 58.33,15.83 58.33,15 57.5,15 58.34,15.83 57.5,15 58.33,15.84 57.5,15 58.33,15.83 58.34,15.83 57.5,15.84 58.33,15.83 57.5,15.83 58.33,15.84 58.34,15.83 57.5,15.83 58.33,16.67 57.5,15.83 58.33,16.67 58.34,15.83 57.5,16.67 58.33,16.67 57.5,16.66 58.33,16.67 57.5,16.67 58.34,16.66 58.33,16.67 57.5,17.5 58.33,16.67 57.5,17.5 58.34,16.66 58.33,17.5 57.5,17.5 58.33,17.5 57.5,17.5 58.34,17.5 58.33,17.5 57.5,17.5 58.33,18.34 57.5,17.5 58.34,18.33 58.33,18.33 57.5,18.34 58.33,18.33 57.5,18.33 58.34,18.34 57.5,19.16 58.33,18.34 58.33,19.16 57.5,18.34 58.34,19.16 57.5,19.17 58.33,19.17 58.33,19.16 57.5,20 58.34,19.17 57.5,20 58.33,20 58.33,19.17 57.5,20 58.34,20.83 57.5,20 58.33,20 58.33,20.83"
   style="fill:none;stroke:#000000;stroke-width:64;stroke-linecap:butt;stroke-linejoin:round;stroke-miterlimit:10;stroke-opacity:1;stroke-dasharray:192, 192;stroke-dashoffset:0"
   id="path182"
   inkscape:connector-curvature="0" /><path
   d="m 1001.2528,677.76083 57.502,13.332"
   style="fill:none;stroke:#000000;stroke-width:20;stroke-linecap:butt;stroke-linejoin:round;stroke-miterlimit:10;stroke-opacity:1;stroke-dasharray:60;stroke-dashoffset:0"
   id="path184"
   inkscape:connector-curvature="0" /><path
   d="m 1001.2528,677.76083 57.502,25"
   style="fill:none;stroke:#c00000;stroke-width:20;stroke-linecap:butt;stroke-linejoin:round;stroke-miterlimit:10;stroke-opacity:1;stroke-dasharray:none"
   id="path188"
   inkscape:connector-curvature="0" /><path
   d="m 1001.2528,677.76083 57.502,43.332"
   style="fill:none;stroke:#c00000;stroke-width:20;stroke-linecap:butt;stroke-linejoin:round;stroke-miterlimit:10;stroke-opacity:1;stroke-dasharray:60;stroke-dashoffset:0"
   id="path192"
   inkscape:connector-curvature="0" /><text
   id="text196"
   transform="scale(1,-1)"
   x="2078.2544"
   y="-62.948296"
   style="font-size:192px"><tspan
     id="tspan198"
     sodipodi:role="line"
     y="-62.948296"
     x="2078.2544 2469.2947 2682.4146 3038.2544 3180.3345 3536.1748 3678.2544 4034.0947 4389.9346 4567.855 4745.7744 4887.855 5420.9741"
     style="font-size:640px;font-variant:normal;font-weight:normal;writing-mode:lr-tb;fill:#000000;fill-opacity:1;fill-rule:nonzero;stroke:none;font-family:Helvetica;-inkscape-font-specification:Helvetica">Training time</tspan></text>

<g
   id="g3249"
   transform="matrix(1.6,0,0,1.6,-190.14069,-2251.0507)"><text
   style="font-size:120px"
   y="420.41678"
   x="1777.7607"
   transform="matrix(0,1,1,0,0,0)"
   id="text200"><tspan
     style="font-size:400px;font-variant:normal;font-weight:normal;writing-mode:lr-tb;fill:#000000;fill-opacity:1;fill-rule:nonzero;stroke:none;font-family:Helvetica;-inkscape-font-specification:Helvetica"
     x="1777.7607 2000.1608 2222.5608 2444.9607 2578.1609 2800.5608 2889.3608 3111.7607 3334.1609 3445.3608 3578.5608"
     y="420.41678"
     sodipodi:role="line"
     id="tspan202">Learning (−</tspan></text>

<text
   style="font-size:120px"
   y="420.41678"
   x="3821.9309"
   transform="matrix(0,1,1,0,0,0)"
   id="text204"><tspan
     style="font-size:400px;font-variant:normal;font-weight:normal;writing-mode:lr-tb;fill:#000000;fill-opacity:1;fill-rule:nonzero;stroke:none;font-family:Symbol;-inkscape-font-specification:Symbol"
     x="3821.9309"
     y="420.41678"
     id="tspan206">∆</tspan></text>

<text
   style="font-size:120px"
   y="420.41678"
   x="4177.2949"
   transform="matrix(0,1,1,0,0,0)"
   id="text208"><tspan
     style="font-size:400px;font-variant:normal;font-weight:normal;writing-mode:lr-tb;fill:#000000;fill-opacity:1;fill-rule:nonzero;stroke:none;font-family:Helvetica;-inkscape-font-specification:Helvetica"
     x="4177.2949 4510.4946 4732.895 4955.2949 5177.6948 5288.895 5577.6948"
     y="420.41678"
     sodipodi:role="line"
     id="tspan210">mean w)</tspan></text>

</g><g
   id="g3378"
   transform="matrix(1.95,0,0,1.95,-4015.0761,-1281.8225)"><g
     id="g304"
     transform="matrix(10,0,0,10,-410.415,-2370)"><text
   transform="matrix(1,0,0,-1,352.917,555.167)"
   id="text306"><tspan
     style="font-size:20px;font-variant:normal;font-weight:normal;writing-mode:lr-tb;fill:#000000;fill-opacity:1;fill-rule:nonzero;stroke:none;font-family:Helvetica;-inkscape-font-specification:Helvetica"
     sodipodi:role="line"
     id="tspan308"
     x="0"
     y="0">Enh.Plas. w/ rev</tspan></text>




</g><g
     id="g288"
     transform="matrix(10,0,0,10,-410.415,-2370)"><text
   transform="matrix(1,0,0,-1,352.917,581.167)"
   id="text290"><tspan
     style="font-size:20px;font-variant:normal;font-weight:normal;writing-mode:lr-tb;fill:#000000;fill-opacity:1;fill-rule:nonzero;stroke:none;font-family:Helvetica;-inkscape-font-specification:Helvetica"
     x="0 18.879999 31.1"
     y="0"
     sodipodi:role="line"
     id="tspan292">WT           w/ rev</tspan></text>




</g><g
     id="g272"
     transform="matrix(10,0,0,10,-410.415,-2370)"><text
   transform="matrix(1,0,0,-1,352.917,607.25)"
   id="text274"><tspan
     style="font-size:20px;font-variant:normal;font-weight:normal;writing-mode:lr-tb;fill:#000000;fill-opacity:1;fill-rule:nonzero;stroke:none;font-family:Helvetica;-inkscape-font-specification:Helvetica"
     sodipodi:role="line"
     id="tspan276"
     x="0"
     y="0">Enh.Plas. w/o rev</tspan></text>




</g><g
     id="g256"
     transform="matrix(10,0,0,10,-410.415,-2370)"><text
   transform="matrix(1,0,0,-1,352.917,633.25)"
   id="text258"><tspan
     style="font-size:20px;font-variant:normal;font-weight:normal;writing-mode:lr-tb;fill:#000000;fill-opacity:1;fill-rule:nonzero;stroke:none;font-family:Helvetica;-inkscape-font-specification:Helvetica"
     x="0 18.879999 18.879999"
     y="0"
     sodipodi:role="line"
     id="tspan260">WT             w/o rev</tspan></text>




</g><path
     d="m 2709.585,3150 2080,0 0,1040 -2080,0 z"
     style="fill:none;stroke:#000000;stroke-width:8;stroke-miterlimit:4;stroke-dasharray:none"
     id="path232"
     inkscape:connector-curvature="0"
     sodipodi:nodetypes="ccccc" /><g
     id="g262"
     style="stroke-width:40;stroke-miterlimit:10;stroke-dasharray:none"
     transform="translate(-410.415,-2370)"><g
       id="g264"
       clip-path="url(#clipPath266)"
       style="stroke-width:40;stroke-miterlimit:10;stroke-dasharray:none"><path
         d="m 3199.17,6403.34 300,0"
         style="fill:none;stroke:#000000;stroke-width:40;stroke-linecap:butt;stroke-linejoin:round;stroke-miterlimit:10;stroke-opacity:1;stroke-dasharray:none"
         id="path270"
         inkscape:connector-curvature="0" /></g></g><g
     id="g278"
     style="stroke-width:40;stroke-miterlimit:10;stroke-dasharray:none"
     transform="translate(-410.415,-2370)"><g
       id="g280"
       clip-path="url(#clipPath282)"
       style="stroke-width:40;stroke-miterlimit:10;stroke-dasharray:none"><path
         d="m 3199.17,6143.34 300,0"
         style="fill:none;stroke:#c00000;stroke-width:40;stroke-linecap:butt;stroke-linejoin:round;stroke-miterlimit:10;stroke-opacity:1;stroke-dasharray:none"
         id="path286"
         inkscape:connector-curvature="0" /></g></g><g
     id="g294"
     style="stroke-width:40;stroke-miterlimit:10;stroke-dasharray:120, 120;stroke-dashoffset:0"
     transform="translate(-410.415,-2370)"><g
       id="g296"
       clip-path="url(#clipPath298)"
       style="stroke-width:40;stroke-miterlimit:10;stroke-dasharray:120, 120;stroke-dashoffset:0"><path
         d="m 3199.17,5884.17 300,0"
         style="fill:none;stroke:#000000;stroke-width:40;stroke-linecap:butt;stroke-linejoin:round;stroke-miterlimit:10;stroke-opacity:1;stroke-dasharray:120, 120;stroke-dashoffset:0"
         id="path302"
         inkscape:connector-curvature="0" /></g></g><g
     id="g310"
     style="stroke-width:40;stroke-miterlimit:10;stroke-dasharray:120, 120;stroke-dashoffset:0"
     transform="translate(-410.415,-2370)"><g
       id="g312"
       clip-path="url(#clipPath314)"
       style="stroke-width:40;stroke-miterlimit:10;stroke-dasharray:120, 120;stroke-dashoffset:0"><path
         d="m 3199.17,5623.34 300,0"
         style="fill:none;stroke:#c00000;stroke-width:40;stroke-linecap:butt;stroke-linejoin:round;stroke-miterlimit:10;stroke-opacity:1;stroke-dasharray:120, 120;stroke-dashoffset:0"
         id="path318"
         inkscape:connector-curvature="0" /></g></g></g><rect
   style="fill:none;stroke:none"
   id="rect3120"
   width="872.23041"
   height="872.23041"
   x="0"
   y="-2.3192019"
   transform="matrix(8,0,0,-8,0,6920)" /></g></g></svg>