<?xml version="1.0" encoding="UTF-8" standalone="no"?>
<!-- Created with Inkscape (http://www.inkscape.org/) -->

<svg
   xmlns:dc="http://purl.org/dc/elements/1.1/"
   xmlns:cc="http://creativecommons.org/ns#"
   xmlns:rdf="http://www.w3.org/1999/02/22-rdf-syntax-ns#"
   xmlns:svg="http://www.w3.org/2000/svg"
   xmlns="http://www.w3.org/2000/svg"
   xmlns:sodipodi="http://sodipodi.sourceforge.net/DTD/sodipodi-0.dtd"
   xmlns:inkscape="http://www.inkscape.org/namespaces/inkscape"
   id="svg2"
   version="1.1"
   inkscape:version="0.48.4 r9939"
   width="860"
   height="865"
   xml:space="preserve"
   sodipodi:docname="serial_fit_learnS.svg"><metadata
     id="metadata8"><rdf:RDF><cc:Work
         rdf:about=""><dc:format>image/svg+xml</dc:format><dc:type
           rdf:resource="http://purl.org/dc/dcmitype/StillImage" /><dc:title /></cc:Work></rdf:RDF></metadata><defs
     id="defs6"><clipPath
       clipPathUnits="userSpaceOnUse"
       id="clipPath174"><path
         d="m 986.668,6777.5 0,-6113.332 5800.002,0 0,6113.332 -5800.002,0 z"
         id="path176" /></clipPath><clipPath
       clipPathUnits="userSpaceOnUse"
       id="clipPath246"><path
         d="m 1200.83,6603.34 0,-1180.84 2551.67,0 0,1180.84 -2551.67,0 z"
         id="path248" /></clipPath><clipPath
       clipPathUnits="userSpaceOnUse"
       id="clipPath278"><path
         d="m 1200.83,6603.34 0,-1180.84 2551.67,0 0,1180.84 -2551.67,0 z"
         id="path280" /></clipPath><clipPath
       clipPathUnits="userSpaceOnUse"
       id="clipPath294"><path
         d="m 1200.83,6603.34 0,-1180.84 2551.67,0 0,1180.84 -2551.67,0 z"
         id="path296" /></clipPath><clipPath
       clipPathUnits="userSpaceOnUse"
       id="clipPath326"><path
         d="m 1200.83,6603.34 0,-1180.84 2551.67,0 0,1180.84 -2551.67,0 z"
         id="path328" /></clipPath><clipPath
       clipPathUnits="userSpaceOnUse"
       id="clipPath314"><path
         d="m 3139.17,6550.84 0,-1075.84 1493.33,0 0,1075.84 -1493.33,0 z"
         id="path316"
         inkscape:connector-curvature="0" /></clipPath><clipPath
       clipPathUnits="userSpaceOnUse"
       id="clipPath298"><path
         d="m 3139.17,6550.84 0,-1075.84 1493.33,0 0,1075.84 -1493.33,0 z"
         id="path300"
         inkscape:connector-curvature="0" /></clipPath><clipPath
       clipPathUnits="userSpaceOnUse"
       id="clipPath282"><path
         d="m 3139.17,6550.84 0,-1075.84 1493.33,0 0,1075.84 -1493.33,0 z"
         id="path284"
         inkscape:connector-curvature="0" /></clipPath><clipPath
       clipPathUnits="userSpaceOnUse"
       id="clipPath266"><path
         d="m 3139.17,6550.84 0,-1075.84 1493.33,0 0,1075.84 -1493.33,0 z"
         id="path268"
         inkscape:connector-curvature="0" /></clipPath></defs><sodipodi:namedview
     pagecolor="#ffffff"
     bordercolor="#666666"
     borderopacity="1"
     objecttolerance="10"
     gridtolerance="10"
     guidetolerance="10"
     inkscape:pageopacity="0"
     inkscape:pageshadow="2"
     inkscape:window-width="2560"
     inkscape:window-height="1538"
     id="namedview4"
     showgrid="false"
     inkscape:zoom="1.439782"
     inkscape:cx="461.75263"
     inkscape:cy="458.75"
     inkscape:window-x="-8"
     inkscape:window-y="-8"
     inkscape:window-maximized="1"
     inkscape:current-layer="g12" /><g
     id="g10"
     inkscape:groupmode="layer"
     inkscape:label="ink_ext_XXXXXX"
     transform="matrix(1.25,0,0,-1.25,0,865)"><g
       id="g12"
       transform="scale(0.1,0.1)"><path
         d="m 986.668,665 0,6113.33 5799.162,0 0,-6113.33 -5799.162,0"
         style="fill:none;stroke:#ffffff;stroke-opacity:1;stroke-width:5;stroke-linecap:butt;stroke-linejoin:round;stroke-miterlimit:10;stroke-dasharray:none"
         id="path18" /><path
         d="m 986.668,6778.34 5799.162,0"
         style="fill:none;stroke:#000000;stroke-opacity:1;stroke-width:5;stroke-linecap:butt;stroke-linejoin:round;stroke-miterlimit:10;stroke-dasharray:none"
         id="path20" /><path
         d="m 986.668,665 5799.162,0"
         style="fill:none;stroke:#000000;stroke-opacity:1;stroke-width:5;stroke-linecap:butt;stroke-linejoin:round;stroke-miterlimit:10;stroke-dasharray:none"
         id="path22" /><path
         d="m 6785.83,665 0,6113.34"
         style="fill:none;stroke:#000000;stroke-opacity:1;stroke-width:5;stroke-linecap:butt;stroke-linejoin:round;stroke-miterlimit:10;stroke-dasharray:none"
         id="path24" /><path
         d="m 986.668,665 0,6113.34"
         style="fill:none;stroke:#000000;stroke-opacity:1;stroke-width:5;stroke-linecap:butt;stroke-linejoin:round;stroke-miterlimit:10;stroke-dasharray:none"
         id="path26" /><path
         d="m 986.668,665 5799.162,0"
         style="fill:none;stroke:#000000;stroke-opacity:1;stroke-width:5;stroke-linecap:butt;stroke-linejoin:round;stroke-miterlimit:10;stroke-dasharray:none"
         id="path28" /><path
         d="m 986.668,665 0,6113.34"
         style="fill:none;stroke:#000000;stroke-opacity:1;stroke-width:5;stroke-linecap:butt;stroke-linejoin:round;stroke-miterlimit:10;stroke-dasharray:none"
         id="path30" /><path
         d="m 986.668,665 0,61.668"
         style="fill:none;stroke:#000000;stroke-opacity:1;stroke-width:5;stroke-linecap:butt;stroke-linejoin:round;stroke-miterlimit:10;stroke-dasharray:none"
         id="path32" /><path
         d="m 986.668,6777.5 0,-60.83"
         style="fill:none;stroke:#000000;stroke-opacity:1;stroke-width:5;stroke-linecap:butt;stroke-linejoin:round;stroke-miterlimit:10;stroke-dasharray:none"
         id="path34" /><g
         id="g36"
         transform="scale(10,10)"><text
   transform="matrix(1,0,0,-1,93.1668,45.0832)"
   id="text38"><tspan
     style="fill:#000000;fill-opacity:1;fill-rule:nonzero;stroke:none;font-family:Helvetica;font-variant:normal;font-weight:normal;font-size:20;writing-mode:lr;-inkscape-font-specification:Helvetica"
     x="0"
     y="0"
     id="tspan40">0</tspan></text>

</g><path
         d="m 2145.83,665 0,61.668"
         style="fill:none;stroke:#000000;stroke-opacity:1;stroke-width:5;stroke-linecap:butt;stroke-linejoin:round;stroke-miterlimit:10;stroke-dasharray:none"
         id="path42" /><path
         d="m 2145.83,6777.5 0,-60.83"
         style="fill:none;stroke:#000000;stroke-opacity:1;stroke-width:5;stroke-linecap:butt;stroke-linejoin:round;stroke-miterlimit:10;stroke-dasharray:none"
         id="path44" /><g
         id="g46"
         transform="scale(10,10)"><text
   transform="matrix(1,0,0,-1,209.083,45.0832)"
   id="text48"><tspan
     style="fill:#000000;fill-opacity:1;fill-rule:nonzero;stroke:none;font-family:Helvetica;font-variant:normal;font-weight:normal;font-size:20;writing-mode:lr;-inkscape-font-specification:Helvetica"
     x="0"
     y="0"
     id="tspan50">1</tspan></text>

</g><path
         d="m 3305.83,665 0,61.668"
         style="fill:none;stroke:#000000;stroke-opacity:1;stroke-width:5;stroke-linecap:butt;stroke-linejoin:round;stroke-miterlimit:10;stroke-dasharray:none"
         id="path52" /><path
         d="m 3305.83,6777.5 0,-60.83"
         style="fill:none;stroke:#000000;stroke-opacity:1;stroke-width:5;stroke-linecap:butt;stroke-linejoin:round;stroke-miterlimit:10;stroke-dasharray:none"
         id="path54" /><g
         id="g56"
         transform="scale(10,10)"><text
   transform="matrix(1,0,0,-1,325.083,45.0832)"
   id="text58"><tspan
     style="fill:#000000;fill-opacity:1;fill-rule:nonzero;stroke:none;font-family:Helvetica;font-variant:normal;font-weight:normal;font-size:20;writing-mode:lr;-inkscape-font-specification:Helvetica"
     x="0"
     y="0"
     id="tspan60">2</tspan></text>

</g><path
         d="m 4465.83,665 0,61.668"
         style="fill:none;stroke:#000000;stroke-opacity:1;stroke-width:5;stroke-linecap:butt;stroke-linejoin:round;stroke-miterlimit:10;stroke-dasharray:none"
         id="path62" /><path
         d="m 4465.83,6777.5 0,-60.83"
         style="fill:none;stroke:#000000;stroke-opacity:1;stroke-width:5;stroke-linecap:butt;stroke-linejoin:round;stroke-miterlimit:10;stroke-dasharray:none"
         id="path64" /><g
         id="g66"
         transform="scale(10,10)"><text
   transform="matrix(1,0,0,-1,441.083,45.0832)"
   id="text68"><tspan
     style="fill:#000000;fill-opacity:1;fill-rule:nonzero;stroke:none;font-family:Helvetica;font-variant:normal;font-weight:normal;font-size:20;writing-mode:lr;-inkscape-font-specification:Helvetica"
     x="0"
     y="0"
     id="tspan70">3</tspan></text>

</g><path
         d="m 5625.83,665 0,61.668"
         style="fill:none;stroke:#000000;stroke-opacity:1;stroke-width:5;stroke-linecap:butt;stroke-linejoin:round;stroke-miterlimit:10;stroke-dasharray:none"
         id="path72" /><path
         d="m 5625.83,6777.5 0,-60.83"
         style="fill:none;stroke:#000000;stroke-opacity:1;stroke-width:5;stroke-linecap:butt;stroke-linejoin:round;stroke-miterlimit:10;stroke-dasharray:none"
         id="path74" /><g
         id="g76"
         transform="scale(10,10)"><text
   transform="matrix(1,0,0,-1,557.083,45.0832)"
   id="text78"><tspan
     style="fill:#000000;fill-opacity:1;fill-rule:nonzero;stroke:none;font-family:Helvetica;font-variant:normal;font-weight:normal;font-size:20;writing-mode:lr;-inkscape-font-specification:Helvetica"
     x="0"
     y="0"
     id="tspan80">4</tspan></text>

</g><path
         d="m 6785.83,665 0,61.668"
         style="fill:none;stroke:#000000;stroke-opacity:1;stroke-width:5;stroke-linecap:butt;stroke-linejoin:round;stroke-miterlimit:10;stroke-dasharray:none"
         id="path82" /><path
         d="m 6785.83,6777.5 0,-60.83"
         style="fill:none;stroke:#000000;stroke-opacity:1;stroke-width:5;stroke-linecap:butt;stroke-linejoin:round;stroke-miterlimit:10;stroke-dasharray:none"
         id="path84" /><g
         id="g86"
         transform="scale(10,10)"><text
   transform="matrix(1,0,0,-1,673.083,45.0832)"
   id="text88"><tspan
     style="fill:#000000;fill-opacity:1;fill-rule:nonzero;stroke:none;font-family:Helvetica;font-variant:normal;font-weight:normal;font-size:20;writing-mode:lr;-inkscape-font-specification:Helvetica"
     x="0"
     y="0"
     id="tspan90">5</tspan></text>

</g><path
         d="m 986.668,665 60.832,0"
         style="fill:none;stroke:#000000;stroke-opacity:1;stroke-width:5;stroke-linecap:butt;stroke-linejoin:round;stroke-miterlimit:10;stroke-dasharray:none"
         id="path92" /><path
         d="m 6785.83,665 -61.66,0"
         style="fill:none;stroke:#000000;stroke-opacity:1;stroke-width:5;stroke-linecap:butt;stroke-linejoin:round;stroke-miterlimit:10;stroke-dasharray:none"
         id="path94" /><g
         id="g96"
         transform="scale(10,10)"><text
   transform="matrix(1,0,0,-1,84.6668,59.0832)"
   id="text98"><tspan
     style="fill:#000000;fill-opacity:1;fill-rule:nonzero;stroke:none;font-family:Helvetica;font-variant:normal;font-weight:normal;font-size:20;writing-mode:lr;-inkscape-font-specification:Helvetica"
     x="0"
     y="0"
     id="tspan100">0</tspan></text>

</g><path
         d="m 986.668,1684.17 60.832,0"
         style="fill:none;stroke:#000000;stroke-opacity:1;stroke-width:5;stroke-linecap:butt;stroke-linejoin:round;stroke-miterlimit:10;stroke-dasharray:none"
         id="path102" /><path
         d="m 6785.83,1684.17 -61.66,0"
         style="fill:none;stroke:#000000;stroke-opacity:1;stroke-width:5;stroke-linecap:butt;stroke-linejoin:round;stroke-miterlimit:10;stroke-dasharray:none"
         id="path104" /><g
         id="g106"
         transform="scale(10,10)"><text
   transform="matrix(1,0,0,-1,56.8332,161)"
   id="text108"><tspan
     style="fill:#000000;fill-opacity:1;fill-rule:nonzero;stroke:none;font-family:Helvetica;font-variant:normal;font-weight:normal;font-size:20;writing-mode:lr;-inkscape-font-specification:Helvetica"
     x="0 11.12 16.68 27.8"
     y="0"
     sodipodi:role="line"
     id="tspan110">0.02</tspan></text>

</g><path
         d="m 986.668,2702.5 60.832,0"
         style="fill:none;stroke:#000000;stroke-opacity:1;stroke-width:5;stroke-linecap:butt;stroke-linejoin:round;stroke-miterlimit:10;stroke-dasharray:none"
         id="path112" /><path
         d="m 6785.83,2702.5 -61.66,0"
         style="fill:none;stroke:#000000;stroke-opacity:1;stroke-width:5;stroke-linecap:butt;stroke-linejoin:round;stroke-miterlimit:10;stroke-dasharray:none"
         id="path114" /><g
         id="g116"
         transform="scale(10,10)"><text
   transform="matrix(1,0,0,-1,56.8332,262.833)"
   id="text118"><tspan
     style="fill:#000000;fill-opacity:1;fill-rule:nonzero;stroke:none;font-family:Helvetica;font-variant:normal;font-weight:normal;font-size:20;writing-mode:lr;-inkscape-font-specification:Helvetica"
     x="0 11.12 16.68 27.8"
     y="0"
     sodipodi:role="line"
     id="tspan120">0.04</tspan></text>

</g><path
         d="m 986.668,3721.67 60.832,0"
         style="fill:none;stroke:#000000;stroke-opacity:1;stroke-width:5;stroke-linecap:butt;stroke-linejoin:round;stroke-miterlimit:10;stroke-dasharray:none"
         id="path122" /><path
         d="m 6785.83,3721.67 -61.66,0"
         style="fill:none;stroke:#000000;stroke-opacity:1;stroke-width:5;stroke-linecap:butt;stroke-linejoin:round;stroke-miterlimit:10;stroke-dasharray:none"
         id="path124" /><g
         id="g126"
         transform="scale(10,10)"><text
   transform="matrix(1,0,0,-1,56.8332,364.75)"
   id="text128"><tspan
     style="fill:#000000;fill-opacity:1;fill-rule:nonzero;stroke:none;font-family:Helvetica;font-variant:normal;font-weight:normal;font-size:20;writing-mode:lr;-inkscape-font-specification:Helvetica"
     x="0 11.12 16.68 27.8"
     y="0"
     sodipodi:role="line"
     id="tspan130">0.06</tspan></text>

</g><path
         d="m 986.668,4740.84 60.832,0"
         style="fill:none;stroke:#000000;stroke-opacity:1;stroke-width:5;stroke-linecap:butt;stroke-linejoin:round;stroke-miterlimit:10;stroke-dasharray:none"
         id="path132" /><path
         d="m 6785.83,4740.84 -61.66,0"
         style="fill:none;stroke:#000000;stroke-opacity:1;stroke-width:5;stroke-linecap:butt;stroke-linejoin:round;stroke-miterlimit:10;stroke-dasharray:none"
         id="path134" /><g
         id="g136"
         transform="scale(10,10)"><text
   transform="matrix(1,0,0,-1,56.8332,466.667)"
   id="text138"><tspan
     style="fill:#000000;fill-opacity:1;fill-rule:nonzero;stroke:none;font-family:Helvetica;font-variant:normal;font-weight:normal;font-size:20;writing-mode:lr;-inkscape-font-specification:Helvetica"
     x="0 11.12 16.68 27.8"
     y="0"
     sodipodi:role="line"
     id="tspan140">0.08</tspan></text>

</g><path
         d="m 986.668,5759.17 60.832,0"
         style="fill:none;stroke:#000000;stroke-opacity:1;stroke-width:5;stroke-linecap:butt;stroke-linejoin:round;stroke-miterlimit:10;stroke-dasharray:none"
         id="path142" /><path
         d="m 6785.83,5759.17 -61.66,0"
         style="fill:none;stroke:#000000;stroke-opacity:1;stroke-width:5;stroke-linecap:butt;stroke-linejoin:round;stroke-miterlimit:10;stroke-dasharray:none"
         id="path144" /><g
         id="g146"
         transform="scale(10,10)"><text
   transform="matrix(1,0,0,-1,68,568.5)"
   id="text148"><tspan
     style="fill:#000000;fill-opacity:1;fill-rule:nonzero;stroke:none;font-family:Helvetica;font-variant:normal;font-weight:normal;font-size:20;writing-mode:lr;-inkscape-font-specification:Helvetica"
     x="0 11.12 16.68"
     y="0"
     sodipodi:role="line"
     id="tspan150">0.1</tspan></text>

</g><path
         d="m 986.668,6777.5 60.832,0"
         style="fill:none;stroke:#000000;stroke-opacity:1;stroke-width:5;stroke-linecap:butt;stroke-linejoin:round;stroke-miterlimit:10;stroke-dasharray:none"
         id="path152" /><path
         d="m 6785.83,6777.5 -61.66,0"
         style="fill:none;stroke:#000000;stroke-opacity:1;stroke-width:5;stroke-linecap:butt;stroke-linejoin:round;stroke-miterlimit:10;stroke-dasharray:none"
         id="path154" /><g
         id="g156"
         transform="scale(10,10)"><text
   transform="matrix(1,0,0,-1,56.8332,670.334)"
   id="text158"><tspan
     style="fill:#000000;fill-opacity:1;fill-rule:nonzero;stroke:none;font-family:Helvetica;font-variant:normal;font-weight:normal;font-size:20;writing-mode:lr;-inkscape-font-specification:Helvetica"
     x="0 11.12 16.68 27.8"
     y="0"
     sodipodi:role="line"
     id="tspan160">0.12</tspan></text>

</g><path
         d="m 986.668,6778.34 5799.162,0"
         style="fill:none;stroke:#000000;stroke-opacity:1;stroke-width:5;stroke-linecap:butt;stroke-linejoin:round;stroke-miterlimit:10;stroke-dasharray:none"
         id="path162" /><path
         d="m 986.668,665 5799.162,0"
         style="fill:none;stroke:#000000;stroke-opacity:1;stroke-width:5;stroke-linecap:butt;stroke-linejoin:round;stroke-miterlimit:10;stroke-dasharray:none"
         id="path164" /><path
         d="m 6785.83,665 0,6113.34"
         style="fill:none;stroke:#000000;stroke-opacity:1;stroke-width:5;stroke-linecap:butt;stroke-linejoin:round;stroke-miterlimit:10;stroke-dasharray:none"
         id="path166" /><path
         d="m 986.668,665 0,6113.34"
         style="fill:none;stroke:#000000;stroke-opacity:1;stroke-width:5;stroke-linecap:butt;stroke-linejoin:round;stroke-miterlimit:10;stroke-dasharray:none"
         id="path168" /><path
         d="m 1044.17,712.5 58.33,46.668 57.5,46.664 58.33,46.668 57.5,46.668 58.34,46.664 58.33,45.836 57.5,46.662 58.33,46.67 57.5,46.67 58.34,45.83 58.33,46.67 57.5,46.66 58.33,45.84 57.5,46.66 58.34,45.84 58.33,45.83 57.5,46.67 58.33,45.83 57.5,45.83 58.34,46.67 57.5,45.83 58.33,45.84 58.33,45.83 57.5,45.83 58.34,45.84 57.5,45.83 58.33,45.83 58.33,45.84 57.5,45.83 58.34,45.83 57.5,45.84 58.33,45 58.33,45.83 57.5,45.83 58.34,45 57.5,45.84 58.33,45 58.33,45.83 57.5,45 58.34,45.83 57.5,45 58.33,45 57.5,45 58.33,45.84 58.34,45 57.5,45 58.33,45 57.5,45 58.33,45 58.34,45 57.5,45 58.33,45 57.5,45 58.33,45 58.34,44.16 57.5,45 58.33,45 57.5,44.17 58.33,45 57.5,44.17 58.34,45 58.33,44.16 57.5,45 58.33,44.17 57.5,45 58.34,44.17 58.33,44.16 57.5,44.17 58.33,44.17 57.5,45 58.34,44.16 58.33,44.17 57.5,44.17 58.33,44.16 57.5,44.17 58.34,43.33 58.33,44.17 57.5,44.17 58.33,44.16 57.5,44.17 58.34,43.33 57.5,44.17 58.33,43.33 58.33,44.17 57.5,44.17 58.34,43.33 57.5,43.33 58.33,44.17 58.33,43.33 57.5,43.34 58.34,44.16 57.5,43.34 58.33,43.33 58.33,43.33 57.5,43.34 58.34,43.33 57.5,43.33 58.33,43.34 58.33,43.33"
         style="fill:none;stroke:#000000;stroke-width:64;stroke-linecap:butt;stroke-linejoin:round;stroke-miterlimit:10;stroke-opacity:1;stroke-dasharray:none"
         id="path178"
         inkscape:connector-curvature="0" /><path
         d="m 986.668,665 57.502,47.5"
         style="fill:none;stroke:#000000;stroke-width:20;stroke-linecap:butt;stroke-linejoin:round;stroke-miterlimit:10;stroke-opacity:1;stroke-dasharray:none"
         id="path180"
         inkscape:connector-curvature="0" /><path
         d="m 1044.17,678.332 58.33,13.336 57.5,14.164 58.33,13.336 57.5,13.332 58.34,13.332 58.33,13.336 57.5,14.164 58.33,13.336 57.5,14.164 58.34,13.336 58.33,14.164 57.5,13.336 58.33,14.164 57.5,14.168 58.34,14.168 58.33,13.332 57.5,14.168 58.33,14.164 57.5,14.168 58.34,14.168 57.5,15 58.33,14.164 58.33,14.168 57.5,14.17 58.34,15 57.5,14.16 58.33,15 58.33,14.17 57.5,15 58.34,15 57.5,15 58.33,14.17 58.33,15 57.5,15 58.34,15 57.5,15 58.33,15.83 58.33,15 57.5,15 58.34,15.83 57.5,15 58.33,15.84 57.5,15 58.33,15.83 58.34,15.83 57.5,15.84 58.33,15.83 57.5,15.83 58.33,15.84 58.34,15.83 57.5,15.83 58.33,16.67 57.5,15.83 58.33,16.67 58.34,15.83 57.5,16.67 58.33,16.67 57.5,16.66 58.33,16.67 57.5,16.67 58.34,16.66 58.33,16.67 57.5,17.5 58.33,16.67 57.5,17.5 58.34,16.66 58.33,17.5 57.5,17.5 58.33,17.5 57.5,17.5 58.34,17.5 58.33,17.5 57.5,17.5 58.33,18.34 57.5,17.5 58.34,18.33 58.33,18.33 57.5,18.34 58.33,18.33 57.5,18.33 58.34,18.34 57.5,19.16 58.33,18.34 58.33,19.16 57.5,18.34 58.34,19.16 57.5,19.17 58.33,19.17 58.33,19.16 57.5,20 58.34,19.17 57.5,20 58.33,20 58.33,19.17 57.5,20 58.34,20.83 57.5,20 58.33,20 58.33,20.83"
         style="fill:none;stroke:#000000;stroke-width:64;stroke-linecap:butt;stroke-linejoin:round;stroke-miterlimit:10;stroke-opacity:1;stroke-dasharray:192,192;stroke-dashoffset:0"
         id="path182"
         inkscape:connector-curvature="0" /><path
         d="m 986.668,665 57.502,13.332"
         style="fill:none;stroke:#000000;stroke-width:20;stroke-linecap:butt;stroke-linejoin:round;stroke-miterlimit:10;stroke-opacity:1;stroke-dasharray:60;stroke-dashoffset:0"
         id="path184"
         inkscape:connector-curvature="0" /><path
         d="m 1044.17,690 58.33,25 57.5,25 58.33,24.168 57.5,25 58.34,24.164 58.33,24.168 57.5,24.168 58.33,24.164 57.5,24.168 58.34,24.168 58.33,24.164 57.5,24.168 58.33,23.33 57.5,24.17 58.34,23.33 58.33,24.17 57.5,23.33 58.33,23.34 57.5,23.33 58.34,23.33 57.5,23.34 58.33,23.33 58.33,22.5 57.5,23.33 58.34,23.34 57.5,22.5 58.33,23.33 58.33,22.5 57.5,22.5 58.34,22.5 57.5,22.5 58.33,22.5 58.33,22.5 57.5,22.5 58.34,22.5 57.5,21.67 58.33,22.5 58.33,21.66 57.5,22.5 58.34,21.67 57.5,21.67 58.33,21.66 57.5,21.67 58.33,21.67 58.34,21.66 57.5,21.67 58.33,21.67 57.5,20.83 58.33,21.67 58.34,20.83 57.5,21.67 58.33,20.83 57.5,20.83 58.33,21.67 58.34,20.83 57.5,20.84 58.33,20.83 57.5,20 58.33,20.83 57.5,20.84 58.34,20.83 58.33,20 57.5,20.83 58.33,20 57.5,20 58.34,20.84 58.33,20 57.5,20 58.33,20 57.5,20 58.34,20 58.33,20 57.5,19.16 58.33,20 57.5,19.17 58.34,20 58.33,19.17 57.5,20 58.33,19.16 57.5,19.17 58.34,19.17 57.5,19.16 58.33,19.17 58.33,19.17 57.5,19.16 58.34,19.17 57.5,19.17 58.33,18.33 58.33,19.17 57.5,18.33 58.34,19.17 57.5,18.33 58.33,18.33 58.33,19.17 57.5,18.33 58.34,18.34 57.5,18.33 58.33,18.33 58.33,18.34"
         style="fill:none;stroke:#c00000;stroke-width:64;stroke-linecap:butt;stroke-linejoin:round;stroke-miterlimit:10;stroke-opacity:1;stroke-dasharray:none"
         id="path186"
         inkscape:connector-curvature="0" /><path
         d="m 986.668,665 57.502,25"
         style="fill:none;stroke:#c00000;stroke-width:20;stroke-linecap:butt;stroke-linejoin:round;stroke-miterlimit:10;stroke-opacity:1;stroke-dasharray:none"
         id="path188"
         inkscape:connector-curvature="0" /><path
         d="m 1044.17,708.332 58.33,42.5 57.5,43.336 58.33,43.332 57.5,43.332 58.34,43.336 58.33,43.332 57.5,44.17 58.33,43.33 57.5,44.17 58.34,44.16 58.33,45 57.5,44.17 58.33,44.17 57.5,45 58.34,45 58.33,45 57.5,45 58.33,45.83 57.5,45.83 58.34,45 57.5,45.84 58.33,46.66 58.33,45.84 57.5,46.66 58.34,45.84 57.5,46.66 58.33,46.67 58.33,47.5 57.5,46.67 58.34,47.5 57.5,47.5 58.33,47.5 58.33,48.33 57.5,47.5 58.34,48.33 57.5,48.34 58.33,48.33 58.33,49.17 57.5,48.33 58.34,49.17 57.5,49.16 58.33,50 57.5,49.17 58.33,50 58.34,50 57.5,50 58.33,50.83 57.5,50 58.33,50.84 58.34,50.83 57.5,51.67 58.33,51.66 57.5,50.84 58.33,52.5 58.34,51.66 57.5,52.5 58.33,52.5 57.5,52.5 58.33,52.5 57.5,53.34 58.34,53.33 58.33,53.33 57.5,54.17 58.33,54.17 57.5,54.16 58.34,54.17 58.33,55 57.5,55 58.33,55 57.5,55.83 58.34,55.84 58.33,55.83 57.5,55.83 58.33,56.67 57.5,56.67 58.34,56.66 58.33,57.5 57.5,57.5 58.33,57.5 57.5,58.34 58.34,58.33 57.5,58.33 58.33,58.34 58.33,59.16 57.5,59.17 58.34,60 57.5,60 58.33,60 58.33,60.83 57.5,60.84 58.34,60.83 57.5,60.83 58.33,61.67 58.33,62.5 57.5,61.67 58.34,62.5 57.5,63.33 58.33,63.33 58.33,63.34"
         style="fill:none;stroke:#c00000;stroke-width:64;stroke-linecap:butt;stroke-linejoin:round;stroke-miterlimit:10;stroke-opacity:1;stroke-dasharray:192,192;stroke-dashoffset:0"
         id="path190"
         inkscape:connector-curvature="0" /><path
         d="m 986.668,665 57.502,43.332"
         style="fill:none;stroke:#c00000;stroke-width:20;stroke-linecap:butt;stroke-linejoin:round;stroke-miterlimit:10;stroke-opacity:1;stroke-dasharray:60;stroke-dashoffset:0"
         id="path192"
         inkscape:connector-curvature="0" /><g
         id="g194"
         transform="scale(10,10)"><text
   transform="matrix(1,0,0,-1,275.5,11.0832)"
   id="text196"><tspan
     style="fill:#000000;fill-opacity:1;fill-rule:nonzero;stroke:none;font-family:Helvetica;font-variant:normal;font-weight:normal;font-size:40;writing-mode:lr;-inkscape-font-specification:Helvetica"
     x="0 24.44 37.76 60 68.88 91.12 100 122.24 144.48 155.6 166.72 175.6 208.92"
     y="0"
     sodipodi:role="line"
     id="tspan198">Training time</tspan></text>

<text
   transform="matrix(0,1,1,0,40.5832,176.5)"
   id="text200"><tspan
     style="fill:#000000;fill-opacity:1;fill-rule:nonzero;stroke:none;font-family:Helvetica;font-variant:normal;font-weight:normal;font-size:40;writing-mode:lr;-inkscape-font-specification:Helvetica"
     x="0 22.24 44.48 66.72 80.04 102.28 111.16 133.4 155.64 166.76 180.08"
     y="0"
     sodipodi:role="line"
     id="tspan202">Learning (−</tspan></text>

<text
   transform="matrix(0,1,1,0,40.5832,380.917)"
   id="text204"><tspan
     style="fill:#000000;fill-opacity:1;fill-rule:nonzero;stroke:none;font-family:Symbol;font-variant:normal;font-weight:normal;font-size:40;writing-mode:lr;-inkscape-font-specification:Symbol"
     x="0"
     y="0"
     id="tspan206">∆</tspan></text>

<text
   transform="matrix(0,1,1,0,40.5832,416.4534)"
   id="text208"><tspan
     style="fill:#000000;fill-opacity:1;fill-rule:nonzero;stroke:none;font-family:Helvetica;font-variant:normal;font-weight:normal;font-size:40;writing-mode:lr;-inkscape-font-specification:Helvetica"
     x="0 33.32 55.56 77.8 100.04 111.16 140.04"
     y="0"
     sodipodi:role="line"
     id="tspan210">mean w)</tspan></text>

</g><g
         id="g3378"
         transform="matrix(1.5,0,0,1.5,-2813.8235,309.76908)"><g
           id="g304"
           transform="matrix(10,0,0,10,-410.415,-2370)"><text
   transform="matrix(1,0,0,-1,352.917,555.167)"
   id="text306"><tspan
     style="font-size:20px;font-variant:normal;font-weight:normal;writing-mode:lr-tb;fill:#000000;fill-opacity:1;fill-rule:nonzero;stroke:none;font-family:Helvetica;-inkscape-font-specification:Helvetica"
     sodipodi:role="line"
     id="tspan308"
     x="0"
     y="0">Enh.Plas. w/ rev</tspan></text>

</g><g
           id="g288"
           transform="matrix(10,0,0,10,-410.415,-2370)"><text
   transform="matrix(1,0,0,-1,352.917,581.167)"
   id="text290"><tspan
     style="font-size:20px;font-variant:normal;font-weight:normal;writing-mode:lr-tb;fill:#000000;fill-opacity:1;fill-rule:nonzero;stroke:none;font-family:Helvetica;-inkscape-font-specification:Helvetica"
     x="0 18.879999 31.1"
     y="0"
     sodipodi:role="line"
     id="tspan292">WT           w/ rev</tspan></text>

</g><g
           id="g272"
           transform="matrix(10,0,0,10,-410.415,-2370)"><text
   transform="matrix(1,0,0,-1,352.917,607.25)"
   id="text274"><tspan
     style="font-size:20px;font-variant:normal;font-weight:normal;writing-mode:lr-tb;fill:#000000;fill-opacity:1;fill-rule:nonzero;stroke:none;font-family:Helvetica;-inkscape-font-specification:Helvetica"
     sodipodi:role="line"
     id="tspan276"
     x="0"
     y="0">Enh.Plas. w/o rev</tspan></text>

</g><g
           id="g256"
           transform="matrix(10,0,0,10,-410.415,-2370)"><text
   transform="matrix(1,0,0,-1,352.917,633.25)"
   id="text258"><tspan
     style="font-size:20px;font-variant:normal;font-weight:normal;writing-mode:lr-tb;fill:#000000;fill-opacity:1;fill-rule:nonzero;stroke:none;font-family:Helvetica;-inkscape-font-specification:Helvetica"
     x="0 18.879999 18.879999"
     y="0"
     sodipodi:role="line"
     id="tspan260">WT             w/o rev</tspan></text>

</g><path
           d="m 2709.585,3150 2080,0 0,1040 -2080,0 z"
           style="fill:none;stroke:#000000;stroke-width:8;stroke-miterlimit:4;stroke-dasharray:none"
           id="path232"
           inkscape:connector-curvature="0"
           sodipodi:nodetypes="ccccc" /><g
           id="g262"
           style="stroke-width:40;stroke-miterlimit:10;stroke-dasharray:none"
           transform="translate(-410.415,-2370)"><g
             id="g264"
             clip-path="url(#clipPath266)"
             style="stroke-width:40;stroke-miterlimit:10;stroke-dasharray:none"><path
               d="m 3199.17,6403.34 300,0"
               style="fill:none;stroke:#000000;stroke-width:40;stroke-linecap:butt;stroke-linejoin:round;stroke-miterlimit:10;stroke-opacity:1;stroke-dasharray:none"
               id="path270"
               inkscape:connector-curvature="0" /></g></g><g
           id="g278"
           style="stroke-width:40;stroke-miterlimit:10;stroke-dasharray:none"
           transform="translate(-410.415,-2370)"><g
             id="g280"
             clip-path="url(#clipPath282)"
             style="stroke-width:40;stroke-miterlimit:10;stroke-dasharray:none"><path
               d="m 3199.17,6143.34 300,0"
               style="fill:none;stroke:#c00000;stroke-width:40;stroke-linecap:butt;stroke-linejoin:round;stroke-miterlimit:10;stroke-opacity:1;stroke-dasharray:none"
               id="path286"
               inkscape:connector-curvature="0" /></g></g><g
           id="g294"
           style="stroke-width:40;stroke-miterlimit:10;stroke-dasharray:120, 120;stroke-dashoffset:0"
           transform="translate(-410.415,-2370)"><g
             id="g296"
             clip-path="url(#clipPath298)"
             style="stroke-width:40;stroke-miterlimit:10;stroke-dasharray:120, 120;stroke-dashoffset:0"><path
               d="m 3199.17,5884.17 300,0"
               style="fill:none;stroke:#000000;stroke-width:40;stroke-linecap:butt;stroke-linejoin:round;stroke-miterlimit:10;stroke-opacity:1;stroke-dasharray:120, 120;stroke-dashoffset:0"
               id="path302"
               inkscape:connector-curvature="0" /></g></g><g
           id="g310"
           style="stroke-width:40;stroke-miterlimit:10;stroke-dasharray:120, 120;stroke-dashoffset:0"
           transform="translate(-410.415,-2370)"><g
             id="g312"
             clip-path="url(#clipPath314)"
             style="stroke-width:40;stroke-miterlimit:10;stroke-dasharray:120, 120;stroke-dashoffset:0"><path
               d="m 3199.17,5623.34 300,0"
               style="fill:none;stroke:#c00000;stroke-width:40;stroke-linecap:butt;stroke-linejoin:round;stroke-miterlimit:10;stroke-opacity:1;stroke-dasharray:120, 120;stroke-dashoffset:0"
               id="path318"
               inkscape:connector-curvature="0" /></g></g></g></g></g></svg>