<?xml version="1.0" encoding="UTF-8" standalone="no"?>
<!-- Created with Inkscape (http://www.inkscape.org/) -->

<svg
   xmlns:dc="http://purl.org/dc/elements/1.1/"
   xmlns:cc="http://creativecommons.org/ns#"
   xmlns:rdf="http://www.w3.org/1999/02/22-rdf-syntax-ns#"
   xmlns:svg="http://www.w3.org/2000/svg"
   xmlns="http://www.w3.org/2000/svg"
   xmlns:sodipodi="http://sodipodi.sourceforge.net/DTD/sodipodi-0.dtd"
   xmlns:inkscape="http://www.inkscape.org/namespaces/inkscape"
   width="326.83344"
   height="139.59523"
   id="svg2"
   version="1.1"
   inkscape:version="0.48.4 r9939"
   sodipodi:docname="serial_bar_wt_w.svg">
  <sodipodi:namedview
     id="base"
     pagecolor="#ffffff"
     bordercolor="#666666"
     borderopacity="1.0"
     inkscape:pageopacity="0.0"
     inkscape:pageshadow="2"
     inkscape:zoom="2.8036998"
     inkscape:cx="200.50985"
     inkscape:cy="54.942499"
     inkscape:document-units="px"
     inkscape:current-layer="layer1"
     showgrid="true"
     inkscape:snap-global="false"
     showguides="true"
     inkscape:guide-bbox="true"
     inkscape:window-width="1264"
     inkscape:window-height="742"
     inkscape:window-x="1280"
     inkscape:window-y="780"
     inkscape:window-maximized="0"
     fit-margin-top="0"
     fit-margin-left="0"
     fit-margin-right="0"
     fit-margin-bottom="0">
    <inkscape:grid
       type="xygrid"
       id="grid2985"
       empspacing="5"
       visible="true"
       enabled="true"
       snapvisiblegridlinesonly="true"
       originx="-84.00428px"
       originy="-592.69961px" />
    <sodipodi:guide
       orientation="1,0"
       position="296.74994,-47.863464"
       id="guide3093" />
  </sodipodi:namedview>
  <defs
     id="defs4">
    <marker
       inkscape:stockid="Arrow2Send"
       orient="auto"
       refY="0"
       refX="0"
       id="Arrow2Send"
       style="overflow:visible">
      <path
         inkscape:connector-curvature="0"
         id="path4544"
         style="font-size:12px;fill-rule:evenodd;stroke-width:0.625;stroke-linejoin:round"
         d="M 8.7185878,4.0337352 -2.2072895,0.01601326 8.7185884,-4.0017078 c -1.7454984,2.3720609 -1.7354408,5.6174519 -6e-7,8.035443 z"
         transform="matrix(-0.3,0,0,-0.3,0.69,0)" />
    </marker>
    <marker
       inkscape:stockid="Arrow2Sstart"
       orient="auto"
       refY="0"
       refX="0"
       id="Arrow2Sstart"
       style="overflow:visible">
      <path
         inkscape:connector-curvature="0"
         id="path4541"
         style="font-size:12px;fill-rule:evenodd;stroke-width:0.625;stroke-linejoin:round"
         d="M 8.7185878,4.0337352 -2.2072895,0.01601326 8.7185884,-4.0017078 c -1.7454984,2.3720609 -1.7354408,5.6174519 -6e-7,8.035443 z"
         transform="matrix(0.3,0,0,0.3,-0.69,0)" />
    </marker>
    <marker
       inkscape:stockid="Arrow2Send"
       orient="auto"
       refY="0"
       refX="0"
       id="Arrow2Send-4"
       style="overflow:visible">
      <path
         inkscape:connector-curvature="0"
         id="path4544-5"
         style="font-size:12px;fill-rule:evenodd;stroke-width:0.625;stroke-linejoin:round"
         d="M 8.7185878,4.0337352 -2.2072895,0.01601326 8.7185884,-4.0017078 c -1.7454984,2.3720609 -1.7354408,5.6174519 -6e-7,8.035443 z"
         transform="matrix(-0.3,0,0,-0.3,0.69,0)" />
    </marker>
    <marker
       inkscape:stockid="Arrow2Send"
       orient="auto"
       refY="0"
       refX="0"
       id="Arrow2Send-3"
       style="overflow:visible">
      <path
         inkscape:connector-curvature="0"
         id="path4544-52"
         style="font-size:12px;fill-rule:evenodd;stroke-width:0.625;stroke-linejoin:round"
         d="M 8.7185878,4.0337352 -2.2072895,0.01601326 8.7185884,-4.0017078 c -1.7454984,2.3720609 -1.7354408,5.6174519 -6e-7,8.035443 z"
         transform="matrix(-0.3,0,0,-0.3,0.69,0)" />
    </marker>
    <marker
       inkscape:stockid="Arrow2Send"
       orient="auto"
       refY="0"
       refX="0"
       id="Arrow2Send-9"
       style="overflow:visible">
      <path
         inkscape:connector-curvature="0"
         id="path4544-4"
         style="font-size:12px;fill-rule:evenodd;stroke-width:0.625;stroke-linejoin:round"
         d="M 8.7185878,4.0337352 -2.2072895,0.01601326 8.7185884,-4.0017078 c -1.7454984,2.3720609 -1.7354408,5.6174519 -6e-7,8.035443 z"
         transform="matrix(-0.3,0,0,-0.3,0.69,0)" />
    </marker>
    <marker
       inkscape:stockid="Arrow2Send"
       orient="auto"
       refY="0"
       refX="0"
       id="Arrow2Send-0"
       style="overflow:visible">
      <path
         inkscape:connector-curvature="0"
         id="path4544-59"
         style="font-size:12px;fill-rule:evenodd;stroke-width:0.625;stroke-linejoin:round"
         d="M 8.7185878,4.0337352 -2.2072895,0.01601326 8.7185884,-4.0017078 c -1.7454984,2.3720609 -1.7354408,5.6174519 -6e-7,8.035443 z"
         transform="matrix(-0.3,0,0,-0.3,0.69,0)" />
    </marker>
    <marker
       inkscape:stockid="Arrow2Send"
       orient="auto"
       refY="0"
       refX="0"
       id="Arrow2Send-6"
       style="overflow:visible">
      <path
         inkscape:connector-curvature="0"
         id="path4544-594"
         style="font-size:12px;fill-rule:evenodd;stroke-width:0.625;stroke-linejoin:round"
         d="M 8.7185878,4.0337352 -2.2072895,0.01601326 8.7185884,-4.0017078 c -1.7454984,2.3720609 -1.7354408,5.6174519 -6e-7,8.035443 z"
         transform="matrix(-0.3,0,0,-0.3,0.69,0)" />
    </marker>
    <marker
       inkscape:stockid="Arrow2Send"
       orient="auto"
       refY="0"
       refX="0"
       id="Arrow2Send-43"
       style="overflow:visible">
      <path
         inkscape:connector-curvature="0"
         id="path4544-54"
         style="font-size:12px;fill-rule:evenodd;stroke-width:0.625;stroke-linejoin:round"
         d="M 8.7185878,4.0337352 -2.2072895,0.01601326 8.7185884,-4.0017078 c -1.7454984,2.3720609 -1.7354408,5.6174519 -6e-7,8.035443 z"
         transform="matrix(-0.3,0,0,-0.3,0.69,0)" />
    </marker>
    <marker
       inkscape:stockid="Arrow2Send"
       orient="auto"
       refY="0"
       refX="0"
       id="Arrow2Send-41"
       style="overflow:visible">
      <path
         inkscape:connector-curvature="0"
         id="path4544-6"
         style="font-size:12px;fill-rule:evenodd;stroke-width:0.625;stroke-linejoin:round"
         d="M 8.7185878,4.0337352 -2.2072895,0.01601326 8.7185884,-4.0017078 c -1.7454984,2.3720609 -1.7354408,5.6174519 -6e-7,8.035443 z"
         transform="matrix(-0.3,0,0,-0.3,0.69,0)" />
    </marker>
    <marker
       inkscape:stockid="Arrow2Send"
       orient="auto"
       refY="0"
       refX="0"
       id="Arrow2Send-1"
       style="overflow:visible">
      <path
         inkscape:connector-curvature="0"
         id="path4544-58"
         style="font-size:12px;fill-rule:evenodd;stroke-width:0.625;stroke-linejoin:round"
         d="M 8.7185878,4.0337352 -2.2072895,0.01601326 8.7185884,-4.0017078 c -1.7454984,2.3720609 -1.7354408,5.6174519 -6e-7,8.035443 z"
         transform="matrix(-0.3,0,0,-0.3,0.69,0)" />
    </marker>
    <marker
       inkscape:stockid="Arrow2Send"
       orient="auto"
       refY="0"
       refX="0"
       id="Arrow2Send-01"
       style="overflow:visible">
      <path
         inkscape:connector-curvature="0"
         id="path4544-40"
         style="font-size:12px;fill-rule:evenodd;stroke-width:0.625;stroke-linejoin:round"
         d="M 8.7185878,4.0337352 -2.2072895,0.01601326 8.7185884,-4.0017078 c -1.7454984,2.3720609 -1.7354408,5.6174519 -6e-7,8.035443 z"
         transform="matrix(-0.3,0,0,-0.3,0.69,0)" />
    </marker>
    <marker
       inkscape:stockid="Arrow2Send"
       orient="auto"
       refY="0"
       refX="0"
       id="Arrow2Send-91"
       style="overflow:visible">
      <path
         inkscape:connector-curvature="0"
         id="path4544-7"
         style="font-size:12px;fill-rule:evenodd;stroke-width:0.625;stroke-linejoin:round"
         d="M 8.7185878,4.0337352 -2.2072895,0.01601326 8.7185884,-4.0017078 c -1.7454984,2.3720609 -1.7354408,5.6174519 -6e-7,8.035443 z"
         transform="matrix(-0.3,0,0,-0.3,0.69,0)" />
    </marker>
    <marker
       inkscape:stockid="Arrow2Send"
       orient="auto"
       refY="0"
       refX="0"
       id="Arrow2Send-96"
       style="overflow:visible">
      <path
         inkscape:connector-curvature="0"
         id="path4544-8"
         style="font-size:12px;fill-rule:evenodd;stroke-width:0.625;stroke-linejoin:round"
         d="M 8.7185878,4.0337352 -2.2072895,0.01601326 8.7185884,-4.0017078 c -1.7454984,2.3720609 -1.7354408,5.6174519 -6e-7,8.035443 z"
         transform="matrix(-0.3,0,0,-0.3,0.69,0)" />
    </marker>
    <marker
       inkscape:stockid="Arrow2Send"
       orient="auto"
       refY="0"
       refX="0"
       id="Arrow2Send-30"
       style="overflow:visible">
      <path
         inkscape:connector-curvature="0"
         id="path4544-2"
         style="font-size:12px;fill-rule:evenodd;stroke-width:0.625;stroke-linejoin:round"
         d="M 8.7185878,4.0337352 -2.2072895,0.01601326 8.7185884,-4.0017078 c -1.7454984,2.3720609 -1.7354408,5.6174519 -6e-7,8.035443 z"
         transform="matrix(-0.3,0,0,-0.3,0.69,0)" />
    </marker>
    <marker
       inkscape:stockid="Arrow2Send"
       orient="auto"
       refY="0"
       refX="0"
       id="Arrow2Send-92"
       style="overflow:visible">
      <path
         inkscape:connector-curvature="0"
         id="path4544-24"
         style="font-size:12px;fill-rule:evenodd;stroke-width:0.625;stroke-linejoin:round"
         d="M 8.7185878,4.0337352 -2.2072895,0.01601326 8.7185884,-4.0017078 c -1.7454984,2.3720609 -1.7354408,5.6174519 -6e-7,8.035443 z"
         transform="matrix(-0.3,0,0,-0.3,0.69,0)" />
    </marker>
    <marker
       inkscape:stockid="Arrow2Send"
       orient="auto"
       refY="0"
       refX="0"
       id="Arrow2Send-8"
       style="overflow:visible">
      <path
         inkscape:connector-curvature="0"
         id="path4544-72"
         style="font-size:12px;fill-rule:evenodd;stroke-width:0.625;stroke-linejoin:round"
         d="M 8.7185878,4.0337352 -2.2072895,0.01601326 8.7185884,-4.0017078 c -1.7454984,2.3720609 -1.7354408,5.6174519 -6e-7,8.035443 z"
         transform="matrix(-0.3,0,0,-0.3,0.69,0)" />
    </marker>
    <marker
       inkscape:stockid="Arrow2Send"
       orient="auto"
       refY="0"
       refX="0"
       id="Arrow2Send-34"
       style="overflow:visible">
      <path
         inkscape:connector-curvature="0"
         id="path4544-3"
         style="font-size:12px;fill-rule:evenodd;stroke-width:0.625;stroke-linejoin:round"
         d="M 8.7185878,4.0337352 -2.2072895,0.01601326 8.7185884,-4.0017078 c -1.7454984,2.3720609 -1.7354408,5.6174519 -6e-7,8.035443 z"
         transform="matrix(-0.3,0,0,-0.3,0.69,0)" />
    </marker>
    <marker
       inkscape:stockid="Arrow2Send"
       orient="auto"
       refY="0"
       refX="0"
       id="Arrow2Send-32"
       style="overflow:visible">
      <path
         inkscape:connector-curvature="0"
         id="path4544-76"
         style="font-size:12px;fill-rule:evenodd;stroke-width:0.625;stroke-linejoin:round"
         d="M 8.7185878,4.0337352 -2.2072895,0.01601326 8.7185884,-4.0017078 c -1.7454984,2.3720609 -1.7354408,5.6174519 -6e-7,8.035443 z"
         transform="matrix(-0.3,0,0,-0.3,0.69,0)" />
    </marker>
    <marker
       inkscape:stockid="Arrow2Send"
       orient="auto"
       refY="0"
       refX="0"
       id="Arrow2Send-36"
       style="overflow:visible">
      <path
         inkscape:connector-curvature="0"
         id="path4544-9"
         style="font-size:12px;fill-rule:evenodd;stroke-width:0.625;stroke-linejoin:round"
         d="M 8.7185878,4.0337352 -2.2072895,0.01601326 8.7185884,-4.0017078 c -1.7454984,2.3720609 -1.7354408,5.6174519 -6e-7,8.035443 z"
         transform="matrix(-0.3,0,0,-0.3,0.69,0)" />
    </marker>
    <marker
       inkscape:stockid="Arrow2Send"
       orient="auto"
       refY="0"
       refX="0"
       id="Arrow2Send-33"
       style="overflow:visible">
      <path
         inkscape:connector-curvature="0"
         id="path4544-0"
         style="font-size:12px;fill-rule:evenodd;stroke-width:0.625;stroke-linejoin:round"
         d="M 8.7185878,4.0337352 -2.2072895,0.01601326 8.7185884,-4.0017078 c -1.7454984,2.3720609 -1.7354408,5.6174519 -6e-7,8.035443 z"
         transform="matrix(-0.3,0,0,-0.3,0.69,0)" />
    </marker>
    <marker
       inkscape:stockid="Arrow2SendM"
       orient="auto"
       refY="0"
       refX="0"
       id="Arrow2SendM"
       style="overflow:visible">
      <path
         inkscape:connector-curvature="0"
         id="path3097"
         style="font-size:12px;fill:#aa0000;fill-rule:evenodd;stroke:#aa0000;stroke-width:0.625;stroke-linejoin:round"
         d="M 8.7185878,4.0337352 -2.2072895,0.01601326 8.7185884,-4.0017078 c -1.7454984,2.3720609 -1.7354408,5.6174519 -6e-7,8.035443 z"
         transform="matrix(-0.3,0,0,-0.3,0.69,0)" />
    </marker>
    <marker
       inkscape:stockid="Arrow2Sendg"
       orient="auto"
       refY="0"
       refX="0"
       id="Arrow2Sendg"
       style="overflow:visible">
      <path
         inkscape:connector-curvature="0"
         id="path3100"
         style="font-size:12px;fill:#aa0000;fill-rule:evenodd;stroke:#aa0000;stroke-width:0.625;stroke-linejoin:round"
         d="M 8.7185878,4.0337352 -2.2072895,0.01601326 8.7185884,-4.0017078 c -1.7454984,2.3720609 -1.7354408,5.6174519 -6e-7,8.035443 z"
         transform="matrix(-0.3,0,0,-0.3,0.69,0)" />
    </marker>
    <marker
       inkscape:stockid="Arrow2Send3"
       orient="auto"
       refY="0"
       refX="0"
       id="Arrow2Send3"
       style="overflow:visible">
      <path
         inkscape:connector-curvature="0"
         id="path3103"
         style="font-size:12px;fill:#aa0000;fill-rule:evenodd;stroke:#aa0000;stroke-width:0.625;stroke-linejoin:round"
         d="M 8.7185878,4.0337352 -2.2072895,0.01601326 8.7185884,-4.0017078 c -1.7454984,2.3720609 -1.7354408,5.6174519 -6e-7,8.035443 z"
         transform="matrix(-0.3,0,0,-0.3,0.69,0)" />
    </marker>
    <marker
       inkscape:stockid="Arrow2Sends"
       orient="auto"
       refY="0"
       refX="0"
       id="Arrow2Sends"
       style="overflow:visible">
      <path
         inkscape:connector-curvature="0"
         id="path3106"
         style="font-size:12px;fill:#aa0000;fill-rule:evenodd;stroke:#aa0000;stroke-width:0.625;stroke-linejoin:round"
         d="M 8.7185878,4.0337352 -2.2072895,0.01601326 8.7185884,-4.0017078 c -1.7454984,2.3720609 -1.7354408,5.6174519 -6e-7,8.035443 z"
         transform="matrix(-0.3,0,0,-0.3,0.69,0)" />
    </marker>
    <marker
       inkscape:stockid="Arrow2Sendz"
       orient="auto"
       refY="0"
       refX="0"
       id="Arrow2Sendz"
       style="overflow:visible">
      <path
         inkscape:connector-curvature="0"
         id="path3109"
         style="font-size:12px;fill:#aa0000;fill-rule:evenodd;stroke:#aa0000;stroke-width:0.625;stroke-linejoin:round"
         d="M 8.7185878,4.0337352 -2.2072895,0.01601326 8.7185884,-4.0017078 c -1.7454984,2.3720609 -1.7354408,5.6174519 -6e-7,8.035443 z"
         transform="matrix(-0.3,0,0,-0.3,0.69,0)" />
    </marker>
    <marker
       inkscape:stockid="Arrow2SendI"
       orient="auto"
       refY="0"
       refX="0"
       id="Arrow2SendI"
       style="overflow:visible">
      <path
         inkscape:connector-curvature="0"
         id="path3112"
         style="font-size:12px;fill:#aa0000;fill-rule:evenodd;stroke:#aa0000;stroke-width:0.625;stroke-linejoin:round"
         d="M 8.7185878,4.0337352 -2.2072895,0.01601326 8.7185884,-4.0017078 c -1.7454984,2.3720609 -1.7354408,5.6174519 -6e-7,8.035443 z"
         transform="matrix(-0.3,0,0,-0.3,0.69,0)" />
    </marker>
    <marker
       inkscape:stockid="Arrow2Send7"
       orient="auto"
       refY="0"
       refX="0"
       id="Arrow2Send7"
       style="overflow:visible">
      <path
         inkscape:connector-curvature="0"
         id="path3115"
         style="font-size:12px;fill:#aa0000;fill-rule:evenodd;stroke:#aa0000;stroke-width:0.625;stroke-linejoin:round"
         d="M 8.7185878,4.0337352 -2.2072895,0.01601326 8.7185884,-4.0017078 c -1.7454984,2.3720609 -1.7354408,5.6174519 -6e-7,8.035443 z"
         transform="matrix(-0.3,0,0,-0.3,0.69,0)" />
    </marker>
    <marker
       inkscape:stockid="Arrow2SendG"
       orient="auto"
       refY="0"
       refX="0"
       id="Arrow2SendG"
       style="overflow:visible">
      <path
         inkscape:connector-curvature="0"
         id="path3118"
         style="font-size:12px;fill:#aa0000;fill-rule:evenodd;stroke:#aa0000;stroke-width:0.625;stroke-linejoin:round"
         d="M 8.7185878,4.0337352 -2.2072895,0.01601326 8.7185884,-4.0017078 c -1.7454984,2.3720609 -1.7354408,5.6174519 -6e-7,8.035443 z"
         transform="matrix(-0.3,0,0,-0.3,0.69,0)" />
    </marker>
    <marker
       inkscape:stockid="Arrow2SendJ"
       orient="auto"
       refY="0"
       refX="0"
       id="Arrow2SendJ"
       style="overflow:visible">
      <path
         inkscape:connector-curvature="0"
         id="path3121"
         style="font-size:12px;fill:#aa0000;fill-rule:evenodd;stroke:#aa0000;stroke-width:0.625;stroke-linejoin:round"
         d="M 8.7185878,4.0337352 -2.2072895,0.01601326 8.7185884,-4.0017078 c -1.7454984,2.3720609 -1.7354408,5.6174519 -6e-7,8.035443 z"
         transform="matrix(-0.3,0,0,-0.3,0.69,0)" />
    </marker>
    <marker
       inkscape:stockid="Arrow2Sendzk"
       orient="auto"
       refY="0"
       refX="0"
       id="Arrow2Sendzk"
       style="overflow:visible">
      <path
         inkscape:connector-curvature="0"
         id="path3315"
         style="font-size:12px;fill:#000080;fill-rule:evenodd;stroke:#000080;stroke-width:0.625;stroke-linejoin:round"
         d="M 8.7185878,4.0337352 -2.2072895,0.01601326 8.7185884,-4.0017078 c -1.7454984,2.3720609 -1.7354408,5.6174519 -6e-7,8.035443 z"
         transform="matrix(-0.3,0,0,-0.3,0.69,0)" />
    </marker>
    <marker
       inkscape:stockid="Arrow2SendD"
       orient="auto"
       refY="0"
       refX="0"
       id="Arrow2SendD"
       style="overflow:visible">
      <path
         inkscape:connector-curvature="0"
         id="path3318"
         style="font-size:12px;fill:#000080;fill-rule:evenodd;stroke:#000080;stroke-width:0.625;stroke-linejoin:round"
         d="M 8.7185878,4.0337352 -2.2072895,0.01601326 8.7185884,-4.0017078 c -1.7454984,2.3720609 -1.7354408,5.6174519 -6e-7,8.035443 z"
         transform="matrix(-0.3,0,0,-0.3,0.69,0)" />
    </marker>
    <marker
       inkscape:stockid="Arrow2SendO"
       orient="auto"
       refY="0"
       refX="0"
       id="Arrow2SendO"
       style="overflow:visible">
      <path
         inkscape:connector-curvature="0"
         id="path3321"
         style="font-size:12px;fill:#000080;fill-rule:evenodd;stroke:#000080;stroke-width:0.625;stroke-linejoin:round"
         d="M 8.7185878,4.0337352 -2.2072895,0.01601326 8.7185884,-4.0017078 c -1.7454984,2.3720609 -1.7354408,5.6174519 -6e-7,8.035443 z"
         transform="matrix(-0.3,0,0,-0.3,0.69,0)" />
    </marker>
    <marker
       inkscape:stockid="Arrow2Sendu"
       orient="auto"
       refY="0"
       refX="0"
       id="Arrow2Sendu"
       style="overflow:visible">
      <path
         inkscape:connector-curvature="0"
         id="path3324"
         style="font-size:12px;fill:#000080;fill-rule:evenodd;stroke:#000080;stroke-width:0.625;stroke-linejoin:round"
         d="M 8.7185878,4.0337352 -2.2072895,0.01601326 8.7185884,-4.0017078 c -1.7454984,2.3720609 -1.7354408,5.6174519 -6e-7,8.035443 z"
         transform="matrix(-0.3,0,0,-0.3,0.69,0)" />
    </marker>
    <marker
       inkscape:stockid="Arrow2Sendd"
       orient="auto"
       refY="0"
       refX="0"
       id="Arrow2Sendd"
       style="overflow:visible">
      <path
         inkscape:connector-curvature="0"
         id="path3327"
         style="font-size:12px;fill:#000080;fill-rule:evenodd;stroke:#000080;stroke-width:0.625;stroke-linejoin:round"
         d="M 8.7185878,4.0337352 -2.2072895,0.01601326 8.7185884,-4.0017078 c -1.7454984,2.3720609 -1.7354408,5.6174519 -6e-7,8.035443 z"
         transform="matrix(-0.3,0,0,-0.3,0.69,0)" />
    </marker>
    <marker
       inkscape:stockid="Arrow2Send9"
       orient="auto"
       refY="0"
       refX="0"
       id="Arrow2Send9"
       style="overflow:visible">
      <path
         inkscape:connector-curvature="0"
         id="path3330"
         style="font-size:12px;fill:#000080;fill-rule:evenodd;stroke:#000080;stroke-width:0.625;stroke-linejoin:round"
         d="M 8.7185878,4.0337352 -2.2072895,0.01601326 8.7185884,-4.0017078 c -1.7454984,2.3720609 -1.7354408,5.6174519 -6e-7,8.035443 z"
         transform="matrix(-0.3,0,0,-0.3,0.69,0)" />
    </marker>
    <marker
       inkscape:stockid="Arrow2SendI1"
       orient="auto"
       refY="0"
       refX="0"
       id="Arrow2SendI1"
       style="overflow:visible">
      <path
         inkscape:connector-curvature="0"
         id="path3333"
         style="font-size:12px;fill:#000080;fill-rule:evenodd;stroke:#000080;stroke-width:0.625;stroke-linejoin:round"
         d="M 8.7185878,4.0337352 -2.2072895,0.01601326 8.7185884,-4.0017078 c -1.7454984,2.3720609 -1.7354408,5.6174519 -6e-7,8.035443 z"
         transform="matrix(-0.3,0,0,-0.3,0.69,0)" />
    </marker>
    <marker
       inkscape:stockid="Arrow2Senda"
       orient="auto"
       refY="0"
       refX="0"
       id="Arrow2Senda"
       style="overflow:visible">
      <path
         inkscape:connector-curvature="0"
         id="path3336"
         style="font-size:12px;fill:#000080;fill-rule:evenodd;stroke:#000080;stroke-width:0.625;stroke-linejoin:round"
         d="M 8.7185878,4.0337352 -2.2072895,0.01601326 8.7185884,-4.0017078 c -1.7454984,2.3720609 -1.7354408,5.6174519 -6e-7,8.035443 z"
         transform="matrix(-0.3,0,0,-0.3,0.69,0)" />
    </marker>
    <marker
       inkscape:stockid="Arrow2SendaN"
       orient="auto"
       refY="0"
       refX="0"
       id="Arrow2SendaN"
       style="overflow:visible">
      <path
         inkscape:connector-curvature="0"
         id="path3339"
         style="font-size:12px;fill:#000080;fill-rule:evenodd;stroke:#000080;stroke-width:0.625;stroke-linejoin:round"
         d="M 8.7185878,4.0337352 -2.2072895,0.01601326 8.7185884,-4.0017078 c -1.7454984,2.3720609 -1.7354408,5.6174519 -6e-7,8.035443 z"
         transform="matrix(-0.3,0,0,-0.3,0.69,0)" />
    </marker>
    <marker
       inkscape:stockid="Arrow2Send-33d2"
       orient="auto"
       refY="0"
       refX="0"
       id="Arrow2Send-33d2"
       style="overflow:visible">
      <path
         inkscape:connector-curvature="0"
         id="path5288"
         style="font-size:12px;fill:#008000;fill-rule:evenodd;stroke:#008000;stroke-width:0.625;stroke-linejoin:round"
         d="M 8.7185878,4.0337352 -2.2072895,0.01601326 8.7185884,-4.0017078 c -1.7454984,2.3720609 -1.7354408,5.6174519 -6e-7,8.035443 z"
         transform="matrix(-0.3,0,0,-0.3,0.69,0)" />
    </marker>
    <marker
       inkscape:stockid="Arrow2Send-337r"
       orient="auto"
       refY="0"
       refX="0"
       id="Arrow2Send-337r"
       style="overflow:visible">
      <path
         inkscape:connector-curvature="0"
         id="path5291"
         style="font-size:12px;fill:#008000;fill-rule:evenodd;stroke:#008000;stroke-width:0.625;stroke-linejoin:round"
         d="M 8.7185878,4.0337352 -2.2072895,0.01601326 8.7185884,-4.0017078 c -1.7454984,2.3720609 -1.7354408,5.6174519 -6e-7,8.035443 z"
         transform="matrix(-0.3,0,0,-0.3,0.69,0)" />
    </marker>
    <marker
       inkscape:stockid="Arrow2Send-33Jk"
       orient="auto"
       refY="0"
       refX="0"
       id="Arrow2Send-33Jk"
       style="overflow:visible">
      <path
         inkscape:connector-curvature="0"
         id="path5285"
         style="font-size:12px;fill:#008000;fill-rule:evenodd;stroke:#008000;stroke-width:0.625;stroke-linejoin:round"
         d="M 8.7185878,4.0337352 -2.2072895,0.01601326 8.7185884,-4.0017078 c -1.7454984,2.3720609 -1.7354408,5.6174519 -6e-7,8.035443 z"
         transform="matrix(-0.3,0,0,-0.3,0.69,0)" />
    </marker>
    <marker
       inkscape:stockid="Arrow2Send-33V0"
       orient="auto"
       refY="0"
       refX="0"
       id="Arrow2Send-33V0"
       style="overflow:visible">
      <path
         inkscape:connector-curvature="0"
         id="path5294"
         style="font-size:12px;fill:#008000;fill-rule:evenodd;stroke:#008000;stroke-width:0.625;stroke-linejoin:round"
         d="M 8.7185878,4.0337352 -2.2072895,0.01601326 8.7185884,-4.0017078 c -1.7454984,2.3720609 -1.7354408,5.6174519 -6e-7,8.035443 z"
         transform="matrix(-0.3,0,0,-0.3,0.69,0)" />
    </marker>
  </defs>
  <metadata
     id="metadata7">
    <rdf:RDF>
      <cc:Work
         rdf:about="">
        <dc:format>image/svg+xml</dc:format>
        <dc:type
           rdf:resource="http://purl.org/dc/dcmitype/StillImage" />
        <dc:title />
      </cc:Work>
    </rdf:RDF>
  </metadata>
  <g
     inkscape:label="Layer 1"
     inkscape:groupmode="layer"
     id="layer1"
     transform="translate(-84.00428,-320.06734)">
    <path
       transform="matrix(-1,0,0,1,556.68831,93.571429)"
       sodipodi:type="arc"
       style="fill:#d40000;stroke:#000000;stroke-width:1;stroke-linecap:round;stroke-linejoin:round;stroke-miterlimit:4;stroke-dasharray:none;stroke-dashoffset:0"
       id="path2994-3-2-1"
       sodipodi:cx="185"
       sodipodi:cy="347.36218"
       sodipodi:rx="5"
       sodipodi:ry="5"
       d="m 190,347.36218 c 0,2.76143 -2.23858,5 -5,5 -2.76142,0 -5,-2.23857 -5,-5 0,-2.76142 2.23858,-5 5,-5 2.76142,0 5,2.23858 5,5 z" />
    <path
       transform="matrix(-1,0,0,1,531.23377,93.571429)"
       sodipodi:type="arc"
       style="fill:#d40000;stroke:#000000;stroke-width:1;stroke-linecap:round;stroke-linejoin:round;stroke-miterlimit:4;stroke-dasharray:none;stroke-dashoffset:0"
       id="path2994-3-2-7"
       sodipodi:cx="185"
       sodipodi:cy="347.36218"
       sodipodi:rx="5"
       sodipodi:ry="5"
       d="m 190,347.36218 c 0,2.76143 -2.23858,5 -5,5 -2.76142,0 -5,-2.23857 -5,-5 0,-2.76142 2.23858,-5 5,-5 2.76142,0 5,2.23858 5,5 z" />
    <path
       transform="matrix(-1,0,0,1,480.32467,93.571429)"
       sodipodi:type="arc"
       style="fill:#d40000;stroke:#000000;stroke-width:1;stroke-linecap:round;stroke-linejoin:round;stroke-miterlimit:4;stroke-dasharray:none;stroke-dashoffset:0"
       id="path2994-3-2-4"
       sodipodi:cx="185"
       sodipodi:cy="347.36218"
       sodipodi:rx="5"
       sodipodi:ry="5"
       d="m 190,347.36218 c 0,2.76143 -2.23858,5 -5,5 -2.76142,0 -5,-2.23857 -5,-5 0,-2.76142 2.23858,-5 5,-5 2.76142,0 5,2.23858 5,5 z" />
    <path
       transform="matrix(-1,0,0,1,505.77922,93.571429)"
       sodipodi:type="arc"
       style="fill:#d40000;stroke:#000000;stroke-width:1;stroke-linecap:round;stroke-linejoin:round;stroke-miterlimit:4;stroke-dasharray:none;stroke-dashoffset:0"
       id="path2994-3-2-0"
       sodipodi:cx="185"
       sodipodi:cy="347.36218"
       sodipodi:rx="5"
       sodipodi:ry="5"
       d="m 190,347.36218 c 0,2.76143 -2.23858,5 -5,5 -2.76142,0 -5,-2.23857 -5,-5 0,-2.76142 2.23858,-5 5,-5 2.76142,0 5,2.23858 5,5 z" />
    <path
       transform="matrix(-1,0,0,1,454.87014,93.571429)"
       sodipodi:type="arc"
       style="fill:#d40000;stroke:#000000;stroke-width:1;stroke-linecap:round;stroke-linejoin:round;stroke-miterlimit:4;stroke-dasharray:none;stroke-dashoffset:0"
       id="path2994-3-2-9"
       sodipodi:cx="185"
       sodipodi:cy="347.36218"
       sodipodi:rx="5"
       sodipodi:ry="5"
       d="m 190,347.36218 c 0,2.76143 -2.23858,5 -5,5 -2.76142,0 -5,-2.23857 -5,-5 0,-2.76142 2.23858,-5 5,-5 2.76142,0 5,2.23858 5,5 z" />
    <path
       transform="matrix(-1,0,0,1,327.59741,93.571429)"
       sodipodi:type="arc"
       style="fill:#0000ff;stroke:#000000;stroke-width:1;stroke-linecap:round;stroke-linejoin:round;stroke-miterlimit:4;stroke-dasharray:none;stroke-dashoffset:0"
       id="path2994-4"
       sodipodi:cx="185"
       sodipodi:cy="347.36218"
       sodipodi:rx="5"
       sodipodi:ry="5"
       d="m 190,347.36218 c 0,2.76143 -2.23858,5 -5,5 -2.76142,0 -5,-2.23857 -5,-5 0,-2.76142 2.23858,-5 5,-5 2.76142,0 5,2.23858 5,5 z" />
    <path
       transform="matrix(-1,0,0,1,353.05195,93.571429)"
       sodipodi:type="arc"
       style="fill:#0000ff;stroke:#000000;stroke-width:1;stroke-linecap:round;stroke-linejoin:round;stroke-miterlimit:4;stroke-dasharray:none;stroke-dashoffset:0"
       id="path2994-8"
       sodipodi:cx="185"
       sodipodi:cy="347.36218"
       sodipodi:rx="5"
       sodipodi:ry="5"
       d="m 190,347.36218 c 0,2.76143 -2.23858,5 -5,5 -2.76142,0 -5,-2.23857 -5,-5 0,-2.76142 2.23858,-5 5,-5 2.76142,0 5,2.23858 5,5 z" />
    <path
       transform="matrix(-1,0,0,1,378.5065,93.571429)"
       sodipodi:type="arc"
       style="fill:#0000ff;stroke:#000000;stroke-width:1;stroke-linecap:round;stroke-linejoin:round;stroke-miterlimit:4;stroke-dasharray:none;stroke-dashoffset:0"
       id="path2994-82"
       sodipodi:cx="185"
       sodipodi:cy="347.36218"
       sodipodi:rx="5"
       sodipodi:ry="5"
       d="m 190,347.36218 c 0,2.76143 -2.23858,5 -5,5 -2.76142,0 -5,-2.23857 -5,-5 0,-2.76142 2.23858,-5 5,-5 2.76142,0 5,2.23858 5,5 z" />
    <path
       transform="matrix(-1,0,0,1,403.96104,93.571429)"
       sodipodi:type="arc"
       style="fill:#0000ff;stroke:#000000;stroke-width:1;stroke-linecap:round;stroke-linejoin:round;stroke-miterlimit:4;stroke-dasharray:none;stroke-dashoffset:0"
       id="path2994-45"
       sodipodi:cx="185"
       sodipodi:cy="347.36218"
       sodipodi:rx="5"
       sodipodi:ry="5"
       d="m 190,347.36218 c 0,2.76143 -2.23858,5 -5,5 -2.76142,0 -5,-2.23857 -5,-5 0,-2.76142 2.23858,-5 5,-5 2.76142,0 5,2.23858 5,5 z" />
    <path
       transform="matrix(-1,0,0,1,429.41559,93.571429)"
       sodipodi:type="arc"
       style="fill:#0000ff;stroke:#000000;stroke-width:1;stroke-linecap:round;stroke-linejoin:round;stroke-miterlimit:4;stroke-dasharray:none;stroke-dashoffset:0"
       id="path2994-5"
       sodipodi:cx="185"
       sodipodi:cy="347.36218"
       sodipodi:rx="5"
       sodipodi:ry="5"
       d="m 190,347.36218 c 0,2.76143 -2.23858,5 -5,5 -2.76142,0 -5,-2.23857 -5,-5 0,-2.76142 2.23858,-5 5,-5 2.76142,0 5,2.23858 5,5 z" />
    <path
       style="fill:none;stroke:#aa0000;stroke-width:1;stroke-linecap:butt;stroke-linejoin:miter;stroke-miterlimit:4;stroke-opacity:1;stroke-dasharray:none;marker-end:url(#Arrow2Sendz)"
       d="m 143.25564,435.86035 c 7.6964,-18.27925 17.6254,-18.42304 23.96805,-2.65131"
       id="path5894-5"
       inkscape:connector-curvature="0"
       sodipodi:nodetypes="cc" />
    <path
       style="fill:none;stroke:#aa0000;stroke-width:1;stroke-linecap:butt;stroke-linejoin:miter;stroke-miterlimit:4;stroke-opacity:1;stroke-dasharray:none;marker-end:url(#Arrow2Sends)"
       d="m 347.15712,435.86035 c 7.6964,-18.27925 17.6254,-18.42304 23.96805,-2.65131"
       id="path5894-5-4"
       inkscape:connector-curvature="0"
       sodipodi:nodetypes="cc" />
    <path
       style="fill:none;stroke:#aa0000;stroke-width:1;stroke-linecap:butt;stroke-linejoin:miter;stroke-miterlimit:4;stroke-opacity:1;stroke-dasharray:none;marker-end:url(#Arrow2Sendg)"
       d="m 321.66944,435.86035 c 7.6964,-18.27925 17.6254,-18.42304 23.96805,-2.65131"
       id="path5894-5-9"
       inkscape:connector-curvature="0"
       sodipodi:nodetypes="cc" />
    <path
       style="fill:none;stroke:#aa0000;stroke-width:1;stroke-linecap:butt;stroke-linejoin:miter;stroke-miterlimit:4;stroke-opacity:1;stroke-dasharray:none;marker-end:url(#Arrow2SendJ)"
       d="m 296.18175,435.86035 c 7.6964,-18.27925 17.6254,-18.42304 23.96805,-2.65131"
       id="path5894-5-93"
       inkscape:connector-curvature="0"
       sodipodi:nodetypes="cc" />
    <path
       style="fill:none;stroke:#aa0000;stroke-width:1;stroke-linecap:butt;stroke-linejoin:miter;stroke-miterlimit:4;stroke-opacity:1;stroke-dasharray:none;marker-end:url(#Arrow2SendG)"
       d="m 270.69407,435.86035 c 7.6964,-18.27925 17.6254,-18.42304 23.96805,-2.65131"
       id="path5894-5-48"
       inkscape:connector-curvature="0"
       sodipodi:nodetypes="cc" />
    <path
       style="fill:none;stroke:#aa0000;stroke-width:1;stroke-linecap:butt;stroke-linejoin:miter;stroke-miterlimit:4;stroke-opacity:1;stroke-dasharray:none;marker-end:url(#Arrow2SendM)"
       d="m 245.20638,435.86035 c 7.6964,-18.27925 17.6254,-18.42304 23.96805,-2.65131"
       id="path5894-5-8"
       inkscape:connector-curvature="0"
       sodipodi:nodetypes="cc" />
    <path
       style="fill:none;stroke:#aa0000;stroke-width:1;stroke-linecap:butt;stroke-linejoin:miter;stroke-miterlimit:4;stroke-opacity:1;stroke-dasharray:none;marker-end:url(#Arrow2Send3)"
       d="m 219.7187,435.86035 c 7.6964,-18.27925 17.6254,-18.42304 23.96805,-2.65131"
       id="path5894-5-2"
       inkscape:connector-curvature="0"
       sodipodi:nodetypes="cc" />
    <path
       style="fill:none;stroke:#aa0000;stroke-width:1;stroke-linecap:butt;stroke-linejoin:miter;stroke-miterlimit:4;stroke-opacity:1;stroke-dasharray:none;marker-end:url(#Arrow2SendI)"
       d="m 194.23101,435.86035 c 7.6964,-18.27925 17.6254,-18.42304 23.96805,-2.65131"
       id="path5894-5-98"
       inkscape:connector-curvature="0"
       sodipodi:nodetypes="cc" />
    <path
       style="fill:none;stroke:#aa0000;stroke-width:1;stroke-linecap:butt;stroke-linejoin:miter;stroke-miterlimit:4;stroke-opacity:1;stroke-dasharray:none;marker-end:url(#Arrow2Send7)"
       d="m 168.74333,435.86035 c 7.6964,-18.27925 17.6254,-18.42304 23.96805,-2.65131"
       id="path5894-5-49"
       inkscape:connector-curvature="0"
       sodipodi:nodetypes="cc" />
    <path
       style="fill:none;stroke:#000080;stroke-width:2.20000005;stroke-linecap:butt;stroke-linejoin:miter;stroke-miterlimit:4;stroke-opacity:1;stroke-dasharray:none;stroke-dashoffset:0;marker-end:url(#Arrow2SendD)"
       d="m 165.39913,444.44627 c -7.6964,18.27925 -17.6254,18.42304 -23.96805,2.65131"
       id="path5894-5-1"
       inkscape:connector-curvature="0"
       sodipodi:nodetypes="cc" />
    <path
       style="fill:none;stroke:#000080;stroke-width:2.20000005;stroke-linecap:butt;stroke-linejoin:miter;stroke-miterlimit:4;stroke-opacity:1;stroke-dasharray:none;stroke-dashoffset:0;marker-end:url(#Arrow2Senda)"
       d="m 368.62607,444.44627 c -7.6964,18.27925 -17.6254,18.42304 -23.96805,2.65131"
       id="path5894-5-1-1"
       inkscape:connector-curvature="0"
       sodipodi:nodetypes="cc" />
    <path
       style="fill:none;stroke:#000080;stroke-width:2.20000005;stroke-linecap:butt;stroke-linejoin:miter;stroke-miterlimit:4;stroke-opacity:1;stroke-dasharray:none;stroke-dashoffset:0;marker-end:url(#Arrow2Sendd)"
       d="m 343.22268,444.44627 c -7.6964,18.27925 -17.6254,18.42304 -23.96805,2.65131"
       id="path5894-5-1-19"
       inkscape:connector-curvature="0"
       sodipodi:nodetypes="cc" />
    <path
       style="fill:none;stroke:#000080;stroke-width:2.20000005;stroke-linecap:butt;stroke-linejoin:miter;stroke-miterlimit:4;stroke-opacity:1;stroke-dasharray:none;stroke-dashoffset:0;marker-end:url(#Arrow2SendI1)"
       d="m 317.81932,444.44627 c -7.6964,18.27925 -17.6254,18.42304 -23.96805,2.65131"
       id="path5894-5-1-0"
       inkscape:connector-curvature="0"
       sodipodi:nodetypes="cc" />
    <path
       style="fill:none;stroke:#000080;stroke-width:2.20000005;stroke-linecap:butt;stroke-linejoin:miter;stroke-miterlimit:4;stroke-opacity:1;stroke-dasharray:none;stroke-dashoffset:0;marker-end:url(#Arrow2SendO)"
       d="m 292.41595,444.44627 c -7.6964,18.27925 -17.6254,18.42304 -23.96805,2.65131"
       id="path5894-5-1-8"
       inkscape:connector-curvature="0"
       sodipodi:nodetypes="cc" />
    <path
       style="fill:none;stroke:#000080;stroke-width:2.20000005;stroke-linecap:butt;stroke-linejoin:miter;stroke-miterlimit:4;stroke-opacity:1;stroke-dasharray:none;stroke-dashoffset:0;marker-end:url(#Arrow2Sendu)"
       d="m 267.01259,444.44627 c -7.6964,18.27925 -17.6254,18.42304 -23.96805,2.65131"
       id="path5894-5-1-9"
       inkscape:connector-curvature="0"
       sodipodi:nodetypes="cc" />
    <path
       style="fill:none;stroke:#000080;stroke-width:2.20000005;stroke-linecap:butt;stroke-linejoin:miter;stroke-miterlimit:4;stroke-opacity:1;stroke-dasharray:none;stroke-dashoffset:0;marker-end:url(#Arrow2Sendzk)"
       d="m 241.60922,444.44627 c -7.6964,18.27925 -17.6254,18.42304 -23.96805,2.65131"
       id="path5894-5-1-95"
       inkscape:connector-curvature="0"
       sodipodi:nodetypes="cc" />
    <path
       style="fill:none;stroke:#000080;stroke-width:2.20000005;stroke-linecap:butt;stroke-linejoin:miter;stroke-miterlimit:4;stroke-opacity:1;stroke-dasharray:none;stroke-dashoffset:0;marker-end:url(#Arrow2Send9)"
       d="m 216.20585,444.44627 c -7.6964,18.27925 -17.6254,18.42304 -23.96805,2.65131"
       id="path5894-5-1-191"
       inkscape:connector-curvature="0"
       sodipodi:nodetypes="cc" />
    <path
       style="fill:none;stroke:#000080;stroke-width:2.20000005;stroke-linecap:butt;stroke-linejoin:miter;stroke-miterlimit:4;stroke-opacity:1;stroke-dasharray:none;stroke-dashoffset:0;marker-end:url(#Arrow2SendaN)"
       d="m 190.80249,444.44627 c -7.6964,18.27925 -17.6254,18.42304 -23.96805,2.65131"
       id="path5894-5-1-15"
       inkscape:connector-curvature="0"
       sodipodi:nodetypes="cc" />
    <g
       transform="matrix(1,0,0,-1,96.84421,425.30645)"
       id="g144">
      <text
         id="text146"
         transform="matrix(1,0,0,-1,8.5,8.8332)">
        <tspan
           id="tspan148"
           y="0"
           x="0"
           style="font-size:10px;font-variant:normal;font-weight:normal;writing-mode:lr-tb;fill:#000000;fill-opacity:1;fill-rule:nonzero;stroke:none;font-family:Helvetica;-inkscape-font-specification:Helvetica">0</tspan>
      </text>
    </g>
    <path
       inkscape:connector-curvature="0"
       id="path150"
       style="fill:none;stroke:#000000;stroke-width:0.25;stroke-linecap:butt;stroke-linejoin:round;stroke-miterlimit:10;stroke-opacity:1;stroke-dasharray:none"
       d="m 114.92712,324.83199 2.2082,0" />
    <g
       transform="matrix(1,0,0,-1,98.90628,513.34835)"
       id="g154">
      <text
         id="text156"
         transform="matrix(1,0,0,-1,0.166797,184.917)">
        <tspan
           id="tspan158"
           sodipodi:role="line"
           y="0"
           x="0 5.5599999 8.3400002"
           style="font-size:10px;font-variant:normal;font-weight:normal;writing-mode:lr-tb;fill:#000000;fill-opacity:1;fill-rule:nonzero;stroke:none;font-family:Helvetica;-inkscape-font-specification:Helvetica">0.5</tspan>
      </text>
    </g>
    <path
       inkscape:connector-curvature="0"
       id="path176"
       style="fill:none;stroke:#000000;stroke-width:0.25;stroke-linecap:butt;stroke-linejoin:round;stroke-miterlimit:10;stroke-opacity:1;stroke-dasharray:none"
       d="m 114.92712,412.87349 0,-88.01235"
       sodipodi:nodetypes="cc" />
    <text
       xml:space="preserve"
       style="font-size:40px;font-style:normal;font-weight:normal;line-height:125%;letter-spacing:0px;word-spacing:0px;fill:#000000;fill-opacity:1;stroke:none;font-family:Sans"
       x="-413.82251"
       y="92.594124"
       id="text3123"
       sodipodi:linespacing="125%"
       transform="matrix(0,-1,1,0,0,0)"><tspan
         sodipodi:role="line"
         id="tspan3125"
         x="-413.82251"
         y="92.594124"
         style="font-size:12px">Initial distribution</tspan></text>
    <path
       inkscape:connector-curvature="0"
       id="path150-1"
       style="fill:none;stroke:#000000;stroke-width:0.25;stroke-linecap:butt;stroke-linejoin:round;stroke-miterlimit:10;stroke-opacity:1;stroke-dasharray:none"
       d="m 114.92712,412.94054 2.2082,0" />
    <path
       inkscape:connector-curvature="0"
       id="path186"
       style="fill:#0000ff;fill-opacity:1;fill-rule:evenodd;stroke:none"
       d="m 137.95161,412.99849 9.2916,0 0,-0.1666 -9.2916,0 0,0.1666 z" />
    <path
       inkscape:connector-curvature="0"
       id="path190"
       style="fill:#0000ff;fill-opacity:1;fill-rule:evenodd;stroke:none"
       d="m 163.40615,412.99849 9.2916,0 0,-0.3334 -9.2916,0 0,0.3334 z" />
    <path
       inkscape:connector-curvature="0"
       id="path194"
       style="fill:#0000ff;fill-opacity:1;fill-rule:evenodd;stroke:none"
       d="m 188.8607,412.99849 9.2916,0 0,-0.6666 -9.2916,0 0,0.6666 z" />
    <path
       inkscape:connector-curvature="0"
       id="path198"
       style="fill:#0000ff;fill-opacity:1;fill-rule:evenodd;stroke:none"
       d="m 214.31514,412.99849 9.2918,0 0,-1.2916 -9.2918,0 0,1.2916 z" />
    <path
       inkscape:connector-curvature="0"
       id="path202"
       style="fill:#0000ff;fill-opacity:1;fill-rule:evenodd;stroke:none"
       d="m 239.76969,412.99849 9.2918,0 0,-2.625 -9.2918,0 0,2.625 z" />
    <path
       inkscape:connector-curvature="0"
       id="path206"
       style="fill:#d40000;fill-opacity:1;fill-rule:evenodd;stroke:none"
       d="m 265.22434,412.99849 9.2916,0 0,-5.2916 -9.2916,0 0,5.2916 z" />
    <path
       inkscape:connector-curvature="0"
       id="path210"
       style="fill:#d40000;fill-opacity:1;fill-rule:evenodd;stroke:none"
       d="m 290.67887,412.99849 9.2916,0 0,-10.7084 -9.2916,0 0,10.7084 z" />
    <path
       inkscape:connector-curvature="0"
       id="path214"
       style="fill:#d40000;fill-opacity:1;fill-rule:evenodd;stroke:none"
       d="m 316.13342,412.99849 9.2916,0 0,-21.7084 -9.2916,0 0,21.7084 z" />
    <path
       inkscape:connector-curvature="0"
       id="path218"
       style="fill:#d40000;fill-opacity:1;fill-rule:evenodd;stroke:none"
       d="m 341.58787,412.99849 9.2918,0 0,-44.0416 -9.2918,0 0,44.0416 z" />
    <path
       inkscape:connector-curvature="0"
       id="path222"
       style="fill:#d40000;fill-opacity:1;fill-rule:evenodd;stroke:none"
       d="m 367.04251,412.99849 9.2916,0 0,-89.4165 -9.2916,0 0,89.4165 z" />
    <text
       xml:space="preserve"
       style="font-size:20px;font-style:normal;font-weight:normal;text-align:center;line-height:125%;letter-spacing:0px;word-spacing:0px;text-anchor:middle;fill:#000000;fill-opacity:1;stroke:none;font-family:Sans"
       x="257.78738"
       y="337.98138"
       id="text2993-1"
       sodipodi:linespacing="125%"><tspan
         sodipodi:role="line"
         id="tspan2995-7"
         x="257.78738"
         y="337.98138">WT</tspan><tspan
         sodipodi:role="line"
         x="257.78738"
         y="362.98138"
         id="tspan2997-1">w/ pre-training</tspan></text>
    <rect
       style="fill:none;stroke:#000000;stroke-width:1.5;stroke-linecap:butt;stroke-miterlimit:4;stroke-dasharray:1.5, 1.5;stroke-dashoffset:0"
       id="rect3113"
       width="130.89845"
       height="48.864006"
       x="108.07149"
       y="-0.42651382"
       transform="translate(84.00428,321.24385)" />
    <text
       xml:space="preserve"
       style="font-size:14px;font-style:normal;font-weight:normal;line-height:125%;letter-spacing:0px;word-spacing:0px;fill:#000000;fill-opacity:1;stroke:none;font-family:Sans"
       x="105.26669"
       y="444.53894"
       id="text3057"
       sodipodi:linespacing="125%"><tspan
         sodipodi:role="line"
         id="tspan3059"
         x="105.26669"
         y="444.53894"
         style="font-size:9px">before</tspan></text>
    <text
       xml:space="preserve"
       style="font-size:14px;font-style:normal;font-weight:normal;line-height:125%;letter-spacing:0px;word-spacing:0px;fill:#000000;fill-opacity:1;stroke:none;font-family:Sans"
       x="380.2048"
       y="444.53894"
       id="text3057-1"
       sodipodi:linespacing="125%"><tspan
         sodipodi:role="line"
         id="tspan3059-7"
         x="380.2048"
         y="444.53894"
         style="font-size:9px">during</tspan></text>
    <path
       style="fill:#ff9955;stroke:#008000;stroke-width:4;stroke-linecap:butt;stroke-linejoin:miter;stroke-miterlimit:4;stroke-opacity:1;stroke-dasharray:none;marker-end:url(#Arrow2Send-337r)"
       d="m 102.42894,430.33229 25,0"
       id="path3082"
       inkscape:connector-curvature="0" />
    <path
       style="fill:#ff9955;stroke:#008000;stroke-width:2.5;stroke-linecap:butt;stroke-linejoin:miter;stroke-miterlimit:4;stroke-opacity:1;stroke-dasharray:none;marker-end:url(#Arrow2Send-33d2)"
       d="m 130.83769,452.33229 -25,0"
       id="path3082-9"
       inkscape:connector-curvature="0" />
    <path
       style="fill:#ff9955;stroke:#008000;stroke-width:2.5;stroke-linecap:butt;stroke-linejoin:miter;stroke-miterlimit:4;stroke-opacity:1;stroke-dasharray:none;marker-end:url(#Arrow2Send-33V0)"
       d="m 380.42895,430.33229 25,0"
       id="path3082-2"
       inkscape:connector-curvature="0" />
    <path
       style="fill:#ff9955;stroke:#008000;stroke-width:4;stroke-linecap:butt;stroke-linejoin:miter;stroke-miterlimit:4;stroke-opacity:1;stroke-dasharray:none;marker-end:url(#Arrow2Send-33Jk)"
       d="m 408.8377,452.33229 -25,0"
       id="path3082-9-4"
       inkscape:connector-curvature="0" />
  </g>
</svg>
