<?xml version="1.0" encoding="UTF-8" standalone="no"?>
<!-- Created with Inkscape (http://www.inkscape.org/) -->

<svg
   xmlns:dc="http://purl.org/dc/elements/1.1/"
   xmlns:cc="http://creativecommons.org/ns#"
   xmlns:rdf="http://www.w3.org/1999/02/22-rdf-syntax-ns#"
   xmlns:svg="http://www.w3.org/2000/svg"
   xmlns="http://www.w3.org/2000/svg"
   xmlns:sodipodi="http://sodipodi.sourceforge.net/DTD/sodipodi-0.dtd"
   xmlns:inkscape="http://www.inkscape.org/namespaces/inkscape"
   id="svg2"
   version="1.1"
   inkscape:version="0.48.4 r9939"
   width="860"
   height="865"
   xml:space="preserve"
   sodipodi:docname="serial_learnS.eps"><metadata
     id="metadata8"><rdf:RDF><cc:Work
         rdf:about=""><dc:format>image/svg+xml</dc:format><dc:type
           rdf:resource="http://purl.org/dc/dcmitype/StillImage" /><dc:title></dc:title></cc:Work></rdf:RDF></metadata><defs
     id="defs6"><clipPath
       clipPathUnits="userSpaceOnUse"
       id="clipPath184"><path
         d="m 986.668,6777.5 0,-6113.332 5800.002,0 0,6113.332 -5800.002,0 z"
         id="path186" /></clipPath><clipPath
       clipPathUnits="userSpaceOnUse"
       id="clipPath256"><path
         d="m 3139.17,6550.84 0,-1075.84 1493.33,0 0,1075.84 -1493.33,0 z"
         id="path258" /></clipPath><clipPath
       clipPathUnits="userSpaceOnUse"
       id="clipPath272"><path
         d="m 3139.17,6550.84 0,-1075.84 1493.33,0 0,1075.84 -1493.33,0 z"
         id="path274" /></clipPath><clipPath
       clipPathUnits="userSpaceOnUse"
       id="clipPath288"><path
         d="m 3139.17,6550.84 0,-1075.84 1493.33,0 0,1075.84 -1493.33,0 z"
         id="path290" /></clipPath><clipPath
       clipPathUnits="userSpaceOnUse"
       id="clipPath304"><path
         d="m 3139.17,6550.84 0,-1075.84 1493.33,0 0,1075.84 -1493.33,0 z"
         id="path306" /></clipPath></defs><sodipodi:namedview
     pagecolor="#ffffff"
     bordercolor="#666666"
     borderopacity="1"
     objecttolerance="10"
     gridtolerance="10"
     guidetolerance="10"
     inkscape:pageopacity="0"
     inkscape:pageshadow="2"
     inkscape:window-width="2560"
     inkscape:window-height="1538"
     id="namedview4"
     showgrid="false"
     inkscape:zoom="1.439782"
     inkscape:cx="360.34839"
     inkscape:cy="458.75"
     inkscape:window-x="-8"
     inkscape:window-y="-8"
     inkscape:window-maximized="1"
     inkscape:current-layer="g10" /><g
     id="g10"
     inkscape:groupmode="layer"
     inkscape:label="ink_ext_XXXXXX"
     transform="matrix(1.25,0,0,-1.25,0,865)"><path
       inkscape:connector-curvature="0"
       id="path14"
       style="fill:#ffffff;fill-opacity:1;fill-rule:nonzero;stroke:none"
       d="m 0,0 749.917,0 0,734 L 0,734 0,0 z" /><path
       inkscape:connector-curvature="0"
       id="path16"
       style="fill:#ffffff;fill-opacity:1;fill-rule:evenodd;stroke:none"
       d="m 98.6668,66.5 579.916,0 0,611.25 -579.916,0 0,-611.25 z" /><path
       inkscape:connector-curvature="0"
       id="path18"
       style="fill:none;stroke:#ffffff;stroke-width:0.5;stroke-linecap:butt;stroke-linejoin:round;stroke-miterlimit:10;stroke-opacity:1;stroke-dasharray:none"
       d="m 98.6668,66.5 0,611.25 579.9162,0 0,-611.25 -579.9162,0" /><path
       inkscape:connector-curvature="0"
       id="path20"
       style="fill:none;stroke:#000000;stroke-width:0.5;stroke-linecap:butt;stroke-linejoin:round;stroke-miterlimit:10;stroke-opacity:1;stroke-dasharray:none"
       d="m 98.6668,677.75 579.9162,0" /><path
       inkscape:connector-curvature="0"
       id="path22"
       style="fill:none;stroke:#000000;stroke-width:0.5;stroke-linecap:butt;stroke-linejoin:round;stroke-miterlimit:10;stroke-opacity:1;stroke-dasharray:none"
       d="m 98.6668,66.5 579.9162,0" /><path
       inkscape:connector-curvature="0"
       id="path24"
       style="fill:none;stroke:#000000;stroke-width:0.5;stroke-linecap:butt;stroke-linejoin:round;stroke-miterlimit:10;stroke-opacity:1;stroke-dasharray:none"
       d="m 678.583,66.5 0,611.25" /><path
       inkscape:connector-curvature="0"
       id="path26"
       style="fill:none;stroke:#000000;stroke-width:0.5;stroke-linecap:butt;stroke-linejoin:round;stroke-miterlimit:10;stroke-opacity:1;stroke-dasharray:none"
       d="m 98.6668,66.5 0,611.25" /><path
       inkscape:connector-curvature="0"
       id="path28"
       style="fill:none;stroke:#000000;stroke-width:0.5;stroke-linecap:butt;stroke-linejoin:round;stroke-miterlimit:10;stroke-opacity:1;stroke-dasharray:none"
       d="m 98.6668,66.5 579.9162,0" /><path
       inkscape:connector-curvature="0"
       id="path30"
       style="fill:none;stroke:#000000;stroke-width:0.5;stroke-linecap:butt;stroke-linejoin:round;stroke-miterlimit:10;stroke-opacity:1;stroke-dasharray:none"
       d="m 98.6668,66.5 0,611.25" /><path
       inkscape:connector-curvature="0"
       id="path32"
       style="fill:none;stroke:#000000;stroke-width:0.5;stroke-linecap:butt;stroke-linejoin:round;stroke-miterlimit:10;stroke-opacity:1;stroke-dasharray:none"
       d="m 98.6668,66.5 0,6.1668" /><path
       inkscape:connector-curvature="0"
       id="path34"
       style="fill:none;stroke:#000000;stroke-width:0.5;stroke-linecap:butt;stroke-linejoin:round;stroke-miterlimit:10;stroke-opacity:1;stroke-dasharray:none"
       d="m 98.6668,677.75 0,-6.083" /><text
       transform="scale(1,-1)"
       id="text38"
       x="93.166801"
       y="-45.083199"><tspan
         style="font-size:20px;font-variant:normal;font-weight:normal;writing-mode:lr-tb;fill:#000000;fill-opacity:1;fill-rule:nonzero;stroke:none;font-family:Helvetica;-inkscape-font-specification:Helvetica"
         x="93.166801"
         y="-45.083199"
         id="tspan40">0</tspan></text>
<path
       inkscape:connector-curvature="0"
       id="path42"
       style="fill:none;stroke:#000000;stroke-width:0.5;stroke-linecap:butt;stroke-linejoin:round;stroke-miterlimit:10;stroke-opacity:1;stroke-dasharray:none"
       d="m 214.583,66.5 0,6.1668" /><path
       inkscape:connector-curvature="0"
       id="path44"
       style="fill:none;stroke:#000000;stroke-width:0.5;stroke-linecap:butt;stroke-linejoin:round;stroke-miterlimit:10;stroke-opacity:1;stroke-dasharray:none"
       d="m 214.583,677.75 0,-6.083" /><text
       transform="scale(1,-1)"
       id="text48"
       x="209.08299"
       y="-45.083199"><tspan
         style="font-size:20px;font-variant:normal;font-weight:normal;writing-mode:lr-tb;fill:#000000;fill-opacity:1;fill-rule:nonzero;stroke:none;font-family:Helvetica;-inkscape-font-specification:Helvetica"
         x="209.08299"
         y="-45.083199"
         id="tspan50">1</tspan></text>
<path
       inkscape:connector-curvature="0"
       id="path52"
       style="fill:none;stroke:#000000;stroke-width:0.5;stroke-linecap:butt;stroke-linejoin:round;stroke-miterlimit:10;stroke-opacity:1;stroke-dasharray:none"
       d="m 330.583,66.5 0,6.1668" /><path
       inkscape:connector-curvature="0"
       id="path54"
       style="fill:none;stroke:#000000;stroke-width:0.5;stroke-linecap:butt;stroke-linejoin:round;stroke-miterlimit:10;stroke-opacity:1;stroke-dasharray:none"
       d="m 330.583,677.75 0,-6.083" /><text
       transform="scale(1,-1)"
       id="text58"
       x="325.08301"
       y="-45.083199"><tspan
         style="font-size:20px;font-variant:normal;font-weight:normal;writing-mode:lr-tb;fill:#000000;fill-opacity:1;fill-rule:nonzero;stroke:none;font-family:Helvetica;-inkscape-font-specification:Helvetica"
         x="325.08301"
         y="-45.083199"
         id="tspan60">2</tspan></text>
<path
       inkscape:connector-curvature="0"
       id="path62"
       style="fill:none;stroke:#000000;stroke-width:0.5;stroke-linecap:butt;stroke-linejoin:round;stroke-miterlimit:10;stroke-opacity:1;stroke-dasharray:none"
       d="m 446.583,66.5 0,6.1668" /><path
       inkscape:connector-curvature="0"
       id="path64"
       style="fill:none;stroke:#000000;stroke-width:0.5;stroke-linecap:butt;stroke-linejoin:round;stroke-miterlimit:10;stroke-opacity:1;stroke-dasharray:none"
       d="m 446.583,677.75 0,-6.083" /><text
       transform="scale(1,-1)"
       id="text68"
       x="441.08301"
       y="-45.083199"><tspan
         style="font-size:20px;font-variant:normal;font-weight:normal;writing-mode:lr-tb;fill:#000000;fill-opacity:1;fill-rule:nonzero;stroke:none;font-family:Helvetica;-inkscape-font-specification:Helvetica"
         x="441.08301"
         y="-45.083199"
         id="tspan70">3</tspan></text>
<path
       inkscape:connector-curvature="0"
       id="path72"
       style="fill:none;stroke:#000000;stroke-width:0.5;stroke-linecap:butt;stroke-linejoin:round;stroke-miterlimit:10;stroke-opacity:1;stroke-dasharray:none"
       d="m 562.583,66.5 0,6.1668" /><path
       inkscape:connector-curvature="0"
       id="path74"
       style="fill:none;stroke:#000000;stroke-width:0.5;stroke-linecap:butt;stroke-linejoin:round;stroke-miterlimit:10;stroke-opacity:1;stroke-dasharray:none"
       d="m 562.583,677.75 0,-6.083" /><text
       transform="scale(1,-1)"
       id="text78"
       x="557.08301"
       y="-45.083199"><tspan
         style="font-size:20px;font-variant:normal;font-weight:normal;writing-mode:lr-tb;fill:#000000;fill-opacity:1;fill-rule:nonzero;stroke:none;font-family:Helvetica;-inkscape-font-specification:Helvetica"
         x="557.08301"
         y="-45.083199"
         id="tspan80">4</tspan></text>
<path
       inkscape:connector-curvature="0"
       id="path82"
       style="fill:none;stroke:#000000;stroke-width:0.5;stroke-linecap:butt;stroke-linejoin:round;stroke-miterlimit:10;stroke-opacity:1;stroke-dasharray:none"
       d="m 678.583,66.5 0,6.1668" /><path
       inkscape:connector-curvature="0"
       id="path84"
       style="fill:none;stroke:#000000;stroke-width:0.5;stroke-linecap:butt;stroke-linejoin:round;stroke-miterlimit:10;stroke-opacity:1;stroke-dasharray:none"
       d="m 678.583,677.75 0,-6.083" /><text
       transform="scale(1,-1)"
       id="text88"
       x="673.08301"
       y="-45.083199"><tspan
         style="font-size:20px;font-variant:normal;font-weight:normal;writing-mode:lr-tb;fill:#000000;fill-opacity:1;fill-rule:nonzero;stroke:none;font-family:Helvetica;-inkscape-font-specification:Helvetica"
         x="673.08301"
         y="-45.083199"
         id="tspan90">5</tspan></text>
<path
       inkscape:connector-curvature="0"
       id="path92"
       style="fill:none;stroke:#000000;stroke-width:0.5;stroke-linecap:butt;stroke-linejoin:round;stroke-miterlimit:10;stroke-opacity:1;stroke-dasharray:none"
       d="m 98.6668,66.5 6.0832,0" /><path
       inkscape:connector-curvature="0"
       id="path94"
       style="fill:none;stroke:#000000;stroke-width:0.5;stroke-linecap:butt;stroke-linejoin:round;stroke-miterlimit:10;stroke-opacity:1;stroke-dasharray:none"
       d="m 678.583,66.5 -6.166,0" /><text
       transform="scale(1,-1)"
       id="text98"
       x="84.666801"
       y="-59.083199"><tspan
         style="font-size:20px;font-variant:normal;font-weight:normal;writing-mode:lr-tb;fill:#000000;fill-opacity:1;fill-rule:nonzero;stroke:none;font-family:Helvetica;-inkscape-font-specification:Helvetica"
         x="84.666801"
         y="-59.083199"
         id="tspan100">0</tspan></text>
<path
       inkscape:connector-curvature="0"
       id="path102"
       style="fill:none;stroke:#000000;stroke-width:0.5;stroke-linecap:butt;stroke-linejoin:round;stroke-miterlimit:10;stroke-opacity:1;stroke-dasharray:none"
       d="m 98.6668,153.833 6.0832,0" /><path
       inkscape:connector-curvature="0"
       id="path104"
       style="fill:none;stroke:#000000;stroke-width:0.5;stroke-linecap:butt;stroke-linejoin:round;stroke-miterlimit:10;stroke-opacity:1;stroke-dasharray:none"
       d="m 678.583,153.833 -6.166,0" /><text
       transform="scale(1,-1)"
       id="text108"
       x="56.833199"
       y="-146.41701"><tspan
         style="font-size:20px;font-variant:normal;font-weight:normal;writing-mode:lr-tb;fill:#000000;fill-opacity:1;fill-rule:nonzero;stroke:none;font-family:Helvetica;-inkscape-font-specification:Helvetica"
         x="56.833199 67.953201 73.513199 84.633202"
         y="-146.41701"
         sodipodi:role="line"
         id="tspan110">0.05</tspan></text>
<path
       inkscape:connector-curvature="0"
       id="path112"
       style="fill:none;stroke:#000000;stroke-width:0.5;stroke-linecap:butt;stroke-linejoin:round;stroke-miterlimit:10;stroke-opacity:1;stroke-dasharray:none"
       d="m 98.6668,241.167 6.0832,0" /><path
       inkscape:connector-curvature="0"
       id="path114"
       style="fill:none;stroke:#000000;stroke-width:0.5;stroke-linecap:butt;stroke-linejoin:round;stroke-miterlimit:10;stroke-opacity:1;stroke-dasharray:none"
       d="m 678.583,241.167 -6.166,0" /><text
       transform="scale(1,-1)"
       id="text118"
       x="68"
       y="-233.75"><tspan
         style="font-size:20px;font-variant:normal;font-weight:normal;writing-mode:lr-tb;fill:#000000;fill-opacity:1;fill-rule:nonzero;stroke:none;font-family:Helvetica;-inkscape-font-specification:Helvetica"
         x="68 79.120003 84.68"
         y="-233.75"
         sodipodi:role="line"
         id="tspan120">0.1</tspan></text>
<path
       inkscape:connector-curvature="0"
       id="path122"
       style="fill:none;stroke:#000000;stroke-width:0.5;stroke-linecap:butt;stroke-linejoin:round;stroke-miterlimit:10;stroke-opacity:1;stroke-dasharray:none"
       d="m 98.6668,328.5 6.0832,0" /><path
       inkscape:connector-curvature="0"
       id="path124"
       style="fill:none;stroke:#000000;stroke-width:0.5;stroke-linecap:butt;stroke-linejoin:round;stroke-miterlimit:10;stroke-opacity:1;stroke-dasharray:none"
       d="m 678.583,328.5 -6.166,0" /><text
       transform="scale(1,-1)"
       id="text128"
       x="56.833199"
       y="-321.08301"><tspan
         style="font-size:20px;font-variant:normal;font-weight:normal;writing-mode:lr-tb;fill:#000000;fill-opacity:1;fill-rule:nonzero;stroke:none;font-family:Helvetica;-inkscape-font-specification:Helvetica"
         x="56.833199 67.953201 73.513199 84.633202"
         y="-321.08301"
         sodipodi:role="line"
         id="tspan130">0.15</tspan></text>
<path
       inkscape:connector-curvature="0"
       id="path132"
       style="fill:none;stroke:#000000;stroke-width:0.5;stroke-linecap:butt;stroke-linejoin:round;stroke-miterlimit:10;stroke-opacity:1;stroke-dasharray:none"
       d="m 98.6668,415.834 6.0832,0" /><path
       inkscape:connector-curvature="0"
       id="path134"
       style="fill:none;stroke:#000000;stroke-width:0.5;stroke-linecap:butt;stroke-linejoin:round;stroke-miterlimit:10;stroke-opacity:1;stroke-dasharray:none"
       d="m 678.583,415.834 -6.166,0" /><text
       transform="scale(1,-1)"
       id="text138"
       x="68"
       y="-408.41699"><tspan
         style="font-size:20px;font-variant:normal;font-weight:normal;writing-mode:lr-tb;fill:#000000;fill-opacity:1;fill-rule:nonzero;stroke:none;font-family:Helvetica;-inkscape-font-specification:Helvetica"
         x="68 79.120003 84.68"
         y="-408.41699"
         sodipodi:role="line"
         id="tspan140">0.2</tspan></text>
<path
       inkscape:connector-curvature="0"
       id="path142"
       style="fill:none;stroke:#000000;stroke-width:0.5;stroke-linecap:butt;stroke-linejoin:round;stroke-miterlimit:10;stroke-opacity:1;stroke-dasharray:none"
       d="m 98.6668,503.167 6.0832,0" /><path
       inkscape:connector-curvature="0"
       id="path144"
       style="fill:none;stroke:#000000;stroke-width:0.5;stroke-linecap:butt;stroke-linejoin:round;stroke-miterlimit:10;stroke-opacity:1;stroke-dasharray:none"
       d="m 678.583,503.167 -6.166,0" /><text
       transform="scale(1,-1)"
       id="text148"
       x="56.833199"
       y="-495.75"><tspan
         style="font-size:20px;font-variant:normal;font-weight:normal;writing-mode:lr-tb;fill:#000000;fill-opacity:1;fill-rule:nonzero;stroke:none;font-family:Helvetica;-inkscape-font-specification:Helvetica"
         x="56.833199 67.953201 73.513199 84.633202"
         y="-495.75"
         sodipodi:role="line"
         id="tspan150">0.25</tspan></text>
<path
       inkscape:connector-curvature="0"
       id="path152"
       style="fill:none;stroke:#000000;stroke-width:0.5;stroke-linecap:butt;stroke-linejoin:round;stroke-miterlimit:10;stroke-opacity:1;stroke-dasharray:none"
       d="m 98.6668,590.5 6.0832,0" /><path
       inkscape:connector-curvature="0"
       id="path154"
       style="fill:none;stroke:#000000;stroke-width:0.5;stroke-linecap:butt;stroke-linejoin:round;stroke-miterlimit:10;stroke-opacity:1;stroke-dasharray:none"
       d="m 678.583,590.5 -6.166,0" /><text
       transform="scale(1,-1)"
       id="text158"
       x="68"
       y="-583.08398"><tspan
         style="font-size:20px;font-variant:normal;font-weight:normal;writing-mode:lr-tb;fill:#000000;fill-opacity:1;fill-rule:nonzero;stroke:none;font-family:Helvetica;-inkscape-font-specification:Helvetica"
         x="68 79.120003 84.68"
         y="-583.08398"
         sodipodi:role="line"
         id="tspan160">0.3</tspan></text>
<path
       inkscape:connector-curvature="0"
       id="path162"
       style="fill:none;stroke:#000000;stroke-width:0.5;stroke-linecap:butt;stroke-linejoin:round;stroke-miterlimit:10;stroke-opacity:1;stroke-dasharray:none"
       d="m 98.6668,677.75 6.0832,0" /><path
       inkscape:connector-curvature="0"
       id="path164"
       style="fill:none;stroke:#000000;stroke-width:0.5;stroke-linecap:butt;stroke-linejoin:round;stroke-miterlimit:10;stroke-opacity:1;stroke-dasharray:none"
       d="m 678.583,677.75 -6.166,0" /><text
       transform="scale(1,-1)"
       id="text168"
       x="56.833199"
       y="-670.33398"><tspan
         style="font-size:20px;font-variant:normal;font-weight:normal;writing-mode:lr-tb;fill:#000000;fill-opacity:1;fill-rule:nonzero;stroke:none;font-family:Helvetica;-inkscape-font-specification:Helvetica"
         x="56.833199 67.953201 73.513199 84.633202"
         y="-670.33398"
         sodipodi:role="line"
         id="tspan170">0.35</tspan></text>
<path
       inkscape:connector-curvature="0"
       id="path172"
       style="fill:none;stroke:#000000;stroke-width:0.5;stroke-linecap:butt;stroke-linejoin:round;stroke-miterlimit:10;stroke-opacity:1;stroke-dasharray:none"
       d="m 98.6668,677.75 579.9162,0" /><path
       inkscape:connector-curvature="0"
       id="path174"
       style="fill:none;stroke:#000000;stroke-width:0.5;stroke-linecap:butt;stroke-linejoin:round;stroke-miterlimit:10;stroke-opacity:1;stroke-dasharray:none"
       d="m 98.6668,66.5 579.9162,0" /><path
       inkscape:connector-curvature="0"
       id="path176"
       style="fill:none;stroke:#000000;stroke-width:0.5;stroke-linecap:butt;stroke-linejoin:round;stroke-miterlimit:10;stroke-opacity:1;stroke-dasharray:none"
       d="m 678.583,66.5 0,611.25" /><path
       inkscape:connector-curvature="0"
       id="path178"
       style="fill:none;stroke:#000000;stroke-width:0.5;stroke-linecap:butt;stroke-linejoin:round;stroke-miterlimit:10;stroke-opacity:1;stroke-dasharray:none"
       d="m 98.6668,66.5 0,611.25" /><path
       inkscape:connector-curvature="0"
       id="path188"
       style="fill:none;stroke:#000000;stroke-width:4;stroke-linecap:butt;stroke-linejoin:round;stroke-miterlimit:10;stroke-opacity:1;stroke-dasharray:none"
       d="M 104.417,69.6668 110.25,72.8332 116,76 l 5.833,3.0832 5.75,3.1668 5.834,3.1668 5.833,3.1664 5.75,3.0836 5.833,3.1664 5.75,3.1668 5.834,3.083 5.833,3.167 5.75,3.167 5.833,3.166 5.75,3.084 5.834,3.166 5.833,3.167 5.75,3.167 5.833,3.083 5.75,3.167 5.834,3.166 5.75,3.084 5.833,3.166 5.833,3.167 5.75,3.167 5.834,3.083 5.75,3.167 5.833,3.166 5.833,3.084 5.75,3.166 5.834,3.167 5.75,3.167 5.833,3.083 5.833,3.167 5.75,3.166 5.834,3.167 5.75,3.083 5.833,3.167 5.833,3.167 5.75,3.083 5.834,3.167 5.75,3.166 5.833,3.167 5.75,3.083 5.833,3.167 5.834,3.167 5.75,3.083 5.833,3.167 5.75,3.166 5.833,3.167 5.834,3.083 5.75,3.167 5.833,3.167 5.75,3.083 5.833,3.167 5.834,3.166 5.75,3.084 5.833,3.166 5.75,3.167 5.833,3.167 5.75,3.083 5.834,3.167 5.833,3.166 5.75,3.084 5.833,3.166 5.75,3.167 5.834,3.083 5.833,3.167 5.75,3.167 5.833,3.083 5.75,3.167 5.834,3.166 5.833,3.084 5.75,3.166 5.833,3.167 5.75,3.083 5.834,3.167 5.833,3.167 5.75,3.083 5.833,3.167 5.75,3.083 5.834,3.167 5.75,3.166 5.833,3.084 5.833,3.166 5.75,3.084 5.834,3.166 5.75,3.167 5.833,3.083 5.833,3.167 5.75,3.083 5.834,3.167 5.75,3.083 5.833,3.167 5.833,3.167 5.75,3.083 5.834,3.167 5.75,3.083 5.833,3.167 5.833,3.083" /><path
       inkscape:connector-curvature="0"
       id="path190"
       style="fill:none;stroke:#000000;stroke-width:2;stroke-linecap:butt;stroke-linejoin:round;stroke-miterlimit:10;stroke-opacity:1;stroke-dasharray:none"
       d="m 98.6668,66.5 5.7502,3.1668" /><path
       inkscape:connector-curvature="0"
       id="path192"
       style="fill:none;stroke:#000000;stroke-width:4;stroke-linecap:butt;stroke-linejoin:round;stroke-miterlimit:10;stroke-opacity:1;stroke-dasharray:12,12;stroke-dashoffset:0"
       d="m 104.417,69.1668 5.833,2.6664 5.75,2.75 5.833,2.6668 5.75,2.6668 5.834,2.6664 5.833,2.6668 5.75,2.6668 5.833,2.6664 5.75,2.75 5.834,2.6668 5.833,2.6668 5.75,2.7502 5.833,2.666 5.75,2.75 5.834,2.667 5.833,2.75 5.75,2.667 5.833,2.75 5.75,2.666 5.834,2.75 5.75,2.75 5.833,2.667 5.833,2.75 5.75,2.75 5.834,2.75 5.75,2.75 5.833,2.75 5.833,2.75 5.75,2.75 5.834,2.75 5.75,2.75 5.833,2.75 5.833,2.833 5.75,2.75 5.834,2.75 5.75,2.834 5.833,2.75 5.833,2.833 5.75,2.833 5.834,2.75 5.75,2.834 5.833,2.833 5.75,2.833 5.833,2.834 5.834,2.833 5.75,2.833 5.833,2.834 5.75,2.833 5.833,2.833 5.834,2.917 5.75,2.833 5.833,2.917 5.75,2.833 5.833,2.917 5.834,2.917 5.75,2.916 5.833,2.834 5.75,2.916 5.833,3 5.75,2.917 5.834,2.917 5.833,2.916 5.75,3 5.833,2.917 5.75,3 5.834,2.917 5.833,3 5.75,3 5.833,3 5.75,3 5.834,3 5.833,3.083 5.75,3 5.833,3 5.75,3.083 5.834,3.084 5.833,3 5.75,3.083 5.833,3.083 5.75,3.084 5.834,3.083 5.75,3.167 5.833,3.083 5.833,3.083 5.75,3.167 5.834,3.167 5.75,3.166 5.833,3.167 5.833,3.167 5.75,3.166 5.834,3.167 5.75,3.167 5.833,3.25 5.833,3.166 5.75,3.25 5.834,3.25 5.75,3.25 5.833,3.25 5.833,3.25" /><path
       inkscape:connector-curvature="0"
       id="path194"
       style="fill:none;stroke:#000000;stroke-width:2;stroke-linecap:butt;stroke-linejoin:round;stroke-miterlimit:10;stroke-opacity:1;stroke-dasharray:6;stroke-dashoffset:0"
       d="m 98.6668,66.5 5.7502,2.6668" /><path
       inkscape:connector-curvature="0"
       id="path196"
       style="fill:none;stroke:#c00000;stroke-width:4;stroke-linecap:butt;stroke-linejoin:round;stroke-miterlimit:10;stroke-opacity:1;stroke-dasharray:none"
       d="m 104.417,69.1668 5.833,2.6664 5.75,2.5836 5.833,2.5832 5.75,2.5832 5.834,2.6668 5.833,2.5832 5.75,2.5 5.833,2.5836 5.75,2.5832 5.834,2.5832 5.833,2.5 5.75,2.5838 5.833,2.5 5.75,2.5 5.834,2.5 5.833,2.583 5.75,2.5 5.833,2.417 5.75,2.5 5.834,2.5 5.75,2.5 5.833,2.416 5.833,2.5 5.75,2.417 5.834,2.417 5.75,2.5 5.833,2.416 5.833,2.417 5.75,2.417 5.834,2.416 5.75,2.334 5.833,2.416 5.833,2.417 5.75,2.333 5.834,2.334 5.75,2.416 5.833,2.334 5.833,2.333 5.75,2.333 5.834,2.334 5.75,2.333 5.833,2.333 5.75,2.334 5.833,2.25 5.834,2.333 5.75,2.333 5.833,2.25 5.75,2.25 5.833,2.334 5.834,2.25 5.75,2.25 5.833,2.25 5.75,2.25 5.833,2.25 5.834,2.166 5.75,2.25 5.833,2.25 5.75,2.167 5.833,2.25 5.75,2.167 5.834,2.166 5.833,2.167 5.75,2.167 5.833,2.166 5.75,2.167 5.834,2.167 5.833,2.166 5.75,2.167 5.833,2.083 5.75,2.167 5.834,2.083 5.833,2.167 5.75,2.083 5.833,2.084 5.75,2.166 5.834,2.084 5.833,2.083 5.75,2.083 5.833,2 5.75,2.084 5.834,2.083 5.75,2.083 5.833,2 5.833,2.084 5.75,2 5.834,2 5.75,2 5.833,2.083 5.833,2 5.75,2 5.834,2 5.75,2 5.833,1.917 5.833,2 5.75,2 5.834,1.916 5.75,2 5.833,1.917 5.833,1.917" /><path
       inkscape:connector-curvature="0"
       id="path198"
       style="fill:none;stroke:#c00000;stroke-width:2;stroke-linecap:butt;stroke-linejoin:round;stroke-miterlimit:10;stroke-opacity:1;stroke-dasharray:none"
       d="m 98.6668,66.5 5.7502,2.6668" /><path
       inkscape:connector-curvature="0"
       id="path200"
       style="fill:none;stroke:#c00000;stroke-width:4;stroke-linecap:butt;stroke-linejoin:round;stroke-miterlimit:10;stroke-opacity:1;stroke-dasharray:12,12;stroke-dashoffset:0"
       d="m 104.417,72.0832 5.833,5.5 5.75,5.5 5.833,5.5 5.75,5.5 5.834,5.4168 5.833,5.5 5.75,5.5 5.833,5.417 5.75,5.5 5.834,5.416 5.833,5.417 5.75,5.417 5.833,5.416 5.75,5.417 5.834,5.417 5.833,5.416 5.75,5.417 5.833,5.333 5.75,5.417 5.834,5.333 5.75,5.417 5.833,5.333 5.833,5.334 5.75,5.333 5.834,5.333 5.75,5.334 5.833,5.333 5.833,5.333 5.75,5.334 5.834,5.25 5.75,5.333 5.833,5.333 5.833,5.25 5.75,5.334 5.834,5.25 5.75,5.25 5.833,5.25 5.833,5.333 5.75,5.25 5.834,5.25 5.75,5.25 5.833,5.25 5.75,5.167 5.833,5.25 5.834,5.25 5.75,5.25 5.833,5.166 5.75,5.25 5.833,5.167 5.834,5.25 5.75,5.167 5.833,5.25 5.75,5.166 5.833,5.167 5.834,5.167 5.75,5.25 5.833,5.166 5.75,5.167 5.833,5.167 5.75,5.166 5.834,5.167 5.833,5.167 5.75,5.083 5.833,5.167 5.75,5.166 5.834,5.167 5.833,5.167 5.75,5.083 5.833,5.167 5.75,5.083 5.834,5.167 5.833,5.166 5.75,5.084 5.833,5.083 5.75,5.167 5.834,5.083 5.833,5.167 5.75,5.083 5.833,5.083 5.75,5.167 5.834,5.083 5.75,5.084 5.833,5.083 5.833,5.083 5.75,5.084 5.834,5.083 5.75,5.083 5.833,5.084 5.833,5.083 5.75,5.083 5.834,5.084 5.75,5.083 5.833,5.083 5.833,5.084 5.75,5 5.834,5.083 5.75,5.083 5.833,5.084 5.833,5" /><path
       inkscape:connector-curvature="0"
       id="path202"
       style="fill:none;stroke:#c00000;stroke-width:2;stroke-linecap:butt;stroke-linejoin:round;stroke-miterlimit:10;stroke-opacity:1;stroke-dasharray:6;stroke-dashoffset:0"
       d="m 98.6668,66.5 5.7502,5.5832" /><text
       transform="scale(1,-1)"
       id="text206"
       x="275.5"
       y="-11.0832"><tspan
         style="font-size:40px;font-variant:normal;font-weight:normal;writing-mode:lr-tb;fill:#000000;fill-opacity:1;fill-rule:nonzero;stroke:none;font-family:Helvetica;-inkscape-font-specification:Helvetica"
         x="275.5 299.94 313.26001 335.5 344.38 366.62 375.5 397.73999 419.97998 431.10001 442.22 451.10001 484.41998"
         y="-11.0832"
         sodipodi:role="line"
         id="tspan208">Training time</tspan></text>
<text
       transform="matrix(0,1,1,0,0,0)"
       id="text210"
       x="176.5"
       y="40.583199"><tspan
         style="font-size:40px;font-variant:normal;font-weight:normal;writing-mode:lr-tb;fill:#000000;fill-opacity:1;fill-rule:nonzero;stroke:none;font-family:Helvetica;-inkscape-font-specification:Helvetica"
         x="176.5 198.74001 220.98 243.22 256.54001 278.78 287.66 309.89999 332.14001 343.26001 356.58002"
         y="40.583199"
         sodipodi:role="line"
         id="tspan212">Learning (−</tspan></text>
<text
       transform="matrix(0,1,1,0,0,0)"
       id="text214"
       x="380.91699"
       y="40.583199"><tspan
         style="font-size:40px;font-variant:normal;font-weight:normal;writing-mode:lr-tb;fill:#000000;fill-opacity:1;fill-rule:nonzero;stroke:none;font-family:Symbol;-inkscape-font-specification:Symbol"
         x="380.91699"
         y="40.583199"
         id="tspan216">∆</tspan></text>
<text
       transform="matrix(0,1,1,0,0,0)"
       id="text218"
       x="416.4534"
       y="40.583199"><tspan
         style="font-size:40px;font-variant:normal;font-weight:normal;writing-mode:lr-tb;fill:#000000;fill-opacity:1;fill-rule:nonzero;stroke:none;font-family:Helvetica;-inkscape-font-specification:Helvetica"
         x="416.4534 449.77341 472.0134 494.25342 516.49341 527.6134 556.49341"
         y="40.583199"
         sodipodi:role="line"
         id="tspan220">mean w)</tspan></text>
<path
       inkscape:connector-curvature="0"
       id="path222"
       style="fill:#ffffff;fill-opacity:1;fill-rule:evenodd;stroke:none"
       d="m 313.917,547.584 149.25,0 0,107.5 -149.25,0 0,-107.5 z" /><path
       inkscape:connector-curvature="0"
       id="path224"
       style="fill:none;stroke:#ffffff;stroke-width:0.5;stroke-linecap:butt;stroke-linejoin:round;stroke-miterlimit:10;stroke-opacity:1;stroke-dasharray:none"
       d="m 313.917,547.584 0,107.5 149.25,0 0,-107.5 -149.25,0" /><path
       inkscape:connector-curvature="0"
       id="path226"
       style="fill:none;stroke:#000000;stroke-width:0.5;stroke-linecap:butt;stroke-linejoin:round;stroke-miterlimit:10;stroke-opacity:1;stroke-dasharray:none"
       d="m 313.917,655.084 149.25,0" /><path
       inkscape:connector-curvature="0"
       id="path228"
       style="fill:none;stroke:#000000;stroke-width:0.5;stroke-linecap:butt;stroke-linejoin:round;stroke-miterlimit:10;stroke-opacity:1;stroke-dasharray:none"
       d="m 313.917,547.584 149.25,0" /><path
       inkscape:connector-curvature="0"
       id="path230"
       style="fill:none;stroke:#000000;stroke-width:0.5;stroke-linecap:butt;stroke-linejoin:round;stroke-miterlimit:10;stroke-opacity:1;stroke-dasharray:none"
       d="m 463.167,547.584 0,107.5" /><path
       inkscape:connector-curvature="0"
       id="path232"
       style="fill:none;stroke:#000000;stroke-width:0.5;stroke-linecap:butt;stroke-linejoin:round;stroke-miterlimit:10;stroke-opacity:1;stroke-dasharray:none"
       d="m 313.917,547.584 0,107.5" /><path
       inkscape:connector-curvature="0"
       id="path234"
       style="fill:none;stroke:#000000;stroke-width:0.5;stroke-linecap:butt;stroke-linejoin:round;stroke-miterlimit:10;stroke-opacity:1;stroke-dasharray:none"
       d="m 313.917,547.584 149.25,0" /><path
       inkscape:connector-curvature="0"
       id="path236"
       style="fill:none;stroke:#000000;stroke-width:0.5;stroke-linecap:butt;stroke-linejoin:round;stroke-miterlimit:10;stroke-opacity:1;stroke-dasharray:none"
       d="m 313.917,547.584 0,107.5" /><path
       inkscape:connector-curvature="0"
       id="path238"
       style="fill:none;stroke:#000000;stroke-width:0.5;stroke-linecap:butt;stroke-linejoin:round;stroke-miterlimit:10;stroke-opacity:1;stroke-dasharray:none"
       d="m 313.917,655.084 149.25,0" /><path
       inkscape:connector-curvature="0"
       id="path240"
       style="fill:none;stroke:#000000;stroke-width:0.5;stroke-linecap:butt;stroke-linejoin:round;stroke-miterlimit:10;stroke-opacity:1;stroke-dasharray:none"
       d="m 313.917,547.584 149.25,0" /><path
       inkscape:connector-curvature="0"
       id="path242"
       style="fill:none;stroke:#000000;stroke-width:0.5;stroke-linecap:butt;stroke-linejoin:round;stroke-miterlimit:10;stroke-opacity:1;stroke-dasharray:none"
       d="m 463.167,547.584 0,107.5" /><path
       inkscape:connector-curvature="0"
       id="path244"
       style="fill:none;stroke:#000000;stroke-width:0.5;stroke-linecap:butt;stroke-linejoin:round;stroke-miterlimit:10;stroke-opacity:1;stroke-dasharray:none"
       d="m 313.917,547.584 0,107.5" /><text
       transform="scale(1,-1)"
       id="text248"
       x="352.91699"
       y="-633.25"><tspan
         style="font-size:20px;font-variant:normal;font-weight:normal;writing-mode:lr-tb;fill:#000000;fill-opacity:1;fill-rule:nonzero;stroke:none;font-family:Helvetica;-inkscape-font-specification:Helvetica"
         x="352.91699 371.797 384.017 389.577 404.017 409.577 420.69699 426.25699 437.37701 444.03702"
         y="-633.25"
         sodipodi:role="line"
         id="tspan250">WT w/o pre</tspan></text>
<path
       inkscape:connector-curvature="0"
       id="path260"
       style="fill:none;stroke:#000000;stroke-width:4;stroke-linecap:butt;stroke-linejoin:round;stroke-miterlimit:10;stroke-opacity:1;stroke-dasharray:none"
       d="m 319.917,640.334 30,0" /><text
       transform="scale(1,-1)"
       id="text264"
       x="352.91699"
       y="-607.25"><tspan
         style="font-size:20px;font-variant:normal;font-weight:normal;writing-mode:lr-tb;fill:#000000;fill-opacity:1;fill-rule:nonzero;stroke:none;font-family:Helvetica;-inkscape-font-specification:Helvetica"
         x="352.91699 366.25699 381.81699 387.37701 401.81702 407.37701 418.49701 424.05701 435.177 441.83701"
         y="-607.25"
         sodipodi:role="line"
         id="tspan266">KO w/o pre</tspan></text>
<path
       inkscape:connector-curvature="0"
       id="path276"
       style="fill:none;stroke:#c00000;stroke-width:4;stroke-linecap:butt;stroke-linejoin:round;stroke-miterlimit:10;stroke-opacity:1;stroke-dasharray:none"
       d="m 319.917,614.334 30,0" /><text
       transform="scale(1,-1)"
       id="text280"
       x="352.91699"
       y="-581.16699"><tspan
         style="font-size:20px;font-variant:normal;font-weight:normal;writing-mode:lr-tb;fill:#000000;fill-opacity:1;fill-rule:nonzero;stroke:none;font-family:Helvetica;-inkscape-font-specification:Helvetica"
         x="352.91699 371.797 384.017 389.577 404.017 409.577 415.13699 426.25699 432.91699"
         y="-581.16699"
         sodipodi:role="line"
         id="tspan282">WT w/ pre</tspan></text>
<path
       inkscape:connector-curvature="0"
       id="path292"
       style="fill:none;stroke:#000000;stroke-width:4;stroke-linecap:butt;stroke-linejoin:round;stroke-miterlimit:10;stroke-opacity:1;stroke-dasharray:12,12;stroke-dashoffset:0"
       d="m 319.917,588.417 30,0" /><text
       transform="scale(1,-1)"
       id="text296"
       x="352.91699"
       y="-555.16699"><tspan
         style="font-size:20px;font-variant:normal;font-weight:normal;writing-mode:lr-tb;fill:#000000;fill-opacity:1;fill-rule:nonzero;stroke:none;font-family:Helvetica;-inkscape-font-specification:Helvetica"
         x="352.91699 366.25699 381.81699 387.37701 401.81702 407.37701 412.93701 424.05701 430.71701"
         y="-555.16699"
         sodipodi:role="line"
         id="tspan298">KO w/ pre</tspan></text>
<path
       inkscape:connector-curvature="0"
       id="path308"
       style="fill:none;stroke:#c00000;stroke-width:4;stroke-linecap:butt;stroke-linejoin:round;stroke-miterlimit:10;stroke-opacity:1;stroke-dasharray:12,12;stroke-dashoffset:0"
       d="m 319.917,562.334 30,0" /></g></svg>