<?xml version="1.0" encoding="UTF-8" standalone="no"?>
<!-- Created with Inkscape (http://www.inkscape.org/) -->

<svg
   xmlns:dc="http://purl.org/dc/elements/1.1/"
   xmlns:cc="http://creativecommons.org/ns#"
   xmlns:rdf="http://www.w3.org/1999/02/22-rdf-syntax-ns#"
   xmlns:svg="http://www.w3.org/2000/svg"
   xmlns="http://www.w3.org/2000/svg"
   xmlns:sodipodi="http://sodipodi.sourceforge.net/DTD/sodipodi-0.dtd"
   xmlns:inkscape="http://www.inkscape.org/namespaces/inkscape"
   width="78.839737"
   height="61.566132"
   id="svg3108"
   version="1.1"
   inkscape:version="0.48.4 r9939"
   sodipodi:docname="New document 3">
  <defs
     id="defs3110" />
  <sodipodi:namedview
     id="base"
     pagecolor="#ffffff"
     bordercolor="#666666"
     borderopacity="1.0"
     inkscape:pageopacity="0.0"
     inkscape:pageshadow="2"
     inkscape:zoom="5.3641507"
     inkscape:cx="44.195712"
     inkscape:cy="30.783067"
     inkscape:document-units="px"
     inkscape:current-layer="layer1"
     showgrid="false"
     fit-margin-top="0"
     fit-margin-left="0"
     fit-margin-right="0"
     fit-margin-bottom="0"
     inkscape:window-width="2560"
     inkscape:window-height="1538"
     inkscape:window-x="-8"
     inkscape:window-y="-8"
     inkscape:window-maximized="1" />
  <metadata
     id="metadata3113">
    <rdf:RDF>
      <cc:Work
         rdf:about="">
        <dc:format>image/svg+xml</dc:format>
        <dc:type
           rdf:resource="http://purl.org/dc/dcmitype/StillImage" />
        <dc:title></dc:title>
      </cc:Work>
    </rdf:RDF>
  </metadata>
  <g
     inkscape:label="Layer 1"
     inkscape:groupmode="layer"
     id="layer1"
     transform="translate(-308.52676,-501.57912)">
    <path
       inkscape:connector-curvature="0"
       id="path128-1"
       style="fill:#3b4ca7;fill-opacity:1;fill-rule:nonzero;stroke:#2f3591;stroke-width:1.25;stroke-linecap:butt;stroke-linejoin:miter;stroke-miterlimit:4;stroke-opacity:1;stroke-dasharray:none"
       d="m 376.675,522.13025 0,0.195 c -0.135,-0.004 -0.27625,-0.004 -0.4225,-0.004 -2.79125,0.74625 -4.54,4.8725 -7.68,3.74625 -4.185,-1.5 -6.27875,-7.12625 -4.88375,-12.0025 0.69875,-2.25 2.7925,-4.87625 5.235,-3.74625 1.8075,0.645 3.9575,2.53125 5.9925,3.09375 l -0.004,0.007 c 1.41,2.64875 1.7625,5.67875 1.7625,8.71" />
    <path
       inkscape:connector-curvature="0"
       id="path140-7"
       style="fill:none;stroke:#231f20;stroke-width:0.9375;stroke-linecap:butt;stroke-linejoin:miter;stroke-miterlimit:4;stroke-opacity:1;stroke-dasharray:none"
       d="m 382.26213,562.6765 c 0,-2.71875 0.62125,-11.9575 -1.2875,-16.01625 -0.9575,-2.02875 -2.54125,-2.7675 -5.15375,-0.75 -1.04,0.80625 -1.55125,2.3475 -2.19875,3.55625 -0.64375,1.2075 -1.42125,2.08125 -2.9925,1.56 -1.14375,-0.3825 -1.975,-1.98875 -2.53625,-4.055 -0.2825,-1.035 -0.49875,-2.18625 -0.6525,-3.36 -0.1525,-1.01 -0.3525,-2.21375 -0.495,-3.455 -0.14,-1.24125 -0.22125,-2.525 -0.12625,-3.69125 -0.33875,-1.76625 0.70875,-3.27 2.10375,-3.645 4.18875,-1.12625 5.585,5.25 9.4225,4.5 4.88625,-1.5 2.095,-7.87625 1.49375,-12.01" />
    <path
       inkscape:connector-curvature="0"
       id="path144-4"
       style="fill:none;stroke:#231f20;stroke-width:0.9375;stroke-linecap:butt;stroke-linejoin:miter;stroke-miterlimit:4;stroke-opacity:1;stroke-dasharray:none"
       d="m 380.12588,525.818 c -0.0175,-1.3775 -0.46375,-2.43875 -1.18625,-3.0575 -0.81,-0.37875 -1.4375,-0.43125 -2.265,-0.435 -0.135,-0.004 -0.275,-0.004 -0.4225,-0.004 -2.79125,0.74625 -4.53875,4.8725 -7.68,3.7475 -4.185,-1.50125 -6.27875,-7.12625 -4.8825,-12.0025 0.6975,-2.25125 2.79125,-4.8775 5.23375,-3.7475 1.8075,0.645 3.9575,2.53125 5.9925,3.095 1.50375,0.41125 2.9425,0.10125 4.12875,-1.97375 1.745,-3 0,-6.37625 0.91375,-9.23875" />
    <path
       inkscape:connector-curvature="0"
       id="path148-0"
       style="fill:none;stroke:#231f20;stroke-width:0.9375;stroke-linecap:butt;stroke-linejoin:miter;stroke-miterlimit:4;stroke-opacity:1;stroke-dasharray:none"
       d="m 383.019,502.04787 c -0.35125,8.71375 2.11125,16.6725 2.11125,25.38625 0,4.545 -0.70125,9.0925 -0.70125,13.64125 0.3525,6.0575 2.46875,11.365 2.46875,17.05125" />
    <path
       inkscape:connector-curvature="0"
       id="path152-9"
       style="fill:none;stroke:#231f20;stroke-width:0.9375;stroke-linecap:butt;stroke-linejoin:miter;stroke-miterlimit:4;stroke-opacity:1;stroke-dasharray:none"
       d="m 374.91225,513.4205 c 1.41,2.64875 1.7625,5.67875 1.7625,8.71" />
    <path
       inkscape:connector-curvature="0"
       id="path56-9-48"
       style="fill:#ff0000;fill-opacity:1;fill-rule:nonzero;stroke:#800000;stroke-width:1.25;stroke-linecap:butt;stroke-linejoin:miter;stroke-miterlimit:4;stroke-opacity:1;stroke-dasharray:none"
       d="m 376.38138,544.40165 0.15,0.53625 c -0.405,0.19125 -0.84125,0.465 -1.30875,0.82875 -1.0425,0.80625 -1.5525,2.34875 -2.19875,3.55625 -0.645,1.2075 -1.42,2.08125 -2.99375,1.56 -1.145,-0.3825 -1.975,-1.9875 -2.5375,-4.055 -0.2825,-1.035 -0.49875,-2.18625 -0.65125,-3.36 -0.15375,-1.00625 -0.35375,-2.21375 -0.495,-3.45625 -0.14125,-1.24 -0.22125,-2.5225 -0.12375,-3.68875 -0.34125,-1.7675 0.705,-3.27125 2.1025,-3.64625 3.425,-0.9225 4.985,3.18375 7.54375,4.29125 l -0.0312,0.0863 c 0,2.7225 1.36,4.62875 0.54375,7.3475" />
    <path
       inkscape:connector-curvature="0"
       id="path88-4-8"
       style="fill:#ff0000;stroke:#800000;stroke-width:0.9375;stroke-linecap:butt;stroke-linejoin:miter;stroke-miterlimit:4;stroke-opacity:1;stroke-dasharray:none"
       d="m 375.83763,537.0524 c 0,2.725 1.36,4.62875 0.54375,7.3475" />
    <text
       xml:space="preserve"
       style="font-size:40px;font-style:normal;font-weight:normal;line-height:125%;letter-spacing:0px;word-spacing:0px;fill:#000000;fill-opacity:1;stroke:none;font-family:Sans"
       x="314.8461"
       y="524.49121"
       id="text3155"
       sodipodi:linespacing="125%"><tspan
         sodipodi:role="line"
         id="tspan3157"
         x="314.8461"
         y="524.49121"
         style="font-size:18px">weak</tspan></text>
    <text
       xml:space="preserve"
       style="font-size:40px;font-style:normal;font-weight:normal;line-height:125%;letter-spacing:0px;word-spacing:0px;fill:#000000;fill-opacity:1;stroke:none;font-family:Sans"
       x="307.97305"
       y="546.19305"
       id="text3155-2"
       sodipodi:linespacing="125%"><tspan
         sodipodi:role="line"
         id="tspan3157-4"
         x="307.97305"
         y="546.19305"
         style="font-size:18px">strong</tspan></text>
  </g>
</svg>
