<?xml version="1.0" encoding="UTF-8" standalone="no"?>
<!-- Created with Inkscape (http://www.inkscape.org/) -->

<svg
   xmlns:dc="http://purl.org/dc/elements/1.1/"
   xmlns:cc="http://creativecommons.org/ns#"
   xmlns:rdf="http://www.w3.org/1999/02/22-rdf-syntax-ns#"
   xmlns:svg="http://www.w3.org/2000/svg"
   xmlns="http://www.w3.org/2000/svg"
   xmlns:sodipodi="http://sodipodi.sourceforge.net/DTD/sodipodi-0.dtd"
   xmlns:inkscape="http://www.inkscape.org/namespaces/inkscape"
   width="124.64507"
   height="170.28348"
   id="svg4509"
   version="1.1"
   inkscape:version="0.48.4 r9939"
   sodipodi:docname="VORdec.svg">
  <defs
     id="defs4511">
    <clipPath
       clipPathUnits="userSpaceOnUse"
       id="clipPath470">
      <path
         inkscape:connector-curvature="0"
         d="m 184.286,581.214 0.857,-11.519 11.143,0.731 -0.859,11.518 -11.141,-0.73 z"
         id="path472" />
    </clipPath>
    <clipPath
       clipPathUnits="userSpaceOnUse"
       id="clipPath476">
      <path
         inkscape:connector-curvature="0"
         d="M 0,0 612,0 612,792 0,792 0,0 z"
         id="path478" />
    </clipPath>
    <clipPath
       clipPathUnits="userSpaceOnUse"
       id="clipPath452">
      <path
         inkscape:connector-curvature="0"
         d="m 197.732,585.134 38.976,-16.501 13.646,32.229 -38.976,16.502 -13.646,-32.23 z"
         id="path454" />
    </clipPath>
    <clipPath
       clipPathUnits="userSpaceOnUse"
       id="clipPath458">
      <path
         inkscape:connector-curvature="0"
         d="M 0,0 612,0 612,792 0,792 0,0 z"
         id="path460" />
    </clipPath>
  </defs>
  <sodipodi:namedview
     id="base"
     pagecolor="#ffffff"
     bordercolor="#666666"
     borderopacity="1.0"
     inkscape:pageopacity="0.0"
     inkscape:pageshadow="2"
     inkscape:zoom="7.663691"
     inkscape:cx="62.322535"
     inkscape:cy="85.141737"
     inkscape:document-units="px"
     inkscape:current-layer="layer1"
     showgrid="false"
     inkscape:window-width="1264"
     inkscape:window-height="1522"
     inkscape:window-x="1280"
     inkscape:window-y="0"
     inkscape:window-maximized="0"
     fit-margin-top="0"
     fit-margin-left="0"
     fit-margin-right="0"
     fit-margin-bottom="0" />
  <metadata
     id="metadata4514">
    <rdf:RDF>
      <cc:Work
         rdf:about="">
        <dc:format>image/svg+xml</dc:format>
        <dc:type
           rdf:resource="http://purl.org/dc/dcmitype/StillImage" />
        <dc:title />
      </cc:Work>
    </rdf:RDF>
  </metadata>
  <g
     inkscape:label="Layer 1"
     inkscape:groupmode="layer"
     id="layer1"
     transform="translate(-311.96313,-450.07758)">
    <text
       style="font-size:15px"
       id="text32"
       x="311.97168"
       y="462.81805">
      <tspan
         style="font-size:17.5px;font-variant:normal;font-weight:bold;writing-mode:lr-tb;fill:#231f20;fill-opacity:1;fill-rule:nonzero;stroke:none;font-family:Arial;-inkscape-font-specification:Arial-BoldMT"
         x="311.97168 323.64429 337.25928 349.89429 354.75928 367.39429 377.12427 386.85425 393.66174 403.39172 413.1217 422.85181"
         y="462.81805"
         sodipodi:role="line"
         id="tspan34">VOR Decrease</tspan>
    </text>
    <text
       style="font-size:15px"
       id="text36"
       x="339.32422"
       y="483.81805">
      <tspan
         style="font-size:17.5px;font-variant:normal;font-weight:bold;writing-mode:lr-tb;fill:#231f20;fill-opacity:1;fill-rule:nonzero;stroke:none;font-family:Arial;-inkscape-font-specification:Arial-BoldMT"
         x="339.32422"
         y="483.81805"
         id="tspan38">T</tspan>
    </text>
    <text
       style="font-size:15px"
       id="text40"
       x="349.07178"
       y="483.81805">
      <tspan
         style="font-size:17.5px;font-variant:normal;font-weight:bold;writing-mode:lr-tb;fill:#231f20;fill-opacity:1;fill-rule:nonzero;stroke:none;font-family:Arial;-inkscape-font-specification:Arial-BoldMT"
         x="349.07178 355.87927 365.60925 370.47424 381.16675 386.03174 396.72424"
         y="483.81805"
         sodipodi:role="line"
         id="tspan42">raining</tspan>
    </text>
    <path
       d="m 359.4982,619.11106 75.86,0 0,-95.68125 -75.86,0 0,95.68125 z"
       style="fill:none;stroke:#ffffff;stroke-width:2.5;stroke-linecap:butt;stroke-linejoin:miter;stroke-miterlimit:4;stroke-opacity:1;stroke-dasharray:none"
       id="path402"
       inkscape:connector-curvature="0" />
    <path
       d="m 317.0245,611.21731 57.8987,0 0,-110.87 -57.8987,0 0,110.87 z"
       style="fill:none;stroke:#ffffff;stroke-width:2.5;stroke-linecap:butt;stroke-linejoin:miter;stroke-miterlimit:4;stroke-opacity:1;stroke-dasharray:none"
       id="path404"
       inkscape:connector-curvature="0" />
    <g
       id="g406"
       transform="matrix(1.25,0,0,-1.25,423.248,557.34381)">
      <path
         d="m 0,0 c 0,-21.499 -17.015,-38.928 -38.005,-38.928 -20.99,0 -38.006,17.429 -38.006,38.928 0,21.5 17.016,38.929 38.006,38.929 C -17.015,38.929 0,21.5 0,0 z"
         style="fill:none;stroke:#231f20;stroke-width:2;stroke-linecap:butt;stroke-linejoin:miter;stroke-miterlimit:4;stroke-opacity:1;stroke-dasharray:12, 12;stroke-dashoffset:0"
         id="path408"
         inkscape:connector-curvature="0" />
    </g>
    <path
       d="m 377.1792,556.26106 c 0,0.6525 -0.4812,1.18125 -1.0762,1.18125 -0.5938,0 -1.075,-0.52875 -1.075,-1.18125 0,-0.65125 0.4812,-1.18125 1.075,-1.18125 0.595,0 1.0762,0.53 1.0762,1.18125"
       style="fill:#231f20;fill-opacity:1;fill-rule:nonzero;stroke:none"
       id="path410"
       inkscape:connector-curvature="0" />
    <g
       id="g412"
       transform="matrix(1.25,0,0,-1.25,414.6634,530.03244)">
      <path
         d="M 0,0 -12.131,-20.838"
         style="fill:none;stroke:#231f20;stroke-width:1.5;stroke-linecap:butt;stroke-linejoin:miter;stroke-miterlimit:4;stroke-opacity:1;stroke-dasharray:1, 1;stroke-dashoffset:0"
         id="path414"
         inkscape:connector-curvature="0" />
    </g>
    <g
       id="g416"
       transform="matrix(1.25,0,0,-1.25,413.0331,529.64244)">
      <path
         d="M 0,0 -28.964,-5.131"
         style="fill:none;stroke:#231f20;stroke-width:1.5;stroke-linecap:butt;stroke-linejoin:miter;stroke-miterlimit:4;stroke-opacity:1;stroke-dasharray:1, 1;stroke-dashoffset:0"
         id="path418"
         inkscape:connector-curvature="0" />
    </g>
    <path
       d="m 376.1771,534.31469 c -2.3587,-3.21375 -7.4687,-3.30625 -11.4087,-0.20125 -3.9475,3.09125 -5.2575,8.19375 -2.9,11.405 2.3562,3.21375 7.4787,3.3025 11.4287,0.2075 3.9488,-3.0925 5.2363,-8.2025 2.88,-11.41125"
       style="fill:#7a7c7d;fill-opacity:1;fill-rule:evenodd;stroke:none"
       id="path420"
       inkscape:connector-curvature="0" />
    <path
       d="m 398.3469,564.51969 c -2.7913,-3.8175 -8.215,-4.39625 -12.12,-1.28 -3.9013,3.1175 -4.8075,8.73125 -2.0125,12.575 2.8025,3.8375 8.245,4.40875 12.1437,1.29125 3.9013,-3.11875 4.7925,-8.74625 1.9888,-12.58625"
       style="fill:#7a7c7d;fill-opacity:1;fill-rule:evenodd;stroke:none"
       id="path422"
       inkscape:connector-curvature="0" />
    <path
       d="m 353.5507,575.35831 c -3.7387,-1.96375 -7.6487,-4.22125 -10.4425,-8.23875 -2.9175,-4.1975 -2.0312,-9.33375 -0.9187,-13.26625 0.425,-1.5075 -1.6013,-2.98625 -2.0313,-1.46375 -1.1575,4.09125 -2.115,9.19125 0.1175,13.86375 2.87,6.00625 8.11,9.08625 12.9925,11.65 1.3725,0.71875 1.6425,-1.83375 0.2825,-2.545"
       style="fill:#7a7c7d;fill-opacity:1;fill-rule:nonzero;stroke:none"
       id="path424"
       inkscape:connector-curvature="0" />
    <path
       d="m 389.1531,547.83881 c -10.2212,-15.0875 -29.4712,-1.0875 -38.2212,7.6625 -8.75,10.5 1.75,28 13.9987,28 15.7513,-1.75 31.5013,-19.25 24.2225,-35.6625"
       style="fill:#7a7c7d;fill-opacity:1;fill-rule:evenodd;stroke:none"
       id="path426"
       inkscape:connector-curvature="0" />
    <path
       d="m 384.1397,539.84631 c -2.5937,5.69625 4.8763,14.33375 10.9188,13.53 3.7425,-2.425 4.8987,-8.36125 2.315,-11.86875 -2.5875,-3.51 -8.6288,-2.705 -13.2338,-1.66125"
       style="fill:#7a7c7d;fill-opacity:1;fill-rule:evenodd;stroke:none"
       id="path428"
       inkscape:connector-curvature="0" />
    <path
       d="m 390.8267,541.89456 c -2.7925,3.5725 -7.8225,4.30875 -11.23,1.64375 -3.4112,-2.6625 -3.91,-7.72 -1.12,-11.29125 2.79,-3.57375 7.8188,-4.30875 11.2263,-1.64625 3.4112,2.665 3.915,7.72 1.1237,11.29375"
       style="fill:#ffffff;fill-opacity:1;fill-rule:nonzero;stroke:none"
       id="path430"
       inkscape:connector-curvature="0" />
    <g
       id="g432"
       transform="matrix(1.25,0,0,-1.25,390.8267,541.89456)">
      <path
         d="m 0,0 c -2.234,-2.858 -6.258,-3.447 -8.984,-1.315 -2.729,2.13 -3.128,6.176 -0.896,9.033 2.232,2.859 6.255,3.447 8.981,1.317 C 1.83,6.903 2.233,2.859 0,0 z"
         style="fill:none;stroke:#110f0d;stroke-width:1.5;stroke-linecap:round;stroke-linejoin:round;stroke-miterlimit:10;stroke-opacity:1;stroke-dasharray:none"
         id="path434"
         inkscape:connector-curvature="0" />
    </g>
    <path
       d="m 391.4859,532.70519 c -0.9488,-1.93 -3.1688,-2.725 -4.955,-1.8125 -1.7838,0.92 -2.4588,3.1875 -1.4863,5.11 0.9338,1.90375 3.1563,2.70125 4.9388,1.78125 1.7875,-0.91375 2.4575,-3.18625 1.5025,-5.07875"
       style="fill:#110f0d;fill-opacity:1;fill-rule:evenodd;stroke:none"
       id="path436"
       inkscape:connector-curvature="0" />
    <path
       d="m 403.5245,561.38869 c -2.7913,3.575 -7.8188,4.30875 -11.23,1.64625 -3.4088,-2.665 -3.9125,-7.72125 -1.12,-11.295 2.7912,-3.5725 7.8175,-4.3075 11.2287,-1.64625 3.4113,2.66625 3.915,7.72125 1.1213,11.295"
       style="fill:#ffffff;fill-opacity:1;fill-rule:nonzero;stroke:none"
       id="path438"
       inkscape:connector-curvature="0" />
    <g
       id="g440"
       transform="matrix(1.25,0,0,-1.25,403.5245,561.38868)">
      <path
         d="m 0,0 c -2.233,-2.86 -6.255,-3.447 -8.984,-1.317 -2.727,2.132 -3.13,6.177 -0.896,9.036 2.233,2.858 6.254,3.446 8.983,1.317 C 1.832,6.903 2.235,2.859 0,0 z"
         style="fill:none;stroke:#110f0d;stroke-width:1.5;stroke-linecap:round;stroke-linejoin:round;stroke-miterlimit:10;stroke-opacity:1;stroke-dasharray:none"
         id="path442"
         inkscape:connector-curvature="0" />
    </g>
    <path
       d="m 404.1842,552.19981 c -0.9487,-1.93 -3.1687,-2.725 -4.955,-1.8125 -1.7837,0.91625 -2.4612,3.1875 -1.4887,5.10875 0.9375,1.905 3.1562,2.69875 4.9412,1.7825 1.7863,-0.91375 2.4613,-3.18875 1.5025,-5.07875"
       style="fill:#110f0d;fill-opacity:1;fill-rule:evenodd;stroke:none"
       id="path444"
       inkscape:connector-curvature="0" />
    <path
       d="m 424.8971,549.01869 5.3338,2.02375 5.1587,-2.4325 -4.7625,12.6375 -5.73,-12.22875 z"
       style="fill:#231f20;fill-opacity:1;fill-rule:nonzero;stroke:none"
       id="path446"
       inkscape:connector-curvature="0" />
    <g
       transform="matrix(1.25,0,0,-1.25,141.7795,1270.6361)"
       id="g448">
      <g
         id="g450"
         clip-path="url(#clipPath452)">
        <g
           id="g456"
           clip-path="url(#clipPath458)">
          <g
             id="g462"
             transform="translate(190.731,527.8188)">
            <path
               inkscape:connector-curvature="0"
               d="m 0,0 c -24.218,-2.015 -45.447,15.519 -47.416,39.164 -1.968,23.647 16.072,44.45 40.29,46.466 C 17.095,87.645 38.324,70.11 40.293,46.464 42.261,22.819 24.222,2.016 0,0 z"
               style="fill:none;stroke:#231f20;stroke-width:2;stroke-linecap:butt;stroke-linejoin:miter;stroke-miterlimit:4;stroke-opacity:1;stroke-dasharray:none"
               id="path464" />
          </g>
        </g>
      </g>
    </g>
    <g
       transform="matrix(1.25,0,0,-1.25,141.7795,1270.6361)"
       id="g466">
      <g
         id="g468"
         clip-path="url(#clipPath470)">
        <g
           id="g474"
           clip-path="url(#clipPath476)">
          <g
             id="g480"
             transform="translate(190.3711,564.5811)">
            <path
               inkscape:connector-curvature="0"
               d="m 0,0 c -3.43,-1.934 -7.76,-0.729 -9.674,2.69 -1.913,3.42 -0.683,7.759 2.745,9.692 3.43,1.934 7.762,0.729 9.675,-2.691 C 4.659,6.272 3.43,1.933 0,0 z"
               style="fill:none;stroke:#231f20;stroke-width:2;stroke-linecap:butt;stroke-linejoin:miter;stroke-miterlimit:4;stroke-opacity:1;stroke-dasharray:none"
               id="path482" />
          </g>
        </g>
      </g>
    </g>
    <path
       d="m 380.043,554.21644 3.73,1.42 3.6125,-1.6975 -3.3425,8.84125 -4,-8.56375 z"
       style="fill:#231f20;fill-opacity:1;fill-rule:nonzero;stroke:none"
       id="path492"
       inkscape:connector-curvature="0" />
  </g>
</svg>
