<?xml version="1.0" encoding="UTF-8" standalone="no"?>
<!-- Created with Inkscape (http://www.inkscape.org/) -->

<svg
   xmlns:dc="http://purl.org/dc/elements/1.1/"
   xmlns:cc="http://creativecommons.org/ns#"
   xmlns:rdf="http://www.w3.org/1999/02/22-rdf-syntax-ns#"
   xmlns:svg="http://www.w3.org/2000/svg"
   xmlns="http://www.w3.org/2000/svg"
   xmlns:sodipodi="http://sodipodi.sourceforge.net/DTD/sodipodi-0.dtd"
   xmlns:inkscape="http://www.inkscape.org/namespaces/inkscape"
   width="115.71253"
   height="155.28271"
   id="svg4809"
   version="1.1"
   inkscape:version="0.48.4 r9939"
   sodipodi:docname="VORinc.svg">
  <defs
     id="defs4811">
    <clipPath
       clipPathUnits="userSpaceOnUse"
       id="clipPath538">
      <path
         inkscape:connector-curvature="0"
         d="m 184.286,427.214 0.857,-11.519 11.143,0.731 -0.859,11.519 -11.141,-0.731 z"
         id="path540" />
    </clipPath>
    <clipPath
       clipPathUnits="userSpaceOnUse"
       id="clipPath544">
      <path
         inkscape:connector-curvature="0"
         d="M 0,0 612,0 612,792 0,792 0,0 z"
         id="path546" />
    </clipPath>
    <clipPath
       clipPathUnits="userSpaceOnUse"
       id="clipPath386">
      <path
         inkscape:connector-curvature="0"
         d="m 200.208,427.499 35,0 0,42.324 -35,0 0,-42.324 z"
         id="path388" />
    </clipPath>
  </defs>
  <sodipodi:namedview
     id="base"
     pagecolor="#ffffff"
     bordercolor="#666666"
     borderopacity="1.0"
     inkscape:pageopacity="0.0"
     inkscape:pageshadow="2"
     inkscape:zoom="8.4040262"
     inkscape:cx="57.856262"
     inkscape:cy="77.641357"
     inkscape:document-units="px"
     inkscape:current-layer="layer1"
     showgrid="false"
     inkscape:window-width="1264"
     inkscape:window-height="1522"
     inkscape:window-x="1280"
     inkscape:window-y="0"
     inkscape:window-maximized="0"
     fit-margin-top="0"
     fit-margin-left="0"
     fit-margin-right="0"
     fit-margin-bottom="0" />
  <metadata
     id="metadata4814">
    <rdf:RDF>
      <cc:Work
         rdf:about="">
        <dc:format>image/svg+xml</dc:format>
        <dc:type
           rdf:resource="http://purl.org/dc/dcmitype/StillImage" />
        <dc:title />
      </cc:Work>
    </rdf:RDF>
  </metadata>
  <g
     inkscape:label="Layer 1"
     inkscape:groupmode="layer"
     id="layer1"
     transform="translate(-317.14374,-454.72083)">
    <path
       d="m 385.91089,537.38254 c -2.59375,5.69625 4.87625,14.33375 10.91875,13.53 3.7425,-2.425 4.89875,-8.36125 2.315,-11.86875 -2.5875,-3.51 -8.62875,-2.705 -13.23375,-1.66125"
       style="fill:#7a7c7d;fill-opacity:1;fill-rule:evenodd;stroke:none"
       id="path22"
       inkscape:connector-curvature="0" />
    <text
       style="font-size:15px"
       id="text60"
       x="317.15228"
       y="467.4613">
      <tspan
         style="font-size:17.5px;font-variant:normal;font-weight:bold;writing-mode:lr-tb;fill:#231f20;fill-opacity:1;fill-rule:nonzero;stroke:none;font-family:Arial;-inkscape-font-specification:Arial-BoldMT"
         x="317.15228 328.82477 342.43976 355.07477 359.93976 364.80475 375.49725 385.22726 392.03476 401.76477 411.49478 421.22476"
         y="467.4613"
         sodipodi:role="line"
         id="tspan62">VOR Increase</tspan>
    </text>
    <text
       style="font-size:15px"
       id="text64"
       x="341.10977"
       y="488.4613">
      <tspan
         style="font-size:17.5px;font-variant:normal;font-weight:bold;writing-mode:lr-tb;fill:#231f20;fill-opacity:1;fill-rule:nonzero;stroke:none;font-family:Arial;-inkscape-font-specification:Arial-BoldMT"
         x="341.10977"
         y="488.4613"
         id="tspan66">T</tspan>
    </text>
    <text
       style="font-size:15px"
       id="text68"
       x="350.85727"
       y="488.4613">
      <tspan
         style="font-size:17.5px;font-variant:normal;font-weight:bold;writing-mode:lr-tb;fill:#231f20;fill-opacity:1;fill-rule:nonzero;stroke:none;font-family:Arial;-inkscape-font-specification:Arial-BoldMT"
         x="350.85727 357.66476 367.39478 372.25977 382.95227 387.81726 398.50977"
         y="488.4613"
         sodipodi:role="line"
         id="tspan70">raining</tspan>
    </text>
    <path
       d="m 397.25789,507.41479 -0.76375,-5.65125 3.53875,-4.475 -13.38625,1.77625 10.61125,8.35 z"
       style="fill:#008000;fill-opacity:1;fill-rule:nonzero;stroke:none"
       id="path380"
       inkscape:connector-curvature="0" />
    <g
       transform="matrix(1.25,0,0,-1.25,143.55064,1075.6723)"
       id="g382"
       style="stroke:#008000">
      <g
         id="g384"
         clip-path="url(#clipPath386)"
         style="stroke:#008000">
        <g
           id="g390"
           transform="translate(146.4761,430.168)"
           style="stroke:#008000">
          <path
             inkscape:connector-curvature="0"
             d="m 0,0 c -7.449,-23.132 4.822,-47.782 27.407,-55.055 22.586,-7.272 46.934,5.587 54.383,28.72 C 89.239,-3.201 76.968,21.448 54.382,28.722 31.797,35.994 7.449,23.135 0,0 z"
             style="fill:none;stroke:#008000;stroke-width:2;stroke-linecap:butt;stroke-linejoin:miter;stroke-miterlimit:4;stroke-opacity:1;stroke-dasharray:none"
             id="path392" />
        </g>
      </g>
    </g>
    <path
       d="m 318.79564,608.75354 57.89875,0 0,-110.87 -57.89875,0 0,110.87 z"
       style="fill:none;stroke:#ffffff;stroke-width:2.5;stroke-linecap:butt;stroke-linejoin:miter;stroke-miterlimit:4;stroke-opacity:1;stroke-dasharray:none"
       id="path494"
       inkscape:connector-curvature="0" />
    <path
       inkscape:connector-curvature="0"
       id="path498"
       style="fill:none;stroke:#231f20;stroke-width:2.5;stroke-linecap:butt;stroke-linejoin:miter;stroke-miterlimit:4;stroke-opacity:1;stroke-dasharray:15, 15;stroke-dashoffset:0"
       d="m 425.27189,554.42104 c 0,26.87375 -21.27,48.66 -47.50625,48.66 -26.2375,0 -47.50875,-21.78625 -47.50875,-48.66 0,-26.875 21.27125,-48.66125 47.50875,-48.66125 26.23625,0 47.50625,21.78625 47.50625,48.66125 z" />
    <path
       d="m 378.95039,553.79729 c 0,0.6525 -0.48125,1.18125 -1.07625,1.18125 -0.59375,0 -1.075,-0.52875 -1.075,-1.18125 0,-0.65125 0.48125,-1.18125 1.075,-1.18125 0.595,0 1.07625,0.53 1.07625,1.18125"
       style="fill:#231f20;fill-opacity:1;fill-rule:nonzero;stroke:none"
       id="path500"
       inkscape:connector-curvature="0" />
    <path
       inkscape:connector-curvature="0"
       id="path504"
       style="fill:none;stroke:#231f20;stroke-width:1.875;stroke-linecap:butt;stroke-linejoin:miter;stroke-miterlimit:4;stroke-opacity:1;stroke-dasharray:1.25, 1.25;stroke-dashoffset:0"
       d="m 389.01689,506.24241 11.4675,42.565" />
    <path
       inkscape:connector-curvature="0"
       id="path508"
       style="fill:none;stroke:#231f20;stroke-width:1.875;stroke-linecap:butt;stroke-linejoin:miter;stroke-miterlimit:4;stroke-opacity:1;stroke-dasharray:1.25, 1.25;stroke-dashoffset:0"
       d="m 388.66964,506.39129 -1.66625,24.305" />
    <path
       d="m 377.94827,531.85091 c -2.35875,-3.21375 -7.46875,-3.30625 -11.40875,-0.20125 -3.9475,3.09125 -5.2575,8.19375 -2.9,11.405 2.35625,3.21375 7.47875,3.3025 11.42875,0.2075 3.94875,-3.0925 5.23625,-8.2025 2.88,-11.41125"
       style="fill:#7a7c7d;fill-opacity:1;fill-rule:evenodd;stroke:none"
       id="path510"
       inkscape:connector-curvature="0" />
    <path
       d="m 400.11802,562.05592 c -2.79125,-3.8175 -8.215,-4.39625 -12.12,-1.28 -3.90125,3.1175 -4.8075,8.73125 -2.0125,12.575 2.8025,3.8375 8.245,4.40875 12.14375,1.29125 3.90125,-3.11875 4.7925,-8.74625 1.98875,-12.58625"
       style="fill:#7a7c7d;fill-opacity:1;fill-rule:evenodd;stroke:none"
       id="path512"
       inkscape:connector-curvature="0" />
    <path
       d="m 355.32189,572.89454 c -3.73875,-1.96375 -7.64875,-4.22125 -10.4425,-8.23875 -2.9175,-4.1975 -2.03125,-9.33375 -0.91875,-13.26625 0.425,-1.5075 -1.60125,-2.98625 -2.03125,-1.46375 -1.1575,4.09125 -2.115,9.19125 0.1175,13.86375 2.87,6.00625 8.11,9.08625 12.9925,11.65 1.3725,0.71875 1.6425,-1.83375 0.2825,-2.545"
       style="fill:#7a7c7d;fill-opacity:1;fill-rule:nonzero;stroke:none"
       id="path514"
       inkscape:connector-curvature="0" />
    <path
       d="m 390.92427,545.37504 c -10.22125,-15.0875 -29.47125,-1.0875 -38.22125,7.6625 -8.75,10.5 1.75,28 13.99875,28 15.75125,-1.75 31.50125,-19.25 24.2225,-35.6625"
       style="fill:#7a7c7d;fill-opacity:1;fill-rule:evenodd;stroke:none"
       id="path516"
       inkscape:connector-curvature="0" />
    <path
       d="m 394.21714,532.53754 c 0.4725,4.51125 -2.63375,8.53375 -6.93625,8.98375 -4.30375,0.45375 -8.17625,-2.8375 -8.64875,-7.34375 -0.47625,-4.50875 2.63,-8.53125 6.93,-8.98375 4.30625,-0.4525 8.18,2.835 8.655,7.34375"
       style="fill:#ffffff;fill-opacity:1;fill-rule:nonzero;stroke:none"
       id="path518"
       inkscape:connector-curvature="0" />
    <path
       inkscape:connector-curvature="0"
       id="path522"
       style="fill:none;stroke:#110f0d;stroke-width:1.875;stroke-linecap:round;stroke-linejoin:round;stroke-miterlimit:10;stroke-opacity:1;stroke-dasharray:none"
       d="m 394.21714,532.53754 c 0.4725,4.51125 -2.63375,8.53375 -6.93625,8.98375 -4.30375,0.45375 -8.17625,-2.8375 -8.64875,-7.34375 -0.47625,-4.50875 2.63,-8.53125 6.93,-8.98375 4.30625,-0.4525 8.18,2.835 8.655,7.34375 z" />
    <path
       d="m 388.30714,525.46966 c -2.02375,-0.72875 -4.1725,0.24 -4.82375,2.1375 -0.64375,1.90125 0.44625,4.0025 2.48125,4.70875 1.99375,0.72125 4.14625,-0.24875 4.79,-2.14875 0.65125,-1.9 -0.44625,-4 -2.4475,-4.6975"
       style="fill:#110f0d;fill-opacity:1;fill-rule:evenodd;stroke:none"
       id="path524"
       inkscape:connector-curvature="0" />
    <path
       d="m 406.91302,553.27966 c 0.475,4.51126 -2.63125,8.53376 -6.93375,8.98626 -4.30375,0.4525 -8.17875,-2.83625 -8.6525,-7.34625 -0.47375,-4.50876 2.63,-8.52876 6.93375,-8.98501 4.305,-0.45125 8.18,2.835 8.6525,7.345"
       style="fill:#ffffff;fill-opacity:1;fill-rule:nonzero;stroke:none"
       id="path526"
       inkscape:connector-curvature="0" />
    <path
       inkscape:connector-curvature="0"
       id="path530"
       style="fill:none;stroke:#110f0d;stroke-width:1.875;stroke-linecap:round;stroke-linejoin:round;stroke-miterlimit:10;stroke-opacity:1;stroke-dasharray:none"
       d="m 406.91302,553.27966 c 0.475,4.51126 -2.63125,8.53376 -6.93375,8.98626 -4.30375,0.4525 -8.17875,-2.83625 -8.6525,-7.34625 -0.47375,-4.50876 2.63,-8.52876 6.93375,-8.98501 4.305,-0.45125 8.18,2.835 8.6525,7.345 z" />
    <path
       d="m 401.00427,546.21366 c -2.0225,-0.72875 -4.1725,0.24 -4.82375,2.1375 -0.64625,1.89875 0.445,4.0025 2.4775,4.71 1.99875,0.71875 4.14625,-0.2525 4.79375,-2.15 0.65,-1.89875 -0.44375,-4.005 -2.4475,-4.6975"
       style="fill:#110f0d;fill-opacity:1;fill-rule:evenodd;stroke:none"
       id="path532"
       inkscape:connector-curvature="0" />
    <g
       transform="matrix(1.25,0,0,-1.25,143.55064,1075.6723)"
       id="g534">
      <g
         id="g536"
         clip-path="url(#clipPath538)">
        <g
           id="g542"
           clip-path="url(#clipPath544)">
          <g
             id="g548"
             transform="translate(190.3711,410.5811)">
            <path
               inkscape:connector-curvature="0"
               d="m 0,0 c -3.43,-1.934 -7.76,-0.729 -9.674,2.69 -1.913,3.42 -0.683,7.759 2.745,9.692 3.43,1.934 7.762,0.729 9.675,-2.691 C 4.659,6.272 3.43,1.933 0,0 z"
               style="fill:none;stroke:#231f20;stroke-width:2;stroke-linecap:butt;stroke-linejoin:miter;stroke-miterlimit:4;stroke-opacity:1;stroke-dasharray:none"
               id="path550" />
          </g>
        </g>
      </g>
    </g>
    <path
       d="m 381.81414,551.75266 3.73,1.42 3.6125,-1.6975 -3.3425,8.84126 -4,-8.56376 z"
       style="fill:#231f20;fill-opacity:1;fill-rule:nonzero;stroke:none"
       id="path560"
       inkscape:connector-curvature="0" />
  </g>
</svg>
