<?xml version="1.0" encoding="UTF-8" standalone="no"?>
<!-- Created with Inkscape (http://www.inkscape.org/) -->

<svg
   xmlns:dc="http://purl.org/dc/elements/1.1/"
   xmlns:cc="http://creativecommons.org/ns#"
   xmlns:rdf="http://www.w3.org/1999/02/22-rdf-syntax-ns#"
   xmlns:svg="http://www.w3.org/2000/svg"
   xmlns="http://www.w3.org/2000/svg"
   xmlns:sodipodi="http://sodipodi.sourceforge.net/DTD/sodipodi-0.dtd"
   xmlns:inkscape="http://www.inkscape.org/namespaces/inkscape"
   width="146.54138"
   height="146.54138"
   id="svg2"
   version="1.1"
   inkscape:version="0.91 r13725"
   sodipodi:docname="binary_bar_ko_wo_s.svg">
  <sodipodi:namedview
     id="base"
     pagecolor="#ffffff"
     bordercolor="#666666"
     borderopacity="1.0"
     inkscape:pageopacity="0.0"
     inkscape:pageshadow="2"
     inkscape:zoom="4.7290396"
     inkscape:cx="73.270691"
     inkscape:cy="73.270691"
     inkscape:document-units="px"
     inkscape:current-layer="g3092"
     showgrid="true"
     inkscape:snap-global="false"
     showguides="true"
     inkscape:guide-bbox="true"
     inkscape:window-width="1264"
     inkscape:window-height="862"
     inkscape:window-x="234"
     inkscape:window-y="21"
     inkscape:window-maximized="0"
     fit-margin-top="0"
     fit-margin-left="0"
     fit-margin-right="0"
     fit-margin-bottom="0">
    <inkscape:grid
       type="xygrid"
       id="grid2985"
       empspacing="5"
       visible="true"
       enabled="true"
       snapvisiblegridlinesonly="true"
       originx="-164.55269px"
       originy="-590.14976px" />
    <sodipodi:guide
       orientation="1,0"
       position="216.20153,-45.313595"
       id="guide3093" />
  </sodipodi:namedview>
  <defs
     id="defs4">
    <marker
       inkscape:stockid="Arrow2Send"
       orient="auto"
       refY="0"
       refX="0"
       id="Arrow2Send"
       style="overflow:visible">
      <path
         inkscape:connector-curvature="0"
         id="path4544"
         style="font-size:12px;fill-rule:evenodd;stroke-width:0.625;stroke-linejoin:round"
         d="M 8.7185878,4.0337352 -2.2072895,0.01601326 8.7185884,-4.0017078 c -1.7454984,2.3720609 -1.7354408,5.6174519 -6e-7,8.035443 z"
         transform="matrix(-0.3,0,0,-0.3,0.69,0)" />
    </marker>
    <marker
       inkscape:stockid="Arrow2Sstart"
       orient="auto"
       refY="0"
       refX="0"
       id="Arrow2Sstart"
       style="overflow:visible">
      <path
         inkscape:connector-curvature="0"
         id="path4541"
         style="font-size:12px;fill-rule:evenodd;stroke-width:0.625;stroke-linejoin:round"
         d="M 8.7185878,4.0337352 -2.2072895,0.01601326 8.7185884,-4.0017078 c -1.7454984,2.3720609 -1.7354408,5.6174519 -6e-7,8.035443 z"
         transform="matrix(0.3,0,0,0.3,-0.69,0)" />
    </marker>
    <marker
       inkscape:stockid="Arrow2Send"
       orient="auto"
       refY="0"
       refX="0"
       id="Arrow2Send-4"
       style="overflow:visible">
      <path
         inkscape:connector-curvature="0"
         id="path4544-5"
         style="font-size:12px;fill-rule:evenodd;stroke-width:0.625;stroke-linejoin:round"
         d="M 8.7185878,4.0337352 -2.2072895,0.01601326 8.7185884,-4.0017078 c -1.7454984,2.3720609 -1.7354408,5.6174519 -6e-7,8.035443 z"
         transform="matrix(-0.3,0,0,-0.3,0.69,0)" />
    </marker>
    <marker
       inkscape:stockid="Arrow2Send"
       orient="auto"
       refY="0"
       refX="0"
       id="Arrow2Send-3"
       style="overflow:visible">
      <path
         inkscape:connector-curvature="0"
         id="path4544-52"
         style="font-size:12px;fill-rule:evenodd;stroke-width:0.625;stroke-linejoin:round"
         d="M 8.7185878,4.0337352 -2.2072895,0.01601326 8.7185884,-4.0017078 c -1.7454984,2.3720609 -1.7354408,5.6174519 -6e-7,8.035443 z"
         transform="matrix(-0.3,0,0,-0.3,0.69,0)" />
    </marker>
    <marker
       inkscape:stockid="Arrow2Send"
       orient="auto"
       refY="0"
       refX="0"
       id="Arrow2Send-9"
       style="overflow:visible">
      <path
         inkscape:connector-curvature="0"
         id="path4544-4"
         style="font-size:12px;fill-rule:evenodd;stroke-width:0.625;stroke-linejoin:round"
         d="M 8.7185878,4.0337352 -2.2072895,0.01601326 8.7185884,-4.0017078 c -1.7454984,2.3720609 -1.7354408,5.6174519 -6e-7,8.035443 z"
         transform="matrix(-0.3,0,0,-0.3,0.69,0)" />
    </marker>
    <marker
       inkscape:stockid="Arrow2Send"
       orient="auto"
       refY="0"
       refX="0"
       id="Arrow2Send-0"
       style="overflow:visible">
      <path
         inkscape:connector-curvature="0"
         id="path4544-59"
         style="font-size:12px;fill-rule:evenodd;stroke-width:0.625;stroke-linejoin:round"
         d="M 8.7185878,4.0337352 -2.2072895,0.01601326 8.7185884,-4.0017078 c -1.7454984,2.3720609 -1.7354408,5.6174519 -6e-7,8.035443 z"
         transform="matrix(-0.3,0,0,-0.3,0.69,0)" />
    </marker>
    <marker
       inkscape:stockid="Arrow2Send"
       orient="auto"
       refY="0"
       refX="0"
       id="Arrow2Send-6"
       style="overflow:visible">
      <path
         inkscape:connector-curvature="0"
         id="path4544-594"
         style="font-size:12px;fill-rule:evenodd;stroke-width:0.625;stroke-linejoin:round"
         d="M 8.7185878,4.0337352 -2.2072895,0.01601326 8.7185884,-4.0017078 c -1.7454984,2.3720609 -1.7354408,5.6174519 -6e-7,8.035443 z"
         transform="matrix(-0.3,0,0,-0.3,0.69,0)" />
    </marker>
    <marker
       inkscape:stockid="Arrow2Send"
       orient="auto"
       refY="0"
       refX="0"
       id="Arrow2Send-43"
       style="overflow:visible">
      <path
         inkscape:connector-curvature="0"
         id="path4544-54"
         style="font-size:12px;fill-rule:evenodd;stroke-width:0.625;stroke-linejoin:round"
         d="M 8.7185878,4.0337352 -2.2072895,0.01601326 8.7185884,-4.0017078 c -1.7454984,2.3720609 -1.7354408,5.6174519 -6e-7,8.035443 z"
         transform="matrix(-0.3,0,0,-0.3,0.69,0)" />
    </marker>
    <marker
       inkscape:stockid="Arrow2Send"
       orient="auto"
       refY="0"
       refX="0"
       id="Arrow2Send-41"
       style="overflow:visible">
      <path
         inkscape:connector-curvature="0"
         id="path4544-6"
         style="font-size:12px;fill-rule:evenodd;stroke-width:0.625;stroke-linejoin:round"
         d="M 8.7185878,4.0337352 -2.2072895,0.01601326 8.7185884,-4.0017078 c -1.7454984,2.3720609 -1.7354408,5.6174519 -6e-7,8.035443 z"
         transform="matrix(-0.3,0,0,-0.3,0.69,0)" />
    </marker>
    <marker
       inkscape:stockid="Arrow2Send"
       orient="auto"
       refY="0"
       refX="0"
       id="Arrow2Send-1"
       style="overflow:visible">
      <path
         inkscape:connector-curvature="0"
         id="path4544-58"
         style="font-size:12px;fill-rule:evenodd;stroke-width:0.625;stroke-linejoin:round"
         d="M 8.7185878,4.0337352 -2.2072895,0.01601326 8.7185884,-4.0017078 c -1.7454984,2.3720609 -1.7354408,5.6174519 -6e-7,8.035443 z"
         transform="matrix(-0.3,0,0,-0.3,0.69,0)" />
    </marker>
    <marker
       inkscape:stockid="Arrow2Send"
       orient="auto"
       refY="0"
       refX="0"
       id="Arrow2Send-01"
       style="overflow:visible">
      <path
         inkscape:connector-curvature="0"
         id="path4544-40"
         style="font-size:12px;fill-rule:evenodd;stroke-width:0.625;stroke-linejoin:round"
         d="M 8.7185878,4.0337352 -2.2072895,0.01601326 8.7185884,-4.0017078 c -1.7454984,2.3720609 -1.7354408,5.6174519 -6e-7,8.035443 z"
         transform="matrix(-0.3,0,0,-0.3,0.69,0)" />
    </marker>
    <marker
       inkscape:stockid="Arrow2Send"
       orient="auto"
       refY="0"
       refX="0"
       id="Arrow2Send-91"
       style="overflow:visible">
      <path
         inkscape:connector-curvature="0"
         id="path4544-7"
         style="font-size:12px;fill-rule:evenodd;stroke-width:0.625;stroke-linejoin:round"
         d="M 8.7185878,4.0337352 -2.2072895,0.01601326 8.7185884,-4.0017078 c -1.7454984,2.3720609 -1.7354408,5.6174519 -6e-7,8.035443 z"
         transform="matrix(-0.3,0,0,-0.3,0.69,0)" />
    </marker>
    <marker
       inkscape:stockid="Arrow2Send"
       orient="auto"
       refY="0"
       refX="0"
       id="Arrow2Send-96"
       style="overflow:visible">
      <path
         inkscape:connector-curvature="0"
         id="path4544-8"
         style="font-size:12px;fill-rule:evenodd;stroke-width:0.625;stroke-linejoin:round"
         d="M 8.7185878,4.0337352 -2.2072895,0.01601326 8.7185884,-4.0017078 c -1.7454984,2.3720609 -1.7354408,5.6174519 -6e-7,8.035443 z"
         transform="matrix(-0.3,0,0,-0.3,0.69,0)" />
    </marker>
    <marker
       inkscape:stockid="Arrow2Send"
       orient="auto"
       refY="0"
       refX="0"
       id="Arrow2Send-30"
       style="overflow:visible">
      <path
         inkscape:connector-curvature="0"
         id="path4544-2"
         style="font-size:12px;fill-rule:evenodd;stroke-width:0.625;stroke-linejoin:round"
         d="M 8.7185878,4.0337352 -2.2072895,0.01601326 8.7185884,-4.0017078 c -1.7454984,2.3720609 -1.7354408,5.6174519 -6e-7,8.035443 z"
         transform="matrix(-0.3,0,0,-0.3,0.69,0)" />
    </marker>
    <marker
       inkscape:stockid="Arrow2Send"
       orient="auto"
       refY="0"
       refX="0"
       id="Arrow2Send-92"
       style="overflow:visible">
      <path
         inkscape:connector-curvature="0"
         id="path4544-24"
         style="font-size:12px;fill-rule:evenodd;stroke-width:0.625;stroke-linejoin:round"
         d="M 8.7185878,4.0337352 -2.2072895,0.01601326 8.7185884,-4.0017078 c -1.7454984,2.3720609 -1.7354408,5.6174519 -6e-7,8.035443 z"
         transform="matrix(-0.3,0,0,-0.3,0.69,0)" />
    </marker>
    <marker
       inkscape:stockid="Arrow2Send"
       orient="auto"
       refY="0"
       refX="0"
       id="Arrow2Send-8"
       style="overflow:visible">
      <path
         inkscape:connector-curvature="0"
         id="path4544-72"
         style="font-size:12px;fill-rule:evenodd;stroke-width:0.625;stroke-linejoin:round"
         d="M 8.7185878,4.0337352 -2.2072895,0.01601326 8.7185884,-4.0017078 c -1.7454984,2.3720609 -1.7354408,5.6174519 -6e-7,8.035443 z"
         transform="matrix(-0.3,0,0,-0.3,0.69,0)" />
    </marker>
    <marker
       inkscape:stockid="Arrow2Send"
       orient="auto"
       refY="0"
       refX="0"
       id="Arrow2Send-34"
       style="overflow:visible">
      <path
         inkscape:connector-curvature="0"
         id="path4544-3"
         style="font-size:12px;fill-rule:evenodd;stroke-width:0.625;stroke-linejoin:round"
         d="M 8.7185878,4.0337352 -2.2072895,0.01601326 8.7185884,-4.0017078 c -1.7454984,2.3720609 -1.7354408,5.6174519 -6e-7,8.035443 z"
         transform="matrix(-0.3,0,0,-0.3,0.69,0)" />
    </marker>
    <marker
       inkscape:stockid="Arrow2Send"
       orient="auto"
       refY="0"
       refX="0"
       id="Arrow2Send-32"
       style="overflow:visible">
      <path
         inkscape:connector-curvature="0"
         id="path4544-76"
         style="font-size:12px;fill-rule:evenodd;stroke-width:0.625;stroke-linejoin:round"
         d="M 8.7185878,4.0337352 -2.2072895,0.01601326 8.7185884,-4.0017078 c -1.7454984,2.3720609 -1.7354408,5.6174519 -6e-7,8.035443 z"
         transform="matrix(-0.3,0,0,-0.3,0.69,0)" />
    </marker>
    <marker
       inkscape:stockid="Arrow2Send"
       orient="auto"
       refY="0"
       refX="0"
       id="Arrow2Send-36"
       style="overflow:visible">
      <path
         inkscape:connector-curvature="0"
         id="path4544-9"
         style="font-size:12px;fill-rule:evenodd;stroke-width:0.625;stroke-linejoin:round"
         d="M 8.7185878,4.0337352 -2.2072895,0.01601326 8.7185884,-4.0017078 c -1.7454984,2.3720609 -1.7354408,5.6174519 -6e-7,8.035443 z"
         transform="matrix(-0.3,0,0,-0.3,0.69,0)" />
    </marker>
    <marker
       inkscape:stockid="Arrow2Send"
       orient="auto"
       refY="0"
       refX="0"
       id="Arrow2Send-33"
       style="overflow:visible">
      <path
         inkscape:connector-curvature="0"
         id="path4544-0"
         style="font-size:12px;fill-rule:evenodd;stroke-width:0.625;stroke-linejoin:round"
         d="M 8.7185878,4.0337352 -2.2072895,0.01601326 8.7185884,-4.0017078 c -1.7454984,2.3720609 -1.7354408,5.6174519 -6e-7,8.035443 z"
         transform="matrix(-0.3,0,0,-0.3,0.69,0)" />
    </marker>
    <marker
       inkscape:stockid="Arrow2Sendu"
       orient="auto"
       refY="0"
       refX="0"
       id="Arrow2Sendu"
       style="overflow:visible">
      <path
         inkscape:connector-curvature="0"
         id="path3966"
         style="font-size:12px;fill:#800000;fill-rule:evenodd;stroke:#800000;stroke-width:0.625;stroke-linejoin:round"
         d="M 8.7185878,4.0337352 -2.2072895,0.01601326 8.7185884,-4.0017078 c -1.7454984,2.3720609 -1.7354408,5.6174519 -6e-7,8.035443 z"
         transform="matrix(-0.3,0,0,-0.3,0.69,0)" />
    </marker>
    <marker
       inkscape:stockid="Arrow2SenduU"
       orient="auto"
       refY="0"
       refX="0"
       id="Arrow2SenduU"
       style="overflow:visible">
      <path
         inkscape:connector-curvature="0"
         id="path4080"
         style="font-size:12px;fill:#0000aa;fill-rule:evenodd;stroke:#0000aa;stroke-width:0.625;stroke-linejoin:round"
         d="M 8.7185878,4.0337352 -2.2072895,0.01601326 8.7185884,-4.0017078 c -1.7454984,2.3720609 -1.7354408,5.6174519 -6e-7,8.035443 z"
         transform="matrix(-0.3,0,0,-0.3,0.69,0)" />
    </marker>
    <marker
       inkscape:stockid="Arrow2SenduU0"
       orient="auto"
       refY="0"
       refX="0"
       id="Arrow2SenduU0"
       style="overflow:visible">
      <path
         inkscape:connector-curvature="0"
         id="path4195"
         style="font-size:12px;fill:#003380;fill-rule:evenodd;stroke:#003380;stroke-width:0.625;stroke-linejoin:round"
         d="M 8.7185878,4.0337352 -2.2072895,0.01601326 8.7185884,-4.0017078 c -1.7454984,2.3720609 -1.7354408,5.6174519 -6e-7,8.035443 z"
         transform="matrix(-0.3,0,0,-0.3,0.69,0)" />
    </marker>
    <marker
       inkscape:stockid="Arrow2SenduM"
       orient="auto"
       refY="0"
       refX="0"
       id="Arrow2SenduM"
       style="overflow:visible">
      <path
         inkscape:connector-curvature="0"
         id="path4314"
         style="font-size:12px;fill:#aa0000;fill-rule:evenodd;stroke:#aa0000;stroke-width:0.625;stroke-linejoin:round"
         d="M 8.7185878,4.0337352 -2.2072895,0.01601326 8.7185884,-4.0017078 c -1.7454984,2.3720609 -1.7354408,5.6174519 -6e-7,8.035443 z"
         transform="matrix(-0.3,0,0,-0.3,0.69,0)" />
    </marker>
    <marker
       inkscape:stockid="Arrow2Send-33Jk"
       orient="auto"
       refY="0"
       refX="0"
       id="Arrow2Send-33Jk"
       style="overflow:visible">
      <path
         inkscape:connector-curvature="0"
         id="path5285"
         style="font-size:12px;fill:#008000;fill-rule:evenodd;stroke:#008000;stroke-width:0.625;stroke-linejoin:round"
         d="M 8.7185878,4.0337352 -2.2072895,0.01601326 8.7185884,-4.0017078 c -1.7454984,2.3720609 -1.7354408,5.6174519 -6e-7,8.035443 z"
         transform="matrix(-0.3,0,0,-0.3,0.69,0)" />
    </marker>
    <marker
       inkscape:stockid="Arrow2Send-33V0"
       orient="auto"
       refY="0"
       refX="0"
       id="Arrow2Send-33V0"
       style="overflow:visible">
      <path
         inkscape:connector-curvature="0"
         id="path5294"
         style="font-size:12px;fill:#008000;fill-rule:evenodd;stroke:#008000;stroke-width:0.625;stroke-linejoin:round"
         d="M 8.7185878,4.0337352 -2.2072895,0.01601326 8.7185884,-4.0017078 c -1.7454984,2.3720609 -1.7354408,5.6174519 -6e-7,8.035443 z"
         transform="matrix(-0.3,0,0,-0.3,0.69,0)" />
    </marker>
    <marker
       inkscape:stockid="Arrow2Send-33d2"
       orient="auto"
       refY="0"
       refX="0"
       id="Arrow2Send-33d2"
       style="overflow:visible">
      <path
         inkscape:connector-curvature="0"
         id="path5288"
         style="font-size:12px;fill:#008000;fill-rule:evenodd;stroke:#008000;stroke-width:0.625;stroke-linejoin:round"
         d="M 8.7185878,4.0337352 -2.2072895,0.01601326 8.7185884,-4.0017078 c -1.7454984,2.3720609 -1.7354408,5.6174519 -6e-7,8.035443 z"
         transform="matrix(-0.3,0,0,-0.3,0.69,0)" />
    </marker>
    <marker
       inkscape:stockid="Arrow2Send-337r"
       orient="auto"
       refY="0"
       refX="0"
       id="Arrow2Send-337r"
       style="overflow:visible">
      <path
         inkscape:connector-curvature="0"
         id="path5291"
         style="font-size:12px;fill:#008000;fill-rule:evenodd;stroke:#008000;stroke-width:0.625;stroke-linejoin:round"
         d="M 8.7185878,4.0337352 -2.2072895,0.01601326 8.7185884,-4.0017078 c -1.7454984,2.3720609 -1.7354408,5.6174519 -6e-7,8.035443 z"
         transform="matrix(-0.3,0,0,-0.3,0.69,0)" />
    </marker>
    <marker
       inkscape:stockid="Arrow1Mend"
       orient="auto"
       refY="0"
       refX="0"
       id="Arrow1Mend"
       style="overflow:visible">
      <path
         id="path4020"
         d="M 0,0 5,-5 -12.5,0 5,5 0,0 z"
         style="fill-rule:evenodd;stroke:#000000;stroke-width:1pt"
         transform="matrix(-0.4,0,0,-0.4,-4,0)"
         inkscape:connector-curvature="0" />
    </marker>
  </defs>
  <metadata
     id="metadata7">
    <rdf:RDF>
      <cc:Work
         rdf:about="">
        <dc:format>image/svg+xml</dc:format>
        <dc:type
           rdf:resource="http://purl.org/dc/dcmitype/StillImage" />
        <dc:title />
      </cc:Work>
    </rdf:RDF>
  </metadata>
  <g
     inkscape:label="Layer 1"
     inkscape:groupmode="layer"
     id="layer1"
     transform="translate(-164.55269,-315.67108)">
    <text
       xml:space="preserve"
       style="font-size:16px;font-style:normal;font-weight:normal;line-height:125%;letter-spacing:0px;word-spacing:0px;fill:#000000;fill-opacity:1;stroke:none;font-family:Sans"
       x="182.41573"
       y="386.91949"
       id="text3119"
       sodipodi:linespacing="125%"><tspan
         sodipodi:role="line"
         id="tspan3121"
         x="182.41573"
         y="386.91949" /></text>
    <g
       id="g3108"
       transform="translate(-1.1660881,0)">
      <g
         transform="translate(-0.62114716,0)"
         id="g3092">
        <path
           inkscape:connector-curvature="0"
           id="path130"
           style="fill:none;stroke:#000000;stroke-width:0.125;stroke-linecap:butt;stroke-linejoin:round;stroke-miterlimit:10;stroke-opacity:1;stroke-dasharray:none"
           d="m 208.47806,375.32132 1.1041,0" />
        <path
           inkscape:connector-curvature="0"
           id="path156"
           style="fill:none;stroke:#000000;stroke-width:0.125;stroke-linecap:butt;stroke-linejoin:round;stroke-miterlimit:10;stroke-opacity:1;stroke-dasharray:none"
           d="m 208.47806,419.34207 0,-88.02075" />
        <path
           transform="matrix(-1,0,0,1,439.25077,94.325506)"
           sodipodi:type="arc"
           style="fill:#d40000;stroke:#000000;stroke-width:1;stroke-linecap:round;stroke-linejoin:round;stroke-miterlimit:4;stroke-dasharray:none;stroke-dashoffset:0"
           id="path2994-3-2-9"
           sodipodi:cx="185"
           sodipodi:cy="347.36218"
           sodipodi:rx="5"
           sodipodi:ry="5"
           d="m 190,347.36218 a 5,5 0 0 1 -5,5 5,5 0 0 1 -5,-5 5,5 0 0 1 5,-5 5,5 0 0 1 5,5 z" />
        <path
           transform="matrix(-1,0,0,1,413.79622,94.325506)"
           sodipodi:type="arc"
           style="fill:#0000ff;stroke:#000000;stroke-width:1;stroke-linecap:round;stroke-linejoin:round;stroke-miterlimit:4;stroke-dasharray:none;stroke-dashoffset:0"
           id="path2994-5"
           sodipodi:cx="185"
           sodipodi:cy="347.36218"
           sodipodi:rx="5"
           sodipodi:ry="5"
           d="m 190,347.36218 a 5,5 0 0 1 -5,5 5,5 0 0 1 -5,-5 5,5 0 0 1 5,-5 5,5 0 0 1 5,5 z" />
        <path
           style="fill:none;stroke:#003380;stroke-width:3.70000005;stroke-linecap:butt;stroke-linejoin:miter;stroke-miterlimit:4;stroke-opacity:1;stroke-dasharray:none;stroke-dashoffset:0;marker-end:url(#Arrow2SenduU0)"
           d="m 251.39321,445.20035 c -7.6964,18.27925 -14.01322,19.05124 -20.35587,3.27951"
           id="path5894-5-1-9"
           inkscape:connector-curvature="0"
           sodipodi:nodetypes="cc" />
        <path
           style="fill:none;stroke:#aa0000;stroke-width:2;stroke-linecap:butt;stroke-linejoin:miter;stroke-miterlimit:4;stroke-opacity:1;stroke-dasharray:none;marker-end:url(#Arrow2SenduM)"
           d="m 230.84341,436.45738 c 7.6964,-18.27925 13.54207,-17.95189 19.88472,-2.18016"
           id="path5894-5-8"
           inkscape:connector-curvature="0"
           sodipodi:nodetypes="cc" />
        <path
           d="m 226.59897,419.40457 6.2083,0 0,-58.6875 -6.2083,0 0,58.6875 z"
           style="fill:#0000ff;fill-opacity:1;fill-rule:evenodd;stroke:none"
           id="path174"
           inkscape:connector-curvature="0" />
        <path
           d="m 252.05347,419.40457 6.2084,0 0,-29.35425 -6.2084,0 0,29.35425 z"
           style="fill:#d40000;fill-opacity:1;fill-rule:evenodd;stroke:none"
           id="path178"
           inkscape:connector-curvature="0" />
        <text
           xml:space="preserve"
           style="font-style:normal;font-weight:normal;font-size:20px;line-height:125%;font-family:Sans;text-align:center;letter-spacing:0px;word-spacing:0px;text-anchor:middle;fill:#000000;fill-opacity:1;stroke:none"
           x="252.99521"
           y="339.82434"
           id="text2993-8"
           sodipodi:linespacing="125%"><tspan
             sodipodi:role="line"
             id="tspan2995-2"
             x="252.99521"
             y="339.82434"
             style="font-weight:normal;font-size:10px;-inkscape-font-specification:Sans">Enh.Plas.</tspan><tspan
             sodipodi:role="line"
             x="252.99521"
             y="352.32434"
             id="tspan2997-4"
             style="font-weight:normal;font-size:10px;-inkscape-font-specification:Sans">w/o rev-training</tspan></text>
        <rect
           style="fill:none;stroke:#c0504d;stroke-width:1.5;stroke-miterlimit:4;stroke-dasharray:none;stroke-opacity:1"
           id="rect3057"
           width="84.016487"
           height="26.277893"
           x="211.14812"
           y="330.19318" />
        <text
           xml:space="preserve"
           style="font-size:40px;font-style:normal;font-weight:normal;line-height:125%;letter-spacing:0px;word-spacing:0px;fill:#000000;fill-opacity:1;stroke:none;font-family:Sans"
           x="-420.25977"
           y="203.88469"
           id="text3123"
           sodipodi:linespacing="125%"
           transform="matrix(0,-1,1,0,0,0)"><tspan
             sodipodi:role="line"
             id="tspan3125"
             x="-420.25977"
             y="203.88469"
             style="font-size:12px"># synapses</tspan></text>
      </g>
      <text
         sodipodi:linespacing="125%"
         id="text3123-1"
         y="324.96893"
         x="194.12717"
         style="font-size:40px;font-style:normal;font-weight:normal;line-height:125%;letter-spacing:0px;word-spacing:0px;fill:#000000;fill-opacity:1;stroke:none;font-family:Sans"
         xml:space="preserve"><tspan
           style="font-size:12px"
           y="324.96893"
           x="194.12717"
           id="tspan3125-7"
           sodipodi:role="line">Initial distribution</tspan></text>
    </g>
    <rect
       style="fill:none;stroke:none"
       id="rect3066"
       width="146.54138"
       height="146.54138"
       x="164.55269"
       y="315.67108" />
    <path
       d="m 250.3245,419.14005 6.2083,0 0,-44.02075 -6.2083,0 0,44.02075 z"
       style="fill:none;stroke:#d40000;stroke-width:1;stroke-miterlimit:4;stroke-dasharray:1, 1;stroke-dashoffset:0"
       id="path170"
       inkscape:connector-curvature="0" />
    <path
       style="fill:none;stroke:#000000;stroke-width:1px;stroke-linecap:butt;stroke-linejoin:miter;stroke-opacity:1;marker-end:url(#Arrow1Mend)"
       d="m 253.43554,375.08737 0.10016,15.02414"
       id="path4005"
       inkscape:connector-curvature="0" />
    <text
       xml:space="preserve"
       style="font-size:40px;font-style:normal;font-weight:normal;line-height:125%;letter-spacing:0px;word-spacing:0px;fill:#000000;fill-opacity:1;stroke:none;font-family:Sans"
       x="260.04614"
       y="385.20364"
       id="text4749"
       sodipodi:linespacing="125%"><tspan
         sodipodi:role="line"
         id="tspan4751"
         x="260.04614"
         y="385.20364"
         style="font-size:16px">impair</tspan></text>
    <g
       id="g3082"
       transform="translate(248.83431,447.85486)">
      <path
         id="path3084"
         d="M 6.1653542,8.7874015 7.6181101,8.9645669 C 7.3700786,9.8149606 6.9448818,10.488189 6.3425196,10.948819 5.7047243,11.409449 4.9251968,11.65748 3.9685039,11.65748 2.7283464,11.65748 1.7716535,11.267716 1.0629921,10.523622 0.3543307,9.7795275 0,8.7519684 0,7.4055118 0,5.9881889 0.3543307,4.9251968 1.0629921,4.1456693 1.8070866,3.3661417 2.7283464,2.9763779 3.8622047,2.9763779 c 1.1338582,0 2.019685,0.3897638 2.7283464,1.1338583 0.7086614,0.7795275 1.0629921,1.8425197 1.0629921,3.1889764 0,0.1062992 0,0.2125984 0,0.3897637 l -6.2007873,0 c 0.035433,0.8858268 0.3188976,1.5944882 0.7795275,2.0905512 0.4606299,0.4960625 1.0275591,0.7086615 1.7362205,0.7086615 0.496063,0 0.9566929,-0.106299 1.3110236,-0.389764 C 5.6338582,9.8149606 5.9173228,9.3897637 6.1653542,8.7874015 z M 1.523622,6.519685 l 4.6417322,0 C 6.0944881,5.8110236 5.9173228,5.3149606 5.6338582,4.9606299 5.1732283,4.4291338 4.6062992,4.1456693 3.8976377,4.1456693 c -0.6377952,0 -1.2047244,0.2125984 -1.6299212,0.6377952 C 1.8070866,5.2086614 1.5944882,5.8110236 1.523622,6.519685 z"
         style="fill:#000000;fill-opacity:1;fill-rule:nonzero;stroke:none"
         inkscape:connector-curvature="0" />
      <path
         id="path3086"
         d="m 9.3897637,11.480315 0,-8.2913386 1.2401573,0 0,1.1692913 c 0.602362,-0.9212598 1.488189,-1.3818898 2.65748,-1.3818898 0.496063,0 0.956693,0.1062992 1.38189,0.2834646 0.425197,0.1771654 0.708662,0.4251968 0.92126,0.7086614 0.212598,0.2834646 0.354331,0.6377953 0.46063,1.0275591 0.03543,0.2480315 0.07087,0.7086614 0.07087,1.3818897 l 0,5.1023623 -1.417323,0 0,-5.0669292 c 0,-0.5669291 -0.03543,-0.992126 -0.141732,-1.2755906 C 14.42126,4.8543307 14.244094,4.6417323 13.96063,4.4645669 13.677165,4.2874015 13.358268,4.2165354 12.968504,4.2165354 c -0.566929,0 -1.098425,0.1771654 -1.523622,0.5669291 -0.46063,0.3543307 -0.673229,1.0984252 -0.673229,2.1614173 l 0,4.5354332 z"
         style="fill:#000000;fill-opacity:1;fill-rule:nonzero;stroke:none"
         inkscape:connector-curvature="0" />
      <path
         id="path3088"
         d="m 18.283464,11.480315 0,-11.480315 1.417323,0 0,4.1102362 c 0.637795,-0.7440945 1.488189,-1.1338583 2.480315,-1.1338583 0.602362,0 1.133858,0.1417323 1.594488,0.3897638 0.46063,0.2125984 0.779528,0.5669291 0.956693,0.992126 0.212599,0.4251968 0.318898,1.027559 0.318898,1.8425197 l 0,5.2795276 -1.417323,0 0,-5.2795276 c 0,-0.7086615 -0.141732,-1.2047244 -0.46063,-1.5236221 -0.318898,-0.3188976 -0.744094,-0.496063 -1.27559,-0.496063 -0.425197,0 -0.814961,0.1062992 -1.204725,0.3543307 -0.354331,0.2125985 -0.602362,0.496063 -0.779527,0.8503937 -0.141733,0.3897638 -0.212599,0.8858268 -0.212599,1.5590551 l 0,4.5354332 z"
         style="fill:#000000;fill-opacity:1;fill-rule:nonzero;stroke:none"
         inkscape:connector-curvature="0" />
      <path
         id="path3090"
         d="m 32.598425,10.452756 c -0.531496,0.425197 -1.027559,0.744094 -1.488189,0.92126 -0.496063,0.177165 -1.027559,0.283464 -1.559055,0.283464 -0.92126,0 -1.629922,-0.212598 -2.090551,-0.673228 C 26.964567,10.559055 26.716535,9.9921259 26.716535,9.2834645 26.716535,8.8937007 26.787401,8.503937 27,8.1850393 27.177165,7.8307086 27.425196,7.547244 27.708661,7.3700787 28.027559,7.1574803 28.346456,7.015748 28.73622,6.9094488 c 0.283465,-0.070866 0.673228,-0.1417323 1.240158,-0.2125984 1.133858,-0.1417323 1.984251,-0.3188977 2.515748,-0.496063 0,-0.1771654 0,-0.3188977 0,-0.3543307 0,-0.5669292 -0.141733,-0.992126 -0.389764,-1.2047244 -0.354331,-0.3188977 -0.885827,-0.496063 -1.594488,-0.496063 -0.673229,0 -1.169292,0.1062992 -1.488189,0.3543307 -0.318898,0.2125984 -0.531496,0.6377952 -0.708662,1.2401574 L 26.964567,5.527559 c 0.106299,-0.5669291 0.318897,-1.0629921 0.602362,-1.4173228 0.283464,-0.3543307 0.708661,-0.6377953 1.240157,-0.8149606 0.531496,-0.2125985 1.169292,-0.3188977 1.877953,-0.3188977 0.708661,0 1.311024,0.1062992 1.73622,0.2480315 0.46063,0.1771654 0.779528,0.3897638 0.992126,0.6377953 0.177166,0.2480315 0.354331,0.5669291 0.425197,0.9566929 0.03543,0.2480315 0.07087,0.6732283 0.07087,1.3110236 l 0,1.8779528 c 0,1.2755905 0.03543,2.125984 0.07087,2.480315 0.07087,0.318898 0.177165,0.673228 0.35433,0.992126 l -1.452756,0 C 32.740157,11.161417 32.633858,10.84252 32.598425,10.452756 z M 32.492126,7.2992126 C 31.960629,7.511811 31.216535,7.6889763 30.188976,7.8307086 29.622047,7.9370078 29.19685,8.007874 28.948819,8.1141732 28.73622,8.2204724 28.523622,8.3622047 28.417322,8.5748031 28.27559,8.7874015 28.204724,8.9999999 28.204724,9.2480314 c 0,0.3543307 0.141732,0.6732284 0.425197,0.9212596 0.283464,0.248032 0.708661,0.389764 1.240157,0.389764 0.566929,0 1.027559,-0.106299 1.452756,-0.354331 0.425197,-0.2480312 0.744095,-0.5669288 0.92126,-0.9921256 0.177165,-0.3188977 0.248032,-0.7795276 0.248032,-1.3818898 z"
         style="fill:#000000;fill-opacity:1;fill-rule:nonzero;stroke:none"
         inkscape:connector-curvature="0" />
      <path
         id="path3092"
         d="m 36.106299,11.480315 0,-8.2913386 1.240157,0 0,1.1692913 c 0.637795,-0.9212598 1.488189,-1.3818898 2.65748,-1.3818898 0.496063,0 0.956693,0.1062992 1.38189,0.2834646 0.425197,0.1771654 0.708662,0.4251968 0.92126,0.7086614 0.212598,0.2834646 0.354331,0.6377953 0.46063,1.0275591 0.03543,0.2480315 0.07087,0.7086614 0.07087,1.3818897 l 0,5.1023623 -1.417323,0 0,-5.0669292 c 0,-0.5669291 -0.03543,-0.992126 -0.141732,-1.2755906 C 41.173228,4.8543307 40.960629,4.6417323 40.677165,4.4645669 40.3937,4.2874015 40.074803,4.2165354 39.720472,4.2165354 c -0.602362,0 -1.133858,0.1771654 -1.559055,0.5669291 -0.46063,0.3543307 -0.673229,1.0984252 -0.673229,2.1614173 l 0,4.5354332 z"
         style="fill:#000000;fill-opacity:1;fill-rule:nonzero;stroke:none"
         inkscape:connector-curvature="0" />
      <path
         id="path3094"
         d="m 50.421259,8.4330708 1.38189,0.1771654 c -0.141732,0.9566929 -0.531496,1.7007878 -1.169291,2.2322838 -0.602363,0.531496 -1.38189,0.81496 -2.30315,0.81496 -1.133858,0 -2.019685,-0.35433 -2.728346,-1.098425 -0.673229,-0.7440944 -1.027559,-1.8070866 -1.027559,-3.1889763 0,-0.9212598 0.141732,-1.7007874 0.425196,-2.3740157 0.318898,-0.6732284 0.779528,-1.1692914 1.38189,-1.5236221 0.602362,-0.3188976 1.240158,-0.496063 1.984252,-0.496063 0.885827,0 1.629921,0.2480315 2.19685,0.7086614 0.56693,0.4251969 0.956693,1.0984252 1.098426,1.9133859 l -1.38189,0.2125984 C 50.173228,5.2795275 49.925196,4.8543307 49.606299,4.5708661 49.287401,4.2874015 48.862204,4.1456693 48.401574,4.1456693 c -0.708661,0 -1.27559,0.2480315 -1.73622,0.7440944 -0.425197,0.5314961 -0.637796,1.3110237 -0.637796,2.4094489 0,1.1338582 0.212599,1.9488188 0.637796,2.4448818 0.425197,0.4960626 0.992126,0.7440946 1.665354,0.7440946 0.566929,0 1.027559,-0.141732 1.38189,-0.4960631 0.35433,-0.3543307 0.602362,-0.8503937 0.708661,-1.5590551 z"
         style="fill:#000000;fill-opacity:1;fill-rule:nonzero;stroke:none"
         inkscape:connector-curvature="0" />
      <path
         id="path3096"
         d="m 58.677165,8.7874015 1.452755,0.1771654 c -0.212598,0.8503937 -0.637795,1.5236221 -1.27559,1.9842521 -0.602362,0.46063 -1.417323,0.708661 -2.374016,0.708661 -1.204724,0 -2.161417,-0.389764 -2.870079,-1.133858 -0.708661,-0.7440945 -1.062992,-1.7716536 -1.062992,-3.1181102 0,-1.4173229 0.354331,-2.480315 1.062992,-3.2598425 0.708662,-0.7795276 1.665355,-1.1692914 2.799213,-1.1692914 1.098425,0 2.019685,0.3897638 2.728346,1.1338583 0.673229,0.7795275 1.02756,1.8425197 1.02756,3.1889764 0,0.1062992 0,0.2125984 0,0.3897637 l -6.165355,0 c 0.03543,0.8858268 0.283465,1.5944882 0.744095,2.0905512 0.46063,0.4960625 1.062992,0.7086615 1.73622,0.7086615 0.531496,0 0.956693,-0.106299 1.346457,-0.389764 0.354331,-0.2834644 0.637795,-0.7086613 0.850394,-1.3110235 z m -4.6063,-2.2677165 4.641733,0 C 58.641731,5.8110236 58.464566,5.3149606 58.181102,4.9606299 57.720472,4.4291338 57.118109,4.1456693 56.409448,4.1456693 c -0.637795,0 -1.169291,0.2125984 -1.629921,0.6377952 -0.425197,0.4251969 -0.673229,1.0275591 -0.708662,1.7362205 z"
         style="fill:#000000;fill-opacity:1;fill-rule:nonzero;stroke:none"
         inkscape:connector-curvature="0" />
    </g>
  </g>
</svg>
