<?xml version="1.0" encoding="UTF-8" standalone="no"?>
<svg
   xmlns:dc="http://purl.org/dc/elements/1.1/"
   xmlns:cc="http://creativecommons.org/ns#"
   xmlns:rdf="http://www.w3.org/1999/02/22-rdf-syntax-ns#"
   xmlns:svg="http://www.w3.org/2000/svg"
   xmlns="http://www.w3.org/2000/svg"
   xmlns:sodipodi="http://sodipodi.sourceforge.net/DTD/sodipodi-0.dtd"
   xmlns:inkscape="http://www.inkscape.org/namespaces/inkscape"
   style="fill-opacity:1; color-rendering:auto; color-interpolation:auto; stroke:black; text-rendering:auto; stroke-linecap:square; stroke-miterlimit:10; stroke-opacity:1; shape-rendering:auto; fill:black; stroke-dasharray:none; font-weight:normal; stroke-width:1; font-family:'Dialog'; font-style:normal; stroke-linejoin:miter; font-size:12px; stroke-dashoffset:0; image-rendering:auto;"
   width="737"
   height="424"
   id="svg2"
   version="1.1"
   inkscape:version="0.91 r13725"
   sodipodi:docname="cascms.svg">
  <metadata
     id="metadata135">
    <rdf:RDF>
      <cc:Work
         rdf:about="">
        <dc:format>image/svg+xml</dc:format>
        <dc:type
           rdf:resource="http://purl.org/dc/dcmitype/StillImage" />
      </cc:Work>
    </rdf:RDF>
  </metadata>
  <sodipodi:namedview
     pagecolor="#ffffff"
     bordercolor="#666666"
     borderopacity="1"
     objecttolerance="10"
     gridtolerance="10"
     guidetolerance="10"
     inkscape:pageopacity="0"
     inkscape:pageshadow="2"
     inkscape:window-width="1082"
     inkscape:window-height="528"
     id="namedview133"
     showgrid="false"
     inkscape:zoom="0.84669811"
     inkscape:cx="368.5"
     inkscape:cy="212"
     inkscape:window-x="0"
     inkscape:window-y="0"
     inkscape:window-maximized="0"
     inkscape:current-layer="g5" />
  <!--Generated by the Batik Graphics2D SVG Generator-->
  <defs
     id="genericDefs" />
  <g
     id="g5">
    <defs
       id="defs1">
      <clipPath
         clipPathUnits="userSpaceOnUse"
         id="clipPath1">
        <path
           d="M0 0 L737 0 L737 424 L0 424 L0 0 Z"
           id="path9" />
      </clipPath>
    </defs>
    <g
       style="fill:white; stroke:white;"
       id="g11">
      <rect
         x="0"
         y="0"
         width="737"
         style="clip-path:url(#clipPath1); stroke:none;"
         height="424"
         id="rect13"
         clip-path="url(#clipPath1)" />
    </g>
    <rect
       clip-path="url(#clipPath1)"
       id="rect17"
       height="424"
       style="color-interpolation:sRGB;fill:#ffffff;stroke:none;color-rendering:optimizeSpeed;image-rendering:optimizeSpeed;shape-rendering:crispEdges;text-rendering:optimizeSpeed"
       width="737"
       y="0"
       x="0" />
    <path
       inkscape:connector-curvature="0"
       id="path19"
       d="m 96,344 571,0 0,-312 -571,0 z"
       style="color-interpolation:sRGB;fill:#ffffff;stroke:none;color-rendering:optimizeSpeed;image-rendering:optimizeSpeed;shape-rendering:crispEdges;text-rendering:optimizeSpeed" />
    <g
       transform="translate(268,419)"
       style="font-size:27px; fill:rgb(38,38,38); text-rendering:geometricPrecision; color-rendering:optimizeQuality; image-rendering:optimizeQuality; font-family:'SansSerif'; color-interpolation:linearRGB; stroke:rgb(38,38,38);"
       id="g21">
      <path
         style="stroke:none;"
         d="M2 0 L2 -19.3281 L5.8594 -19.3281 L10.4219 -5.6406 Q11.0625 -3.7344 11.3438 -2.7812 Q11.6875 -3.8438 12.375 -5.875 L17 -19.3281 L20.4531 -19.3281 L20.4531 0 L17.9844 0 L17.9844 -16.1719 L12.3594 0 L10.0625 0 L4.4688 -16.4531 L4.4688 0 L2 0 ZM33.8506 -4.5156 L36.3037 -4.2031 Q35.7256 -2.0625 34.1553 -0.875 Q32.585 0.3125 30.1475 0.3125 Q27.085 0.3125 25.2803 -1.5781 Q23.4756 -3.4688 23.4756 -6.875 Q23.4756 -10.4219 25.2959 -12.3672 Q27.1162 -14.3125 30.0225 -14.3125 Q32.835 -14.3125 34.6084 -12.4062 Q36.3818 -10.5 36.3818 -7.0312 Q36.3818 -6.8125 36.3662 -6.3906 L25.9287 -6.3906 Q26.0693 -4.0938 27.2412 -2.8672 Q28.4131 -1.6406 30.1631 -1.6406 Q31.4756 -1.6406 32.3975 -2.3203 Q33.3193 -3 33.8506 -4.5156 ZM26.0693 -8.3438 L33.8818 -8.3438 Q33.7256 -10.1094 32.9912 -11 Q31.8506 -12.3594 30.0381 -12.3594 Q28.4131 -12.3594 27.2959 -11.2656 Q26.1787 -10.1719 26.0693 -8.3438 ZM48.4292 -1.7344 Q47.1011 -0.6094 45.8823 -0.1484 Q44.6636 0.3125 43.2729 0.3125 Q40.9604 0.3125 39.7183 -0.8125 Q38.4761 -1.9375 38.4761 -3.6875 Q38.4761 -4.7188 38.9448 -5.5703 Q39.4136 -6.4219 40.1714 -6.9375 Q40.9292 -7.4531 41.8823 -7.7188 Q42.5854 -7.8906 43.9917 -8.0625 Q46.8667 -8.4062 48.2261 -8.8906 Q48.2417 -9.375 48.2417 -9.5 Q48.2417 -10.9531 47.5698 -11.5469 Q46.6636 -12.3594 44.8667 -12.3594 Q43.1948 -12.3594 42.3979 -11.7734 Q41.6011 -11.1875 41.2104 -9.6875 L38.8979 -10 Q39.2104 -11.5 39.937 -12.4141 Q40.6636 -13.3281 42.0308 -13.8203 Q43.3979 -14.3125 45.2104 -14.3125 Q47.0073 -14.3125 48.1245 -13.8906 Q49.2417 -13.4688 49.7651 -12.8281 Q50.2886 -12.1875 50.5073 -11.2188 Q50.6323 -10.6094 50.6323 -9.0312 L50.6323 -5.8594 Q50.6323 -2.5625 50.7808 -1.6797 Q50.9292 -0.7969 51.3823 0 L48.8979 0 Q48.5229 -0.7344 48.4292 -1.7344 ZM48.2261 -7.0312 Q46.9292 -6.5 44.3511 -6.125 Q42.8823 -5.9219 42.2808 -5.6562 Q41.6792 -5.3906 41.3433 -4.8828 Q41.0073 -4.375 41.0073 -3.75 Q41.0073 -2.8125 41.7261 -2.1797 Q42.4448 -1.5469 43.8354 -1.5469 Q45.2104 -1.5469 46.2729 -2.1484 Q47.3354 -2.75 47.8511 -3.7812 Q48.2261 -4.5938 48.2261 -6.1562 L48.2261 -7.0312 ZM54.3047 0 L54.3047 -14 L56.4453 -14 L56.4453 -12.0156 Q57.9766 -14.3125 60.8984 -14.3125 Q62.1641 -14.3125 63.2266 -13.8594 Q64.2891 -13.4062 64.8125 -12.6719 Q65.3359 -11.9375 65.5547 -10.9219 Q65.6797 -10.25 65.6797 -8.6094 L65.6797 0 L63.3047 0 L63.3047 -8.5156 Q63.3047 -9.9688 63.0312 -10.6875 Q62.7578 -11.4062 62.0469 -11.8359 Q61.3359 -12.2656 60.3984 -12.2656 Q58.8828 -12.2656 57.7812 -11.3047 Q56.6797 -10.3438 56.6797 -7.6406 L56.6797 0 L54.3047 0 ZM76.791 0 L76.791 -14 L78.9316 -14 L78.9316 -11.875 Q79.7441 -13.375 80.4395 -13.8438 Q81.1348 -14.3125 81.9629 -14.3125 Q83.166 -14.3125 84.4004 -13.5469 L83.5879 -11.3438 Q82.7129 -11.8594 81.8379 -11.8594 Q81.0723 -11.8594 80.4473 -11.3906 Q79.8223 -10.9219 79.5566 -10.0938 Q79.166 -8.8281 79.166 -7.3281 L79.166 0 L76.791 0 ZM95.3916 -4.5156 L97.8447 -4.2031 Q97.2666 -2.0625 95.6963 -0.875 Q94.126 0.3125 91.6885 0.3125 Q88.626 0.3125 86.8213 -1.5781 Q85.0166 -3.4688 85.0166 -6.875 Q85.0166 -10.4219 86.8369 -12.3672 Q88.6572 -14.3125 91.5635 -14.3125 Q94.376 -14.3125 96.1494 -12.4062 Q97.9229 -10.5 97.9229 -7.0312 Q97.9229 -6.8125 97.9072 -6.3906 L87.4697 -6.3906 Q87.6104 -4.0938 88.7822 -2.8672 Q89.9541 -1.6406 91.7041 -1.6406 Q93.0166 -1.6406 93.9385 -2.3203 Q94.8604 -3 95.3916 -4.5156 ZM87.6104 -8.3438 L95.4229 -8.3438 Q95.2666 -10.1094 94.5322 -11 Q93.3916 -12.3594 91.5791 -12.3594 Q89.9541 -12.3594 88.8369 -11.2656 Q87.7197 -10.1719 87.6104 -8.3438 ZM109.9702 -5.125 L112.2983 -4.8281 Q111.9233 -2.4062 110.3452 -1.0469 Q108.7671 0.3125 106.4702 0.3125 Q103.5952 0.3125 101.853 -1.5625 Q100.1108 -3.4375 100.1108 -6.9531 Q100.1108 -9.2188 100.8608 -10.9141 Q101.6108 -12.6094 103.1421 -13.4609 Q104.6733 -14.3125 106.4858 -14.3125 Q108.7671 -14.3125 110.2124 -13.1641 Q111.6577 -12.0156 112.0796 -9.8906 L109.7671 -9.5312 Q109.439 -10.9375 108.603 -11.6484 Q107.7671 -12.3594 106.5796 -12.3594 Q104.7827 -12.3594 103.6655 -11.0781 Q102.5483 -9.7969 102.5483 -7.0156 Q102.5483 -4.1875 103.6265 -2.9141 Q104.7046 -1.6406 106.439 -1.6406 Q107.8452 -1.6406 108.7827 -2.4922 Q109.7202 -3.3438 109.9702 -5.125 ZM123.4702 -1.7344 Q122.1421 -0.6094 120.9233 -0.1484 Q119.7046 0.3125 118.314 0.3125 Q116.0015 0.3125 114.7593 -0.8125 Q113.5171 -1.9375 113.5171 -3.6875 Q113.5171 -4.7188 113.9858 -5.5703 Q114.4546 -6.4219 115.2124 -6.9375 Q115.9702 -7.4531 116.9233 -7.7188 Q117.6265 -7.8906 119.0327 -8.0625 Q121.9077 -8.4062 123.2671 -8.8906 Q123.2827 -9.375 123.2827 -9.5 Q123.2827 -10.9531 122.6108 -11.5469 Q121.7046 -12.3594 119.9077 -12.3594 Q118.2358 -12.3594 117.439 -11.7734 Q116.6421 -11.1875 116.2515 -9.6875 L113.939 -10 Q114.2515 -11.5 114.978 -12.4141 Q115.7046 -13.3281 117.0718 -13.8203 Q118.439 -14.3125 120.2515 -14.3125 Q122.0483 -14.3125 123.1655 -13.8906 Q124.2827 -13.4688 124.8062 -12.8281 Q125.3296 -12.1875 125.5483 -11.2188 Q125.6733 -10.6094 125.6733 -9.0312 L125.6733 -5.8594 Q125.6733 -2.5625 125.8218 -1.6797 Q125.9702 -0.7969 126.4233 0 L123.939 0 Q123.564 -0.7344 123.4702 -1.7344 ZM123.2671 -7.0312 Q121.9702 -6.5 119.3921 -6.125 Q117.9233 -5.9219 117.3218 -5.6562 Q116.7202 -5.3906 116.3843 -4.8828 Q116.0483 -4.375 116.0483 -3.75 Q116.0483 -2.8125 116.7671 -2.1797 Q117.4858 -1.5469 118.8765 -1.5469 Q120.2515 -1.5469 121.314 -2.1484 Q122.3765 -2.75 122.8921 -3.7812 Q123.2671 -4.5938 123.2671 -6.1562 L123.2671 -7.0312 ZM129.2988 0 L129.2988 -19.3281 L131.6582 -19.3281 L131.6582 0 L129.2988 0 ZM135.2974 0 L135.2974 -19.3281 L137.6567 -19.3281 L137.6567 0 L135.2974 0 ZM154.0317 -2.125 L154.3599 -0.0312 Q153.3599 0.1875 152.5786 0.1875 Q151.2817 0.1875 150.5708 -0.2266 Q149.8599 -0.6406 149.5708 -1.3047 Q149.2817 -1.9688 149.2817 -4.0938 L149.2817 -12.1562 L147.5317 -12.1562 L147.5317 -14 L149.2817 -14 L149.2817 -17.4688 L151.6411 -18.8906 L151.6411 -14 L154.0317 -14 L154.0317 -12.1562 L151.6411 -12.1562 L151.6411 -3.9688 Q151.6411 -2.9531 151.7661 -2.6641 Q151.8911 -2.375 152.1724 -2.2031 Q152.4536 -2.0312 152.9849 -2.0312 Q153.3755 -2.0312 154.0317 -2.125 ZM156.3613 -16.5938 L156.3613 -19.3281 L158.7363 -19.3281 L158.7363 -16.5938 L156.3613 -16.5938 ZM156.3613 0 L156.3613 -14 L158.7363 -14 L158.7363 0 L156.3613 0 ZM162.3442 0 L162.3442 -14 L164.4692 -14 L164.4692 -12.0312 Q165.1255 -13.0625 166.2192 -13.6875 Q167.313 -14.3125 168.7036 -14.3125 Q170.2661 -14.3125 171.2583 -13.6719 Q172.2505 -13.0312 172.6724 -11.8594 Q174.3286 -14.3125 176.9849 -14.3125 Q179.0786 -14.3125 180.1958 -13.1641 Q181.313 -12.0156 181.313 -9.6094 L181.313 0 L178.9536 0 L178.9536 -8.8125 Q178.9536 -10.25 178.7271 -10.875 Q178.5005 -11.5 177.8911 -11.8828 Q177.2817 -12.2656 176.4692 -12.2656 Q174.9849 -12.2656 174.0083 -11.2812 Q173.0317 -10.2969 173.0317 -8.1406 L173.0317 0 L170.6567 0 L170.6567 -9.0938 Q170.6567 -10.6719 170.0786 -11.4688 Q169.5005 -12.2656 168.188 -12.2656 Q167.188 -12.2656 166.3364 -11.7344 Q165.4849 -11.2031 165.1021 -10.1875 Q164.7192 -9.1719 164.7192 -7.2656 L164.7192 0 L162.3442 0 ZM194.4136 -4.5156 L196.8667 -4.2031 Q196.2886 -2.0625 194.7183 -0.875 Q193.1479 0.3125 190.7104 0.3125 Q187.6479 0.3125 185.8433 -1.5781 Q184.0386 -3.4688 184.0386 -6.875 Q184.0386 -10.4219 185.8589 -12.3672 Q187.6792 -14.3125 190.5854 -14.3125 Q193.3979 -14.3125 195.1714 -12.4062 Q196.9448 -10.5 196.9448 -7.0312 Q196.9448 -6.8125 196.9292 -6.3906 L186.4917 -6.3906 Q186.6323 -4.0938 187.8042 -2.8672 Q188.9761 -1.6406 190.7261 -1.6406 Q192.0386 -1.6406 192.9604 -2.3203 Q193.8823 -3 194.4136 -4.5156 ZM186.6323 -8.3438 L194.4448 -8.3438 Q194.2886 -10.1094 193.5542 -11 Q192.4136 -12.3594 190.6011 -12.3594 Q188.9761 -12.3594 187.8589 -11.2656 Q186.7417 -10.1719 186.6323 -8.3438 ZM200.4766 0 L200.4766 -2.7031 L203.1797 -2.7031 L203.1797 0 Q203.1797 1.4844 202.6484 2.4062 Q202.1172 3.3281 200.9766 3.8281 L200.3047 2.8125 Q201.0703 2.4844 201.4219 1.8438 Q201.7734 1.2031 201.8203 0 L200.4766 0 Z"
         id="path23" />
    </g>
    <g
       transform="translate(482,419)"
       style="font-size:27px; fill:rgb(38,38,38); text-rendering:geometricPrecision; color-rendering:optimizeQuality; image-rendering:optimizeQuality; font-family:'mwb_cmmi10'; color-interpolation:linearRGB; stroke:rgb(38,38,38);"
       id="g25">
      <path
         style="stroke:none;"
         d="M4.2031 -0.4062 Q4.2031 -0.5938 4.25 -0.7031 L7.0781 -9.9688 L4.6406 -9.9688 Q3.6562 -9.9688 2.7969 -9.3516 Q1.9375 -8.7344 1.375 -7.7812 Q1.3125 -7.6719 1.2188 -7.6719 L0.8906 -7.6719 Q0.6406 -7.6719 0.6406 -7.9375 Q0.6406 -7.9844 0.7031 -8.0938 Q1.5781 -9.5938 2.5859 -10.6172 Q3.5938 -11.6406 4.8594 -11.6406 L13.1406 -11.6406 Q13.4375 -11.6406 13.6328 -11.4453 Q13.8281 -11.25 13.8281 -10.9531 Q13.8281 -10.5625 13.5469 -10.2656 Q13.2656 -9.9688 12.8594 -9.9688 L7.9688 -9.9688 L6.1562 -0.6406 Q6.0469 -0.2188 5.7578 0.0703 Q5.4688 0.3594 5.0156 0.3594 Q4.6875 0.3594 4.4453 0.1406 Q4.2031 -0.0781 4.2031 -0.4062 Z"
         id="path27" />
    </g>
    <line
       id="line31"
       y1="344"
       x2="667"
       x1="96"
       style="color-interpolation:linearRGB;fill:none;stroke:#262626;color-rendering:optimizeQuality;image-rendering:optimizeQuality;text-rendering:geometricPrecision"
       y2="344" />
    <line
       id="line35"
       y1="344"
       x2="210.2"
       x1="210.2"
       style="color-interpolation:linearRGB;fill:none;stroke:#262626;color-rendering:optimizeQuality;image-rendering:optimizeQuality;text-rendering:geometricPrecision"
       y2="338.29001" />
    <line
       id="line39"
       y1="344"
       x2="438.60001"
       x1="438.60001"
       style="color-interpolation:linearRGB;fill:none;stroke:#262626;color-rendering:optimizeQuality;image-rendering:optimizeQuality;text-rendering:geometricPrecision"
       y2="338.29001" />
    <line
       id="line43"
       y1="344"
       x2="667"
       x1="667"
       style="color-interpolation:linearRGB;fill:none;stroke:#262626;color-rendering:optimizeQuality;image-rendering:optimizeQuality;text-rendering:geometricPrecision"
       y2="338.29001" />
    <g
       transform="translate(188,386)"
       style="font-size:27px; fill:rgb(38,38,38); text-rendering:geometricPrecision; color-rendering:optimizeQuality; image-rendering:optimizeQuality; font-family:'SansSerif'; color-interpolation:linearRGB; stroke:rgb(38,38,38);"
       id="g47">
      <path
         style="stroke:none;"
         d="M10.0625 0 L7.6875 0 L7.6875 -15.125 Q6.8281 -14.2969 5.4375 -13.4844 Q4.0469 -12.6719 2.9375 -12.2656 L2.9375 -14.5625 Q4.9375 -15.4844 6.4219 -16.8203 Q7.9062 -18.1562 8.5312 -19.4062 L10.0625 -19.4062 L10.0625 0 ZM16.1411 -9.5312 Q16.1411 -12.9531 16.8442 -15.0469 Q17.5474 -17.1406 18.938 -18.2734 Q20.3286 -19.4062 22.438 -19.4062 Q24.0005 -19.4062 25.1724 -18.7812 Q26.3442 -18.1562 27.1099 -16.9766 Q27.8755 -15.7969 28.3052 -14.1016 Q28.7349 -12.4062 28.7349 -9.5312 Q28.7349 -6.125 28.0396 -4.0391 Q27.3442 -1.9531 25.9536 -0.8125 Q24.563 0.3281 22.438 0.3281 Q19.6411 0.3281 18.0474 -1.6719 Q16.1411 -4.0938 16.1411 -9.5312 ZM18.5786 -9.5312 Q18.5786 -4.7656 19.688 -3.1953 Q20.7974 -1.625 22.438 -1.625 Q24.0786 -1.625 25.188 -3.2031 Q26.2974 -4.7812 26.2974 -9.5312 Q26.2974 -14.2969 25.188 -15.8672 Q24.0786 -17.4375 22.4067 -17.4375 Q20.7817 -17.4375 19.7974 -16.0625 Q18.5786 -14.2969 18.5786 -9.5312 Z"
         id="path49" />
    </g>
    <g
       transform="translate(219,373)"
       style="font-size:21px; fill:rgb(38,38,38); text-rendering:geometricPrecision; color-rendering:optimizeQuality; image-rendering:optimizeQuality; font-family:'SansSerif'; color-interpolation:linearRGB; stroke:rgb(38,38,38);"
       id="g51">
      <path
         style="stroke:none;"
         d="M0.875 -7.4062 Q0.875 -10.0781 1.4219 -11.7031 Q1.9688 -13.3281 3.0469 -14.2109 Q4.125 -15.0938 5.7656 -15.0938 Q6.9844 -15.0938 7.8984 -14.6094 Q8.8125 -14.125 9.4062 -13.2031 Q10 -12.2812 10.3359 -10.9688 Q10.6719 -9.6562 10.6719 -7.4062 Q10.6719 -4.7656 10.1328 -3.1406 Q9.5938 -1.5156 8.5078 -0.6328 Q7.4219 0.25 5.7656 0.25 Q3.5938 0.25 2.3594 -1.2969 Q0.875 -3.1719 0.875 -7.4062 ZM2.7656 -7.4062 Q2.7656 -3.7188 3.6328 -2.4922 Q4.5 -1.2656 5.7656 -1.2656 Q7.0469 -1.2656 7.9141 -2.4922 Q8.7812 -3.7188 8.7812 -7.4062 Q8.7812 -11.125 7.9141 -12.3438 Q7.0469 -13.5625 5.75 -13.5625 Q4.4844 -13.5625 3.7188 -12.4844 Q2.7656 -11.1094 2.7656 -7.4062 Z"
         id="path53" />
    </g>
    <g
       transform="translate(416,386)"
       style="font-size:27px; fill:rgb(38,38,38); text-rendering:geometricPrecision; color-rendering:optimizeQuality; image-rendering:optimizeQuality; font-family:'SansSerif'; color-interpolation:linearRGB; stroke:rgb(38,38,38);"
       id="g55">
      <path
         style="stroke:none;"
         d="M10.0625 0 L7.6875 0 L7.6875 -15.125 Q6.8281 -14.2969 5.4375 -13.4844 Q4.0469 -12.6719 2.9375 -12.2656 L2.9375 -14.5625 Q4.9375 -15.4844 6.4219 -16.8203 Q7.9062 -18.1562 8.5312 -19.4062 L10.0625 -19.4062 L10.0625 0 ZM16.1411 -9.5312 Q16.1411 -12.9531 16.8442 -15.0469 Q17.5474 -17.1406 18.938 -18.2734 Q20.3286 -19.4062 22.438 -19.4062 Q24.0005 -19.4062 25.1724 -18.7812 Q26.3442 -18.1562 27.1099 -16.9766 Q27.8755 -15.7969 28.3052 -14.1016 Q28.7349 -12.4062 28.7349 -9.5312 Q28.7349 -6.125 28.0396 -4.0391 Q27.3442 -1.9531 25.9536 -0.8125 Q24.563 0.3281 22.438 0.3281 Q19.6411 0.3281 18.0474 -1.6719 Q16.1411 -4.0938 16.1411 -9.5312 ZM18.5786 -9.5312 Q18.5786 -4.7656 19.688 -3.1953 Q20.7974 -1.625 22.438 -1.625 Q24.0786 -1.625 25.188 -3.2031 Q26.2974 -4.7812 26.2974 -9.5312 Q26.2974 -14.2969 25.188 -15.8672 Q24.0786 -17.4375 22.4067 -17.4375 Q20.7817 -17.4375 19.7974 -16.0625 Q18.5786 -14.2969 18.5786 -9.5312 Z"
         id="path57" />
    </g>
    <g
       transform="translate(447,373)"
       style="font-size:21px; fill:rgb(38,38,38); text-rendering:geometricPrecision; color-rendering:optimizeQuality; image-rendering:optimizeQuality; font-family:'SansSerif'; color-interpolation:linearRGB; stroke:rgb(38,38,38);"
       id="g59">
      <path
         style="stroke:none;"
         d="M10.5781 -1.7812 L10.5781 0 L0.6406 0 Q0.6094 -0.6719 0.8438 -1.2812 Q1.2344 -2.2969 2.0703 -3.2812 Q2.9062 -4.2656 4.4844 -5.5625 Q6.9375 -7.5625 7.7969 -8.7422 Q8.6562 -9.9219 8.6562 -10.9688 Q8.6562 -12.0625 7.8672 -12.8125 Q7.0781 -13.5625 5.8281 -13.5625 Q4.4844 -13.5625 3.6875 -12.7656 Q2.8906 -11.9688 2.875 -10.5469 L0.9844 -10.75 Q1.1719 -12.875 2.4453 -13.9844 Q3.7188 -15.0938 5.8594 -15.0938 Q8.0312 -15.0938 9.2891 -13.8906 Q10.5469 -12.6875 10.5469 -10.9219 Q10.5469 -10.0156 10.1797 -9.1484 Q9.8125 -8.2812 8.9531 -7.3125 Q8.0938 -6.3438 6.1094 -4.6719 Q4.4531 -3.2656 3.9766 -2.7734 Q3.5 -2.2812 3.2031 -1.7812 L10.5781 -1.7812 Z"
         id="path61" />
    </g>
    <g
       transform="translate(645,386)"
       style="font-size:27px; fill:rgb(38,38,38); text-rendering:geometricPrecision; color-rendering:optimizeQuality; image-rendering:optimizeQuality; font-family:'SansSerif'; color-interpolation:linearRGB; stroke:rgb(38,38,38);"
       id="g63">
      <path
         style="stroke:none;"
         d="M10.0625 0 L7.6875 0 L7.6875 -15.125 Q6.8281 -14.2969 5.4375 -13.4844 Q4.0469 -12.6719 2.9375 -12.2656 L2.9375 -14.5625 Q4.9375 -15.4844 6.4219 -16.8203 Q7.9062 -18.1562 8.5312 -19.4062 L10.0625 -19.4062 L10.0625 0 ZM16.1411 -9.5312 Q16.1411 -12.9531 16.8442 -15.0469 Q17.5474 -17.1406 18.938 -18.2734 Q20.3286 -19.4062 22.438 -19.4062 Q24.0005 -19.4062 25.1724 -18.7812 Q26.3442 -18.1562 27.1099 -16.9766 Q27.8755 -15.7969 28.3052 -14.1016 Q28.7349 -12.4062 28.7349 -9.5312 Q28.7349 -6.125 28.0396 -4.0391 Q27.3442 -1.9531 25.9536 -0.8125 Q24.563 0.3281 22.438 0.3281 Q19.6411 0.3281 18.0474 -1.6719 Q16.1411 -4.0938 16.1411 -9.5312 ZM18.5786 -9.5312 Q18.5786 -4.7656 19.688 -3.1953 Q20.7974 -1.625 22.438 -1.625 Q24.0786 -1.625 25.188 -3.2031 Q26.2974 -4.7812 26.2974 -9.5312 Q26.2974 -14.2969 25.188 -15.8672 Q24.0786 -17.4375 22.4067 -17.4375 Q20.7817 -17.4375 19.7974 -16.0625 Q18.5786 -14.2969 18.5786 -9.5312 Z"
         id="path65" />
    </g>
    <g
       transform="translate(676,373)"
       style="font-size:21px; fill:rgb(38,38,38); text-rendering:geometricPrecision; color-rendering:optimizeQuality; image-rendering:optimizeQuality; font-family:'SansSerif'; color-interpolation:linearRGB; stroke:rgb(38,38,38);"
       id="g67">
      <path
         style="stroke:none;"
         d="M6.7812 0 L6.7812 -3.5938 L0.2656 -3.5938 L0.2656 -5.2969 L7.125 -15.0312 L8.6406 -15.0312 L8.6406 -5.2969 L10.6719 -5.2969 L10.6719 -3.5938 L8.6406 -3.5938 L8.6406 0 L6.7812 0 ZM6.7812 -5.2969 L6.7812 -12.0625 L2.0781 -5.2969 L6.7812 -5.2969 Z"
         id="path69" />
    </g>
    <g
       transform="translate(34,188) rotate(-90)"
       style="font-size:27px; fill:rgb(38,38,38); text-rendering:geometricPrecision; color-rendering:optimizeQuality; image-rendering:optimizeQuality; font-family:'SansSerif'; color-interpolation:linearRGB; stroke:rgb(38,38,38);"
       id="g71">
      <rect
         x="-43.1714"
         width="50.9261"
         height="1.0666"
         y="-32.3851"
         style="stroke:none;"
         id="rect73" />
      <path
         style="stroke:none;"
         d="M-41.9527 -15.8032 L-39.5464 -16.022 Q-39.3746 -14.5688 -38.7496 -13.6392 Q-38.1246 -12.7095 -36.8042 -12.1392 Q-35.4839 -11.5688 -33.8433 -11.5688 Q-32.3746 -11.5688 -31.2574 -11.9985 Q-30.1402 -12.4282 -29.5855 -13.186 Q-29.0308 -13.9438 -29.0308 -14.8501 Q-29.0308 -15.7563 -29.5621 -16.436 Q-30.0933 -17.1157 -31.3121 -17.5688 Q-32.0777 -17.8813 -34.7417 -18.522 Q-37.4058 -19.1626 -38.4839 -19.7251 Q-39.8589 -20.4438 -40.5386 -21.522 Q-41.2183 -22.6001 -41.2183 -23.9282 Q-41.2183 -25.397 -40.3902 -26.6704 Q-39.5621 -27.9438 -37.9683 -28.6001 Q-36.3746 -29.2563 -34.4214 -29.2563 Q-32.2652 -29.2563 -30.6246 -28.561 Q-28.9839 -27.8657 -28.1011 -26.522 Q-27.2183 -25.1782 -27.1558 -23.4751 L-29.6089 -23.3032 Q-29.7964 -25.1313 -30.9371 -26.0688 Q-32.0777 -27.0063 -34.3121 -27.0063 Q-36.6246 -27.0063 -37.6871 -26.1548 Q-38.7496 -25.3032 -38.7496 -24.1001 Q-38.7496 -23.0532 -37.9996 -22.3813 Q-37.2652 -21.7095 -34.148 -21.0063 Q-31.0308 -20.3032 -29.8746 -19.772 Q-28.1871 -19.0063 -27.3824 -17.811 Q-26.5777 -16.6157 -26.5777 -15.0532 Q-26.5777 -13.522 -27.4605 -12.1548 Q-28.3433 -10.7876 -29.9996 -10.0298 Q-31.6558 -9.272 -33.7183 -9.272 Q-36.3433 -9.272 -38.1167 -10.0376 Q-39.8902 -10.8032 -40.898 -12.3345 Q-41.9058 -13.8657 -41.9527 -15.8032 Z"
         id="path75" />
      <path
         style="stroke:none;"
         d="M-26.2941 -9.6001 L-26.2941 -28.9282 L-23.6691 -28.9282 L-13.5284 -13.7563 L-13.5284 -28.9282 L-11.0753 -28.9282 L-11.0753 -9.6001 L-13.7003 -9.6001 L-23.8409 -24.7876 L-23.8409 -9.6001 L-26.2941 -9.6001 Z"
         id="path77" />
      <path
         style="stroke:none;"
         d="M-7.3426 -9.6001 L-7.3426 -28.9282 L1.2199 -28.9282 Q3.8137 -28.9282 5.1574 -28.4048 Q6.5012 -27.8813 7.3059 -26.5688 Q8.1106 -25.2563 8.1106 -23.647 Q8.1106 -21.6001 6.7746 -20.186 Q5.4387 -18.772 2.6574 -18.397 Q3.6731 -17.9126 4.2043 -17.4282 Q5.3293 -16.397 6.3293 -14.8657 L9.6887 -9.6001 L6.4699 -9.6001 L3.9074 -13.6157 Q2.7981 -15.3657 2.0715 -16.2876 Q1.3449 -17.2095 0.7668 -17.5767 Q0.1887 -17.9438 -0.3894 -18.0845 Q-0.8269 -18.1782 -1.8269 -18.1782 L-4.7801 -18.1782 L-4.7801 -9.6001 L-7.3426 -9.6001 ZM-4.7801 -20.397 L0.7043 -20.397 Q2.4699 -20.397 3.4543 -20.7563 Q4.4387 -21.1157 4.9543 -21.9204 Q5.4699 -22.7251 5.4699 -23.647 Q5.4699 -25.022 4.4777 -25.9048 Q3.4856 -26.7876 1.3293 -26.7876 L-4.7801 -26.7876 L-4.7801 -20.397 Z"
         id="path79" />
      <path
         style="stroke:none;"
         d="M16.1297 -2.897 Q14.6297 -4.0845 13.536 -5.6235 Q12.4422 -7.1626 11.7547 -8.9048 Q11.0672 -10.647 10.7235 -12.5454 Q10.3797 -14.4438 10.3797 -16.3501 Q10.3797 -18.2876 10.7235 -20.186 Q11.0672 -22.0845 11.7703 -23.8345 Q12.4735 -25.5845 13.5672 -27.1157 Q14.661 -28.647 16.1297 -29.8032 Q16.1297 -29.8501 16.2547 -29.8501 L16.5047 -29.8501 Q16.5828 -29.8501 16.6532 -29.7798 Q16.7235 -29.7095 16.7235 -29.6157 Q16.7235 -29.4907 16.661 -29.4438 Q15.3485 -28.147 14.4735 -26.6704 Q13.5985 -25.1938 13.0594 -23.5298 Q12.5203 -21.8657 12.286 -20.0767 Q12.0516 -18.2876 12.0516 -16.3501 Q12.0516 -7.772 16.6453 -3.3188 Q16.7235 -3.2251 16.7235 -3.0845 Q16.7235 -3.022 16.6453 -2.936 Q16.5672 -2.8501 16.5047 -2.8501 L16.2547 -2.8501 Q16.1297 -2.8501 16.1297 -2.897 Z"
         id="path81" />
      <path
         style="stroke:none;"
         d="M22.3282 -10.0063 Q22.3282 -10.1938 22.3751 -10.3032 L25.2032 -19.5688 L22.7657 -19.5688 Q21.7814 -19.5688 20.922 -18.9517 Q20.0626 -18.3345 19.5001 -17.3813 Q19.4376 -17.272 19.3439 -17.272 L19.0157 -17.272 Q18.7657 -17.272 18.7657 -17.5376 Q18.7657 -17.5845 18.8282 -17.6938 Q19.7032 -19.1938 20.7111 -20.2173 Q21.7189 -21.2407 22.9845 -21.2407 L31.2657 -21.2407 Q31.5626 -21.2407 31.7579 -21.0454 Q31.9532 -20.8501 31.9532 -20.5532 Q31.9532 -20.1626 31.672 -19.8657 Q31.3907 -19.5688 30.9845 -19.5688 L26.0939 -19.5688 L24.2814 -10.2407 Q24.172 -9.8188 23.8829 -9.5298 Q23.5939 -9.2407 23.1407 -9.2407 Q22.8126 -9.2407 22.5704 -9.4595 Q22.3282 -9.6782 22.3282 -10.0063 Z"
         id="path83" />
      <path
         style="stroke:none;"
         d="M34.5511 -2.8501 Q34.3167 -2.8501 34.3167 -3.0845 Q34.3167 -3.2095 34.3636 -3.2563 Q38.9886 -7.772 38.9886 -16.3501 Q38.9886 -24.9282 34.4261 -29.3813 Q34.3167 -29.4595 34.3167 -29.6157 Q34.3167 -29.7095 34.387 -29.7798 Q34.4573 -29.8501 34.5511 -29.8501 L34.8011 -29.8501 Q34.8792 -29.8501 34.9417 -29.8032 Q36.8792 -28.272 38.1683 -26.0845 Q39.4573 -23.897 40.0589 -21.4126 Q40.6604 -18.9282 40.6604 -16.3501 Q40.6604 -14.4438 40.3401 -12.5923 Q40.0198 -10.7407 39.3089 -8.936 Q38.5979 -7.1313 37.5198 -5.6079 Q36.4417 -4.0845 34.9417 -2.897 Q34.8792 -2.8501 34.8011 -2.8501 L34.5511 -2.8501 Z"
         id="path85" />
    </g>
    <line
       id="line89"
       y1="344"
       x2="96"
       x1="96"
       style="color-interpolation:linearRGB;fill:none;stroke:#262626;color-rendering:optimizeQuality;image-rendering:optimizeQuality;text-rendering:geometricPrecision"
       y2="32" />
    <line
       id="line93"
       y1="183.4566"
       x2="101.71"
       x1="96"
       style="color-interpolation:linearRGB;fill:none;stroke:#262626;color-rendering:optimizeQuality;image-rendering:optimizeQuality;text-rendering:geometricPrecision"
       y2="183.4566" />
    <g
       transform="translate(38,198)"
       style="font-size:27px; fill:rgb(38,38,38); text-rendering:geometricPrecision; color-rendering:optimizeQuality; image-rendering:optimizeQuality; font-family:'SansSerif'; color-interpolation:linearRGB; stroke:rgb(38,38,38);"
       id="g97">
      <path
         style="stroke:none;"
         d="M10.0625 0 L7.6875 0 L7.6875 -15.125 Q6.8281 -14.2969 5.4375 -13.4844 Q4.0469 -12.6719 2.9375 -12.2656 L2.9375 -14.5625 Q4.9375 -15.4844 6.4219 -16.8203 Q7.9062 -18.1562 8.5312 -19.4062 L10.0625 -19.4062 L10.0625 0 ZM16.1411 -9.5312 Q16.1411 -12.9531 16.8442 -15.0469 Q17.5474 -17.1406 18.938 -18.2734 Q20.3286 -19.4062 22.438 -19.4062 Q24.0005 -19.4062 25.1724 -18.7812 Q26.3442 -18.1562 27.1099 -16.9766 Q27.8755 -15.7969 28.3052 -14.1016 Q28.7349 -12.4062 28.7349 -9.5312 Q28.7349 -6.125 28.0396 -4.0391 Q27.3442 -1.9531 25.9536 -0.8125 Q24.563 0.3281 22.438 0.3281 Q19.6411 0.3281 18.0474 -1.6719 Q16.1411 -4.0938 16.1411 -9.5312 ZM18.5786 -9.5312 Q18.5786 -4.7656 19.688 -3.1953 Q20.7974 -1.625 22.438 -1.625 Q24.0786 -1.625 25.188 -3.2031 Q26.2974 -4.7812 26.2974 -9.5312 Q26.2974 -14.2969 25.188 -15.8672 Q24.0786 -17.4375 22.4067 -17.4375 Q20.7817 -17.4375 19.7974 -16.0625 Q18.5786 -14.2969 18.5786 -9.5312 Z"
         id="path99" />
    </g>
    <g
       transform="translate(69,185)"
       style="font-size:21px; fill:rgb(38,38,38); text-rendering:geometricPrecision; color-rendering:optimizeQuality; image-rendering:optimizeQuality; font-family:'SansSerif'; color-interpolation:linearRGB; stroke:rgb(38,38,38);"
       id="g101">
      <path
         style="stroke:none;"
         d="M0.6719 -4.5156 L0.6719 -6.375 L6.3438 -6.375 L6.3438 -4.5156 L0.6719 -4.5156 ZM17.5713 -1.7812 L17.5713 0 L7.6338 0 Q7.6025 -0.6719 7.8369 -1.2812 Q8.2275 -2.2969 9.0635 -3.2812 Q9.8994 -4.2656 11.4775 -5.5625 Q13.9307 -7.5625 14.79 -8.7422 Q15.6494 -9.9219 15.6494 -10.9688 Q15.6494 -12.0625 14.8604 -12.8125 Q14.0713 -13.5625 12.8213 -13.5625 Q11.4775 -13.5625 10.6807 -12.7656 Q9.8838 -11.9688 9.8682 -10.5469 L7.9775 -10.75 Q8.165 -12.875 9.4385 -13.9844 Q10.7119 -15.0938 12.8525 -15.0938 Q15.0244 -15.0938 16.2822 -13.8906 Q17.54 -12.6875 17.54 -10.9219 Q17.54 -10.0156 17.1729 -9.1484 Q16.8057 -8.2812 15.9463 -7.3125 Q15.0869 -6.3438 13.1025 -4.6719 Q11.4463 -3.2656 10.9697 -2.7734 Q10.4932 -2.2812 10.1963 -1.7812 L17.5713 -1.7812 Z"
         id="path103" />
    </g>
    <path
       inkscape:connector-curvature="0"
       id="path107"
       style="color-interpolation:linearRGB;fill:none;fill-rule:evenodd;stroke:#0000ff;stroke-width:2.66669989;color-rendering:optimizeQuality;image-rendering:optimizeQuality;text-rendering:geometricPrecision"
       d="m 96,32 22.84,1.6647 22.84,2.3964 22.84,3.3177 22.84,4.3854 22.84,5.5184 22.84,6.6287 22.84,7.6588 22.84,8.5941 22.84,9.4498 22.84,10.2488 22.84,11.0102 22.84,11.7447 22.84,12.4571 22.84,13.1514 22.84,13.8383 22.84,14.5471 22.84,15.3338 22.84,16.2661 22.84,17.374 22.84,18.6014 22.84,19.8213 22.84,20.9044 22.84,21.7761 22.84,22.4263 L 667,344" />
    <path
       inkscape:connector-curvature="0"
       id="path109"
       style="color-interpolation:linearRGB;fill:none;fill-rule:evenodd;stroke:#00ff00;stroke-width:2.66669989;color-rendering:optimizeQuality;image-rendering:optimizeQuality;text-rendering:geometricPrecision"
       d="m 96,100.374 22.84,0 22.84,0 22.84,0 22.84,0 22.84,0 22.84,1e-4 22.84,6e-4 22.84,0.006 22.84,0.0371 22.84,0.1613 22.84,0.515 22.84,1.2766 22.84,2.5879 22.84,4.4941 22.84,6.9313 22.84,9.7317 22.84,12.6422 22.84,15.3826 22.84,17.7316 22.84,19.5858 22.84,20.9553 22.84,21.9169 22.84,22.5684 22.84,22.9989 22.84,23.2787" />
    <g
       style="fill:white; text-rendering:optimizeSpeed; color-rendering:optimizeSpeed; image-rendering:optimizeSpeed; shape-rendering:crispEdges; color-interpolation:sRGB; stroke:white;"
       id="g111">
      <path
         style="stroke:none;"
         d="M116 337 L116 273 L266 273 L266 337 Z"
         id="path113" />
    </g>
    <g
       transform="translate(167.7507,290.1599)"
       style="font-size:24px; text-rendering:geometricPrecision; color-rendering:optimizeQuality; image-rendering:optimizeQuality; font-family:'SansSerif'; color-interpolation:linearRGB;"
       id="g115">
      <path
         style="stroke:none;"
         d="M14.1094 3.5039 L16.3906 4.082 Q15.6719 6.8789 13.8125 8.3555 Q11.9531 9.832 9.2656 9.832 Q6.5 9.832 4.7578 8.6992 Q3.0156 7.5664 2.1094 5.418 Q1.2031 3.2695 1.2031 0.8164 Q1.2031 -1.8711 2.2266 -3.8711 Q3.25 -5.8711 5.1406 -6.9023 Q7.0312 -7.9336 9.3125 -7.9336 Q11.8906 -7.9336 13.6484 -6.6211 Q15.4062 -5.3086 16.0938 -2.9336 L13.8594 -2.4023 Q13.25 -4.2773 12.1172 -5.1367 Q10.9844 -5.9961 9.2656 -5.9961 Q7.2812 -5.9961 5.9531 -5.043 Q4.625 -4.0898 4.0859 -2.4961 Q3.5469 -0.9023 3.5469 0.8008 Q3.5469 2.9883 4.1797 4.6289 Q4.8125 6.2695 6.1641 7.0742 Q7.5156 7.8789 9.0781 7.8789 Q11 7.8789 12.3203 6.7773 Q13.6406 5.6758 14.1094 3.5039 ZM27.0352 8.0039 Q25.8633 8.9883 24.7773 9.4023 Q23.6914 9.8164 22.457 9.8164 Q20.4102 9.8164 19.3086 8.8164 Q18.207 7.8164 18.207 6.2539 Q18.207 5.332 18.6211 4.582 Q19.0352 3.832 19.707 3.3711 Q20.3789 2.9102 21.2227 2.6758 Q21.8477 2.5195 23.0977 2.3633 Q25.6602 2.0508 26.8633 1.6289 Q26.8789 1.207 26.8789 1.082 Q26.8789 -0.1992 26.2695 -0.7305 Q25.4727 -1.4492 23.8789 -1.4492 Q22.3789 -1.4492 21.6758 -0.9258 Q20.9727 -0.4023 20.6289 0.9258 L18.5664 0.6445 Q18.8477 -0.6836 19.4883 -1.4961 Q20.1289 -2.3086 21.3477 -2.7539 Q22.5664 -3.1992 24.1758 -3.1992 Q25.7695 -3.1992 26.7695 -2.8242 Q27.7695 -2.4492 28.2383 -1.8789 Q28.707 -1.3086 28.8945 -0.4336 Q28.9883 0.0977 28.9883 1.5039 L28.9883 4.3164 Q28.9883 7.2539 29.1289 8.0352 Q29.2695 8.8164 29.6602 9.5352 L27.457 9.5352 Q27.1289 8.8789 27.0352 8.0039 ZM26.8633 3.2852 Q25.707 3.7539 23.4102 4.082 Q22.1133 4.2695 21.5742 4.5039 Q21.0352 4.7383 20.7461 5.1914 Q20.457 5.6445 20.457 6.1914 Q20.457 7.0352 21.0898 7.5977 Q21.7227 8.1602 22.957 8.1602 Q24.1758 8.1602 25.1289 7.6289 Q26.082 7.0977 26.5195 6.1758 Q26.8633 5.457 26.8633 4.0664 L26.8633 3.2852 ZM31.4141 5.8164 L33.5078 5.4883 Q33.6797 6.7383 34.4844 7.4102 Q35.2891 8.082 36.7266 8.082 Q38.1797 8.082 38.8828 7.4883 Q39.5859 6.8945 39.5859 6.0977 Q39.5859 5.3789 38.9609 4.9727 Q38.5391 4.6914 36.8047 4.2539 Q34.4922 3.6758 33.5938 3.2461 Q32.6953 2.8164 32.2344 2.0586 Q31.7734 1.3008 31.7734 0.3945 Q31.7734 -0.4336 32.1562 -1.1445 Q32.5391 -1.8555 33.1953 -2.3242 Q33.6797 -2.6836 34.5312 -2.9414 Q35.3828 -3.1992 36.3516 -3.1992 Q37.8203 -3.1992 38.9297 -2.7773 Q40.0391 -2.3555 40.5625 -1.6289 Q41.0859 -0.9023 41.2891 0.3008 L39.2266 0.582 Q39.0859 -0.3867 38.4141 -0.9258 Q37.7422 -1.4648 36.5078 -1.4648 Q35.0547 -1.4648 34.4297 -0.9805 Q33.8047 -0.4961 33.8047 0.1445 Q33.8047 0.5508 34.0703 0.8789 Q34.3203 1.2227 34.8828 1.4414 Q35.1953 1.5664 36.7422 1.9883 Q38.9766 2.582 39.8594 2.9648 Q40.7422 3.3477 41.25 4.0742 Q41.7578 4.8008 41.7578 5.8789 Q41.7578 6.9258 41.1406 7.8633 Q40.5234 8.8008 39.3672 9.3086 Q38.2109 9.8164 36.7422 9.8164 Q34.3203 9.8164 33.0469 8.8086 Q31.7734 7.8008 31.4141 5.8164 ZM52.3828 4.9727 L54.4609 5.2383 Q54.1172 7.3945 52.7188 8.6055 Q51.3203 9.8164 49.2734 9.8164 Q46.7266 9.8164 45.1719 8.1445 Q43.6172 6.4727 43.6172 3.3633 Q43.6172 1.3477 44.2891 -0.168 Q44.9609 -1.6836 46.3203 -2.4414 Q47.6797 -3.1992 49.2891 -3.1992 Q51.3203 -3.1992 52.6094 -2.168 Q53.8984 -1.1367 54.2578 0.7383 L52.2109 1.0664 Q51.9141 -0.1992 51.1719 -0.832 Q50.4297 -1.4648 49.3672 -1.4648 Q47.7734 -1.4648 46.7812 -0.3164 Q45.7891 0.832 45.7891 3.3008 Q45.7891 5.8008 46.75 6.9414 Q47.7109 8.082 49.2578 8.082 Q50.4922 8.082 51.3281 7.3164 Q52.1641 6.5508 52.3828 4.9727 ZM64.3828 8.0039 Q63.2109 8.9883 62.125 9.4023 Q61.0391 9.8164 59.8047 9.8164 Q57.7578 9.8164 56.6562 8.8164 Q55.5547 7.8164 55.5547 6.2539 Q55.5547 5.332 55.9688 4.582 Q56.3828 3.832 57.0547 3.3711 Q57.7266 2.9102 58.5703 2.6758 Q59.1953 2.5195 60.4453 2.3633 Q63.0078 2.0508 64.2109 1.6289 Q64.2266 1.207 64.2266 1.082 Q64.2266 -0.1992 63.6172 -0.7305 Q62.8203 -1.4492 61.2266 -1.4492 Q59.7266 -1.4492 59.0234 -0.9258 Q58.3203 -0.4023 57.9766 0.9258 L55.9141 0.6445 Q56.1953 -0.6836 56.8359 -1.4961 Q57.4766 -2.3086 58.6953 -2.7539 Q59.9141 -3.1992 61.5234 -3.1992 Q63.1172 -3.1992 64.1172 -2.8242 Q65.1172 -2.4492 65.5859 -1.8789 Q66.0547 -1.3086 66.2422 -0.4336 Q66.3359 0.0977 66.3359 1.5039 L66.3359 4.3164 Q66.3359 7.2539 66.4766 8.0352 Q66.6172 8.8164 67.0078 9.5352 L64.8047 9.5352 Q64.4766 8.8789 64.3828 8.0039 ZM64.2109 3.2852 Q63.0547 3.7539 60.7578 4.082 Q59.4609 4.2695 58.9219 4.5039 Q58.3828 4.7383 58.0938 5.1914 Q57.8047 5.6445 57.8047 6.1914 Q57.8047 7.0352 58.4375 7.5977 Q59.0703 8.1602 60.3047 8.1602 Q61.5234 8.1602 62.4766 7.6289 Q63.4297 7.0977 63.8672 6.1758 Q64.2109 5.457 64.2109 4.0664 L64.2109 3.2852 ZM77.6836 9.5352 L77.6836 7.957 Q76.4961 9.8164 74.1992 9.8164 Q72.7148 9.8164 71.4648 8.9961 Q70.2148 8.1758 69.5352 6.707 Q68.8555 5.2383 68.8555 3.3164 Q68.8555 1.457 69.4727 -0.0586 Q70.0898 -1.5742 71.332 -2.3867 Q72.5742 -3.1992 74.1055 -3.1992 Q75.2305 -3.1992 76.1133 -2.7227 Q76.9961 -2.2461 77.543 -1.4805 L77.543 -7.6523 L79.6367 -7.6523 L79.6367 9.5352 L77.6836 9.5352 ZM71.0117 3.3164 Q71.0117 5.707 72.0195 6.8945 Q73.0273 8.082 74.4023 8.082 Q75.793 8.082 76.7539 6.9492 Q77.7148 5.8164 77.7148 3.5039 Q77.7148 0.9414 76.7305 -0.2539 Q75.7461 -1.4492 74.3086 -1.4492 Q72.9023 -1.4492 71.957 -0.3008 Q71.0117 0.8477 71.0117 3.3164 ZM91.4844 5.5195 L93.6562 5.8008 Q93.1406 7.707 91.75 8.7617 Q90.3594 9.8164 88.1875 9.8164 Q85.4531 9.8164 83.8516 8.1367 Q82.25 6.457 82.25 3.4102 Q82.25 0.2695 83.8672 -1.4648 Q85.4844 -3.1992 88.0625 -3.1992 Q90.5625 -3.1992 92.1484 -1.4961 Q93.7344 0.207 93.7344 3.2852 Q93.7344 3.4727 93.7188 3.8477 L84.4375 3.8477 Q84.5469 5.8945 85.5938 6.9883 Q86.6406 8.082 88.2031 8.082 Q89.3594 8.082 90.1797 7.4727 Q91 6.8633 91.4844 5.5195 ZM84.5469 2.1133 L91.5 2.1133 Q91.3594 0.5508 90.7031 -0.2461 Q89.7031 -1.4648 88.0938 -1.4648 Q86.6406 -1.4648 85.6484 -0.4883 Q84.6562 0.4883 84.5469 2.1133 Z"
         id="path117" />
    </g>
    <g
       style="fill:blue; text-rendering:geometricPrecision; color-rendering:optimizeQuality; image-rendering:optimizeQuality; color-interpolation:linearRGB; stroke:blue; stroke-width:2.6667;"
       id="g119">
      <line
         y2="290.1599"
         style="fill:none;"
         x1="123.9616"
         x2="163.7699"
         y1="290.1599"
         id="line121" />
    </g>
    <g
       transform="translate(167.7507,319.8401)"
       style="font-size:24px; text-rendering:geometricPrecision; color-rendering:optimizeQuality; image-rendering:optimizeQuality; font-family:'SansSerif'; color-interpolation:linearRGB;"
       id="g123">
      <path
         style="stroke:none;"
         d="M1.0781 4.0195 L3.2188 3.832 Q3.375 5.1133 3.9297 5.9414 Q4.4844 6.7695 5.6562 7.2773 Q6.8281 7.7852 8.2969 7.7852 Q9.5938 7.7852 10.5938 7.4023 Q11.5938 7.0195 12.0781 6.3398 Q12.5625 5.6602 12.5625 4.8633 Q12.5625 4.0664 12.0938 3.457 Q11.625 2.8477 10.5469 2.4414 Q9.8594 2.1758 7.4922 1.6055 Q5.125 1.0352 4.1719 0.5352 Q2.9375 -0.1055 2.3359 -1.0664 Q1.7344 -2.0273 1.7344 -3.1992 Q1.7344 -4.5117 2.4766 -5.6367 Q3.2188 -6.7617 4.6328 -7.3477 Q6.0469 -7.9336 7.7812 -7.9336 Q9.6875 -7.9336 11.1484 -7.3242 Q12.6094 -6.7148 13.3984 -5.5195 Q14.1875 -4.3242 14.2344 -2.8086 L12.0625 -2.6367 Q11.8906 -4.2773 10.875 -5.1055 Q9.8594 -5.9336 7.875 -5.9336 Q5.8125 -5.9336 4.8672 -5.1758 Q3.9219 -4.418 3.9219 -3.3555 Q3.9219 -2.4336 4.5938 -1.8398 Q5.25 -1.2305 8.0234 -0.6055 Q10.7969 0.0195 11.8281 0.4883 Q13.3281 1.1758 14.0391 2.2383 Q14.75 3.3008 14.75 4.6758 Q14.75 6.0508 13.9688 7.2617 Q13.1875 8.4727 11.7188 9.1523 Q10.25 9.832 8.4062 9.832 Q6.0781 9.832 4.5 9.1523 Q2.9219 8.4727 2.0234 7.1055 Q1.125 5.7383 1.0781 4.0195 ZM26.1172 5.5195 L28.2891 5.8008 Q27.7734 7.707 26.3828 8.7617 Q24.9922 9.8164 22.8203 9.8164 Q20.0859 9.8164 18.4844 8.1367 Q16.8828 6.457 16.8828 3.4102 Q16.8828 0.2695 18.5 -1.4648 Q20.1172 -3.1992 22.6953 -3.1992 Q25.1953 -3.1992 26.7812 -1.4961 Q28.3672 0.207 28.3672 3.2852 Q28.3672 3.4727 28.3516 3.8477 L19.0703 3.8477 Q19.1797 5.8945 20.2266 6.9883 Q21.2734 8.082 22.8359 8.082 Q23.9922 8.082 24.8125 7.4727 Q25.6328 6.8633 26.1172 5.5195 ZM19.1797 2.1133 L26.1328 2.1133 Q25.9922 0.5508 25.3359 -0.2461 Q24.3359 -1.4648 22.7266 -1.4648 Q21.2734 -1.4648 20.2812 -0.4883 Q19.2891 0.4883 19.1797 2.1133 ZM30.918 9.5352 L30.918 -2.918 L32.8086 -2.918 L32.8086 -1.0273 Q33.543 -2.3555 34.1602 -2.7773 Q34.7773 -3.1992 35.5117 -3.1992 Q36.5742 -3.1992 37.6836 -2.5117 L36.9492 -0.5586 Q36.1836 -1.0117 35.4023 -1.0117 Q34.7148 -1.0117 34.1602 -0.5977 Q33.6055 -0.1836 33.3711 0.5508 Q33.0273 1.6758 33.0273 3.0195 L33.0273 9.5352 L30.918 9.5352 ZM38.9414 -5.2148 L38.9414 -7.6523 L41.0508 -7.6523 L41.0508 -5.2148 L38.9414 -5.2148 ZM38.9414 9.5352 L38.9414 -2.918 L41.0508 -2.918 L41.0508 9.5352 L38.9414 9.5352 ZM52.3828 8.0039 Q51.2109 8.9883 50.125 9.4023 Q49.0391 9.8164 47.8047 9.8164 Q45.7578 9.8164 44.6562 8.8164 Q43.5547 7.8164 43.5547 6.2539 Q43.5547 5.332 43.9688 4.582 Q44.3828 3.832 45.0547 3.3711 Q45.7266 2.9102 46.5703 2.6758 Q47.1953 2.5195 48.4453 2.3633 Q51.0078 2.0508 52.2109 1.6289 Q52.2266 1.207 52.2266 1.082 Q52.2266 -0.1992 51.6172 -0.7305 Q50.8203 -1.4492 49.2266 -1.4492 Q47.7266 -1.4492 47.0234 -0.9258 Q46.3203 -0.4023 45.9766 0.9258 L43.9141 0.6445 Q44.1953 -0.6836 44.8359 -1.4961 Q45.4766 -2.3086 46.6953 -2.7539 Q47.9141 -3.1992 49.5234 -3.1992 Q51.1172 -3.1992 52.1172 -2.8242 Q53.1172 -2.4492 53.5859 -1.8789 Q54.0547 -1.3086 54.2422 -0.4336 Q54.3359 0.0977 54.3359 1.5039 L54.3359 4.3164 Q54.3359 7.2539 54.4766 8.0352 Q54.6172 8.8164 55.0078 9.5352 L52.8047 9.5352 Q52.4766 8.8789 52.3828 8.0039 ZM52.2109 3.2852 Q51.0547 3.7539 48.7578 4.082 Q47.4609 4.2695 46.9219 4.5039 Q46.3828 4.7383 46.0938 5.1914 Q45.8047 5.6445 45.8047 6.1914 Q45.8047 7.0352 46.4375 7.5977 Q47.0703 8.1602 48.3047 8.1602 Q49.5234 8.1602 50.4766 7.6289 Q51.4297 7.0977 51.8672 6.1758 Q52.2109 5.457 52.2109 4.0664 L52.2109 3.2852 ZM57.5586 9.5352 L57.5586 -7.6523 L59.668 -7.6523 L59.668 9.5352 L57.5586 9.5352 Z"
         id="path125" />
    </g>
    <line
       id="line129"
       y1="319.84009"
       x2="163.7699"
       x1="123.9616"
       style="color-interpolation:linearRGB;fill:none;stroke:#00ff00;stroke-width:2.66669989;color-rendering:optimizeQuality;image-rendering:optimizeQuality;text-rendering:geometricPrecision"
       y2="319.84009" />
  </g>
</svg>
