<?xml version="1.0" encoding="UTF-8" standalone="no"?>
<!-- Created with Inkscape (http://www.inkscape.org/) -->

<svg
   xmlns:dc="http://purl.org/dc/elements/1.1/"
   xmlns:cc="http://creativecommons.org/ns#"
   xmlns:rdf="http://www.w3.org/1999/02/22-rdf-syntax-ns#"
   xmlns:svg="http://www.w3.org/2000/svg"
   xmlns="http://www.w3.org/2000/svg"
   xmlns:sodipodi="http://sodipodi.sourceforge.net/DTD/sodipodi-0.dtd"
   xmlns:inkscape="http://www.inkscape.org/namespaces/inkscape"
   width="273.04688"
   height="194.00713"
   id="svg5150"
   version="1.1"
   inkscape:version="0.48.4 r9939"
   sodipodi:docname="New document 3">
  <defs
     id="defs5152">
    <clipPath
       clipPathUnits="userSpaceOnUse"
       id="clipPath196">
      <path
         inkscape:connector-curvature="0"
         d="m 295.186,651.74 24.605,-6.039 -0.353,11.838 -24.252,-5.799 z"
         id="path198" />
    </clipPath>
    <linearGradient
       x1="0"
       y1="0"
       x2="1"
       y2="0"
       gradientUnits="userSpaceOnUse"
       gradientTransform="matrix(24.57755,2.243149,-2.243149,24.57753,295.3125,650.5)"
       spreadMethod="pad"
       id="linearGradient208">
      <stop
         style="stop-opacity:1;stop-color:#0b8ed8"
         offset="0"
         id="stop210" />
      <stop
         style="stop-opacity:1;stop-color:#ffffff"
         offset="1"
         id="stop212" />
    </linearGradient>
  </defs>
  <sodipodi:namedview
     id="base"
     pagecolor="#ffffff"
     bordercolor="#666666"
     borderopacity="1.0"
     inkscape:pageopacity="0.0"
     inkscape:pageshadow="2"
     inkscape:zoom="1.2164501"
     inkscape:cx="136.52344"
     inkscape:cy="97.003565"
     inkscape:document-units="px"
     inkscape:current-layer="layer1"
     showgrid="false"
     fit-margin-top="0"
     fit-margin-left="0"
     fit-margin-right="0"
     fit-margin-bottom="0"
     inkscape:window-width="463"
     inkscape:window-height="453"
     inkscape:window-x="350"
     inkscape:window-y="350"
     inkscape:window-maximized="0" />
  <metadata
     id="metadata5155">
    <rdf:RDF>
      <cc:Work
         rdf:about="">
        <dc:format>image/svg+xml</dc:format>
        <dc:type
           rdf:resource="http://purl.org/dc/dcmitype/StillImage" />
        <dc:title></dc:title>
      </cc:Work>
    </rdf:RDF>
  </metadata>
  <g
     inkscape:label="Layer 1"
     inkscape:groupmode="layer"
     id="layer1"
     transform="translate(-238.47656,-435.35862)">
    <g
       id="g34"
       transform="matrix(1.25,0,0,-1.25,464.91331,584.29475)">
      <path
         d="m 0,0 c -0.029,-4.712 -2.354,-8.2 -3.788,-8.142 2.608,0 6.075,2.563 8.534,-0.029 -1.732,-0.581 -3.715,4.442 -4.361,8.753"
         style="fill:#639f1e;fill-opacity:1;fill-rule:nonzero;stroke:#110f0d;stroke-width:1.56599998;stroke-linecap:butt;stroke-linejoin:miter;stroke-miterlimit:4;stroke-opacity:1;stroke-dasharray:none"
         id="path36"
         inkscape:connector-curvature="0" />
    </g>
    <text
       style="font-size:15px"
       id="text38"
       x="491.44281"
       y="615.61127">
      <tspan
         style="font-size:17.5px;font-variant:normal;font-weight:bold;writing-mode:lr-tb;fill:#231f20;fill-opacity:1;fill-rule:nonzero;stroke:none;font-family:Arial;-inkscape-font-specification:Arial-BoldMT"
         x="491.44281 496.3078"
         y="615.61127"
         sodipodi:role="line"
         id="tspan40">IO</tspan>
    </text>
    <path
       d="m 462.55118,597.07738 c -3.38375,6.82874 -15.215,12.68249 -17.475,1.73374 -2.52375,-12.215 9.5825,-19.3 19.60875,-21.5975 10.9825,-2.5175 19.8125,6.875 20.1675,17.2 0.16751,4.8325 -1.31999,10.54625 -7.09875,10.69125 -5.36624,0.1375 -9.12749,-4.9575 -10.92999,-9.35625 -0.9125,-2.225 -4.28125,-0.6175 -3.37125,1.6025 4.1675,10.16375 19.36,17.47125 24.35875,3.78625 4.77625,-13.08 -6.98875,-30.26125 -21.55875,-27.98625 -12.94875,2.02125 -30.83625,13.2825 -24.12125,29.04625 5.21,12.2325 19.55875,4.97625 23.91875,-3.82625 1.06875,-2.1575 -2.44375,-3.425 -3.49875,-1.29375"
       style="fill:#110f0d;fill-opacity:1;fill-rule:nonzero;stroke:none"
       id="path42"
       inkscape:connector-curvature="0" />
    <g
       id="g44"
       transform="matrix(1.25,0,0,-1.25,430.83369,457.57725)">
      <path
         d="m 0,0 c 0.119,0.541 1.064,1.757 1.539,2.162 l 0,0.271 C 2.721,3.378 4.141,3.919 5.678,3.784 6.389,1.892 6.033,-0.135 5.561,-1.891 5.205,-3.512 5.561,-6.08 4.377,-7.296"
         style="fill:none;stroke:#110f0d;stroke-width:3.13100004;stroke-linecap:butt;stroke-linejoin:miter;stroke-miterlimit:4;stroke-opacity:1;stroke-dasharray:none"
         id="path46"
         inkscape:connector-curvature="0" />
    </g>
    <g
       id="g48"
       transform="matrix(1.25,0,0,-1.25,438.22631,453.69237)">
      <path
         d="m 0,0 c 0.711,1.891 2.84,2.567 4.494,3.243 0.947,0.406 2.012,0.406 3.193,0.541 1.303,0 2.131,-0.405 3.196,-0.676 0.826,-1.351 -0.473,-3.244 -1.656,-3.514 l 0,-0.269 C 7.451,-1.216 6.742,-2.296 5.797,-3.919 4.613,-5.675 4.73,-7.566 4.377,-9.729"
         style="fill:none;stroke:#110f0d;stroke-width:3.13100004;stroke-linecap:butt;stroke-linejoin:miter;stroke-miterlimit:4;stroke-opacity:1;stroke-dasharray:none"
         id="path50"
         inkscape:connector-curvature="0" />
    </g>
    <g
       id="g52"
       transform="matrix(1.25,0,0,-1.25,484.20768,457.2385)">
      <path
         d="M 0,0 C 0,1.216 -0.592,4.053 -1.183,4.728 -2.129,5.809 -3.902,6.216 -5.086,6.486 -5.914,6.621 -7.096,6.756 -7.924,6.621 -8.871,6.35 -8.871,5.945 -9.107,5 -9.463,3.107 -8.871,2.162 -7.808,0.81 c 0,-0.134 0.357,0 0.357,0 0.119,-0.134 0.119,-0.54 0.236,-0.675 0.119,-0.135 0.238,-0.541 0.356,-0.811 0.236,-0.541 0.472,-1.217 0.828,-1.757 0.59,-1.216 1.301,-2.702 2.129,-3.378 0,-0.405 0.117,-0.54 0.353,-0.81"
         style="fill:none;stroke:#110f0d;stroke-width:3.13100004;stroke-linecap:butt;stroke-linejoin:miter;stroke-miterlimit:4;stroke-opacity:1;stroke-dasharray:none"
         id="path54"
         inkscape:connector-curvature="0" />
    </g>
    <g
       id="g56"
       transform="matrix(1.25,0,0,-1.25,451.97631,450.14563)">
      <path
         d="m 0,0 c 0.473,0.271 0.709,0.676 1.184,0.947 0.472,0.404 1.183,0.404 1.3,1.08 0.828,0.676 2.957,0.271 4.022,0.271 1.42,0 2.838,0 4.258,-0.135 2.129,-0.271 4.138,-1.621 5.795,-3.109"
         style="fill:none;stroke:#110f0d;stroke-width:3.13100004;stroke-linecap:butt;stroke-linejoin:miter;stroke-miterlimit:4;stroke-opacity:1;stroke-dasharray:none"
         id="path58"
         inkscape:connector-curvature="0" />
    </g>
    <g
       id="g60"
       transform="matrix(1.25,0,0,-1.25,483.46794,452.67787)">
      <path
         d="M 0,0 0,0.27 C 0.947,1.352 3.077,1.08 4.139,0.54 4.732,0.27 5.088,0 5.559,-0.405 6.27,-1.082 6.625,-0.947 7.453,-1.217 c 0,-1.215 0,-2.296 -0.355,-3.378 C 6.625,-5.404 6.506,-6.351 6.389,-7.431 5.914,-9.324 4.732,-11.08 4.496,-13.106"
         style="fill:none;stroke:#110f0d;stroke-width:3.13100004;stroke-linecap:butt;stroke-linejoin:miter;stroke-miterlimit:4;stroke-opacity:1;stroke-dasharray:none"
         id="path62"
         inkscape:connector-curvature="0" />
    </g>
    <g
       id="g64"
       transform="matrix(1.25,0,0,-1.25,452.86256,463.82725)">
      <path
         d="m 0,0 c 2.957,1.757 3.549,5.136 7.926,4.73 3.193,-0.135 5.914,-3.108 7.57,-5.539"
         style="fill:none;stroke:#110f0d;stroke-width:3.13100004;stroke-linecap:butt;stroke-linejoin:miter;stroke-miterlimit:4;stroke-opacity:1;stroke-dasharray:none"
         id="path66"
         inkscape:connector-curvature="0" />
    </g>
    <text
       transform="scale(0.95799848,1.043843)"
       id="text68"
       x="343.87051"
       y="571.71326"
       style="font-size:14.36997795px">
      <tspan
         style="font-size:21.55496597px;font-variant:normal;font-weight:bold;writing-mode:lr-tb;fill:#110f0d;fill-opacity:1;fill-rule:nonzero;stroke:none;font-family:Arial;-inkscape-font-specification:Arial-BoldMT"
         x="343.87051"
         y="571.71326"
         id="tspan70">-</tspan>
    </text>
    <g
       id="g72"
       transform="matrix(1.25,0,0,-1.25,317.67881,437.85862)">
      <path
         d="M 0,0 5.132,-8.582"
         style="fill:#0b8ed8;fill-opacity:1;fill-rule:nonzero;stroke:#0b8ed8;stroke-width:4;stroke-linecap:butt;stroke-linejoin:round;stroke-miterlimit:10;stroke-opacity:1;stroke-dasharray:none"
         id="path74"
         inkscape:connector-curvature="0" />
    </g>
    <path
       d="m 312.54269,447.31287 9.96625,-1.37875 5.9275,-8.12625 3.3175,23.58375 -19.21125,-14.07875 z"
       style="fill:#0b8ed8;fill-opacity:1;fill-rule:nonzero;stroke:none"
       id="path76"
       inkscape:connector-curvature="0" />
    <text
       style="font-size:15px"
       id="text78"
       x="268.87445"
       y="548.95111">
      <tspan
         style="font-size:17.5px;font-variant:normal;font-weight:bold;writing-mode:lr-tb;fill:#231f20;fill-opacity:1;fill-rule:nonzero;stroke:none;font-family:Arial;-inkscape-font-specification:Arial-BoldMT"
         x="268.87445 282.48944"
         y="548.95111"
         sodipodi:role="line"
         id="tspan80">GC</tspan>
    </text>
    <text
       style="font-size:15px"
       id="text82"
       x="270.74695"
       y="487.07117">
      <tspan
         style="font-size:17.5px;font-variant:normal;font-weight:bold;writing-mode:lr-tb;fill:#231f20;fill-opacity:1;fill-rule:nonzero;stroke:none;font-family:Arial;-inkscape-font-specification:Arial-BoldMT"
         x="270.74695 282.41943"
         y="487.07117"
         sodipodi:role="line"
         id="tspan84">PF</tspan>
    </text>
    <path
       d="m 307.28756,566.63975 c 0,0.36375 -0.11,0.69125 -0.28625,0.9425 -1.58875,0.745 -2.8075,2.87 -4.40125,2.74625 -1.5925,-0.12625 -2.905,-2.00125 -4.4925,-2.75625 -0.1775,-0.2425 -0.2875,-0.56875 -0.2875,-0.9325 0,-0.36125 0.11,-0.69 0.2875,-0.92875 0.17875,-0.23625 0.42375,-0.3825 0.69625,-0.375 2.5775,0.74125 5.11,0.49125 7.73375,-0.008 0.18875,0 0.375,0.12375 0.4625,0.3825 0.1775,0.23875 0.2875,0.5675 0.2875,0.92875"
       style="fill:#231f20;fill-opacity:1;fill-rule:nonzero;stroke:none"
       id="path86"
       inkscape:connector-curvature="0" />
    <g
       id="g88"
       transform="matrix(1.25,0,0,-1.25,307.28756,566.63975)">
      <path
         d="M 0,0 C 0,-0.291 -0.088,-0.553 -0.229,-0.754 -1.5,-1.35 -2.475,-3.05 -3.75,-2.951 c -1.274,0.101 -2.324,1.601 -3.594,2.205 -0.142,0.194 -0.23,0.455 -0.23,0.746 0,0.289 0.088,0.552 0.23,0.743 0.143,0.189 0.339,0.306 0.557,0.3 2.062,-0.593 4.088,-0.393 6.187,0.006 0.151,0 0.3,-0.099 0.37,-0.306 C -0.088,0.552 0,0.289 0,0 z"
         style="fill:none;stroke:#231f20;stroke-width:1;stroke-linecap:round;stroke-linejoin:miter;stroke-miterlimit:1;stroke-opacity:1;stroke-dasharray:none"
         id="path90"
         inkscape:connector-curvature="0" />
    </g>
    <path
       d="m 322.33031,618.3395 c -0.36375,0 -0.6925,-0.11 -0.9425,-0.28625 -0.745,-1.58875 -2.87125,-2.8075 -2.74625,-4.40125 0.12625,-1.5925 2.00125,-2.905 2.75625,-4.4925 0.24125,-0.1775 0.56875,-0.2875 0.9325,-0.2875 0.36125,0 0.69,0.11 0.9275,0.2875 0.2375,0.17875 0.38375,0.42375 0.37625,0.69625 -0.7425,2.5775 -0.49125,5.11 0.008,7.73375 0,0.18875 -0.125,0.375 -0.38375,0.4625 -0.2375,0.1775 -0.56625,0.2875 -0.9275,0.2875"
       style="fill:#231f20;fill-opacity:1;fill-rule:nonzero;stroke:none"
       id="path92"
       inkscape:connector-curvature="0" />
    <g
       id="g94"
       transform="matrix(1.25,0,0,-1.25,322.33031,618.3395)">
      <path
         d="M 0,0 C -0.291,0 -0.554,0.088 -0.754,0.229 -1.35,1.5 -3.051,2.475 -2.951,3.75 -2.85,5.024 -1.35,6.074 -0.746,7.344 -0.553,7.486 -0.291,7.574 0,7.574 0.289,7.574 0.552,7.486 0.742,7.344 0.932,7.201 1.049,7.005 1.043,6.787 0.449,4.725 0.65,2.699 1.049,0.6 1.049,0.449 0.949,0.3 0.742,0.23 0.552,0.088 0.289,0 0,0 z"
         style="fill:none;stroke:#231f20;stroke-width:1.5;stroke-linecap:round;stroke-linejoin:miter;stroke-miterlimit:1;stroke-opacity:1;stroke-dasharray:none"
         id="path96"
         inkscape:connector-curvature="0" />
    </g>
    <path
       d="m 348.37881,590.95312 c 0,1.74626 -1.46875,3.16375 -3.28125,3.16375 -1.81125,0 -3.28125,-1.4175 -3.28125,-3.16375 0,-1.7475 1.47,-3.16374 3.28125,-3.16374 1.8125,0 3.28125,1.41625 3.28125,3.16374"
       style="fill:#231f20;fill-opacity:1;fill-rule:nonzero;stroke:none"
       id="path98"
       inkscape:connector-curvature="0" />
    <g
       id="g100"
       transform="matrix(1.25,0,0,-1.25,395.31119,574.17813)">
      <path
         d="m 0,0 c 0,-7.043 -5.709,-12.75 -12.75,-12.75 -7.041,0 -12.75,5.707 -12.75,12.75 0,7.041 5.709,12.75 12.75,12.75 C -5.709,12.75 0,7.041 0,0 z"
         style="fill:none;stroke:#0a6b38;stroke-width:1.5;stroke-linecap:butt;stroke-linejoin:round;stroke-miterlimit:10;stroke-opacity:1;stroke-dasharray:none"
         id="path102"
         inkscape:connector-curvature="0" />
    </g>
    <g
       id="g104"
       transform="matrix(1.25,0,0,-1.25,308.66393,556.26563)">
      <path
         d="m 0,0 c 0,-2.568 -2.082,-4.65 -4.65,-4.65 -2.568,0 -4.649,2.082 -4.649,4.65 0,2.569 2.081,4.651 4.649,4.651 C -2.082,4.651 0,2.569 0,0 z"
         style="fill:none;stroke:#110f0d;stroke-width:1.5;stroke-linecap:round;stroke-linejoin:round;stroke-miterlimit:10;stroke-opacity:1;stroke-dasharray:none"
         id="path106"
         inkscape:connector-curvature="0" />
    </g>
    <g
       id="g108"
       transform="matrix(1.25,0,0,-1.25,255.66406,469.70313)">
      <path
         d="M 0,0 60.5,0"
         style="fill:#231f20;fill-opacity:1;fill-rule:nonzero;stroke:#231f20;stroke-width:1.5;stroke-linecap:round;stroke-linejoin:miter;stroke-miterlimit:1;stroke-opacity:1;stroke-dasharray:none"
         id="path110"
         inkscape:connector-curvature="0" />
    </g>
    <g
       id="g112"
       transform="matrix(1.25,0,0,-1.25,239.41406,613.45313)">
      <path
         d="M 0,0 64.5,0"
         style="fill:#231f20;fill-opacity:1;fill-rule:nonzero;stroke:#231f20;stroke-width:1.5;stroke-linecap:round;stroke-linejoin:miter;stroke-miterlimit:1;stroke-opacity:1;stroke-dasharray:none"
         id="path114"
         inkscape:connector-curvature="0" />
    </g>
    <g
       id="g116"
       transform="matrix(1.25,0,0,-1.25,302.55368,550.452)">
      <path
         d="M 0,0 0,64.599"
         style="fill:none;stroke:#231f20;stroke-width:1.5;stroke-linecap:round;stroke-linejoin:miter;stroke-miterlimit:1;stroke-opacity:1;stroke-dasharray:none"
         id="path118"
         inkscape:connector-curvature="0" />
    </g>
    <g
       id="g120"
       transform="matrix(1.25,0,0,-1.25,302.55368,613.45313)">
      <path
         d="M 0,0 0,34.5"
         style="fill:none;stroke:#231f20;stroke-width:1.5;stroke-linecap:round;stroke-linejoin:miter;stroke-miterlimit:1;stroke-opacity:1;stroke-dasharray:none"
         id="path122"
         inkscape:connector-curvature="0" />
    </g>
    <text
       style="font-size:15px"
       id="text124"
       x="332.5097"
       y="616.95349">
      <tspan
         style="font-size:17.5px;font-variant:normal;font-weight:bold;writing-mode:lr-tb;fill:#110f0d;fill-opacity:1;fill-rule:nonzero;stroke:none;font-family:Arial;-inkscape-font-specification:Arial-BoldMT"
         x="332.5097"
         y="616.95349"
         id="tspan126">V</tspan>
    </text>
    <text
       style="font-size:15px"
       id="text128"
       x="346.26468"
       y="616.95349">
      <tspan
         style="font-size:17.5px;font-variant:normal;font-weight:bold;writing-mode:lr-tb;fill:#110f0d;fill-opacity:1;fill-rule:nonzero;stroke:none;font-family:Arial;-inkscape-font-specification:Arial-BoldMT"
         x="346.26468"
         y="616.95349"
         id="tspan130">N</tspan>
    </text>
    <g
       id="g132"
       transform="matrix(1.25,0,0,-1.25,360.90756,612.742)">
      <path
         d="m 0,0 c 0,-7.069 -5.444,-12.799 -12.161,-12.799 -6.715,0 -12.16,5.73 -12.16,12.799 0,7.07 5.445,12.8 12.16,12.8 C -5.444,12.8 0,7.07 0,0 z"
         style="fill:none;stroke:#110f0d;stroke-width:1;stroke-linecap:butt;stroke-linejoin:round;stroke-miterlimit:10;stroke-opacity:1;stroke-dasharray:none"
         id="path134"
         inkscape:connector-curvature="0" />
    </g>
    <text
       style="font-size:15px"
       id="text136"
       x="370.13669"
       y="578.39136">
      <tspan
         style="font-size:17.5px;font-variant:normal;font-weight:bold;writing-mode:lr-tb;fill:#0a6b38;fill-opacity:1;fill-rule:nonzero;stroke:none;font-family:Arial;-inkscape-font-specification:Arial-BoldMT"
         x="370.13669 375.00168"
         y="578.39136"
         sodipodi:role="line"
         id="tspan138">IO</tspan>
    </text>
    <path
       d="m 361.29018,613.45312 33.02875,0"
       style="fill:#231f20;fill-opacity:1;fill-rule:nonzero;stroke:none"
       id="path140"
       inkscape:connector-curvature="0" />
    <path
       d="m 396.68144,612.42825 c -1.65375,-0.5 -2.72875,-0.96 -4.05501,-1.49125 l 0,5.04375 c 0.475,-0.225 2.40125,-0.9925 4.05501,-1.49125 1.76875,-0.535 3.37375,-0.90125 4.41375,-1.03125 -1.04,-0.13 -2.645,-0.49625 -4.41375,-1.03"
       style="fill:#231f20;fill-opacity:1;fill-rule:nonzero;stroke:none"
       id="path142"
       inkscape:connector-curvature="0" />
    <g
       id="g144"
       transform="matrix(1.25,0,0,-1.25,361.29018,613.45313)">
      <path
         d="M 0,0 26.423,0"
         style="fill:none;stroke:#231f20;stroke-width:1.5;stroke-linecap:round;stroke-linejoin:miter;stroke-miterlimit:1;stroke-opacity:1;stroke-dasharray:none"
         id="path146"
         inkscape:connector-curvature="0" />
    </g>
    <path
       d="m 397.86131,611.91562 c -2.48,-0.74875 -4.09125,-1.43874 -6.08125,-2.23749 l 0,7.56625 c 0.7125,-0.3375 3.60125,-1.48876 6.08125,-2.2375 2.655,-0.80251 5.06125,-1.35001 6.6225,-1.54625 -1.56125,-0.195 -3.9675,-0.74375 -6.6225,-1.545"
       style="fill:#231f20;fill-opacity:1;fill-rule:nonzero;stroke:none"
       id="path148"
       inkscape:connector-curvature="0" />
    <g
       id="g150"
       transform="matrix(1.25,0,0,-1.25,464.32731,593.25475)">
      <path
         d="m 0,0 c 6.65,18.956 16.722,33.869 22.197,54.462 2.664,10.021 3.842,21.58 7.19,30.148"
         style="fill:none;stroke:#32902d;stroke-width:1.56599998;stroke-linecap:butt;stroke-linejoin:miter;stroke-miterlimit:4;stroke-opacity:1;stroke-dasharray:none"
         id="path152"
         inkscape:connector-curvature="0" />
    </g>
    <g
       id="g154"
       transform="matrix(1.25,0,0,-1.25,434.38356,490.00463)">
      <path
         d="m 0,0 c -0.592,-3.785 -3.668,-5 -6.625,-3.243 -1.064,0.809 -1.891,2.837 -0.709,4.052 0.945,0.812 2.957,0.947 4.258,0.947 0.592,0.136 1.301,-0.271 1.421,0.541 0.116,0 0.235,0 0.354,0.135 0,0.269 0.117,0.541 0,0.81"
         style="fill:none;stroke:#110f0d;stroke-width:3.13100004;stroke-linecap:butt;stroke-linejoin:miter;stroke-miterlimit:4;stroke-opacity:1;stroke-dasharray:none"
         id="path156"
         inkscape:connector-curvature="0" />
    </g>
    <g
       id="g158"
       transform="matrix(1.25,0,0,-1.25,424.32981,489.49925)">
      <path
         d="m 0,0 c 0,-1.486 0.354,-4.594 -1.893,-3.647 -1.3,0.675 -1.42,2.971 -1.42,4.323 0,3.378 1.893,5.811 4.731,6.486 1.066,0.27 4.732,0.406 5.086,1.486"
         style="fill:none;stroke:#110f0d;stroke-width:3.13100004;stroke-linecap:butt;stroke-linejoin:miter;stroke-miterlimit:4;stroke-opacity:1;stroke-dasharray:none"
         id="path160"
         inkscape:connector-curvature="0" />
    </g>
    <g
       id="g162"
       transform="matrix(1.25,0,0,-1.25,426.39768,479.70187)">
      <path
         d="m 0,0 c 0,0.81 0,1.621 -0.236,2.297 -1.065,0.135 -2.838,0.945 -3.43,2.026 -0.709,1.216 -0.709,3.919 -0.117,5.134 0.59,1.352 1.773,2.569 2.601,3.514 1.065,1.08 1.774,2.027 2.838,3.107 0.118,0.272 0.356,0.541 0.356,0.811 C 2.721,17.43 4.377,17.836 4.85,17.16 5.561,16.35 5.561,14.728 5.561,13.377 5.561,12.026 5.205,10.944 4.85,9.593 4.613,8.781 3.904,7.026 4.141,6.215"
         style="fill:none;stroke:#110f0d;stroke-width:3.13100004;stroke-linecap:butt;stroke-linejoin:miter;stroke-miterlimit:4;stroke-opacity:1;stroke-dasharray:none"
         id="path164"
         inkscape:connector-curvature="0" />
    </g>
    <g
       id="g166"
       transform="matrix(1.25,0,0,-1.25,492.78443,455.88838)">
      <path
         d="m 0,0 c 0.117,0.947 1.182,0.947 1.891,0.811 0.828,0 1.065,-0.27 1.774,-0.811 1.064,-1.08 2.013,-1.756 2.959,-2.836 0.591,-0.677 1.064,-1.082 1.536,-1.758 0.473,-0.541 0.947,-1.08 1.42,-1.891 0.354,-0.675 0.592,-1.082 0.826,-2.027 0,-0.405 0.119,-0.81 0.119,-1.351 0,-0.946 0.118,-0.811 -0.591,-1.081 -0.592,-0.271 -1.657,-0.135 -2.366,-0.135 0.83,0 1.893,-3.109 1.301,-3.919 -0.829,-0.945 -3.074,0.946 -3.666,1.351 -1.183,0.676 -2.601,0.811 -4.021,0.405 -0.946,-0.27 -2.602,-1.215 -3.313,-2.16"
         style="fill:none;stroke:#110f0d;stroke-width:3.13100004;stroke-linecap:butt;stroke-linejoin:miter;stroke-miterlimit:4;stroke-opacity:1;stroke-dasharray:none"
         id="path168"
         inkscape:connector-curvature="0" />
    </g>
    <g
       id="g170"
       transform="matrix(1.25,0,0,-1.25,496.33181,483.58675)">
      <path
         d="m 0,0 c 0.355,-0.54 0.236,-0.947 0.945,-1.216 0.709,-0.27 1.539,-0.135 2.248,0 1.42,0 2.721,0.269 3.549,-0.676 0.592,-0.676 0.71,-2.567 0.592,-3.514 -0.119,-1.35 -1.42,-1.485 -2.132,-2.296 -0.709,0 -1.772,-0.135 -2.362,-0.135 -0.83,0.135 -0.949,0.405 -1.539,0.81 -1.065,0.676 -1.774,1.08 -2.485,2.028 -0.945,1.621 -1.654,4.593 -3.548,5.404 -0.118,0.135 0,0.27 -0.118,0.27"
         style="fill:none;stroke:#110f0d;stroke-width:3.13100004;stroke-linecap:butt;stroke-linejoin:miter;stroke-miterlimit:4;stroke-opacity:1;stroke-dasharray:none"
         id="path172"
         inkscape:connector-curvature="0" />
    </g>
    <g
       id="g174"
       transform="matrix(1.25,0,0,-1.25,500.76781,473.95963)">
      <path
         d="m 0,0 c 0.237,-0.541 0.473,-0.811 0.709,-0.945 0,-0.948 0.119,-2.298 -0.236,-2.704 0.355,-0.945 1.062,-0.54 1.656,-0.81 0.353,-0.135 0.945,-0.676 1.418,-1.082 1.065,-0.945 1.183,-2.973 2.012,-4.188 0.472,-3.107 -0.12,-3.513 -1.656,-3.783"
         style="fill:none;stroke:#110f0d;stroke-width:3.13100004;stroke-linecap:butt;stroke-linejoin:miter;stroke-miterlimit:4;stroke-opacity:1;stroke-dasharray:none"
         id="path176"
         inkscape:connector-curvature="0" />
    </g>
    <g
       id="g178"
       transform="matrix(1.25,0,0,-1.25,433.49481,491.69462)">
      <path
         d="m 0,0 c 0.472,-1.756 0.355,-3.243 1.064,-4.864 0.592,-1.081 2.012,-2.702 2.84,-3.243 3.311,-1.891 6.859,-3.919 10.645,-4.054 4.494,-0.27 9.107,0 13.601,0 3.432,0 6.979,-0.136 10.174,0.811 1.064,0.27 1.893,1.081 2.719,1.757 0.83,0.539 2.013,1.08 2.603,2.027 1.42,0.404 3.076,2.432 4.022,3.647 1.537,1.892 1.893,3.649 1.893,6.08"
         style="fill:none;stroke:#110f0d;stroke-width:3.13100004;stroke-linecap:butt;stroke-linejoin:miter;stroke-miterlimit:4;stroke-opacity:1;stroke-dasharray:none"
         id="path180"
         inkscape:connector-curvature="0" />
    </g>
    <path
       d="m 420.18918,490.84937 c 0,1.01375 0.44376,1.85875 0.88876,1.85875 0.59125,0 1.0325,-0.845 1.0325,-1.85875 0,-1.18125 -0.44125,-2.02625 -1.0325,-2.02625 -0.445,0 -0.88876,0.845 -0.88876,2.02625"
       style="fill:#110f0d;fill-opacity:1;fill-rule:nonzero;stroke:none"
       id="path182"
       inkscape:connector-curvature="0" />
    <path
       d="m 420.63356,490.84937 c 0,1.01375 0.44375,1.85875 0.88625,1.85875 0.59125,0 1.035,-0.845 1.035,-1.85875 0,-1.18125 -0.44375,-2.02625 -1.035,-2.02625 -0.4425,0 -0.88625,0.845 -0.88625,2.02625"
       style="fill:#110f0d;fill-opacity:1;fill-rule:nonzero;stroke:none"
       id="path184"
       inkscape:connector-curvature="0" />
    <path
       d="m 421.51968,490.84937 c 0,1.01375 0.44375,1.85875 0.74,1.85875 0.44375,0 0.74,-0.845 0.74,-1.85875 0,-1.18125 -0.29625,-2.02625 -0.74,-2.02625 -0.29625,0 -0.74,0.845 -0.74,2.02625"
       style="fill:#ffffff;fill-opacity:1;fill-rule:nonzero;stroke:none"
       id="path186"
       inkscape:connector-curvature="0" />
    <g
       id="g188"
       transform="matrix(1.25,0,0,-1.25,428.76343,489.877)">
      <path
         d="m 0,0 c 5.311,-16.07 13.588,-25.767 19.257,-41.009 4.899,-13.183 6.048,-31 11.186,-42.468"
         style="fill:none;stroke:#32902d;stroke-width:1.56599998;stroke-linecap:butt;stroke-linejoin:miter;stroke-miterlimit:4;stroke-opacity:1;stroke-dasharray:none"
         id="path190"
         inkscape:connector-curvature="0" />
    </g>
    <g
       transform="matrix(1.25,0,0,-1.25,31.818813,1304.5395)"
       id="g192">
      <g
         id="g194"
         clip-path="url(#clipPath196)">
        <g
           id="g200">
          <g
             id="g206">
            <path
               inkscape:connector-curvature="0"
               d="M 0,0 612,0 612,792 0,792 0,0 z"
               style="fill:url(#linearGradient208);stroke:none"
               id="path214" />
          </g>
        </g>
      </g>
    </g>
    <path
       d="m 408.92756,492.477 -18.95,0 0,-5.29 18.95,0 0,5.29 z"
       style="fill:#231f20;fill-opacity:1;fill-rule:nonzero;stroke:none"
       id="path224"
       inkscape:connector-curvature="0" />
    <text
       style="font-size:15px"
       id="text226"
       x="354.71432"
       y="506.09528">
      <tspan
         style="font-size:17.5px;font-variant:normal;font-weight:bold;writing-mode:lr-tb;fill:#0a6b38;fill-opacity:1;fill-rule:nonzero;stroke:none;font-family:Arial;-inkscape-font-specification:Arial-BoldMT"
         x="354.71432 367.34933"
         y="506.09528"
         sodipodi:role="line"
         id="tspan228">CF</tspan>
    </text>
    <g
       id="g230"
       transform="matrix(1.25,0,0,-1.25,417.40594,500.72362)">
      <path
         d="M 0,0 -25.76,-28.053"
         style="fill:none;stroke:#110f0d;stroke-width:0.5;stroke-linecap:butt;stroke-linejoin:miter;stroke-miterlimit:4;stroke-opacity:1;stroke-dasharray:2, 2;stroke-dashoffset:0"
         id="path232"
         inkscape:connector-curvature="0" />
    </g>
    <g
       id="g234"
       transform="matrix(1.25,0,0,-1.25,413.05781,482.153)">
      <path
         d="M 0,0 -45.496,20.005"
         style="fill:none;stroke:#110f0d;stroke-width:0.5;stroke-linecap:butt;stroke-linejoin:miter;stroke-miterlimit:4;stroke-opacity:1;stroke-dasharray:2, 2;stroke-dashoffset:0"
         id="path236"
         inkscape:connector-curvature="0" />
    </g>
    <path
       d="m 359.29993,466.91687 c 0.36375,-0.0113 0.69626,0.0863 0.9525,0.2525 0.80625,1.56 2.97376,2.7 2.90751,4.2975 -0.0675,1.59625 -1.89375,2.97625 -2.59,4.58875 -0.235,0.1875 -0.55875,0.31 -0.9225,0.32375 -0.35875,0.0125 -0.69375,-0.085 -0.935,-0.2525 -0.24501,-0.17125 -0.40126,-0.41125 -0.40375,-0.6825 0.6475,-2.60375 0.30625,-5.125 -0.29,-7.72875 -0.007,-0.18875 0.11,-0.38 0.36625,-0.47625 0.23,-0.18625 0.55375,-0.30875 0.915,-0.3225"
       style="fill:#0a6b38;fill-opacity:1;fill-rule:nonzero;stroke:none"
       id="path238"
       inkscape:connector-curvature="0" />
    <g
       id="g240"
       transform="matrix(1.25,0,0,-1.25,359.29993,466.91687)">
      <path
         d="M 0,0 C 0.291,0.009 0.557,-0.069 0.762,-0.202 1.407,-1.45 3.141,-2.362 3.088,-3.64 3.034,-4.917 1.573,-6.021 1.016,-7.311 0.828,-7.461 0.569,-7.559 0.278,-7.57 c -0.287,-0.01 -0.555,0.068 -0.748,0.202 -0.196,0.137 -0.321,0.329 -0.323,0.546 0.518,2.083 0.245,4.1 -0.232,6.183 -0.006,0.151 0.088,0.304 0.293,0.381 C -0.548,-0.109 -0.289,-0.011 0,0 z"
         style="fill:none;stroke:#0a6b38;stroke-width:1;stroke-linecap:round;stroke-linejoin:miter;stroke-miterlimit:1;stroke-opacity:1;stroke-dasharray:none"
         id="path242"
         inkscape:connector-curvature="0" />
    </g>
    <g
       id="g244"
       transform="matrix(1.25,0,0,-1.25,335.19531,473.45313)">
      <path
         d="M 0,0 16.001,-13"
         style="fill:#231f20;fill-opacity:1;fill-rule:nonzero;stroke:#231f20;stroke-width:1.5;stroke-linecap:round;stroke-linejoin:miter;stroke-miterlimit:1;stroke-opacity:1;stroke-dasharray:none"
         id="path246"
         inkscape:connector-curvature="0" />
    </g>
    <g
       id="g248"
       transform="matrix(1.25,0,0,-1.25,335.82031,449.07813)">
      <path
         d="M 0,0 0,-19.5"
         style="fill:none;stroke:#231f20;stroke-width:1.5;stroke-linecap:round;stroke-linejoin:miter;stroke-miterlimit:1;stroke-opacity:1;stroke-dasharray:none"
         id="path250"
         inkscape:connector-curvature="0" />
    </g>
    <g
       id="g252"
       transform="matrix(1.25,0,0,-1.25,355.19643,464.07813)">
      <path
         d="M 0,0 0,-19.5"
         style="fill:none;stroke:#231f20;stroke-width:1.5;stroke-linecap:round;stroke-linejoin:miter;stroke-miterlimit:1;stroke-opacity:1;stroke-dasharray:none"
         id="path254"
         inkscape:connector-curvature="0" />
    </g>
    <g
       id="g256"
       transform="matrix(1.25,0,0,-1.25,345.03906,480.95313)">
      <path
         d="M 0,0 0,-11.5"
         style="fill:none;stroke:#231f20;stroke-width:1.5;stroke-linecap:round;stroke-linejoin:miter;stroke-miterlimit:1;stroke-opacity:1;stroke-dasharray:none"
         id="path258"
         inkscape:connector-curvature="0" />
    </g>
    <g
       id="g260"
       transform="matrix(1.25,0,0,-1.25,345.03906,457.51563)">
      <path
         d="M 0,0 0,-19.5"
         style="fill:none;stroke:#231f20;stroke-width:1.5;stroke-linecap:round;stroke-linejoin:miter;stroke-miterlimit:1;stroke-opacity:1;stroke-dasharray:none"
         id="path262"
         inkscape:connector-curvature="0" />
    </g>
    <g
       id="g264"
       transform="matrix(1.25,0,0,-1.25,360.99481,520.17188)">
      <path
         d="m 0,0 c 0,-7.114 -5.658,-12.88 -12.64,-12.88 -6.98,0 -12.639,5.766 -12.639,12.88 0,1.186 0.156,2.335 0.451,3.432 1.948,5.448 5.148,9.289 8.669,13.768 1.92,2.24 5.119,2.24 7.039,0 C -5.6,13.04 -2.399,8.88 -0.451,3.432 -0.156,2.335 0,1.186 0,0 z"
         style="fill:none;stroke:#231f20;stroke-width:1.5;stroke-linecap:round;stroke-linejoin:round;stroke-miterlimit:10;stroke-opacity:1;stroke-dasharray:none"
         id="path266"
         inkscape:connector-curvature="0" />
    </g>
    <g
       id="g268"
       transform="matrix(1.25,0,0,-1.25,345.09756,536.27162)">
      <path
         d="M 0,0 0,-43.745"
         style="fill:none;stroke:#231f20;stroke-width:1.5;stroke-linecap:round;stroke-linejoin:round;stroke-miterlimit:10;stroke-opacity:1;stroke-dasharray:none"
         id="path270"
         inkscape:connector-curvature="0" />
    </g>
    <g
       id="g272"
       transform="matrix(1.25,0,0,-1.25,379.37369,557.20313)">
      <path
         d="M 0,0 0,58.5"
         style="fill:#231f20;fill-opacity:1;fill-rule:nonzero;stroke:#0a6b38;stroke-width:1.5;stroke-linecap:round;stroke-linejoin:miter;stroke-miterlimit:1;stroke-opacity:1;stroke-dasharray:none"
         id="path274"
         inkscape:connector-curvature="0" />
    </g>
    <g
       id="g276"
       transform="matrix(1.25,0,0,-1.25,363.22381,471.456)">
      <path
         d="M 0,0 12.92,-10.598"
         style="fill:none;stroke:#0a6b38;stroke-width:1.5;stroke-linecap:round;stroke-linejoin:miter;stroke-miterlimit:1;stroke-opacity:1;stroke-dasharray:none"
         id="path278"
         inkscape:connector-curvature="0" />
    </g>
    <path
       d="m 331.22981,474.437 c -0.36375,0 -0.69125,-0.11 -0.9425,-0.2875 -0.745,-1.5875 -2.87,-2.80625 -2.74625,-4.4 0.12625,-1.5925 2.00125,-2.905 2.75625,-4.4925 0.2425,-0.1775 0.56875,-0.2875 0.9325,-0.2875 0.36125,0 0.69,0.11 0.9275,0.2875 0.2375,0.17875 0.38375,0.42375 0.37625,0.69625 -0.74125,2.5775 -0.49125,5.11 0.007,7.73375 0,0.18875 -0.12375,0.375 -0.38375,0.46125 -0.2375,0.17875 -0.56625,0.28875 -0.9275,0.28875"
       style="fill:#231f20;fill-opacity:1;fill-rule:nonzero;stroke:none"
       id="path280"
       inkscape:connector-curvature="0" />
    <g
       id="g282"
       transform="matrix(1.25,0,0,-1.25,331.22981,474.437)">
      <path
         d="M 0,0 C -0.291,0 -0.553,0.088 -0.754,0.23 -1.35,1.5 -3.05,2.475 -2.951,3.75 -2.85,5.024 -1.35,6.074 -0.746,7.344 -0.552,7.486 -0.291,7.574 0,7.574 0.289,7.574 0.552,7.486 0.742,7.344 0.932,7.201 1.049,7.005 1.043,6.787 0.45,4.725 0.65,2.699 1.049,0.6 1.049,0.449 0.95,0.3 0.742,0.231 0.552,0.088 0.289,0 0,0 z"
         style="fill:none;stroke:#231f20;stroke-width:1;stroke-linecap:round;stroke-linejoin:miter;stroke-miterlimit:1;stroke-opacity:1;stroke-dasharray:none"
         id="path284"
         inkscape:connector-curvature="0" />
    </g>
    <text
       style="font-size:15px"
       id="text286"
       x="333.26169"
       y="524.54688">
      <tspan
         style="font-size:17.5px;font-variant:normal;font-weight:bold;writing-mode:lr-tb;fill:#231f20;fill-opacity:1;fill-rule:nonzero;stroke:none;font-family:Arial;-inkscape-font-specification:Arial-BoldMT"
         x="333.26169 344.93417"
         y="524.54688"
         sodipodi:role="line"
         id="tspan288">Pk</tspan>
    </text>
    <g
       id="g290"
       transform="matrix(1.25,0,0,-1.25,494.52268,560.12425)">
      <path
         d="M 0,0 -4.061,3.105 4.016,13.66 8.074,10.556 0,0 z"
         style="fill:none;stroke:#110f0d;stroke-width:1.17400002;stroke-linecap:butt;stroke-linejoin:miter;stroke-miterlimit:4;stroke-opacity:1;stroke-dasharray:none"
         id="path292"
         inkscape:connector-curvature="0" />
    </g>
    <path
       d="m 494.52268,560.12425 -5.07625,-3.88125 5.46751,-7.14625 5.075,3.8825 -5.46625,7.145 z"
       style="fill:#32902d;fill-opacity:1;fill-rule:nonzero;stroke:none"
       id="path294"
       inkscape:connector-curvature="0" />
    <g
       id="g296"
       transform="matrix(1.25,0,0,-1.25,494.52268,560.12425)">
      <path
         d="M 0,0 -4.061,3.105 0.313,8.822 4.373,5.716 0,0 z"
         style="fill:none;stroke:#110f0d;stroke-width:0.78299999;stroke-linecap:butt;stroke-linejoin:miter;stroke-miterlimit:4;stroke-opacity:1;stroke-dasharray:none"
         id="path298"
         inkscape:connector-curvature="0" />
    </g>
    <g
       id="g300"
       transform="matrix(1.25,0,0,-1.25,501.90794,544.85938)">
      <path
         d="M 0,0 5.813,7.6"
         style="fill:none;stroke:#110f0d;stroke-width:0.78299999;stroke-linecap:butt;stroke-linejoin:miter;stroke-miterlimit:4;stroke-opacity:1;stroke-dasharray:none"
         id="path302"
         inkscape:connector-curvature="0" />
    </g>
    <g
       id="g304"
       transform="matrix(1.25,0,0,-1.25,507.48406,534.06713)">
      <path
         d="M 0,0 2.84,-2.173"
         style="fill:none;stroke:#110f0d;stroke-width:0.78299999;stroke-linecap:butt;stroke-linejoin:miter;stroke-miterlimit:4;stroke-opacity:1;stroke-dasharray:none"
         id="path306"
         inkscape:connector-curvature="0" />
    </g>
    <g
       id="g308"
       transform="matrix(1.25,0,0,-1.25,491.99831,557.92212)">
      <path
         d="M 0,0 -19.867,-25.973"
         style="fill:none;stroke:#110f0d;stroke-width:1.56599998;stroke-linecap:butt;stroke-linejoin:miter;stroke-miterlimit:4;stroke-opacity:1;stroke-dasharray:none"
         id="path310"
         inkscape:connector-curvature="0" />
    </g>
  </g>
</svg>
