<?xml version="1.0" encoding="UTF-8" standalone="no"?>
<!-- Created with Inkscape (http://www.inkscape.org/) -->

<svg
   xmlns:dc="http://purl.org/dc/elements/1.1/"
   xmlns:cc="http://creativecommons.org/ns#"
   xmlns:rdf="http://www.w3.org/1999/02/22-rdf-syntax-ns#"
   xmlns:svg="http://www.w3.org/2000/svg"
   xmlns="http://www.w3.org/2000/svg"
   xmlns:sodipodi="http://sodipodi.sourceforge.net/DTD/sodipodi-0.dtd"
   xmlns:inkscape="http://www.inkscape.org/namespaces/inkscape"
   width="386.38257"
   height="308.12988"
   id="svg4953"
   version="1.1"
   inkscape:version="0.48.4 r9939"
   sodipodi:docname="New document 9">
  <defs
     id="defs4955" />
  <sodipodi:namedview
     id="base"
     pagecolor="#ffffff"
     bordercolor="#666666"
     borderopacity="1.0"
     inkscape:pageopacity="0.0"
     inkscape:pageshadow="2"
     inkscape:zoom="2.9349151"
     inkscape:cx="193.19128"
     inkscape:cy="154.07769"
     inkscape:document-units="px"
     inkscape:current-layer="layer1"
     showgrid="false"
     fit-margin-top="0"
     fit-margin-left="0"
     fit-margin-right="0"
     fit-margin-bottom="0"
     inkscape:window-width="1264"
     inkscape:window-height="1522"
     inkscape:window-x="1280"
     inkscape:window-y="0"
     inkscape:window-maximized="0" />
  <metadata
     id="metadata4958">
    <rdf:RDF>
      <cc:Work
         rdf:about="">
        <dc:format>image/svg+xml</dc:format>
        <dc:type
           rdf:resource="http://purl.org/dc/dcmitype/StillImage" />
        <dc:title></dc:title>
      </cc:Work>
    </rdf:RDF>
  </metadata>
  <g
     inkscape:label="Layer 1"
     inkscape:groupmode="layer"
     id="layer1"
     transform="translate(-181.80873,-378.31)">
    <text
       style="font-size:15px"
       id="text314"
       x="271.44632"
       y="659.57086">
      <tspan
         style="font-size:14.98137474px;font-variant:normal;font-weight:bold;writing-mode:lr-tb;fill:#231f20;fill-opacity:1;fill-rule:nonzero;stroke:none;font-family:Arial;-inkscape-font-specification:Arial-BoldMT"
         x="271.44632"
         y="659.57086"
         id="tspan316">0</tspan>
    </text>
    <text
       style="font-size:15px"
       id="text318"
       x="333.25946"
       y="659.57086">
      <tspan
         style="font-size:14.98137474px;font-variant:normal;font-weight:bold;writing-mode:lr-tb;fill:#231f20;fill-opacity:1;fill-rule:nonzero;stroke:none;font-family:Arial;-inkscape-font-specification:Arial-BoldMT"
         x="333.25946 341.58908"
         y="659.57086"
         sodipodi:role="line"
         id="tspan320">10</tspan>
    </text>
    <text
       style="font-size:15px"
       id="text322"
       x="399.23743"
       y="659.57086">
      <tspan
         style="font-size:14.98137474px;font-variant:normal;font-weight:bold;writing-mode:lr-tb;fill:#231f20;fill-opacity:1;fill-rule:nonzero;stroke:none;font-family:Arial;-inkscape-font-specification:Arial-BoldMT"
         x="399.23743 407.56708"
         y="659.57086"
         sodipodi:role="line"
         id="tspan324">20</tspan>
    </text>
    <text
       style="font-size:15px"
       id="text326"
       x="465.21545"
       y="659.57086">
      <tspan
         style="font-size:14.98137474px;font-variant:normal;font-weight:bold;writing-mode:lr-tb;fill:#231f20;fill-opacity:1;fill-rule:nonzero;stroke:none;font-family:Arial;-inkscape-font-specification:Arial-BoldMT"
         x="465.21545 473.5451"
         y="659.57086"
         sodipodi:role="line"
         id="tspan328">30</tspan>
    </text>
    <text
       transform="matrix(0,-0.9999964,1.0000036,0,0,0)"
       id="text330"
       x="-555.24677"
       y="194.33498"
       style="font-size:14.99994659px">
      <tspan
         style="font-size:17.50006294px;font-variant:normal;font-weight:bold;writing-mode:lr-tb;fill:#110f0d;fill-opacity:1;fill-rule:nonzero;stroke:none;font-family:Arial;-inkscape-font-specification:Arial-BoldMT"
         x="-555.24677 -544.5542 -534.82416 -525.09418 -518.28662 -507.59409 -502.72906 -492.03653"
         y="194.33498"
         sodipodi:role="line"
         id="tspan332">Learning</tspan>
    </text>
    <text
       transform="matrix(0,-0.9999964,1.0000036,0,0,0)"
       id="text334"
       x="-548.07385"
       y="215.33592"
       style="font-size:14.99994659px">
      <tspan
         style="font-size:17.49993706px;font-variant:normal;font-weight:bold;writing-mode:lr-tb;fill:#110f0d;fill-opacity:1;fill-rule:nonzero;stroke:none;font-family:Arial;-inkscape-font-specification:Arial-BoldMT"
         x="-548.07385"
         y="215.33592"
         id="tspan336">(</tspan>
    </text>
    <text
       transform="matrix(0,-0.9999964,1.0000036,0,0,0)"
       id="text342"
       x="-526.84644"
       y="215.33592"
       style="font-size:14.99994659px">
      <tspan
         style="font-size:17.49993706px;font-variant:normal;font-weight:bold;writing-mode:lr-tb;fill:#110f0d;fill-opacity:1;fill-rule:nonzero;stroke:none;font-family:Arial;-inkscape-font-specification:Arial-BoldMT"
         x="-526.84644 -515.17401 -501.55902 -488.92407"
         y="215.33592"
         sodipodi:role="line"
         id="tspan344">VOR)</tspan>
    </text>
    <text
       style="font-size:15px"
       id="text346"
       x="226.6593"
       y="638.71149">
      <tspan
         style="font-size:15px;font-variant:normal;font-weight:bold;writing-mode:lr-tb;fill:#231f20;fill-opacity:1;fill-rule:nonzero;stroke:none;font-family:Arial;-inkscape-font-specification:Arial-BoldMT"
         x="226.6593 231.65431 235.82431 244.16431 252.5043"
         y="638.71149"
         sodipodi:role="line"
         id="tspan348">- 50%</tspan>
    </text>
    <text
       style="font-size:15px"
       id="text350"
       x="244.16431"
       y="490.93149">
      <tspan
         style="font-size:15px;font-variant:normal;font-weight:bold;writing-mode:lr-tb;fill:#231f20;fill-opacity:1;fill-rule:nonzero;stroke:none;font-family:Arial;-inkscape-font-specification:Arial-BoldMT"
         x="244.16431 252.5043"
         y="490.93149"
         sodipodi:role="line"
         id="tspan352">0%</tspan>
    </text>
    <text
       style="font-size:15px"
       id="text354"
       x="235.82431"
       y="417.0415">
      <tspan
         style="font-size:15px;font-variant:normal;font-weight:bold;writing-mode:lr-tb;fill:#231f20;fill-opacity:1;fill-rule:nonzero;stroke:none;font-family:Arial;-inkscape-font-specification:Arial-BoldMT"
         x="235.82431 244.16431 252.5043"
         y="417.0415"
         sodipodi:role="line"
         id="tspan356">25%</tspan>
    </text>
    <text
       style="font-size:15px"
       id="text358"
       x="226.6593"
       y="566.06653">
      <tspan
         style="font-size:15px;font-variant:normal;font-weight:bold;writing-mode:lr-tb;fill:#231f20;fill-opacity:1;fill-rule:nonzero;stroke:none;font-family:Arial;-inkscape-font-specification:Arial-BoldMT"
         x="226.6593 231.65431 235.82431 244.16431 252.5043"
         y="566.06653"
         sodipodi:role="line"
         id="tspan360">- 25%</tspan>
    </text>
    <path
       inkscape:connector-curvature="0"
       id="path364"
       style="fill:#231f20;fill-opacity:1;fill-rule:nonzero;stroke:#231f20;stroke-width:0.625;stroke-linecap:butt;stroke-linejoin:miter;stroke-miterlimit:4;stroke-opacity:1;stroke-dasharray:none"
       d="m 494.41755,402.72638 0,56.9725" />
    <path
       inkscape:connector-curvature="0"
       id="path368"
       style="fill:#231f20;fill-opacity:1;fill-rule:nonzero;stroke:#231f20;stroke-width:0.625;stroke-linecap:butt;stroke-linejoin:miter;stroke-miterlimit:4;stroke-opacity:1;stroke-dasharray:none"
       d="m 489.74468,402.72638 4.67,0" />
    <path
       inkscape:connector-curvature="0"
       id="path372"
       style="fill:#231f20;fill-opacity:1;fill-rule:nonzero;stroke:#231f20;stroke-width:0.625;stroke-linecap:butt;stroke-linejoin:miter;stroke-miterlimit:4;stroke-opacity:1;stroke-dasharray:none"
       d="m 489.74468,459.6845 4.67,0" />
    <text
       style="font-size:15px"
       id="text374"
       x="498.16995"
       y="433.26599">
      <tspan
         style="font-size:17.5px;font-variant:normal;font-weight:normal;writing-mode:lr-tb;fill:#231f20;fill-opacity:1;fill-rule:nonzero;stroke:none;font-family:SimSun;-inkscape-font-specification:SimSun"
         x="498.16995"
         y="433.26599"
         id="tspan376">*</tspan>
    </text>
    <text
       style="font-size:15px"
       id="text378"
       x="503.20993"
       y="403.4635">
      <tspan
         style="font-size:17.5px;font-variant:normal;font-weight:bold;writing-mode:lr-tb;fill:#231f20;fill-opacity:1;fill-rule:nonzero;stroke:none;font-family:Arial;-inkscape-font-specification:Arial-BoldMT"
         x="503.20993 515.84491 526.53748 537.22992 543.05743 549.86493 560.55743"
         y="403.4635"
         sodipodi:role="line"
         id="tspan380">Control</tspan>
    </text>
    <text
       style="font-size:15px"
       id="text382"
       x="503.20993"
       y="466.53351">
      <tspan
         style="font-size:17.5px;font-variant:normal;font-weight:bold;writing-mode:lr-tb;fill:#0b8ed8;fill-opacity:1;fill-rule:nonzero;stroke:none;font-family:Arial;-inkscape-font-specification:Arial-BoldMT"
         x="503.20993 515.84491 526.53748 531.40247 543.07495 548.90247 553.76746"
         y="466.53351"
         sodipodi:role="line"
         id="tspan384">CF Stim</tspan>
    </text>
    <path
       d="m 274.07956,381.91325 0.45875,0 0,253.15125 -0.45875,0 0,-253.15125 z"
       style="fill:#808182;fill-opacity:1;fill-rule:nonzero;stroke:none"
       id="path386"
       inkscape:connector-curvature="0" />
    <path
       d="m 274.07956,381.91325 0.46,0 0,253.15125 -0.46,0 0,-253.15125 z"
       style="fill:none;stroke:#808182;stroke-width:1.03750002;stroke-linecap:butt;stroke-linejoin:bevel;stroke-miterlimit:10;stroke-opacity:1;stroke-dasharray:none"
       id="path388"
       inkscape:connector-curvature="0" />
    <path
       d="m 271.55706,412.302 2.75375,0 0,0.45875 -2.75375,0 0,-0.45875 z m 0,73.87125 2.75375,0 0,0.4575 -2.75375,0 0,-0.4575 z m 0,74.32875 2.75375,0 0,0.46125 -2.75375,0 0,-0.46125 z m 0,74.33125 2.75375,0 0,0.46125 -2.75375,0 0,-0.46125 z"
       style="fill:#808182;fill-opacity:1;fill-rule:nonzero;stroke:none"
       id="path390"
       inkscape:connector-curvature="0" />
    <path
       d="m 271.55706,412.302 2.75375,0 0,0.45875 -2.75375,0 0,-0.45875 z m 0,73.87125 2.75375,0 0,0.45875 -2.75375,0 0,-0.45875 z m 0,74.32875 2.75375,0 0,0.46125 -2.75375,0 0,-0.46125 z m 0,74.33125 2.75375,0 0,0.46125 -2.75375,0 0,-0.46125 z"
       style="fill:none;stroke:#808182;stroke-width:1.03750002;stroke-linecap:butt;stroke-linejoin:bevel;stroke-miterlimit:10;stroke-opacity:1;stroke-dasharray:none"
       id="path392"
       inkscape:connector-curvature="0" />
    <path
       d="m 274.30831,486.17325 201.88624,0 0,0.4575 -201.88624,0 0,-0.4575 z"
       style="fill:#808182;fill-opacity:1;fill-rule:nonzero;stroke:none"
       id="path394"
       inkscape:connector-curvature="0" />
    <path
       d="m 274.30831,486.17325 201.88624,0 0,0.45875 -201.88624,0 0,-0.45875 z"
       style="fill:none;stroke:#808182;stroke-width:1.03750002;stroke-linecap:butt;stroke-linejoin:bevel;stroke-miterlimit:10;stroke-opacity:1;stroke-dasharray:none"
       id="path396"
       inkscape:connector-curvature="0" />
    <path
       d="m 476.42455,489.61325 -0.45875,0 0,-3.21 0.45875,0 0,3.21 z m -66.99,0 -0.45875,0 0,-3.21 0.45875,0 0,3.21 z m -67.4475,0 -0.45875,0 0,-3.21 0.45875,0 0,3.21 z m -67.44749,0 -0.45875,0 0,-3.21 0.45875,0 0,3.21 z"
       style="fill:#808182;fill-opacity:1;fill-rule:nonzero;stroke:none"
       id="path398"
       inkscape:connector-curvature="0" />
    <path
       d="m 476.42455,489.61325 -0.45875,0 0,-3.21 0.45875,0 0,3.21 z m -66.99,0 -0.45875,0 0,-3.21 0.45875,0 0,3.21 z m -67.4475,0 -0.46,0 0,-3.21 0.46,0 0,3.21 z m -67.44749,0 -0.46,0 0,-3.21 0.46,0 0,3.21 z"
       style="fill:none;stroke:#808182;stroke-width:1.03750002;stroke-linecap:butt;stroke-linejoin:bevel;stroke-miterlimit:10;stroke-opacity:1;stroke-dasharray:none"
       id="path400"
       inkscape:connector-curvature="0" />
    <path
       inkscape:connector-curvature="0"
       id="path404"
       style="fill:none;stroke:#110f0d;stroke-width:1.03750002;stroke-linecap:butt;stroke-linejoin:round;stroke-miterlimit:10;stroke-opacity:1;stroke-dasharray:none"
       d="m 273.39093,486.86213 2.7525,0 m -2.7525,0 2.7525,0 m -1.37625,0 0,0" />
    <path
       d="m 340.83968,402.43588 2.7525,0 -2.7525,0 z m 0,49.12375 2.7525,0 -2.7525,0 z m 1.37625,0 0,-24.54625 0,-24.5775 0,49.12375 z"
       style="fill:#110f0d;fill-opacity:1;fill-rule:nonzero;stroke:none"
       id="path406"
       inkscape:connector-curvature="0" />
    <path
       d="m 340.83955,402.207 2.75375,0 0,0.45875 -2.75375,0 0,-0.45875 z m 0,49.125 2.75375,0 0,0.45875 -2.75375,0 0,-0.45875 z m 1.1475,0.2275 0,-24.54625 0,-24.5775 0.45875,0 0,24.5775 0,24.54625 -0.45875,0 z"
       style="fill:#110f0d;fill-opacity:1;fill-rule:nonzero;stroke:none"
       id="path408"
       inkscape:connector-curvature="0" />
    <path
       d="m 340.83955,402.207 2.75375,0 0,0.45875 -2.75375,0 0,-0.45875 z m 0,49.125 2.75375,0 0,0.45875 -2.75375,0 0,-0.45875 z m 1.1475,0.2275 0,-24.54625 0,-24.5775 0.45875,0 0,24.5775 0,24.54625 -0.45875,0 z"
       style="fill:none;stroke:#110f0d;stroke-width:0.065;stroke-linecap:butt;stroke-linejoin:round;stroke-miterlimit:10;stroke-opacity:1;stroke-dasharray:none"
       id="path410"
       inkscape:connector-curvature="0" />
    <path
       d="m 407.82818,401.51788 2.75375,0 -2.75375,0 z m 0,48.17875 2.75375,0 -2.75375,0 z m 1.3775,0 0,-24.09 0,-24.08875 0,48.17875 z"
       style="fill:#110f0d;fill-opacity:1;fill-rule:nonzero;stroke:none"
       id="path412"
       inkscape:connector-curvature="0" />
    <path
       d="m 407.8283,401.29075 2.75375,0 0,0.45625 -2.75375,0 0,-0.45625 z m 0,48.17625 2.75375,0 0,0.45875 -2.75375,0 0,-0.45875 z m 1.15,0.23 0,-24.09 0,-24.08875 0.45625,0 0,24.08875 0,24.09 -0.45625,0 z"
       style="fill:#110f0d;fill-opacity:1;fill-rule:nonzero;stroke:none"
       id="path414"
       inkscape:connector-curvature="0" />
    <path
       d="m 407.8283,401.29075 2.75375,0 0,0.45625 -2.75375,0 0,-0.45625 z m 0,48.17625 2.75375,0 0,0.45875 -2.75375,0 0,-0.45875 z m 1.15,0.23 0,-24.09 0,-24.08875 0.45625,0 0,24.08875 0,24.09 -0.45625,0 z"
       style="fill:none;stroke:#110f0d;stroke-width:0.065;stroke-linecap:butt;stroke-linejoin:round;stroke-miterlimit:10;stroke-opacity:1;stroke-dasharray:none"
       id="path416"
       inkscape:connector-curvature="0" />
    <path
       d="m 475.27693,378.576 2.75125,0 -2.75125,0 z m 0,56.92375 2.75125,0 -2.75125,0 z m 1.3775,0 0,-28.445 0,-28.47875 0,56.92375 z"
       style="fill:#110f0d;fill-opacity:1;fill-rule:nonzero;stroke:none"
       id="path418"
       inkscape:connector-curvature="0" />
    <path
       d="m 475.27705,378.347 2.75125,0 0,0.46125 -2.75125,0 0,-0.46125 z m 0,56.92375 2.75125,0 0,0.45875 -2.75125,0 0,-0.45875 z m 1.1475,0.22875 0,-28.445 0,-28.47875 0.45625,0 0,28.47875 0,28.445 -0.45625,0 z"
       style="fill:#110f0d;fill-opacity:1;fill-rule:nonzero;stroke:none"
       id="path420"
       inkscape:connector-curvature="0" />
    <path
       d="m 475.27705,378.347 2.75125,0 0,0.46125 -2.75125,0 0,-0.46125 z m 0,56.92375 2.75125,0 0,0.45875 -2.75125,0 0,-0.45875 z m 1.1475,0.22875 0,-28.445 0,-28.47875 0.45625,0 0,28.47875 0,28.445 -0.45625,0 z"
       style="fill:none;stroke:#110f0d;stroke-width:0.065;stroke-linecap:butt;stroke-linejoin:round;stroke-miterlimit:10;stroke-opacity:1;stroke-dasharray:none"
       id="path422"
       inkscape:connector-curvature="0" />
    <path
       inkscape:connector-curvature="0"
       id="path426"
       style="fill:none;stroke:#547ec5;stroke-width:1.03750002;stroke-linecap:butt;stroke-linejoin:round;stroke-miterlimit:10;stroke-opacity:1;stroke-dasharray:none"
       d="m 273.39093,486.86213 2.7525,0 m -2.7525,0 2.7525,0 m -1.37625,0 0,0" />
    <path
       d="m 340.83968,468.96663 2.7525,0 -2.7525,0 z m 0,30.7425 2.7525,0 -2.7525,0 z m 1.37625,0 0,-15.37125 0,-15.37125 0,30.7425 z"
       style="fill:#110f0d;fill-opacity:1;fill-rule:nonzero;stroke:none"
       id="path428"
       inkscape:connector-curvature="0" />
    <path
       d="m 340.83955,468.737 2.75375,0 0,0.45875 -2.75375,0 0,-0.45875 z m 0,30.7425 2.75375,0 0,0.45875 -2.75375,0 0,-0.45875 z m 1.1475,0.22875 0,-15.37 0,-15.37125 0.45875,0 0,15.37125 0,15.37 -0.45875,0 z"
       style="fill:#0b8ed8;fill-opacity:1;fill-rule:nonzero;stroke:none"
       id="path430"
       inkscape:connector-curvature="0" />
    <path
       d="m 340.83955,468.737 2.75375,0 0,0.45875 -2.75375,0 0,-0.45875 z m 0,30.7425 2.75375,0 0,0.45875 -2.75375,0 0,-0.45875 z m 1.1475,0.22875 0,-15.37 0,-15.37125 0.45875,0 0,15.37125 0,15.37 -0.45875,0 z"
       style="fill:none;stroke:#0b8ed8;stroke-width:0.64999998;stroke-linecap:butt;stroke-linejoin:miter;stroke-miterlimit:4;stroke-opacity:1;stroke-dasharray:none"
       id="path432"
       inkscape:connector-curvature="0" />
    <path
       d="m 407.82818,468.96663 2.75375,0 -2.75375,0 z m 0,39.46 2.75375,0 -2.75375,0 z m 1.3775,0 0,-19.72875 0,-19.73125 0,39.46 z"
       style="fill:#110f0d;fill-opacity:1;fill-rule:nonzero;stroke:none"
       id="path434"
       inkscape:connector-curvature="0" />
    <path
       d="m 407.8283,468.737 2.75375,0 0,0.45875 -2.75375,0 0,-0.45875 z m 0,39.46 2.75375,0 0,0.45875 -2.75375,0 0,-0.45875 z m 1.15,0.23 0,-19.72875 0,-19.73125 0.45625,0 0,19.73125 0,19.72875 -0.45625,0 z"
       style="fill:#0b8ed8;fill-opacity:1;fill-rule:nonzero;stroke:none"
       id="path436"
       inkscape:connector-curvature="0" />
    <path
       d="m 407.8283,468.737 2.75375,0 0,0.45875 -2.75375,0 0,-0.45875 z m 0,39.46 2.75375,0 0,0.46 -2.75375,0 0,-0.46 z m 1.15,0.23 0,-19.72875 0,-19.73125 0.45625,0 0,19.73125 0,19.72875 -0.45625,0 z"
       style="fill:none;stroke:#0b8ed8;stroke-width:0.64999998;stroke-linecap:butt;stroke-linejoin:miter;stroke-miterlimit:4;stroke-opacity:1;stroke-dasharray:none"
       id="path438"
       inkscape:connector-curvature="0" />
    <path
       d="m 475.27693,440.51938 2.75125,0 -2.75125,0 z m 0,38.08374 2.75125,0 -2.75125,0 z m 1.3775,0 0,-19.04124 0,-19.0425 0,38.08374 z"
       style="fill:#110f0d;fill-opacity:1;fill-rule:nonzero;stroke:none"
       id="path440"
       inkscape:connector-curvature="0" />
    <path
       d="m 475.27705,440.2895 2.75125,0 0,0.4575 -2.75125,0 0,-0.4575 z m 0,38.08375 2.75125,0 0,0.45875 -2.75125,0 0,-0.45875 z m 1.1475,0.23 0,-19.04125 0,-19.0425 0.45625,0 0,19.0425 0,19.04125 -0.45625,0 z"
       style="fill:#0b8ed8;fill-opacity:1;fill-rule:nonzero;stroke:none"
       id="path442"
       inkscape:connector-curvature="0" />
    <path
       d="m 475.27705,440.2895 2.75125,0 0,0.45875 -2.75125,0 0,-0.45875 z m 0,38.08375 2.75125,0 0,0.45875 -2.75125,0 0,-0.45875 z m 1.1475,0.23 0,-19.04125 0,-19.0425 0.45625,0 0,19.0425 0,19.04125 -0.45625,0 z"
       style="fill:none;stroke:#0b8ed8;stroke-width:0.64999998;stroke-linecap:butt;stroke-linejoin:miter;stroke-miterlimit:4;stroke-opacity:1;stroke-dasharray:none"
       id="path444"
       inkscape:connector-curvature="0" />
    <path
       inkscape:connector-curvature="0"
       id="path448"
       style="fill:none;stroke:#110f0d;stroke-width:1.03750002;stroke-linecap:butt;stroke-linejoin:round;stroke-miterlimit:10;stroke-opacity:1;stroke-dasharray:none"
       d="m 273.39093,486.86213 2.7525,0 m -2.7525,0 2.7525,0 m -1.37625,0 0,0" />
    <path
       d="m 340.83968,565.78062 2.7525,0 -2.7525,0 z m 0,14.22375 2.7525,0 -2.7525,0 z m 1.37625,0 0,-7.11249 0,-7.11126 0,14.22375 z"
       style="fill:#110f0d;fill-opacity:1;fill-rule:nonzero;stroke:none"
       id="path450"
       inkscape:connector-curvature="0" />
    <path
       d="m 340.83955,565.55075 2.75375,0 0,0.45875 -2.75375,0 0,-0.45875 z m 0,14.22375 2.75375,0 0,0.45875 -2.75375,0 0,-0.45875 z m 1.1475,0.23 0,-7.1125 0,-7.11125 0.45875,0 0,7.11125 0,7.1125 -0.45875,0 z"
       style="fill:#110f0d;fill-opacity:1;fill-rule:nonzero;stroke:none"
       id="path452"
       inkscape:connector-curvature="0" />
    <path
       d="m 340.83955,565.55075 2.75375,0 0,0.4575 -2.75375,0 0,-0.4575 z m 0,14.22375 2.75375,0 0,0.45875 -2.75375,0 0,-0.45875 z m 1.1475,0.23 0,-7.1125 0,-7.11125 0.45875,0 0,7.11125 0,7.1125 -0.45875,0 z"
       style="fill:none;stroke:#110f0d;stroke-width:0.065;stroke-linecap:butt;stroke-linejoin:round;stroke-miterlimit:10;stroke-opacity:1;stroke-dasharray:none"
       id="path454"
       inkscape:connector-curvature="0" />
    <path
       d="m 407.82818,571.286 2.75375,0 -2.75375,0 z m 0,23.40125 2.75375,0 -2.75375,0 z m 1.3775,0 0,-11.7025 0,-11.69875 0,23.40125 z"
       style="fill:#110f0d;fill-opacity:1;fill-rule:nonzero;stroke:none"
       id="path456"
       inkscape:connector-curvature="0" />
    <path
       d="m 407.8283,571.057 2.75375,0 0,0.45875 -2.75375,0 0,-0.45875 z m 0,23.4 2.75375,0 0,0.45875 -2.75375,0 0,-0.45875 z m 1.15,0.23 0,-11.70125 0,-11.7 0.45625,0 0,11.7 0,11.70125 -0.45625,0 z"
       style="fill:#110f0d;fill-opacity:1;fill-rule:nonzero;stroke:none"
       id="path458"
       inkscape:connector-curvature="0" />
    <path
       d="m 407.8283,571.057 2.75375,0 0,0.45875 -2.75375,0 0,-0.45875 z m 0,23.4 2.75375,0 0,0.4575 -2.75375,0 0,-0.4575 z m 1.15,0.23 0,-11.70125 0,-11.7 0.45625,0 0,11.7 0,11.70125 -0.45625,0 z"
       style="fill:none;stroke:#110f0d;stroke-width:0.065;stroke-linecap:butt;stroke-linejoin:round;stroke-miterlimit:10;stroke-opacity:1;stroke-dasharray:none"
       id="path460"
       inkscape:connector-curvature="0" />
    <path
       d="m 475.27705,586.657 2.75125,0 0,0.45875 -2.75125,0 0,-0.45875 z m 0,30.7425 2.75125,0 0,0.45875 -2.75125,0 0,-0.45875 z m 1.1475,0.22875 0,-15.37 0,-15.37125 0.45625,0 0,15.37125 0,15.37 -0.45625,0 z"
       style="fill:#110f0d;fill-opacity:1;fill-rule:nonzero;stroke:none"
       id="path462"
       inkscape:connector-curvature="0" />
    <path
       d="m 475.27705,586.657 2.75125,0 0,0.45875 -2.75125,0 0,-0.45875 z m 0,30.7425 2.75125,0 0,0.45875 -2.75125,0 0,-0.45875 z m 1.1475,0.22875 0,-15.37 0,-15.37125 0.45625,0 0,15.37125 0,15.37 -0.45625,0 z"
       style="fill:none;stroke:#110f0d;stroke-width:0.065;stroke-linecap:butt;stroke-linejoin:round;stroke-miterlimit:10;stroke-opacity:1;stroke-dasharray:none"
       id="path464"
       inkscape:connector-curvature="0" />
    <path
       inkscape:connector-curvature="0"
       id="path468"
       style="fill:none;stroke:#547ec5;stroke-width:1.03750002;stroke-linecap:butt;stroke-linejoin:round;stroke-miterlimit:10;stroke-opacity:1;stroke-dasharray:none"
       d="m 273.39093,486.86213 2.7525,0 m -2.7525,0 2.7525,0 m -1.37625,0 0,0" />
    <path
       d="m 340.83968,528.61513 2.7525,0 -2.7525,0 z m 0,66.53125 2.7525,0 -2.7525,0 z m 1.37625,0 0,-33.265 0,-33.26625 0,66.53125 z"
       style="fill:#110f0d;fill-opacity:1;fill-rule:nonzero;stroke:none"
       id="path470"
       inkscape:connector-curvature="0" />
    <path
       d="m 340.83955,528.38575 2.75375,0 0,0.45875 -2.75375,0 0,-0.45875 z m 0,66.53 2.75375,0 0,0.45875 -2.75375,0 0,-0.45875 z m 1.1475,0.23 0,-33.26375 0,-33.2675 0.45875,0 0,33.2675 0,33.26375 -0.45875,0 z"
       style="fill:#0b8ed8;fill-opacity:1;fill-rule:nonzero;stroke:none"
       id="path472"
       inkscape:connector-curvature="0" />
    <path
       d="m 340.83955,528.38575 2.75375,0 0,0.45875 -2.75375,0 0,-0.45875 z m 0,66.53 2.75375,0 0,0.46 -2.75375,0 0,-0.46 z m 1.1475,0.23 0,-33.26375 0,-33.2675 0.45875,0 0,33.2675 0,33.26375 -0.45875,0 z"
       style="fill:none;stroke:#0b8ed8;stroke-width:0.64999998;stroke-linecap:butt;stroke-linejoin:miter;stroke-miterlimit:4;stroke-opacity:1;stroke-dasharray:none"
       id="path474"
       inkscape:connector-curvature="0" />
    <path
       d="m 407.82818,563.02675 2.75375,0 -2.75375,0 z m 0,43.58875 2.75375,0 -2.75375,0 z m 1.3775,0 0,-21.79375 0,-21.795 0,43.58875 z"
       style="fill:#110f0d;fill-opacity:1;fill-rule:nonzero;stroke:none"
       id="path476"
       inkscape:connector-curvature="0" />
    <path
       d="m 407.8283,562.797 2.75375,0 0,0.46125 -2.75375,0 0,-0.46125 z m 0,43.59125 2.75375,0 0,0.45625 -2.75375,0 0,-0.45625 z m 1.15,0.2275 0,-21.795 0,-21.79375 0.45625,0 0,21.79375 0,21.795 -0.45625,0 z"
       style="fill:#0b8ed8;fill-opacity:1;fill-rule:nonzero;stroke:none"
       id="path478"
       inkscape:connector-curvature="0" />
    <path
       d="m 407.8283,562.797 2.75375,0 0,0.46125 -2.75375,0 0,-0.46125 z m 0,43.59125 2.75375,0 0,0.45625 -2.75375,0 0,-0.45625 z m 1.15,0.2275 0,-21.795 0,-21.79375 0.45625,0 0,21.79375 0,21.795 -0.45625,0 z"
       style="fill:none;stroke:#0b8ed8;stroke-width:0.64999998;stroke-linecap:butt;stroke-linejoin:miter;stroke-miterlimit:4;stroke-opacity:1;stroke-dasharray:none"
       id="path480"
       inkscape:connector-curvature="0" />
    <path
       d="m 475.27693,591.933 2.75125,0 -2.75125,0 z m 0,32.11875 2.75125,0 -2.75125,0 z m 1.3775,0 0,-16.05875 0,-16.06 0,32.11875 z"
       style="fill:#110f0d;fill-opacity:1;fill-rule:nonzero;stroke:none"
       id="path482"
       inkscape:connector-curvature="0" />
    <path
       d="m 475.27705,591.70325 2.75125,0 0,0.45875 -2.75125,0 0,-0.45875 z m 0,32.11875 2.75125,0 0,0.45875 -2.75125,0 0,-0.45875 z m 1.1475,0.23 0,-16.06 0,-16.05875 0.45625,0 0,16.05875 0,16.06 -0.45625,0 z"
       style="fill:#0b8ed8;fill-opacity:1;fill-rule:nonzero;stroke:none"
       id="path484"
       inkscape:connector-curvature="0" />
    <path
       d="m 475.27705,591.70325 2.75125,0 0,0.45875 -2.75125,0 0,-0.45875 z m 0,32.11875 2.75125,0 0,0.46 -2.75125,0 0,-0.46 z m 1.1475,0.23 0,-16.06 0,-16.05875 0.45625,0 0,16.05875 0,16.06 -0.45625,0 z"
       style="fill:none;stroke:#0b8ed8;stroke-width:0.64999998;stroke-linecap:butt;stroke-linejoin:miter;stroke-miterlimit:4;stroke-opacity:1;stroke-dasharray:none"
       id="path486"
       inkscape:connector-curvature="0" />
    <path
       d="m 273.56306,485.57063 67.44749,-59.64875 c 0.20125,-0.2 0.46,-0.285 0.74625,-0.315 l 67.44875,-1.37625 -0.28625,0.0587 66.9875,-18.81375 c 0.6025,-0.17125 1.2325,0.1725 1.40625,0.8025 0.17125,0.60375 -0.17375,1.23375 -0.80375,1.40625 l -66.98875,18.81125 c -0.0862,0.03 -0.17125,0.03 -0.28625,0.03 l -67.45,1.37625 0.7475,-0.2875 -67.44874,59.64874 c -0.48875,0.42875 -1.205,0.4 -1.605,-0.0862 -0.43125,-0.4875 -0.4025,-1.20375 0.085,-1.60625"
       style="fill:#110f0d;fill-opacity:1;fill-rule:nonzero;stroke:none"
       id="path488"
       inkscape:connector-curvature="0" />
    <path
       inkscape:connector-curvature="0"
       id="path492"
       style="fill:none;stroke:#110f0d;stroke-width:1.03750002;stroke-linecap:butt;stroke-linejoin:bevel;stroke-miterlimit:10;stroke-opacity:1;stroke-dasharray:none"
       d="m 273.56306,485.57063 67.44749,-59.64875 c 0.20125,-0.2 0.46,-0.285 0.74625,-0.315 l 67.44875,-1.37625 -0.28625,0.0587 66.9875,-18.81375 c 0.6025,-0.17125 1.2325,0.1725 1.40625,0.8025 0.17125,0.60375 -0.17375,1.23375 -0.80375,1.40625 l -66.98875,18.81125 c -0.0862,0.03 -0.17125,0.03 -0.28625,0.03 l -67.45,1.37625 0.7475,-0.2875 -67.44874,59.64874 c -0.48875,0.42875 -1.205,0.4 -1.605,-0.0862 -0.43125,-0.4875 -0.4025,-1.20375 0.085,-1.60625 z" />
    <path
       d="m 277.46318,486.63025 c 0,1.665 -1.32,2.98375 -2.9825,2.98375 -1.63375,0 -2.9825,-1.31875 -2.9825,-2.98375 0,-1.63375 1.34875,-2.98125 2.9825,-2.98125 1.6625,0 2.9825,1.3475 2.9825,2.98125"
       style="fill:#110f0d;fill-opacity:1;fill-rule:nonzero;stroke:none"
       id="path494"
       inkscape:connector-curvature="0" />
    <path
       d="m 276.34443,485.68538 0.145,0.315 -0.63125,-0.9475 0.22875,0.25875 -0.94625,-0.65875 0.34375,0.14375 -1.17625,-0.23 0.37375,0 -1.1475,0.23 0.345,-0.14375 -0.9475,0.65875 0.23,-0.22875 -0.65875,0.94625 0.1425,-0.34375 -0.23,1.1475 0,-0.37375 0.23,1.175 -0.1425,-0.3425 0.65875,0.945 -0.2575,-0.23 0.945,0.6325 -0.315,-0.14375 1.1475,0.23 -0.37375,0 1.17625,-0.23 -0.31625,0.14375 0.9475,-0.6325 -0.2575,0.25875 0.63125,-0.94375 -0.145,0.3125 0.22875,-1.175 0,0.37375 -0.22875,-1.1475 z m 2.0375,0.77375 c 0.0275,0.115 0.0275,0.23 0,0.37375 l -0.23125,1.17375 c -0.0288,0.1175 -0.0838,0.23 -0.1425,0.3175 l -0.63125,0.945 c -0.0563,0.115 -0.1425,0.2 -0.2575,0.25875 l -0.94625,0.62999 c -0.0863,0.0588 -0.20125,0.1175 -0.315,0.14375 l -1.17625,0.23 c -0.1425,0.0288 -0.25875,0.0288 -0.37375,0 l -1.14625,-0.23 c -0.115,-0.0262 -0.23,-0.085 -0.315,-0.14375 l -0.9475,-0.62999 c -0.115,-0.0588 -0.2,-0.14376 -0.25875,-0.22875 l -0.65875,-0.94625 c -0.0575,-0.11625 -0.115,-0.22875 -0.1425,-0.34625 l -0.23,-1.17375 c -0.0275,-0.14375 -0.0275,-0.25875 0,-0.37375 l 0.23,-1.1475 c 0.0275,-0.1125 0.085,-0.22875 0.1425,-0.34125 l 0.65875,-0.9475 c 0.0588,-0.0875 0.14375,-0.17376 0.23125,-0.23 l 0.94625,-0.65875 c 0.11375,-0.0588 0.22875,-0.115 0.34375,-0.14375 l 1.14625,-0.23 c 0.115,-0.0288 0.23125,-0.0288 0.37375,0 l 1.17625,0.23 c 0.11375,0.0288 0.22875,0.085 0.345,0.14375 l 0.9425,0.65875 c 0.0887,0.0862 0.175,0.1425 0.23125,0.25874 l 0.63125,0.94501 c 0.0588,0.0862 0.11375,0.2025 0.1425,0.315 l 0.23125,1.1475 z"
       style="fill:#110f0d;fill-opacity:1;fill-rule:nonzero;stroke:none"
       id="path496"
       inkscape:connector-curvature="0" />
    <path
       inkscape:connector-curvature="0"
       id="path500"
       style="fill:none;stroke:#110f0d;stroke-width:0.065;stroke-linecap:butt;stroke-linejoin:round;stroke-miterlimit:10;stroke-opacity:1;stroke-dasharray:none"
       d="m 276.34443,485.68538 0.145,0.315 -0.63125,-0.9475 0.22875,0.25875 -0.94625,-0.65875 0.34375,0.14375 -1.17625,-0.23 0.37375,0 -1.1475,0.23 0.345,-0.14375 -0.9475,0.65875 0.23,-0.22875 -0.65875,0.94625 0.1425,-0.34375 -0.23,1.1475 0,-0.37375 0.23,1.175 -0.1425,-0.3425 0.65875,0.945 -0.2575,-0.23 0.945,0.6325 -0.315,-0.14375 1.1475,0.23 -0.37375,0 1.17625,-0.23 -0.31625,0.14375 0.9475,-0.6325 -0.2575,0.25875 0.63125,-0.94375 -0.145,0.3125 0.22875,-1.175 0,0.37375 -0.22875,-1.1475 z m 2.0375,0.77375 c 0.0275,0.115 0.0275,0.23 0,0.37375 l -0.23125,1.17375 c -0.0288,0.1175 -0.0838,0.23 -0.1425,0.3175 l -0.63125,0.945 c -0.0563,0.115 -0.1425,0.2 -0.2575,0.25875 l -0.94625,0.62999 c -0.0863,0.0588 -0.20125,0.1175 -0.315,0.14375 l -1.17625,0.23 c -0.1425,0.0288 -0.25875,0.0288 -0.37375,0 l -1.14625,-0.23 c -0.115,-0.0262 -0.23,-0.085 -0.315,-0.14375 l -0.9475,-0.62999 c -0.115,-0.0588 -0.2,-0.14376 -0.25875,-0.22875 l -0.65875,-0.94625 c -0.0575,-0.11625 -0.115,-0.22875 -0.1425,-0.34625 l -0.23,-1.17375 c -0.0275,-0.14375 -0.0275,-0.25875 0,-0.37375 l 0.23,-1.1475 c 0.0275,-0.1125 0.085,-0.22875 0.1425,-0.34125 l 0.65875,-0.9475 c 0.0588,-0.0875 0.14375,-0.17376 0.23125,-0.23 l 0.94625,-0.65875 c 0.11375,-0.0588 0.22875,-0.115 0.34375,-0.14375 l 1.14625,-0.23 c 0.115,-0.0288 0.23125,-0.0288 0.37375,0 l 1.17625,0.23 c 0.11375,0.0288 0.22875,0.085 0.345,0.14375 l 0.9425,0.65875 c 0.0887,0.0862 0.175,0.1425 0.23125,0.25874 l 0.63125,0.94501 c 0.0588,0.0862 0.11375,0.2025 0.1425,0.315 l 0.23125,1.1475 z" />
    <path
       d="m 344.76718,426.69863 c 0,1.63375 -1.31875,2.98125 -2.9825,2.98125 -1.63375,0 -2.98125,-1.3475 -2.98125,-2.98125 0,-1.665 1.3475,-2.98375 2.98125,-2.98375 1.66375,0 2.9825,1.31875 2.9825,2.98375"
       style="fill:#110f0d;fill-opacity:1;fill-rule:nonzero;stroke:none"
       id="path502"
       inkscape:connector-curvature="0" />
    <path
       d="m 343.64968,425.722 0.1425,0.315 -0.62875,-0.945 0.2575,0.25875 -0.9475,-0.6325 0.31625,0.14375 -1.17625,-0.23125 0.37375,0 -1.1475,0.23125 0.315,-0.14375 -0.94625,0.6325 0.26,-0.23125 -0.66125,0.94625 0.14375,-0.34375 -0.23,1.17625 0,-0.3725 0.23,1.1475 -0.14375,-0.345 0.66125,0.945 -0.23125,-0.2275 0.94625,0.66 -0.34375,-0.145 1.1475,0.23 -0.37375,0 1.17625,-0.23 -0.34375,0.145 0.94625,-0.66 -0.22875,0.25625 0.62875,-0.94375 -0.1425,0.315 0.22875,-1.1475 0,0.3725 -0.22875,-1.17625 z m 2.03625,0.80375 c 0.03,0.11375 0.03,0.25625 0,0.3725 l -0.22875,1.1475 c -0.03,0.1125 -0.085,0.2275 -0.14375,0.3125 l -0.6325,0.9475 c -0.0563,0.115 -0.14125,0.17375 -0.22875,0.25875 l -0.9475,0.66 c -0.1125,0.0575 -0.2275,0.11375 -0.34125,0.14375 l -1.17625,0.22875 c -0.145,0.03 -0.26,0.03 -0.37375,0 l -1.145,-0.22875 c -0.1175,-0.03 -0.23125,-0.0863 -0.34625,-0.14375 l -0.94625,-0.66 c -0.0863,-0.0563 -0.1725,-0.14375 -0.23,-0.22875 l -0.6575,-0.9475 c -0.0575,-0.115 -0.11625,-0.23 -0.145,-0.3425 l -0.2275,-1.1475 c -0.03,-0.11625 -0.03,-0.25875 0,-0.3725 l 0.2275,-1.175 c 0.0288,-0.1175 0.0875,-0.23125 0.145,-0.34625 l 0.6575,-0.945 c 0.0575,-0.0875 0.14375,-0.17375 0.2575,-0.23 l 0.9475,-0.63 c 0.0863,-0.0575 0.2,-0.11625 0.3175,-0.14625 l 1.145,-0.22625 c 0.11375,-0.03 0.22875,-0.03 0.37375,0 l 1.17625,0.22625 c 0.11375,0.03 0.22875,0.0588 0.31375,0.14625 l 0.9475,0.63 c 0.115,0.0562 0.2,0.1425 0.25625,0.25875 l 0.6325,0.945 c 0.0587,0.0863 0.11375,0.2 0.14375,0.3175 l 0.22875,1.175 z"
       style="fill:#110f0d;fill-opacity:1;fill-rule:nonzero;stroke:none"
       id="path504"
       inkscape:connector-curvature="0" />
    <path
       inkscape:connector-curvature="0"
       id="path508"
       style="fill:none;stroke:#110f0d;stroke-width:0.065;stroke-linecap:butt;stroke-linejoin:round;stroke-miterlimit:10;stroke-opacity:1;stroke-dasharray:none"
       d="m 343.64968,425.722 0.1425,0.315 -0.62875,-0.945 0.2575,0.25875 -0.9475,-0.6325 0.31625,0.14375 -1.17625,-0.23125 0.37375,0 -1.1475,0.23125 0.315,-0.14375 -0.94625,0.6325 0.26,-0.23125 -0.66125,0.94625 0.14375,-0.34375 -0.23,1.17625 0,-0.3725 0.23,1.1475 -0.14375,-0.345 0.66125,0.945 -0.23125,-0.2275 0.94625,0.66 -0.34375,-0.145 1.1475,0.23 -0.37375,0 1.17625,-0.23 -0.34375,0.145 0.94625,-0.66 -0.22875,0.25625 0.62875,-0.94375 -0.1425,0.315 0.22875,-1.1475 0,0.3725 -0.22875,-1.17625 z m 2.03625,0.80375 c 0.03,0.11375 0.03,0.25625 0,0.3725 l -0.22875,1.1475 c -0.03,0.1125 -0.085,0.2275 -0.14375,0.3125 l -0.6325,0.9475 c -0.0563,0.115 -0.14125,0.17375 -0.22875,0.25875 l -0.9475,0.66 c -0.1125,0.0575 -0.2275,0.11375 -0.34125,0.14375 l -1.17625,0.22875 c -0.145,0.03 -0.26,0.03 -0.37375,0 l -1.145,-0.22875 c -0.1175,-0.03 -0.23125,-0.0863 -0.34625,-0.14375 l -0.94625,-0.66 c -0.0863,-0.0563 -0.1725,-0.14375 -0.23,-0.22875 l -0.6575,-0.9475 c -0.0575,-0.115 -0.11625,-0.23 -0.145,-0.3425 l -0.2275,-1.1475 c -0.03,-0.11625 -0.03,-0.25875 0,-0.3725 l 0.2275,-1.175 c 0.0288,-0.1175 0.0875,-0.23125 0.145,-0.34625 l 0.6575,-0.945 c 0.0575,-0.0875 0.14375,-0.17375 0.2575,-0.23 l 0.9475,-0.63 c 0.0863,-0.0575 0.2,-0.11625 0.3175,-0.14625 l 1.145,-0.22625 c 0.11375,-0.03 0.22875,-0.03 0.37375,0 l 1.17625,0.22625 c 0.11375,0.03 0.22875,0.0588 0.31375,0.14625 l 0.9475,0.63 c 0.115,0.0562 0.2,0.1425 0.25625,0.25875 l 0.6325,0.945 c 0.0587,0.0863 0.11375,0.2 0.14375,0.3175 l 0.22875,1.175 z" />
    <path
       d="m 412.0738,425.32163 c 0,1.6625 -1.35,2.98125 -2.98375,2.98125 -1.6625,0 -2.9825,-1.31875 -2.9825,-2.98125 0,-1.63625 1.32,-2.98375 2.9825,-2.98375 1.63375,0 2.98375,1.3475 2.98375,2.98375"
       style="fill:#110f0d;fill-opacity:1;fill-rule:nonzero;stroke:none"
       id="path510"
       inkscape:connector-curvature="0" />
    <path
       d="m 410.95318,424.37438 0.14375,0.34375 -0.65875,-0.94375 0.22875,0.22625 -0.94375,-0.65875 0.34125,0.14375 -1.145,-0.23 0.37125,0 -1.17625,0.23 0.34625,-0.14375 -0.9475,0.65875 0.2325,-0.25625 -0.6325,0.945 0.14125,-0.315 -0.23,1.1475 0,-0.37375 0.23,1.1775 -0.14125,-0.315 0.6325,0.94375 -0.26125,-0.25625 0.94625,0.63 -0.31625,-0.14375 1.17625,0.23 -0.37125,0 1.145,-0.23 -0.315,0.14375 0.9475,-0.63 -0.25875,0.23 0.65875,-0.9475 -0.14375,0.345 0.2325,-1.1775 0,0.37375 -0.2325,-1.1475 z m 2.03625,0.77375 c 0.0288,0.115 0.0288,0.23 0,0.37375 l -0.2275,1.17625 c -0.0288,0.1125 -0.0875,0.23 -0.14625,0.3425 l -0.65625,0.9475 c -0.0888,0.085 -0.1425,0.17 -0.25875,0.22875 l -0.945,0.6325 c -0.0887,0.0562 -0.2025,0.1125 -0.3175,0.14125 l -1.1475,0.23 c -0.1125,0.0287 -0.25875,0.0287 -0.37125,0 l -1.17375,-0.23 c -0.1175,-0.0288 -0.2325,-0.085 -0.3175,-0.14125 l -0.9475,-0.6325 c -0.115,-0.0587 -0.2,-0.14375 -0.25875,-0.25875 l -0.63,-0.945 c -0.085,-0.085 -0.115,-0.2025 -0.14375,-0.315 l -0.2275,-1.17625 c -0.0312,-0.115 -0.0312,-0.25875 0,-0.37375 l 0.2275,-1.1475 c 0.0288,-0.115 0.0588,-0.22625 0.14375,-0.315 l 0.63,-0.9475 c 0.0588,-0.11125 0.14375,-0.17 0.22875,-0.25625 l 0.9475,-0.65875 c 0.115,-0.0587 0.23,-0.115 0.3475,-0.14375 l 1.17375,-0.23 c 0.1125,-0.0288 0.25875,-0.0288 0.37125,0 l 1.1475,0.23 c 0.115,0.0288 0.22875,0.085 0.34375,0.14375 l 0.9475,0.65875 c 0.0875,0.0563 0.17125,0.145 0.23,0.23 l 0.65625,0.945 c 0.0588,0.1175 0.1175,0.22875 0.14625,0.34375 l 0.2275,1.1475 z"
       style="fill:#110f0d;fill-opacity:1;fill-rule:nonzero;stroke:none"
       id="path512"
       inkscape:connector-curvature="0" />
    <path
       inkscape:connector-curvature="0"
       id="path516"
       style="fill:none;stroke:#110f0d;stroke-width:0.065;stroke-linecap:butt;stroke-linejoin:round;stroke-miterlimit:10;stroke-opacity:1;stroke-dasharray:none"
       d="m 410.95318,424.37438 0.14375,0.34375 -0.65875,-0.94375 0.22875,0.22625 -0.94375,-0.65875 0.34125,0.14375 -1.145,-0.23 0.37125,0 -1.17625,0.23 0.34625,-0.14375 -0.9475,0.65875 0.2325,-0.25625 -0.6325,0.945 0.14125,-0.315 -0.23,1.1475 0,-0.37375 0.23,1.1775 -0.14125,-0.315 0.6325,0.94375 -0.26125,-0.25625 0.94625,0.63 -0.31625,-0.14375 1.17625,0.23 -0.37125,0 1.145,-0.23 -0.315,0.14375 0.9475,-0.63 -0.25875,0.23 0.65875,-0.9475 -0.14375,0.345 0.2325,-1.1775 0,0.37375 -0.2325,-1.1475 z m 2.03625,0.77375 c 0.0288,0.115 0.0288,0.23 0,0.37375 l -0.2275,1.17625 c -0.0288,0.1125 -0.0875,0.23 -0.14625,0.3425 l -0.65625,0.9475 c -0.0888,0.085 -0.1425,0.17 -0.25875,0.22875 l -0.945,0.6325 c -0.0887,0.0562 -0.2025,0.1125 -0.3175,0.14125 l -1.1475,0.23 c -0.1125,0.0287 -0.25875,0.0287 -0.37125,0 l -1.17375,-0.23 c -0.1175,-0.0288 -0.2325,-0.085 -0.3175,-0.14125 l -0.9475,-0.6325 c -0.115,-0.0587 -0.2,-0.14375 -0.25875,-0.25875 l -0.63,-0.945 c -0.085,-0.085 -0.115,-0.2025 -0.14375,-0.315 l -0.2275,-1.17625 c -0.0312,-0.115 -0.0312,-0.25875 0,-0.37375 l 0.2275,-1.1475 c 0.0288,-0.115 0.0588,-0.22625 0.14375,-0.315 l 0.63,-0.9475 c 0.0588,-0.11125 0.14375,-0.17 0.22875,-0.25625 l 0.9475,-0.65875 c 0.115,-0.0587 0.23,-0.115 0.3475,-0.14375 l 1.17375,-0.23 c 0.1125,-0.0288 0.25875,-0.0288 0.37125,0 l 1.1475,0.23 c 0.115,0.0288 0.22875,0.085 0.34375,0.14375 l 0.9475,0.65875 c 0.0875,0.0563 0.17125,0.145 0.23,0.23 l 0.65625,0.945 c 0.0588,0.1175 0.1175,0.22875 0.14625,0.34375 l 0.2275,1.1475 z" />
    <path
       d="m 479.37605,406.65225 c 0,1.6625 -1.3475,2.98375 -2.98125,2.98375 -1.6625,0 -2.9825,-1.32125 -2.9825,-2.98375 0,-1.63625 1.32,-2.98375 2.9825,-2.98375 1.63375,0 2.98125,1.3475 2.98125,2.98375"
       style="fill:#110f0d;fill-opacity:1;fill-rule:nonzero;stroke:none"
       id="path518"
       inkscape:connector-curvature="0" />
    <path
       d="m 478.2603,405.705 0.14125,0.34625 -0.65875,-0.94625 0.23,0.22625 -0.945,-0.65875 0.34125,0.14375 -1.1475,-0.23 0.37375,0 -1.17625,0.23 0.34625,-0.14375 -0.9475,0.65875 0.23,-0.25625 -0.6325,0.9475 0.14375,-0.3175 -0.23,1.1475 0,-0.37125 0.23,1.175 -0.14375,-0.315 0.6325,0.94625 -0.25875,-0.25875 0.94625,0.63 -0.31625,-0.14375 1.17625,0.23 -0.37375,0 1.1475,-0.23 -0.315,0.14375 0.9475,-0.63 -0.25875,0.23 0.65875,-0.9475 -0.14125,0.345 0.23,-1.175 0,0.37125 -0.23,-1.1475 z m 2.03375,0.77625 c 0.0288,0.1125 0.0288,0.25625 0,0.37125 l -0.2275,1.17625 c -0.0312,0.115 -0.0875,0.23 -0.14375,0.345 l -0.65875,0.945 c -0.0887,0.085 -0.14375,0.1725 -0.25875,0.22875 l -0.945,0.6325 c -0.0875,0.0562 -0.2025,0.115 -0.3175,0.14125 l -1.1475,0.23 c -0.1125,0.0288 -0.25875,0.0288 -0.37375,0 l -1.17375,-0.23 c -0.115,-0.0263 -0.23,-0.085 -0.315,-0.14125 l -0.9475,-0.6325 c -0.115,-0.0563 -0.2,-0.14375 -0.25875,-0.25625 l -0.63,-0.9475 c -0.085,-0.085 -0.115,-0.2 -0.14375,-0.315 l -0.23,-1.17625 c -0.0263,-0.14375 -0.0263,-0.25875 0,-0.37125 l 0.23,-1.15 c 0.0288,-0.115 0.0587,-0.22625 0.14375,-0.315 l 0.63,-0.945 c 0.0587,-0.11375 0.14375,-0.17 0.23125,-0.25875 l 0.945,-0.65875 c 0.115,-0.0587 0.23,-0.115 0.345,-0.14375 l 1.17375,-0.23 c 0.115,-0.0287 0.26125,-0.0287 0.37375,0 l 1.1475,0.23 c 0.115,0.0288 0.23,0.085 0.34375,0.14375 l 0.9475,0.65875 c 0.0863,0.0587 0.17125,0.145 0.23,0.23 l 0.65875,0.945 c 0.0562,0.1175 0.1125,0.22875 0.14375,0.34375 l 0.2275,1.15 z"
       style="fill:#110f0d;fill-opacity:1;fill-rule:nonzero;stroke:none"
       id="path520"
       inkscape:connector-curvature="0" />
    <path
       inkscape:connector-curvature="0"
       id="path524"
       style="fill:none;stroke:#110f0d;stroke-width:0.065;stroke-linecap:butt;stroke-linejoin:round;stroke-miterlimit:10;stroke-opacity:1;stroke-dasharray:none"
       d="m 478.2603,405.705 0.14125,0.34625 -0.65875,-0.94625 0.23,0.22625 -0.945,-0.65875 0.34125,0.14375 -1.1475,-0.23 0.37375,0 -1.17625,0.23 0.34625,-0.14375 -0.9475,0.65875 0.23,-0.25625 -0.6325,0.9475 0.14375,-0.3175 -0.23,1.1475 0,-0.37125 0.23,1.175 -0.14375,-0.315 0.6325,0.94625 -0.25875,-0.25875 0.94625,0.63 -0.31625,-0.14375 1.17625,0.23 -0.37375,0 1.1475,-0.23 -0.315,0.14375 0.9475,-0.63 -0.25875,0.23 0.65875,-0.9475 -0.14125,0.345 0.23,-1.175 0,0.37125 -0.23,-1.1475 z m 2.03375,0.77625 c 0.0288,0.1125 0.0288,0.25625 0,0.37125 l -0.2275,1.17625 c -0.0312,0.115 -0.0875,0.23 -0.14375,0.345 l -0.65875,0.945 c -0.0887,0.085 -0.14375,0.1725 -0.25875,0.22875 l -0.945,0.6325 c -0.0875,0.0562 -0.2025,0.115 -0.3175,0.14125 l -1.1475,0.23 c -0.1125,0.0288 -0.25875,0.0288 -0.37375,0 l -1.17375,-0.23 c -0.115,-0.0263 -0.23,-0.085 -0.315,-0.14125 l -0.9475,-0.6325 c -0.115,-0.0563 -0.2,-0.14375 -0.25875,-0.25625 l -0.63,-0.9475 c -0.085,-0.085 -0.115,-0.2 -0.14375,-0.315 l -0.23,-1.17625 c -0.0263,-0.14375 -0.0263,-0.25875 0,-0.37125 l 0.23,-1.15 c 0.0288,-0.115 0.0587,-0.22625 0.14375,-0.315 l 0.63,-0.945 c 0.0587,-0.11375 0.14375,-0.17 0.23125,-0.25875 l 0.945,-0.65875 c 0.115,-0.0587 0.23,-0.115 0.345,-0.14375 l 1.17375,-0.23 c 0.115,-0.0287 0.26125,-0.0287 0.37375,0 l 1.1475,0.23 c 0.115,0.0288 0.23,0.085 0.34375,0.14375 l 0.9475,0.65875 c 0.0863,0.0587 0.17125,0.145 0.23,0.23 l 0.65875,0.945 c 0.0562,0.1175 0.1125,0.22875 0.14375,0.34375 l 0.2275,1.15 z" />
    <path
       d="m 274.27956,485.25575 67.44749,-2.295 67.56375,4.16 -0.515,0.0862 66.98875,-28.90875 c 0.5725,-0.25625 1.23375,0 1.49,0.6025 0.25875,0.57375 0,1.2325 -0.60125,1.49125 l -66.98875,28.90625 c -0.145,0.0862 -0.345,0.115 -0.5175,0.0862 l -67.3325,-4.12875 -67.44874,2.295 c -0.63,0.0263 -1.17625,-0.45875 -1.20375,-1.09125 0,-0.63 0.4875,-1.175 1.1175,-1.20375"
       style="fill:#0b8ed8;fill-opacity:1;fill-rule:nonzero;stroke:none"
       id="path526"
       inkscape:connector-curvature="0" />
    <path
       inkscape:connector-curvature="0"
       id="path530"
       style="fill:none;stroke:#0b8ed8;stroke-width:1.03750002;stroke-linecap:butt;stroke-linejoin:miter;stroke-miterlimit:4;stroke-opacity:1;stroke-dasharray:none"
       d="m 274.27956,485.25575 67.44749,-2.295 67.56375,4.16 -0.515,0.0862 66.98875,-28.90875 c 0.5725,-0.25625 1.23375,0 1.49,0.6025 0.25875,0.57375 0,1.2325 -0.60125,1.49125 l -66.98875,28.90625 c -0.145,0.0862 -0.345,0.115 -0.5175,0.0862 l -67.3325,-4.12875 -67.44874,2.295 c -0.63,0.0263 -1.17625,-0.45875 -1.20375,-1.09125 0,-0.63 0.4875,-1.175 1.1175,-1.20375 z" />
    <path
       d="m 277.46318,486.63025 c 0,1.665 -1.32,2.98375 -2.9825,2.98375 -1.63375,0 -2.9825,-1.31875 -2.9825,-2.98375 0,-1.63375 1.34875,-2.98125 2.9825,-2.98125 1.6625,0 2.9825,1.3475 2.9825,2.98125"
       style="fill:#547ec5;fill-opacity:1;fill-rule:nonzero;stroke:none"
       id="path532"
       inkscape:connector-curvature="0" />
    <path
       d="m 276.34443,485.68538 0.145,0.315 -0.63125,-0.9475 0.22875,0.25875 -0.94625,-0.65875 0.34375,0.14375 -1.17625,-0.23 0.37375,0 -1.1475,0.23 0.345,-0.14375 -0.9475,0.65875 0.23,-0.22875 -0.65875,0.94625 0.1425,-0.34375 -0.23,1.1475 0,-0.37375 0.23,1.175 -0.1425,-0.3425 0.65875,0.945 -0.2575,-0.23 0.945,0.6325 -0.315,-0.14375 1.1475,0.23 -0.37375,0 1.17625,-0.23 -0.31625,0.14375 0.9475,-0.6325 -0.2575,0.25875 0.63125,-0.94375 -0.145,0.3125 0.22875,-1.175 0,0.37375 -0.22875,-1.1475 z m 2.0375,0.77375 c 0.0275,0.115 0.0275,0.23 0,0.37375 l -0.23125,1.17375 c -0.0288,0.1175 -0.0838,0.23 -0.1425,0.3175 l -0.63125,0.945 c -0.0563,0.115 -0.1425,0.2 -0.2575,0.25875 l -0.94625,0.62999 c -0.0863,0.0588 -0.20125,0.1175 -0.315,0.14375 l -1.17625,0.23 c -0.1425,0.0288 -0.25875,0.0288 -0.37375,0 l -1.14625,-0.23 c -0.115,-0.0262 -0.23,-0.085 -0.315,-0.14375 l -0.9475,-0.62999 c -0.115,-0.0588 -0.2,-0.14376 -0.25875,-0.22875 l -0.65875,-0.94625 c -0.0575,-0.11625 -0.115,-0.22875 -0.1425,-0.34625 l -0.23,-1.17375 c -0.0275,-0.14375 -0.0275,-0.25875 0,-0.37375 l 0.23,-1.1475 c 0.0275,-0.1125 0.085,-0.22875 0.1425,-0.34125 l 0.65875,-0.9475 c 0.0588,-0.0875 0.14375,-0.17376 0.23125,-0.23 l 0.94625,-0.65875 c 0.11375,-0.0588 0.22875,-0.115 0.34375,-0.14375 l 1.14625,-0.23 c 0.115,-0.0288 0.23125,-0.0288 0.37375,0 l 1.17625,0.23 c 0.11375,0.0288 0.22875,0.085 0.345,0.14375 l 0.9425,0.65875 c 0.0887,0.0862 0.175,0.1425 0.23125,0.25874 l 0.63125,0.94501 c 0.0588,0.0862 0.11375,0.2025 0.1425,0.315 l 0.23125,1.1475 z"
       style="fill:#0b8ed8;fill-opacity:1;fill-rule:nonzero;stroke:none"
       id="path534"
       inkscape:connector-curvature="0" />
    <path
       inkscape:connector-curvature="0"
       id="path538"
       style="fill:none;stroke:#0b8ed8;stroke-width:0.64999998;stroke-linecap:butt;stroke-linejoin:miter;stroke-miterlimit:4;stroke-opacity:1;stroke-dasharray:none"
       d="m 276.34443,485.68538 0.145,0.315 -0.63125,-0.9475 0.22875,0.25875 -0.94625,-0.65875 0.34375,0.14375 -1.17625,-0.23 0.37375,0 -1.1475,0.23 0.345,-0.14375 -0.9475,0.65875 0.23,-0.22875 -0.65875,0.94625 0.1425,-0.34375 -0.23,1.1475 0,-0.37375 0.23,1.175 -0.1425,-0.3425 0.65875,0.945 -0.2575,-0.23 0.945,0.6325 -0.315,-0.14375 1.1475,0.23 -0.37375,0 1.17625,-0.23 -0.31625,0.14375 0.9475,-0.6325 -0.2575,0.25875 0.63125,-0.94375 -0.145,0.3125 0.22875,-1.175 0,0.37375 -0.22875,-1.1475 z m 2.0375,0.77375 c 0.0275,0.115 0.0275,0.23 0,0.37375 l -0.23125,1.17375 c -0.0288,0.1175 -0.0838,0.23 -0.1425,0.3175 l -0.63125,0.945 c -0.0563,0.115 -0.1425,0.2 -0.2575,0.25875 l -0.94625,0.62999 c -0.0863,0.0588 -0.20125,0.1175 -0.315,0.14375 l -1.17625,0.23 c -0.1425,0.0288 -0.25875,0.0288 -0.37375,0 l -1.14625,-0.23 c -0.115,-0.0262 -0.23,-0.085 -0.315,-0.14375 l -0.9475,-0.62999 c -0.115,-0.0588 -0.2,-0.14376 -0.25875,-0.22875 l -0.65875,-0.94625 c -0.0575,-0.11625 -0.115,-0.22875 -0.1425,-0.34625 l -0.23,-1.17375 c -0.0275,-0.14375 -0.0275,-0.25875 0,-0.37375 l 0.23,-1.1475 c 0.0275,-0.1125 0.085,-0.22875 0.1425,-0.34125 l 0.65875,-0.9475 c 0.0588,-0.0875 0.14375,-0.17376 0.23125,-0.23 l 0.94625,-0.65875 c 0.11375,-0.0588 0.22875,-0.115 0.34375,-0.14375 l 1.14625,-0.23 c 0.115,-0.0288 0.23125,-0.0288 0.37375,0 l 1.17625,0.23 c 0.11375,0.0288 0.22875,0.085 0.345,0.14375 l 0.9425,0.65875 c 0.0887,0.0862 0.175,0.1425 0.23125,0.25874 l 0.63125,0.94501 c 0.0588,0.0862 0.11375,0.2025 0.1425,0.315 l 0.23125,1.1475 z" />
    <path
       d="m 344.76718,484.10825 c 0,1.63375 -1.31875,2.98375 -2.9825,2.98375 -1.63375,0 -2.98125,-1.35 -2.98125,-2.98375 0,-1.6625 1.3475,-2.98125 2.98125,-2.98125 1.66375,0 2.9825,1.31875 2.9825,2.98125"
       style="fill:#0b8ed8;fill-opacity:1;fill-rule:nonzero;stroke:none"
       id="path540"
       inkscape:connector-curvature="0" />
    <path
       d="m 343.64968,483.13413 0.1425,0.315 -0.62875,-0.9475 0.2575,0.25875 -0.9475,-0.63 0.31625,0.1425 -1.17625,-0.2275 0.37375,0 -1.1475,0.2275 0.315,-0.1425 -0.94625,0.63 0.26,-0.22875 -0.66125,0.94375 0.14375,-0.34125 -0.23,1.17375 0,-0.37 0.23,1.145 -0.14375,-0.345 0.66125,0.9475 -0.23125,-0.23 0.94625,0.66 -0.34375,-0.1425 1.1475,0.22999 -0.37375,0 1.17625,-0.22999 -0.34375,0.1425 0.94625,-0.66 -0.22875,0.25875 0.62875,-0.94625 -0.1425,0.315 0.22875,-1.145 0,0.37 -0.22875,-1.17375 z m 2.03625,0.80375 c 0.03,0.11375 0.03,0.25625 0,0.37 l -0.22875,1.1475 c -0.03,0.115 -0.085,0.23 -0.14375,0.315 l -0.6325,0.9475 c -0.0563,0.115 -0.14125,0.17125 -0.22875,0.25875 l -0.9475,0.6575 c -0.1125,0.0575 -0.2275,0.11625 -0.34125,0.14625 l -1.17625,0.22625 c -0.145,0.03 -0.26,0.03 -0.37375,0 l -1.145,-0.22625 c -0.1175,-0.03 -0.23125,-0.0888 -0.34625,-0.14625 l -0.94625,-0.6575 c -0.0863,-0.0588 -0.1725,-0.14375 -0.23,-0.22875 l -0.6575,-0.9475 c -0.0575,-0.115 -0.11625,-0.23 -0.145,-0.345 l -0.2275,-1.1475 c -0.03,-0.11375 -0.03,-0.25626 0,-0.37 l 0.2275,-1.1775 c 0.0288,-0.11501 0.0875,-0.22875 0.145,-0.345 l 0.6575,-0.94375 c 0.0575,-0.0875 0.14375,-0.17625 0.2575,-0.23251 l 0.9475,-0.62999 c 0.0863,-0.0575 0.2,-0.11375 0.3175,-0.14125 l 1.145,-0.23125 c 0.11375,-0.03 0.22875,-0.03 0.37375,0 l 1.17625,0.23125 c 0.11375,0.0275 0.22875,0.0562 0.31375,0.14125 l 0.9475,0.62999 c 0.115,0.0562 0.2,0.14501 0.25625,0.25875 l 0.6325,0.94751 c 0.0587,0.0862 0.11375,0.19999 0.14375,0.315 l 0.22875,1.1775 z"
       style="fill:#0b8ed8;fill-opacity:1;fill-rule:nonzero;stroke:none"
       id="path542"
       inkscape:connector-curvature="0" />
    <path
       inkscape:connector-curvature="0"
       id="path546"
       style="fill:none;stroke:#0b8ed8;stroke-width:0.64999998;stroke-linecap:butt;stroke-linejoin:miter;stroke-miterlimit:4;stroke-opacity:1;stroke-dasharray:none"
       d="m 343.64968,483.13413 0.1425,0.315 -0.62875,-0.9475 0.2575,0.25875 -0.9475,-0.63 0.31625,0.1425 -1.17625,-0.2275 0.37375,0 -1.1475,0.2275 0.315,-0.1425 -0.94625,0.63 0.26,-0.22875 -0.66125,0.94375 0.14375,-0.34125 -0.23,1.17375 0,-0.37 0.23,1.145 -0.14375,-0.345 0.66125,0.9475 -0.23125,-0.23 0.94625,0.66 -0.34375,-0.1425 1.1475,0.22999 -0.37375,0 1.17625,-0.22999 -0.34375,0.1425 0.94625,-0.66 -0.22875,0.25875 0.62875,-0.94625 -0.1425,0.315 0.22875,-1.145 0,0.37 -0.22875,-1.17375 z m 2.03625,0.80375 c 0.03,0.11375 0.03,0.25625 0,0.37 l -0.22875,1.1475 c -0.03,0.115 -0.085,0.23 -0.14375,0.315 l -0.6325,0.9475 c -0.0563,0.115 -0.14125,0.17125 -0.22875,0.25875 l -0.9475,0.6575 c -0.1125,0.0575 -0.2275,0.11625 -0.34125,0.14625 l -1.17625,0.22625 c -0.145,0.03 -0.26,0.03 -0.37375,0 l -1.145,-0.22625 c -0.1175,-0.03 -0.23125,-0.0888 -0.34625,-0.14625 l -0.94625,-0.6575 c -0.0863,-0.0588 -0.1725,-0.14375 -0.23,-0.22875 l -0.6575,-0.9475 c -0.0575,-0.115 -0.11625,-0.23 -0.145,-0.345 l -0.2275,-1.1475 c -0.03,-0.11375 -0.03,-0.25626 0,-0.37 l 0.2275,-1.1775 c 0.0288,-0.11501 0.0875,-0.22875 0.145,-0.345 l 0.6575,-0.94375 c 0.0575,-0.0875 0.14375,-0.17625 0.2575,-0.23251 l 0.9475,-0.62999 c 0.0863,-0.0575 0.2,-0.11375 0.3175,-0.14125 l 1.145,-0.23125 c 0.11375,-0.03 0.22875,-0.03 0.37375,0 l 1.17625,0.23125 c 0.11375,0.0275 0.22875,0.0562 0.31375,0.14125 l 0.9475,0.62999 c 0.115,0.0562 0.2,0.14501 0.25625,0.25875 l 0.6325,0.94751 c 0.0587,0.0862 0.11375,0.19999 0.14375,0.315 l 0.22875,1.1775 z" />
    <path
       d="m 412.0738,488.35263 c 0,1.66375 -1.35,2.9825 -2.98375,2.9825 -1.6625,0 -2.9825,-1.31875 -2.9825,-2.9825 0,-1.635 1.32,-2.9825 2.9825,-2.9825 1.63375,0 2.98375,1.3475 2.98375,2.9825"
       style="fill:#0b8ed8;fill-opacity:1;fill-rule:nonzero;stroke:none"
       id="path548"
       inkscape:connector-curvature="0" />
    <path
       d="m 410.95318,487.40663 0.14375,0.34375 -0.65875,-0.94625 0.22875,0.22875 -0.94375,-0.65875 0.34125,0.14375 -1.145,-0.23 0.37125,0 -1.17625,0.23 0.34625,-0.14375 -0.9475,0.65875 0.2325,-0.25625 -0.6325,0.945 0.14125,-0.31501 -0.23,1.14751 0,-0.37376 0.23,1.17751 -0.14125,-0.3175 0.6325,0.94625 -0.26125,-0.25875 0.94625,0.6325 -0.31625,-0.14375 1.17625,0.23 -0.37125,0 1.145,-0.23 -0.315,0.14375 0.9475,-0.6325 -0.25875,0.23 0.65875,-0.945 -0.14375,0.345 0.2325,-1.1775 0,0.37375 -0.2325,-1.1475 z m 2.03625,0.77375 c 0.0288,0.115 0.0288,0.23 0,0.37375 l -0.2275,1.17375 c -0.0288,0.115 -0.0875,0.23 -0.14625,0.34375 l -0.65625,0.94875 c -0.0888,0.085 -0.1425,0.17 -0.25875,0.22875 l -0.945,0.63 c -0.0887,0.0587 -0.2025,0.115 -0.3175,0.14375 l -1.1475,0.23 c -0.1125,0.0288 -0.25875,0.0288 -0.37125,0 l -1.17375,-0.23 c -0.1175,-0.0288 -0.2325,-0.085 -0.3175,-0.14375 l -0.9475,-0.63 c -0.115,-0.0588 -0.2,-0.14375 -0.25875,-0.25875 l -0.63,-0.945 c -0.085,-0.0875 -0.115,-0.2025 -0.14375,-0.3175 l -0.2275,-1.17375 c -0.0312,-0.14375 -0.0312,-0.25875 0,-0.37375 l 0.2275,-1.1475 c 0.0288,-0.115 0.0588,-0.22875 0.14375,-0.315 l 0.63,-0.94751 c 0.0588,-0.11375 0.14375,-0.16999 0.22875,-0.25625 l 0.9475,-0.66125 c 0.115,-0.0563 0.23,-0.115 0.3475,-0.14125 l 1.17375,-0.2325 c 0.1125,-0.0263 0.25875,-0.0263 0.37125,0 l 1.1475,0.2325 c 0.115,0.0263 0.22875,0.085 0.34375,0.14125 l 0.9475,0.66125 c 0.0875,0.0563 0.17125,0.1425 0.23,0.2275 l 0.65625,0.9475 c 0.0588,0.115 0.1175,0.22875 0.14625,0.34375 l 0.2275,1.1475 z"
       style="fill:#0b8ed8;fill-opacity:1;fill-rule:nonzero;stroke:none"
       id="path550"
       inkscape:connector-curvature="0" />
    <path
       inkscape:connector-curvature="0"
       id="path554"
       style="fill:none;stroke:#0b8ed8;stroke-width:0.64999998;stroke-linecap:butt;stroke-linejoin:miter;stroke-miterlimit:4;stroke-opacity:1;stroke-dasharray:none"
       d="m 410.95318,487.40663 0.14375,0.34375 -0.65875,-0.94625 0.22875,0.22875 -0.94375,-0.65875 0.34125,0.14375 -1.145,-0.23 0.37125,0 -1.17625,0.23 0.34625,-0.14375 -0.9475,0.65875 0.2325,-0.25625 -0.6325,0.945 0.14125,-0.31501 -0.23,1.14751 0,-0.37376 0.23,1.17751 -0.14125,-0.3175 0.6325,0.94625 -0.26125,-0.25875 0.94625,0.6325 -0.31625,-0.14375 1.17625,0.23 -0.37125,0 1.145,-0.23 -0.315,0.14375 0.9475,-0.6325 -0.25875,0.23 0.65875,-0.945 -0.14375,0.345 0.2325,-1.1775 0,0.37375 -0.2325,-1.1475 z m 2.03625,0.77375 c 0.0288,0.115 0.0288,0.23 0,0.37375 l -0.2275,1.17375 c -0.0288,0.115 -0.0875,0.23 -0.14625,0.34375 l -0.65625,0.94875 c -0.0888,0.085 -0.1425,0.17 -0.25875,0.22875 l -0.945,0.63 c -0.0887,0.0587 -0.2025,0.115 -0.3175,0.14375 l -1.1475,0.23 c -0.1125,0.0288 -0.25875,0.0288 -0.37125,0 l -1.17375,-0.23 c -0.1175,-0.0288 -0.2325,-0.085 -0.3175,-0.14375 l -0.9475,-0.63 c -0.115,-0.0588 -0.2,-0.14375 -0.25875,-0.25875 l -0.63,-0.945 c -0.085,-0.0875 -0.115,-0.2025 -0.14375,-0.3175 l -0.2275,-1.17375 c -0.0312,-0.14375 -0.0312,-0.25875 0,-0.37375 l 0.2275,-1.1475 c 0.0288,-0.115 0.0588,-0.22875 0.14375,-0.315 l 0.63,-0.94751 c 0.0588,-0.11375 0.14375,-0.16999 0.22875,-0.25625 l 0.9475,-0.66125 c 0.115,-0.0563 0.23,-0.115 0.3475,-0.14125 l 1.17375,-0.2325 c 0.1125,-0.0263 0.25875,-0.0263 0.37125,0 l 1.1475,0.2325 c 0.115,0.0263 0.22875,0.085 0.34375,0.14125 l 0.9475,0.66125 c 0.0875,0.0563 0.17125,0.1425 0.23,0.2275 l 0.65625,0.9475 c 0.0588,0.115 0.1175,0.22875 0.14625,0.34375 l 0.2275,1.1475 z" />
    <path
       d="m 479.37605,459.41838 c 0,1.63375 -1.3475,2.98125 -2.98125,2.98125 -1.6625,0 -2.9825,-1.3475 -2.9825,-2.98125 0,-1.63625 1.32,-2.98375 2.9825,-2.98375 1.63375,0 2.98125,1.3475 2.98125,2.98375"
       style="fill:#0b8ed8;fill-opacity:1;fill-rule:nonzero;stroke:none"
       id="path556"
       inkscape:connector-curvature="0" />
    <path
       d="m 478.2603,458.471 0.14125,0.34375 -0.65875,-0.94625 0.23,0.22875 -0.945,-0.65875 0.34125,0.14375 -1.1475,-0.23 0.37375,0 -1.17625,0.23 0.34625,-0.14375 -0.9475,0.65875 0.23,-0.25625 -0.6325,0.945 0.14375,-0.315 -0.23,1.1475 0,-0.37375 0.23,1.1475 -0.14375,-0.315 0.6325,0.945 -0.23,-0.25625 0.9475,0.65875 -0.34625,-0.14375 1.17625,0.23 -0.37375,0 1.1475,-0.23 -0.34125,0.14375 0.945,-0.65875 -0.23,0.23 0.65875,-0.9475 -0.14125,0.34375 0.23,-1.1475 0,0.37375 -0.23,-1.1475 z m 2.03375,0.77375 c 0.0288,0.115 0.0288,0.25875 0,0.37375 l -0.2275,1.1475 c -0.0312,0.115 -0.0875,0.23 -0.14375,0.34375 l -0.65875,0.945 c -0.0587,0.0888 -0.14375,0.17375 -0.23,0.23 l -0.9475,0.65875 c -0.11375,0.0588 -0.22875,0.115 -0.34375,0.14375 l -1.1475,0.23 c -0.1125,0.0288 -0.25875,0.0288 -0.37375,0 l -1.17375,-0.23 c -0.115,-0.0288 -0.23,-0.085 -0.345,-0.14375 l -0.945,-0.65875 c -0.0875,-0.0862 -0.1725,-0.14125 -0.23125,-0.25875 l -0.63,-0.945 c -0.085,-0.085 -0.115,-0.2 -0.14375,-0.315 l -0.23,-1.1475 c -0.0263,-0.115 -0.0263,-0.25875 0,-0.37375 l 0.23,-1.1475 c 0.0288,-0.1125 0.0587,-0.22875 0.14375,-0.315 l 0.63,-0.945 c 0.0587,-0.11625 0.14375,-0.1725 0.23125,-0.25875 l 0.945,-0.66125 c 0.115,-0.0563 0.23,-0.1125 0.345,-0.14125 l 1.17375,-0.23 c 0.115,-0.0288 0.26125,-0.0288 0.37375,0 l 1.1475,0.23 c 0.115,0.0288 0.23,0.085 0.34375,0.14125 l 0.9475,0.66125 c 0.0863,0.0562 0.17125,0.1425 0.23,0.23 l 0.65875,0.945 c 0.0562,0.115 0.1125,0.23125 0.14375,0.34375 l 0.2275,1.1475 z"
       style="fill:#0b8ed8;fill-opacity:1;fill-rule:nonzero;stroke:none"
       id="path558"
       inkscape:connector-curvature="0" />
    <path
       inkscape:connector-curvature="0"
       id="path562"
       style="fill:none;stroke:#0b8ed8;stroke-width:0.64999998;stroke-linecap:butt;stroke-linejoin:miter;stroke-miterlimit:4;stroke-opacity:1;stroke-dasharray:none"
       d="m 478.2603,458.471 0.14125,0.34375 -0.65875,-0.94625 0.23,0.22875 -0.945,-0.65875 0.34125,0.14375 -1.1475,-0.23 0.37375,0 -1.17625,0.23 0.34625,-0.14375 -0.9475,0.65875 0.23,-0.25625 -0.6325,0.945 0.14375,-0.315 -0.23,1.1475 0,-0.37375 0.23,1.1475 -0.14375,-0.315 0.6325,0.945 -0.23,-0.25625 0.9475,0.65875 -0.34625,-0.14375 1.17625,0.23 -0.37375,0 1.1475,-0.23 -0.34125,0.14375 0.945,-0.65875 -0.23,0.23 0.65875,-0.9475 -0.14125,0.34375 0.23,-1.1475 0,0.37375 -0.23,-1.1475 z m 2.03375,0.77375 c 0.0288,0.115 0.0288,0.25875 0,0.37375 l -0.2275,1.1475 c -0.0312,0.115 -0.0875,0.23 -0.14375,0.34375 l -0.65875,0.945 c -0.0587,0.0888 -0.14375,0.17375 -0.23,0.23 l -0.9475,0.65875 c -0.11375,0.0588 -0.22875,0.115 -0.34375,0.14375 l -1.1475,0.23 c -0.1125,0.0288 -0.25875,0.0288 -0.37375,0 l -1.17375,-0.23 c -0.115,-0.0288 -0.23,-0.085 -0.345,-0.14375 l -0.945,-0.65875 c -0.0875,-0.0862 -0.1725,-0.14125 -0.23125,-0.25875 l -0.63,-0.945 c -0.085,-0.085 -0.115,-0.2 -0.14375,-0.315 l -0.23,-1.1475 c -0.0263,-0.115 -0.0263,-0.25875 0,-0.37375 l 0.23,-1.1475 c 0.0288,-0.1125 0.0587,-0.22875 0.14375,-0.315 l 0.63,-0.945 c 0.0587,-0.11625 0.14375,-0.1725 0.23125,-0.25875 l 0.945,-0.66125 c 0.115,-0.0563 0.23,-0.1125 0.345,-0.14125 l 1.17375,-0.23 c 0.115,-0.0288 0.26125,-0.0288 0.37375,0 l 1.1475,0.23 c 0.115,0.0288 0.23,0.085 0.34375,0.14125 l 0.9475,0.66125 c 0.0863,0.0562 0.17125,0.1425 0.23,0.23 l 0.65875,0.945 c 0.0562,0.115 0.1125,0.23125 0.14375,0.34375 l 0.2275,1.1475 z" />
    <path
       d="m 468.0503,598.50038 4.41375,1.2625 c 0.60375,0.17 0.9475,0.83249 0.77625,1.43249 -0.1725,0.60376 -0.8025,0.94751 -1.40625,0.77375 l -4.41625,-1.26124 c -0.6,-0.17125 -0.945,-0.80125 -0.77125,-1.43375 0.17125,-0.6 0.80375,-0.945 1.40375,-0.77375 m -8.80375,-2.52501 4.3875,1.2625 c 0.63,0.17376 0.97375,0.8025 0.8025,1.40625 -0.1725,0.63 -0.8025,0.97501 -1.435,0.80125 l -4.3875,-1.28875 c -0.63,-0.17125 -0.97375,-0.80375 -0.8025,-1.40625 0.1725,-0.60125 0.8025,-0.975 1.435,-0.775 m -8.8325,-2.55125 4.41625,1.2625 c 0.6025,0.17375 0.9475,0.83 0.77375,1.43375 -0.17125,0.6025 -0.80375,0.9475 -1.40375,0.77375 l -4.41625,-1.26 c -0.60375,-0.17375 -0.9475,-0.80375 -0.77375,-1.40625 0.17,-0.6325 0.8,-0.97375 1.40375,-0.80375 m -8.80375,-2.52375 4.38625,1.2625 c 0.6325,0.1725 0.9775,0.8025 0.80375,1.40625 -0.17125,0.63 -0.83,0.97375 -1.4325,0.8 l -4.4175,-1.26 c -0.6025,-0.2 -0.945,-0.8325 -0.77625,-1.4325 0.17375,-0.6025 0.80625,-0.9475 1.43625,-0.77625 m -8.83125,-2.55125 4.41375,1.26 c 0.60375,0.2025 0.9475,0.835 0.775,1.435 -0.17125,0.60375 -0.80125,0.9475 -1.40375,0.77375 l -4.4175,-1.26125 c -0.6025,-0.1725 -0.97625,-0.80125 -0.77375,-1.405 0.17125,-0.62875 0.80375,-0.97375 1.40625,-0.8025 m -8.80625,-2.525 4.39,1.2625 c 0.6275,0.1725 0.97375,0.80375 0.80125,1.40625 -0.17375,0.63 -0.8325,0.97375 -1.43375,0.80375 l -4.41625,-1.265 c -0.6025,-0.17125 -0.9475,-0.83 -0.77375,-1.43125 0.17125,-0.6025 0.8025,-0.94625 1.4325,-0.77625 m -8.8325,-2.55125 4.41875,1.29 c 0.6,0.1725 0.945,0.8025 0.77375,1.40625 -0.17375,0.6 -0.805,0.94625 -1.40625,0.77375 l -4.41625,-1.2625 c -0.6025,-0.17125 -0.97375,-0.80125 -0.77375,-1.40375 0.17125,-0.63 0.8025,-0.97625 1.40375,-0.80375 m -9.06,-2.12125 3.29625,0.48875 1.3475,0.37125 c 0.6025,0.1725 0.97625,0.8025 0.805,1.435 -0.1725,0.6 -0.8325,0.945 -1.435,0.77125 l -1.0325,-0.315 -3.32625,-0.485 c -0.63125,-0.0888 -1.06125,-0.69 -0.94625,-1.32125 0.085,-0.63 0.65875,-1.0625 1.29125,-0.945 m -9.0625,-1.37625 4.53125,0.6875 c 0.63,0.0863 1.06125,0.68875 0.97375,1.29 -0.115,0.63125 -0.68875,1.06125 -1.31875,0.975 l -4.53125,-0.6875 c -0.62875,-0.0875 -1.06125,-0.66125 -0.97375,-1.29125 0.085,-0.63 0.68625,-1.06 1.31875,-0.97375 m -9.09,-1.34875 4.52875,0.68875 c 0.6325,0.0863 1.0625,0.66 0.9775,1.28875 -0.0887,0.63 -0.68875,1.0625 -1.2925,0.975 l -4.56,-0.68625 c -0.63,-0.0875 -1.06,-0.68875 -0.945,-1.29125 0.085,-0.63 0.65875,-1.06 1.29125,-0.975 m -9.0625,-1.3475 4.53125,0.66 c 0.63,0.11375 1.06,0.6875 0.975,1.3175 -0.115,0.6325 -0.68875,1.0625 -1.32125,0.9475 l -4.52875,-0.65875 c -0.63,-0.115 -1.0625,-0.68875 -0.97625,-1.32125 0.0875,-0.63 0.6875,-1.06125 1.32,-0.945 m -9.09125,-1.37625 4.53125,0.6875 c 0.6325,0.0862 1.06,0.68875 0.97625,1.2925 -0.0875,0.63 -0.69125,1.05875 -1.29125,0.97375 l -4.56,-0.68875 c -0.60125,-0.085 -1.06,-0.65875 -0.945,-1.29125 0.085,-0.63 0.65875,-1.0625 1.28875,-0.97375 m -9.06125,-1.3475 4.53,0.685 c 0.63125,0.0888 1.0625,0.6625 0.975,1.2925 -0.115,0.63 -0.68875,1.06125 -1.31875,0.97625 l -4.53,-0.68874 c -0.63,-0.085 -1.06375,-0.68875 -0.97625,-1.31876 0.115,-0.6025 0.68875,-1.0325 1.32,-0.94625 m -9.09125,-1.3775 4.53,0.6875 c 0.6325,0.0863 1.06375,0.69 0.975,1.31876 -0.0863,0.60375 -0.6875,1.06249 -1.28875,0.9475 l -4.56,-0.65875 c -0.60125,-0.11501 -1.0325,-0.68875 -0.9475,-1.32125 0.0888,-0.63 0.66125,-1.05875 1.29125,-0.97375 m -9.0625,-1.3475 4.5325,0.68875 c 0.63,0.085 1.06125,0.65875 0.97375,1.29125 -0.115,0.63 -0.6875,1.06 -1.3175,0.97375 l -4.53125,-0.68875 c -0.63375,-0.085 -1.0625,-0.65875 -0.975,-1.28875 0.115,-0.6325 0.6875,-1.06125 1.3175,-0.97625 m -5.16,-6.39625 2.83875,3.615 c 0.3725,0.48625 0.2875,1.20375 -0.2025,1.60375 -0.515,0.40375 -1.23125,0.31749 -1.605,-0.20001 l -2.84,-3.61249 c -0.3725,-0.48875 -0.28625,-1.20375 0.2,-1.60625 0.48875,-0.40125 1.2375,-0.315 1.60875,0.2 m -5.65125,-7.225 2.84,3.61375 c 0.3725,0.48625 0.28625,1.20374 -0.20125,1.60374 -0.5175,0.37375 -1.2325,0.28875 -1.60625,-0.19999 l -2.83875,-3.61376 c -0.40125,-0.48749 -0.28625,-1.23249 0.20125,-1.60624 0.48875,-0.4 1.20375,-0.315 1.605,0.2025 m -5.64875,-7.22626 2.83875,3.61376 c 0.3725,0.48749 0.2875,1.20374 -0.20125,1.60374 -0.515,0.37375 -1.23125,0.2875 -1.60375,-0.2 l -2.84,-3.61375 c -0.40125,-0.515 -0.3175,-1.23249 0.19875,-1.60374 0.49,-0.4025 1.20625,-0.3175 1.6075,0.19999 m -5.65,-7.22624 2.81,3.61125 c 0.4,0.48749 0.31625,1.205 -0.1725,1.60625 -0.515,0.37375 -1.2325,0.28749 -1.635,-0.2 l -2.8075,-3.61375 c -0.4025,-0.515 -0.31625,-1.2325 0.2,-1.6075 0.4875,-0.4 1.205,-0.31375 1.605,0.20375 m -5.64875,-7.25625 2.81125,3.61375 c 0.40125,0.515 0.31375,1.2325 -0.2025,1.6325 -0.4875,0.37375 -1.20375,0.28875 -1.60375,-0.2 l -2.81125,-3.6125 c -0.40375,-0.515 -0.31625,-1.23375 0.2,-1.60625 0.4875,-0.40125 1.205,-0.315 1.60625,0.1725 m -5.65,-7.22625 2.81125,3.61375 c 0.4,0.515 0.31625,1.2325 -0.20125,1.6325 -0.48625,0.37375 -1.20375,0.28875 -1.60375,-0.2 l -2.81,-3.61375 c -0.405,-0.5175 -0.31625,-1.2325 0.17,-1.6325 0.51625,-0.37375 1.235,-0.28875 1.63375,0.2 m -5.65,-7.22625 2.81,3.6125 c 0.405,0.515 0.31625,1.23375 -0.20125,1.6075 -0.4825,0.4 -1.2025,0.31375 -1.6025,-0.17375 l -2.81125,-3.61375 c -0.40125,-0.515 -0.31625,-1.2325 0.17375,-1.6325 0.515,-0.37375 1.2325,-0.28875 1.63125,0.2 m -5.6775,-7.2275 2.83875,3.61374 c 0.40125,0.515 0.315,1.2325 -0.2,1.60626 -0.4875,0.40124 -1.20375,0.31499 -1.605,-0.20251 l -2.83875,-3.61249 c -0.37375,-0.48626 -0.28625,-1.20376 0.19875,-1.605 0.5175,-0.37375 1.235,-0.2875 1.60625,0.2 m -5.6475,-7.22626 2.8375,3.61375 c 0.37375,0.51501 0.2875,1.2325 -0.2,1.60375 -0.48625,0.4025 -1.2325,0.3175 -1.60625,-0.2 l -2.83875,-3.61125 c -0.37375,-0.4875 -0.28625,-1.20625 0.2,-1.60875 0.51625,-0.37125 1.23375,-0.285 1.6075,0.2025 m -5.65125,-7.22625 2.84,3.61375 c 0.37375,0.4875 0.285,1.2325 -0.19875,1.6025 -0.51625,0.40375 -1.235,0.31875 -1.60875,-0.19875 l -2.83875,-3.61375 c -0.37125,-0.48625 -0.285,-1.20375 0.2,-1.60625 0.49,-0.37125 1.235,-0.28625 1.60625,0.20251 m -5.64874,-7.22626 2.83874,3.6125 c 0.3725,0.48875 0.2875,1.23375 -0.2,1.605 -0.51625,0.4025 -1.23375,0.31625 -1.605,-0.20125 l -2.83999,-3.6125 c -0.40125,-0.48625 -0.2875,-1.20375 0.2025,-1.60625 0.485,-0.40125 1.2025,-0.28625 1.60375,0.2025 m -5.64875,-7.2275 2.84,3.61375 c 0.3725,0.48625 0.285,1.20375 -0.2,1.60625 -0.51875,0.40125 -1.23625,0.315 -1.6075,-0.2025 l -2.84,-3.61125 c -0.40125,-0.49 -0.315,-1.205 0.20125,-1.60625 0.4875,-0.4025 1.20375,-0.315 1.60625,0.2"
       style="fill:#110f0d;fill-opacity:1;fill-rule:nonzero;stroke:none"
       id="path564"
       inkscape:connector-curvature="0" />
    <path
       inkscape:connector-curvature="0"
       id="path568"
       style="fill:none;stroke:#110f0d;stroke-width:1.03750002;stroke-linecap:butt;stroke-linejoin:bevel;stroke-miterlimit:10;stroke-opacity:1;stroke-dasharray:none"
       d="m 468.0503,598.50038 4.41375,1.2625 c 0.60375,0.17 0.9475,0.83249 0.77625,1.43249 -0.1725,0.60376 -0.8025,0.94751 -1.40625,0.77375 l -4.41625,-1.26124 c -0.6,-0.17125 -0.945,-0.80125 -0.77125,-1.43375 0.17125,-0.6 0.80375,-0.945 1.40375,-0.77375 z m -8.80375,-2.52501 4.3875,1.2625 c 0.63,0.17376 0.97375,0.8025 0.8025,1.40625 -0.1725,0.63 -0.8025,0.97501 -1.435,0.80125 l -4.3875,-1.28875 c -0.63,-0.17125 -0.97375,-0.80375 -0.8025,-1.40625 0.1725,-0.60125 0.8025,-0.975 1.435,-0.775 z m -8.8325,-2.55124 4.41625,1.26249 c 0.6025,0.17376 0.9475,0.83 0.77375,1.43375 -0.17125,0.6025 -0.80375,0.9475 -1.40375,0.77375 l -4.41625,-1.26 c -0.60375,-0.17375 -0.9475,-0.80375 -0.77375,-1.40625 0.17,-0.6325 0.8,-0.97375 1.40375,-0.80375 z m -8.80375,-2.52375 4.38625,1.26249 c 0.6325,0.17251 0.9775,0.80251 0.80375,1.40625 -0.17125,0.63 -0.83,0.97375 -1.4325,0.8 l -4.4175,-1.26 c -0.6025,-0.2 -0.945,-0.8325 -0.77625,-1.4325 0.17375,-0.6025 0.80625,-0.9475 1.43625,-0.77625 z m -8.83125,-2.55125 4.41375,1.26 c 0.60375,0.2025 0.9475,0.835 0.775,1.435 -0.17125,0.60375 -0.80125,0.9475 -1.40375,0.77375 l -4.4175,-1.26125 c -0.6025,-0.1725 -0.97625,-0.80125 -0.77375,-1.405 0.17125,-0.62875 0.80375,-0.97375 1.40625,-0.8025 z m -8.80625,-2.52501 4.39,1.2625 c 0.6275,0.1725 0.97375,0.80375 0.80125,1.40625 -0.17375,0.63 -0.8325,0.97375 -1.43375,0.80375 l -4.41625,-1.265 c -0.6025,-0.17125 -0.9475,-0.83 -0.77375,-1.43125 0.17125,-0.6025 0.8025,-0.94625 1.4325,-0.77625 z m -8.8325,-2.55124 4.41875,1.29 c 0.6,0.1725 0.945,0.8025 0.77375,1.40625 -0.17375,0.59999 -0.805,0.94625 -1.40625,0.77375 l -4.41625,-1.2625 c -0.6025,-0.17125 -0.97375,-0.80125 -0.77375,-1.40375 0.17125,-0.63 0.8025,-0.97625 1.40375,-0.80375 z m -9.06,-2.12125 3.29625,0.48874 1.3475,0.37125 c 0.6025,0.17251 0.97625,0.8025 0.805,1.435 -0.1725,0.6 -0.8325,0.945 -1.435,0.77125 l -1.0325,-0.315 -3.32625,-0.485 c -0.63125,-0.0888 -1.06125,-0.69 -0.94625,-1.32125 0.085,-0.63 0.65875,-1.0625 1.29125,-0.945 z m -9.0625,-1.37625 4.53125,0.6875 c 0.63,0.0863 1.06125,0.68875 0.97375,1.29 -0.115,0.63125 -0.68875,1.06124 -1.31875,0.975 l -4.53125,-0.6875 c -0.62875,-0.0875 -1.06125,-0.66125 -0.97375,-1.29125 0.085,-0.63 0.68625,-1.06001 1.31875,-0.97375 z m -9.09,-1.34876 4.52875,0.68875 c 0.6325,0.0863 1.0625,0.66 0.9775,1.28875 -0.0887,0.63 -0.68875,1.0625 -1.2925,0.975 l -4.56,-0.68625 c -0.63,-0.0875 -1.06,-0.68875 -0.945,-1.29125 0.085,-0.62999 0.65875,-1.06 1.29125,-0.975 z m -9.0625,-1.3475 4.53125,0.66 c 0.63,0.11375 1.06,0.6875 0.975,1.3175 -0.115,0.6325 -0.68875,1.0625 -1.32125,0.9475 l -4.52875,-0.65875 c -0.63,-0.115 -1.0625,-0.68874 -0.97625,-1.32124 0.0875,-0.63 0.6875,-1.06125 1.32,-0.945 z m -9.09125,-1.37625 4.53125,0.68751 c 0.6325,0.0862 1.06,0.68874 0.97625,1.29249 -0.0875,0.63 -0.69125,1.05876 -1.29125,0.97375 l -4.56,-0.68875 c -0.60125,-0.085 -1.06,-0.65874 -0.945,-1.29124 0.085,-0.63 0.65875,-1.0625 1.28875,-0.97375 z m -9.06125,-1.3475 4.53,0.685 c 0.63125,0.0888 1.0625,0.6625 0.975,1.2925 -0.115,0.63 -0.68875,1.06125 -1.31875,0.97625 l -4.53,-0.68874 c -0.63,-0.085 -1.06375,-0.68875 -0.97625,-1.31876 0.115,-0.6025 0.68875,-1.0325 1.32,-0.94625 z m -9.09125,-1.3775 4.53,0.6875 c 0.6325,0.0863 1.06375,0.69 0.975,1.31876 -0.0863,0.60375 -0.6875,1.06249 -1.28875,0.9475 l -4.56,-0.65875 c -0.60125,-0.11501 -1.0325,-0.68875 -0.9475,-1.32125 0.0888,-0.63 0.66125,-1.05875 1.29125,-0.97375 z m -9.0625,-1.3475 4.5325,0.68875 c 0.63,0.085 1.06125,0.65875 0.97375,1.29125 -0.115,0.63 -0.6875,1.06 -1.3175,0.97375 l -4.53125,-0.68875 c -0.63375,-0.085 -1.0625,-0.65875 -0.975,-1.28875 0.115,-0.6325 0.6875,-1.06125 1.3175,-0.97625 z m -5.16,-6.39625 2.83875,3.615 c 0.3725,0.48626 0.2875,1.20375 -0.2025,1.60375 -0.515,0.40375 -1.23125,0.3175 -1.605,-0.2 l -2.84,-3.6125 c -0.3725,-0.48874 -0.28625,-1.20375 0.2,-1.60625 0.48875,-0.40125 1.2375,-0.315 1.60875,0.2 z m -5.65125,-7.225 2.84,3.61375 c 0.3725,0.48625 0.28625,1.20375 -0.20125,1.60375 -0.5175,0.37375 -1.2325,0.28875 -1.60625,-0.2 l -2.83875,-3.61375 c -0.40125,-0.4875 -0.28625,-1.2325 0.20125,-1.60625 0.48875,-0.4 1.20375,-0.315 1.605,0.2025 z m -5.64875,-7.22625 2.83875,3.61375 c 0.3725,0.4875 0.2875,1.20375 -0.20125,1.60375 -0.515,0.37375 -1.23125,0.2875 -1.60375,-0.2 l -2.84,-3.61375 c -0.40125,-0.515 -0.3175,-1.2325 0.19875,-1.60375 0.49,-0.4025 1.20625,-0.3175 1.6075,0.2 z m -5.65,-7.22625 2.81,3.61125 c 0.4,0.4875 0.31625,1.205 -0.1725,1.60625 -0.515,0.37375 -1.2325,0.2875 -1.635,-0.2 l -2.8075,-3.61374 c -0.4025,-0.51501 -0.31625,-1.23251 0.2,-1.60751 0.4875,-0.39999 1.205,-0.31375 1.605,0.20376 z m -5.64875,-7.25625 2.81125,3.61375 c 0.40125,0.515 0.31375,1.2325 -0.2025,1.6325 -0.4875,0.37375 -1.20375,0.28875 -1.60375,-0.2 l -2.81125,-3.6125 c -0.40375,-0.515 -0.31625,-1.23375 0.2,-1.60625 0.4875,-0.40125 1.205,-0.315 1.60625,0.1725 z m -5.65,-7.22625 2.81125,3.61375 c 0.4,0.515 0.31625,1.2325 -0.20125,1.6325 -0.48625,0.37375 -1.20375,0.28875 -1.60375,-0.2 l -2.81,-3.61375 c -0.405,-0.5175 -0.31625,-1.2325 0.17,-1.6325 0.51625,-0.37375 1.235,-0.28875 1.63375,0.2 z m -5.65,-7.22625 2.81,3.6125 c 0.405,0.515 0.31625,1.23375 -0.20125,1.6075 -0.4825,0.4 -1.2025,0.31375 -1.6025,-0.17375 l -2.81125,-3.61375 c -0.40125,-0.515 -0.31625,-1.2325 0.17375,-1.6325 0.515,-0.37375 1.2325,-0.28875 1.63125,0.2 z m -5.6775,-7.2275 2.83875,3.61375 c 0.40125,0.515 0.315,1.2325 -0.2,1.60625 -0.4875,0.40125 -1.20375,0.315 -1.605,-0.2025 l -2.83875,-3.6125 c -0.37375,-0.48625 -0.28625,-1.20375 0.19875,-1.605 0.5175,-0.37375 1.235,-0.2875 1.60625,0.2 z m -5.6475,-7.22625 2.8375,3.61375 c 0.37375,0.515 0.2875,1.2325 -0.2,1.60375 -0.48625,0.4025 -1.2325,0.3175 -1.60625,-0.2 l -2.83875,-3.61125 c -0.37375,-0.4875 -0.28625,-1.20625 0.2,-1.60875 0.51625,-0.37125 1.23375,-0.285 1.6075,0.2025 z m -5.65125,-7.22625 2.84,3.61375 c 0.37375,0.4875 0.285,1.2325 -0.19875,1.6025 -0.51625,0.40375 -1.235,0.31875 -1.60875,-0.19875 l -2.83875,-3.61375 c -0.37125,-0.48625 -0.285,-1.20375 0.2,-1.60625 0.49,-0.37125 1.235,-0.28625 1.60625,0.2025 z m -5.64874,-7.22625 2.83874,3.6125 c 0.3725,0.48875 0.2875,1.23375 -0.2,1.605 -0.51625,0.4025 -1.23375,0.31625 -1.605,-0.20125 l -2.83999,-3.6125 c -0.40125,-0.48625 -0.2875,-1.20375 0.2025,-1.60625 0.485,-0.40125 1.2025,-0.28625 1.60375,0.2025 z m -5.64875,-7.2275 2.84,3.61375 c 0.3725,0.48625 0.285,1.20375 -0.2,1.60625 -0.51875,0.40125 -1.23625,0.315 -1.6075,-0.2025 l -2.84,-3.61125 c -0.40125,-0.49 -0.315,-1.205 0.20125,-1.60625 0.4875,-0.4025 1.20375,-0.315 1.60625,0.2 z" />
    <path
       d="m 274.48093,483.64925 2.9825,5.96375 -5.965,0 2.9825,-5.96375 z"
       style="fill:#110f0d;fill-opacity:1;fill-rule:nonzero;stroke:none"
       id="path570"
       inkscape:connector-curvature="0" />
    <path
       d="m 272.33068,490.0165 -0.8325,-1.31875 5.965,0 -0.8025,1.31875 -2.98125,-5.96375 1.63375,0 -2.9825,5.96375 z m 1.34875,-6.7675 c 0.14,-0.3175 0.4575,-0.5175 0.80125,-0.5175 0.34375,0 0.66,0.2 0.8325,0.5175 l 2.98125,5.96375 c 0.14375,0.28625 0.11625,0.60125 -0.0575,0.88875 -0.14375,0.25875 -0.45875,0.43 -0.77375,0.43 l -5.965,0 c -0.315,0 -0.6025,-0.17125 -0.77375,-0.43 -0.1725,-0.2875 -0.1725,-0.6025 -0.03,-0.88875 l 2.985,-5.96375 z"
       style="fill:#110f0d;fill-opacity:1;fill-rule:nonzero;stroke:none"
       id="path572"
       inkscape:connector-curvature="0" />
    <path
       inkscape:connector-curvature="0"
       id="path576"
       style="fill:none;stroke:#110f0d;stroke-width:0.065;stroke-linecap:butt;stroke-linejoin:round;stroke-miterlimit:10;stroke-opacity:1;stroke-dasharray:none"
       d="m 272.33068,490.0165 -0.8325,-1.31875 5.965,0 -0.8025,1.31875 -2.98125,-5.96375 1.63375,0 -2.9825,5.96375 z m 1.34875,-6.7675 c 0.14,-0.3175 0.4575,-0.5175 0.80125,-0.5175 0.34375,0 0.66,0.2 0.8325,0.5175 l 2.98125,5.96375 c 0.14375,0.28625 0.11625,0.60125 -0.0575,0.88875 -0.14375,0.25875 -0.45875,0.43 -0.77375,0.43 l -5.965,0 c -0.315,0 -0.6025,-0.17125 -0.77375,-0.43 -0.1725,-0.2875 -0.1725,-0.6025 -0.03,-0.88875 l 2.985,-5.96375 z" />
    <path
       d="m 341.78443,569.56475 2.9825,5.96625 -5.96375,0 2.98125,-5.96625 z"
       style="fill:#110f0d;fill-opacity:1;fill-rule:nonzero;stroke:none"
       id="path578"
       inkscape:connector-curvature="0" />
    <path
       d="m 339.63605,575.932 -0.8325,-1.31875 5.96375,0 -0.8325,1.31875 -2.98,-5.96375 1.66375,0 -2.9825,5.96375 z m 1.31875,-6.7975 c 0.17125,-0.31375 0.48875,-0.4875 0.83,-0.4875 0.345,0 0.66125,0.17375 0.83375,0.4875 l 2.98125,5.965 c 0.1425,0.2875 0.11625,0.6325 -0.0575,0.88875 -0.17125,0.2875 -0.46,0.46125 -0.775,0.46125 l -5.96375,0 c -0.315,0 -0.6025,-0.17375 -0.77375,-0.46125 -0.1725,-0.25625 -0.2025,-0.60125 -0.0588,-0.88875 l 2.98375,-5.965 z"
       style="fill:#110f0d;fill-opacity:1;fill-rule:nonzero;stroke:none"
       id="path580"
       inkscape:connector-curvature="0" />
    <path
       inkscape:connector-curvature="0"
       id="path584"
       style="fill:none;stroke:#110f0d;stroke-width:0.065;stroke-linecap:butt;stroke-linejoin:round;stroke-miterlimit:10;stroke-opacity:1;stroke-dasharray:none"
       d="m 339.63605,575.932 -0.8325,-1.31875 5.96375,0 -0.8325,1.31875 -2.98,-5.96375 1.66375,0 -2.9825,5.96375 z m 1.31875,-6.7975 c 0.17125,-0.31375 0.48875,-0.4875 0.83,-0.4875 0.345,0 0.66125,0.17375 0.83375,0.4875 l 2.98125,5.965 c 0.1425,0.2875 0.11625,0.6325 -0.0575,0.88875 -0.17125,0.2875 -0.46,0.46125 -0.775,0.46125 l -5.96375,0 c -0.315,0 -0.6025,-0.17375 -0.77375,-0.46125 -0.1725,-0.25625 -0.2025,-0.60125 -0.0588,-0.88875 l 2.98375,-5.965 z" />
    <path
       d="m 409.0903,579.80163 2.98375,5.96625 -5.9675,0 2.98375,-5.96625 z"
       style="fill:#110f0d;fill-opacity:1;fill-rule:nonzero;stroke:none"
       id="path586"
       inkscape:connector-curvature="0" />
    <path
       d="m 406.93943,586.16888 -0.8325,-1.31875 5.96625,0 -0.8325,1.31875 -2.9825,-5.96375 1.665,0 -2.98375,5.96375 z m 1.31875,-6.7675 c 0.1725,-0.315 0.4875,-0.515 0.8325,-0.515 0.34375,0 0.66125,0.2 0.8325,0.515 l 2.98,5.96375 c 0.115,0.28875 0.115,0.60625 -0.0525,0.89125 -0.17625,0.25625 -0.4625,0.43 -0.7775,0.43 l -5.96625,0 c -0.315,0 -0.6,-0.17375 -0.77375,-0.43 -0.17125,-0.285 -0.2,-0.6025 -0.0563,-0.89125 l 2.98125,-5.96375 z"
       style="fill:#110f0d;fill-opacity:1;fill-rule:nonzero;stroke:none"
       id="path588"
       inkscape:connector-curvature="0" />
    <path
       inkscape:connector-curvature="0"
       id="path592"
       style="fill:none;stroke:#110f0d;stroke-width:0.065;stroke-linecap:butt;stroke-linejoin:round;stroke-miterlimit:10;stroke-opacity:1;stroke-dasharray:none"
       d="m 406.93943,586.16888 -0.8325,-1.31875 5.96625,0 -0.8325,1.31875 -2.9825,-5.96375 1.665,0 -2.98375,5.96375 z m 1.31875,-6.7675 c 0.1725,-0.315 0.4875,-0.515 0.8325,-0.515 0.34375,0 0.66125,0.2 0.8325,0.515 l 2.98,5.96375 c 0.115,0.28875 0.115,0.60625 -0.0525,0.89125 -0.17625,0.25625 -0.4625,0.43 -0.7775,0.43 l -5.96625,0 c -0.315,0 -0.6,-0.17375 -0.77375,-0.43 -0.17125,-0.285 -0.2,-0.6025 -0.0563,-0.89125 l 2.98125,-5.96375 z" />
    <path
       d="m 476.39505,598.95938 2.98125,5.96625 -5.965,0 2.98375,-5.96625 z"
       style="fill:#110f0d;fill-opacity:1;fill-rule:nonzero;stroke:none"
       id="path594"
       inkscape:connector-curvature="0" />
    <path
       d="m 474.21493,605.3265 -0.80375,-1.32125 5.965,0 -0.83,1.32125 -2.98375,-5.96625 1.63625,0 -2.98375,5.96625 z m 1.3475,-6.7975 c 0.17375,-0.31375 0.48875,-0.48875 0.8325,-0.48875 0.345,0 0.65875,0.175 0.80375,0.48875 l 2.9825,5.965 c 0.1425,0.2875 0.1425,0.6325 -0.0288,0.89 -0.17375,0.28625 -0.45875,0.4575 -0.77625,0.4575 l -5.965,0 c -0.315,0 -0.62875,-0.17125 -0.77375,-0.4575 -0.1725,-0.2575 -0.2,-0.6025 -0.0563,-0.89 l 2.98125,-5.965 z"
       style="fill:#110f0d;fill-opacity:1;fill-rule:nonzero;stroke:none"
       id="path596"
       inkscape:connector-curvature="0" />
    <path
       inkscape:connector-curvature="0"
       id="path600"
       style="fill:none;stroke:#110f0d;stroke-width:0.065;stroke-linecap:butt;stroke-linejoin:round;stroke-miterlimit:10;stroke-opacity:1;stroke-dasharray:none"
       d="m 474.21493,605.3265 -0.80375,-1.32125 5.965,0 -0.83,1.32125 -2.98375,-5.96625 1.63625,0 -2.98375,5.96625 z m 1.3475,-6.7975 c 0.17375,-0.31375 0.48875,-0.48875 0.8325,-0.48875 0.345,0 0.65875,0.175 0.80375,0.48875 l 2.9825,5.965 c 0.1425,0.2875 0.1425,0.6325 -0.0288,0.89 -0.17375,0.28625 -0.45875,0.4575 -0.77625,0.4575 l -5.965,0 c -0.315,0 -0.62875,-0.17125 -0.77375,-0.4575 -0.1725,-0.2575 -0.2,-0.6025 -0.0563,-0.89 l 2.98125,-5.965 z" />
    <path
       d="m 472.3228,605.01163 4.24375,1.4625 c 0.6025,0.2 0.9175,0.86125 0.7175,1.43249 -0.2025,0.6025 -0.86,0.91876 -1.43375,0.71626 l -4.2725,-1.46001 c -0.6025,-0.19999 -0.9175,-0.8625 -0.7175,-1.43625 0.2,-0.6025 0.86,-0.945 1.4625,-0.715 m -8.68875,-2.98374 4.32875,1.49249 c 0.6025,0.2 0.9175,0.85875 0.7175,1.4625 -0.2,0.6025 -0.86,0.9175 -1.4625,0.6875 l -4.32875,-1.465 c -0.6025,-0.22875 -0.9175,-0.85875 -0.7175,-1.46 0.2,-0.6025 0.85875,-0.9175 1.4625,-0.7175 m -8.68875,-2.9825 4.32875,1.49125 c 0.6025,0.2025 0.94625,0.85875 0.7175,1.4625 -0.2,0.6 -0.86,0.9175 -1.43375,0.7175 l -4.3575,-1.49125 c -0.6025,-0.2025 -0.9175,-0.8625 -0.7175,-1.4625 0.2,-0.60375 0.85875,-0.91875 1.4625,-0.7175 m -8.69,-2.955 4.35875,1.4625 c 0.6025,0.23 0.9175,0.8625 0.7175,1.465 -0.23,0.60125 -0.86125,0.915 -1.4625,0.715 l -4.36,-1.49125 c -0.57125,-0.20125 -0.91625,-0.86 -0.68625,-1.4625 0.2,-0.57125 0.83,-0.915 1.4325,-0.68875 m -8.65875,-2.98 4.32875,1.48875 c 0.6025,0.2025 0.9175,0.86125 0.7175,1.465 -0.2,0.57375 -0.86,0.9175 -1.465,0.68875 l -4.32875,-1.465 c -0.6,-0.2275 -0.915,-0.86 -0.7175,-1.46 0.2,-0.60375 0.86125,-0.91875 1.465,-0.7175 m -8.68875,-2.98375 4.3275,1.49375 c 0.60375,0.1975 0.91875,0.8575 0.71875,1.46 -0.2,0.6025 -0.8625,0.9175 -1.4625,0.7175 l -4.33125,-1.49125 c -0.60375,-0.2 -0.9175,-0.86 -0.715,-1.4625 0.2,-0.6025 0.85875,-0.9175 1.4625,-0.7175 m -8.69,-2.9525 4.35875,1.46 c 0.57375,0.23 0.9175,0.8625 0.68875,1.465 -0.20125,0.60125 -0.8625,0.91875 -1.43625,0.71625 l -4.3575,-1.4925 c -0.60375,-0.2 -0.91875,-0.85875 -0.71625,-1.4625 0.19875,-0.57375 0.86,-0.9175 1.4625,-0.68625 m -8.68875,-2.9825 4.35875,1.49126 c 0.6,0.19999 0.9175,0.85999 0.715,1.46249 -0.23,0.57125 -0.86,0.915 -1.4625,0.68875 l -4.3575,-1.465 c -0.57375,-0.23 -0.91875,-0.86 -0.68875,-1.4625 0.2,-0.59999 0.85875,-0.915 1.435,-0.715 m -8.69125,-2.955 4.3575,1.4625 c 0.60375,0.20125 0.91875,0.8625 0.71875,1.4625 -0.20125,0.60375 -0.86,0.91875 -1.4625,0.71625 l -4.32875,-1.49 c -0.60375,-0.2 -0.91875,-0.8325 -0.7175,-1.435 0.2,-0.60125 0.85875,-0.91625 1.4325,-0.71625 m -8.68875,-2.95375 4.36,1.4625 c 0.60125,0.2 0.91625,0.86 0.7175,1.4625 -0.2025,0.6025 -0.86125,0.9175 -1.46375,0.7175 l -4.32875,-1.49125 c -0.60375,-0.2 -0.91875,-0.8325 -0.71875,-1.43375 0.20125,-0.6025 0.86,-0.9175 1.43375,-0.7175 m -8.66,-2.95375 4.33125,1.46125 c 0.6025,0.20125 0.915,0.8625 0.715,1.46375 -0.2,0.6025 -0.85875,0.9175 -1.46,0.7175 l -4.33125,-1.49125 c -0.6025,-0.20125 -0.92,-0.86 -0.7175,-1.43375 0.2,-0.6025 0.86,-0.9475 1.4625,-0.7175 m -8.68875,-2.95375 4.32875,1.4625 c 0.6025,0.2 0.9175,0.86125 0.7175,1.46375 -0.2,0.60125 -0.85875,0.91625 -1.4625,0.71625 l -4.32875,-1.49 c -0.6025,-0.2025 -0.9175,-0.8625 -0.7175,-1.435 0.2,-0.60375 0.86,-0.9475 1.4625,-0.7175 m -8.68875,-2.9525 4.32875,1.46 c 0.6025,0.2025 0.92,0.8625 0.7175,1.465 -0.2,0.60125 -0.86125,0.91875 -1.4625,0.715 l -4.32875,-1.49125 c -0.605,-0.2 -0.91625,-0.85875 -0.7175,-1.46 0.2,-0.57375 0.85875,-0.9175 1.4625,-0.68875 m -8.69,-2.9825 4.3325,1.49125 c 0.6,0.2 0.915,0.85875 0.71625,1.4625 -0.2,0.6 -0.86125,0.915 -1.465,0.7175 l -4.32875,-1.49125 c -0.6025,-0.2025 -0.9175,-0.8625 -0.7175,-1.465 0.2,-0.57125 0.85875,-0.91625 1.4625,-0.715 m -8.6875,-2.955 4.3275,1.4925 c 0.6025,0.2 0.91875,0.85875 0.72,1.4625 -0.20125,0.6025 -0.86375,0.9175 -1.465,0.715 l -4.33125,-1.49 c -0.60125,-0.2025 -0.91625,-0.86125 -0.71375,-1.46125 0.2,-0.60375 0.86,-0.91875 1.4625,-0.71875 m -8.17375,-2.66625 0.0563,0.0863 -0.4875,-0.315 4.24375,1.4325 c 0.60375,0.20125 0.92125,0.86125 0.71875,1.4625 -0.2025,0.60375 -0.8625,0.91875 -1.4625,0.71875 l -4.21625,-1.4625 c -0.20125,-0.0588 -0.37125,-0.17375 -0.4875,-0.3175 l -0.0863,-0.0863 c -0.43,-0.45625 -0.37,-1.17375 0.0863,-1.60375 0.4875,-0.4325 1.20375,-0.4025 1.635,0.085 m -6.13875,-6.825 3.0675,3.4125 c 0.4325,0.45875 0.375,1.20375 -0.0837,1.60625 -0.48875,0.43 -1.20375,0.4 -1.635,-0.0875 l -3.03875,-3.41125 c -0.43,-0.45875 -0.40125,-1.20375 0.0863,-1.60625 0.45625,-0.43 1.17625,-0.4 1.60375,0.0863 m -6.105,-6.85375 3.0375,3.41375 c 0.43125,0.485 0.4025,1.2025 -0.0863,1.6325 -0.45625,0.43 -1.17625,0.37375 -1.605,-0.085 l -3.06625,-3.41375 c -0.43375,-0.485 -0.375,-1.2025 0.0837,-1.6325 0.45875,-0.40375 1.20375,-0.37375 1.63625,0.085 m -6.13875,-6.82375 3.06875,3.41125 c 0.40125,0.4875 0.3725,1.20375 -0.0862,1.635 -0.4875,0.40125 -1.20625,0.37125 -1.63375,-0.0875 l -3.07,-3.44 c -0.4,-0.45875 -0.37,-1.17625 0.0875,-1.6075 0.48625,-0.42875 1.205,-0.3725 1.63375,0.0888 m -6.1375,-6.82625 3.06875,3.41125 c 0.43125,0.46125 0.405,1.20625 -0.0863,1.60625 -0.45875,0.4325 -1.2025,0.4025 -1.605,-0.085 l -3.0675,-3.41375 c -0.4325,-0.45875 -0.40375,-1.20375 0.085,-1.60375 0.4575,-0.4325 1.205,-0.4 1.605,0.085 m -6.10625,-6.85625 3.0675,3.44375 c 0.40125,0.45875 0.3725,1.17625 -0.115,1.60625 -0.4575,0.43 -1.17625,0.37375 -1.605,-0.085 l -3.06875,-3.41625 c -0.43125,-0.48625 -0.3725,-1.20375 0.085,-1.63375 0.48875,-0.4 1.20625,-0.37 1.63625,0.085 m -6.14,-6.8225 3.06875,3.4125 c 0.43375,0.48625 0.3725,1.20375 -0.0825,1.63375 -0.49,0.43 -1.2075,0.37375 -1.63625,-0.085 l -3.04125,-3.41125 c -0.4275,-0.48875 -0.4,-1.20625 0.0862,-1.63625 0.46,-0.43125 1.1775,-0.3725 1.605,0.0863 m -6.105,-6.82625 3.0375,3.4125 c 0.43,0.48875 0.40375,1.20625 -0.0863,1.63625 -0.45625,0.4 -1.17375,0.37125 -1.60375,-0.115 l -3.0675,-3.4125 c -0.43125,-0.45875 -0.375,-1.1775 0.0825,-1.60625 0.49,-0.43 1.20625,-0.40125 1.6375,0.085 m -6.13875,-6.82375 3.06875,3.4125 c 0.43,0.46 0.3725,1.20375 -0.085,1.6075 -0.4875,0.42875 -1.20625,0.4 -1.635,-0.0888 l -3.0675,-3.41 c -0.40375,-0.46125 -0.3725,-1.20625 0.1125,-1.60625 0.46,-0.43 1.175,-0.40375 1.60625,0.085 m -6.1375,-6.855 3.06875,3.4125 c 0.43125,0.48875 0.40375,1.20625 -0.0863,1.63375 -0.45875,0.43125 -1.20125,0.3725 -1.605,-0.0837 l -3.0675,-3.4125 c -0.43125,-0.48875 -0.40125,-1.20625 0.0863,-1.63625 0.4575,-0.4 1.2025,-0.37125 1.60375,0.0863 m -6.10624,-6.82375 3.06999,3.41 c 0.39875,0.48875 0.37125,1.20625 -0.09,1.63625 -0.485,0.4025 -1.20375,0.3725 -1.63125,-0.0862 l -3.06874,-3.44 c -0.405,-0.46125 -0.37375,-1.17625 0.085,-1.60875 0.49,-0.43 1.20375,-0.37125 1.635,0.0887 m -6.13875,-6.82625 3.07,3.4125 c 0.43,0.45875 0.37125,1.20625 -0.0863,1.60625 -0.45875,0.43 -1.205,0.40125 -1.635,-0.0875 l -3.03875,-3.41125 c -0.43125,-0.45875 -0.40125,-1.2025 0.085,-1.60625 0.4575,-0.42875 1.205,-0.4 1.605,0.0862"
       style="fill:#0b8ed8;fill-opacity:1;fill-rule:nonzero;stroke:none"
       id="path602"
       inkscape:connector-curvature="0" />
    <path
       inkscape:connector-curvature="0"
       id="path606"
       style="fill:none;stroke:#0b8ed8;stroke-width:1.03750002;stroke-linecap:butt;stroke-linejoin:miter;stroke-miterlimit:4;stroke-opacity:1;stroke-dasharray:none"
       d="m 472.3228,605.01163 4.24375,1.4625 c 0.6025,0.2 0.9175,0.86125 0.7175,1.43249 -0.2025,0.6025 -0.86,0.91876 -1.43375,0.71626 l -4.2725,-1.46001 c -0.6025,-0.19999 -0.9175,-0.8625 -0.7175,-1.43625 0.2,-0.6025 0.86,-0.945 1.4625,-0.715 z m -8.68875,-2.98375 4.32875,1.4925 c 0.6025,0.19999 0.9175,0.85875 0.7175,1.46249 -0.2,0.60251 -0.86,0.91751 -1.4625,0.68751 l -4.32875,-1.465 c -0.6025,-0.22875 -0.9175,-0.85876 -0.7175,-1.46 0.2,-0.6025 0.85875,-0.91751 1.4625,-0.7175 z m -8.68875,-2.9825 4.32875,1.49125 c 0.6025,0.2025 0.94625,0.85875 0.7175,1.4625 -0.2,0.6 -0.86,0.9175 -1.43375,0.7175 l -4.3575,-1.49125 c -0.6025,-0.2025 -0.9175,-0.8625 -0.7175,-1.4625 0.2,-0.60375 0.85875,-0.91875 1.4625,-0.7175 z m -8.69,-2.955 4.35875,1.4625 c 0.6025,0.22999 0.9175,0.86249 0.7175,1.465 -0.23,0.60125 -0.86125,0.915 -1.4625,0.715 l -4.36,-1.49125 c -0.57125,-0.20126 -0.91625,-0.86001 -0.68625,-1.4625 0.2,-0.57125 0.83,-0.915 1.4325,-0.68875 z m -8.65875,-2.98 4.32875,1.48875 c 0.6025,0.2025 0.9175,0.86125 0.7175,1.465 -0.2,0.57375 -0.86,0.9175 -1.465,0.68875 l -4.32875,-1.465 c -0.6,-0.2275 -0.915,-0.86 -0.7175,-1.46 0.2,-0.60375 0.86125,-0.91876 1.465,-0.7175 z m -8.68875,-2.98375 4.3275,1.49375 c 0.60375,0.1975 0.91875,0.8575 0.71875,1.46 -0.2,0.6025 -0.8625,0.9175 -1.4625,0.7175 l -4.33125,-1.49125 c -0.60375,-0.2 -0.9175,-0.86 -0.715,-1.4625 0.2,-0.6025 0.85875,-0.9175 1.4625,-0.7175 z m -8.69,-2.9525 4.35875,1.46 c 0.57375,0.23 0.9175,0.8625 0.68875,1.465 -0.20125,0.60125 -0.8625,0.91875 -1.43625,0.71625 l -4.3575,-1.4925 c -0.60375,-0.2 -0.91875,-0.85875 -0.71625,-1.4625 0.19875,-0.57375 0.86,-0.9175 1.4625,-0.68625 z m -8.68875,-2.9825 4.35875,1.49125 c 0.6,0.2 0.9175,0.86 0.715,1.4625 -0.23,0.57125 -0.86,0.915 -1.4625,0.68875 l -4.3575,-1.465 c -0.57375,-0.23 -0.91875,-0.86 -0.68875,-1.4625 0.2,-0.6 0.85875,-0.915 1.435,-0.715 z m -8.69125,-2.955 4.3575,1.4625 c 0.60375,0.20125 0.91875,0.8625 0.71875,1.4625 -0.20125,0.60375 -0.86,0.91875 -1.4625,0.71625 l -4.32875,-1.49 c -0.60375,-0.2 -0.91875,-0.8325 -0.7175,-1.435 0.2,-0.60125 0.85875,-0.91625 1.4325,-0.71625 z m -8.68875,-2.95375 4.36,1.4625 c 0.60125,0.2 0.91625,0.86 0.7175,1.4625 -0.2025,0.6025 -0.86125,0.9175 -1.46375,0.7175 l -4.32875,-1.49125 c -0.60375,-0.2 -0.91875,-0.8325 -0.71875,-1.43375 0.20125,-0.6025 0.86,-0.9175 1.43375,-0.71751 z m -8.66,-2.95375 4.33125,1.46125 c 0.6025,0.20125 0.915,0.8625 0.715,1.46375 -0.2,0.6025 -0.85875,0.9175 -1.46,0.7175 l -4.33125,-1.49125 c -0.6025,-0.20125 -0.92,-0.86 -0.7175,-1.43375 0.2,-0.6025 0.86,-0.9475 1.4625,-0.7175 z m -8.68875,-2.95375 4.32875,1.4625 c 0.6025,0.2 0.9175,0.86125 0.7175,1.46375 -0.2,0.60125 -0.85875,0.91625 -1.4625,0.71625 l -4.32875,-1.49 c -0.6025,-0.2025 -0.9175,-0.8625 -0.7175,-1.435 0.2,-0.60375 0.86,-0.9475 1.4625,-0.7175 z m -8.68875,-2.9525 4.32875,1.46 c 0.6025,0.2025 0.92,0.8625 0.7175,1.465 -0.2,0.60125 -0.86125,0.91875 -1.4625,0.715 l -4.32875,-1.49125 c -0.605,-0.2 -0.91625,-0.85875 -0.7175,-1.46 0.2,-0.57375 0.85875,-0.9175 1.4625,-0.68875 z m -8.69,-2.9825 4.3325,1.49125 c 0.6,0.2 0.915,0.85875 0.71625,1.4625 -0.2,0.6 -0.86125,0.915 -1.465,0.7175 l -4.32875,-1.49125 c -0.6025,-0.2025 -0.9175,-0.8625 -0.7175,-1.465 0.2,-0.57125 0.85875,-0.91625 1.4625,-0.715 z m -8.6875,-2.955 4.3275,1.4925 c 0.6025,0.2 0.91875,0.85875 0.72,1.4625 -0.20125,0.6025 -0.86375,0.9175 -1.465,0.715 l -4.33125,-1.49 c -0.60125,-0.2025 -0.91625,-0.86125 -0.71375,-1.46125 0.2,-0.60376 0.86,-0.91876 1.4625,-0.71875 z m -8.17375,-2.66625 0.0563,0.0863 -0.4875,-0.315 4.24375,1.4325 c 0.60375,0.20124 0.92125,0.86124 0.71875,1.46249 -0.2025,0.60375 -0.8625,0.91876 -1.4625,0.71875 l -4.21625,-1.4625 c -0.20125,-0.0588 -0.37125,-0.17375 -0.4875,-0.31749 l -0.0863,-0.0863 c -0.43,-0.45626 -0.37,-1.17375 0.0863,-1.60375 0.4875,-0.4325 1.20375,-0.4025 1.635,0.085 z m -6.13875,-6.825 3.0675,3.4125 c 0.4325,0.45875 0.375,1.20375 -0.0837,1.60625 -0.48875,0.43 -1.20375,0.39999 -1.635,-0.0875 l -3.03875,-3.41125 c -0.43,-0.45875 -0.40125,-1.20375 0.0863,-1.60626 0.45625,-0.42999 1.17625,-0.39999 1.60375,0.0863 z m -6.105,-6.85375 3.0375,3.41375 c 0.43125,0.485 0.4025,1.20249 -0.0863,1.6325 -0.45625,0.43 -1.17625,0.37375 -1.605,-0.085 l -3.06625,-3.41375 c -0.43375,-0.485 -0.375,-1.2025 0.0837,-1.6325 0.45875,-0.40375 1.20375,-0.37375 1.63625,0.085 z m -6.13875,-6.82375 3.06875,3.41125 c 0.40125,0.4875 0.3725,1.20375 -0.0862,1.635 -0.4875,0.40125 -1.20625,0.37125 -1.63375,-0.0875 l -3.07,-3.44 c -0.4,-0.45875 -0.37,-1.17625 0.0875,-1.6075 0.48625,-0.42875 1.205,-0.3725 1.63375,0.0888 z m -6.1375,-6.82625 3.06875,3.41125 c 0.43125,0.46125 0.405,1.20625 -0.0863,1.60625 -0.45875,0.4325 -1.2025,0.4025 -1.605,-0.085 l -3.0675,-3.41375 c -0.4325,-0.45875 -0.40375,-1.20375 0.085,-1.60375 0.4575,-0.4325 1.205,-0.4 1.605,0.085 z m -6.10625,-6.85626 3.0675,3.44375 c 0.40125,0.45875 0.3725,1.17625 -0.115,1.60625 -0.4575,0.43 -1.17625,0.37375 -1.605,-0.085 l -3.06875,-3.41625 c -0.43125,-0.48625 -0.3725,-1.20375 0.085,-1.63375 0.48875,-0.4 1.20625,-0.37 1.63625,0.085 z m -6.14,-6.8225 3.06875,3.4125 c 0.43375,0.48626 0.3725,1.20375 -0.0825,1.63375 -0.49,0.43 -1.2075,0.37375 -1.63625,-0.085 l -3.04125,-3.41125 c -0.4275,-0.48875 -0.4,-1.20625 0.0862,-1.63625 0.46,-0.43125 1.1775,-0.3725 1.605,0.0863 z m -6.105,-6.82625 3.0375,3.4125 c 0.43,0.48875 0.40375,1.20625 -0.0863,1.63625 -0.45625,0.4 -1.17375,0.37125 -1.60375,-0.115 l -3.0675,-3.4125 c -0.43125,-0.45875 -0.375,-1.1775 0.0825,-1.60625 0.49,-0.43 1.20625,-0.40125 1.6375,0.085 z m -6.13875,-6.82375 3.06875,3.4125 c 0.43,0.46 0.3725,1.20375 -0.085,1.6075 -0.4875,0.42875 -1.20625,0.4 -1.635,-0.0888 l -3.0675,-3.41 c -0.40375,-0.46125 -0.3725,-1.20625 0.1125,-1.60625 0.46,-0.43 1.175,-0.40375 1.60625,0.085 z m -6.1375,-6.855 3.06875,3.4125 c 0.43125,0.48875 0.40375,1.20625 -0.0863,1.63375 -0.45875,0.43125 -1.20125,0.3725 -1.605,-0.0837 l -3.0675,-3.4125 c -0.43125,-0.48875 -0.40125,-1.20625 0.0863,-1.63625 0.4575,-0.4 1.2025,-0.37125 1.60375,0.0863 z m -6.10624,-6.82375 3.06999,3.41 c 0.39875,0.48875 0.37125,1.20625 -0.09,1.63625 -0.485,0.4025 -1.20375,0.3725 -1.63125,-0.0862 l -3.06874,-3.44 c -0.405,-0.46125 -0.37375,-1.17625 0.085,-1.60875 0.49,-0.43 1.20375,-0.37125 1.635,0.0887 z m -6.13875,-6.82625 3.07,3.4125 c 0.43,0.45875 0.37125,1.20625 -0.0863,1.60625 -0.45875,0.43 -1.205,0.40125 -1.635,-0.0875 l -3.03875,-3.41125 c -0.43125,-0.45875 -0.40125,-1.2025 0.085,-1.60625 0.4575,-0.42875 1.205,-0.4 1.605,0.0862 z" />
    <path
       d="m 274.48093,483.64925 2.9825,5.96375 -5.965,0 2.9825,-5.96375 z"
       style="fill:#0b8ed8;fill-opacity:1;fill-rule:nonzero;stroke:none"
       id="path608"
       inkscape:connector-curvature="0" />
    <path
       d="m 272.33068,490.0165 -0.8325,-1.31875 5.965,0 -0.8025,1.31875 -2.98125,-5.96375 1.63375,0 -2.9825,5.96375 z m 1.34875,-6.7675 c 0.14,-0.3175 0.4575,-0.5175 0.80125,-0.5175 0.34375,0 0.66,0.2 0.8325,0.5175 l 2.98125,5.96375 c 0.14375,0.28625 0.11625,0.60125 -0.0575,0.88875 -0.14375,0.25875 -0.45875,0.43 -0.77375,0.43 l -5.965,0 c -0.315,0 -0.6025,-0.17125 -0.77375,-0.43 -0.1725,-0.2875 -0.1725,-0.6025 -0.03,-0.88875 l 2.985,-5.96375 z"
       style="fill:#0b8ed8;fill-opacity:1;fill-rule:nonzero;stroke:none"
       id="path610"
       inkscape:connector-curvature="0" />
    <path
       inkscape:connector-curvature="0"
       id="path614"
       style="fill:none;stroke:#0b8ed8;stroke-width:0.64999998;stroke-linecap:butt;stroke-linejoin:miter;stroke-miterlimit:4;stroke-opacity:1;stroke-dasharray:none"
       d="m 272.33068,490.0165 -0.8325,-1.31875 5.965,0 -0.8025,1.31875 -2.98125,-5.96375 1.63375,0 -2.9825,5.96375 z m 1.34875,-6.7675 c 0.14,-0.3175 0.4575,-0.5175 0.80125,-0.5175 0.34375,0 0.66,0.2 0.8325,0.5175 l 2.98125,5.96375 c 0.14375,0.28625 0.11625,0.60125 -0.0575,0.88875 -0.14375,0.25875 -0.45875,0.43 -0.77375,0.43 l -5.965,0 c -0.315,0 -0.6025,-0.17125 -0.77375,-0.43 -0.1725,-0.2875 -0.1725,-0.6025 -0.03,-0.88875 l 2.985,-5.96375 z" />
    <path
       d="m 341.78443,558.83975 2.9825,5.96375 -5.96375,0 2.98125,-5.96375 z"
       style="fill:#0b8ed8;fill-opacity:1;fill-rule:nonzero;stroke:none"
       id="path616"
       inkscape:connector-curvature="0" />
    <path
       d="m 339.63605,565.20688 -0.8325,-1.31875 5.96375,0 -0.8325,1.31875 -2.98,-5.96375 1.66375,0 -2.9825,5.96375 z m 1.31875,-6.7675 c 0.17125,-0.315 0.48875,-0.515 0.83,-0.515 0.345,0 0.66125,0.2 0.83375,0.515 l 2.98125,5.96375 c 0.1425,0.28875 0.11625,0.63 -0.0575,0.88875 -0.17125,0.25875 -0.46,0.4325 -0.775,0.4325 l -5.96375,0 c -0.315,0 -0.6025,-0.17375 -0.77375,-0.4325 -0.1725,-0.25875 -0.2025,-0.6 -0.0588,-0.88875 l 2.98375,-5.96375 z"
       style="fill:#0b8ed8;fill-opacity:1;fill-rule:nonzero;stroke:none"
       id="path618"
       inkscape:connector-curvature="0" />
    <path
       inkscape:connector-curvature="0"
       id="path622"
       style="fill:none;stroke:#0b8ed8;stroke-width:0.64999998;stroke-linecap:butt;stroke-linejoin:miter;stroke-miterlimit:4;stroke-opacity:1;stroke-dasharray:none"
       d="m 339.63605,565.20688 -0.8325,-1.31875 5.96375,0 -0.8325,1.31875 -2.98,-5.96375 1.66375,0 -2.9825,5.96375 z m 1.31875,-6.7675 c 0.17125,-0.315 0.48875,-0.515 0.83,-0.515 0.345,0 0.66125,0.2 0.83375,0.515 l 2.98125,5.96375 c 0.1425,0.28875 0.11625,0.63 -0.0575,0.88875 -0.17125,0.25875 -0.46,0.4325 -0.775,0.4325 l -5.96375,0 c -0.315,0 -0.6025,-0.17375 -0.77375,-0.4325 -0.1725,-0.25875 -0.2025,-0.6 -0.0588,-0.88875 l 2.98375,-5.96375 z" />
    <path
       d="m 409.0903,581.66688 2.98375,5.96374 -5.9675,0 2.98375,-5.96374 z"
       style="fill:#0b8ed8;fill-opacity:1;fill-rule:nonzero;stroke:none"
       id="path624"
       inkscape:connector-curvature="0" />
    <path
       d="m 406.93943,588.06088 -0.8325,-1.3475 5.96625,0 -0.8325,1.3475 -2.9825,-5.96375 1.665,0 -2.98375,5.96375 z m 1.31875,-6.795 c 0.1725,-0.31625 0.4875,-0.5175 0.8325,-0.5175 0.34375,0 0.66125,0.20125 0.8325,0.5175 l 2.98,5.965 c 0.115,0.285 0.115,0.63 -0.0525,0.88875 -0.17625,0.285 -0.4625,0.43 -0.7775,0.43 l -5.96625,0 c -0.315,0 -0.6,-0.145 -0.77375,-0.43 -0.17125,-0.25875 -0.2,-0.60375 -0.0563,-0.88875 l 2.98125,-5.965 z"
       style="fill:#0b8ed8;fill-opacity:1;fill-rule:nonzero;stroke:none"
       id="path626"
       inkscape:connector-curvature="0" />
    <path
       inkscape:connector-curvature="0"
       id="path630"
       style="fill:none;stroke:#0b8ed8;stroke-width:0.64999998;stroke-linecap:butt;stroke-linejoin:miter;stroke-miterlimit:4;stroke-opacity:1;stroke-dasharray:none"
       d="m 406.93943,588.06088 -0.8325,-1.3475 5.96625,0 -0.8325,1.3475 -2.9825,-5.96375 1.665,0 -2.98375,5.96375 z m 1.31875,-6.795 c 0.1725,-0.31625 0.4875,-0.5175 0.8325,-0.5175 0.34375,0 0.66125,0.20125 0.8325,0.5175 l 2.98,5.965 c 0.115,0.285 0.115,0.63 -0.0525,0.88875 -0.17625,0.285 -0.4625,0.43 -0.7775,0.43 l -5.96625,0 c -0.315,0 -0.6,-0.145 -0.77375,-0.43 -0.17125,-0.25875 -0.2,-0.60375 -0.0563,-0.88875 l 2.98125,-5.965 z" />
    <path
       d="m 476.39505,604.78213 2.98125,5.96374 -5.965,0 2.98375,-5.96374 z"
       style="fill:#0b8ed8;fill-opacity:1;fill-rule:nonzero;stroke:none"
       id="path632"
       inkscape:connector-curvature="0" />
    <path
       d="m 474.21493,611.17613 -0.80375,-1.3475 5.965,0 -0.83,1.3475 -2.98375,-5.96375 1.63625,0 -2.98375,5.96375 z m 1.3475,-6.7975 c 0.17375,-0.31375 0.48875,-0.515 0.8325,-0.515 0.345,0 0.65875,0.20125 0.80375,0.515 l 2.9825,5.965 c 0.1425,0.2875 0.1425,0.6325 -0.0288,0.89125 -0.17375,0.285 -0.45875,0.43 -0.77625,0.43 l -5.965,0 c -0.315,0 -0.62875,-0.14501 -0.77375,-0.43 -0.1725,-0.25875 -0.2,-0.60375 -0.0563,-0.89125 l 2.98125,-5.965 z"
       style="fill:#0b8ed8;fill-opacity:1;fill-rule:nonzero;stroke:none"
       id="path634"
       inkscape:connector-curvature="0" />
    <path
       inkscape:connector-curvature="0"
       id="path638"
       style="fill:none;stroke:#0b8ed8;stroke-width:0.64999998;stroke-linecap:butt;stroke-linejoin:miter;stroke-miterlimit:4;stroke-opacity:1;stroke-dasharray:none"
       d="m 474.21493,611.17613 -0.80375,-1.3475 5.965,0 -0.83,1.3475 -2.98375,-5.96375 1.63625,0 -2.98375,5.96375 z m 1.3475,-6.7975 c 0.17375,-0.31375 0.48875,-0.515 0.8325,-0.515 0.345,0 0.65875,0.20125 0.80375,0.515 l 2.9825,5.965 c 0.1425,0.2875 0.1425,0.6325 -0.0288,0.89125 -0.17375,0.285 -0.45875,0.43 -0.77625,0.43 l -5.965,0 c -0.315,0 -0.62875,-0.14501 -0.77375,-0.43 -0.1725,-0.25875 -0.2,-0.60375 -0.0563,-0.89125 l 2.98125,-5.965 z" />
    <text
       style="font-size:15px"
       id="text644"
       x="303.55444"
       y="682.75702">
      <tspan
         style="font-size:17.5px;font-variant:normal;font-weight:bold;writing-mode:lr-tb;fill:#110f0d;fill-opacity:1;fill-rule:nonzero;stroke:none;font-family:Arial;-inkscape-font-specification:Arial-BoldMT"
         x="303.55444 314.24692 321.05444 330.78442 335.64944 346.34195 351.20694 361.89944 372.59195 377.45694 388.14944 393.01443 408.57196 418.30194 423.16693 428.99442 444.55194 449.41696 460.10947"
         y="682.75702"
         sodipodi:role="line"
         id="tspan646">Training Time (min)</tspan>
    </text>
    <text
       xml:space="preserve"
       style="font-size:20px;font-style:normal;font-variant:normal;font-weight:normal;font-stretch:normal;line-height:125%;letter-spacing:0px;word-spacing:0px;fill:#000000;fill-opacity:1;stroke:none;font-family:Arial;-inkscape-font-specification:Arial"
       x="-541.4939"
       y="216.09012"
       id="text5238"
       sodipodi:linespacing="125%"
       transform="matrix(0,-1,1,0,0,0)"><tspan
         sodipodi:role="line"
         id="tspan5240"
         x="-541.4939"
         y="216.09012"></tspan></text>
  </g>
</svg>
