<?xml version="1.0" encoding="UTF-8" standalone="no"?>
<!-- Created with Inkscape (http://www.inkscape.org/) -->

<svg
   xmlns:dc="http://purl.org/dc/elements/1.1/"
   xmlns:cc="http://creativecommons.org/ns#"
   xmlns:rdf="http://www.w3.org/1999/02/22-rdf-syntax-ns#"
   xmlns:svg="http://www.w3.org/2000/svg"
   xmlns="http://www.w3.org/2000/svg"
   xmlns:sodipodi="http://sodipodi.sourceforge.net/DTD/sodipodi-0.dtd"
   xmlns:inkscape="http://www.inkscape.org/namespaces/inkscape"
   id="svg2"
   version="1.1"
   inkscape:version="0.48.4 r9939"
   width="348.15561"
   height="417.98618"
   xml:space="preserve"
   sodipodi:docname="data_shifted_right.svg"><metadata
     id="metadata8"><rdf:RDF><cc:Work
         rdf:about=""><dc:format>image/svg+xml</dc:format><dc:type
           rdf:resource="http://purl.org/dc/dcmitype/StillImage" /><dc:title /></cc:Work></rdf:RDF></metadata><defs
     id="defs6"><clipPath
       clipPathUnits="userSpaceOnUse"
       id="clipPath28"><path
         d="m 138.92,122.89 547.07,0 0,376.11 -547.07,0 0,-376.11 z"
         clip-rule="evenodd"
         id="path30"
         inkscape:connector-curvature="0" /></clipPath><clipPath
       clipPathUnits="userSpaceOnUse"
       id="clipPath46"><path
         d="m 138.92,122.89 547.07,0 0,376.11 -547.07,0 0,-376.11 z"
         clip-rule="evenodd"
         id="path48"
         inkscape:connector-curvature="0" /></clipPath><clipPath
       clipPathUnits="userSpaceOnUse"
       id="clipPath56"><path
         d="m 138.92,122.89 547.07,0 0,376.11 -547.07,0 0,-376.11 z"
         clip-rule="evenodd"
         id="path58"
         inkscape:connector-curvature="0" /></clipPath><clipPath
       clipPathUnits="userSpaceOnUse"
       id="clipPath66"><path
         d="m 138.92,122.89 547.07,0 0,376.11 -547.07,0 0,-376.11 z"
         clip-rule="evenodd"
         id="path68"
         inkscape:connector-curvature="0" /></clipPath><clipPath
       clipPathUnits="userSpaceOnUse"
       id="clipPath84"><path
         d="m 138.92,122.89 547.07,0 0,376.11 -547.07,0 0,-376.11 z"
         clip-rule="evenodd"
         id="path86"
         inkscape:connector-curvature="0" /></clipPath><clipPath
       clipPathUnits="userSpaceOnUse"
       id="clipPath94"><path
         d="m 138.92,122.89 547.07,0 0,376.11 -547.07,0 0,-376.11 z"
         clip-rule="evenodd"
         id="path96"
         inkscape:connector-curvature="0" /></clipPath><clipPath
       clipPathUnits="userSpaceOnUse"
       id="clipPath104"><path
         d="m 138.92,122.89 547.07,0 0,376.11 -547.07,0 0,-376.11 z"
         clip-rule="evenodd"
         id="path106"
         inkscape:connector-curvature="0" /></clipPath><clipPath
       clipPathUnits="userSpaceOnUse"
       id="clipPath122"><path
         d="m 138.92,122.89 547.07,0 0,376.11 -547.07,0 0,-376.11 z"
         clip-rule="evenodd"
         id="path124"
         inkscape:connector-curvature="0" /></clipPath><clipPath
       clipPathUnits="userSpaceOnUse"
       id="clipPath132"><path
         d="m 138.92,122.89 547.07,0 0,376.11 -547.07,0 0,-376.11 z"
         clip-rule="evenodd"
         id="path134"
         inkscape:connector-curvature="0" /></clipPath><clipPath
       clipPathUnits="userSpaceOnUse"
       id="clipPath142"><path
         d="m 138.92,122.89 547.07,0 0,376.11 -547.07,0 0,-376.11 z"
         clip-rule="evenodd"
         id="path144"
         inkscape:connector-curvature="0" /></clipPath><clipPath
       clipPathUnits="userSpaceOnUse"
       id="clipPath160"><path
         d="m 138.92,122.89 547.07,0 0,376.11 -547.07,0 0,-376.11 z"
         clip-rule="evenodd"
         id="path162"
         inkscape:connector-curvature="0" /></clipPath><clipPath
       clipPathUnits="userSpaceOnUse"
       id="clipPath170"><path
         d="m 138.92,122.89 547.07,0 0,376.11 -547.07,0 0,-376.11 z"
         clip-rule="evenodd"
         id="path172"
         inkscape:connector-curvature="0" /></clipPath><clipPath
       clipPathUnits="userSpaceOnUse"
       id="clipPath180"><path
         d="m 138.92,122.03 547.07,0 0,376.98 -547.07,0 0,-376.98 z"
         clip-rule="evenodd"
         id="path182"
         inkscape:connector-curvature="0" /></clipPath><clipPath
       clipPathUnits="userSpaceOnUse"
       id="clipPath206"><path
         d="m 138.92,122.03 547.07,0 0,376.98 -547.07,0 0,-376.98 z"
         clip-rule="evenodd"
         id="path208"
         inkscape:connector-curvature="0" /></clipPath><clipPath
       clipPathUnits="userSpaceOnUse"
       id="clipPath232"><path
         d="m 138.92,122.03 547.07,0 0,376.98 -547.07,0 0,-376.98 z"
         clip-rule="evenodd"
         id="path234"
         inkscape:connector-curvature="0" /></clipPath><clipPath
       clipPathUnits="userSpaceOnUse"
       id="clipPath258"><path
         d="m 138.92,122.03 547.07,0 0,376.98 -547.07,0 0,-376.98 z"
         clip-rule="evenodd"
         id="path260"
         inkscape:connector-curvature="0" /></clipPath><clipPath
       clipPathUnits="userSpaceOnUse"
       id="clipPath284"><path
         d="m 51,64.56 690.12,0 0,482.76 -690.12,0 0,-482.76 z"
         clip-rule="evenodd"
         id="path286"
         inkscape:connector-curvature="0" /></clipPath><clipPath
       clipPathUnits="userSpaceOnUse"
       id="clipPath296"><path
         d="m 51,64.56 690.12,0 0,482.76 -690.12,0 0,-482.76 z"
         clip-rule="evenodd"
         id="path298"
         inkscape:connector-curvature="0" /></clipPath><clipPath
       clipPathUnits="userSpaceOnUse"
       id="clipPath308"><path
         d="m 51,64.56 690.12,0 0,482.76 -690.12,0 0,-482.76 z"
         clip-rule="evenodd"
         id="path310"
         inkscape:connector-curvature="0" /></clipPath><clipPath
       clipPathUnits="userSpaceOnUse"
       id="clipPath320"><path
         d="m 51,64.56 690.12,0 0,482.76 -690.12,0 0,-482.76 z"
         clip-rule="evenodd"
         id="path322"
         inkscape:connector-curvature="0" /></clipPath><clipPath
       clipPathUnits="userSpaceOnUse"
       id="clipPath332"><path
         d="m 51,64.56 690.12,0 0,482.76 -690.12,0 0,-482.76 z"
         clip-rule="evenodd"
         id="path334"
         inkscape:connector-curvature="0" /></clipPath><clipPath
       clipPathUnits="userSpaceOnUse"
       id="clipPath344"><path
         d="m 51,64.56 690.12,0 0,482.76 -690.12,0 0,-482.76 z"
         clip-rule="evenodd"
         id="path346"
         inkscape:connector-curvature="0" /></clipPath><clipPath
       clipPathUnits="userSpaceOnUse"
       id="clipPath356"><path
         d="m 51,64.56 690.12,0 0,482.76 -690.12,0 0,-482.76 z"
         clip-rule="evenodd"
         id="path358"
         inkscape:connector-curvature="0" /></clipPath><clipPath
       clipPathUnits="userSpaceOnUse"
       id="clipPath368"><path
         d="m 51,64.56 690.12,0 0,482.76 -690.12,0 0,-482.76 z"
         clip-rule="evenodd"
         id="path370"
         inkscape:connector-curvature="0" /></clipPath><clipPath
       clipPathUnits="userSpaceOnUse"
       id="clipPath380"><path
         d="m 51,64.56 690.12,0 0,482.76 -690.12,0 0,-482.76 z"
         clip-rule="evenodd"
         id="path382"
         inkscape:connector-curvature="0" /></clipPath><clipPath
       clipPathUnits="userSpaceOnUse"
       id="clipPath398"><path
         d="m 51,64.56 690.12,0 0,482.76 -690.12,0 0,-482.76 z"
         clip-rule="evenodd"
         id="path400"
         inkscape:connector-curvature="0" /></clipPath><clipPath
       clipPathUnits="userSpaceOnUse"
       id="clipPath416"><path
         d="m 51,64.56 690.12,0 0,482.76 -690.12,0 0,-482.76 z"
         clip-rule="evenodd"
         id="path418"
         inkscape:connector-curvature="0" /></clipPath><clipPath
       clipPathUnits="userSpaceOnUse"
       id="clipPath434"><path
         d="m 51,64.56 690.12,0 0,482.76 -690.12,0 0,-482.76 z"
         clip-rule="evenodd"
         id="path436"
         inkscape:connector-curvature="0" /></clipPath><clipPath
       clipPathUnits="userSpaceOnUse"
       id="clipPath452"><path
         d="m 51,64.56 690.12,0 0,482.76 -690.12,0 0,-482.76 z"
         clip-rule="evenodd"
         id="path454"
         inkscape:connector-curvature="0" /></clipPath></defs><sodipodi:namedview
     pagecolor="#ffffff"
     bordercolor="#666666"
     borderopacity="1"
     objecttolerance="10"
     gridtolerance="10"
     guidetolerance="10"
     inkscape:pageopacity="0"
     inkscape:pageshadow="2"
     inkscape:window-width="2560"
     inkscape:window-height="1538"
     id="namedview4"
     showgrid="false"
     inkscape:zoom="3.1603915"
     inkscape:cx="75.355857"
     inkscape:cy="208.99308"
     inkscape:window-x="-8"
     inkscape:window-y="-8"
     inkscape:window-maximized="1"
     inkscape:current-layer="g10"
     fit-margin-top="0"
     fit-margin-left="0"
     fit-margin-right="0"
     fit-margin-bottom="0" /><g
     id="g10"
     inkscape:groupmode="layer"
     inkscape:label="shifted MHC plot"
     transform="matrix(1.25,0,0,-1.25,-70.538615,651.38745)">





<path
   d="m 139.01,239.62918 0,259.34082"
   style="fill:none;stroke:#868686;stroke-width:0.90169001;stroke-linecap:butt;stroke-linejoin:round;stroke-miterlimit:10;stroke-opacity:1;stroke-dasharray:none"
   id="path16"
   inkscape:connector-curvature="0"
   sodipodi:nodetypes="cc" /><path
   d="m 133.2,240.33 5.81,0 m -5.81,117.58 5.81,0 m -5.81,117.56 5.81,0"
   style="fill:none;stroke:#868686;stroke-width:0.90169001;stroke-linecap:butt;stroke-linejoin:round;stroke-miterlimit:10;stroke-opacity:1;stroke-dasharray:none"
   id="path18"
   inkscape:connector-curvature="0"
   sodipodi:nodetypes="cccccc" /><path
   d="m 137.60026,240.11185 188.19828,0"
   style="fill:none;stroke:#868686;stroke-width:0.52995199;stroke-linecap:butt;stroke-linejoin:round;stroke-miterlimit:10;stroke-opacity:1;stroke-dasharray:none"
   id="path20"
   inkscape:connector-curvature="0" /><path
   d="m 137.60026,240.11185 0,-5.81378 m 62.71208,5.81378 0,-5.81378 m 62.7431,5.81378 0,-5.81378 m 62.7431,5.81378 0,-5.81378"
   style="fill:none;stroke:#868686;stroke-width:0.52995199;stroke-linecap:butt;stroke-linejoin:round;stroke-miterlimit:10;stroke-opacity:1;stroke-dasharray:none"
   id="path22"
   inkscape:connector-curvature="0" /><g
   id="g24"
   transform="matrix(0.34460977,0,0,1.0023767,89.696051,-0.83945486)"><g
     id="g26"
     clip-path="url(#clipPath28)"><path
       d="m 136.3,240.38 5.41,0 m -5.41,0 5.41,0"
       style="fill:none;stroke:#000000;stroke-width:0.90169001;stroke-linecap:butt;stroke-linejoin:round;stroke-miterlimit:10;stroke-opacity:1;stroke-dasharray:none"
       id="path32"
       inkscape:connector-curvature="0" /></g></g><path
   d="m 200.31234,358.06152 0,-23.04464 m 0,23.04464 0,23.05466 m -0.91321,-46.0993 1.86433,0 m -1.86433,46.0993 1.86433,0"
   style="fill:#000000;fill-opacity:1;fill-rule:nonzero;stroke:none"
   id="path34"
   inkscape:connector-curvature="0" /><path
   d="m 263.05544,393.49553 0,-20.97974 m 0,20.97974 0,20.9196 m -0.92355,-41.89934 1.86434,0 m -1.86434,41.89934 1.86434,0"
   style="fill:#000000;fill-opacity:1;fill-rule:nonzero;stroke:none"
   id="path38"
   inkscape:connector-curvature="0" /><g
   id="g42"
   transform="matrix(0.34460977,0,0,1.0023767,89.696051,-0.83945486)"><g
     id="g44"
     clip-path="url(#clipPath46)"><path
       d="m 685.13,438.12 0,-33.92 m 0,33.92 0,33.81 m -2.71,-67.73 5.41,0 m -5.41,67.73 5.41,0"
       style="fill:#000000;fill-opacity:1;fill-rule:nonzero;stroke:none"
       id="path50"
       inkscape:connector-curvature="0" /></g></g><g
   id="g62"
   transform="matrix(0.34460977,0,0,1.0023767,89.696051,-0.83945486)"><g
     id="g64"
     clip-path="url(#clipPath66)"><path
       d="m 136.3,240.38 5.41,0 m -5.41,0 5.41,0"
       style="fill:none;stroke:#c0504d;stroke-width:1.20229995;stroke-linecap:butt;stroke-linejoin:round;stroke-miterlimit:10;stroke-opacity:1;stroke-dasharray:none"
       id="path70"
       inkscape:connector-curvature="0" /></g></g><path
   d="m 200.31234,283.01357 0,-14.65474 m 0,14.65474 0,14.77504 m -0.91321,-29.42978 1.86433,0 m -1.86433,29.42978 1.86433,0"
   style="fill:none;stroke:#c0504d;stroke-width:0.70663005;stroke-linecap:butt;stroke-linejoin:round;stroke-miterlimit:10;stroke-opacity:1;stroke-dasharray:none"
   id="path74"
   inkscape:connector-curvature="0" /><path
   d="m 263.05544,318.58792 0,-16.91009 m 0,16.91009 0,17.02036 m -0.92355,-33.93045 1.86434,0 m -1.86434,33.93045 1.86434,0"
   style="fill:#000000;fill-opacity:1;fill-rule:nonzero;stroke:none"
   id="path76"
   inkscape:connector-curvature="0" /><path
   d="m 263.05544,318.58792 0,-16.91009 m 0,16.91009 0,17.02036 m -0.92355,-33.93045 1.86434,0 m -1.86434,33.93045 1.86434,0"
   style="fill:none;stroke:#c0504d;stroke-width:0.70663005;stroke-linecap:butt;stroke-linejoin:round;stroke-miterlimit:10;stroke-opacity:1;stroke-dasharray:none"
   id="path78"
   inkscape:connector-curvature="0" /><g
   id="g80"
   transform="matrix(0.34460977,0,0,1.0023767,89.696051,-0.83945486)"><g
     id="g82"
     clip-path="url(#clipPath84)"><path
       d="m 685.13,336.99 0,-13.52 m 0,13.52 0,13.63 m -2.71,-27.15 5.41,0 m -5.41,27.15 5.41,0"
       style="fill:#000000;fill-opacity:1;fill-rule:nonzero;stroke:none"
       id="path88"
       inkscape:connector-curvature="0" /></g></g><g
   id="g90"
   transform="matrix(0.34460977,0,0,1.0023767,89.696051,-0.83945486)"><g
     id="g92"
     clip-path="url(#clipPath94)"><path
       d="m 685.13,336.99 0,-13.52 m 0,13.52 0,13.63 m -2.71,-27.15 5.41,0 m -5.41,27.15 5.41,0"
       style="fill:none;stroke:#c0504d;stroke-width:1.20229995;stroke-linecap:butt;stroke-linejoin:round;stroke-miterlimit:10;stroke-opacity:1;stroke-dasharray:none"
       id="path98"
       inkscape:connector-curvature="0" /></g></g><g
   id="g100"
   transform="matrix(0.34460977,0,0,1.0023767,89.696051,-0.83945486)"><g
     id="g102"
     clip-path="url(#clipPath104)"><path
       d="m 136.3,240.38 5.41,0 m -5.41,0 5.41,0"
       style="fill:none;stroke:#000000;stroke-width:0.90169001;stroke-linecap:butt;stroke-linejoin:round;stroke-miterlimit:10;stroke-opacity:1;stroke-dasharray:none"
       id="path108"
       inkscape:connector-curvature="0" /></g></g><path
   d="m 200.31234,257.27254 0,-23.07471 m 0,23.07471 0,23.02459 m -0.91321,-46.0993 1.86433,0 m -1.86433,46.0993 1.86433,0"
   style="fill:#000000;fill-opacity:1;fill-rule:nonzero;stroke:none"
   id="path110"
   inkscape:connector-curvature="0" /><g
   id="g128"
   transform="matrix(0.34460977,0,0,1.0023767,89.696051,-0.83945486)"><g
     id="g130"
     clip-path="url(#clipPath132)"><path
       d="m 685.13,351.85 0,-33.86 m 0,33.86 0,33.87 m -2.71,-67.73 5.41,0 m -5.41,67.73 5.41,0"
       style="fill:none;stroke:#000000;stroke-width:0.90169001;stroke-linecap:butt;stroke-linejoin:round;stroke-miterlimit:10;stroke-opacity:1;stroke-dasharray:none"
       id="path136"
       inkscape:connector-curvature="0" /></g></g><g
   id="g138"
   transform="matrix(0.34460977,0,0,1.0023767,89.696051,-0.83945486)"><g
     id="g140"
     clip-path="url(#clipPath142)"><path
       d="m 136.3,240.38 5.41,0 m -5.41,0 5.41,0"
       style="fill:none;stroke:#c0504d;stroke-width:1.20229995;stroke-linecap:butt;stroke-linejoin:round;stroke-miterlimit:10;stroke-opacity:1;stroke-dasharray:none"
       id="path146"
       inkscape:connector-curvature="0" /></g></g><path
   d="m 200.31234,339.40729 0,-14.75499 m 0,14.75499 0,14.67479 m -0.91321,-29.42978 1.86433,0 m -1.86433,29.42978 1.86433,0"
   style="fill:#000000;fill-opacity:1;fill-rule:nonzero;stroke:none"
   id="path148"
   inkscape:connector-curvature="0" /><path
   d="m 200.31234,339.40729 0,-14.75499 m 0,14.75499 0,14.67479 m -0.91321,-29.42978 1.86433,0 m -1.86433,29.42978 1.86433,0"
   style="fill:none;stroke:#c0504d;stroke-width:0.70663005;stroke-linecap:butt;stroke-linejoin:round;stroke-miterlimit:10;stroke-opacity:1;stroke-dasharray:none"
   id="path150"
   inkscape:connector-curvature="0" /><path
   d="m 263.05544,379.75295 0,-16.93015 m 0,16.93015 0,17.0003 m -0.92355,-33.93045 1.86434,0 m -1.86434,33.93045 1.86434,0"
   style="fill:#000000;fill-opacity:1;fill-rule:nonzero;stroke:none"
   id="path152"
   inkscape:connector-curvature="0" /><path
   d="m 263.05544,379.75295 0,-16.93015 m 0,16.93015 0,17.0003 m -0.92355,-33.93045 1.86434,0 m -1.86434,33.93045 1.86434,0"
   style="fill:none;stroke:#c0504d;stroke-width:0.70663005;stroke-linecap:butt;stroke-linejoin:round;stroke-miterlimit:10;stroke-opacity:1;stroke-dasharray:none"
   id="path154"
   inkscape:connector-curvature="0" /><g
   id="g156"
   transform="matrix(0.34460977,0,0,1.0023767,89.696051,-0.83945486)"><g
     id="g158"
     clip-path="url(#clipPath160)"><path
       d="m 685.13,411.15 0,-13.61 m 0,13.61 0,13.53 m -2.71,-27.14 5.41,0 m -5.41,27.14 5.41,0"
       style="fill:#000000;fill-opacity:1;fill-rule:nonzero;stroke:none"
       id="path164"
       inkscape:connector-curvature="0" /></g></g><g
   id="g166"
   transform="matrix(0.34460977,0,0,1.0023767,89.696051,-0.83945486)"><g
     id="g168"
     clip-path="url(#clipPath170)"><path
       d="m 685.13,411.15 0,-13.61 m 0,13.61 0,13.53 m -2.71,-27.14 5.41,0 m -5.41,27.14 5.41,0"
       style="fill:none;stroke:#c0504d;stroke-width:1.20229995;stroke-linecap:butt;stroke-linejoin:round;stroke-miterlimit:10;stroke-opacity:1;stroke-dasharray:none"
       id="path174"
       inkscape:connector-curvature="0" /></g></g><path
   d="m 139.07,246.97 6.63,-6.64 -6.63,-6.64 -6.64,6.64 6.64,6.64 z"
   style="fill:#000000;fill-opacity:1;fill-rule:nonzero;stroke:none"
   id="path186"
   inkscape:connector-curvature="0" /><path
   d="m 139.07,246.97 6.63,-6.64 -6.63,-6.64 -6.64,6.64 6.64,6.64 z"
   style="fill:none;stroke:#98b954;stroke-width:0.86562002;stroke-linecap:butt;stroke-linejoin:round;stroke-miterlimit:10;stroke-opacity:1;stroke-dasharray:none"
   id="path188"
   inkscape:connector-curvature="0" /><g
   clip-path="url(#clipPath206)"
   id="g204"
   transform="matrix(0.34460977,0,0,1.0023767,89.696051,-0.83945486)"
   style="stroke-width:6.80582405;stroke-miterlimit:10;stroke-dasharray:none"><path
     inkscape:connector-curvature="0"
     id="path210"
     style="fill:none;stroke:#c00000;stroke-width:6.80582405;stroke-linecap:round;stroke-linejoin:round;stroke-miterlimit:10;stroke-opacity:1;stroke-dasharray:none"
     d="m 139.01,240.38 181.98,42.8 182.07,35.49 182.07,18.37" /></g><path
   d="m 139.07,246.97 6.63,-6.64 -6.63,-6.64 -6.64,6.64 6.64,6.64 z"
   style="fill:#c00000;fill-opacity:1;fill-rule:nonzero;stroke:none"
   id="path212"
   inkscape:connector-curvature="0" /><path
   d="m 139.07,246.97 6.63,-6.64 -6.63,-6.64 -6.64,6.64 6.64,6.64 z"
   style="fill:none;stroke:#7d60a0;stroke-width:0.86562002;stroke-linecap:butt;stroke-linejoin:round;stroke-miterlimit:10;stroke-opacity:1;stroke-dasharray:none"
   id="path214"
   inkscape:connector-curvature="0" /><path
   d="m 144.77,240.55 c 0,-3.27 -2.65,-5.92 -5.92,-5.92 -3.27,0 -5.91,2.65 -5.91,5.92 0,3.26 2.64,5.91 5.91,5.91 3.27,0 5.92,-2.65 5.92,-5.91 z"
   style="fill:#000000;fill-opacity:1;fill-rule:nonzero;stroke:none"
   id="path238"
   inkscape:connector-curvature="0" /><path
   d="m 144.77,240.55 c 0,-3.27 -2.65,-5.92 -5.92,-5.92 -3.27,0 -5.91,2.65 -5.91,5.92 0,3.26 2.64,5.91 5.91,5.91 3.27,0 5.92,-2.65 5.92,-5.91 z"
   style="fill:none;stroke:#000000;stroke-width:3.60680008;stroke-linecap:butt;stroke-linejoin:round;stroke-miterlimit:10;stroke-opacity:1;stroke-dasharray:none"
   id="path240"
   inkscape:connector-curvature="0" /><path
   d="m 137.60026,240.11185 62.71208,99.29544 62.7431,40.34566 62.7431,31.49467"
   style="fill:none;stroke:#c00000;stroke-width:4;stroke-linecap:butt;stroke-linejoin:round;stroke-miterlimit:10;stroke-opacity:1;stroke-dasharray:12,12;stroke-dashoffset:0"
   id="path262"
   inkscape:connector-curvature="0" /><path
   d="m 144.77,240.55 c 0,-3.27 -2.65,-5.92 -5.92,-5.92 -3.27,0 -5.91,2.65 -5.91,5.92 0,3.26 2.64,5.91 5.91,5.91 3.27,0 5.92,-2.65 5.92,-5.91 z"
   style="fill:#c00000;fill-opacity:1;fill-rule:nonzero;stroke:none"
   id="path264"
   inkscape:connector-curvature="0" /><path
   d="m 144.77,240.55 c 0,-3.27 -2.65,-5.92 -5.92,-5.92 -3.27,0 -5.91,2.65 -5.91,5.92 0,3.26 2.64,5.91 5.91,5.91 3.27,0 5.92,-2.65 5.92,-5.91 z"
   style="fill:none;stroke:#c00000;stroke-width:3.60680008;stroke-linecap:butt;stroke-linejoin:round;stroke-miterlimit:10;stroke-opacity:1;stroke-dasharray:none"
   id="path266"
   inkscape:connector-curvature="0" /><path
   d="m 200.37954,283.18 0,-14.62 m 0,14.62 0,14.74 m -2.65,-29.36 5.41,0 m -5.41,29.36 5.41,0"
   style="fill:#000000;fill-opacity:1;fill-rule:nonzero;stroke:none"
   id="path72"
   inkscape:connector-curvature="0" /><path
   d="m 200.37954,289.81 6.64,-6.63 -6.64,-6.64 -6.63,6.64 6.63,6.63 z"
   style="fill:#c00000;fill-opacity:1;fill-rule:nonzero;stroke:none"
   id="path216"
   inkscape:connector-curvature="0" /><path
   d="m 200.37954,289.81 6.64,-6.63 -6.64,-6.64 -6.63,6.64 6.63,6.63 z"
   style="fill:none;stroke:#7d60a0;stroke-width:0.86562002;stroke-linecap:butt;stroke-linejoin:round;stroke-miterlimit:10;stroke-opacity:1;stroke-dasharray:none"
   id="path218"
   inkscape:connector-curvature="0" /><path
   d="m 206.21954,339.52 c 0,-3.27 -2.64,-5.92 -5.91,-5.92 -3.27,0 -5.92,2.65 -5.92,5.92 0,3.26 2.65,5.91 5.92,5.91 3.27,0 5.91,-2.65 5.91,-5.91 z"
   style="fill:#c00000;fill-opacity:1;fill-rule:nonzero;stroke:none"
   id="path268"
   inkscape:connector-curvature="0" /><path
   d="m 206.21954,339.52 c 0,-3.27 -2.64,-5.92 -5.91,-5.92 -3.27,0 -5.92,2.65 -5.92,5.92 0,3.26 2.65,5.91 5.92,5.91 3.27,0 5.91,-2.65 5.91,-5.91 z"
   style="fill:none;stroke:#c00000;stroke-width:3.60680008;stroke-linecap:butt;stroke-linejoin:round;stroke-miterlimit:10;stroke-opacity:1;stroke-dasharray:none"
   id="path270"
   inkscape:connector-curvature="0" /><path
   d="m 263.06,325.3 6.64,-6.63 -6.64,-6.64 -6.64,6.64 6.64,6.63 z"
   style="fill:#c00000;fill-opacity:1;fill-rule:nonzero;stroke:none"
   id="path220"
   inkscape:connector-curvature="0" /><path
   d="m 263.06,325.3 6.64,-6.63 -6.64,-6.64 -6.64,6.64 6.64,6.63 z"
   style="fill:none;stroke:#7d60a0;stroke-width:0.86562002;stroke-linecap:butt;stroke-linejoin:round;stroke-miterlimit:10;stroke-opacity:1;stroke-dasharray:none"
   id="path222"
   inkscape:connector-curvature="0" /><path
   d="m 268.9,379.91 c 0,-3.27 -2.64,-5.91 -5.91,-5.91 -3.27,0 -5.92,2.64 -5.92,5.91 0,3.27 2.65,5.92 5.92,5.92 3.27,0 5.91,-2.65 5.91,-5.92 z"
   style="fill:#c00000;fill-opacity:1;fill-rule:nonzero;stroke:none"
   id="path272"
   inkscape:connector-curvature="0" /><path
   d="m 268.9,379.91 c 0,-3.27 -2.64,-5.91 -5.91,-5.91 -3.27,0 -5.92,2.64 -5.92,5.91 0,3.27 2.65,5.92 5.92,5.92 3.27,0 5.91,-2.65 5.91,-5.92 z"
   style="fill:none;stroke:#c00000;stroke-width:3.60680008;stroke-linecap:butt;stroke-linejoin:round;stroke-miterlimit:10;stroke-opacity:1;stroke-dasharray:none"
   id="path274"
   inkscape:connector-curvature="0" /><path
   d="m 325.89965,343.63 6.64,-6.64 -6.64,-6.64 -6.64,6.64 6.64,6.64 z"
   style="fill:#c00000;fill-opacity:1;fill-rule:nonzero;stroke:none"
   id="path224"
   inkscape:connector-curvature="0" /><path
   d="m 325.89965,343.63 6.64,-6.64 -6.64,-6.64 -6.64,6.64 6.64,6.64 z"
   style="fill:none;stroke:#7d60a0;stroke-width:0.86562002;stroke-linecap:butt;stroke-linejoin:round;stroke-miterlimit:10;stroke-opacity:1;stroke-dasharray:none"
   id="path226"
   inkscape:connector-curvature="0" /><path
   d="m 331.59965,411.22 c 0,-3.27 -2.65,-5.92 -5.92,-5.92 -3.26,0 -5.91,2.65 -5.91,5.92 0,3.26 2.65,5.91 5.91,5.91 3.27,0 5.92,-2.65 5.92,-5.91 z"
   style="fill:#c00000;fill-opacity:1;fill-rule:nonzero;stroke:none"
   id="path276"
   inkscape:connector-curvature="0" /><path
   d="m 331.59965,411.22 c 0,-3.27 -2.65,-5.92 -5.92,-5.92 -3.26,0 -5.91,2.65 -5.91,5.92 0,3.26 2.65,5.91 5.91,5.91 3.27,0 5.92,-2.65 5.92,-5.91 z"
   style="fill:none;stroke:#c00000;stroke-width:3.60680008;stroke-linecap:butt;stroke-linejoin:round;stroke-miterlimit:10;stroke-opacity:1;stroke-dasharray:none"
   id="path278"
   inkscape:connector-curvature="0" /><g
   id="g292"><g
     id="g294"
     clip-path="url(#clipPath296)"><text
   transform="matrix(1,0,0,-1,94.656,234.17)"
   id="text300"><tspan
     style="font-size:19.20000076px;font-variant:normal;font-weight:bold;writing-mode:lr-tb;fill:#000000;fill-opacity:1;fill-rule:nonzero;stroke:none;font-family:Helvetica;-inkscape-font-specification:Helvetica-Bold"
     x="0 10.68"
     y="0"
     sodipodi:role="line"
     id="tspan302">0%</tspan></text>











</g></g><g
   id="g304"><g
     id="g306"
     clip-path="url(#clipPath308)"><text
   transform="matrix(1,0,0,-1,83.952,351.72)"
   id="text312"><tspan
     style="font-size:19.1760006px;font-variant:normal;font-weight:bold;writing-mode:lr-tb;fill:#000000;fill-opacity:1;fill-rule:nonzero;stroke:none;font-family:Helvetica;-inkscape-font-specification:Helvetica-Bold"
     x="0 10.679956 21.359913"
     y="0"
     sodipodi:role="line"
     id="tspan314">25%</tspan></text>











</g></g><g
   id="g316"><g
     id="g318"
     clip-path="url(#clipPath320)"><text
   transform="matrix(1,0,0,-1,83.952,469.3)"
   id="text324"><tspan
     style="font-size:19.20000076px;font-variant:normal;font-weight:bold;writing-mode:lr-tb;fill:#000000;fill-opacity:1;fill-rule:nonzero;stroke:none;font-family:Helvetica;-inkscape-font-specification:Helvetica-Bold"
     x="0 10.68 21.360001"
     y="0"
     sodipodi:role="line"
     id="tspan326">50%</tspan></text>











</g></g><g
   id="g328"><g
     id="g330"
     clip-path="url(#clipPath332)"><text
   transform="matrix(1,0,0,-1,133.66,211.25)"
   id="text336"><tspan
     style="font-size:19.20000076px;font-variant:normal;font-weight:bold;writing-mode:lr-tb;fill:#000000;fill-opacity:1;fill-rule:nonzero;stroke:none;font-family:Helvetica;-inkscape-font-specification:Helvetica-Bold"
     x="0"
     y="0"
     id="tspan338">0</tspan></text>











</g></g><g
   id="g340"
   transform="translate(-123.2,0)"><g
     id="g342"
     clip-path="url(#clipPath344)"><text
   transform="matrix(1,0,0,-1,310.39,211.25)"
   id="text348"><tspan
     style="font-size:19.20000076px;font-variant:normal;font-weight:bold;writing-mode:lr-tb;fill:#000000;fill-opacity:1;fill-rule:nonzero;stroke:none;font-family:Helvetica;-inkscape-font-specification:Helvetica-Bold"
     x="0 10.68"
     y="0"
     sodipodi:role="line"
     id="tspan350">10</tspan></text>











</g></g><g
   id="g352"
   transform="translate(-241.6,0)"><g
     id="g354"
     clip-path="url(#clipPath356)"><text
   transform="matrix(1,0,0,-1,492.46,211.25)"
   id="text360"><tspan
     style="font-size:19.20000076px;font-variant:normal;font-weight:bold;writing-mode:lr-tb;fill:#000000;fill-opacity:1;fill-rule:nonzero;stroke:none;font-family:Helvetica;-inkscape-font-specification:Helvetica-Bold"
     x="0 10.68"
     y="0"
     sodipodi:role="line"
     id="tspan362">20</tspan></text>











</g></g><g
   id="g364"
   transform="translate(-360,0)"><g
     id="g366"
     clip-path="url(#clipPath368)"><text
   transform="matrix(1,0,0,-1,674.54,211.25)"
   id="text372"><tspan
     style="font-size:19.20000076px;font-variant:normal;font-weight:bold;writing-mode:lr-tb;fill:#000000;fill-opacity:1;fill-rule:nonzero;stroke:none;font-family:Helvetica;-inkscape-font-specification:Helvetica-Bold"
     x="0 10.656"
     y="0"
     sodipodi:role="line"
     id="tspan374">30</tspan></text>











</g></g><text
   xml:space="preserve"
   style="font-size:32px;font-style:normal;font-weight:normal;line-height:125%;letter-spacing:0px;word-spacing:0px;fill:#000000;fill-opacity:1;stroke:none;font-family:Sans"
   x="175.09976"
   y="-191.43507"
   id="text3207"
   sodipodi:linespacing="125%"
   transform="scale(1,-1)"><tspan
     sodipodi:role="line"
     id="tspan3209"
     x="175.09976"
     y="-191.43507"
     style="font-size:22.39999962px">Time (mins)</tspan></text>




<g
   id="g3215"><text
   transform="matrix(0,1,1,0,0,0)"
   sodipodi:linespacing="125%"
   id="text3211"
   y="72.749641"
   x="248.79837"
   style="font-size:32px;font-style:normal;font-weight:normal;line-height:125%;letter-spacing:0px;word-spacing:0px;fill:#000000;fill-opacity:1;stroke:none;font-family:Sans"
   xml:space="preserve"><tspan
     y="72.749641"
     x="248.79837"
     id="tspan3213"
     sodipodi:role="line"
     style="font-size:22.39999962px">Learning (Δ VOR gain)</tspan></text>










</g><g
   id="g3199"
   transform="translate(-12.8,25.6)"><path
     inkscape:connector-curvature="0"
     id="path388"
     style="fill:none;stroke:#000000;stroke-width:4.80900002;stroke-linecap:round;stroke-linejoin:round;stroke-miterlimit:10;stroke-opacity:1;stroke-dasharray:none"
     d="m 166.52804,484.74047 23.08,0" /><path
     inkscape:connector-curvature="0"
     id="path390"
     style="fill:#000000;fill-opacity:1;fill-rule:nonzero;stroke:none"
     d="m 178.06804,488.38047 3.6,-3.61 -3.6,-3.6 -3.61,3.6 3.61,3.61 z" /><path
     inkscape:connector-curvature="0"
     id="path392"
     style="fill:none;stroke:#98b954;stroke-width:0.86562002;stroke-linecap:butt;stroke-linejoin:round;stroke-miterlimit:10;stroke-opacity:1;stroke-dasharray:none"
     d="m 178.06804,488.38047 3.6,-3.61 -3.6,-3.6 -3.61,3.6 3.61,3.61 z" /><g
     transform="translate(-376.21196,239.03047)"
     id="g394"><g
       clip-path="url(#clipPath398)"
       id="g396"><text
   id="text402"
   transform="matrix(1,0,0,-1,568.34,197.42)"><tspan
     id="tspan404"
     sodipodi:role="line"
     style="font-size:11.97599983px;font-variant:normal;font-weight:normal;writing-mode:lr-tb;fill:#000000;fill-opacity:1;fill-rule:nonzero;stroke:none;font-family:Calibri;-inkscape-font-specification:Calibri"
     x="0"
     y="0">WT           w/  rev-training</tspan></text>











</g></g><path
     inkscape:connector-curvature="0"
     id="path406"
     style="fill:none;stroke:#c00000;stroke-width:4.80900002;stroke-linecap:round;stroke-linejoin:round;stroke-miterlimit:10;stroke-opacity:1;stroke-dasharray:none"
     d="m 166.52804,462.10047 23.08,0" /><path
     inkscape:connector-curvature="0"
     id="path408"
     style="fill:#c00000;fill-opacity:1;fill-rule:nonzero;stroke:none"
     d="m 178.06804,465.73047 3.6,-3.61 -3.6,-3.6 -3.61,3.6 3.61,3.61 z" /><path
     inkscape:connector-curvature="0"
     id="path410"
     style="fill:none;stroke:#7d60a0;stroke-width:0.86562002;stroke-linecap:butt;stroke-linejoin:round;stroke-miterlimit:10;stroke-opacity:1;stroke-dasharray:none"
     d="m 178.06804,465.73047 3.6,-3.61 -3.6,-3.6 -3.61,3.6 3.61,3.61 z" /><g
     transform="translate(-376.21196,335.03047)"
     id="g412"><g
       clip-path="url(#clipPath416)"
       id="g414"><text
   y="-78.789948"
   x="568.34003"
   id="text420"
   transform="scale(1,-1)"><tspan
     id="tspan422"
     sodipodi:role="line"
     style="font-size:11.97599983px;font-variant:normal;font-weight:normal;writing-mode:lr-tb;fill:#000000;fill-opacity:1;fill-rule:nonzero;stroke:none;font-family:Calibri;-inkscape-font-specification:Calibri"
     x="568.34003"
     y="-78.789948">Enh.Plas. w/  rev-training</tspan></text>











</g></g><path
     inkscape:connector-curvature="0"
     id="path424"
     style="fill:none;stroke:#000000;stroke-width:4.80880022;stroke-linecap:butt;stroke-linejoin:round;stroke-miterlimit:10;stroke-opacity:1;stroke-dasharray:4.80880013, 14.42640038;stroke-dashoffset:0"
     d="m 166.52804,439.46047 23.08,0" /><path
     inkscape:connector-curvature="0"
     id="path426"
     style="fill:#000000;fill-opacity:1;fill-rule:nonzero;stroke:none"
     d="m 181.59804,439.47047 c 0,-1.95 -1.58,-3.53 -3.53,-3.53 -1.95,0 -3.54,1.58 -3.54,3.53 0,1.96 1.59,3.54 3.54,3.54 1.95,0 3.53,-1.58 3.53,-3.54 z" /><path
     inkscape:connector-curvature="0"
     id="path428"
     style="fill:none;stroke:#000000;stroke-width:3.60680008;stroke-linecap:butt;stroke-linejoin:round;stroke-miterlimit:10;stroke-opacity:1;stroke-dasharray:none"
     d="m 181.59804,439.47047 c 0,-1.95 -1.58,-3.53 -3.53,-3.53 -1.95,0 -3.54,1.58 -3.54,3.53 0,1.96 1.59,3.54 3.54,3.54 1.95,0 3.53,-1.58 3.53,-3.54 z" /><g
     transform="translate(-376.21196,328.63047)"
     id="g430"><g
       clip-path="url(#clipPath434)"
       id="g432"><text
   id="text438"
   transform="matrix(1,0,0,-1,568.34,152.14)"><tspan
     id="tspan440"
     sodipodi:role="line"
     style="font-size:11.97599983px;font-variant:normal;font-weight:normal;writing-mode:lr-tb;fill:#000000;fill-opacity:1;fill-rule:nonzero;stroke:none;font-family:Calibri;-inkscape-font-specification:Calibri"
     x="0"
     y="0">WT           w/o rev-training</tspan></text>











</g></g><path
     inkscape:connector-curvature="0"
     id="path442"
     style="fill:none;stroke:#c00000;stroke-width:4.80900002;stroke-linecap:butt;stroke-linejoin:round;stroke-miterlimit:10;stroke-opacity:1;stroke-dasharray:4.80900002, 14.42700005;stroke-dashoffset:0"
     d="m 166.52804,416.81047 23.08,0" /><path
     inkscape:connector-curvature="0"
     id="path444"
     style="fill:#c00000;fill-opacity:1;fill-rule:nonzero;stroke:none"
     d="m 181.59804,416.82047 c 0,-1.95 -1.58,-3.53 -3.53,-3.53 -1.95,0 -3.54,1.58 -3.54,3.53 0,1.95 1.59,3.54 3.54,3.54 1.95,0 3.53,-1.59 3.53,-3.54 z" /><path
     inkscape:connector-curvature="0"
     id="path446"
     style="fill:none;stroke:#c00000;stroke-width:3.60680008;stroke-linecap:butt;stroke-linejoin:round;stroke-miterlimit:10;stroke-opacity:1;stroke-dasharray:none"
     d="m 181.59804,416.82047 c 0,-1.95 -1.58,-3.53 -3.53,-3.53 -1.95,0 -3.54,1.58 -3.54,3.53 0,1.95 1.59,3.54 3.54,3.54 1.95,0 3.53,-1.59 3.53,-3.54 z" /><g
     transform="translate(-376.21196,328.63047)"
     id="g448"><g
       clip-path="url(#clipPath452)"
       id="g450"><text
   id="text456"
   transform="matrix(1,0,0,-1,568.34,129.48)"><tspan
     id="tspan458"
     sodipodi:role="line"
     style="font-size:11.97599983px;font-variant:normal;font-weight:normal;writing-mode:lr-tb;fill:#000000;fill-opacity:1;fill-rule:nonzero;stroke:none;font-family:Calibri;-inkscape-font-specification:Calibri"
     x="0"
     y="0">Enh.Plas. w/o rev-training</tspan></text>











</g></g><rect
     transform="scale(1,-1)"
     y="-494.70996"
     x="155.74646"
     height="88.964798"
     width="166.58017"
     id="rect3219"
     style="fill:none;stroke:#000000;stroke-width:1.60000002;stroke-miterlimit:4;stroke-dasharray:none;stroke-dashoffset:0" /></g></g></svg>