<?xml version="1.0" encoding="UTF-8" standalone="no"?>
<!-- Created with Inkscape (http://www.inkscape.org/) -->

<svg
   xmlns:dc="http://purl.org/dc/elements/1.1/"
   xmlns:cc="http://creativecommons.org/ns#"
   xmlns:rdf="http://www.w3.org/1999/02/22-rdf-syntax-ns#"
   xmlns:svg="http://www.w3.org/2000/svg"
   xmlns="http://www.w3.org/2000/svg"
   xmlns:sodipodi="http://sodipodi.sourceforge.net/DTD/sodipodi-0.dtd"
   xmlns:inkscape="http://www.inkscape.org/namespaces/inkscape"
   width="587.15057"
   height="170.54572"
   id="svg5727"
   version="1.1"
   inkscape:version="0.48.4 r9939"
   sodipodi:docname="New document 4">
  <defs
     id="defs5729">
    <clipPath
       clipPathUnits="userSpaceOnUse"
       id="clipPath668">
      <path
         inkscape:connector-curvature="0"
         d="m 285.624,344.398 16.7,0 0,77.278 -16.7,0 0,-77.278 z"
         id="path670" />
    </clipPath>
    <clipPath
       clipPathUnits="userSpaceOnUse"
       id="clipPath34">
      <path
         inkscape:connector-curvature="0"
         d="m 307.214,343.584 16.699,0 0,70.299 -16.699,0 0,-70.299 z"
         id="path36" />
    </clipPath>
  </defs>
  <sodipodi:namedview
     id="base"
     pagecolor="#ffffff"
     bordercolor="#666666"
     borderopacity="1.0"
     inkscape:pageopacity="0.0"
     inkscape:pageshadow="2"
     inkscape:zoom="1.9313615"
     inkscape:cx="293.57529"
     inkscape:cy="85.272855"
     inkscape:document-units="px"
     inkscape:current-layer="layer1"
     showgrid="false"
     fit-margin-top="0"
     fit-margin-left="0"
     fit-margin-right="0"
     fit-margin-bottom="0"
     inkscape:window-width="1264"
     inkscape:window-height="1522"
     inkscape:window-x="1280"
     inkscape:window-y="0"
     inkscape:window-maximized="0" />
  <metadata
     id="metadata5732">
    <rdf:RDF>
      <cc:Work
         rdf:about="">
        <dc:format>image/svg+xml</dc:format>
        <dc:type
           rdf:resource="http://purl.org/dc/dcmitype/StillImage" />
        <dc:title></dc:title>
      </cc:Work>
    </rdf:RDF>
  </metadata>
  <g
     inkscape:label="Layer 1"
     inkscape:groupmode="layer"
     id="layer1"
     transform="translate(-97.85327,-489.94647)">
    <g
       transform="matrix(1.25,0,0,-1.25,9.9945757,1059.8366)"
       id="g30">
      <g
         id="g32"
         clip-path="url(#clipPath34)">
        <path
           inkscape:connector-curvature="0"
           d="m 307.415,343.782 16.297,0 0,69.901 -16.297,0 0,-69.901 z"
           style="fill:none;stroke:#c01e24;stroke-width:2;stroke-linecap:butt;stroke-linejoin:bevel;stroke-miterlimit:10;stroke-opacity:1;stroke-dasharray:none"
           id="path38" />
        <g
           id="g40"
           transform="translate(307.415,349.7725)">
          <path
             inkscape:connector-curvature="0"
             d="M 0,0 6.037,-5.991"
             style="fill:none;stroke:#c01e24;stroke-width:2;stroke-linecap:butt;stroke-linejoin:bevel;stroke-miterlimit:10;stroke-opacity:1;stroke-dasharray:none"
             id="path42" />
        </g>
        <g
           id="g44"
           transform="translate(307.415,355.7646)">
          <path
             inkscape:connector-curvature="0"
             d="M 0,0 12.071,-11.983"
             style="fill:none;stroke:#c01e24;stroke-width:2;stroke-linecap:butt;stroke-linejoin:bevel;stroke-miterlimit:10;stroke-opacity:1;stroke-dasharray:none"
             id="path46" />
        </g>
        <g
           id="g48"
           transform="translate(307.415,361.7559)">
          <path
             inkscape:connector-curvature="0"
             d="M 0,0 16.297,-16.177"
             style="fill:none;stroke:#c01e24;stroke-width:2;stroke-linecap:butt;stroke-linejoin:bevel;stroke-miterlimit:10;stroke-opacity:1;stroke-dasharray:none"
             id="path50" />
        </g>
        <g
           id="g52"
           transform="translate(307.415,367.7461)">
          <path
             inkscape:connector-curvature="0"
             d="M 0,0 16.297,-16.175"
             style="fill:none;stroke:#c01e24;stroke-width:2;stroke-linecap:butt;stroke-linejoin:bevel;stroke-miterlimit:10;stroke-opacity:1;stroke-dasharray:none"
             id="path54" />
        </g>
        <g
           id="g56"
           transform="translate(307.415,373.7393)">
          <path
             inkscape:connector-curvature="0"
             d="M 0,0 16.297,-16.179"
             style="fill:none;stroke:#c01e24;stroke-width:2;stroke-linecap:butt;stroke-linejoin:bevel;stroke-miterlimit:10;stroke-opacity:1;stroke-dasharray:none"
             id="path58" />
        </g>
        <g
           id="g60"
           transform="translate(307.415,379.7314)">
          <path
             inkscape:connector-curvature="0"
             d="M 0,0 16.297,-16.178"
             style="fill:none;stroke:#c01e24;stroke-width:2;stroke-linecap:butt;stroke-linejoin:bevel;stroke-miterlimit:10;stroke-opacity:1;stroke-dasharray:none"
             id="path62" />
        </g>
        <g
           id="g64"
           transform="translate(307.415,385.7217)">
          <path
             inkscape:connector-curvature="0"
             d="M 0,0 16.297,-16.177"
             style="fill:none;stroke:#c01e24;stroke-width:2;stroke-linecap:butt;stroke-linejoin:bevel;stroke-miterlimit:10;stroke-opacity:1;stroke-dasharray:none"
             id="path66" />
        </g>
        <g
           id="g68"
           transform="translate(307.415,391.7129)">
          <path
             inkscape:connector-curvature="0"
             d="M 0,0 16.297,-16.177"
             style="fill:none;stroke:#c01e24;stroke-width:2;stroke-linecap:butt;stroke-linejoin:bevel;stroke-miterlimit:10;stroke-opacity:1;stroke-dasharray:none"
             id="path70" />
        </g>
        <g
           id="g72"
           transform="translate(307.415,397.7061)">
          <path
             inkscape:connector-curvature="0"
             d="M 0,0 16.297,-16.178"
             style="fill:none;stroke:#c01e24;stroke-width:2;stroke-linecap:butt;stroke-linejoin:bevel;stroke-miterlimit:10;stroke-opacity:1;stroke-dasharray:none"
             id="path74" />
        </g>
        <g
           id="g76"
           transform="translate(307.415,403.6982)">
          <path
             inkscape:connector-curvature="0"
             d="M 0,0 16.297,-16.177"
             style="fill:none;stroke:#c01e24;stroke-width:2;stroke-linecap:butt;stroke-linejoin:bevel;stroke-miterlimit:10;stroke-opacity:1;stroke-dasharray:none"
             id="path78" />
        </g>
        <g
           id="g80"
           transform="translate(307.415,409.689)">
          <path
             inkscape:connector-curvature="0"
             d="M 0,0 16.297,-16.176"
             style="fill:none;stroke:#c01e24;stroke-width:2;stroke-linecap:butt;stroke-linejoin:bevel;stroke-miterlimit:10;stroke-opacity:1;stroke-dasharray:none"
             id="path82" />
        </g>
        <g
           id="g84"
           transform="translate(309.4287,413.6831)">
          <path
             inkscape:connector-curvature="0"
             d="M 0,0 14.283,-14.179"
             style="fill:none;stroke:#c01e24;stroke-width:2;stroke-linecap:butt;stroke-linejoin:bevel;stroke-miterlimit:10;stroke-opacity:1;stroke-dasharray:none"
             id="path86" />
        </g>
        <g
           id="g88"
           transform="translate(315.4648,413.6831)">
          <path
             inkscape:connector-curvature="0"
             d="M 0,0 8.247,-8.188"
             style="fill:none;stroke:#c01e24;stroke-width:2;stroke-linecap:butt;stroke-linejoin:bevel;stroke-miterlimit:10;stroke-opacity:1;stroke-dasharray:none"
             id="path90" />
        </g>
        <g
           id="g92"
           transform="translate(321.498,413.6831)">
          <path
             inkscape:connector-curvature="0"
             d="M 0,0 2.214,-2.197"
             style="fill:none;stroke:#c01e24;stroke-width:2;stroke-linecap:butt;stroke-linejoin:bevel;stroke-miterlimit:10;stroke-opacity:1;stroke-dasharray:none"
             id="path94" />
        </g>
      </g>
    </g>
    <path
       d="m 393.20209,541.87158 22.8762,0 0,87.875 -22.8762,0 0,-87.875 z"
       style="fill:none;stroke:#961a1f;stroke-width:2.5;stroke-linecap:butt;stroke-linejoin:miter;stroke-miterlimit:4;stroke-opacity:1;stroke-dasharray:none"
       id="path660"
       inkscape:connector-curvature="0" />
    <path
       d="m 366.31579,532.73908 22.295,0 0,96.59875 -22.295,0 0,-96.59875 z"
       style="fill:#ffffff;fill-opacity:1;fill-rule:evenodd;stroke:none"
       id="path662"
       inkscape:connector-curvature="0" />
    <g
       transform="matrix(1.25,0,0,-1.25,9.9945757,1059.8366)"
       id="g664">
      <g
         id="g666"
         clip-path="url(#clipPath668)">
        <path
           inkscape:connector-curvature="0"
           d="m 285.825,344.606 16.295,0 0,76.862 -16.295,0 0,-76.862 z"
           style="fill:#ffffff;fill-opacity:1;fill-rule:evenodd;stroke:none"
           id="path672" />
        <path
           inkscape:connector-curvature="0"
           d="m 285.825,344.606 16.296,0 0,76.864 -16.296,0 0,-76.864 z"
           style="fill:none;stroke:#231f20;stroke-width:2;stroke-linecap:butt;stroke-linejoin:miter;stroke-miterlimit:4;stroke-opacity:1;stroke-dasharray:none"
           id="path674" />
        <g
           id="g676"
           transform="translate(285.8252,350.8379)">
          <path
             inkscape:connector-curvature="0"
             d="M 0,0 6.037,-6.231"
             style="fill:#ffffff;fill-opacity:1;fill-rule:nonzero;stroke:#231f20;stroke-width:2;stroke-linecap:square;stroke-linejoin:miter;stroke-miterlimit:10;stroke-opacity:1;stroke-dasharray:none"
             id="path678" />
        </g>
        <g
           id="g680"
           transform="translate(285.8252,357.0693)">
          <path
             inkscape:connector-curvature="0"
             d="M 0,0 12.072,-12.463"
             style="fill:#ffffff;fill-opacity:1;fill-rule:nonzero;stroke:#231f20;stroke-width:2;stroke-linecap:square;stroke-linejoin:miter;stroke-miterlimit:10;stroke-opacity:1;stroke-dasharray:none"
             id="path682" />
        </g>
        <g
           id="g684"
           transform="translate(285.8252,363.3018)">
          <path
             inkscape:connector-curvature="0"
             d="M 0,0 16.297,-16.827"
             style="fill:#ffffff;fill-opacity:1;fill-rule:nonzero;stroke:#231f20;stroke-width:2;stroke-linecap:square;stroke-linejoin:miter;stroke-miterlimit:10;stroke-opacity:1;stroke-dasharray:none"
             id="path686" />
        </g>
        <g
           id="g688"
           transform="translate(285.8252,369.5342)">
          <path
             inkscape:connector-curvature="0"
             d="M 0,0 16.297,-16.827"
             style="fill:#ffffff;fill-opacity:1;fill-rule:nonzero;stroke:#231f20;stroke-width:2;stroke-linecap:square;stroke-linejoin:miter;stroke-miterlimit:10;stroke-opacity:1;stroke-dasharray:none"
             id="path690" />
        </g>
        <g
           id="g692"
           transform="translate(285.8252,375.7676)">
          <path
             inkscape:connector-curvature="0"
             d="M 0,0 16.297,-16.828"
             style="fill:#ffffff;fill-opacity:1;fill-rule:nonzero;stroke:#231f20;stroke-width:2;stroke-linecap:square;stroke-linejoin:miter;stroke-miterlimit:10;stroke-opacity:1;stroke-dasharray:none"
             id="path694" />
        </g>
        <g
           id="g696"
           transform="translate(285.8252,381.999)">
          <path
             inkscape:connector-curvature="0"
             d="M 0,0 16.297,-16.827"
             style="fill:#ffffff;fill-opacity:1;fill-rule:nonzero;stroke:#231f20;stroke-width:2;stroke-linecap:square;stroke-linejoin:miter;stroke-miterlimit:10;stroke-opacity:1;stroke-dasharray:none"
             id="path698" />
        </g>
        <g
           id="g700"
           transform="translate(285.8252,388.2314)">
          <path
             inkscape:connector-curvature="0"
             d="M 0,0 16.297,-16.827"
             style="fill:#ffffff;fill-opacity:1;fill-rule:nonzero;stroke:#231f20;stroke-width:2;stroke-linecap:square;stroke-linejoin:miter;stroke-miterlimit:10;stroke-opacity:1;stroke-dasharray:none"
             id="path702" />
        </g>
        <g
           id="g704"
           transform="translate(285.8252,394.4639)">
          <path
             inkscape:connector-curvature="0"
             d="M 0,0 16.297,-16.828"
             style="fill:#ffffff;fill-opacity:1;fill-rule:nonzero;stroke:#231f20;stroke-width:2;stroke-linecap:square;stroke-linejoin:miter;stroke-miterlimit:10;stroke-opacity:1;stroke-dasharray:none"
             id="path706" />
        </g>
        <g
           id="g708"
           transform="translate(285.8252,400.6958)">
          <path
             inkscape:connector-curvature="0"
             d="M 0,0 16.297,-16.828"
             style="fill:#ffffff;fill-opacity:1;fill-rule:nonzero;stroke:#231f20;stroke-width:2;stroke-linecap:square;stroke-linejoin:miter;stroke-miterlimit:10;stroke-opacity:1;stroke-dasharray:none"
             id="path710" />
        </g>
        <g
           id="g712"
           transform="translate(285.8252,406.9282)">
          <path
             inkscape:connector-curvature="0"
             d="M 0,0 16.297,-16.827"
             style="fill:#ffffff;fill-opacity:1;fill-rule:nonzero;stroke:#231f20;stroke-width:2;stroke-linecap:square;stroke-linejoin:miter;stroke-miterlimit:10;stroke-opacity:1;stroke-dasharray:none"
             id="path714" />
        </g>
        <g
           id="g716"
           transform="translate(285.8252,413.1602)">
          <path
             inkscape:connector-curvature="0"
             d="M 0,0 16.297,-16.826"
             style="fill:#ffffff;fill-opacity:1;fill-rule:nonzero;stroke:#231f20;stroke-width:2;stroke-linecap:square;stroke-linejoin:miter;stroke-miterlimit:10;stroke-opacity:1;stroke-dasharray:none"
             id="path718" />
        </g>
        <g
           id="g720"
           transform="translate(285.8252,419.3931)">
          <path
             inkscape:connector-curvature="0"
             d="M 0,0 16.297,-16.827"
             style="fill:#ffffff;fill-opacity:1;fill-rule:nonzero;stroke:#231f20;stroke-width:2;stroke-linecap:square;stroke-linejoin:miter;stroke-miterlimit:10;stroke-opacity:1;stroke-dasharray:none"
             id="path722" />
        </g>
        <g
           id="g724"
           transform="translate(289.8491,421.4712)">
          <path
             inkscape:connector-curvature="0"
             d="M 0,0 12.273,-12.673"
             style="fill:#ffffff;fill-opacity:1;fill-rule:nonzero;stroke:#231f20;stroke-width:2;stroke-linecap:square;stroke-linejoin:miter;stroke-miterlimit:10;stroke-opacity:1;stroke-dasharray:none"
             id="path726" />
        </g>
        <g
           id="g728"
           transform="translate(295.8857,421.4712)">
          <path
             inkscape:connector-curvature="0"
             d="M 0,0 6.236,-6.44"
             style="fill:#ffffff;fill-opacity:1;fill-rule:nonzero;stroke:#231f20;stroke-width:2;stroke-linecap:square;stroke-linejoin:miter;stroke-miterlimit:10;stroke-opacity:1;stroke-dasharray:none"
             id="path730" />
        </g>
        <g
           id="g732"
           transform="translate(301.9199,421.4712)">
          <path
             inkscape:connector-curvature="0"
             d="M 0,0 0.202,-0.209"
             style="fill:#ffffff;fill-opacity:1;fill-rule:nonzero;stroke:#231f20;stroke-width:2;stroke-linecap:square;stroke-linejoin:miter;stroke-miterlimit:10;stroke-opacity:1;stroke-dasharray:none"
             id="path734" />
        </g>
      </g>
    </g>
    <path
       d="m 366.31579,532.73908 22.295,0 0,96.59875 -22.295,0 0,-96.59875 z"
       style="fill:none;stroke:#231f20;stroke-width:2.5;stroke-linecap:butt;stroke-linejoin:miter;stroke-miterlimit:4;stroke-opacity:1;stroke-dasharray:none"
       id="path744"
       inkscape:connector-curvature="0" />
    <text
       style="font-size:15px"
       id="text746"
       x="151.24583"
       y="660.28711">
      <tspan
         style="font-size:17.5px;font-variant:normal;font-weight:bold;writing-mode:lr-tb;fill:#231f20;fill-opacity:1;fill-rule:nonzero;stroke:none;font-family:Arial;-inkscape-font-specification:Arial-BoldMT"
         x="151.24583"
         y="660.28711"
         id="tspan748">V</tspan>
    </text>
    <text
       style="font-size:15px"
       id="text750"
       x="162.62083"
       y="660.28711">
      <tspan
         style="font-size:17.5px;font-variant:normal;font-weight:bold;writing-mode:lr-tb;fill:#231f20;fill-opacity:1;fill-rule:nonzero;stroke:none;font-family:Arial;-inkscape-font-specification:Arial-BoldMT"
         x="162.62083 167.48582 174.29332 184.98582"
         y="660.28711"
         sodipodi:role="line"
         id="tspan752">irus</tspan>
    </text>
    <text
       style="font-size:15px"
       id="text758"
       x="173.33067"
       y="531.39056">
      <tspan
         style="font-size:13.75px;font-variant:normal;font-weight:bold;writing-mode:lr-tb;fill:#231f20;fill-opacity:1;fill-rule:nonzero;stroke:none;font-family:Arial;-inkscape-font-specification:Arial-BoldMT"
         x="173.33067 180.97569 188.62071"
         y="531.39056"
         sodipodi:role="line"
         id="tspan760">50%</tspan>
    </text>
    <text
       style="font-size:15px"
       id="text762"
       x="173.33067"
       y="582.89807">
      <tspan
         style="font-size:13.75px;font-variant:normal;font-weight:bold;writing-mode:lr-tb;fill:#231f20;fill-opacity:1;fill-rule:nonzero;stroke:none;font-family:Arial;-inkscape-font-specification:Arial-BoldMT"
         x="173.33067 180.97569 188.62071"
         y="582.89807"
         sodipodi:role="line"
         id="tspan764">25%</tspan>
    </text>
    <text
       style="font-size:15px"
       id="text766"
       x="179.60069"
       y="634.40558">
      <tspan
         style="font-size:13.75px;font-variant:normal;font-weight:bold;writing-mode:lr-tb;fill:#231f20;fill-opacity:1;fill-rule:nonzero;stroke:none;font-family:Arial;-inkscape-font-specification:Arial-BoldMT"
         x="179.60069 187.24571"
         y="634.40558"
         sodipodi:role="line"
         id="tspan768">0%</tspan>
    </text>
    <g
       id="g770"
       transform="matrix(1.25,0,0,-1.25,239.70834,503.58658)">
      <path
         d="M 0,0 20.276,0"
         style="fill:#231f20;fill-opacity:1;fill-rule:nonzero;stroke:#231f20;stroke-width:1;stroke-linecap:butt;stroke-linejoin:miter;stroke-miterlimit:4;stroke-opacity:1;stroke-dasharray:none"
         id="path772"
         inkscape:connector-curvature="0" />
    </g>
    <g
       id="g774"
       transform="matrix(1.25,0,0,-1.25,239.70834,503.58658)">
      <path
         d="M 0,0 0,-5.656"
         style="fill:#110f0d;fill-opacity:1;fill-rule:nonzero;stroke:#110f0d;stroke-width:1;stroke-linecap:butt;stroke-linejoin:miter;stroke-miterlimit:4;stroke-opacity:1;stroke-dasharray:none"
         id="path776"
         inkscape:connector-curvature="0" />
    </g>
    <g
       id="g778"
       transform="matrix(1.25,0,0,-1.25,264.77609,503.58658)">
      <path
         d="M 0,0 0,-5.656"
         style="fill:#110f0d;fill-opacity:1;fill-rule:nonzero;stroke:#110f0d;stroke-width:1;stroke-linecap:butt;stroke-linejoin:miter;stroke-miterlimit:4;stroke-opacity:1;stroke-dasharray:none"
         id="path780"
         inkscape:connector-curvature="0" />
    </g>
    <text
       style="font-size:15px"
       id="text782"
       x="355.6098"
       y="660.28711">
      <tspan
         style="font-size:15px;font-variant:normal;font-weight:bold;writing-mode:lr-tb;fill:#231f20;fill-opacity:1;fill-rule:nonzero;stroke:none;font-family:Arial;-inkscape-font-specification:Arial-BoldMT"
         x="355.6098 364.77478 373.11481 378.1098 383.1048 387.27484 399.76984 410.59979 421.42987 426.42487"
         y="660.28711"
         sodipodi:role="line"
         id="tspan784">L7:: MHC-D</tspan>
    </text>
    <text
       style="font-size:15px"
       id="text786"
       x="438.51019"
       y="654.03711">
      <tspan
         style="font-size:12.5px;font-variant:normal;font-weight:bold;writing-mode:lr-tb;fill:#231f20;fill-opacity:1;fill-rule:nonzero;stroke:none;font-family:Arial;-inkscape-font-specification:Arial-BoldMT"
         x="438.51019"
         y="654.03711"
         id="tspan788">b</tspan>
    </text>
    <path
       d="m 367.39209,630.21258 -0.875,-0.87375 21.8962,0 -0.875,0.87375 0,-97.9225 0.875,0.87375 -21.8962,0 0.875,-0.87375 0,97.9225 z m -1.75,-97.9225 c 0,-0.4375 0.4362,-0.875 0.875,-0.875 l 21.8962,0 c 0.4925,0 0.8763,0.4375 0.8763,0.875 l 0,97.9225 c 0,0.49125 -0.3838,0.87375 -0.8763,0.87375 l -21.8962,0 c -0.4388,0 -0.875,-0.3825 -0.875,-0.87375 l 0,-97.9225 z"
       style="fill:#110f0d;fill-opacity:1;fill-rule:nonzero;stroke:none"
       id="path790"
       inkscape:connector-curvature="0" />
    <g
       id="g792"
       transform="matrix(1.25,0,0,-1.25,367.39209,630.21258)">
      <path
         d="m 0,0 -0.7,0.699 17.517,0 -0.7,-0.699 0,78.338 0.7,-0.699 -17.517,0 L 0,78.338 0,0 z m -1.4,78.338 c 0,0.35 0.349,0.7 0.7,0.7 l 17.517,0 c 0.394,0 0.701,-0.35 0.701,-0.7 L 17.518,0 c 0,-0.393 -0.307,-0.699 -0.701,-0.699 l -17.517,0 c -0.351,0 -0.7,0.306 -0.7,0.699 l 0,78.338 z"
         style="fill:none;stroke:#110f0d;stroke-width:0.99900001;stroke-linecap:butt;stroke-linejoin:bevel;stroke-miterlimit:10;stroke-opacity:1;stroke-dasharray:none"
         id="path794"
         inkscape:connector-curvature="0" />
    </g>
    <path
       d="m 394.37569,630.5727 -0.8762,-0.87375 21.8962,0 -0.8762,0.87375 0,-88.30749 0.8762,0.87625 -21.8962,0 0.8762,-0.87625 0,88.30749 z m -1.7512,-88.30749 c 0,-0.43625 0.4375,-0.8725 0.875,-0.8725 l 21.8962,0 c 0.4938,0 0.8775,0.43625 0.8775,0.8725 l 0,88.30749 c 0,0.49125 -0.3837,0.87375 -0.8775,0.87375 l -21.8962,0 c -0.4375,0 -0.875,-0.3825 -0.875,-0.87375 l 0,-88.30749 z"
       style="fill:#c01e24;fill-opacity:1;fill-rule:nonzero;stroke:none"
       id="path796"
       inkscape:connector-curvature="0" />
    <g
       id="g798"
       transform="matrix(1.25,0,0,-1.25,394.17919,631.15983)">
      <path
         d="m 0,0 -0.715,0.708 17.86,0 L 16.429,0 l 0,71.584 0.716,-0.709 -17.86,0 L 0,71.584 0,0 z m -1.429,71.584 c 0,0.354 0.357,0.708 0.714,0.708 l 17.86,0 c 0.402,0 0.714,-0.354 0.714,-0.708 L 17.859,0 c 0,-0.397 -0.312,-0.708 -0.714,-0.708 l -17.86,0 c -0.357,0 -0.714,0.311 -0.714,0.708 l 0,71.584 z"
         style="fill:none;stroke:#c01e24;stroke-width:0.99900001;stroke-linecap:butt;stroke-linejoin:bevel;stroke-miterlimit:10;stroke-opacity:1;stroke-dasharray:none"
         id="path800"
         inkscape:connector-curvature="0" />
    </g>
    <path
       d="m 375.27599,513.05433 5.2562,0 -5.2562,0 z m 0,39.34375 5.2562,0 -5.2562,0 z m 2.6275,0 0,-19.67125 0,-19.6725 0,39.34375 z"
       style="fill:#110f0d;fill-opacity:1;fill-rule:nonzero;stroke:none"
       id="path802"
       inkscape:connector-curvature="0" />
    <path
       d="m 375.27579,512.18033 5.2563,0 0,1.7475 -5.2563,0 0,-1.7475 z m 0,39.34375 5.2563,0 0,1.74875 -5.2563,0 0,-1.74875 z m 1.7525,0.87375 0,-19.67125 0,-19.6725 1.75,0 0,19.6725 0,19.67125 -1.75,0 z"
       style="fill:#242222;fill-opacity:1;fill-rule:nonzero;stroke:none"
       id="path804"
       inkscape:connector-curvature="0" />
    <path
       d="m 375.27579,512.18033 5.2563,0 0,1.7475 -5.2563,0 0,-1.7475 z m 0,39.34375 5.2563,0 0,1.74875 -5.2563,0 0,-1.74875 z m 1.7525,0.87375 0,-19.67125 0,-19.6725 1.75,0 0,19.6725 0,19.67125 -1.75,0 z"
       style="fill:none;stroke:#242222;stroke-width:0.0775;stroke-linecap:butt;stroke-linejoin:round;stroke-miterlimit:10;stroke-opacity:1;stroke-dasharray:none"
       id="path806"
       inkscape:connector-curvature="0" />
    <path
       d="m 401.82199,530.53908 5.2537,0 -5.2537,0 z m 0,23.61 5.2537,0 -5.2537,0 z m 2.6262,0 0,-11.80625 0,-11.80375 0,23.61 z"
       style="fill:#110f0d;fill-opacity:1;fill-rule:nonzero;stroke:none"
       id="path808"
       inkscape:connector-curvature="0" />
    <path
       d="m 401.82209,529.66533 5.2537,0 0,1.74875 -5.2537,0 0,-1.74875 z m 0,23.6075 5.2537,0 0,1.74875 -5.2537,0 0,-1.74875 z m 1.75,0.875 0,-11.80375 0,-11.805 1.7537,0 0,11.805 0,11.80375 -1.7537,0 z"
       style="fill:#242222;fill-opacity:1;fill-rule:nonzero;stroke:none"
       id="path810"
       inkscape:connector-curvature="0" />
    <path
       d="m 401.82209,529.66533 5.2537,0 0,1.74875 -5.2537,0 0,-1.74875 z m 0,23.6075 5.2537,0 0,1.74875 -5.2537,0 0,-1.74875 z m 1.75,0.875 0,-11.80375 0,-11.805 1.7537,0 0,11.805 0,11.80375 -1.7537,0 z"
       style="fill:none;stroke:#242222;stroke-width:0.0775;stroke-linecap:butt;stroke-linejoin:round;stroke-miterlimit:10;stroke-opacity:1;stroke-dasharray:none"
       id="path812"
       inkscape:connector-curvature="0" />
    <text
       style="font-size:15px"
       id="text814"
       x="499.12787"
       y="660.28711">
      <tspan
         style="font-size:15px;font-variant:normal;font-weight:bold;writing-mode:lr-tb;fill:#231f20;fill-opacity:1;fill-rule:nonzero;stroke:none;font-family:Arial;-inkscape-font-specification:Arial-BoldMT"
         x="499.12787 508.29279 516.63287 521.62787 526.62286 538.29279 547.45782"
         y="660.28711"
         sodipodi:role="line"
         id="tspan816">L7::GFP</tspan>
    </text>
    <path
       d="m 502.03319,630.21258 -0.875,-0.87375 21.895,0 -0.875,0.87375 0,-81.31125 0.875,0.87375 -21.895,0 0.875,-0.87375 0,81.31125 z m -1.7525,-81.31125 c 0,-0.43625 0.4375,-0.87375 0.8775,-0.87375 l 21.895,0 c 0.4938,0 0.8763,0.4375 0.8763,0.87375 l 0,81.31125 c 0,0.49125 -0.3825,0.87375 -0.8763,0.87375 l -21.895,0 c -0.44,0 -0.8775,-0.3825 -0.8775,-0.87375 l 0,-81.31125 z"
       style="fill:#110f0d;fill-opacity:1;fill-rule:nonzero;stroke:none"
       id="path818"
       inkscape:connector-curvature="0" />
    <g
       id="g820"
       transform="matrix(1.25,0,0,-1.25,502.03319,630.21258)">
      <path
         d="m 0,0 -0.7,0.699 17.516,0 -0.7,-0.699 0,65.049 0.7,-0.699 -17.516,0 L 0,65.049 0,0 z m -1.402,65.049 c 0,0.349 0.35,0.699 0.702,0.699 l 17.516,0 c 0.395,0 0.701,-0.35 0.701,-0.699 L 17.517,0 c 0,-0.393 -0.306,-0.699 -0.701,-0.699 l -17.516,0 c -0.352,0 -0.702,0.306 -0.702,0.699 l 0,65.049 z"
         style="fill:none;stroke:#110f0d;stroke-width:0.99900001;stroke-linecap:butt;stroke-linejoin:bevel;stroke-miterlimit:10;stroke-opacity:1;stroke-dasharray:none"
         id="path822"
         inkscape:connector-curvature="0" />
    </g>
    <path
       d="m 528.30879,630.21258 -0.8762,-0.87375 21.8962,0 -0.8762,0.87375 0,-54.2075 0.8762,0.875 -21.8962,0 0.8762,-0.875 0,54.2075 z m -1.7512,-54.2075 c 0,-0.4375 0.4375,-0.87375 0.875,-0.87375 l 21.8962,0 c 0.4938,0 0.8775,0.43625 0.8775,0.87375 l 0,54.2075 c 0,0.49125 -0.3837,0.87375 -0.8775,0.87375 l -21.8962,0 c -0.4375,0 -0.875,-0.3825 -0.875,-0.87375 l 0,-54.2075 z"
       style="fill:#c01e24;fill-opacity:1;fill-rule:nonzero;stroke:none"
       id="path824"
       inkscape:connector-curvature="0" />
    <g
       id="g826"
       transform="matrix(1.25,0,0,-1.25,528.30879,630.21258)">
      <path
         d="m 0,0 -0.701,0.699 17.517,0 L 16.115,0 l 0,43.366 0.701,-0.7 -17.517,0 L 0,43.366 0,0 z m -1.401,43.366 c 0,0.35 0.35,0.699 0.7,0.699 l 17.517,0 c 0.395,0 0.702,-0.349 0.702,-0.699 L 17.518,0 c 0,-0.393 -0.307,-0.699 -0.702,-0.699 l -17.517,0 c -0.35,0 -0.7,0.306 -0.7,0.699 l 0,43.366 z"
         style="fill:none;stroke:#c01e24;stroke-width:0.99900001;stroke-linecap:butt;stroke-linejoin:bevel;stroke-miterlimit:10;stroke-opacity:1;stroke-dasharray:none"
         id="path828"
         inkscape:connector-curvature="0" />
    </g>
    <path
       d="m 509.03999,531.41558 5.255,0 -5.255,0 z m 0,34.97125 5.255,0 -5.255,0 z m 2.6287,0 0,-17.485 0,-17.48625 0,34.97125 z"
       style="fill:#110f0d;fill-opacity:1;fill-rule:nonzero;stroke:none"
       id="path830"
       inkscape:connector-curvature="0" />
    <path
       d="m 509.03959,530.53908 5.255,0 0,1.75 -5.255,0 0,-1.75 z m 0,34.97375 5.255,0 0,1.7475 -5.255,0 0,-1.7475 z m 1.7525,0.87375 0,-17.485 0,-17.48625 1.7512,0 0,17.48625 0,17.485 -1.7512,0 z"
       style="fill:#242222;fill-opacity:1;fill-rule:nonzero;stroke:none"
       id="path832"
       inkscape:connector-curvature="0" />
    <path
       d="m 509.03959,530.53908 5.255,0 0,1.75 -5.255,0 0,-1.75 z m 0,34.97375 5.255,0 0,1.7475 -5.255,0 0,-1.7475 z m 1.7525,0.87375 0,-17.485 0,-17.48625 1.7512,0 0,17.48625 0,17.485 -1.7512,0 z"
       style="fill:none;stroke:#242222;stroke-width:0.0775;stroke-linecap:butt;stroke-linejoin:round;stroke-miterlimit:10;stroke-opacity:1;stroke-dasharray:none"
       id="path834"
       inkscape:connector-curvature="0" />
    <path
       d="m 535.31559,568.13608 5.255,0 -5.255,0 z m 0,15.73625 5.255,0 -5.255,0 z m 2.6275,0 0,-7.8675 0,-7.86875 0,15.73625 z"
       style="fill:#110f0d;fill-opacity:1;fill-rule:nonzero;stroke:none"
       id="path836"
       inkscape:connector-curvature="0" />
    <path
       d="m 535.31579,567.26033 5.255,0 0,1.74625 -5.255,0 0,-1.74625 z m 0,15.73875 5.255,0 0,1.74625 -5.255,0 0,-1.74625 z m 1.7513,0.87375 0,-7.8675 0,-7.86875 1.7525,0 0,7.86875 0,7.8675 -1.7525,0 z"
       style="fill:#242222;fill-opacity:1;fill-rule:nonzero;stroke:none"
       id="path838"
       inkscape:connector-curvature="0" />
    <path
       d="m 535.31579,567.26033 5.255,0 0,1.7475 -5.255,0 0,-1.7475 z m 0,15.73875 5.255,0 0,1.7475 -5.255,0 0,-1.7475 z m 1.7513,0.87375 0,-7.8675 0,-7.86875 1.7525,0 0,7.86875 0,7.8675 -1.7525,0 z"
       style="fill:none;stroke:#242222;stroke-width:0.0775;stroke-linecap:butt;stroke-linejoin:round;stroke-miterlimit:10;stroke-opacity:1;stroke-dasharray:none"
       id="path840"
       inkscape:connector-curvature="0" />
    <text
       style="font-size:15px"
       id="text842"
       x="234.29759"
       y="660.28711">
      <tspan
         style="font-size:17.5px;font-variant:normal;font-weight:bold;writing-mode:lr-tb;fill:#231f20;fill-opacity:1;fill-rule:nonzero;stroke:none;font-family:Arial;-inkscape-font-specification:Arial-BoldMT"
         x="234.29759 246.9326 257.62506 268.31757"
         y="660.28711"
         sodipodi:role="line"
         id="tspan844">None</tspan>
    </text>
    <path
       d="m 228.96084,630.21283 21.89625,0 0,-88.30625 -21.89625,0 0,88.30625 z"
       style="fill:#110f0d;fill-opacity:1;fill-rule:evenodd;stroke:none"
       id="path846"
       inkscape:connector-curvature="0" />
    <path
       d="m 229.83709,630.21258 -0.87625,-0.87375 21.89625,0 -0.875,0.87375 0,-88.30625 0.875,0.875 -21.89625,0 0.87625,-0.875 0,88.30625 z m -1.75125,-88.30625 c 0,-0.43625 0.4375,-0.87375 0.875,-0.87375 l 21.89625,0 c 0.49375,0 0.87625,0.4375 0.87625,0.87375 l 0,88.30625 c 0,0.49125 -0.3825,0.87375 -0.87625,0.87375 l -21.89625,0 c -0.4375,0 -0.875,-0.3825 -0.875,-0.87375 l 0,-88.30625 z"
       style="fill:#110f0d;fill-opacity:1;fill-rule:nonzero;stroke:none"
       id="path848"
       inkscape:connector-curvature="0" />
    <g
       id="g850"
       transform="matrix(1.25,0,0,-1.25,229.83709,630.21258)">
      <path
         d="m 0,0 -0.701,0.699 17.517,0 -0.7,-0.699 0,70.645 0.7,-0.7 -17.517,0 L 0,70.645 0,0 z m -1.401,70.645 c 0,0.349 0.35,0.699 0.7,0.699 l 17.517,0 c 0.395,0 0.701,-0.35 0.701,-0.699 L 17.517,0 c 0,-0.393 -0.306,-0.699 -0.701,-0.699 l -17.517,0 c -0.35,0 -0.7,0.306 -0.7,0.699 l 0,70.645 z"
         style="fill:none;stroke:#110f0d;stroke-width:0.99900001;stroke-linecap:butt;stroke-linejoin:bevel;stroke-miterlimit:10;stroke-opacity:1;stroke-dasharray:none"
         id="path852"
         inkscape:connector-curvature="0" />
    </g>
    <path
       d="m 255.23709,630.21283 21.89625,0 0,-43.71625 -21.89625,0 0,43.71625 z"
       style="fill:#c01e24;fill-opacity:1;fill-rule:evenodd;stroke:none"
       id="path854"
       inkscape:connector-curvature="0" />
    <path
       d="m 256.11334,630.21258 -0.8775,-0.87375 21.89625,0 -0.87375,0.87375 0,-43.71625 0.87375,0.875 -21.89625,0 0.8775,-0.875 0,43.71625 z m -1.75125,-43.71625 c 0,-0.43625 0.4375,-0.87375 0.87375,-0.87375 l 21.89625,0 c 0.49375,0 0.8775,0.4375 0.8775,0.87375 l 0,43.71625 c 0,0.49125 -0.38375,0.87375 -0.8775,0.87375 l -21.89625,0 c -0.43625,0 -0.87375,-0.3825 -0.87375,-0.87375 l 0,-43.71625 z"
       style="fill:#c01e24;fill-opacity:1;fill-rule:nonzero;stroke:none"
       id="path856"
       inkscape:connector-curvature="0" />
    <g
       id="g858"
       transform="matrix(1.25,0,0,-1.25,256.11334,630.21258)">
      <path
         d="m 0,0 -0.702,0.699 17.517,0 L 16.116,0 l 0,34.973 0.699,-0.7 -17.517,0 L 0,34.973 0,0 z m -1.401,34.973 c 0,0.349 0.35,0.699 0.699,0.699 l 17.517,0 c 0.395,0 0.702,-0.35 0.702,-0.699 L 17.517,0 c 0,-0.393 -0.307,-0.699 -0.702,-0.699 l -17.517,0 c -0.349,0 -0.699,0.306 -0.699,0.699 l 0,34.973 z"
         style="fill:none;stroke:#c01e24;stroke-width:0.99900001;stroke-linecap:butt;stroke-linejoin:bevel;stroke-miterlimit:10;stroke-opacity:1;stroke-dasharray:none"
         id="path860"
         inkscape:connector-curvature="0" />
    </g>
    <path
       d="m 237.71984,527.04421 5.255,0 -5.255,0 z m 0,29.725 5.255,0 -5.255,0 z m 2.6275,0 0,-14.86125 0,-14.86375 0,29.725 z"
       style="fill:#110f0d;fill-opacity:1;fill-rule:nonzero;stroke:none"
       id="path862"
       inkscape:connector-curvature="0" />
    <path
       d="m 237.71959,526.16908 5.255,0 0,1.7475 -5.255,0 0,-1.7475 z m 0,29.7275 5.255,0 0,1.7475 -5.255,0 0,-1.7475 z m 1.7525,0.87375 0,-14.86375 0,-14.8625 1.75125,0 0,14.8625 0,14.86375 -1.75125,0 z"
       style="fill:#242222;fill-opacity:1;fill-rule:nonzero;stroke:none"
       id="path864"
       inkscape:connector-curvature="0" />
    <path
       d="m 237.71959,526.16908 5.255,0 0,1.7475 -5.255,0 0,-1.7475 z m 0,29.7275 5.255,0 0,1.7475 -5.255,0 0,-1.7475 z m 1.7525,0.87375 0,-14.86375 0,-14.8625 1.75125,0 0,14.8625 0,14.86375 -1.75125,0 z"
       style="fill:none;stroke:#242222;stroke-width:0.0775;stroke-linecap:butt;stroke-linejoin:round;stroke-miterlimit:10;stroke-opacity:1;stroke-dasharray:none"
       id="path866"
       inkscape:connector-curvature="0" />
    <path
       d="m 263.99609,580.37608 5.255,0 -5.255,0 z m 0,12.24125 5.255,0 -5.255,0 z m 2.6275,0 0,-6.12125 0,-6.12 0,12.24125 z"
       style="fill:#110f0d;fill-opacity:1;fill-rule:nonzero;stroke:none"
       id="path868"
       inkscape:connector-curvature="0" />
    <path
       d="m 263.99584,579.50158 5.255,0 0,1.745 -5.255,0 0,-1.745 z m 0,12.24 5.255,0 0,1.74625 -5.255,0 0,-1.74625 z m 1.75125,0.87625 0,-6.12125 0,-6.12 1.75125,0 0,6.12 0,6.12125 -1.75125,0 z"
       style="fill:#242222;fill-opacity:1;fill-rule:nonzero;stroke:none"
       id="path870"
       inkscape:connector-curvature="0" />
    <path
       d="m 263.99584,579.50158 5.255,0 0,1.74625 -5.255,0 0,-1.74625 z m 0,12.24 5.255,0 0,1.7475 -5.255,0 0,-1.7475 z m 1.75125,0.87625 0,-6.12125 0,-6.12 1.75125,0 0,6.12 0,6.12125 -1.75125,0 z"
       style="fill:none;stroke:#242222;stroke-width:0.0775;stroke-linecap:butt;stroke-linejoin:round;stroke-miterlimit:10;stroke-opacity:1;stroke-dasharray:none"
       id="path872"
       inkscape:connector-curvature="0" />
    <path
       d="m 208.62834,525.29533 1.75125,0 0,105.79125 -1.75125,0 0,-105.79125 z"
       style="fill:#808182;fill-opacity:1;fill-rule:nonzero;stroke:none"
       id="path874"
       inkscape:connector-curvature="0" />
    <path
       d="m 203.37334,630.58908 6.13125,0 0,1.7475 -6.13125,0 0,-1.7475 z"
       style="fill:#808182;fill-opacity:1;fill-rule:nonzero;stroke:none"
       id="path876"
       inkscape:connector-curvature="0" />
    <path
       d="m 203.37334,576.88033 6.13125,0 0,1.7475 -6.13125,0 0,-1.7475 z"
       style="fill:#808182;fill-opacity:1;fill-rule:nonzero;stroke:none"
       id="path878"
       inkscape:connector-curvature="0" />
    <path
       d="m 203.37334,524.42033 6.13125,0 0,1.74875 -6.13125,0 0,-1.74875 z"
       style="fill:#808182;fill-opacity:1;fill-rule:nonzero;stroke:none"
       id="path880"
       inkscape:connector-curvature="0" />
    <path
       d="m 209.50459,630.71658 399.3925,0 0,1.74625 -399.3925,0 0,-1.74625 z"
       style="fill:#808182;fill-opacity:1;fill-rule:nonzero;stroke:none"
       id="path882"
       inkscape:connector-curvature="0" />
    <g
       id="g884"
       transform="matrix(1.25,0,0,-1.25,269.99459,503.58658)">
      <path
         d="M 0,0 0,-5.657"
         style="fill:#110f0d;fill-opacity:1;fill-rule:nonzero;stroke:#110f0d;stroke-width:1;stroke-linecap:butt;stroke-linejoin:miter;stroke-miterlimit:4;stroke-opacity:1;stroke-dasharray:none"
         id="path886"
         inkscape:connector-curvature="0" />
    </g>
    <g
       id="g888"
       transform="matrix(1.25,0,0,-1.25,269.99459,503.58658)">
      <path
         d="M 0,0 104,0"
         style="fill:#231f20;fill-opacity:1;fill-rule:nonzero;stroke:#231f20;stroke-width:1;stroke-linecap:butt;stroke-linejoin:miter;stroke-miterlimit:4;stroke-opacity:1;stroke-dasharray:none"
         id="path890"
         inkscape:connector-curvature="0" />
    </g>
    <g
       id="g892"
       transform="matrix(1.25,0,0,-1.25,400.61959,503.58658)">
      <path
         d="M 0,0 0,-5.657"
         style="fill:#110f0d;fill-opacity:1;fill-rule:nonzero;stroke:#110f0d;stroke-width:1;stroke-linecap:butt;stroke-linejoin:miter;stroke-miterlimit:4;stroke-opacity:1;stroke-dasharray:none"
         id="path894"
         inkscape:connector-curvature="0" />
    </g>
    <g
       id="g896"
       transform="matrix(1.25,0,0,-1.25,407.49459,503.58658)">
      <path
         d="M 0,0 0,-5.657"
         style="fill:#110f0d;fill-opacity:1;fill-rule:nonzero;stroke:#110f0d;stroke-width:1;stroke-linecap:butt;stroke-linejoin:miter;stroke-miterlimit:4;stroke-opacity:1;stroke-dasharray:none"
         id="path898"
         inkscape:connector-curvature="0" />
    </g>
    <g
       id="g900"
       transform="matrix(1.25,0,0,-1.25,407.49459,503.58658)">
      <path
         d="M 0,0 104,0"
         style="fill:#231f20;fill-opacity:1;fill-rule:nonzero;stroke:#231f20;stroke-width:1;stroke-linecap:butt;stroke-linejoin:miter;stroke-miterlimit:4;stroke-opacity:1;stroke-dasharray:none"
         id="path902"
         inkscape:connector-curvature="0" />
    </g>
    <g
       id="g904"
       transform="matrix(1.25,0,0,-1.25,538.11959,503.58658)">
      <path
         d="M 0,0 0,-5.657"
         style="fill:#110f0d;fill-opacity:1;fill-rule:nonzero;stroke:#110f0d;stroke-width:1;stroke-linecap:butt;stroke-linejoin:miter;stroke-miterlimit:4;stroke-opacity:1;stroke-dasharray:none"
         id="path906"
         inkscape:connector-curvature="0" />
    </g>
    <text
       style="font-size:15px"
       id="text908"
       x="318.85083"
       y="499.14569">
      <tspan
         style="font-size:15px;font-variant:normal;font-weight:normal;writing-mode:lr-tb;fill:#231f20;fill-opacity:1;fill-rule:nonzero;stroke:none;font-family:SimSun;-inkscape-font-specification:SimSun"
         x="318.85083"
         y="499.14569"
         id="tspan910">*</tspan>
    </text>
    <text
       style="font-size:15px"
       id="text912"
       x="332.59082"
       y="499.14569">
      <tspan
         style="font-size:15px;font-variant:normal;font-weight:normal;writing-mode:lr-tb;fill:#231f20;fill-opacity:1;fill-rule:nonzero;stroke:none;font-family:SimSun;-inkscape-font-specification:SimSun"
         x="332.59082"
         y="499.14569"
         id="tspan914">*</tspan>
    </text>
    <text
       style="font-size:15px"
       id="text916"
       x="464.56085"
       y="499.14569">
      <tspan
         style="font-size:15px;font-variant:normal;font-weight:normal;writing-mode:lr-tb;fill:#231f20;fill-opacity:1;fill-rule:nonzero;stroke:none;font-family:SimSun;-inkscape-font-specification:SimSun"
         x="464.56085"
         y="499.14569"
         id="tspan918">*</tspan>
    </text>
    <text
       style="font-size:15px"
       id="text920"
       x="248.05083"
       y="499.14569">
      <tspan
         style="font-size:15px;font-variant:normal;font-weight:normal;writing-mode:lr-tb;fill:#231f20;fill-opacity:1;fill-rule:nonzero;stroke:none;font-family:SimSun;-inkscape-font-specification:SimSun"
         x="248.05083"
         y="499.14569"
         id="tspan922">*</tspan>
    </text>
    <text
       style="font-size:15px"
       id="text1058"
       x="637.98651"
       y="516.4223">
      <tspan
         style="font-size:15px;font-variant:normal;font-weight:bold;writing-mode:lr-tb;fill:#231f20;fill-opacity:1;fill-rule:nonzero;stroke:none;font-family:Arial;-inkscape-font-specification:Arial-BoldMT"
         x="637.98651 652.14655"
         y="516.4223"
         sodipodi:role="line"
         id="tspan1060">WT</tspan>
    </text>
    <text
       style="font-size:15px"
       id="text1062"
       x="639.11163"
       y="540.18237">
      <tspan
         style="font-size:15px;font-variant:normal;font-weight:bold;writing-mode:lr-tb;fill:#231f20;fill-opacity:1;fill-rule:nonzero;stroke:none;font-family:Arial;-inkscape-font-specification:Arial-BoldMT"
         x="639.11163"
         y="540.18237"
         id="tspan1064">D</tspan>
    </text>
    <text
       style="font-size:15px"
       id="text1066"
       x="649.9494"
       y="535.17108">
      <tspan
         style="font-size:11.25px;font-variant:normal;font-weight:normal;writing-mode:lr-tb;fill:#231f20;fill-opacity:1;fill-rule:nonzero;stroke:none;font-family:Arial;-inkscape-font-specification:ArialMT"
         x="649.9494"
         y="535.17108"
         id="tspan1068">b</tspan>
    </text>
    <text
       style="font-size:15px"
       id="text1070"
       x="656.20673"
       y="540.17108">
      <tspan
         style="font-size:15px;font-variant:normal;font-weight:bold;writing-mode:lr-tb;fill:#231f20;fill-opacity:1;fill-rule:nonzero;stroke:none;font-family:Arial;-inkscape-font-specification:Arial-BoldMT"
         x="656.20673"
         y="540.17108"
         id="tspan1072">K</tspan>
    </text>
    <text
       style="font-size:15px"
       id="text1074"
       x="667.03912"
       y="535.17108">
      <tspan
         style="font-size:11.25px;font-variant:normal;font-weight:normal;writing-mode:lr-tb;fill:#231f20;fill-opacity:1;fill-rule:nonzero;stroke:none;font-family:Arial;-inkscape-font-specification:ArialMT"
         x="667.03912"
         y="535.17108"
         id="tspan1076">b</tspan>
    </text>
    <text
       style="font-size:15px"
       id="text1078"
       x="673.29535"
       y="540.17108">
      <tspan
         style="font-size:12.5px;font-variant:normal;font-weight:bold;writing-mode:lr-tb;fill:#231f20;fill-opacity:1;fill-rule:nonzero;stroke:none;font-family:Arial;-inkscape-font-specification:Arial-BoldMT"
         x="673.29535 677.45782 680.9328"
         y="540.17108"
         sodipodi:role="line"
         id="tspan1080">-/-</tspan>
    </text>
    <text
       transform="matrix(0,-0.99999371,1.0000063,0,0,0)"
       id="text1090"
       x="-617.84833"
       y="112.16915"
       style="font-size:14.99990654px">
      <tspan
         style="font-size:20.00012779px;font-variant:normal;font-weight:bold;writing-mode:lr-tb;fill:#110f0d;fill-opacity:1;fill-rule:nonzero;stroke:none;font-family:Arial;-inkscape-font-specification:Arial-BoldMT"
         x="-617.84833 -605.62823 -594.50818 -583.38812 -575.60809 -563.388 -557.82794 -545.60791"
         y="112.16915"
         sodipodi:role="line"
         id="tspan1092">Learning</tspan>
    </text>
    <path
       d="m 626.24459,514.83658 -10,0 0,-10 10,0 0,10 z"
       style="fill:#110f0d;fill-opacity:1;fill-rule:evenodd;stroke:none"
       id="path1132"
       inkscape:connector-curvature="0" />
    <path
       d="m 626.24459,539.83658 -10,0 0,-10 10,0 0,10 z"
       style="fill:#c01e24;fill-opacity:1;fill-rule:evenodd;stroke:none"
       id="path1134"
       inkscape:connector-curvature="0" />
    <text
       style="font-size:15px"
       id="text1316"
       x="346.34601"
       y="499.14569">
      <tspan
         style="font-size:15px;font-variant:normal;font-weight:normal;writing-mode:lr-tb;fill:#231f20;fill-opacity:1;fill-rule:nonzero;stroke:none;font-family:SimSun;-inkscape-font-specification:SimSun"
         x="346.34601"
         y="499.14569"
         id="tspan1318">*</tspan>
    </text>
  </g>
</svg>
