<?xml version="1.0" encoding="UTF-8" standalone="no"?>
<!-- Created with Inkscape (http://www.inkscape.org/) -->

<svg
   xmlns:dc="http://purl.org/dc/elements/1.1/"
   xmlns:cc="http://creativecommons.org/ns#"
   xmlns:rdf="http://www.w3.org/1999/02/22-rdf-syntax-ns#"
   xmlns:svg="http://www.w3.org/2000/svg"
   xmlns="http://www.w3.org/2000/svg"
   xmlns:sodipodi="http://sodipodi.sourceforge.net/DTD/sodipodi-0.dtd"
   xmlns:inkscape="http://www.inkscape.org/namespaces/inkscape"
   width="210mm"
   height="297mm"
   viewBox="0 0 744.09448819 1052.3622047"
   id="svg2"
   version="1.1"
   inkscape:version="0.91 r13725"
   sodipodi:docname="roc.svg">
  <sodipodi:namedview
     id="base"
     pagecolor="#ffffff"
     bordercolor="#666666"
     borderopacity="1.0"
     inkscape:pageopacity="0.0"
     inkscape:pageshadow="2"
     inkscape:zoom="2.4149385"
     inkscape:cx="375.01436"
     inkscape:cy="607.4622"
     inkscape:document-units="px"
     inkscape:current-layer="layer1"
     showgrid="false"
     inkscape:snap-grids="true"
     inkscape:window-width="1264"
     inkscape:window-height="1522"
     inkscape:window-x="3840"
     inkscape:window-y="0"
     inkscape:window-maximized="0" />
  <defs
     id="defs4">
    <marker
       inkscape:isstock="true"
       style="overflow:visible;"
       id="marker5369"
       refX="0.0"
       refY="0.0"
       orient="auto"
       inkscape:stockid="Arrow2Mend">
      <path
         transform="scale(0.6) rotate(180) translate(0,0)"
         d="M 8.7185878,4.0337352 L -2.2072895,0.016013256 L 8.7185884,-4.0017078 C 6.9730900,-1.6296469 6.9831476,1.6157441 8.7185878,4.0337352 z "
         style="fill-rule:evenodd;stroke-width:0.625;stroke-linejoin:round;stroke:#000000;stroke-opacity:1;fill:#000000;fill-opacity:1"
         id="path5371" />
    </marker>
    <marker
       inkscape:stockid="Arrow2Mend"
       orient="auto"
       refY="0.0"
       refX="0.0"
       id="Arrow2Mend"
       style="overflow:visible;"
       inkscape:isstock="true"
       inkscape:collect="always">
      <path
         id="path4169"
         style="fill-rule:evenodd;stroke-width:0.625;stroke-linejoin:round;stroke:#000000;stroke-opacity:1;fill:#000000;fill-opacity:1"
         d="M 8.7185878,4.0337352 L -2.2072895,0.016013256 L 8.7185884,-4.0017078 C 6.9730900,-1.6296469 6.9831476,1.6157441 8.7185878,4.0337352 z "
         transform="scale(0.6) rotate(180) translate(0,0)" />
    </marker>
    <marker
       inkscape:stockid="Arrow2Lend"
       orient="auto"
       refY="0.0"
       refX="0.0"
       id="Arrow2Lend"
       style="overflow:visible;"
       inkscape:isstock="true">
      <path
         id="path4163"
         style="fill-rule:evenodd;stroke-width:0.625;stroke-linejoin:round;stroke:#000000;stroke-opacity:1;fill:#000000;fill-opacity:1"
         d="M 8.7185878,4.0337352 L -2.2072895,0.016013256 L 8.7185884,-4.0017078 C 6.9730900,-1.6296469 6.9831476,1.6157441 8.7185878,4.0337352 z "
         transform="scale(1.1) rotate(180) translate(1,0)" />
    </marker>
    <marker
       inkscape:stockid="Arrow2Lend"
       orient="auto"
       refY="0"
       refX="0"
       id="Arrow2Lend-6"
       style="overflow:visible"
       inkscape:isstock="true">
      <path
         inkscape:connector-curvature="0"
         id="path4163-2"
         style="fill:#000000;fill-opacity:1;fill-rule:evenodd;stroke:#000000;stroke-width:0.625;stroke-linejoin:round;stroke-opacity:1"
         d="M 8.7185878,4.0337352 -2.2072895,0.01601326 8.7185884,-4.0017078 c -1.7454984,2.3720609 -1.7354408,5.6174519 -6e-7,8.035443 z"
         transform="matrix(-1.1,0,0,-1.1,-1.1,0)" />
    </marker>
  </defs>
  <metadata
     id="metadata7">
    <rdf:RDF>
      <cc:Work
         rdf:about="">
        <dc:format>image/svg+xml</dc:format>
        <dc:type
           rdf:resource="http://purl.org/dc/dcmitype/StillImage" />
        <dc:title />
      </cc:Work>
    </rdf:RDF>
  </metadata>
  <g
     inkscape:label="Layer 1"
     inkscape:groupmode="layer"
     id="layer1">
    <path
       style="fill:none;fill-rule:evenodd;stroke:#000000;stroke-width:3;stroke-linecap:butt;stroke-linejoin:miter;stroke-opacity:1;marker-end:url(#Arrow2Mend);stroke-miterlimit:4;stroke-dasharray:none"
       d="m 256.82197,567.59175 264.42025,0"
       id="path4136"
       inkscape:connector-curvature="0" />
    <path
       style="fill:none;fill-rule:evenodd;stroke:#000000;stroke-width:3;stroke-linecap:butt;stroke-linejoin:miter;stroke-opacity:1;marker-end:url(#marker5369);stroke-miterlimit:4;stroke-dasharray:none"
       d="m 257.50577,566.84953 0,-264.42025"
       id="path4136-9"
       inkscape:connector-curvature="0" />
    <path
       style="fill:none;fill-rule:evenodd;stroke:#800080;stroke-width:3;stroke-linecap:butt;stroke-linejoin:miter;stroke-opacity:1;stroke-miterlimit:4;stroke-dasharray:none"
       d="M 256.82197,568.35157 C 273.53819,348.00136 337.89339,335.73256 500.49665,328.8941"
       id="path5253"
       inkscape:connector-curvature="0"
       sodipodi:nodetypes="cc" />
    <text
       xml:space="preserve"
       style="font-style:normal;font-variant:normal;font-weight:bold;font-stretch:normal;font-size:15px;line-height:125%;font-family:Arial;-inkscape-font-specification:'Sans Bold';text-align:start;letter-spacing:0px;word-spacing:0px;text-anchor:start;fill:#000000;fill-opacity:1;stroke:none;stroke-width:1px;stroke-linecap:butt;stroke-linejoin:miter;stroke-opacity:1"
       x="365.47742"
       y="591.90625"
       id="text5255"
       sodipodi:linespacing="125%"><tspan
         sodipodi:role="line"
         id="tspan5257"
         x="365.47742"
         y="591.90625"
         style="font-size:25px">FPR</tspan></text>
    <text
       xml:space="preserve"
       style="font-style:normal;font-variant:normal;font-weight:bold;font-stretch:normal;font-size:25px;line-height:125%;font-family:Arial;-inkscape-font-specification:'Sans Bold';text-align:start;letter-spacing:0px;word-spacing:0px;text-anchor:start;fill:#000000;fill-opacity:1;stroke:none;stroke-width:1px;stroke-linecap:butt;stroke-linejoin:miter;stroke-opacity:1"
       x="200.59468"
       y="423.98422"
       id="text5259"
       sodipodi:linespacing="125%"><tspan
         sodipodi:role="line"
         id="tspan5261"
         x="200.59468"
         y="423.98422">TPR</tspan></text>
    <path
       style="fill:none;fill-rule:evenodd;stroke:#000000;stroke-width:2;stroke-linecap:butt;stroke-linejoin:miter;stroke-miterlimit:4;stroke-dasharray:2,2;stroke-dashoffset:0;stroke-opacity:1"
       d="M 500.72685,568.35157 500.51663,328.18242"
       id="path5263"
       inkscape:connector-curvature="0"
       sodipodi:nodetypes="cc" />
    <path
       style="fill:none;fill-rule:evenodd;stroke:#000000;stroke-width:2;stroke-linecap:butt;stroke-linejoin:miter;stroke-opacity:1;stroke-miterlimit:4;stroke-dasharray:2,2;stroke-dashoffset:0"
       d="m 256.82197,328.24583 243.14506,0"
       id="path5265"
       inkscape:connector-curvature="0" />
    <text
       xml:space="preserve"
       style="font-style:normal;font-variant:normal;font-weight:bold;font-stretch:normal;font-size:25px;line-height:125%;font-family:Arial;-inkscape-font-specification:'Sans Bold';text-align:start;letter-spacing:0px;word-spacing:0px;text-anchor:start;fill:#000000;fill-opacity:1;stroke:none;stroke-width:1px;stroke-linecap:butt;stroke-linejoin:miter;stroke-opacity:1"
       x="492.32504"
       y="589.04694"
       id="text5267"
       sodipodi:linespacing="125%"><tspan
         sodipodi:role="line"
         id="tspan5269"
         x="492.32504"
         y="589.04694">1</tspan></text>
    <text
       xml:space="preserve"
       style="font-style:normal;font-variant:normal;font-weight:bold;font-stretch:normal;font-size:25px;line-height:125%;font-family:Arial;-inkscape-font-specification:'Sans Bold';text-align:start;letter-spacing:0px;word-spacing:0px;text-anchor:start;fill:#000000;fill-opacity:1;stroke:none;stroke-width:1px;stroke-linecap:butt;stroke-linejoin:miter;stroke-opacity:1"
       x="241.93604"
       y="339.25586"
       id="text5267-9"
       sodipodi:linespacing="125%"><tspan
         sodipodi:role="line"
         id="tspan5269-3"
         x="241.93604"
         y="339.25586">1</tspan></text>
    <g
       id="g4349"
       transform="matrix(0.4,0,0,0.4,147.1781,165.37592)">
      <g
         word-spacing="normal"
         letter-spacing="normal"
         font-size-adjust="none"
         font-stretch="normal"
         font-weight="normal"
         font-variant="normal"
         font-style="normal"
         stroke-miterlimit="10.433"
         xml:space="preserve"
         transform="matrix(1.0629921,0,0,-1.0629921,-186.02362,789.27165)"
         id="content"
         style="font-style:normal;font-variant:normal;font-weight:normal;font-stretch:normal;letter-spacing:normal;word-spacing:normal;text-anchor:start;fill:none;fill-opacity:1;fill-rule:evenodd;stroke:#000000;stroke-linecap:butt;stroke-linejoin:miter;stroke-miterlimit:10.43299961;stroke-dasharray:none;stroke-dashoffset:0;stroke-opacity:1"><path
           id="path4352"
           d="m 474.71,429.86 4.42,0 c 0.61,0 1.2,-0.07 1.8,-0.07 l 6.67,0 0,3.25 -30.28,0 0,-3.25 6.67,0 c 0.59,0 1.2,0.07 1.8,0.07 l 4.48,0 0,-31.1 4.44,0 z"
           inkscape:connector-curvature="0"
           style="fill:#000000;stroke-width:0" /><path
           id="path4354"
           d="m 507.01,413.15 0.58,0.02 0.57,0.03 0.56,0.07 0.56,0.09 0.55,0.11 0.53,0.14 0.53,0.16 0.52,0.18 0.51,0.2 0.49,0.23 0.48,0.24 0.47,0.26 0.45,0.29 0.43,0.3 0.42,0.32 0.4,0.33 0.39,0.35 0.36,0.37 0.35,0.39 0.32,0.39 0.3,0.41 0.28,0.43 0.26,0.43 0.24,0.45 0.2,0.46 0.19,0.47 0.16,0.48 0.13,0.49 0.1,0.5 0.08,0.5 0.04,0.52 0.02,0.52 c 0,5.33 -4.94,10.06 -11.82,10.06 l -12.4,0 0,-34.58 4.44,0 0,14.39 -0.16,2.89 0,14.5 7.03,0 c 5.48,0 8.86,-3.03 8.86,-7.26 0,-3.94 -3.13,-7.24 -8.86,-7.24 l -7.03,0 0.16,-2.89 z"
           inkscape:connector-curvature="0"
           style="fill:#000000;stroke-width:0" /><path
           id="path4356"
           d="m 542.15,415 0.47,0.14 0.47,0.16 0.45,0.17 0.44,0.18 0.43,0.19 0.42,0.21 0.41,0.21 0.39,0.22 0.38,0.23 0.37,0.24 0.36,0.26 0.34,0.25 0.33,0.27 0.31,0.28 0.3,0.28 0.28,0.3 0.27,0.3 0.26,0.3 0.24,0.32 0.22,0.32 0.21,0.32 0.19,0.33 0.17,0.34 0.15,0.35 0.14,0.34 0.12,0.36 0.11,0.36 0.08,0.36 0.07,0.36 0.05,0.37 0.03,0.38 0.01,0.37 c 0,4.93 -5.42,9.27 -12.55,9.27 l -0.56,-2.8 c 5.78,0 9.08,-2.93 9.08,-6.47 0,-3.54 -3.19,-6.48 -9.08,-6.48 l -7.17,0 0,12.95 7.17,0 0.56,2.8 -12.02,0 0,-34.58 4.29,0 0,15.8 7.87,0 9.38,-15.8 4.42,0 z"
           inkscape:connector-curvature="0"
           style="fill:#000000;stroke-width:0" /><path
           id="path4358"
           d="m 601.47,415.06 0.13,0 0.15,0 0.14,0.01 0.08,0 0.07,0 0.07,0.01 0.07,0.01 0.07,0.01 0.07,0.01 0.07,0.01 0.07,0.02 0.06,0.02 0.06,0.02 0.06,0.03 0.06,0.02 0.06,0.03 0.05,0.04 0.05,0.04 0.05,0.04 0.04,0.04 0.04,0.05 0.02,0.03 0.02,0.03 0.01,0.03 0.02,0.03 0.01,0.03 0.02,0.03 0.01,0.03 0.01,0.04 0.01,0.03 0.01,0.04 0.01,0.04 0,0.04 0.01,0.04 0,0.04 0,0.05 0,0.04 c 0,1 -0.95,1 -1.64,1 l -29.84,0 c -0.7,0 -1.64,0 -1.64,-1 0,-0.98 0.94,-0.98 1.69,-0.98 z"
           inkscape:connector-curvature="0"
           style="fill:#000000;stroke-width:0" /><path
           id="path4360"
           d="m 601.51,405.39 0.07,0 0.06,0 0.14,0 0.14,0 0.07,0.01 0.07,0 0.07,0.01 0.07,0.01 0.07,0.01 0.06,0.01 0.07,0.01 0.06,0.02 0.07,0.02 0.06,0.02 0.06,0.03 0.06,0.02 0.05,0.04 0.05,0.03 0.05,0.04 0.05,0.04 0.04,0.05 0.02,0.02 0.02,0.03 0.02,0.03 0.02,0.02 0.01,0.03 0.02,0.03 0.01,0.03 0.02,0.04 0.01,0.03 0.01,0.04 0.01,0.03 0.01,0.04 0.01,0.04 0,0.04 0.01,0.04 0,0.05 0,0.04 0,0.05 c 0,1 -0.95,1 -1.68,1 l -29.75,0 c -0.75,0 -1.69,0 -1.69,-1 0,-1 0.94,-1 1.64,-1 z"
           inkscape:connector-curvature="0"
           style="fill:#000000;stroke-width:0" /><path
           id="path4362"
           d="m 639.78,405.48 0.72,0.07 0.7,0.09 0.69,0.11 0.68,0.14 0.66,0.16 0.64,0.17 0.63,0.2 0.61,0.21 0.59,0.24 0.57,0.25 0.56,0.27 0.54,0.28 0.51,0.3 0.5,0.31 0.47,0.33 0.45,0.35 0.43,0.35 0.4,0.37 0.39,0.38 0.35,0.39 0.34,0.4 0.3,0.41 0.28,0.42 0.26,0.43 0.22,0.43 0.2,0.44 0.17,0.45 0.14,0.46 0.11,0.45 0.08,0.47 0.04,0.47 0.02,0.47 c 0,5.18 -5.67,9.71 -13.25,10.31 l 0,-1.1 c 6.88,-0.79 8.28,-5.37 8.28,-9.17 0,-2.98 -0.75,-8.31 -8.28,-9.2 l 0,18.37 0,1.1 0,2.8 c 0,1.68 0,2.39 4.74,2.39 l 1.64,0 0,1.54 c -1.78,-0.15 -6.38,-0.15 -8.41,-0.15 -2.05,0 -6.69,0 -8.48,0.15 l 0,-1.54 1.65,0 c 4.74,0 4.74,-0.66 4.74,-2.39 l 0,-2.8 0,-1.14 0,-18.28 c -7.08,0.93 -7.99,6.03 -7.99,9.11 0,2.59 0.5,8.17 7.99,9.17 l 0,1.14 c -7.63,-0.74 -12.96,-5.33 -12.96,-10.27 0,-5.12 5.52,-9.56 12.96,-10.31 l 0,-2.78 c 0,-1.7 0,-2.39 -4.74,-2.39 l -1.65,0 0,-1.55 c 1.79,0.16 6.39,0.16 8.42,0.16 2.04,0 6.69,0 8.47,-0.16 l 0,1.55 -1.64,0 c -4.74,0 -4.74,0.64 -4.74,2.39 z"
           inkscape:connector-curvature="0"
           style="fill:#000000;stroke-width:0" /><path
           id="path4364"
           d="m 689.85,366.87 0.01,-0.01 0,0 0.01,0 0.01,-0.01 0,0 0.01,-0.01 0.01,0 0.01,-0.01 0,-0.01 0.01,0 0.02,-0.02 0.02,-0.02 0.02,-0.02 0.02,-0.02 0.02,-0.02 0.03,-0.02 0.02,-0.03 0.03,-0.02 0.02,-0.02 0.05,-0.05 0.02,-0.03 0.03,-0.02 0.02,-0.03 0.03,-0.02 0.02,-0.02 0.02,-0.02 0.02,-0.02 0.02,-0.02 0.02,-0.02 0.01,-0.01 0,0 0.01,-0.01 0.01,-0.01 0.01,0 0,-0.01 0.01,0 0.01,-0.01 0,0 0.01,0 0,-0.01 0,0 0.01,0 0,0 1.11,0 c 0.14,0 0.54,0.05 0.54,0.5 0,0.2 -0.1,0.3 -0.2,0.45 -1.8,1.8 -4.48,4.53 -7.58,10.02 -5.37,9.56 -7.37,21.87 -7.37,33.83 0,22.12 6.28,35.12 15,43.93 0.15,0.16 0.15,0.3 0.15,0.41 0,0.5 -0.35,0.5 -0.95,0.5 -0.64,0 -0.75,0 -1.2,-0.41 -4.72,-4.07 -10.06,-11.01 -13.5,-21.51 -2.14,-6.58 -3.28,-14.61 -3.28,-22.88 0,-11.81 2.14,-25.15 9.97,-36.71 1.34,-1.94 3.18,-3.99 3.18,-4.04 0.5,-0.59 1.19,-1.4 1.6,-1.75 z"
           inkscape:connector-curvature="0"
           style="fill:#000000;stroke-width:0" /><path
           id="path4366"
           d="m 717.06,446.08 -0.42,0.21 -0.41,0.2 -0.41,0.18 -0.4,0.17 -0.41,0.15 -0.4,0.14 -0.41,0.12 -0.41,0.12 -0.41,0.1 -0.42,0.08 -0.43,0.07 -0.43,0.06 -0.44,0.05 -0.46,0.03 -0.46,0.02 -0.48,0.01 c -5.26,0 -8.36,-3.55 -8.36,-6.9 0,-1.43 0.45,-3.1 2.16,-4.7 1.53,-1.44 3.14,-1.78 5.29,-2.3 2.93,-0.7 3.72,-0.87 4.74,-1.92 0.66,-0.65 1.22,-1.64 1.22,-2.83 0,-2.15 -1.96,-4.39 -5.33,-4.39 -1.98,0 -5.19,0.6 -7.95,2.94 l -0.55,-3.14 c 1.74,-1.01 4.62,-2.41 8.53,-2.41 4.84,0 8.3,3.52 8.3,7.43 0,2.82 -1.64,4.42 -2.33,5.15 -1.47,1.44 -3.08,1.82 -5.75,2.44 -2.13,0.5 -3.25,0.77 -4.08,1.58 -0.45,0.45 -1.26,1.25 -1.26,2.58 0,1.95 1.95,3.97 5.34,3.97 2.64,0 4.49,-0.85 6.27,-2.33 z"
           inkscape:connector-curvature="0"
           style="fill:#000000;stroke-width:0" /><polygon
           id="polygon4368"
           points="726.88,422.88 726.88,444.3 726.93,444.3 738.35,422.88 743.09,422.88 743.09,447.07 740.16,447.07 740.16,425.63 740.13,425.63 728.7,447.07 723.96,447.07 723.96,422.88 "
           style="fill:#000000;stroke-width:0" /><path
           id="path4370"
           d="m 762.27,434.18 0.46,0.14 0.43,0.15 0.42,0.15 0.39,0.17 0.38,0.17 0.35,0.18 0.33,0.19 0.32,0.19 0.3,0.2 0.28,0.2 0.26,0.2 0.25,0.21 0.23,0.22 0.21,0.21 0.2,0.22 0.18,0.22 0.17,0.22 0.15,0.22 0.14,0.22 0.13,0.23 0.11,0.22 0.11,0.22 0.09,0.22 0.07,0.21 0.07,0.21 0.06,0.21 0.05,0.21 0.03,0.2 0.03,0.2 0.02,0.19 0.01,0.19 0.01,0.18 c 0,3.63 -4.25,6.52 -9.3,6.52 L 758.76,445 c 4.01,0 6.59,-1.87 6.59,-4.45 0,-2.44 -2.4,-4.44 -6.59,-4.44 l -5.3,0 0,8.89 5.3,0 0.45,2.07 -9.16,0 0,-24.19 3.41,0 0,10.94 5.75,0 6.8,-10.94 3.51,0 z"
           inkscape:connector-curvature="0"
           style="fill:#000000;stroke-width:0" /><path
           id="path4372"
           d="m 783.01,449.02 -0.61,-0.45 -0.58,-0.46 -0.55,-0.47 -0.52,-0.49 -0.5,-0.5 -0.48,-0.51 -0.44,-0.53 -0.43,-0.53 -0.39,-0.54 -0.38,-0.55 -0.35,-0.56 -0.33,-0.56 -0.31,-0.57 -0.29,-0.57 -0.27,-0.58 -0.24,-0.58 -0.23,-0.58 -0.21,-0.58 -0.19,-0.59 -0.17,-0.58 -0.16,-0.58 -0.14,-0.58 -0.12,-0.57 -0.11,-0.57 -0.09,-0.57 -0.08,-0.56 -0.07,-0.55 -0.05,-0.55 -0.04,-0.53 -0.03,-0.53 -0.01,-0.52 -0.01,-0.5 c 0,-4.92 1.47,-12.55 8.38,-17.42 0.28,0 0.69,0 0.69,0.4 0,0.22 -0.1,0.28 -0.35,0.53 -4.64,4.19 -6.34,10.11 -6.34,16.46 0,9.4 3.59,14 6.45,16.58 0.14,0.14 0.24,0.25 0.24,0.42 0,0.42 -0.41,0.42 -0.69,0.42 z"
           inkscape:connector-curvature="0"
           style="fill:#000000;stroke-width:0" /><path
           id="path4374"
           d="m 794.81,436.64 3.54,0 c 0.66,0 1.12,0 1.12,0.77 0,0.48 -0.46,0.48 -1.04,0.48 l -3.31,0 1.28,5.16 c 0.03,0.17 0.11,0.34 0.11,0.49 0,0.64 -0.48,1.12 -1.19,1.12 -0.87,0 -1.39,-0.59 -1.64,-1.5 -0.23,-0.87 0.22,0.8 -1.33,-5.27 l -3.54,0 c -0.66,0 -1.11,0 -1.11,-0.76 0,-0.49 0.4,-0.49 1.05,-0.49 l 3.29,0 -2.04,-8.21 c -0.22,-0.88 -0.53,-2.13 -0.53,-2.58 0,-2.06 1.75,-3.31 3.73,-3.31 3.87,0 6.06,4.87 6.06,5.32 0,0.46 -0.45,0.46 -0.56,0.46 -0.41,0 -0.45,-0.08 -0.72,-0.66 -0.98,-2.2 -2.76,-4.16 -4.67,-4.16 -0.74,0 -1.22,0.46 -1.22,1.71 0,0.36 0.14,1.09 0.2,1.43 z"
           inkscape:connector-curvature="0"
           style="fill:#000000;stroke-width:0" /><path
           id="path4376"
           d="m 804.37,449.02 -0.02,0 -0.03,0 -0.02,0 -0.03,0 -0.03,0 -0.02,0 -0.03,0 -0.03,-0.01 -0.03,0 -0.03,0 -0.02,-0.01 -0.03,0 -0.03,-0.01 -0.03,-0.01 -0.02,0 -0.03,-0.01 -0.02,-0.01 -0.03,-0.02 -0.02,-0.01 -0.02,-0.01 -0.03,-0.02 -0.02,-0.02 -0.01,-0.02 -0.01,-0.01 -0.01,-0.01 -0.01,-0.01 -0.01,-0.01 0,-0.01 -0.01,-0.02 -0.01,-0.01 0,-0.01 -0.01,-0.02 0,-0.01 -0.01,-0.02 0,-0.01 0,-0.02 -0.01,-0.02 0,-0.02 0,-0.01 0,-0.02 0,-0.02 c 0,-0.17 0.11,-0.28 0.31,-0.53 3,-2.75 6.34,-7.46 6.34,-16.44 0,-7.28 -2.26,-12.8 -6.03,-16.2 -0.57,-0.6 -0.62,-0.63 -0.62,-0.82 0,-0.17 0.11,-0.4 0.45,-0.4 0.42,0 3.74,2.29 6.03,6.65 1.54,2.89 2.55,6.66 2.55,10.74 0,4.9 -1.47,12.53 -8.36,17.42 z"
           inkscape:connector-curvature="0"
           style="fill:#000000;stroke-width:0" /><path
           id="path4378"
           d="m 832.97,430.75 10.66,0 c 0.45,0 1.28,0 1.28,0.85 0,0.86 -0.8,0.86 -1.28,0.86 l -10.66,0 0,10.7 c 0,0.45 0,1.28 -0.84,1.28 -0.88,0 -0.88,-0.8 -0.88,-1.28 l 0,-10.7 -10.69,0 c -0.45,0 -1.29,0 -1.29,-0.83 0,-0.88 0.79,-0.88 1.29,-0.88 l 10.69,0 0,-10.7 c 0,-0.45 0,-1.28 0.84,-1.28 0.88,0 0.88,0.8 0.88,1.28 z"
           inkscape:connector-curvature="0"
           style="fill:#000000;stroke-width:0" /><path
           id="path4380"
           d="m 863.03,427.72 0,1.02 0,12.08 c 3.18,-0.24 6.72,-1.63 6.72,-6.02 0,-4.61 -3.79,-5.86 -6.72,-6.06 l 0,-1.02 c 5.72,0.42 10.32,3.42 10.32,7.03 0,3.77 -4.77,6.71 -10.32,7.08 l 0,1.99 c 0,1.15 0,1.61 3.29,1.61 l 1.21,0 0,1.25 c -0.76,-0.04 -4.75,-0.14 -6.03,-0.14 -2.06,0 -5.68,0.1 -6.03,0.14 l 0,-1.25 1.22,0 c 3.28,0 3.28,-0.46 3.28,-1.61 l 0,-2.02 c -6.09,-0.48 -10.11,-3.66 -10.11,-7 0,-3.48 4.19,-6.56 10.11,-7.05 l 0,0.99 c -2.89,0.26 -6.51,1.56 -6.51,6.01 0,4.61 3.76,5.8 6.51,6.07 l 0,-12.08 0,-0.99 0,-2.01 c 0,-1.16 0,-1.61 -3.28,-1.61 l -1.22,0 0,-1.25 c 0.77,0.03 4.74,0.14 6.03,0.14 2.07,0 5.68,-0.11 6.03,-0.14 l 0,1.25 -1.21,0 c -3.29,0 -3.29,0.45 -3.29,1.61 z"
           inkscape:connector-curvature="0"
           style="fill:#000000;stroke-width:0" /><path
           id="path4382"
           d="m 897.8,443.41 0.04,0 0.04,0 0.04,0 0.04,0 0.04,0 0.05,0 0.04,0.01 0.04,0 0.05,0.01 0.04,0 0.05,0.01 0.04,0.01 0.05,0.01 0.04,0.01 0.04,0.01 0.05,0.02 0.04,0.02 0.04,0.02 0.03,0.02 0.04,0.02 0.04,0.03 0.03,0.03 0.03,0.03 0.01,0.02 0.02,0.02 0.01,0.02 0.01,0.02 0.01,0.02 0.01,0.02 0.01,0.02 0.01,0.02 0.01,0.03 0.01,0.02 0.01,0.03 0,0.02 0.01,0.03 0,0.03 0,0.03 0.01,0.03 0,0.03 0,0.03 c 0,0.69 -0.69,0.69 -1.08,0.69 l -16.86,0 c -0.41,0 -1.08,0 -1.08,-0.69 0,-0.7 0.67,-0.7 1.08,-0.7 z"
           inkscape:connector-curvature="0"
           style="fill:#000000;stroke-width:0" /><path
           id="path4384"
           d="m 912.8,453.72 0,0.04 0,0.03 0,0.03 0,0.04 0,0.03 -0.01,0.02 0,0.03 0,0.03 0,0.03 0,0.02 0,0.03 -0.01,0.02 0,0.02 0,0.03 0,0.02 -0.01,0.02 0,0.02 -0.01,0.01 -0.01,0.04 -0.01,0.03 -0.01,0.03 -0.02,0.03 -0.01,0.02 -0.02,0.02 -0.03,0.02 -0.02,0.02 -0.03,0.01 -0.03,0.01 -0.03,0.01 -0.03,0.01 -0.04,0.01 -0.04,0.01 -0.03,0 -0.02,0 -0.02,0 -0.03,0.01 -0.02,0 -0.03,0 -0.03,0 -0.02,0 -0.03,0 -0.03,0 -0.03,0 -0.04,0 -0.03,0 -0.03,0 -0.04,0 -0.03,0 -0.04,0 -0.04,0 c -1.76,-1.59 -4.53,-1.59 -5.03,-1.59 l -0.42,0 0,-1.09 0.42,0 c 0.58,0 2.19,0.06 3.64,0.68 l 0,-12.45 c 0,-0.77 0,-1.05 -2.64,-1.05 l -1.25,0 0,-1.09 c 1.37,0.09 3.59,0.09 5.03,0.09 1.45,0 3.67,0 5.03,-0.09 l 0,1.09 -1.23,0 c -2.64,0 -2.64,0.28 -2.64,1.05 z"
           inkscape:connector-curvature="0"
           style="fill:#000000;stroke-width:0" /><path
           id="path4386"
           d="m 934.57,449.02 -0.6,-0.45 -0.58,-0.46 -0.55,-0.47 -0.53,-0.49 -0.5,-0.5 -0.47,-0.51 -0.45,-0.53 -0.42,-0.53 -0.4,-0.54 -0.37,-0.55 -0.36,-0.56 -0.33,-0.56 -0.31,-0.57 -0.28,-0.57 -0.27,-0.58 -0.25,-0.58 -0.23,-0.58 -0.2,-0.58 -0.2,-0.59 -0.17,-0.58 -0.15,-0.58 -0.14,-0.58 -0.13,-0.57 -0.1,-0.57 -0.1,-0.57 -0.08,-0.56 -0.06,-0.55 -0.05,-0.55 -0.04,-0.53 -0.03,-0.53 -0.02,-0.52 0,-0.5 c 0,-4.92 1.47,-12.55 8.37,-17.42 0.28,0 0.69,0 0.69,0.4 0,0.22 -0.09,0.28 -0.34,0.53 -4.64,4.19 -6.35,10.11 -6.35,16.46 0,9.4 3.6,14 6.46,16.58 0.14,0.14 0.23,0.25 0.23,0.42 0,0.42 -0.41,0.42 -0.69,0.42 z"
           inkscape:connector-curvature="0"
           style="fill:#000000;stroke-width:0" /><path
           id="path4388"
           d="m 955.84,433.79 0,2.29 -11.14,0 0,8.47 4.85,0 c 0.4,0 0.83,-0.03 1.25,-0.03 l 6.62,0 0,2.44 -16.25,0 0,-24.08 3.53,0 0,10.91 z"
           inkscape:connector-curvature="0"
           style="fill:#000000;stroke-width:0" /><path
           id="path4390"
           d="m 972.1,432.82 0.42,0.01 0.42,0.02 0.41,0.05 0.41,0.06 0.4,0.08 0.39,0.09 0.39,0.12 0.38,0.12 0.38,0.14 0.36,0.16 0.36,0.17 0.35,0.19 0.33,0.19 0.32,0.22 0.32,0.22 0.3,0.24 0.28,0.24 0.27,0.26 0.26,0.27 0.25,0.28 0.22,0.3 0.21,0.3 0.2,0.31 0.17,0.31 0.16,0.33 0.14,0.34 0.12,0.34 0.1,0.35 0.08,0.35 0.05,0.37 0.04,0.36 0.01,0.38 c 0,3.73 -3.69,7.08 -8.74,7.08 l -9.4,0 0,-24.19 3.51,0 0,9.94 -0.11,2.15 0,10.03 5.13,0 c 3.94,0 6.44,-2.09 6.44,-5.01 0,-2.86 -2.36,-5.02 -6.44,-5.02 l -5.13,0 0.11,-2.15 z"
           inkscape:connector-curvature="0"
           style="fill:#000000;stroke-width:0" /><path
           id="path4392"
           d="m 998.31,434.18 0.46,0.14 0.43,0.15 0.42,0.15 0.38,0.17 0.4,0.17 0.3,0.18 0.4,0.19 0.3,0.19 0.3,0.2 0.3,0.2 0.2,0.2 0.3,0.21 0.2,0.22 0.2,0.21 0.2,0.22 0.2,0.22 0.2,0.22 0.1,0.22 0.2,0.22 0.1,0.23 0.1,0.22 0.1,0.22 0.1,0.22 0.1,0.21 0,0.21 0.1,0.21 0,0.21 0.1,0.2 0,0.2 0,0.19 0,0.19 0,0.18 c 0,3.63 -4.2,6.52 -9.25,6.52 L 994.8,445 c 4.01,0 6.6,-1.87 6.6,-4.45 0,-2.44 -2.42,-4.44 -6.6,-4.44 l -5.3,0 0,8.89 5.3,0 0.45,2.07 -9.16,0 0,-24.19 3.41,0 0,10.94 5.75,0 6.75,-10.94 3.6,0 z"
           inkscape:connector-curvature="0"
           style="fill:#000000;stroke-width:0" /><path
           id="path4394"
           d="m 1009.7,449.02 0,0 -0.1,0 0,0 0,0 0,0 -0.1,0 0,0 0,-0.01 0,0 -0.1,0 0,-0.01 0,0 -0.1,-0.01 0,-0.01 0,0 0,-0.01 -0.1,-0.01 0,-0.02 0,-0.01 0,-0.01 -0.1,-0.02 0,-0.02 0,-0.02 0,-0.01 0,-0.01 0,-0.01 0,-0.01 0,-0.01 0,-0.02 0,-0.01 -0.1,-0.01 0,-0.02 0,-0.01 0,-0.02 0,-0.01 0,-0.02 0,-0.02 0,-0.02 0,-0.01 0,-0.02 0,-0.02 c 0,-0.17 0.1,-0.28 0.3,-0.53 3,-2.75 6.4,-7.46 6.4,-16.44 0,-7.28 -2.3,-12.8 -6.1,-16.2 -0.5,-0.6 -0.6,-0.63 -0.6,-0.82 0,-0.17 0.1,-0.4 0.5,-0.4 0.4,0 3.7,2.29 6,6.65 1.5,2.89 2.5,6.66 2.5,10.74 0,4.9 -1.4,12.53 -8.3,17.42 z"
           inkscape:connector-curvature="0"
           style="fill:#000000;stroke-width:0" /><polyline
           id="polyline4396"
           points="700,410 1022.3,410 1022.3,412.04 700,412.04 "
           style="fill:#000000;fill-rule:nonzero;stroke-width:0" /><polygon
           id="polygon4398"
           points="806.21,381.48 806.21,402.9 806.25,402.9 817.68,381.48 822.41,381.48 822.41,405.67 819.49,405.67 819.49,384.23 819.46,384.23 808.02,405.67 803.28,405.67 803.28,381.48 "
           style="fill:#000000;stroke-width:0" /><polygon
           id="polygon4400"
           points="832.36,381.48 832.36,402.9 832.41,402.9 843.83,381.48 848.57,381.48 848.57,405.67 845.65,405.67 845.65,384.23 845.61,384.23 834.18,405.67 829.44,405.67 829.44,381.48 "
           style="fill:#000000;stroke-width:0" /><path
           id="path4402"
           d="m 867.75,392.78 0.46,0.14 0.44,0.15 0.41,0.16 0.39,0.16 0.38,0.17 0.35,0.18 0.33,0.19 0.32,0.19 0.3,0.2 0.28,0.2 0.26,0.2 0.25,0.21 0.23,0.22 0.21,0.21 0.2,0.22 0.18,0.22 0.17,0.22 0.15,0.22 0.14,0.23 0.13,0.22 0.11,0.22 0.11,0.22 0.09,0.22 0.07,0.21 0.07,0.22 0.06,0.21 0.05,0.2 0.03,0.21 0.03,0.19 0.02,0.19 0.01,0.19 0.01,0.18 c 0,3.63 -4.25,6.52 -9.3,6.52 l -0.45,-2.06 c 4.01,0 6.59,-1.88 6.59,-4.46 0,-2.44 -2.4,-4.44 -6.59,-4.44 l -5.3,0 0,8.9 5.3,0 0.45,2.06 -9.16,0 0,-24.19 3.41,0 0,10.94 5.75,0 6.8,-10.94 3.51,0 z"
           inkscape:connector-curvature="0"
           style="fill:#000000;stroke-width:0" /><path
           id="path4404"
           d="m 888.49,407.62 -0.61,-0.44 -0.58,-0.47 -0.55,-0.47 -0.52,-0.49 -0.5,-0.5 -0.48,-0.51 -0.44,-0.53 -0.43,-0.53 -0.39,-0.54 -0.38,-0.55 -0.35,-0.56 -0.33,-0.56 -0.31,-0.57 -0.29,-0.57 -0.27,-0.58 -0.24,-0.58 -0.23,-0.58 -0.21,-0.58 -0.19,-0.59 -0.17,-0.58 -0.16,-0.58 -0.14,-0.58 -0.12,-0.57 -0.11,-0.57 -0.09,-0.57 -0.08,-0.56 -0.07,-0.55 -0.05,-0.54 -0.04,-0.54 -0.03,-0.53 -0.01,-0.51 -0.01,-0.51 c 0,-4.92 1.47,-12.55 8.38,-17.42 0.28,0 0.69,0 0.69,0.4 0,0.22 -0.1,0.29 -0.35,0.54 -4.64,4.18 -6.34,10.11 -6.34,16.45 0,9.41 3.59,14 6.45,16.58 0.14,0.14 0.24,0.25 0.24,0.42 0,0.42 -0.41,0.42 -0.69,0.42 z"
           inkscape:connector-curvature="0"
           style="fill:#000000;stroke-width:0" /><path
           id="path4406"
           d="m 900.29,395.25 3.55,0 c 0.65,0 1.11,0 1.11,0.76 0,0.49 -0.46,0.49 -1.04,0.49 l -3.31,0 1.28,5.15 c 0.03,0.17 0.11,0.35 0.11,0.49 0,0.64 -0.48,1.12 -1.19,1.12 -0.87,0 -1.39,-0.59 -1.64,-1.5 -0.23,-0.87 0.22,0.8 -1.32,-5.26 l -3.55,0 c -0.66,0 -1.11,0 -1.11,-0.77 0,-0.48 0.41,-0.48 1.05,-0.48 l 3.29,0 -2.04,-8.22 c -0.22,-0.88 -0.53,-2.13 -0.53,-2.58 0,-2.06 1.75,-3.31 3.73,-3.31 3.87,0 6.06,4.87 6.06,5.32 0,0.46 -0.45,0.46 -0.56,0.46 -0.41,0 -0.45,-0.08 -0.72,-0.66 -0.98,-2.2 -2.76,-4.15 -4.67,-4.15 -0.74,0 -1.22,0.45 -1.22,1.7 0,0.36 0.14,1.09 0.2,1.44 z"
           inkscape:connector-curvature="0"
           style="fill:#000000;stroke-width:0" /><path
           id="path4408"
           d="m 909.85,407.62 -0.02,0 -0.03,0 -0.02,0 -0.03,0 -0.03,0 -0.02,0 -0.03,0 -0.03,-0.01 -0.03,0 -0.02,0 -0.03,-0.01 -0.03,0 -0.03,-0.01 -0.03,0 -0.02,-0.01 -0.03,-0.01 -0.02,-0.01 -0.03,-0.01 -0.02,-0.02 -0.02,-0.01 -0.02,-0.02 -0.02,-0.02 -0.02,-0.02 -0.01,-0.01 -0.01,-0.01 -0.01,-0.01 -0.01,-0.01 0,-0.01 -0.01,-0.02 -0.01,-0.01 0,-0.01 -0.01,-0.02 0,-0.01 -0.01,-0.02 0,-0.01 0,-0.02 -0.01,-0.02 0,-0.01 0,-0.02 0,-0.02 0,-0.02 c 0,-0.17 0.11,-0.28 0.31,-0.53 3,-2.75 6.35,-7.46 6.35,-16.44 0,-7.28 -2.27,-12.8 -6.04,-16.2 -0.57,-0.6 -0.62,-0.63 -0.62,-0.82 0,-0.17 0.11,-0.4 0.45,-0.4 0.42,0 3.74,2.3 6.03,6.65 1.54,2.9 2.55,6.66 2.55,10.74 0,4.91 -1.47,12.53 -8.36,17.42 z"
           inkscape:connector-curvature="0"
           style="fill:#000000;stroke-width:0" /><path
           id="path4410"
           d="m 1048.9,411.16 -0.1,2.69 -0.1,2.71 -0.2,2.71 -0.3,2.71 -0.4,2.7 -0.5,2.69 -0.6,2.67 -0.7,2.64 -0.8,2.6 -0.5,1.28 -0.5,1.27 -0.5,1.27 -0.6,1.24 -0.6,1.23 -0.6,1.22 -0.6,1.2 -0.7,1.19 -0.7,1.16 -0.8,1.15 -0.8,1.12 -0.8,1.11 -0.9,1.09 -0.9,1.06 c -0.7,0.79 -2.5,2.73 -3.7,3.78 -0.4,0.31 -0.4,0.31 -1.1,0.31 -0.5,0 -0.9,0 -0.9,-0.5 0,-0.2 0.2,-0.41 0.3,-0.5 1.6,-1.75 4.3,-4.48 7.4,-9.97 5.4,-9.56 7.4,-21.87 7.4,-33.83 0,-21.62 -6,-34.82 -14.9,-43.93 -0.1,-0.11 -0.2,-0.25 -0.2,-0.41 0,-0.5 0.4,-0.5 0.9,-0.5 0.7,0 0.7,0 1.2,0.41 4.7,4.07 10.1,11 13.5,21.51 2.2,6.83 3.3,14.91 3.3,22.92 z"
           inkscape:connector-curvature="0"
           style="fill:#000000;stroke-width:0" /></g>    </g>
  </g>
</svg>
