<?xml version="1.0" encoding="UTF-8" standalone="no"?>
<svg
   xmlns:dc="http://purl.org/dc/elements/1.1/"
   xmlns:cc="http://creativecommons.org/ns#"
   xmlns:rdf="http://www.w3.org/1999/02/22-rdf-syntax-ns#"
   xmlns:svg="http://www.w3.org/2000/svg"
   xmlns="http://www.w3.org/2000/svg"
   xmlns:sodipodi="http://sodipodi.sourceforge.net/DTD/sodipodi-0.dtd"
   xmlns:inkscape="http://www.inkscape.org/namespaces/inkscape"
   style="fill-opacity:1; color-rendering:auto; color-interpolation:auto; stroke:black; text-rendering:auto; stroke-linecap:square; stroke-miterlimit:10; stroke-opacity:1; shape-rendering:auto; fill:black; stroke-dasharray:none; font-weight:normal; stroke-width:1; font-family:'Dialog'; font-style:normal; stroke-linejoin:miter; font-size:12px; stroke-dashoffset:0; image-rendering:auto;"
   width="560"
   height="420"
   id="svg2"
   version="1.1"
   inkscape:version="0.91 r13725"
   sodipodi:docname="RunAveModels3.svg">
  <metadata
     id="metadata521">
    <rdf:RDF>
      <cc:Work
         rdf:about="">
        <dc:format>image/svg+xml</dc:format>
        <dc:type
           rdf:resource="http://purl.org/dc/dcmitype/StillImage" />
        <dc:title />
      </cc:Work>
    </rdf:RDF>
  </metadata>
  <sodipodi:namedview
     pagecolor="#ffffff"
     bordercolor="#666666"
     borderopacity="1"
     objecttolerance="10"
     gridtolerance="10"
     guidetolerance="10"
     inkscape:pageopacity="0"
     inkscape:pageshadow="2"
     inkscape:window-width="1536"
     inkscape:window-height="811"
     id="namedview519"
     showgrid="false"
     inkscape:zoom="1.0808632"
     inkscape:cx="143.535"
     inkscape:cy="210"
     inkscape:window-x="-8"
     inkscape:window-y="-8"
     inkscape:window-maximized="1"
     inkscape:current-layer="svg2" />
  <!--Generated by the Batik Graphics2D SVG Generator-->
  <defs
     id="genericDefs">
    <defs
       id="defs1">
      <clipPath
         id="clipPath1"
         clipPathUnits="userSpaceOnUse">
        <path
           id="path9"
           d="M0 0 L560 0 L560 420 L0 420 L0 0 Z" />
      </clipPath>
    </defs>
  </defs>
  <rect
     x="0"
     y="0"
     width="560"
     style="fill:#ffffff;stroke:none"
     height="420"
     id="rect13"
     clip-path="url(#clipPath1)" />
  <rect
     x="0"
     y="0"
     width="560"
     style="color-interpolation:sRGB;fill:#ffffff;stroke:none;color-rendering:optimizeSpeed;image-rendering:optimizeSpeed;shape-rendering:crispEdges;text-rendering:optimizeSpeed"
     height="420"
     id="rect17"
     clip-path="url(#clipPath1)" />
  <path
     style="color-interpolation:sRGB;fill:#ffffff;stroke:none;color-rendering:optimizeSpeed;image-rendering:optimizeSpeed;shape-rendering:crispEdges;text-rendering:optimizeSpeed"
     d="m 73,369 434,0 0,-329 -434,0 z"
     id="path19"
     inkscape:connector-curvature="0" />
  <line
     y2="366.82999"
     style="color-interpolation:linearRGB;fill:none;stroke:#262626;color-rendering:optimizeQuality;image-rendering:optimizeQuality;text-rendering:geometricPrecision"
     x1="99.129402"
     x2="99.129402"
     y1="369"
     id="line23" />
  <line
     y2="366.82999"
     style="color-interpolation:linearRGB;fill:none;stroke:#262626;color-rendering:optimizeQuality;image-rendering:optimizeQuality;text-rendering:geometricPrecision"
     x1="114.4141"
     x2="114.4141"
     y1="369"
     id="line27" />
  <line
     y2="366.82999"
     style="color-interpolation:linearRGB;fill:none;stroke:#262626;color-rendering:optimizeQuality;image-rendering:optimizeQuality;text-rendering:geometricPrecision"
     x1="125.2588"
     x2="125.2588"
     y1="369"
     id="line31" />
  <line
     y2="366.82999"
     style="color-interpolation:linearRGB;fill:none;stroke:#262626;color-rendering:optimizeQuality;image-rendering:optimizeQuality;text-rendering:geometricPrecision"
     x1="133.67059"
     x2="133.67059"
     y1="369"
     id="line35" />
  <line
     y2="366.82999"
     style="color-interpolation:linearRGB;fill:none;stroke:#262626;color-rendering:optimizeQuality;image-rendering:optimizeQuality;text-rendering:geometricPrecision"
     x1="140.5435"
     x2="140.5435"
     y1="369"
     id="line39" />
  <line
     y2="366.82999"
     style="color-interpolation:linearRGB;fill:none;stroke:#262626;color-rendering:optimizeQuality;image-rendering:optimizeQuality;text-rendering:geometricPrecision"
     x1="146.35451"
     x2="146.35451"
     y1="369"
     id="line43" />
  <line
     y2="366.82999"
     style="color-interpolation:linearRGB;fill:none;stroke:#262626;color-rendering:optimizeQuality;image-rendering:optimizeQuality;text-rendering:geometricPrecision"
     x1="151.3882"
     x2="151.3882"
     y1="369"
     id="line47" />
  <line
     y2="366.82999"
     style="color-interpolation:linearRGB;fill:none;stroke:#262626;color-rendering:optimizeQuality;image-rendering:optimizeQuality;text-rendering:geometricPrecision"
     x1="155.8282"
     x2="155.8282"
     y1="369"
     id="line51" />
  <line
     y2="366.82999"
     style="color-interpolation:linearRGB;fill:none;stroke:#262626;color-rendering:optimizeQuality;image-rendering:optimizeQuality;text-rendering:geometricPrecision"
     x1="185.9294"
     x2="185.9294"
     y1="369"
     id="line55" />
  <line
     y2="366.82999"
     style="color-interpolation:linearRGB;fill:none;stroke:#262626;color-rendering:optimizeQuality;image-rendering:optimizeQuality;text-rendering:geometricPrecision"
     x1="201.2141"
     x2="201.2141"
     y1="369"
     id="line59" />
  <line
     y2="366.82999"
     style="color-interpolation:linearRGB;fill:none;stroke:#262626;color-rendering:optimizeQuality;image-rendering:optimizeQuality;text-rendering:geometricPrecision"
     x1="212.05881"
     x2="212.05881"
     y1="369"
     id="line63" />
  <line
     y2="366.82999"
     style="color-interpolation:linearRGB;fill:none;stroke:#262626;color-rendering:optimizeQuality;image-rendering:optimizeQuality;text-rendering:geometricPrecision"
     x1="220.4706"
     x2="220.4706"
     y1="369"
     id="line67" />
  <line
     y2="366.82999"
     style="color-interpolation:linearRGB;fill:none;stroke:#262626;color-rendering:optimizeQuality;image-rendering:optimizeQuality;text-rendering:geometricPrecision"
     x1="227.34351"
     x2="227.34351"
     y1="369"
     id="line71" />
  <line
     y2="366.82999"
     style="color-interpolation:linearRGB;fill:none;stroke:#262626;color-rendering:optimizeQuality;image-rendering:optimizeQuality;text-rendering:geometricPrecision"
     x1="233.1545"
     x2="233.1545"
     y1="369"
     id="line75" />
  <line
     y2="366.82999"
     style="color-interpolation:linearRGB;fill:none;stroke:#262626;color-rendering:optimizeQuality;image-rendering:optimizeQuality;text-rendering:geometricPrecision"
     x1="238.1882"
     x2="238.1882"
     y1="369"
     id="line79" />
  <line
     y2="366.82999"
     style="color-interpolation:linearRGB;fill:none;stroke:#262626;color-rendering:optimizeQuality;image-rendering:optimizeQuality;text-rendering:geometricPrecision"
     x1="242.6283"
     x2="242.6283"
     y1="369"
     id="line83" />
  <line
     y2="366.82999"
     style="color-interpolation:linearRGB;fill:none;stroke:#262626;color-rendering:optimizeQuality;image-rendering:optimizeQuality;text-rendering:geometricPrecision"
     x1="272.7294"
     x2="272.7294"
     y1="369"
     id="line87" />
  <line
     y2="366.82999"
     style="color-interpolation:linearRGB;fill:none;stroke:#262626;color-rendering:optimizeQuality;image-rendering:optimizeQuality;text-rendering:geometricPrecision"
     x1="288.0141"
     x2="288.0141"
     y1="369"
     id="line91" />
  <line
     y2="366.82999"
     style="color-interpolation:linearRGB;fill:none;stroke:#262626;color-rendering:optimizeQuality;image-rendering:optimizeQuality;text-rendering:geometricPrecision"
     x1="298.8588"
     x2="298.8588"
     y1="369"
     id="line95" />
  <line
     y2="366.82999"
     style="color-interpolation:linearRGB;fill:none;stroke:#262626;color-rendering:optimizeQuality;image-rendering:optimizeQuality;text-rendering:geometricPrecision"
     x1="307.2706"
     x2="307.2706"
     y1="369"
     id="line99" />
  <line
     y2="366.82999"
     style="color-interpolation:linearRGB;fill:none;stroke:#262626;color-rendering:optimizeQuality;image-rendering:optimizeQuality;text-rendering:geometricPrecision"
     x1="314.14349"
     x2="314.14349"
     y1="369"
     id="line103" />
  <line
     y2="366.82999"
     style="color-interpolation:linearRGB;fill:none;stroke:#262626;color-rendering:optimizeQuality;image-rendering:optimizeQuality;text-rendering:geometricPrecision"
     x1="319.9545"
     x2="319.9545"
     y1="369"
     id="line107" />
  <line
     y2="366.82999"
     style="color-interpolation:linearRGB;fill:none;stroke:#262626;color-rendering:optimizeQuality;image-rendering:optimizeQuality;text-rendering:geometricPrecision"
     x1="324.98819"
     x2="324.98819"
     y1="369"
     id="line111" />
  <line
     y2="366.82999"
     style="color-interpolation:linearRGB;fill:none;stroke:#262626;color-rendering:optimizeQuality;image-rendering:optimizeQuality;text-rendering:geometricPrecision"
     x1="329.42831"
     x2="329.42831"
     y1="369"
     id="line115" />
  <line
     y2="366.82999"
     style="color-interpolation:linearRGB;fill:none;stroke:#262626;color-rendering:optimizeQuality;image-rendering:optimizeQuality;text-rendering:geometricPrecision"
     x1="359.52939"
     x2="359.52939"
     y1="369"
     id="line119" />
  <line
     y2="366.82999"
     style="color-interpolation:linearRGB;fill:none;stroke:#262626;color-rendering:optimizeQuality;image-rendering:optimizeQuality;text-rendering:geometricPrecision"
     x1="374.81409"
     x2="374.81409"
     y1="369"
     id="line123" />
  <line
     y2="366.82999"
     style="color-interpolation:linearRGB;fill:none;stroke:#262626;color-rendering:optimizeQuality;image-rendering:optimizeQuality;text-rendering:geometricPrecision"
     x1="385.65881"
     x2="385.65881"
     y1="369"
     id="line127" />
  <line
     y2="366.82999"
     style="color-interpolation:linearRGB;fill:none;stroke:#262626;color-rendering:optimizeQuality;image-rendering:optimizeQuality;text-rendering:geometricPrecision"
     x1="394.07059"
     x2="394.07059"
     y1="369"
     id="line131" />
  <line
     y2="366.82999"
     style="color-interpolation:linearRGB;fill:none;stroke:#262626;color-rendering:optimizeQuality;image-rendering:optimizeQuality;text-rendering:geometricPrecision"
     x1="400.94351"
     x2="400.94351"
     y1="369"
     id="line135" />
  <line
     y2="366.82999"
     style="color-interpolation:linearRGB;fill:none;stroke:#262626;color-rendering:optimizeQuality;image-rendering:optimizeQuality;text-rendering:geometricPrecision"
     x1="406.75449"
     x2="406.75449"
     y1="369"
     id="line139" />
  <line
     y2="366.82999"
     style="color-interpolation:linearRGB;fill:none;stroke:#262626;color-rendering:optimizeQuality;image-rendering:optimizeQuality;text-rendering:geometricPrecision"
     x1="411.78821"
     x2="411.78821"
     y1="369"
     id="line143" />
  <line
     y2="366.82999"
     style="color-interpolation:linearRGB;fill:none;stroke:#262626;color-rendering:optimizeQuality;image-rendering:optimizeQuality;text-rendering:geometricPrecision"
     x1="416.22821"
     x2="416.22821"
     y1="369"
     id="line147" />
  <line
     y2="366.82999"
     style="color-interpolation:linearRGB;fill:none;stroke:#262626;color-rendering:optimizeQuality;image-rendering:optimizeQuality;text-rendering:geometricPrecision"
     x1="446.32941"
     x2="446.32941"
     y1="369"
     id="line151" />
  <line
     y2="366.82999"
     style="color-interpolation:linearRGB;fill:none;stroke:#262626;color-rendering:optimizeQuality;image-rendering:optimizeQuality;text-rendering:geometricPrecision"
     x1="461.61411"
     x2="461.61411"
     y1="369"
     id="line155" />
  <line
     y2="366.82999"
     style="color-interpolation:linearRGB;fill:none;stroke:#262626;color-rendering:optimizeQuality;image-rendering:optimizeQuality;text-rendering:geometricPrecision"
     x1="472.4588"
     x2="472.4588"
     y1="369"
     id="line159" />
  <line
     y2="366.82999"
     style="color-interpolation:linearRGB;fill:none;stroke:#262626;color-rendering:optimizeQuality;image-rendering:optimizeQuality;text-rendering:geometricPrecision"
     x1="480.87061"
     x2="480.87061"
     y1="369"
     id="line163" />
  <line
     y2="366.82999"
     style="color-interpolation:linearRGB;fill:none;stroke:#262626;color-rendering:optimizeQuality;image-rendering:optimizeQuality;text-rendering:geometricPrecision"
     x1="487.7435"
     x2="487.7435"
     y1="369"
     id="line167" />
  <line
     y2="366.82999"
     style="color-interpolation:linearRGB;fill:none;stroke:#262626;color-rendering:optimizeQuality;image-rendering:optimizeQuality;text-rendering:geometricPrecision"
     x1="493.5545"
     x2="493.5545"
     y1="369"
     id="line171" />
  <line
     y2="366.82999"
     style="color-interpolation:linearRGB;fill:none;stroke:#262626;color-rendering:optimizeQuality;image-rendering:optimizeQuality;text-rendering:geometricPrecision"
     x1="498.5882"
     x2="498.5882"
     y1="369"
     id="line175" />
  <line
     y2="366.82999"
     style="color-interpolation:linearRGB;fill:none;stroke:#262626;color-rendering:optimizeQuality;image-rendering:optimizeQuality;text-rendering:geometricPrecision"
     x1="503.0282"
     x2="503.0282"
     y1="369"
     id="line179" />
  <path
     style="font-size:medium;font-family:SansSerif;color-interpolation:linearRGB;fill:#262626;stroke:none;color-rendering:optimizeQuality;image-rendering:optimizeQuality;text-rendering:geometricPrecision"
     d="m 203.5625,415 0,-15.0312 2.9844,0 3.5625,10.6406 q 0.5,1.4844 0.7187,2.2344 0.25,-0.8282 0.7969,-2.4219 l 3.6094,-10.4531 2.6718,0 0,15.0312 -1.9218,0 0,-12.5781 -4.3594,12.5781 -1.7969,0 -4.3593,-12.7969 0,12.7969 -1.9063,0 z m 24.7744,-3.5 1.9063,0.2344 q -0.4532,1.6718 -1.6719,2.5937 -1.2188,0.9219 -3.125,0.9219 -2.3906,0 -3.7891,-1.4766 -1.3984,-1.4765 -1.3984,-4.1328 0,-2.7344 1.4141,-4.2578 1.414,-1.5234 3.6796,-1.5234 2.1875,0 3.5704,1.4922 1.3828,1.4922 1.3828,4.1796 0,0.1719 -0.0157,0.5 l -8.125,0 q 0.1094,1.7969 1.0235,2.75 0.914,0.9532 2.2734,0.9532 1.0156,0 1.7344,-0.5391 0.7187,-0.5391 1.1406,-1.6953 z m -6.0625,-2.9844 6.0781,0 q -0.125,-1.375 -0.7031,-2.0625 -0.875,-1.0781 -2.2812,-1.0781 -1.2657,0 -2.1328,0.8516 -0.8672,0.8515 -0.961,2.289 z m 17.3823,5.1406 q -1.0156,0.875 -1.9687,1.2344 -0.9531,0.3594 -2.0313,0.3594 -1.7968,0 -2.7578,-0.875 -0.9609,-0.875 -0.9609,-2.25 0,-0.7969 0.3594,-1.4609 0.3593,-0.6641 0.9531,-1.0625 0.5937,-0.3985 1.3281,-0.6016 0.5469,-0.1406 1.6406,-0.2812 2.2344,-0.2657 3.2969,-0.625 0,-0.3907 0,-0.4844 0,-1.125 -0.5156,-1.5938 -0.7188,-0.625 -2.1094,-0.625 -1.2969,0 -1.9219,0.4532 -0.625,0.4531 -0.9218,1.625 l -1.7969,-0.25 q 0.25,-1.1563 0.8125,-1.8672 0.5625,-0.711 1.625,-1.1016 1.0625,-0.3906 2.4687,-0.3906 1.4063,0 2.2735,0.3281 0.8672,0.3281 1.2812,0.8281 0.4141,0.5 0.5703,1.2656 0.0938,0.4688 0.0938,1.6876 l 0,2.4687 q 0,2.5781 0.1172,3.2578 0.1172,0.6797 0.4609,1.3047 l -1.9219,0 q -0.2812,-0.5781 -0.375,-1.3438 z m -0.1406,-4.125 q -1.0156,0.4063 -3.0156,0.7032 -1.1406,0.1562 -1.6172,0.3672 -0.4766,0.2109 -0.7266,0.6015 -0.25,0.3907 -0.25,0.875 0,0.7344 0.5547,1.2266 0.5547,0.4922 1.6328,0.4922 1.0625,0 1.8985,-0.4688 0.8359,-0.4687 1.2265,-1.2656 0.2969,-0.625 0.2969,-1.8437 l 0,-0.6876 z m 4.7261,5.4688 0,-10.8906 1.6562,0 0,1.5468 q 1.2032,-1.7968 3.4688,-1.7968 0.9844,0 1.8047,0.3594 0.8203,0.3593 1.2343,0.9296 0.4141,0.5704 0.5704,1.3672 0.1093,0.5 0.1093,1.7813 l 0,6.7031 -1.8437,0 0,-6.625 q 0,-1.125 -0.2188,-1.6875 -0.2187,-0.5625 -0.7656,-0.8906 -0.5469,-0.3281 -1.2812,-0.3281 -1.1875,0 -2.0391,0.7421 -0.8516,0.7422 -0.8516,2.836 l 0,5.9531 -1.8437,0 z m 17.4824,0 0,-10.8906 1.6719,0 0,1.6562 q 0.625,-1.1562 1.164,-1.5312 0.5391,-0.375 1.1954,-0.375 0.9218,0 1.8906,0.5937 l -0.6406,1.7188 q -0.6719,-0.4063 -1.3438,-0.4063 -0.6094,0 -1.0937,0.3672 -0.4844,0.3672 -0.6875,1.0078 -0.3125,0.9844 -0.3125,2.1563 l 0,5.7031 -1.8438,0 z m 14.4775,-3.5 1.9063,0.2344 q -0.4531,1.6718 -1.6719,2.5937 -1.2187,0.9219 -3.125,0.9219 -2.3906,0 -3.789,-1.4766 -1.3985,-1.4765 -1.3985,-4.1328 0,-2.7344 1.4141,-4.2578 1.414,-1.5234 3.6797,-1.5234 2.1875,0 3.5703,1.4922 1.3828,1.4922 1.3828,4.1796 0,0.1719 -0.0156,0.5 l -8.125,0 q 0.1093,1.7969 1.0234,2.75 0.9141,0.9532 2.2734,0.9532 1.0157,0 1.7344,-0.5391 0.7188,-0.5391 1.1406,-1.6953 z m -6.0625,-2.9844 6.0782,0 q -0.125,-1.375 -0.7032,-2.0625 -0.875,-1.0781 -2.2812,-1.0781 -1.2656,0 -2.1328,0.8516 -0.8672,0.8515 -0.961,2.289 z m 17.3824,2.5 1.8281,0.2344 q -0.2969,1.875 -1.5234,2.9375 -1.2266,1.0625 -3.0235,1.0625 -2.2344,0 -3.5859,-1.4609 -1.3516,-1.461 -1.3516,-4.1953 0,-1.7657 0.5781,-3.086 0.5782,-1.3203 1.7735,-1.9844 1.1953,-0.664 2.6015,-0.664 1.7813,0 2.9063,0.8984 1.125,0.8984 1.4375,2.5547 l -1.7813,0.2813 q -0.2656,-1.1094 -0.914,-1.6641 -0.6485,-0.5547 -1.5703,-0.5547 -1.4063,0 -2.2735,1 -0.8672,1 -0.8672,3.1719 0,2.1875 0.8438,3.1875 0.8437,1 2.1875,1 1.0937,0 1.8203,-0.6719 0.7266,-0.6719 0.9141,-2.0469 z m 10.5,2.6406 q -1.0157,0.875 -1.9688,1.2344 -0.9531,0.3594 -2.0312,0.3594 -1.7969,0 -2.7578,-0.875 -0.961,-0.875 -0.961,-2.25 0,-0.7969 0.3594,-1.4609 0.3594,-0.6641 0.9531,-1.0625 0.5938,-0.3985 1.3281,-0.6016 0.5469,-0.1406 1.6407,-0.2812 2.2343,-0.2657 3.2968,-0.625 0,-0.3907 0,-0.4844 0,-1.125 -0.5156,-1.5938 -0.7187,-0.625 -2.1094,-0.625 -1.2968,0 -1.9218,0.4532 -0.625,0.4531 -0.9219,1.625 l -1.7969,-0.25 q 0.25,-1.1563 0.8125,-1.8672 0.5625,-0.711 1.625,-1.1016 1.0625,-0.3906 2.4688,-0.3906 1.4062,0 2.2734,0.3281 0.8672,0.3281 1.2813,0.8281 0.414,0.5 0.5703,1.2656 0.0937,0.4688 0.0937,1.6876 l 0,2.4687 q 0,2.5781 0.1172,3.2578 0.1172,0.6797 0.4609,1.3047 l -1.9218,0 q -0.2813,-0.5781 -0.375,-1.3438 z m -0.1407,-4.125 q -1.0156,0.4063 -3.0156,0.7032 -1.1406,0.1562 -1.6172,0.3672 -0.4765,0.2109 -0.7265,0.6015 -0.25,0.3907 -0.25,0.875 0,0.7344 0.5547,1.2266 0.5546,0.4922 1.6328,0.4922 1.0625,0 1.8984,-0.4688 0.8359,-0.4687 1.2266,-1.2656 0.2968,-0.625 0.2968,-1.8437 l 0,-0.6876 z m 4.6792,5.4688 0,-15.0312 1.8438,0 0,15.0312 -1.8438,0 z m 4.6656,0 0,-15.0312 1.8437,0 0,15.0312 -1.8437,0 z m 14.5781,-1.6562 0.2656,1.6406 q -0.7812,0.1562 -1.4062,0.1562 -1,0 -1.5547,-0.3203 -0.5547,-0.3203 -0.7813,-0.8359 -0.2265,-0.5156 -0.2265,-2.1719 l 0,-6.2656 -1.3438,0 0,-1.4375 1.3438,0 0,-2.7032 1.8437,-1.0937 0,3.7969 1.8594,0 0,1.4375 -1.8594,0 0,6.3593 q 0,0.7969 0.0938,1.0235 0.0937,0.2265 0.3125,0.3594 0.2187,0.1328 0.6406,0.1328 0.2969,0 0.8125,-0.0781 z m 1.8032,-11.25 0,-2.125 1.8438,0 0,2.125 -1.8438,0 z m 0,12.9062 0,-10.8906 1.8438,0 0,10.8906 -1.8438,0 z m 4.6655,0 0,-10.8906 1.6407,0 0,1.5312 q 0.5156,-0.7968 1.3672,-1.289 0.8515,-0.4922 1.9453,-0.4922 1.2031,0 1.9765,0.5078 0.7735,0.5078 1.086,1.3984 1.2968,-1.9062 3.375,-1.9062 1.6093,0 2.4843,0.8984 0.875,0.8984 0.875,2.7734 l 0,7.4688 -1.8437,0 0,-6.8594 q 0,-1.1094 -0.1719,-1.5937 -0.1719,-0.4844 -0.6484,-0.7813 -0.4766,-0.2968 -1.1172,-0.2968 -1.1406,0 -1.8984,0.7578 -0.7579,0.7578 -0.7579,2.4453 l 0,6.3281 -1.8437,0 0,-7.0781 q 0,-1.2344 -0.4531,-1.8438 -0.4532,-0.6093 -1.4844,-0.6093 -0.7813,0 -1.4375,0.4062 -0.6563,0.4062 -0.9531,1.1953 -0.2969,0.7891 -0.2969,2.2735 l 0,5.6562 -1.8438,0 z m 24.9463,-3.5 1.9063,0.2344 q -0.4531,1.6718 -1.6719,2.5937 -1.2187,0.9219 -3.125,0.9219 -2.3906,0 -3.789,-1.4766 -1.3985,-1.4765 -1.3985,-4.1328 0,-2.7344 1.4141,-4.2578 1.414,-1.5234 3.6797,-1.5234 2.1875,0 3.5703,1.4922 1.3828,1.4922 1.3828,4.1796 0,0.1719 -0.0156,0.5 l -8.125,0 q 0.1093,1.7969 1.0234,2.75 0.9141,0.9532 2.2734,0.9532 1.0157,0 1.7344,-0.5391 0.7188,-0.5391 1.1406,-1.6953 z m -6.0625,-2.9844 6.0782,0 q -0.125,-1.375 -0.7032,-2.0625 -0.875,-1.0781 -2.2812,-1.0781 -1.2656,0 -2.1328,0.8516 -0.8672,0.8515 -0.961,2.289 z m 10.7574,6.4844 0,-2.1094 2.1093,0 0,2.1094 q 0,1.1562 -0.414,1.8672 -0.4141,0.7109 -1.3047,1.1016 l -0.5,-0.7813 q 0.5781,-0.2656 0.8515,-0.7578 0.2735,-0.4922 0.3047,-1.4297 l -1.0468,0 z"
     id="path185"
     inkscape:connector-curvature="0" />
  <path
     style="font-size:medium;font-family:mwb_cmmi10;color-interpolation:linearRGB;fill:#262626;stroke:none;color-rendering:optimizeQuality;image-rendering:optimizeQuality;text-rendering:geometricPrecision"
     d="m 371.2656,414.6875 q 0,-0.1563 0.0313,-0.2344 l 2.2031,-7.2031 -1.8906,0 q -0.7656,0 -1.4375,0.4844 -0.6719,0.4844 -1.1094,1.2187 -0.0313,0.0781 -0.125,0.0781 l -0.2344,0 q -0.2031,0 -0.2031,-0.2031 0,-0.0469 0.0469,-0.125 0.6875,-1.1719 1.4687,-1.9609 0.7813,-0.7891 1.7656,-0.7891 l 6.4376,0 q 0.2343,0 0.3828,0.1485 0.1484,0.1484 0.1484,0.3828 0,0.2968 -0.2188,0.5312 Q 378.3125,407.25 378,407.25 l -3.8125,0 -1.4063,7.25 q -0.0781,0.3281 -0.3046,0.5547 -0.2266,0.2265 -0.5704,0.2265 -0.2656,0 -0.4531,-0.1718 -0.1875,-0.1719 -0.1875,-0.4219 z"
     id="path189"
     inkscape:connector-curvature="0" />
  <line
     y2="369"
     style="color-interpolation:linearRGB;fill:none;stroke:#262626;color-rendering:optimizeQuality;image-rendering:optimizeQuality;text-rendering:geometricPrecision"
     x1="73"
     x2="507"
     y1="369"
     id="line193" />
  <line
     y2="364.66"
     style="color-interpolation:linearRGB;fill:none;stroke:#262626;color-rendering:optimizeQuality;image-rendering:optimizeQuality;text-rendering:geometricPrecision"
     x1="73"
     x2="73"
     y1="369"
     id="line197" />
  <line
     y2="44.34"
     style="color-interpolation:linearRGB;fill:none;stroke:#262626;color-rendering:optimizeQuality;image-rendering:optimizeQuality;text-rendering:geometricPrecision"
     x1="73"
     x2="73"
     y1="40"
     id="line199" />
  <line
     y2="364.66"
     style="color-interpolation:linearRGB;fill:none;stroke:#262626;color-rendering:optimizeQuality;image-rendering:optimizeQuality;text-rendering:geometricPrecision"
     x1="159.8"
     x2="159.8"
     y1="369"
     id="line201" />
  <line
     y2="364.66"
     style="color-interpolation:linearRGB;fill:none;stroke:#262626;color-rendering:optimizeQuality;image-rendering:optimizeQuality;text-rendering:geometricPrecision"
     x1="246.60001"
     x2="246.60001"
     y1="369"
     id="line205" />
  <line
     y2="364.66"
     style="color-interpolation:linearRGB;fill:none;stroke:#262626;color-rendering:optimizeQuality;image-rendering:optimizeQuality;text-rendering:geometricPrecision"
     x1="333.39999"
     x2="333.39999"
     y1="369"
     id="line209" />
  <line
     y2="364.66"
     style="color-interpolation:linearRGB;fill:none;stroke:#262626;color-rendering:optimizeQuality;image-rendering:optimizeQuality;text-rendering:geometricPrecision"
     x1="420.20001"
     x2="420.20001"
     y1="369"
     id="line213" />
  <line
     y2="364.66"
     style="color-interpolation:linearRGB;fill:none;stroke:#262626;color-rendering:optimizeQuality;image-rendering:optimizeQuality;text-rendering:geometricPrecision"
     x1="507"
     x2="507"
     y1="369"
     id="line217" />
  <path
     style="font-size:medium;font-family:SansSerif;color-interpolation:linearRGB;fill:#262626;stroke:none;color-rendering:optimizeQuality;image-rendering:optimizeQuality;text-rendering:geometricPrecision"
     d="m 64.8438,391 -1.1407,0 0,-7.2812 q -0.4219,0.3906 -1.0859,0.789 -0.6641,0.3984 -1.1953,0.586 l 0,-1.1094 q 0.9531,-0.4375 1.6719,-1.0782 0.7187,-0.6406 1.0156,-1.25 l 0.7344,0 0,9.3438 z m 2.9331,-4.5938 q 0,-1.6406 0.3359,-2.6484 0.3359,-1.0078 1.0078,-1.5547 0.6719,-0.5469 1.6875,-0.5469 0.75,0 1.3125,0.3047 0.5625,0.3047 0.9297,0.8672 0.3672,0.5625 0.5781,1.3828 0.211,0.8203 0.211,2.1953 0,1.6407 -0.336,2.6485 -0.3359,1.0078 -1.0078,1.5547 -0.6719,0.5468 -1.6875,0.5468 -1.3437,0 -2.125,-0.9687 -0.9062,-1.1563 -0.9062,-3.7813 z m 1.1718,0 q 0,2.2969 0.5313,3.0547 0.5312,0.7579 1.3281,0.7579 0.7813,0 1.3203,-0.7579 0.5391,-0.7578 0.5391,-3.0547 0,-2.2968 -0.5391,-3.0468 -0.539,-0.75 -1.3359,-0.75 -0.7813,0 -1.2656,0.6562 -0.5782,0.8594 -0.5782,3.1406 z"
     id="path223"
     inkscape:connector-curvature="0" />
  <path
     style="font-size:medium;font-family:SansSerif;color-interpolation:linearRGB;fill:#262626;stroke:none;color-rendering:optimizeQuality;image-rendering:optimizeQuality;text-rendering:geometricPrecision"
     d="m 75.3438,382.6406 0,-0.9687 2.9687,0 0,0.9687 -2.9687,0 z m 7.413,2.3594 -0.9687,0 0,-6.1562 q -0.3438,0.3281 -0.9063,0.664 -0.5625,0.336 -1.0156,0.4922 l 0,-0.9375 q 0.8125,-0.375 1.4141,-0.9141 0.6015,-0.539 0.8515,-1.0546 l 0.625,0 0,7.9062 z"
     id="path227"
     inkscape:connector-curvature="0" />
  <path
     style="font-size:medium;font-family:SansSerif;color-interpolation:linearRGB;fill:#262626;stroke:none;color-rendering:optimizeQuality;image-rendering:optimizeQuality;text-rendering:geometricPrecision"
     d="m 152.8438,391 -1.1407,0 0,-7.2812 q -0.4219,0.3906 -1.0859,0.789 -0.6641,0.3984 -1.1953,0.586 l 0,-1.1094 q 0.9531,-0.4375 1.6719,-1.0782 0.7187,-0.6406 1.0156,-1.25 l 0.7344,0 0,9.3438 z m 2.9331,-4.5938 q 0,-1.6406 0.3359,-2.6484 0.3359,-1.0078 1.0078,-1.5547 0.6719,-0.5469 1.6875,-0.5469 0.75,0 1.3125,0.3047 0.5625,0.3047 0.9297,0.8672 0.3672,0.5625 0.5781,1.3828 0.211,0.8203 0.211,2.1953 0,1.6407 -0.336,2.6485 -0.3359,1.0078 -1.0078,1.5547 -0.6719,0.5468 -1.6875,0.5468 -1.3437,0 -2.125,-0.9687 -0.9062,-1.1563 -0.9062,-3.7813 z m 1.1718,0 q 0,2.2969 0.5313,3.0547 0.5312,0.7579 1.3281,0.7579 0.7813,0 1.3203,-0.7579 0.5391,-0.7578 0.5391,-3.0547 0,-2.2968 -0.5391,-3.0468 -0.539,-0.75 -1.3359,-0.75 -0.7813,0 -1.2656,0.6562 -0.5782,0.8594 -0.5782,3.1406 z"
     id="path231"
     inkscape:connector-curvature="0" />
  <path
     style="font-size:medium;font-family:SansSerif;color-interpolation:linearRGB;fill:#262626;stroke:none;color-rendering:optimizeQuality;image-rendering:optimizeQuality;text-rendering:geometricPrecision"
     d="m 163.4531,381.1094 q 0,-1.3906 0.2891,-2.2422 0.289,-0.8516 0.8594,-1.3125 0.5703,-0.4609 1.4296,-0.4609 0.625,0 1.1016,0.2578 0.4766,0.2578 0.7891,0.7343 0.3125,0.4766 0.4922,1.1719 0.1797,0.6953 0.1797,1.8516 0,1.3906 -0.2891,2.2422 -0.2891,0.8515 -0.8516,1.3203 -0.5625,0.4687 -1.4219,0.4687 -1.1406,0 -1.7968,-0.8281 -0.7813,-0.9844 -0.7813,-3.2031 z m 1,0 q 0,1.9531 0.4531,2.5937 0.4532,0.6407 1.125,0.6407 0.6563,0 1.1094,-0.6485 0.4532,-0.6484 0.4532,-2.5859 0,-1.9375 -0.4532,-2.5782 -0.4531,-0.6406 -1.125,-0.6406 -0.6718,0 -1.0625,0.5625 -0.5,0.7188 -0.5,2.6563 z"
     id="path235"
     inkscape:connector-curvature="0" />
  <path
     style="font-size:medium;font-family:SansSerif;color-interpolation:linearRGB;fill:#262626;stroke:none;color-rendering:optimizeQuality;image-rendering:optimizeQuality;text-rendering:geometricPrecision"
     d="m 239.8438,391 -1.1407,0 0,-7.2812 q -0.4219,0.3906 -1.0859,0.789 -0.6641,0.3984 -1.1953,0.586 l 0,-1.1094 q 0.9531,-0.4375 1.6719,-1.0782 0.7187,-0.6406 1.0156,-1.25 l 0.7344,0 0,9.3438 z m 2.9331,-4.5938 q 0,-1.6406 0.3359,-2.6484 0.3359,-1.0078 1.0078,-1.5547 0.6719,-0.5469 1.6875,-0.5469 0.75,0 1.3125,0.3047 0.5625,0.3047 0.9297,0.8672 0.3672,0.5625 0.5781,1.3828 0.211,0.8203 0.211,2.1953 0,1.6407 -0.336,2.6485 -0.3359,1.0078 -1.0078,1.5547 -0.6719,0.5468 -1.6875,0.5468 -1.3437,0 -2.125,-0.9687 -0.9062,-1.1563 -0.9062,-3.7813 z m 1.1718,0 q 0,2.2969 0.5313,3.0547 0.5312,0.7579 1.3281,0.7579 0.7813,0 1.3203,-0.7579 0.5391,-0.7578 0.5391,-3.0547 0,-2.2968 -0.5391,-3.0468 -0.539,-0.75 -1.3359,-0.75 -0.7813,0 -1.2656,0.6562 -0.5782,0.8594 -0.5782,3.1406 z"
     id="path239"
     inkscape:connector-curvature="0" />
  <path
     style="font-size:medium;font-family:SansSerif;color-interpolation:linearRGB;fill:#262626;stroke:none;color-rendering:optimizeQuality;image-rendering:optimizeQuality;text-rendering:geometricPrecision"
     d="m 254.0938,385 -0.9688,0 0,-6.1562 q -0.3438,0.3281 -0.9062,0.664 -0.5626,0.336 -1.0157,0.4922 l 0,-0.9375 q 0.8125,-0.375 1.4141,-0.9141 0.6016,-0.539 0.8516,-1.0546 l 0.625,0 0,7.9062 z"
     id="path243"
     inkscape:connector-curvature="0" />
  <path
     style="font-size:medium;font-family:SansSerif;color-interpolation:linearRGB;fill:#262626;stroke:none;color-rendering:optimizeQuality;image-rendering:optimizeQuality;text-rendering:geometricPrecision"
     d="m 326.8438,391 -1.1407,0 0,-7.2812 q -0.4219,0.3906 -1.0859,0.789 -0.6641,0.3984 -1.1953,0.586 l 0,-1.1094 q 0.9531,-0.4375 1.6719,-1.0782 0.7187,-0.6406 1.0156,-1.25 l 0.7344,0 0,9.3438 z m 2.9331,-4.5938 q 0,-1.6406 0.3359,-2.6484 0.3359,-1.0078 1.0078,-1.5547 0.6719,-0.5469 1.6875,-0.5469 0.75,0 1.3125,0.3047 0.5625,0.3047 0.9297,0.8672 0.3672,0.5625 0.5781,1.3828 0.211,0.8203 0.211,2.1953 0,1.6407 -0.336,2.6485 -0.3359,1.0078 -1.0078,1.5547 -0.6719,0.5468 -1.6875,0.5468 -1.3437,0 -2.125,-0.9687 -0.9062,-1.1563 -0.9062,-3.7813 z m 1.1718,0 q 0,2.2969 0.5313,3.0547 0.5312,0.7579 1.3281,0.7579 0.7813,0 1.3203,-0.7579 0.5391,-0.7578 0.5391,-3.0547 0,-2.2968 -0.5391,-3.0468 -0.539,-0.75 -1.3359,-0.75 -0.7813,0 -1.2656,0.6562 -0.5782,0.8594 -0.5782,3.1406 z"
     id="path247"
     inkscape:connector-curvature="0" />
  <path
     style="font-size:medium;font-family:SansSerif;color-interpolation:linearRGB;fill:#262626;stroke:none;color-rendering:optimizeQuality;image-rendering:optimizeQuality;text-rendering:geometricPrecision"
     d="m 342.5312,384.0781 0,0.9219 -5.2031,0 q 0,-0.3438 0.125,-0.6719 0.1875,-0.5312 0.625,-1.0469 0.4375,-0.5156 1.2657,-1.1874 1.2812,-1.0626 1.7343,-1.6719 0.4531,-0.6094 0.4531,-1.1563 0,-0.5781 -0.4062,-0.9765 -0.4062,-0.3985 -1.0781,-0.3985 -0.6875,0 -1.1094,0.4219 -0.4219,0.4219 -0.4219,1.1563 l -1,-0.0938 q 0.1094,-1.1094 0.7735,-1.6953 0.664,-0.5859 1.789,-0.5859 1.125,0 1.7891,0.625 0.664,0.625 0.664,1.5624 0,0.4688 -0.1953,0.9297 -0.1953,0.461 -0.6406,0.961 -0.4453,0.5 -1.4922,1.3906 -0.875,0.7187 -1.1172,0.9844 -0.2421,0.2656 -0.414,0.5312 l 3.8593,0 z"
     id="path251"
     inkscape:connector-curvature="0" />
  <path
     style="font-size:medium;font-family:SansSerif;color-interpolation:linearRGB;fill:#262626;stroke:none;color-rendering:optimizeQuality;image-rendering:optimizeQuality;text-rendering:geometricPrecision"
     d="m 413.8438,391 -1.1407,0 0,-7.2812 q -0.4219,0.3906 -1.0859,0.789 -0.6641,0.3984 -1.1953,0.586 l 0,-1.1094 q 0.9531,-0.4375 1.6719,-1.0782 0.7187,-0.6406 1.0156,-1.25 l 0.7344,0 0,9.3438 z m 2.9331,-4.5938 q 0,-1.6406 0.3359,-2.6484 0.3359,-1.0078 1.0078,-1.5547 0.6719,-0.5469 1.6875,-0.5469 0.75,0 1.3125,0.3047 0.5625,0.3047 0.9297,0.8672 0.3672,0.5625 0.5781,1.3828 0.211,0.8203 0.211,2.1953 0,1.6407 -0.336,2.6485 -0.3359,1.0078 -1.0078,1.5547 -0.6719,0.5468 -1.6875,0.5468 -1.3437,0 -2.125,-0.9687 -0.9062,-1.1563 -0.9062,-3.7813 z m 1.1718,0 q 0,2.2969 0.5313,3.0547 0.5312,0.7579 1.3281,0.7579 0.7813,0 1.3203,-0.7579 0.5391,-0.7578 0.5391,-3.0547 0,-2.2968 -0.5391,-3.0468 -0.539,-0.75 -1.3359,-0.75 -0.7813,0 -1.2656,0.6562 -0.5782,0.8594 -0.5782,3.1406 z"
     id="path255"
     inkscape:connector-curvature="0" />
  <path
     style="font-size:medium;font-family:SansSerif;color-interpolation:linearRGB;fill:#262626;stroke:none;color-rendering:optimizeQuality;image-rendering:optimizeQuality;text-rendering:geometricPrecision"
     d="m 424.4688,382.9219 0.9531,-0.125 q 0.1719,0.8125 0.5703,1.1797 0.3984,0.3672 0.9766,0.3672 0.6874,0 1.1562,-0.4766 0.4688,-0.4766 0.4688,-1.1641 0,-0.6719 -0.4376,-1.1015 -0.4374,-0.4297 -1.1093,-0.4297 -0.2657,0 -0.6719,0.0937 l 0.0938,-0.8437 q 0.1093,0.0156 0.1562,0.0156 0.625,0 1.1172,-0.3203 0.4922,-0.3203 0.4922,-0.9922 0,-0.5312 -0.3594,-0.8828 -0.3594,-0.3516 -0.9219,-0.3516 -0.5625,0 -0.9375,0.3516 -0.375,0.3516 -0.4844,1.0703 l -0.9687,-0.1719 q 0.1719,-0.9844 0.8047,-1.5156 0.6328,-0.5312 1.5547,-0.5312 0.6562,0 1.1953,0.2734 0.539,0.2734 0.8281,0.7578 0.2891,0.4844 0.2891,1.0156 0,0.5156 -0.2735,0.9297 -0.2734,0.4141 -0.8203,0.6641 0.7032,0.1562 1.0938,0.664 0.3906,0.5078 0.3906,1.2735 0,1.0312 -0.7578,1.75 -0.7578,0.7187 -1.8984,0.7187 -1.0469,0 -1.7266,-0.6172 -0.6797,-0.6172 -0.7734,-1.6015 z"
     id="path259"
     inkscape:connector-curvature="0" />
  <path
     style="font-size:medium;font-family:SansSerif;color-interpolation:linearRGB;fill:#262626;stroke:none;color-rendering:optimizeQuality;image-rendering:optimizeQuality;text-rendering:geometricPrecision"
     d="m 500.8438,391 -1.1407,0 0,-7.2812 q -0.4219,0.3906 -1.0859,0.789 -0.6641,0.3984 -1.1953,0.586 l 0,-1.1094 q 0.9531,-0.4375 1.6719,-1.0782 0.7187,-0.6406 1.0156,-1.25 l 0.7344,0 0,9.3438 z m 2.9331,-4.5938 q 0,-1.6406 0.3359,-2.6484 0.3359,-1.0078 1.0078,-1.5547 0.6719,-0.5469 1.6875,-0.5469 0.75,0 1.3125,0.3047 0.5625,0.3047 0.9297,0.8672 0.3672,0.5625 0.5781,1.3828 0.211,0.8203 0.211,2.1953 0,1.6407 -0.336,2.6485 -0.3359,1.0078 -1.0078,1.5547 -0.6719,0.5468 -1.6875,0.5468 -1.3437,0 -2.125,-0.9687 -0.9062,-1.1563 -0.9062,-3.7813 z m 1.1718,0 q 0,2.2969 0.5313,3.0547 0.5312,0.7579 1.3281,0.7579 0.7813,0 1.3203,-0.7579 0.5391,-0.7578 0.5391,-3.0547 0,-2.2968 -0.5391,-3.0468 -0.539,-0.75 -1.3359,-0.75 -0.7813,0 -1.2656,0.6562 -0.5782,0.8594 -0.5782,3.1406 z"
     id="path263"
     inkscape:connector-curvature="0" />
  <path
     style="font-size:medium;font-family:SansSerif;color-interpolation:linearRGB;fill:#262626;stroke:none;color-rendering:optimizeQuality;image-rendering:optimizeQuality;text-rendering:geometricPrecision"
     d="m 514.5625,385 0,-1.8906 -3.4219,0 0,-0.875 3.5938,-5.1094 0.7812,0 0,5.1094 1.0782,0 0,0.875 -1.0782,0 0,1.8906 -0.9531,0 z m 0,-2.7656 0,-3.5625 -2.4687,3.5625 2.4687,0 z"
     id="path267"
     inkscape:connector-curvature="0" />
  <line
     y2="342.75009"
     style="color-interpolation:linearRGB;fill:none;stroke:#262626;color-rendering:optimizeQuality;image-rendering:optimizeQuality;text-rendering:geometricPrecision"
     x1="73"
     x2="75.169998"
     y1="342.75009"
     id="line271" />
  <line
     y2="324.97949"
     style="color-interpolation:linearRGB;fill:none;stroke:#262626;color-rendering:optimizeQuality;image-rendering:optimizeQuality;text-rendering:geometricPrecision"
     x1="73"
     x2="75.169998"
     y1="324.97949"
     id="line275" />
  <line
     y2="312.37109"
     style="color-interpolation:linearRGB;fill:none;stroke:#262626;color-rendering:optimizeQuality;image-rendering:optimizeQuality;text-rendering:geometricPrecision"
     x1="73"
     x2="75.169998"
     y1="312.37109"
     id="line279" />
  <line
     y2="302.59131"
     style="color-interpolation:linearRGB;fill:none;stroke:#262626;color-rendering:optimizeQuality;image-rendering:optimizeQuality;text-rendering:geometricPrecision"
     x1="73"
     x2="75.169998"
     y1="302.59131"
     id="line283" />
  <line
     y2="294.60059"
     style="color-interpolation:linearRGB;fill:none;stroke:#262626;color-rendering:optimizeQuality;image-rendering:optimizeQuality;text-rendering:geometricPrecision"
     x1="73"
     x2="75.169998"
     y1="294.60059"
     id="line287" />
  <line
     y2="287.84451"
     style="color-interpolation:linearRGB;fill:none;stroke:#262626;color-rendering:optimizeQuality;image-rendering:optimizeQuality;text-rendering:geometricPrecision"
     x1="73"
     x2="75.169998"
     y1="287.84451"
     id="line291" />
  <line
     y2="281.99219"
     style="color-interpolation:linearRGB;fill:none;stroke:#262626;color-rendering:optimizeQuality;image-rendering:optimizeQuality;text-rendering:geometricPrecision"
     x1="73"
     x2="75.169998"
     y1="281.99219"
     id="line295" />
  <line
     y2="276.82999"
     style="color-interpolation:linearRGB;fill:none;stroke:#262626;color-rendering:optimizeQuality;image-rendering:optimizeQuality;text-rendering:geometricPrecision"
     x1="73"
     x2="75.169998"
     y1="276.82999"
     id="line299" />
  <line
     y2="241.8334"
     style="color-interpolation:linearRGB;fill:none;stroke:#262626;color-rendering:optimizeQuality;image-rendering:optimizeQuality;text-rendering:geometricPrecision"
     x1="73"
     x2="75.169998"
     y1="241.8334"
     id="line303" />
  <line
     y2="224.06281"
     style="color-interpolation:linearRGB;fill:none;stroke:#262626;color-rendering:optimizeQuality;image-rendering:optimizeQuality;text-rendering:geometricPrecision"
     x1="73"
     x2="75.169998"
     y1="224.06281"
     id="line307" />
  <line
     y2="211.45441"
     style="color-interpolation:linearRGB;fill:none;stroke:#262626;color-rendering:optimizeQuality;image-rendering:optimizeQuality;text-rendering:geometricPrecision"
     x1="73"
     x2="75.169998"
     y1="211.45441"
     id="line311" />
  <line
     y2="201.67461"
     style="color-interpolation:linearRGB;fill:none;stroke:#262626;color-rendering:optimizeQuality;image-rendering:optimizeQuality;text-rendering:geometricPrecision"
     x1="73"
     x2="75.169998"
     y1="201.67461"
     id="line315" />
  <line
     y2="193.6839"
     style="color-interpolation:linearRGB;fill:none;stroke:#262626;color-rendering:optimizeQuality;image-rendering:optimizeQuality;text-rendering:geometricPrecision"
     x1="73"
     x2="75.169998"
     y1="193.6839"
     id="line319" />
  <line
     y2="186.9278"
     style="color-interpolation:linearRGB;fill:none;stroke:#262626;color-rendering:optimizeQuality;image-rendering:optimizeQuality;text-rendering:geometricPrecision"
     x1="73"
     x2="75.169998"
     y1="186.9278"
     id="line323" />
  <line
     y2="181.0755"
     style="color-interpolation:linearRGB;fill:none;stroke:#262626;color-rendering:optimizeQuality;image-rendering:optimizeQuality;text-rendering:geometricPrecision"
     x1="73"
     x2="75.169998"
     y1="181.0755"
     id="line327" />
  <line
     y2="175.9133"
     style="color-interpolation:linearRGB;fill:none;stroke:#262626;color-rendering:optimizeQuality;image-rendering:optimizeQuality;text-rendering:geometricPrecision"
     x1="73"
     x2="75.169998"
     y1="175.9133"
     id="line331" />
  <line
     y2="140.9167"
     style="color-interpolation:linearRGB;fill:none;stroke:#262626;color-rendering:optimizeQuality;image-rendering:optimizeQuality;text-rendering:geometricPrecision"
     x1="73"
     x2="75.169998"
     y1="140.9167"
     id="line335" />
  <line
     y2="123.1462"
     style="color-interpolation:linearRGB;fill:none;stroke:#262626;color-rendering:optimizeQuality;image-rendering:optimizeQuality;text-rendering:geometricPrecision"
     x1="73"
     x2="75.169998"
     y1="123.1462"
     id="line339" />
  <line
     y2="110.5377"
     style="color-interpolation:linearRGB;fill:none;stroke:#262626;color-rendering:optimizeQuality;image-rendering:optimizeQuality;text-rendering:geometricPrecision"
     x1="73"
     x2="75.169998"
     y1="110.5377"
     id="line343" />
  <line
     y2="100.7579"
     style="color-interpolation:linearRGB;fill:none;stroke:#262626;color-rendering:optimizeQuality;image-rendering:optimizeQuality;text-rendering:geometricPrecision"
     x1="73"
     x2="75.169998"
     y1="100.7579"
     id="line347" />
  <line
     y2="92.767197"
     style="color-interpolation:linearRGB;fill:none;stroke:#262626;color-rendering:optimizeQuality;image-rendering:optimizeQuality;text-rendering:geometricPrecision"
     x1="73"
     x2="75.169998"
     y1="92.767197"
     id="line351" />
  <line
     y2="86.011101"
     style="color-interpolation:linearRGB;fill:none;stroke:#262626;color-rendering:optimizeQuality;image-rendering:optimizeQuality;text-rendering:geometricPrecision"
     x1="73"
     x2="75.169998"
     y1="86.011101"
     id="line355" />
  <line
     y2="80.158798"
     style="color-interpolation:linearRGB;fill:none;stroke:#262626;color-rendering:optimizeQuality;image-rendering:optimizeQuality;text-rendering:geometricPrecision"
     x1="73"
     x2="75.169998"
     y1="80.158798"
     id="line359" />
  <line
     y2="74.996597"
     style="color-interpolation:linearRGB;fill:none;stroke:#262626;color-rendering:optimizeQuality;image-rendering:optimizeQuality;text-rendering:geometricPrecision"
     x1="73"
     x2="75.169998"
     y1="74.996597"
     id="line363" />
  <path
     style="font-size:medium;color-interpolation:linearRGB;fill:#262626;stroke:none;color-rendering:optimizeQuality;image-rendering:optimizeQuality;text-rendering:geometricPrecision"
     d="m 33.9866,354.5219 -15.0312,0 0,-6.6563 q 0,-2.0156 0.4062,-3.0625 0.4063,-1.0469 1.4297,-1.6719 1.0234,-0.625 2.2578,-0.625 1.6094,0 2.7031,1.0391 1.0938,1.0391 1.3907,3.1953 0.3906,-0.7812 0.75,-1.2031 0.7968,-0.8594 2,-1.6406 l 4.0937,-2.625 0,2.5156 -3.125,1.9844 q -1.3594,0.875 -2.0781,1.4375 -0.7188,0.5625 -1,1.0078 -0.2813,0.4453 -0.4063,0.8984 -0.0625,0.3438 -0.0625,1.1094 l 0,2.3125 6.6719,0 0,1.9844 z m -8.3906,-1.9844 0,-4.2813 q 0,-1.3593 -0.2891,-2.125 -0.289,-0.7656 -0.9062,-1.1718 -0.6172,-0.4063 -1.3516,-0.4063 -1.0625,0 -1.75,0.7813 -0.6875,0.7812 -0.6875,2.4531 l 0,4.75 4.9844,0 z"
     id="path369"
     inkscape:connector-curvature="0" />
  <path
     style="font-size:medium;color-interpolation:linearRGB;fill:#262626;stroke:none;color-rendering:optimizeQuality;image-rendering:optimizeQuality;text-rendering:geometricPrecision"
     d="m 30.4866,333.5565 0.2344,-1.9062 q 1.6719,0.4531 2.5937,1.6718 0.9219,1.2188 0.9219,3.125 0,2.3907 -1.4765,3.7891 -1.4766,1.3984 -4.1329,1.3984 -2.7343,0 -4.2578,-1.414 -1.5234,-1.4141 -1.5234,-3.6797 0,-2.1875 1.4922,-3.5703 1.4922,-1.3828 4.1797,-1.3828 0.1718,0 0.5,0.0156 l 0,8.125 q 1.7968,-0.1094 2.75,-1.0234 0.9531,-0.9141 0.9531,-2.2735 0,-1.0156 -0.5391,-1.7344 -0.539,-0.7187 -1.6953,-1.1406 z m -2.9844,6.0625 0,-6.0781 q -1.375,0.125 -2.0625,0.7031 -1.0781,0.875 -1.0781,2.2813 0,1.2656 0.8516,2.1328 0.8515,0.8672 2.289,0.9609 z"
     id="path373"
     inkscape:connector-curvature="0" />
  <path
     style="font-size:medium;color-interpolation:linearRGB;fill:#262626;stroke:none;color-rendering:optimizeQuality;image-rendering:optimizeQuality;text-rendering:geometricPrecision"
     d="m 30.0022,324.4344 0.2344,-1.8281 q 1.875,0.2969 2.9375,1.5234 1.0625,1.2266 1.0625,3.0235 0,2.2343 -1.4609,3.5859 -1.461,1.3516 -4.1953,1.3516 -1.7657,0 -3.086,-0.5782 -1.3203,-0.5781 -1.9843,-1.7734 -0.6641,-1.1953 -0.6641,-2.6016 0,-1.7812 0.8984,-2.9062 0.8985,-1.125 2.5547,-1.4375 l 0.2813,1.7812 q -1.1094,0.2657 -1.6641,0.9141 -0.5547,0.6484 -0.5547,1.5703 0,1.4063 1,2.2735 1,0.8671 3.1719,0.8671 2.1875,0 3.1875,-0.8437 1,-0.8438 1,-2.1875 0,-1.0938 -0.6719,-1.8203 -0.6719,-0.7266 -2.0469,-0.9141 z"
     id="path375"
     inkscape:connector-curvature="0" />
  <path
     style="font-size:medium;color-interpolation:linearRGB;fill:#262626;stroke:none;color-rendering:optimizeQuality;image-rendering:optimizeQuality;text-rendering:geometricPrecision"
     d="m 28.5491,322.7342 q -3.0312,0 -4.4844,-1.6719 -1.2187,-1.4062 -1.2187,-3.4219 0,-2.25 1.4766,-3.6797 1.4765,-1.4296 4.0703,-1.4296 2.0937,0 3.2968,0.6328 1.2032,0.6328 1.875,1.8359 0.6719,1.2031 0.6719,2.6406 0,2.2813 -1.4687,3.6875 -1.4688,1.4063 -4.2188,1.4063 z m 0,-1.8906 q 2.0781,0 3.125,-0.9141 1.0469,-0.9141 1.0469,-2.2891 0,-1.375 -1.0469,-2.289 -1.0469,-0.9141 -3.1875,-0.9141 -2.0312,0 -3.0703,0.9141 -1.0391,0.914 -1.0391,2.289 0,1.375 1.0391,2.2891 1.0391,0.9141 3.1328,0.9141 z"
     id="path377"
     inkscape:connector-curvature="0" />
  <path
     style="font-size:medium;color-interpolation:linearRGB;fill:#262626;stroke:none;color-rendering:optimizeQuality;image-rendering:optimizeQuality;text-rendering:geometricPrecision"
     d="m 34.8929,311.7237 0.2656,-1.7968 q 0.8281,-0.1094 1.2031,-0.625 0.5156,-0.6875 0.5156,-1.875 0,-1.2813 -0.5156,-1.9766 -0.5156,-0.6953 -1.4375,-0.9453 -0.5625,-0.1406 -2.3594,-0.125 1.4219,1.2031 1.4219,3 0,2.25 -1.6172,3.4844 -1.6172,1.2343 -3.8828,1.2343 -1.5625,0 -2.8828,-0.5703 -1.3203,-0.5703 -2.0391,-1.6406 -0.7187,-1.0703 -0.7187,-2.5078 0,-1.9375 1.5625,-3.1875 l -1.3125,0 0,-1.7031 9.4062,0 q 2.5469,0 3.6094,0.5234 1.0625,0.5234 1.6797,1.6406 0.6172,1.1172 0.6172,2.7578 0,1.9532 -0.875,3.1563 -0.875,1.2031 -2.6406,1.1562 z m -6.5469,-1.5312 q 2.1406,0 3.125,-0.8516 0.9844,-0.8515 0.9844,-2.1328 0,-1.2656 -0.9766,-2.125 -0.9766,-0.8594 -3.0703,-0.8594 -2,0 -3.0156,0.8829 -1.0157,0.8828 -1.0157,2.1328 0,1.2343 1,2.0937 1,0.8594 2.9688,0.8594 z"
     id="path379"
     inkscape:connector-curvature="0" />
  <path
     style="font-size:medium;color-interpolation:linearRGB;fill:#262626;stroke:none;color-rendering:optimizeQuality;image-rendering:optimizeQuality;text-rendering:geometricPrecision"
     d="m 33.9866,300.7133 -10.8906,0 0,-1.6563 1.5469,0 q -1.7969,-1.2031 -1.7969,-3.4687 0,-0.9844 0.3594,-1.8047 0.3593,-0.8203 0.9297,-1.2344 0.5703,-0.414 1.3671,-0.5703 0.5,-0.1094 1.7813,-0.1094 l 6.7031,0 0,1.8438 -6.625,0 q -1.125,0 -1.6875,0.2187 -0.5625,0.2188 -0.8906,0.7657 -0.3281,0.5468 -0.3281,1.2812 0,1.1875 0.7422,2.0391 0.7421,0.8515 2.8359,0.8515 l 5.9531,0 0,1.8438 z"
     id="path381"
     inkscape:connector-curvature="0" />
  <path
     style="font-size:medium;color-interpolation:linearRGB;fill:#262626;stroke:none;color-rendering:optimizeQuality;image-rendering:optimizeQuality;text-rendering:geometricPrecision"
     d="m 21.0804,289.6911 -2.125,0 0,-1.8438 2.125,0 0,1.8438 z m 12.9062,0 -10.8906,0 0,-1.8438 10.8906,0 0,1.8438 z"
     id="path383"
     inkscape:connector-curvature="0" />
  <path
     style="font-size:medium;color-interpolation:linearRGB;fill:#262626;stroke:none;color-rendering:optimizeQuality;image-rendering:optimizeQuality;text-rendering:geometricPrecision"
     d="m 32.3304,280.5635 1.6406,-0.2656 q 0.1562,0.7812 0.1562,1.4062 0,1 -0.3203,1.5547 -0.3203,0.5547 -0.8359,0.7813 -0.5156,0.2265 -2.1719,0.2265 l -6.2656,0 0,1.3438 -1.4375,0 0,-1.3438 -2.7031,0 -1.0938,-1.8437 3.7969,0 0,-1.8594 1.4375,0 0,1.8594 6.3594,0 q 0.7968,0 1.0234,-0.0938 0.2266,-0.0937 0.3594,-0.3125 0.1328,-0.2187 0.1328,-0.6406 0,-0.2969 -0.0781,-0.8125 z"
     id="path385"
     inkscape:connector-curvature="0" />
  <path
     style="font-size:medium;color-interpolation:linearRGB;fill:#262626;stroke:none;color-rendering:optimizeQuality;image-rendering:optimizeQuality;text-rendering:geometricPrecision"
     d="m 21.0804,276.8911 -2.125,0 0,-1.8438 2.125,0 0,1.8438 z m 12.9062,0 -10.8906,0 0,-1.8438 10.8906,0 0,1.8438 z"
     id="path387"
     inkscape:connector-curvature="0" />
  <path
     style="font-size:medium;color-interpolation:linearRGB;fill:#262626;stroke:none;color-rendering:optimizeQuality;image-rendering:optimizeQuality;text-rendering:geometricPrecision"
     d="m 28.5491,272.4823 q -3.0312,0 -4.4844,-1.6719 -1.2187,-1.4063 -1.2187,-3.4219 0,-2.25 1.4766,-3.6797 1.4765,-1.4297 4.0703,-1.4297 2.0937,0 3.2968,0.6328 1.2032,0.6329 1.875,1.836 0.6719,1.2031 0.6719,2.6406 0,2.2813 -1.4687,3.6875 -1.4688,1.4063 -4.2188,1.4063 z m 0,-1.8907 q 2.0781,0 3.125,-0.914 1.0469,-0.9141 1.0469,-2.2891 0,-1.375 -1.0469,-2.2891 -1.0469,-0.914 -3.1875,-0.914 -2.0312,0 -3.0703,0.914 -1.0391,0.9141 -1.0391,2.2891 0,1.375 1.0391,2.2891 1.0391,0.914 3.1328,0.914 z"
     id="path389"
     inkscape:connector-curvature="0" />
  <path
     style="font-size:medium;color-interpolation:linearRGB;fill:#262626;stroke:none;color-rendering:optimizeQuality;image-rendering:optimizeQuality;text-rendering:geometricPrecision"
     d="m 33.9866,261.1281 -10.8906,0 0,-1.6563 1.5469,0 q -1.7969,-1.2031 -1.7969,-3.4687 0,-0.9844 0.3594,-1.8047 0.3593,-0.8203 0.9297,-1.2344 0.5703,-0.4141 1.3671,-0.5703 0.5,-0.1094 1.7813,-0.1094 l 6.7031,0 0,1.8438 -6.625,0 q -1.125,0 -1.6875,0.2187 -0.5625,0.2188 -0.8906,0.7656 -0.3281,0.5469 -0.3281,1.2813 0,1.1875 0.7422,2.0391 0.7421,0.8515 2.8359,0.8515 l 5.9531,0 0,1.8438 z"
     id="path391"
     inkscape:connector-curvature="0" />
  <path
     style="font-size:medium;color-interpolation:linearRGB;fill:#262626;stroke:none;color-rendering:optimizeQuality;image-rendering:optimizeQuality;text-rendering:geometricPrecision"
     d="m 38.1585,242.9947 -15.0625,0 0,-1.6718 1.4219,0 q -0.8438,-0.5938 -1.2578,-1.3438 -0.4141,-0.75 -0.4141,-1.8125 0,-1.4062 0.7187,-2.4687 0.7188,-1.0625 2.0313,-1.6094 1.3125,-0.5469 2.8594,-0.5469 1.6718,0 3.0156,0.6016 1.3437,0.6015 2.0547,1.7422 0.7109,1.1406 0.7109,2.4062 0,0.9219 -0.3906,1.6563 -0.3906,0.7343 -0.9844,1.2031 l 5.2969,0 0,1.8437 z m -9.5625,-1.6718 q 2.1094,0 3.1172,-0.8516 1.0078,-0.8516 1.0078,-2.0547 0,-1.2344 -1.0469,-2.1094 -1.0469,-0.875 -3.2187,-0.875 -2.0938,0 -3.125,0.8594 -1.0313,0.8594 -1.0313,2.0469 0,1.1719 1.1016,2.0781 1.1015,0.9063 3.1953,0.9063 z"
     id="path393"
     inkscape:connector-curvature="0" />
  <path
     style="font-size:medium;color-interpolation:linearRGB;fill:#262626;stroke:none;color-rendering:optimizeQuality;image-rendering:optimizeQuality;text-rendering:geometricPrecision"
     d="m 30.4866,223.9268 0.2344,-1.9063 q 1.6719,0.4531 2.5937,1.6719 0.9219,1.2187 0.9219,3.125 0,2.3906 -1.4765,3.789 -1.4766,1.3985 -4.1329,1.3985 -2.7343,0 -4.2578,-1.4141 -1.5234,-1.414 -1.5234,-3.6797 0,-2.1875 1.4922,-3.5703 1.4922,-1.3828 4.1797,-1.3828 0.1718,0 0.5,0.0156 l 0,8.125 q 1.7968,-0.1093 2.75,-1.0234 0.9531,-0.9141 0.9531,-2.2734 0,-1.0157 -0.5391,-1.7344 -0.539,-0.7188 -1.6953,-1.1406 z m -2.9844,6.0625 0,-6.0782 q -1.375,0.125 -2.0625,0.7032 -1.0781,0.875 -1.0781,2.2812 0,1.2656 0.8516,2.1328 0.8515,0.8672 2.289,0.961 z"
     id="path395"
     inkscape:connector-curvature="0" />
  <path
     style="font-size:medium;color-interpolation:linearRGB;fill:#262626;stroke:none;color-rendering:optimizeQuality;image-rendering:optimizeQuality;text-rendering:geometricPrecision"
     d="m 33.9866,221.9297 -10.8906,0 0,-1.6719 1.6562,0 q -1.1562,-0.625 -1.5312,-1.1641 -0.375,-0.539 -0.375,-1.1953 0,-0.9219 0.5937,-1.8906 l 1.7188,0.6406 q -0.4063,0.6719 -0.4063,1.3438 0,0.6093 0.3672,1.0937 0.3672,0.4844 1.0078,0.6875 0.9844,0.3125 2.1563,0.3125 l 5.7031,0 0,1.8438 z"
     id="path397"
     inkscape:connector-curvature="0" />
  <path
     style="font-size:medium;color-interpolation:linearRGB;fill:#262626;stroke:none;color-rendering:optimizeQuality;image-rendering:optimizeQuality;text-rendering:geometricPrecision"
     d="m 33.9866,214.172 -9.4531,0 0,1.6406 -1.4375,0 0,-1.6406 -1.1563,0 q -1.0937,0 -1.625,-0.1875 -0.7187,-0.2657 -1.164,-0.9375 -0.4453,-0.6719 -0.4453,-1.8907 0,-0.7812 0.1718,-1.7187 l 1.6094,0.2812 q -0.0937,0.5625 -0.0937,1.0782 0,0.8437 0.3593,1.1953 0.3594,0.3515 1.3438,0.3515 l 1,0 0,-2.125 1.4375,0 0,2.125 9.4531,0 0,1.8282 z"
     id="path399"
     inkscape:connector-curvature="0" />
  <path
     style="font-size:medium;color-interpolation:linearRGB;fill:#262626;stroke:none;color-rendering:optimizeQuality;image-rendering:optimizeQuality;text-rendering:geometricPrecision"
     d="m 28.5491,208.7784 q -3.0312,0 -4.4844,-1.6719 -1.2187,-1.4062 -1.2187,-3.4218 0,-2.25 1.4766,-3.6797 1.4765,-1.4297 4.0703,-1.4297 2.0937,0 3.2968,0.6328 1.2032,0.6328 1.875,1.8359 0.6719,1.2032 0.6719,2.6407 0,2.2812 -1.4687,3.6875 -1.4688,1.4062 -4.2188,1.4062 z m 0,-1.8906 q 2.0781,0 3.125,-0.9141 1.0469,-0.914 1.0469,-2.289 0,-1.375 -1.0469,-2.2891 -1.0469,-0.9141 -3.1875,-0.9141 -2.0312,0 -3.0703,0.9141 -1.0391,0.9141 -1.0391,2.2891 0,1.375 1.0391,2.289 1.0391,0.9141 3.1328,0.9141 z"
     id="path401"
     inkscape:connector-curvature="0" />
  <path
     style="font-size:medium;color-interpolation:linearRGB;fill:#262626;stroke:none;color-rendering:optimizeQuality;image-rendering:optimizeQuality;text-rendering:geometricPrecision"
     d="m 33.9866,198.0481 -10.8906,0 0,-1.6719 1.6562,0 q -1.1562,-0.625 -1.5312,-1.1641 -0.375,-0.539 -0.375,-1.1953 0,-0.9218 0.5937,-1.8906 l 1.7188,0.6406 q -0.4063,0.6719 -0.4063,1.3438 0,0.6094 0.3672,1.0937 0.3672,0.4844 1.0078,0.6875 0.9844,0.3125 2.1563,0.3125 l 5.7031,0 0,1.8438 z"
     id="path403"
     inkscape:connector-curvature="0" />
  <path
     style="font-size:medium;color-interpolation:linearRGB;fill:#262626;stroke:none;color-rendering:optimizeQuality;image-rendering:optimizeQuality;text-rendering:geometricPrecision"
     d="m 33.9866,190.7279 -10.8906,0 0,-1.6406 1.5312,0 q -0.7968,-0.5157 -1.289,-1.3672 -0.4922,-0.8516 -0.4922,-1.9453 0,-1.2032 0.5078,-1.9766 0.5078,-0.7734 1.3984,-1.0859 -1.9062,-1.2969 -1.9062,-3.375 0,-1.6094 0.8984,-2.4844 0.8985,-0.875 2.7735,-0.875 l 7.4687,0 0,1.8437 -6.8594,0 q -1.1093,0 -1.5937,0.1719 -0.4844,0.1719 -0.7813,0.6485 -0.2968,0.4765 -0.2968,1.1171 0,1.1407 0.7578,1.8985 0.7578,0.7578 2.4453,0.7578 l 6.3281,0 0,1.8437 -7.0781,0 q -1.2344,0 -1.8438,0.4532 -0.6093,0.4531 -0.6093,1.4843 0,0.7813 0.4062,1.4375 0.4063,0.6563 1.1953,0.9532 0.7891,0.2968 2.2735,0.2968 l 5.6562,0 0,1.8438 z"
     id="path405"
     inkscape:connector-curvature="0" />
  <path
     style="font-size:medium;color-interpolation:linearRGB;fill:#262626;stroke:none;color-rendering:optimizeQuality;image-rendering:optimizeQuality;text-rendering:geometricPrecision"
     d="m 32.6429,166.686 q 0.875,1.0156 1.2343,1.9687 0.3594,0.9531 0.3594,2.0313 0,1.7968 -0.875,2.7578 -0.875,0.9609 -2.25,0.9609 -0.7969,0 -1.4609,-0.3594 -0.6641,-0.3593 -1.0625,-0.9531 -0.3985,-0.5937 -0.6016,-1.3281 -0.1406,-0.5469 -0.2812,-1.6406 -0.2657,-2.2344 -0.625,-3.2969 -0.3907,0 -0.4844,0 -1.125,0 -1.5938,0.5156 -0.625,0.7188 -0.625,2.1094 0,1.2969 0.4532,1.9219 0.4531,0.625 1.625,0.9218 l -0.25,1.7969 q -1.1563,-0.25 -1.8672,-0.8125 -0.711,-0.5625 -1.1016,-1.625 -0.3906,-1.0625 -0.3906,-2.4687 0,-1.4063 0.3281,-2.2735 0.3281,-0.8672 0.8281,-1.2812 0.5,-0.4141 1.2657,-0.5703 0.4687,-0.0938 1.6875,-0.0938 l 2.4687,0 q 2.5781,0 3.2578,-0.1172 0.6797,-0.1172 1.3047,-0.4609 l 0,1.9219 q -0.5781,0.2812 -1.3437,0.375 z m -4.125,0.1406 q 0.4062,1.0156 0.7031,3.0156 0.1562,1.1406 0.3672,1.6172 0.2109,0.4766 0.6015,0.7266 0.3907,0.25 0.875,0.25 0.7344,0 1.2266,-0.5547 0.4922,-0.5547 0.4922,-1.6328 0,-1.0625 -0.4688,-1.8985 -0.4687,-0.8359 -1.2656,-1.2265 -0.625,-0.2969 -1.8437,-0.2969 l -0.6875,0 z"
     id="path407"
     inkscape:connector-curvature="0" />
  <path
     style="font-size:medium;color-interpolation:linearRGB;fill:#262626;stroke:none;color-rendering:optimizeQuality;image-rendering:optimizeQuality;text-rendering:geometricPrecision"
     d="m 33.9866,163.5278 -10.8906,0 0,-1.6562 1.5469,0 q -1.7969,-1.2031 -1.7969,-3.4688 0,-0.9843 0.3594,-1.8047 0.3593,-0.8203 0.9297,-1.2343 0.5703,-0.4141 1.3671,-0.5703 0.5,-0.1094 1.7813,-0.1094 l 6.7031,0 0,1.8437 -6.625,0 q -1.125,0 -1.6875,0.2188 -0.5625,0.2187 -0.8906,0.7656 -0.3281,0.5469 -0.3281,1.2813 0,1.1875 0.7422,2.039 0.7421,0.8516 2.8359,0.8516 l 5.9531,0 0,1.8437 z"
     id="path409"
     inkscape:connector-curvature="0" />
  <path
     style="font-size:medium;color-interpolation:linearRGB;fill:#262626;stroke:none;color-rendering:optimizeQuality;image-rendering:optimizeQuality;text-rendering:geometricPrecision"
     d="m 30.0022,145.4118 0.2344,-1.8281 q 1.875,0.2969 2.9375,1.5235 1.0625,1.2265 1.0625,3.0234 0,2.2344 -1.4609,3.5859 -1.461,1.3516 -4.1953,1.3516 -1.7657,0 -3.086,-0.5781 -1.3203,-0.5782 -1.9843,-1.7735 -0.6641,-1.1953 -0.6641,-2.6015 0,-1.7813 0.8984,-2.9063 0.8985,-1.125 2.5547,-1.4375 l 0.2813,1.7813 q -1.1094,0.2656 -1.6641,0.914 -0.5547,0.6485 -0.5547,1.5703 0,1.4063 1,2.2735 1,0.8672 3.1719,0.8672 2.1875,0 3.1875,-0.8438 1,-0.8437 1,-2.1875 0,-1.0937 -0.6719,-1.8203 -0.6719,-0.7266 -2.0469,-0.9141 z"
     id="path411"
     inkscape:connector-curvature="0" />
  <path
     style="font-size:medium;color-interpolation:linearRGB;fill:#262626;stroke:none;color-rendering:optimizeQuality;image-rendering:optimizeQuality;text-rendering:geometricPrecision"
     d="m 30.4866,135.571 0.2344,-1.9063 q 1.6719,0.4532 2.5937,1.6719 0.9219,1.2188 0.9219,3.125 0,2.3906 -1.4765,3.7891 -1.4766,1.3984 -4.1329,1.3984 -2.7343,0 -4.2578,-1.414 -1.5234,-1.4141 -1.5234,-3.6797 0,-2.1875 1.4922,-3.5703 1.4922,-1.3829 4.1797,-1.3829 0.1718,0 0.5,0.0157 l 0,8.125 q 1.7968,-0.1094 2.75,-1.0235 0.9531,-0.914 0.9531,-2.2734 0,-1.0156 -0.5391,-1.7344 -0.539,-0.7187 -1.6953,-1.1406 z m -2.9844,6.0625 0,-6.0781 q -1.375,0.125 -2.0625,0.7031 -1.0781,0.875 -1.0781,2.2812 0,1.2657 0.8516,2.1329 0.8515,0.8671 2.289,0.9609 z"
     id="path413"
     inkscape:connector-curvature="0" />
  <path
     style="font-size:medium;color-interpolation:linearRGB;fill:#262626;stroke:none;color-rendering:optimizeQuality;image-rendering:optimizeQuality;text-rendering:geometricPrecision"
     d="m 37.7679,132.8551 q -0.0938,0 -0.1719,-0.0781 -0.7344,-0.7656 -1.6875,-1.1875 -0.9531,-0.4219 -2,-0.4219 l -0.2656,0 q 0.3437,0.3438 0.3437,0.8438 0,0.4844 -0.3359,0.8203 -0.336,0.3359 -0.8203,0.3359 -0.5,0 -0.8282,-0.3359 -0.3281,-0.3359 -0.3281,-0.8203 0,-0.75 0.6953,-1.0703 0.6953,-0.3203 1.5391,-0.3203 1.1719,0 2.2187,0.4687 1.0469,0.4688 1.8907,1.3281 0.0468,0.0782 0.0468,0.125 0,0.1094 -0.0937,0.211 -0.0938,0.1015 -0.2031,0.1015 z"
     id="path415"
     inkscape:connector-curvature="0" />
  <rect
     x="-121.8962"
     width="40.740898"
     height="0.85329998"
     y="15.758699"
     style="font-size:medium;color-interpolation:linearRGB;fill:#262626;stroke:none;color-rendering:optimizeQuality;image-rendering:optimizeQuality;text-rendering:geometricPrecision"
     id="rect417"
     transform="matrix(0,-1,1,0,0,0)" />
  <path
     style="font-size:medium;color-interpolation:linearRGB;fill:#262626;stroke:none;color-rendering:optimizeQuality;image-rendering:optimizeQuality;text-rendering:geometricPrecision"
     d="m 29.1585,120.9587 -0.1719,-1.875 q 1.1406,-0.1406 1.8594,-0.625 0.7187,-0.4844 1.1641,-1.5156 0.4453,-1.0313 0.4453,-2.3125 0,-1.125 -0.336,-2 -0.3359,-0.875 -0.9297,-1.3047 -0.5937,-0.4297 -1.2812,-0.4297 -0.7031,0 -1.2344,0.4141 -0.5312,0.414 -0.8906,1.3515 -0.2344,0.6094 -0.7344,2.6797 -0.5,2.0703 -0.9375,2.8985 -0.5625,1.0781 -1.3984,1.6093 -0.836,0.5313 -1.8672,0.5313 -1.1406,0 -2.1328,-0.6484 -0.9922,-0.6485 -1.5,-1.8907 -0.5078,-1.2422 -0.5078,-2.7578 0,-1.6719 0.5312,-2.9453 0.5313,-1.2734 1.5781,-1.9609 1.0469,-0.6875 2.375,-0.7344 l 0.1407,1.9062 q -1.4219,0.1563 -2.1485,1.0391 -0.7265,0.8828 -0.7265,2.6172 0,1.7969 0.6562,2.625 0.6563,0.8281 1.5938,0.8281 0.8125,0 1.3281,-0.5781 0.5312,-0.5781 1.0781,-3 0.5469,-2.4219 0.9531,-3.3281 0.6094,-1.3125 1.5391,-1.9375 0.9297,-0.625 2.1328,-0.625 1.2031,0 2.2656,0.6875 1.0625,0.6875 1.6485,1.9687 0.5859,1.2813 0.5859,2.8906 0,2.0469 -0.5937,3.4297 -0.5938,1.3828 -1.7891,2.1641 -1.1953,0.7812 -2.6953,0.8281 z"
     id="path419"
     inkscape:connector-curvature="0" />
  <path
     style="font-size:medium;color-interpolation:linearRGB;fill:#262626;stroke:none;color-rendering:optimizeQuality;image-rendering:optimizeQuality;text-rendering:geometricPrecision"
     d="m 33.9866,108.4506 -15.0312,0 0,-2.0469 11.7968,-7.8906 -11.7968,0 0,-1.9063 15.0312,0 0,2.0313 -11.8125,7.9062 11.8125,0 0,1.9063 z"
     id="path421"
     inkscape:connector-curvature="0" />
  <path
     style="font-size:medium;color-interpolation:linearRGB;fill:#262626;stroke:none;color-rendering:optimizeQuality;image-rendering:optimizeQuality;text-rendering:geometricPrecision"
     d="m 33.9866,93.2769 -15.0312,0 0,-6.6563 q 0,-2.0156 0.4062,-3.0625 0.4063,-1.0468 1.4297,-1.6718 1.0234,-0.625 2.2578,-0.625 1.6094,0 2.7031,1.039 1.0938,1.0391 1.3907,3.1953 0.3906,-0.7812 0.75,-1.2031 0.7968,-0.8594 2,-1.6406 l 4.0937,-2.625 0,2.5156 -3.125,1.9844 q -1.3594,0.875 -2.0781,1.4375 -0.7188,0.5625 -1,1.0078 -0.2813,0.4453 -0.4063,0.8984 -0.0625,0.3438 -0.0625,1.1094 l 0,2.3125 6.6719,0 0,1.9844 z m -8.3906,-1.9844 0,-4.2812 q 0,-1.3594 -0.2891,-2.125 -0.289,-0.7657 -0.9062,-1.1719 -0.6172,-0.4063 -1.3516,-0.4063 -1.0625,0 -1.75,0.7813 -0.6875,0.7812 -0.6875,2.4531 l 0,4.75 4.9844,0 z"
     id="path423"
     inkscape:connector-curvature="0" />
  <path
     style="font-size:medium;color-interpolation:linearRGB;fill:#262626;stroke:none;color-rendering:optimizeQuality;image-rendering:optimizeQuality;text-rendering:geometricPrecision"
     d="m 39.1897,74.6397 q -0.9218,1.1719 -2.1171,2.0156 -1.1954,0.8437 -2.5469,1.3828 -1.3516,0.5391 -2.8281,0.8047 -1.4766,0.2656 -2.961,0.2656 -1.5,0 -2.9765,-0.2656 -1.4766,-0.2656 -2.8438,-0.8125 -1.3672,-0.5469 -2.5547,-1.3984 -1.1875,-0.8516 -2.0781,-1.9922 -0.0469,0 -0.0469,-0.0938 l 0,-0.2031 q 0,-0.0625 0.0547,-0.1094 0.0547,-0.0468 0.1328,-0.0468 0.0938,0 0.125,0.0312 1.0156,1.0313 2.1641,1.7109 1.1484,0.6797 2.4453,1.0938 1.2969,0.414 2.6875,0.6015 1.3906,0.1875 2.8906,0.1875 6.6719,0 10.1406,-3.5624 0.0625,-0.0625 0.1719,-0.0625 0.0469,0 0.1172,0.0546 0.0703,0.0547 0.0703,0.1016 l 0,0.2031 q 0,0.0938 -0.0469,0.0938 z"
     id="path425"
     inkscape:connector-curvature="0" />
  <path
     style="font-size:medium;color-interpolation:linearRGB;fill:#262626;stroke:none;color-rendering:optimizeQuality;image-rendering:optimizeQuality;text-rendering:geometricPrecision"
     d="m 33.6741,69.5934 q -0.1562,0 -0.2344,-0.0313 l -7.2031,-2.2031 0,1.8906 q 0,0.7656 0.4844,1.4375 0.4844,0.6719 1.2187,1.1094 0.0782,0.0312 0.0782,0.125 l 0,0.2344 q 0,0.2031 -0.2032,0.2031 -0.0468,0 -0.125,-0.0469 -1.1718,-0.6875 -1.9609,-1.4687 -0.7891,-0.7813 -0.7891,-1.7657 l 0,-6.4375 q 0,-0.2343 0.1485,-0.3828 0.1484,-0.1484 0.3828,-0.1484 0.2969,0 0.5312,0.2187 0.2344,0.2188 0.2344,0.5313 l 0,3.8125 7.25,1.4062 q 0.3281,0.0782 0.5547,0.3047 0.2266,0.2266 0.2266,0.5703 0,0.2657 -0.1719,0.4532 -0.1719,0.1875 -0.4219,0.1875 z"
     id="path427"
     inkscape:connector-curvature="0" />
  <path
     style="font-size:medium;color-interpolation:linearRGB;fill:#262626;stroke:none;color-rendering:optimizeQuality;image-rendering:optimizeQuality;text-rendering:geometricPrecision"
     d="m 39.2366,59.7589 q 0,0.1875 -0.1875,0.1875 -0.0937,0 -0.125,-0.0469 -3.5156,-3.5938 -10.1875,-3.5938 -6.6719,0 -10.1406,3.5469 -0.0469,0.0938 -0.1719,0.0938 -0.0781,0 -0.1328,-0.0625 -0.0547,-0.0625 -0.0547,-0.125 l 0,-0.2032 q 0,-0.0625 0.0469,-0.0937 1.1875,-1.5156 2.8906,-2.5156 1.7031,-1 3.625,-1.4688 1.9219,-0.4687 3.9375,-0.4687 1.4844,0 2.9297,0.25 1.4453,0.25 2.8438,0.7968 1.3984,0.5469 2.5781,1.3907 1.1797,0.8437 2.1015,2.0156 0.0469,0.0312 0.0469,0.0937 l 0,0.2032 z"
     id="path429"
     inkscape:connector-curvature="0" />
  <line
     y2="40"
     style="color-interpolation:linearRGB;fill:none;stroke:#262626;color-rendering:optimizeQuality;image-rendering:optimizeQuality;text-rendering:geometricPrecision"
     x1="73"
     x2="73"
     y1="369"
     id="line433" />
  <line
     y2="272.21231"
     style="color-interpolation:linearRGB;fill:none;stroke:#262626;color-rendering:optimizeQuality;image-rendering:optimizeQuality;text-rendering:geometricPrecision"
     x1="73"
     x2="77.339996"
     y1="272.21231"
     id="line437" />
  <line
     y2="171.29559"
     style="color-interpolation:linearRGB;fill:none;stroke:#262626;color-rendering:optimizeQuality;image-rendering:optimizeQuality;text-rendering:geometricPrecision"
     x1="73"
     x2="77.339996"
     y1="171.29559"
     id="line441" />
  <line
     y2="70.378998"
     style="color-interpolation:linearRGB;fill:none;stroke:#262626;color-rendering:optimizeQuality;image-rendering:optimizeQuality;text-rendering:geometricPrecision"
     x1="73"
     x2="77.339996"
     y1="70.378998"
     id="line445" />
  <path
     style="font-size:medium;font-family:SansSerif;color-interpolation:linearRGB;fill:#262626;stroke:none;color-rendering:optimizeQuality;image-rendering:optimizeQuality;text-rendering:geometricPrecision"
     d="m 49.8438,280 -1.1407,0 0,-7.2812 q -0.4219,0.3906 -1.0859,0.789 -0.6641,0.3984 -1.1953,0.586 l 0,-1.1094 q 0.9531,-0.4375 1.6719,-1.0782 0.7187,-0.6406 1.0156,-1.25 l 0.7344,0 0,9.3438 z m 2.9331,-4.5938 q 0,-1.6406 0.3359,-2.6484 0.3359,-1.0078 1.0078,-1.5547 0.6719,-0.5469 1.6875,-0.5469 0.75,0 1.3125,0.3047 0.5625,0.3047 0.9297,0.8672 0.3672,0.5625 0.5781,1.3828 0.211,0.8203 0.211,2.1953 0,1.6407 -0.336,2.6485 -0.3359,1.0078 -1.0078,1.5547 -0.6719,0.5468 -1.6875,0.5468 -1.3437,0 -2.125,-0.9687 -0.9062,-1.1563 -0.9062,-3.7813 z m 1.1718,0 q 0,2.2969 0.5313,3.0547 0.5312,0.7579 1.3281,0.7579 0.7813,0 1.3203,-0.7579 0.5391,-0.7578 0.5391,-3.0547 0,-2.2968 -0.5391,-3.0468 -0.539,-0.75 -1.3359,-0.75 -0.7813,0 -1.2656,0.6562 -0.5782,0.8594 -0.5782,3.1406 z"
     id="path451"
     inkscape:connector-curvature="0" />
  <path
     style="font-size:medium;font-family:SansSerif;color-interpolation:linearRGB;fill:#262626;stroke:none;color-rendering:optimizeQuality;image-rendering:optimizeQuality;text-rendering:geometricPrecision"
     d="m 60.4531,270.1094 q 0,-1.3906 0.2891,-2.2422 0.289,-0.8516 0.8594,-1.3125 0.5703,-0.4609 1.4296,-0.4609 0.625,0 1.1016,0.2578 0.4766,0.2578 0.7891,0.7343 0.3125,0.4766 0.4922,1.1719 0.1797,0.6953 0.1797,1.8516 0,1.3906 -0.2891,2.2422 -0.2891,0.8515 -0.8516,1.3203 -0.5625,0.4687 -1.4219,0.4687 -1.1406,0 -1.7968,-0.8281 -0.7813,-0.9844 -0.7813,-3.2031 z m 1,0 q 0,1.9531 0.4531,2.5937 0.4532,0.6407 1.125,0.6407 0.6563,0 1.1094,-0.6485 0.4532,-0.6484 0.4532,-2.5859 0,-1.9375 -0.4532,-2.5782 -0.4531,-0.6406 -1.125,-0.6406 -0.6718,0 -1.0625,0.5625 -0.5,0.7188 -0.5,2.6563 z"
     id="path455"
     inkscape:connector-curvature="0" />
  <path
     style="font-size:medium;font-family:SansSerif;color-interpolation:linearRGB;fill:#262626;stroke:none;color-rendering:optimizeQuality;image-rendering:optimizeQuality;text-rendering:geometricPrecision"
     d="m 49.8438,179 -1.1407,0 0,-7.2812 q -0.4219,0.3906 -1.0859,0.789 -0.6641,0.3984 -1.1953,0.586 l 0,-1.1094 q 0.9531,-0.4375 1.6719,-1.0782 0.7187,-0.6406 1.0156,-1.25 l 0.7344,0 0,9.3438 z m 2.9331,-4.5938 q 0,-1.6406 0.3359,-2.6484 0.3359,-1.0078 1.0078,-1.5547 0.6719,-0.5469 1.6875,-0.5469 0.75,0 1.3125,0.3047 0.5625,0.3047 0.9297,0.8672 0.3672,0.5625 0.5781,1.3828 0.211,0.8203 0.211,2.1953 0,1.6407 -0.336,2.6485 -0.3359,1.0078 -1.0078,1.5547 -0.6719,0.5468 -1.6875,0.5468 -1.3437,0 -2.125,-0.9687 -0.9062,-1.1563 -0.9062,-3.7813 z m 1.1718,0 q 0,2.2969 0.5313,3.0547 0.5312,0.7579 1.3281,0.7579 0.7813,0 1.3203,-0.7579 0.5391,-0.7578 0.5391,-3.0547 0,-2.2968 -0.5391,-3.0468 -0.539,-0.75 -1.3359,-0.75 -0.7813,0 -1.2656,0.6562 -0.5782,0.8594 -0.5782,3.1406 z"
     id="path459"
     inkscape:connector-curvature="0" />
  <path
     style="font-size:medium;font-family:SansSerif;color-interpolation:linearRGB;fill:#262626;stroke:none;color-rendering:optimizeQuality;image-rendering:optimizeQuality;text-rendering:geometricPrecision"
     d="m 64.0938,173 -0.9688,0 0,-6.1562 q -0.3438,0.3281 -0.9062,0.664 -0.5626,0.336 -1.0157,0.4922 l 0,-0.9375 q 0.8125,-0.375 1.4141,-0.9141 0.6016,-0.539 0.8516,-1.0546 l 0.625,0 0,7.9062 z"
     id="path463"
     inkscape:connector-curvature="0" />
  <path
     style="font-size:medium;font-family:SansSerif;color-interpolation:linearRGB;fill:#262626;stroke:none;color-rendering:optimizeQuality;image-rendering:optimizeQuality;text-rendering:geometricPrecision"
     d="m 49.8438,78 -1.1407,0 0,-7.2812 q -0.4219,0.3906 -1.0859,0.789 -0.6641,0.3984 -1.1953,0.586 l 0,-1.1094 q 0.9531,-0.4375 1.6719,-1.0782 0.7187,-0.6406 1.0156,-1.25 l 0.7344,0 0,9.3438 z m 2.9331,-4.5938 q 0,-1.6406 0.3359,-2.6484 0.3359,-1.0078 1.0078,-1.5547 0.6719,-0.5469 1.6875,-0.5469 0.75,0 1.3125,0.3047 0.5625,0.3047 0.9297,0.8672 0.3672,0.5625 0.5781,1.3828 0.211,0.8203 0.211,2.1953 0,1.6407 -0.336,2.6485 -0.3359,1.0078 -1.0078,1.5547 -0.6719,0.5468 -1.6875,0.5468 -1.3437,0 -2.125,-0.9687 -0.9062,-1.1563 -0.9062,-3.7813 z m 1.1718,0 q 0,2.2969 0.5313,3.0547 0.5312,0.7579 1.3281,0.7579 0.7813,0 1.3203,-0.7579 0.5391,-0.7578 0.5391,-3.0547 0,-2.2968 -0.5391,-3.0468 -0.539,-0.75 -1.3359,-0.75 -0.7813,0 -1.2656,0.6562 -0.5782,0.8594 -0.5782,3.1406 z"
     id="path467"
     inkscape:connector-curvature="0" />
  <path
     style="font-size:medium;font-family:SansSerif;color-interpolation:linearRGB;fill:#262626;stroke:none;color-rendering:optimizeQuality;image-rendering:optimizeQuality;text-rendering:geometricPrecision"
     d="m 65.5312,71.0781 0,0.9219 -5.2031,0 q 0,-0.3438 0.125,-0.6719 0.1875,-0.5312 0.625,-1.0469 0.4375,-0.5156 1.2657,-1.1874 1.2812,-1.0626 1.7343,-1.6719 0.4531,-0.6094 0.4531,-1.1563 0,-0.5781 -0.4062,-0.9765 -0.4062,-0.3985 -1.0781,-0.3985 -0.6875,0 -1.1094,0.4219 -0.4219,0.4219 -0.4219,1.1563 l -1,-0.0938 q 0.1094,-1.1094 0.7735,-1.6953 0.664,-0.5859 1.789,-0.5859 1.125,0 1.7891,0.625 0.664,0.625 0.664,1.5624 0,0.4688 -0.1953,0.9297 -0.1953,0.461 -0.6406,0.961 -0.4453,0.5 -1.4922,1.3906 -0.875,0.7187 -1.1172,0.9844 -0.2421,0.2656 -0.414,0.5312 l 3.8593,0 z"
     id="path471"
     inkscape:connector-curvature="0" />
  <path
     d="m 73,70.7756 8.68,0.1021 8.68,0.1282 8.68,0.1609 8.68,0.2017 8.68,0.2526 8.68,0.316 8.68,0.3946 8.68,0.4917 8.68,0.6114 8.68,0.7576 8.68,0.9357 8.68,1.1501 8.68,1.4064 8.68,1.7086 8.68,2.0604 8.68,2.4633 8.68,2.9165 8.68,3.4154 8.68,3.9528 8.68,4.5174 8.68,5.0958 8.68,5.6728 8.68,6.2337 8.68,6.7651 8.68,7.2567 8.68,7.7013 8.68,8.0955 8.68,8.4385 8.68,8.7326 8.68,8.9813 8.68,9.1891 8.68,9.3613 8.68,9.5027 8.68,9.6182 8.68,9.7118 8.68,9.7876 8.68,9.8486 8.68,9.8977 8.68,9.9369 8.68,9.9684 8.68,9.9935 8.68,10.0135 8.68,10.0295 8.68,10.0422 8.68,10.0524 8.68,10.0604 8.68,10.0668 8.68,10.0719 8.68,10.076 L 507,369"
     style="color-interpolation:linearRGB;fill:none;fill-rule:evenodd;stroke:#00ff00;stroke-width:2.66669989;color-rendering:optimizeQuality;image-rendering:optimizeQuality;text-rendering:geometricPrecision"
     id="path475"
     inkscape:connector-curvature="0" />
  <path
     d="m 73,74.5568 8.68,1.0196 8.68,1.2507 8.68,1.5253 8.68,1.8494 8.68,2.2255 8.68,2.6393 8.68,3.1184 8.68,3.6331 8.68,4.1844 8.68,4.7555 8.68,5.3356 8.68,4.8958 8.68,4.1245 8.68,4.0805 8.68,4.3698 8.68,4.8518 8.68,4.7875 8.68,4.833 8.68,4.8527 8.68,4.872 8.68,4.8817 8.68,4.9017 8.68,4.9632 8.68,5.0835 8.68,5.2579 8.68,5.5025 8.68,5.825 8.68,6.131 8.68,6.4135 8.68,6.6772 8.68,6.9236 8.68,7.1491 8.68,7.3635 8.68,7.5675 8.68,7.7632 8.68,7.95 8.68,8.1272 8.68,8.2942 8.68,8.4507 8.68,8.5972 8.68,8.7332 8.68,8.8592 8.68,8.9756 8.68,9.0824 8.68,9.1803 8.68,9.27 8.68,9.3514 8.68,9.4258 8.68,9.493 4.6129,5.0774"
     style="color-interpolation:linearRGB;fill:none;fill-rule:evenodd;stroke:#ff0000;stroke-width:2.66669989;color-rendering:optimizeQuality;image-rendering:optimizeQuality;text-rendering:geometricPrecision"
     id="path477"
     inkscape:connector-curvature="0" />
  <path
     d="m 73,100.9398 8.68,0.0944 8.68,0.1394 8.68,0.2032 8.68,0.2917 8.68,0.4114 8.68,0.57 8.68,0.7741 8.68,1.0304 8.68,1.3435 8.68,1.716 8.68,2.1479 8.68,2.6354 8.68,3.1719 8.68,3.7471 8.68,4.348 8.68,4.9591 8.68,5.5648 8.68,6.1498 8.68,6.7009 8.68,7.2081 8.68,7.6649 8.68,8.0682 8.68,8.4182 8.68,8.7175 8.68,8.9699 8.68,9.1806 8.68,9.3549 8.68,9.4978 8.68,9.6144 8.68,9.709 8.68,9.7854 8.68,9.8469 8.68,9.8963 8.68,9.936 8.68,9.9675 8.68,9.9928 8.68,10.0131 8.68,10.0291 8.68,10.0419 8.68,10.0521 8.68,10.0602 8.68,10.0666 5.1732,6.0027"
     style="color-interpolation:linearRGB;fill:none;fill-rule:evenodd;stroke:#999999;stroke-width:2.66669989;color-rendering:optimizeQuality;image-rendering:optimizeQuality;text-rendering:geometricPrecision"
     id="path479"
     inkscape:connector-curvature="0" />
  <path
     d="m 73,148.7984 8.68,1e-4 8.68,1e-4 8.68,1e-4 8.68,2e-4 8.68,5e-4 8.68,0.001 8.68,0.002 8.68,0.005 8.68,0.01 8.68,0.0203 8.68,0.0401 8.68,0.0753 8.68,0.1336 8.68,0.2243 8.68,0.3572 8.68,0.541 8.68,0.7829 8.68,1.0871 8.68,1.4552 8.68,1.8855 8.68,2.3737 8.68,2.9125 8.68,3.4917 8.68,4.0988 8.68,4.7189 8.68,5.3367 8.68,5.9369 8.68,6.5056 8.68,7.0322 8.68,7.5091 8.68,7.9326 8.68,8.302 8.68,8.6189 8.68,8.8875 8.68,9.1122 8.68,9.2985 8.68,9.4519 8.68,9.577 8.68,9.6787 8.68,9.761 8.68,9.8273 8.68,9.8806 8.68,9.9233 8.68,9.9575 8.68,9.9848 8.68,10.0066 8.68,10.024 3.0032,3.473"
     style="color-interpolation:linearRGB;fill:none;fill-rule:evenodd;stroke:#999999;stroke-width:2.66669989;color-rendering:optimizeQuality;image-rendering:optimizeQuality;text-rendering:geometricPrecision"
     id="path481"
     inkscape:connector-curvature="0" />
  <path
     d="m 73,229.8586 8.68,-5e-4 8.68,-9e-4 8.68,-0.002 8.68,-0.003 8.68,-0.005 8.68,-0.009 8.68,-0.0151 8.68,-0.0245 8.68,-0.0387 8.68,-0.0588 8.68,-0.0855 8.68,-0.1188 8.68,-0.1572 8.68,-0.1977 8.68,-0.2349 8.68,-0.2634 8.68,-0.2767 8.68,-0.2695 8.68,-0.238 8.68,-0.18 8.68,-0.095 8.68,0.0169 8.68,0.1554 8.68,0.321 8.68,0.5149 8.68,0.7399 8.68,0.9995 8.68,1.2977 8.68,1.6386 8.68,2.0254 8.68,2.4595 8.68,2.9396 8.68,3.4615 8.68,4.017 8.68,4.5951 8.68,5.182 8.68,5.7632 8.68,6.3242 8.68,6.8522 8.68,7.338 8.68,7.7751 8.68,8.1609 8.68,8.4956 8.68,8.7813 8.68,9.0225 8.68,9.2235 8.68,9.3896 8.68,9.526 8.68,9.6371 4.2787,4.7949"
     style="color-interpolation:linearRGB;fill:none;fill-rule:evenodd;stroke:#0000ff;stroke-width:2.66669989;color-rendering:optimizeQuality;image-rendering:optimizeQuality;text-rendering:geometricPrecision"
     id="path483"
     inkscape:connector-curvature="0" />
  <path
     style="color-interpolation:sRGB;fill:#ffffff;stroke:none;color-rendering:optimizeSpeed;image-rendering:optimizeSpeed;shape-rendering:crispEdges;text-rendering:optimizeSpeed"
     d="m 86,356 0,-83 226,0 0,83 z"
     id="path491"
     inkscape:connector-curvature="0" />
  <path
     style="font-size:medium;font-family:SansSerif;color-interpolation:linearRGB;stroke:none;color-rendering:optimizeQuality;image-rendering:optimizeQuality;text-rendering:geometricPrecision"
     d="m 139.7979,296.7964 0,-15.0313 5.6719,0 q 1.4843,0 2.2812,0.1406 1.1094,0.1875 1.8594,0.7032 0.75,0.5156 1.2031,1.4531 0.4532,0.9375 0.4532,2.0469 0,1.9218 -1.2188,3.25 -1.2188,1.3281 -4.4062,1.3281 l -3.8594,0 0,6.1094 -1.9844,0 z m 1.9844,-7.8907 3.8906,0 q 1.9219,0 2.7344,-0.7187 0.8125,-0.7188 0.8125,-2.0156 0,-0.9375 -0.4766,-1.6094 -0.4765,-0.6719 -1.2578,-0.8906 -0.5,-0.1407 -1.8594,-0.1407 l -3.8437,0 0,5.375 z m 11.7568,7.8907 0,-10.8907 1.6719,0 0,1.6563 q 0.625,-1.1563 1.164,-1.5313 0.5391,-0.375 1.1954,-0.375 0.9218,0 1.8906,0.5938 l -0.6406,1.7187 q -0.6719,-0.4062 -1.3438,-0.4062 -0.6094,0 -1.0937,0.3672 -0.4844,0.3672 -0.6875,1.0078 -0.3125,0.9844 -0.3125,2.1562 l 0,5.7032 -1.8438,0 z m 6.3369,-5.4375 q 0,-3.0313 1.6719,-4.4844 1.4062,-1.2188 3.4219,-1.2188 2.25,0 3.6797,1.4766 1.4296,1.4766 1.4296,4.0703 0,2.0938 -0.6328,3.2969 -0.6328,1.2031 -1.8359,1.875 -1.2031,0.6719 -2.6406,0.6719 -2.2813,0 -3.6875,-1.4688 -1.4063,-1.4687 -1.4063,-4.2187 z m 1.8907,0 q 0,2.0781 0.914,3.125 0.9141,1.0468 2.2891,1.0468 1.375,0 2.289,-1.0468 0.9141,-1.0469 0.9141,-3.1875 0,-2.0313 -0.9141,-3.0704 -0.914,-1.039 -2.289,-1.039 -1.375,0 -2.2891,1.039 -0.914,1.0391 -0.914,3.1329 z m 13.4916,5.4375 -4.1406,-10.8907 1.9531,0 2.3282,6.5157 q 0.3906,1.0625 0.7031,2.2031 0.25,-0.8594 0.6875,-2.0781 l 2.4219,-6.6407 1.8906,0 -4.125,10.8907 -1.7188,0 z m 14.9375,-3.5 1.9063,0.2343 q -0.4531,1.6719 -1.6719,2.5938 -1.2187,0.9219 -3.125,0.9219 -2.3906,0 -3.789,-1.4766 -1.3985,-1.4766 -1.3985,-4.1328 0,-2.7344 1.4141,-4.2578 1.414,-1.5235 3.6797,-1.5235 2.1875,0 3.5703,1.4922 1.3828,1.4922 1.3828,4.1797 0,0.1719 -0.0156,0.5 l -8.125,0 q 0.1093,1.7969 1.0234,2.75 0.9141,0.9531 2.2734,0.9531 1.0157,0 1.7344,-0.539 0.7188,-0.5391 1.1406,-1.6953 z m -6.0625,-2.9844 6.0782,0 q -0.125,-1.375 -0.7032,-2.0625 -0.875,-1.0781 -2.2812,-1.0781 -1.2656,0 -2.1328,0.8515 -0.8672,0.8516 -0.961,2.2891 z m 10.2886,6.4844 0,-10.8907 1.6563,0 0,1.5469 q 1.2031,-1.7969 3.4687,-1.7969 0.9844,0 1.8047,0.3594 0.8203,0.3594 1.2344,0.9297 0.414,0.5703 0.5703,1.3672 0.1094,0.5 0.1094,1.7812 l 0,6.7032 -1.8438,0 0,-6.625 q 0,-1.125 -0.2187,-1.6875 -0.2188,-0.5625 -0.7657,-0.8907 -0.5468,-0.3281 -1.2812,-0.3281 -1.1875,0 -2.0391,0.7422 -0.8515,0.7422 -0.8515,2.8359 l 0,5.9532 -1.8438,0 z m 24.9668,-3.5 1.9063,0.2343 q -0.4532,1.6719 -1.6719,2.5938 -1.2188,0.9219 -3.125,0.9219 -2.3906,0 -3.7891,-1.4766 -1.3984,-1.4766 -1.3984,-4.1328 0,-2.7344 1.4141,-4.2578 1.414,-1.5235 3.6796,-1.5235 2.1875,0 3.5704,1.4922 1.3828,1.4922 1.3828,4.1797 0,0.1719 -0.0157,0.5 l -8.125,0 q 0.1094,1.7969 1.0235,2.75 0.914,0.9531 2.2734,0.9531 1.0156,0 1.7344,-0.539 0.7187,-0.5391 1.1406,-1.6953 z m -6.0625,-2.9844 6.0781,0 q -0.125,-1.375 -0.7031,-2.0625 -0.875,-1.0781 -2.2812,-1.0781 -1.2657,0 -2.1328,0.8515 -0.8672,0.8516 -0.961,2.2891 z m 10.2886,6.4844 0,-10.8907 1.6562,0 0,1.5469 q 1.2032,-1.7969 3.4688,-1.7969 0.9844,0 1.8047,0.3594 0.8203,0.3594 1.2344,0.9297 0.414,0.5703 0.5703,1.3672 0.1093,0.5 0.1093,1.7812 l 0,6.7032 -1.8437,0 0,-6.625 q 0,-1.125 -0.2188,-1.6875 -0.2187,-0.5625 -0.7656,-0.8907 -0.5469,-0.3281 -1.2812,-0.3281 -1.1875,0 -2.0391,0.7422 -0.8516,0.7422 -0.8516,2.8359 l 0,5.9532 -1.8437,0 z m 14.6948,0 -4.1406,-10.8907 1.9531,0 2.3281,6.5157 q 0.3907,1.0625 0.7032,2.2031 0.25,-0.8594 0.6875,-2.0781 l 2.4218,-6.6407 1.8907,0 -4.125,10.8907 -1.7188,0 z m 14.9375,-3.5 1.9063,0.2343 q -0.4532,1.6719 -1.6719,2.5938 -1.2188,0.9219 -3.125,0.9219 -2.3906,0 -3.7891,-1.4766 -1.3984,-1.4766 -1.3984,-4.1328 0,-2.7344 1.4141,-4.2578 1.414,-1.5235 3.6796,-1.5235 2.1875,0 3.5704,1.4922 1.3828,1.4922 1.3828,4.1797 0,0.1719 -0.0157,0.5 l -8.125,0 q 0.1094,1.7969 1.0235,2.75 0.914,0.9531 2.2734,0.9531 1.0156,0 1.7344,-0.539 0.7187,-0.5391 1.1406,-1.6953 z m -6.0625,-2.9844 6.0781,0 q -0.125,-1.375 -0.7031,-2.0625 -0.875,-1.0781 -2.2812,-1.0781 -1.2657,0 -2.1328,0.8515 -0.8672,0.8516 -0.961,2.2891 z m 10.2417,6.4844 0,-15.0313 1.8438,0 0,15.0313 -1.8438,0 z m 4.0249,-5.4375 q 0,-3.0313 1.6719,-4.4844 1.4062,-1.2188 3.4219,-1.2188 2.25,0 3.6797,1.4766 1.4296,1.4766 1.4296,4.0703 0,2.0938 -0.6328,3.2969 -0.6328,1.2031 -1.8359,1.875 -1.2031,0.6719 -2.6406,0.6719 -2.2813,0 -3.6875,-1.4688 -1.4063,-1.4687 -1.4063,-4.2187 z m 1.8906,0 q 0,2.0781 0.9141,3.125 0.9141,1.0468 2.2891,1.0468 1.375,0 2.289,-1.0468 0.9141,-1.0469 0.9141,-3.1875 0,-2.0313 -0.9141,-3.0704 -0.914,-1.039 -2.289,-1.039 -1.375,0 -2.2891,1.039 -0.9141,1.0391 -0.9141,3.1329 z m 10.4761,9.6093 0,-15.0625 1.6719,0 0,1.4219 q 0.5937,-0.8437 1.3437,-1.2578 0.75,-0.4141 1.8125,-0.4141 1.4063,0 2.4688,0.7188 1.0625,0.7187 1.6094,2.0312 0.5468,1.3125 0.5468,2.8594 0,1.6719 -0.6015,3.0156 -0.6016,1.3438 -1.7422,2.0547 -1.1406,0.711 -2.4063,0.711 -0.9218,0 -1.6562,-0.3907 -0.7344,-0.3906 -1.2031,-0.9843 l 0,5.2968 -1.8438,0 z m 1.6719,-9.5625 q 0,2.1094 0.8516,3.1172 0.8515,1.0078 2.0546,1.0078 1.2344,0 2.1094,-1.0468 0.875,-1.0469 0.875,-3.2188 0,-2.0937 -0.8594,-3.125 -0.8593,-1.0312 -2.0468,-1.0312 -1.1719,0 -2.0782,1.1015 -0.9062,1.1016 -0.9062,3.1953 z m 17.4604,1.8907 1.9063,0.2343 q -0.4531,1.6719 -1.6719,2.5938 -1.2187,0.9219 -3.125,0.9219 -2.3906,0 -3.789,-1.4766 -1.3985,-1.4766 -1.3985,-4.1328 0,-2.7344 1.4141,-4.2578 1.414,-1.5235 3.6797,-1.5235 2.1875,0 3.5703,1.4922 1.3828,1.4922 1.3828,4.1797 0,0.1719 -0.0156,0.5 l -8.125,0 q 0.1093,1.7969 1.0234,2.75 0.9141,0.9531 2.2734,0.9531 1.0157,0 1.7344,-0.539 0.7188,-0.5391 1.1406,-1.6953 z m -6.0625,-2.9844 6.0782,0 q -0.125,-1.375 -0.7032,-2.0625 -0.875,-1.0781 -2.2812,-1.0781 -1.2656,0 -2.1328,0.8515 -0.8672,0.8516 -0.961,2.2891 z"
     id="path495"
     inkscape:connector-curvature="0" />
  <line
     y2="288.39059"
     style="color-interpolation:linearRGB;fill:none;stroke:#00ff00;stroke-width:2.66669989;color-rendering:optimizeQuality;image-rendering:optimizeQuality;text-rendering:geometricPrecision"
     x1="94.026604"
     x2="134.15961"
     y1="288.39059"
     id="line499" />
  <path
     style="font-size:medium;font-family:SansSerif;color-interpolation:linearRGB;stroke:none;color-rendering:optimizeQuality;image-rendering:optimizeQuality;text-rendering:geometricPrecision"
     d="m 139.7667,322.9058 0,-15.0313 2.0468,0 7.8906,11.7969 0,-11.7969 1.9063,0 0,15.0313 -2.0313,0 -7.9062,-11.8125 0,11.8125 -1.9062,0 z m 22.0874,0 0,-1.5938 q -1.2657,1.8438 -3.4532,1.8438 -0.9531,0 -1.789,-0.375 -0.836,-0.375 -1.2422,-0.9297 -0.4063,-0.5547 -0.5781,-1.3672 -0.1094,-0.5469 -0.1094,-1.7188 l 0,-6.75 1.8437,0 0,6.0469 q 0,1.4375 0.1094,1.9375 0.1719,0.7344 0.7422,1.1484 0.5703,0.4141 1.3984,0.4141 0.8282,0 1.5547,-0.4219 0.7266,-0.4218 1.0313,-1.1562 0.3047,-0.7344 0.3047,-2.1406 l 0,-5.8282 1.8437,0 0,10.8907 -1.6562,0 z m 4.5542,0 0,-10.8907 1.6406,0 0,1.5313 q 0.5156,-0.7969 1.3672,-1.2891 0.8515,-0.4922 1.9453,-0.4922 1.2031,0 1.9765,0.5078 0.7735,0.5079 1.086,1.3985 1.2969,-1.9063 3.375,-1.9063 1.6094,0 2.4844,0.8985 0.875,0.8984 0.875,2.7734 l 0,7.4688 -1.8438,0 0,-6.8594 q 0,-1.1094 -0.1719,-1.5938 -0.1718,-0.4843 -0.6484,-0.7812 -0.4766,-0.2969 -1.1172,-0.2969 -1.1406,0 -1.8984,0.7578 -0.7578,0.7578 -0.7578,2.4453 l 0,6.3282 -1.8438,0 0,-7.0782 q 0,-1.2343 -0.4531,-1.8437 -0.4531,-0.6094 -1.4844,-0.6094 -0.7812,0 -1.4375,0.4063 -0.6562,0.4062 -0.9531,1.1953 -0.2969,0.789 -0.2969,2.2734 l 0,5.6563 -1.8437,0 z m 24.9462,-3.5 1.9063,0.2343 q -0.4531,1.6719 -1.6719,2.5938 -1.2187,0.9219 -3.125,0.9219 -2.3906,0 -3.789,-1.4766 -1.3985,-1.4766 -1.3985,-4.1328 0,-2.7344 1.4141,-4.2578 1.414,-1.5235 3.6797,-1.5235 2.1875,0 3.5703,1.4922 1.3828,1.4922 1.3828,4.1797 0,0.1719 -0.0156,0.5 l -8.125,0 q 0.1093,1.7969 1.0234,2.75 0.9141,0.9531 2.2734,0.9531 1.0157,0 1.7344,-0.539 0.7188,-0.5391 1.1406,-1.6953 z m -6.0625,-2.9844 6.0782,0 q -0.125,-1.375 -0.7032,-2.0625 -0.875,-1.0781 -2.2812,-1.0781 -1.2656,0 -2.1328,0.8515 -0.8672,0.8516 -0.961,2.2891 z m 10.2574,6.4844 0,-10.8907 1.6718,0 0,1.6563 q 0.625,-1.1563 1.1641,-1.5313 0.5391,-0.375 1.1953,-0.375 0.9219,0 1.8906,0.5938 l -0.6406,1.7187 q -0.6719,-0.4062 -1.3437,-0.4062 -0.6094,0 -1.0938,0.3672 -0.4844,0.3672 -0.6875,1.0078 -0.3125,0.9844 -0.3125,2.1562 l 0,5.7032 -1.8437,0 z m 7.0244,-12.9063 0,-2.125 1.8437,0 0,2.125 -1.8437,0 z m 0,12.9063 0,-10.8907 1.8437,0 0,10.8907 -1.8437,0 z m 11.7593,-3.9844 1.8281,0.2344 q -0.2969,1.875 -1.5235,2.9375 -1.2265,1.0625 -3.0234,1.0625 -2.2344,0 -3.5859,-1.461 -1.3516,-1.4609 -1.3516,-4.1953 0,-1.7656 0.5781,-3.0859 0.5782,-1.3203 1.7735,-1.9844 1.1953,-0.6641 2.6015,-0.6641 1.7813,0 2.9063,0.8985 1.125,0.8984 1.4375,2.5547 l -1.7813,0.2812 q -0.2656,-1.1094 -0.914,-1.6641 -0.6485,-0.5546 -1.5703,-0.5546 -1.4063,0 -2.2735,1 -0.8672,1 -0.8672,3.1718 0,2.1875 0.8438,3.1875 0.8437,1 2.1875,1 1.0937,0 1.8203,-0.6718 0.7266,-0.6719 0.9141,-2.0469 z m 16.6938,0.4844 1.9063,0.2343 q -0.4532,1.6719 -1.6719,2.5938 -1.2188,0.9219 -3.125,0.9219 -2.3906,0 -3.7891,-1.4766 -1.3984,-1.4766 -1.3984,-4.1328 0,-2.7344 1.414,-4.2578 1.4141,-1.5235 3.6797,-1.5235 2.1875,0 3.5703,1.4922 1.3829,1.4922 1.3829,4.1797 0,0.1719 -0.0157,0.5 l -8.125,0 q 0.1094,1.7969 1.0235,2.75 0.914,0.9531 2.2734,0.9531 1.0156,0 1.7344,-0.539 0.7187,-0.5391 1.1406,-1.6953 z m -6.0625,-2.9844 6.0781,0 q -0.125,-1.375 -0.7031,-2.0625 -0.875,-1.0781 -2.2812,-1.0781 -1.2657,0 -2.1329,0.8515 -0.8671,0.8516 -0.9609,2.2891 z m 10.2886,6.4844 0,-10.8907 1.6562,0 0,1.5469 q 1.2032,-1.7969 3.4688,-1.7969 0.9844,0 1.8047,0.3594 0.8203,0.3594 1.2343,0.9297 0.4141,0.5703 0.5704,1.3672 0.1093,0.5 0.1093,1.7812 l 0,6.7032 -1.8437,0 0,-6.625 q 0,-1.125 -0.2188,-1.6875 -0.2187,-0.5625 -0.7656,-0.8907 -0.5469,-0.3281 -1.2812,-0.3281 -1.1875,0 -2.0391,0.7422 -0.8516,0.7422 -0.8516,2.8359 l 0,5.9532 -1.8437,0 z m 14.6948,0 -4.1406,-10.8907 1.9531,0 2.3281,6.5157 q 0.3907,1.0625 0.7032,2.2031 0.25,-0.8594 0.6875,-2.0781 l 2.4218,-6.6407 1.8907,0 -4.125,10.8907 -1.7188,0 z m 14.9375,-3.5 1.9063,0.2343 q -0.4532,1.6719 -1.6719,2.5938 -1.2188,0.9219 -3.125,0.9219 -2.3906,0 -3.7891,-1.4766 -1.3984,-1.4766 -1.3984,-4.1328 0,-2.7344 1.414,-4.2578 1.4141,-1.5235 3.6797,-1.5235 2.1875,0 3.5703,1.4922 1.3829,1.4922 1.3829,4.1797 0,0.1719 -0.0157,0.5 l -8.125,0 q 0.1094,1.7969 1.0235,2.75 0.914,0.9531 2.2734,0.9531 1.0156,0 1.7344,-0.539 0.7187,-0.5391 1.1406,-1.6953 z m -6.0625,-2.9844 6.0781,0 q -0.125,-1.375 -0.7031,-2.0625 -0.875,-1.0781 -2.2812,-1.0781 -1.2657,0 -2.1329,0.8515 -0.8671,0.8516 -0.9609,2.2891 z m 10.2417,6.4844 0,-15.0313 1.8438,0 0,15.0313 -1.8438,0 z m 4.0249,-5.4375 q 0,-3.0313 1.6719,-4.4844 1.4062,-1.2188 3.4219,-1.2188 2.25,0 3.6796,1.4766 1.4297,1.4766 1.4297,4.0703 0,2.0938 -0.6328,3.2969 -0.6328,1.2031 -1.8359,1.875 -1.2031,0.6719 -2.6406,0.6719 -2.2813,0 -3.6875,-1.4688 -1.4063,-1.4687 -1.4063,-4.2187 z m 1.8906,0 q 0,2.0781 0.9141,3.125 0.9141,1.0468 2.2891,1.0468 1.375,0 2.289,-1.0468 0.9141,-1.0469 0.9141,-3.1875 0,-2.0313 -0.9141,-3.0704 -0.914,-1.039 -2.289,-1.039 -1.375,0 -2.2891,1.039 -0.9141,1.0391 -0.9141,3.1329 z m 10.4761,9.6093 0,-15.0625 1.6719,0 0,1.4219 q 0.5937,-0.8437 1.3437,-1.2578 0.75,-0.4141 1.8125,-0.4141 1.4063,0 2.4688,0.7188 1.0625,0.7187 1.6094,2.0312 0.5468,1.3125 0.5468,2.8594 0,1.6719 -0.6015,3.0156 -0.6016,1.3438 -1.7422,2.0547 -1.1406,0.711 -2.4063,0.711 -0.9218,0 -1.6562,-0.3907 -0.7344,-0.3906 -1.2031,-0.9843 l 0,5.2968 -1.8438,0 z m 1.6719,-9.5625 q 0,2.1094 0.8515,3.1172 0.8516,1.0078 2.0547,1.0078 1.2344,0 2.1094,-1.0468 0.875,-1.0469 0.875,-3.2188 0,-2.0937 -0.8594,-3.125 -0.8593,-1.0312 -2.0468,-1.0312 -1.1719,0 -2.0782,1.1015 -0.9062,1.1016 -0.9062,3.1953 z m 17.4604,1.8907 1.9063,0.2343 q -0.4531,1.6719 -1.6719,2.5938 -1.2187,0.9219 -3.125,0.9219 -2.3906,0 -3.7891,-1.4766 -1.3984,-1.4766 -1.3984,-4.1328 0,-2.7344 1.4141,-4.2578 1.414,-1.5235 3.6797,-1.5235 2.1875,0 3.5703,1.4922 1.3828,1.4922 1.3828,4.1797 0,0.1719 -0.0156,0.5 l -8.125,0 q 0.1093,1.7969 1.0234,2.75 0.9141,0.9531 2.2734,0.9531 1.0157,0 1.7344,-0.539 0.7188,-0.5391 1.1406,-1.6953 z m -6.0625,-2.9844 6.0782,0 q -0.125,-1.375 -0.7032,-2.0625 -0.875,-1.0781 -2.2812,-1.0781 -1.2656,0 -2.1328,0.8515 -0.8672,0.8516 -0.961,2.2891 z"
     id="path503"
     inkscape:connector-curvature="0" />
  <line
     y2="314.5"
     style="color-interpolation:linearRGB;fill:none;stroke:#ff0000;stroke-width:2.66669989;color-rendering:optimizeQuality;image-rendering:optimizeQuality;text-rendering:geometricPrecision"
     x1="94.026604"
     x2="134.15961"
     y1="314.5"
     id="line507" />
  <path
     style="font-size:medium;font-family:SansSerif;color-interpolation:linearRGB;stroke:none;color-rendering:optimizeQuality;image-rendering:optimizeQuality;text-rendering:geometricPrecision"
     d="m 139.1104,344.187 1.875,-0.1718 q 0.1406,1.1406 0.625,1.8593 0.4844,0.7188 1.5156,1.1641 1.0313,0.4453 2.3125,0.4453 1.125,0 2,-0.3359 0.875,-0.336 1.3047,-0.9297 0.4297,-0.5938 0.4297,-1.2813 0,-0.7031 -0.4141,-1.2343 -0.414,-0.5313 -1.3515,-0.8907 -0.6094,-0.2343 -2.6797,-0.7343 -2.0703,-0.5 -2.8985,-0.9375 -1.0781,-0.5625 -1.6093,-1.3985 -0.5313,-0.8359 -0.5313,-1.8672 0,-1.1406 0.6485,-2.1328 0.6484,-0.9922 1.8906,-1.5 1.2422,-0.5078 2.7578,-0.5078 1.6719,0 2.9453,0.5313 1.2734,0.5312 1.961,1.5781 0.6874,1.0469 0.7343,2.375 l -1.9062,0.1406 q -0.1563,-1.4219 -1.0391,-2.1484 -0.8828,-0.7266 -2.6172,-0.7266 -1.7968,0 -2.625,0.6563 -0.8281,0.6562 -0.8281,1.5937 0,0.8125 0.5781,1.3281 0.5782,0.5313 3,1.0782 2.4219,0.5468 3.3282,0.9531 1.3124,0.6094 1.9374,1.539 0.625,0.9297 0.625,2.1329 0,1.2031 -0.6874,2.2656 -0.6876,1.0625 -1.9688,1.6484 -1.2812,0.586 -2.8906,0.586 -2.0469,0 -3.4297,-0.5938 -1.3828,-0.5937 -2.1641,-1.7891 -0.7812,-1.1953 -0.8281,-2.6953 z m 14.46,-8.0781 0,-2.125 1.8437,0 0,2.125 -1.8437,0 z m 0,12.9063 0,-10.8907 1.8437,0 0,10.8907 -1.8437,0 z m 4.6655,0 0,-10.8907 1.6562,0 0,1.5469 q 1.2032,-1.7969 3.4688,-1.7969 0.9844,0 1.8047,0.3594 0.8203,0.3594 1.2344,0.9297 0.414,0.5703 0.5703,1.3672 0.1093,0.5 0.1093,1.7812 l 0,6.7032 -1.8437,0 0,-6.625 q 0,-1.125 -0.2188,-1.6875 -0.2187,-0.5625 -0.7656,-0.8907 -0.5469,-0.3281 -1.2812,-0.3281 -1.1875,0 -2.0391,0.7422 -0.8516,0.7422 -0.8516,2.8359 l 0,5.9532 -1.8437,0 z m 11.3354,0.9062 1.7969,0.2656 q 0.1094,0.8282 0.625,1.2032 0.6875,0.5156 1.875,0.5156 1.2813,0 1.9766,-0.5156 0.6953,-0.5157 0.9453,-1.4375 0.1406,-0.5625 0.125,-2.3594 -1.2031,1.4219 -3,1.4219 -2.25,0 -3.4844,-1.6172 -1.2344,-1.6172 -1.2344,-3.8828 0,-1.5625 0.5704,-2.8829 0.5703,-1.3203 1.6406,-2.039 1.0703,-0.7188 2.5078,-0.7188 1.9375,0 3.1875,1.5625 l 0,-1.3125 1.7031,0 0,9.4063 q 0,2.5469 -0.5234,3.6094 -0.5235,1.0625 -1.6406,1.6796 -1.1172,0.6172 -2.7579,0.6172 -1.9531,0 -3.1562,-0.875 -1.2031,-0.875 -1.1563,-2.6406 z m 1.5313,-6.5469 q 0,2.1407 0.8515,3.125 0.8516,0.9844 2.1329,0.9844 1.2656,0 2.125,-0.9766 0.8593,-0.9765 0.8593,-3.0703 0,-2 -0.8828,-3.0156 -0.8828,-1.0156 -2.1328,-1.0156 -1.2344,0 -2.0937,1 -0.8594,1 -0.8594,2.9687 z m 10.4448,5.6407 0,-15.0313 1.8438,0 0,15.0313 -1.8438,0 z m 12.1655,-3.5 1.9063,0.2343 q -0.4531,1.6719 -1.6719,2.5938 -1.2187,0.9219 -3.125,0.9219 -2.3906,0 -3.789,-1.4766 -1.3985,-1.4766 -1.3985,-4.1328 0,-2.7344 1.4141,-4.2578 1.414,-1.5235 3.6797,-1.5235 2.1875,0 3.5703,1.4922 1.3828,1.4922 1.3828,4.1797 0,0.1719 -0.0156,0.5 l -8.125,0 q 0.1093,1.7969 1.0234,2.75 0.9141,0.9531 2.2734,0.9531 1.0157,0 1.7344,-0.539 0.7188,-0.5391 1.1406,-1.6953 z m -6.0625,-2.9844 6.0782,0 q -0.125,-1.375 -0.7032,-2.0625 -0.875,-1.0781 -2.2812,-1.0781 -1.2656,0 -2.1328,0.8515 -0.8672,0.8516 -0.961,2.2891 z m 16.1231,6.4844 0,-10.8907 1.6406,0 0,1.5313 q 0.5156,-0.7969 1.3672,-1.2891 0.8516,-0.4922 1.9453,-0.4922 1.2031,0 1.9766,0.5078 0.7734,0.5079 1.0859,1.3985 1.2969,-1.9063 3.375,-1.9063 1.6094,0 2.4844,0.8985 0.875,0.8984 0.875,2.7734 l 0,7.4688 -1.8438,0 0,-6.8594 q 0,-1.1094 -0.1718,-1.5938 -0.1719,-0.4843 -0.6485,-0.7812 -0.4765,-0.2969 -1.1172,-0.2969 -1.1406,0 -1.8984,0.7578 -0.7578,0.7578 -0.7578,2.4453 l 0,6.3282 -1.8438,0 0,-7.0782 q 0,-1.2343 -0.4531,-1.8437 -0.4531,-0.6094 -1.4844,-0.6094 -0.7812,0 -1.4375,0.4063 -0.6562,0.4062 -0.9531,1.1953 -0.2969,0.789 -0.2969,2.2734 l 0,5.6563 -1.8437,0 z m 16.8056,-5.4375 q 0,-3.0313 1.6719,-4.4844 1.4063,-1.2188 3.4219,-1.2188 2.25,0 3.6797,1.4766 1.4297,1.4766 1.4297,4.0703 0,2.0938 -0.6328,3.2969 -0.6328,1.2031 -1.836,1.875 -1.2031,0.6719 -2.6406,0.6719 -2.2812,0 -3.6875,-1.4688 -1.4063,-1.4687 -1.4063,-4.2187 z m 1.8907,0 q 0,2.0781 0.914,3.125 0.9141,1.0468 2.2891,1.0468 1.375,0 2.2891,-1.0468 0.914,-1.0469 0.914,-3.1875 0,-2.0313 -0.914,-3.0704 -0.9141,-1.039 -2.2891,-1.039 -1.375,0 -2.2891,1.039 -0.914,1.0391 -0.914,3.1329 z m 17.5385,5.4375 0,-1.375 q -1.0468,1.625 -3.0468,1.625 -1.2969,0 -2.3907,-0.7188 -1.0937,-0.7187 -1.6953,-2.0078 -0.6015,-1.2891 -0.6015,-2.9609 0,-1.625 0.5468,-2.9532 0.5469,-1.3281 1.6329,-2.039 1.0859,-0.711 2.4296,-0.711 0.9844,0 1.75,0.4141 0.7657,0.4141 1.25,1.0859 l 0,-5.3906 1.8282,0 0,15.0313 -1.7032,0 z m -5.8437,-5.4375 q 0,2.0937 0.8828,3.1328 0.8828,1.039 2.0859,1.039 1.2032,0 2.0547,-0.9922 0.8516,-0.9921 0.8516,-3.0234 0,-2.2344 -0.8672,-3.2812 -0.8672,-1.0469 -2.1172,-1.0469 -1.2344,0 -2.0625,1.0078 -0.8281,1.0078 -0.8281,3.1641 z m 17.9136,1.9375 1.9062,0.2343 q -0.4531,1.6719 -1.6719,2.5938 -1.2187,0.9219 -3.125,0.9219 -2.3906,0 -3.789,-1.4766 Q 244,346.312 244,343.6558 q 0,-2.7344 1.4141,-4.2578 1.4141,-1.5235 3.6797,-1.5235 2.1875,0 3.5703,1.4922 1.3828,1.4922 1.3828,4.1797 0,0.1719 -0.0156,0.5 l -8.125,0 q 0.1094,1.7969 1.0234,2.75 0.9141,0.9531 2.2735,0.9531 1.0156,0 1.7343,-0.539 0.7188,-0.5391 1.1407,-1.6953 z m -6.0625,-2.9844 6.0781,0 q -0.125,-1.375 -0.7031,-2.0625 -0.875,-1.0781 -2.2813,-1.0781 -1.2656,0 -2.1328,0.8515 -0.8672,0.8516 -0.9609,2.2891 z m 10.2417,6.4844 0,-15.0313 1.8437,0 0,15.0313 -1.8437,0 z"
     id="path511"
     inkscape:connector-curvature="0" />
  <line
     y2="340.60941"
     style="color-interpolation:linearRGB;fill:none;stroke:#0000ff;stroke-width:2.66669989;color-rendering:optimizeQuality;image-rendering:optimizeQuality;text-rendering:geometricPrecision"
     x1="94.026604"
     x2="134.15961"
     y1="340.60941"
     id="line515" />
</svg>
