<?xml version="1.0" encoding="UTF-8" standalone="no"?>
<svg
   xmlns:dc="http://purl.org/dc/elements/1.1/"
   xmlns:cc="http://creativecommons.org/ns#"
   xmlns:rdf="http://www.w3.org/1999/02/22-rdf-syntax-ns#"
   xmlns:svg="http://www.w3.org/2000/svg"
   xmlns="http://www.w3.org/2000/svg"
   xmlns:sodipodi="http://sodipodi.sourceforge.net/DTD/sodipodi-0.dtd"
   xmlns:inkscape="http://www.inkscape.org/namespaces/inkscape"
   style="fill-opacity:1; color-rendering:auto; color-interpolation:auto; stroke:black; text-rendering:auto; stroke-linecap:square; stroke-miterlimit:10; stroke-opacity:1; shape-rendering:auto; fill:black; stroke-dasharray:none; font-weight:normal; stroke-width:1; font-family:'Dialog'; font-style:normal; stroke-linejoin:miter; font-size:12px; stroke-dashoffset:0; image-rendering:auto;"
   width="560"
   height="420"
   id="svg2"
   version="1.1"
   inkscape:version="0.91 r13725"
   sodipodi:docname="RunAveProvenNum2.svg">
  <metadata
     id="metadata583">
    <rdf:RDF>
      <cc:Work
         rdf:about="">
        <dc:format>image/svg+xml</dc:format>
        <dc:type
           rdf:resource="http://purl.org/dc/dcmitype/StillImage" />
        <dc:title />
      </cc:Work>
    </rdf:RDF>
  </metadata>
  <sodipodi:namedview
     pagecolor="#ffffff"
     bordercolor="#666666"
     borderopacity="1"
     objecttolerance="10"
     gridtolerance="10"
     guidetolerance="10"
     inkscape:pageopacity="0"
     inkscape:pageshadow="2"
     inkscape:window-width="2560"
     inkscape:window-height="1538"
     id="namedview581"
     showgrid="false"
     inkscape:zoom="3.297619"
     inkscape:cx="176.59206"
     inkscape:cy="210"
     inkscape:window-x="-8"
     inkscape:window-y="-8"
     inkscape:window-maximized="1"
     inkscape:current-layer="g5" />
  <!--Generated by the Batik Graphics2D SVG Generator-->
  <defs
     id="genericDefs" />
  <g
     id="g5">
    <defs
       id="defs1">
      <clipPath
         clipPathUnits="userSpaceOnUse"
         id="clipPath1">
        <path
           d="M0 0 L560 0 L560 420 L0 420 L0 0 Z"
           id="path9" />
      </clipPath>
    </defs>
    <g
       style="fill:white; stroke:white;"
       id="g11">
      <rect
         x="0"
         y="0"
         width="560"
         style="clip-path:url(#clipPath1); stroke:none;"
         height="420"
         id="rect13"
         clip-path="url(#clipPath1)" />
    </g>
    <g
       style="fill:white; text-rendering:optimizeSpeed; color-rendering:optimizeSpeed; image-rendering:optimizeSpeed; shape-rendering:crispEdges; color-interpolation:sRGB; stroke:white;"
       id="g15">
      <rect
         x="0"
         y="0"
         width="560"
         style="clip-path:url(#clipPath1); stroke:none;"
         height="420"
         id="rect17"
         clip-path="url(#clipPath1)" />
      <path
         style="stroke:none;"
         d="M73 369 L507 369 L507 40 L73 40 Z"
         id="path19" />
    </g>
    <g
       style="fill:rgb(38,38,38); text-rendering:geometricPrecision; color-interpolation:linearRGB; color-rendering:optimizeQuality; image-rendering:optimizeQuality; stroke:rgb(38,38,38);"
       id="g21">
      <line
         y2="366.83"
         style="fill:none;"
         x1="99.1294"
         x2="99.1294"
         y1="369"
         id="line23" />
      <line
         y2="42.17"
         style="fill:none;"
         x1="99.1294"
         x2="99.1294"
         y1="40"
         id="line25" />
      <line
         y2="366.83"
         style="fill:none;"
         x1="114.4141"
         x2="114.4141"
         y1="369"
         id="line27" />
      <line
         y2="42.17"
         style="fill:none;"
         x1="114.4141"
         x2="114.4141"
         y1="40"
         id="line29" />
      <line
         y2="366.83"
         style="fill:none;"
         x1="125.2588"
         x2="125.2588"
         y1="369"
         id="line31" />
      <line
         y2="42.17"
         style="fill:none;"
         x1="125.2588"
         x2="125.2588"
         y1="40"
         id="line33" />
      <line
         y2="366.83"
         style="fill:none;"
         x1="133.6706"
         x2="133.6706"
         y1="369"
         id="line35" />
      <line
         y2="42.17"
         style="fill:none;"
         x1="133.6706"
         x2="133.6706"
         y1="40"
         id="line37" />
      <line
         y2="366.83"
         style="fill:none;"
         x1="140.5435"
         x2="140.5435"
         y1="369"
         id="line39" />
      <line
         y2="42.17"
         style="fill:none;"
         x1="140.5435"
         x2="140.5435"
         y1="40"
         id="line41" />
      <line
         y2="366.83"
         style="fill:none;"
         x1="146.3545"
         x2="146.3545"
         y1="369"
         id="line43" />
      <line
         y2="42.17"
         style="fill:none;"
         x1="146.3545"
         x2="146.3545"
         y1="40"
         id="line45" />
      <line
         y2="366.83"
         style="fill:none;"
         x1="151.3882"
         x2="151.3882"
         y1="369"
         id="line47" />
      <line
         y2="42.17"
         style="fill:none;"
         x1="151.3882"
         x2="151.3882"
         y1="40"
         id="line49" />
      <line
         y2="366.83"
         style="fill:none;"
         x1="155.8282"
         x2="155.8282"
         y1="369"
         id="line51" />
      <line
         y2="42.17"
         style="fill:none;"
         x1="155.8282"
         x2="155.8282"
         y1="40"
         id="line53" />
      <line
         y2="366.83"
         style="fill:none;"
         x1="185.9294"
         x2="185.9294"
         y1="369"
         id="line55" />
      <line
         y2="42.17"
         style="fill:none;"
         x1="185.9294"
         x2="185.9294"
         y1="40"
         id="line57" />
      <line
         y2="366.83"
         style="fill:none;"
         x1="201.2141"
         x2="201.2141"
         y1="369"
         id="line59" />
      <line
         y2="42.17"
         style="fill:none;"
         x1="201.2141"
         x2="201.2141"
         y1="40"
         id="line61" />
      <line
         y2="366.83"
         style="fill:none;"
         x1="212.0588"
         x2="212.0588"
         y1="369"
         id="line63" />
      <line
         y2="42.17"
         style="fill:none;"
         x1="212.0588"
         x2="212.0588"
         y1="40"
         id="line65" />
      <line
         y2="366.83"
         style="fill:none;"
         x1="220.4706"
         x2="220.4706"
         y1="369"
         id="line67" />
      <line
         y2="42.17"
         style="fill:none;"
         x1="220.4706"
         x2="220.4706"
         y1="40"
         id="line69" />
      <line
         y2="366.83"
         style="fill:none;"
         x1="227.3435"
         x2="227.3435"
         y1="369"
         id="line71" />
      <line
         y2="42.17"
         style="fill:none;"
         x1="227.3435"
         x2="227.3435"
         y1="40"
         id="line73" />
      <line
         y2="366.83"
         style="fill:none;"
         x1="233.1545"
         x2="233.1545"
         y1="369"
         id="line75" />
      <line
         y2="42.17"
         style="fill:none;"
         x1="233.1545"
         x2="233.1545"
         y1="40"
         id="line77" />
      <line
         y2="366.83"
         style="fill:none;"
         x1="238.1882"
         x2="238.1882"
         y1="369"
         id="line79" />
      <line
         y2="42.17"
         style="fill:none;"
         x1="238.1882"
         x2="238.1882"
         y1="40"
         id="line81" />
      <line
         y2="366.83"
         style="fill:none;"
         x1="242.6283"
         x2="242.6283"
         y1="369"
         id="line83" />
      <line
         y2="42.17"
         style="fill:none;"
         x1="242.6283"
         x2="242.6283"
         y1="40"
         id="line85" />
      <line
         y2="366.83"
         style="fill:none;"
         x1="272.7294"
         x2="272.7294"
         y1="369"
         id="line87" />
      <line
         y2="42.17"
         style="fill:none;"
         x1="272.7294"
         x2="272.7294"
         y1="40"
         id="line89" />
      <line
         y2="366.83"
         style="fill:none;"
         x1="288.0141"
         x2="288.0141"
         y1="369"
         id="line91" />
      <line
         y2="42.17"
         style="fill:none;"
         x1="288.0141"
         x2="288.0141"
         y1="40"
         id="line93" />
      <line
         y2="366.83"
         style="fill:none;"
         x1="298.8588"
         x2="298.8588"
         y1="369"
         id="line95" />
      <line
         y2="42.17"
         style="fill:none;"
         x1="298.8588"
         x2="298.8588"
         y1="40"
         id="line97" />
      <line
         y2="366.83"
         style="fill:none;"
         x1="307.2706"
         x2="307.2706"
         y1="369"
         id="line99" />
      <line
         y2="42.17"
         style="fill:none;"
         x1="307.2706"
         x2="307.2706"
         y1="40"
         id="line101" />
      <line
         y2="366.83"
         style="fill:none;"
         x1="314.1435"
         x2="314.1435"
         y1="369"
         id="line103" />
      <line
         y2="42.17"
         style="fill:none;"
         x1="314.1435"
         x2="314.1435"
         y1="40"
         id="line105" />
      <line
         y2="366.83"
         style="fill:none;"
         x1="319.9545"
         x2="319.9545"
         y1="369"
         id="line107" />
      <line
         y2="42.17"
         style="fill:none;"
         x1="319.9545"
         x2="319.9545"
         y1="40"
         id="line109" />
      <line
         y2="366.83"
         style="fill:none;"
         x1="324.9882"
         x2="324.9882"
         y1="369"
         id="line111" />
      <line
         y2="42.17"
         style="fill:none;"
         x1="324.9882"
         x2="324.9882"
         y1="40"
         id="line113" />
      <line
         y2="366.83"
         style="fill:none;"
         x1="329.4283"
         x2="329.4283"
         y1="369"
         id="line115" />
      <line
         y2="42.17"
         style="fill:none;"
         x1="329.4283"
         x2="329.4283"
         y1="40"
         id="line117" />
      <line
         y2="366.83"
         style="fill:none;"
         x1="359.5294"
         x2="359.5294"
         y1="369"
         id="line119" />
      <line
         y2="42.17"
         style="fill:none;"
         x1="359.5294"
         x2="359.5294"
         y1="40"
         id="line121" />
      <line
         y2="366.83"
         style="fill:none;"
         x1="374.8141"
         x2="374.8141"
         y1="369"
         id="line123" />
      <line
         y2="42.17"
         style="fill:none;"
         x1="374.8141"
         x2="374.8141"
         y1="40"
         id="line125" />
      <line
         y2="366.83"
         style="fill:none;"
         x1="385.6588"
         x2="385.6588"
         y1="369"
         id="line127" />
      <line
         y2="42.17"
         style="fill:none;"
         x1="385.6588"
         x2="385.6588"
         y1="40"
         id="line129" />
      <line
         y2="366.83"
         style="fill:none;"
         x1="394.0706"
         x2="394.0706"
         y1="369"
         id="line131" />
      <line
         y2="42.17"
         style="fill:none;"
         x1="394.0706"
         x2="394.0706"
         y1="40"
         id="line133" />
      <line
         y2="366.83"
         style="fill:none;"
         x1="400.9435"
         x2="400.9435"
         y1="369"
         id="line135" />
      <line
         y2="42.17"
         style="fill:none;"
         x1="400.9435"
         x2="400.9435"
         y1="40"
         id="line137" />
      <line
         y2="366.83"
         style="fill:none;"
         x1="406.7545"
         x2="406.7545"
         y1="369"
         id="line139" />
      <line
         y2="42.17"
         style="fill:none;"
         x1="406.7545"
         x2="406.7545"
         y1="40"
         id="line141" />
      <line
         y2="366.83"
         style="fill:none;"
         x1="411.7882"
         x2="411.7882"
         y1="369"
         id="line143" />
      <line
         y2="42.17"
         style="fill:none;"
         x1="411.7882"
         x2="411.7882"
         y1="40"
         id="line145" />
      <line
         y2="366.83"
         style="fill:none;"
         x1="416.2282"
         x2="416.2282"
         y1="369"
         id="line147" />
      <line
         y2="42.17"
         style="fill:none;"
         x1="416.2282"
         x2="416.2282"
         y1="40"
         id="line149" />
      <line
         y2="366.83"
         style="fill:none;"
         x1="446.3294"
         x2="446.3294"
         y1="369"
         id="line151" />
      <line
         y2="42.17"
         style="fill:none;"
         x1="446.3294"
         x2="446.3294"
         y1="40"
         id="line153" />
      <line
         y2="366.83"
         style="fill:none;"
         x1="461.6141"
         x2="461.6141"
         y1="369"
         id="line155" />
      <line
         y2="42.17"
         style="fill:none;"
         x1="461.6141"
         x2="461.6141"
         y1="40"
         id="line157" />
      <line
         y2="366.83"
         style="fill:none;"
         x1="472.4588"
         x2="472.4588"
         y1="369"
         id="line159" />
      <line
         y2="42.17"
         style="fill:none;"
         x1="472.4588"
         x2="472.4588"
         y1="40"
         id="line161" />
      <line
         y2="366.83"
         style="fill:none;"
         x1="480.8706"
         x2="480.8706"
         y1="369"
         id="line163" />
      <line
         y2="42.17"
         style="fill:none;"
         x1="480.8706"
         x2="480.8706"
         y1="40"
         id="line165" />
      <line
         y2="366.83"
         style="fill:none;"
         x1="487.7435"
         x2="487.7435"
         y1="369"
         id="line167" />
      <line
         y2="42.17"
         style="fill:none;"
         x1="487.7435"
         x2="487.7435"
         y1="40"
         id="line169" />
      <line
         y2="366.83"
         style="fill:none;"
         x1="493.5545"
         x2="493.5545"
         y1="369"
         id="line171" />
      <line
         y2="42.17"
         style="fill:none;"
         x1="493.5545"
         x2="493.5545"
         y1="40"
         id="line173" />
      <line
         y2="366.83"
         style="fill:none;"
         x1="498.5882"
         x2="498.5882"
         y1="369"
         id="line175" />
      <line
         y2="42.17"
         style="fill:none;"
         x1="498.5882"
         x2="498.5882"
         y1="40"
         id="line177" />
      <line
         y2="366.83"
         style="fill:none;"
         x1="503.0282"
         x2="503.0282"
         y1="369"
         id="line179" />
      <line
         y2="42.17"
         style="fill:none;"
         x1="503.0282"
         x2="503.0282"
         y1="40"
         id="line181" />
    </g>
    <g
       transform="translate(202,415)"
       style="font-size:21px; fill:rgb(38,38,38); text-rendering:geometricPrecision; color-rendering:optimizeQuality; image-rendering:optimizeQuality; font-family:'SansSerif'; color-interpolation:linearRGB; stroke:rgb(38,38,38);"
       id="g183">
      <path
         style="stroke:none;"
         d="M1.5625 0 L1.5625 -15.0312 L4.5469 -15.0312 L8.1094 -4.3906 Q8.6094 -2.9062 8.8281 -2.1562 Q9.0781 -2.9844 9.625 -4.5781 L13.2344 -15.0312 L15.9062 -15.0312 L15.9062 0 L13.9844 0 L13.9844 -12.5781 L9.625 0 L7.8281 0 L3.4688 -12.7969 L3.4688 0 L1.5625 0 ZM26.3369 -3.5 L28.2432 -3.2656 Q27.79 -1.5938 26.5713 -0.6719 Q25.3525 0.25 23.4463 0.25 Q21.0557 0.25 19.6572 -1.2266 Q18.2588 -2.7031 18.2588 -5.3594 Q18.2588 -8.0938 19.6729 -9.6172 Q21.0869 -11.1406 23.3525 -11.1406 Q25.54 -11.1406 26.9229 -9.6484 Q28.3057 -8.1562 28.3057 -5.4688 Q28.3057 -5.2969 28.29 -4.9688 L20.165 -4.9688 Q20.2744 -3.1719 21.1885 -2.2188 Q22.1025 -1.2656 23.4619 -1.2656 Q24.4775 -1.2656 25.1963 -1.8047 Q25.915 -2.3438 26.3369 -3.5 ZM20.2744 -6.4844 L26.3525 -6.4844 Q26.2275 -7.8594 25.6494 -8.5469 Q24.7744 -9.625 23.3682 -9.625 Q22.1025 -9.625 21.2354 -8.7734 Q20.3682 -7.9219 20.2744 -6.4844 ZM37.6567 -1.3438 Q36.6411 -0.4688 35.688 -0.1094 Q34.7349 0.25 33.6567 0.25 Q31.8599 0.25 30.8989 -0.625 Q29.938 -1.5 29.938 -2.875 Q29.938 -3.6719 30.2974 -4.3359 Q30.6567 -5 31.2505 -5.3984 Q31.8442 -5.7969 32.5786 -6 Q33.1255 -6.1406 34.2192 -6.2812 Q36.4536 -6.5469 37.5161 -6.9062 Q37.5161 -7.2969 37.5161 -7.3906 Q37.5161 -8.5156 37.0005 -8.9844 Q36.2817 -9.6094 34.8911 -9.6094 Q33.5942 -9.6094 32.9692 -9.1562 Q32.3442 -8.7031 32.0474 -7.5312 L30.2505 -7.7812 Q30.5005 -8.9375 31.063 -9.6484 Q31.6255 -10.3594 32.688 -10.75 Q33.7505 -11.1406 35.1567 -11.1406 Q36.563 -11.1406 37.4302 -10.8125 Q38.2974 -10.4844 38.7114 -9.9844 Q39.1255 -9.4844 39.2817 -8.7188 Q39.3755 -8.25 39.3755 -7.0312 L39.3755 -4.5625 Q39.3755 -1.9844 39.4927 -1.3047 Q39.6099 -0.625 39.9536 0 L38.0317 0 Q37.7505 -0.5781 37.6567 -1.3438 ZM37.5161 -5.4688 Q36.5005 -5.0625 34.5005 -4.7656 Q33.3599 -4.6094 32.8833 -4.3984 Q32.4067 -4.1875 32.1567 -3.7969 Q31.9067 -3.4062 31.9067 -2.9219 Q31.9067 -2.1875 32.4614 -1.6953 Q33.0161 -1.2031 34.0942 -1.2031 Q35.1567 -1.2031 35.9927 -1.6719 Q36.8286 -2.1406 37.2192 -2.9375 Q37.5161 -3.5625 37.5161 -4.7812 L37.5161 -5.4688 ZM42.2422 0 L42.2422 -10.8906 L43.8984 -10.8906 L43.8984 -9.3438 Q45.1016 -11.1406 47.3672 -11.1406 Q48.3516 -11.1406 49.1719 -10.7812 Q49.9922 -10.4219 50.4062 -9.8516 Q50.8203 -9.2812 50.9766 -8.4844 Q51.0859 -7.9844 51.0859 -6.7031 L51.0859 0 L49.2422 0 L49.2422 -6.625 Q49.2422 -7.75 49.0234 -8.3125 Q48.8047 -8.875 48.2578 -9.2031 Q47.7109 -9.5312 46.9766 -9.5312 Q45.7891 -9.5312 44.9375 -8.7891 Q44.0859 -8.0469 44.0859 -5.9531 L44.0859 0 L42.2422 0 ZM59.7246 0 L59.7246 -10.8906 L61.3965 -10.8906 L61.3965 -9.2344 Q62.0215 -10.3906 62.5605 -10.7656 Q63.0996 -11.1406 63.7559 -11.1406 Q64.6777 -11.1406 65.6465 -10.5469 L65.0059 -8.8281 Q64.334 -9.2344 63.6621 -9.2344 Q63.0527 -9.2344 62.5684 -8.8672 Q62.084 -8.5 61.8809 -7.8594 Q61.5684 -6.875 61.5684 -5.7031 L61.5684 0 L59.7246 0 ZM74.2021 -3.5 L76.1084 -3.2656 Q75.6553 -1.5938 74.4365 -0.6719 Q73.2178 0.25 71.3115 0.25 Q68.9209 0.25 67.5225 -1.2266 Q66.124 -2.7031 66.124 -5.3594 Q66.124 -8.0938 67.5381 -9.6172 Q68.9521 -11.1406 71.2178 -11.1406 Q73.4053 -11.1406 74.7881 -9.6484 Q76.1709 -8.1562 76.1709 -5.4688 Q76.1709 -5.2969 76.1553 -4.9688 L68.0303 -4.9688 Q68.1396 -3.1719 69.0537 -2.2188 Q69.9678 -1.2656 71.3271 -1.2656 Q72.3428 -1.2656 73.0615 -1.8047 Q73.7803 -2.3438 74.2021 -3.5 ZM68.1396 -6.4844 L74.2178 -6.4844 Q74.0928 -7.8594 73.5146 -8.5469 Q72.6396 -9.625 71.2334 -9.625 Q69.9678 -9.625 69.1006 -8.7734 Q68.2334 -7.9219 68.1396 -6.4844 ZM85.522 -3.9844 L87.3501 -3.75 Q87.0532 -1.875 85.8267 -0.8125 Q84.6001 0.25 82.8032 0.25 Q80.5688 0.25 79.2173 -1.2109 Q77.8657 -2.6719 77.8657 -5.4062 Q77.8657 -7.1719 78.4438 -8.4922 Q79.022 -9.8125 80.2173 -10.4766 Q81.4126 -11.1406 82.8188 -11.1406 Q84.6001 -11.1406 85.7251 -10.2422 Q86.8501 -9.3438 87.1626 -7.6875 L85.3813 -7.4062 Q85.1157 -8.5156 84.4673 -9.0703 Q83.8188 -9.625 82.897 -9.625 Q81.4907 -9.625 80.6235 -8.625 Q79.7563 -7.625 79.7563 -5.4531 Q79.7563 -3.2656 80.6001 -2.2656 Q81.4438 -1.2656 82.7876 -1.2656 Q83.8813 -1.2656 84.6079 -1.9375 Q85.3345 -2.6094 85.522 -3.9844 ZM96.022 -1.3438 Q95.0063 -0.4688 94.0532 -0.1094 Q93.1001 0.25 92.022 0.25 Q90.2251 0.25 89.2642 -0.625 Q88.3032 -1.5 88.3032 -2.875 Q88.3032 -3.6719 88.6626 -4.3359 Q89.022 -5 89.6157 -5.3984 Q90.2095 -5.7969 90.9438 -6 Q91.4907 -6.1406 92.5845 -6.2812 Q94.8188 -6.5469 95.8813 -6.9062 Q95.8813 -7.2969 95.8813 -7.3906 Q95.8813 -8.5156 95.3657 -8.9844 Q94.647 -9.6094 93.2563 -9.6094 Q91.9595 -9.6094 91.3345 -9.1562 Q90.7095 -8.7031 90.4126 -7.5312 L88.6157 -7.7812 Q88.8657 -8.9375 89.4282 -9.6484 Q89.9907 -10.3594 91.0532 -10.75 Q92.1157 -11.1406 93.522 -11.1406 Q94.9282 -11.1406 95.7954 -10.8125 Q96.6626 -10.4844 97.0767 -9.9844 Q97.4907 -9.4844 97.647 -8.7188 Q97.7407 -8.25 97.7407 -7.0312 L97.7407 -4.5625 Q97.7407 -1.9844 97.8579 -1.3047 Q97.9751 -0.625 98.3188 0 L96.397 0 Q96.1157 -0.5781 96.022 -1.3438 ZM95.8813 -5.4688 Q94.8657 -5.0625 92.8657 -4.7656 Q91.7251 -4.6094 91.2485 -4.3984 Q90.772 -4.1875 90.522 -3.7969 Q90.272 -3.4062 90.272 -2.9219 Q90.272 -2.1875 90.8267 -1.6953 Q91.3813 -1.2031 92.4595 -1.2031 Q93.522 -1.2031 94.3579 -1.6719 Q95.1938 -2.1406 95.5845 -2.9375 Q95.8813 -3.5625 95.8813 -4.7812 L95.8813 -5.4688 ZM100.5605 0 L100.5605 -15.0312 L102.4043 -15.0312 L102.4043 0 L100.5605 0 ZM105.2261 0 L105.2261 -15.0312 L107.0698 -15.0312 L107.0698 0 L105.2261 0 ZM119.8042 -1.6562 L120.0698 -0.0156 Q119.2886 0.1406 118.6636 0.1406 Q117.6636 0.1406 117.1089 -0.1797 Q116.5542 -0.5 116.3276 -1.0156 Q116.1011 -1.5312 116.1011 -3.1875 L116.1011 -9.4531 L114.7573 -9.4531 L114.7573 -10.8906 L116.1011 -10.8906 L116.1011 -13.5938 L117.9448 -14.6875 L117.9448 -10.8906 L119.8042 -10.8906 L119.8042 -9.4531 L117.9448 -9.4531 L117.9448 -3.0938 Q117.9448 -2.2969 118.0386 -2.0703 Q118.1323 -1.8438 118.3511 -1.7109 Q118.5698 -1.5781 118.9917 -1.5781 Q119.2886 -1.5781 119.8042 -1.6562 ZM121.6074 -12.9062 L121.6074 -15.0312 L123.4512 -15.0312 L123.4512 -12.9062 L121.6074 -12.9062 ZM121.6074 0 L121.6074 -10.8906 L123.4512 -10.8906 L123.4512 0 L121.6074 0 ZM126.2729 0 L126.2729 -10.8906 L127.9136 -10.8906 L127.9136 -9.3594 Q128.4292 -10.1562 129.2808 -10.6484 Q130.1323 -11.1406 131.2261 -11.1406 Q132.4292 -11.1406 133.2026 -10.6328 Q133.9761 -10.125 134.2886 -9.2344 Q135.5854 -11.1406 137.6636 -11.1406 Q139.2729 -11.1406 140.1479 -10.2422 Q141.0229 -9.3438 141.0229 -7.4688 L141.0229 0 L139.1792 0 L139.1792 -6.8594 Q139.1792 -7.9688 139.0073 -8.4531 Q138.8354 -8.9375 138.3589 -9.2344 Q137.8823 -9.5312 137.2417 -9.5312 Q136.1011 -9.5312 135.3433 -8.7734 Q134.5854 -8.0156 134.5854 -6.3281 L134.5854 0 L132.7417 0 L132.7417 -7.0781 Q132.7417 -8.3125 132.2886 -8.9219 Q131.8354 -9.5312 130.8042 -9.5312 Q130.0229 -9.5312 129.3667 -9.125 Q128.7104 -8.7188 128.4136 -7.9297 Q128.1167 -7.1406 128.1167 -5.6562 L128.1167 0 L126.2729 0 ZM151.2192 -3.5 L153.1255 -3.2656 Q152.6724 -1.5938 151.4536 -0.6719 Q150.2349 0.25 148.3286 0.25 Q145.938 0.25 144.5396 -1.2266 Q143.1411 -2.7031 143.1411 -5.3594 Q143.1411 -8.0938 144.5552 -9.6172 Q145.9692 -11.1406 148.2349 -11.1406 Q150.4224 -11.1406 151.8052 -9.6484 Q153.188 -8.1562 153.188 -5.4688 Q153.188 -5.2969 153.1724 -4.9688 L145.0474 -4.9688 Q145.1567 -3.1719 146.0708 -2.2188 Q146.9849 -1.2656 148.3442 -1.2656 Q149.3599 -1.2656 150.0786 -1.8047 Q150.7974 -2.3438 151.2192 -3.5 ZM145.1567 -6.4844 L151.2349 -6.4844 Q151.1099 -7.8594 150.5317 -8.5469 Q149.6567 -9.625 148.2505 -9.625 Q146.9849 -9.625 146.1177 -8.7734 Q145.2505 -7.9219 145.1567 -6.4844 ZM155.9141 0 L155.9141 -2.1094 L158.0234 -2.1094 L158.0234 0 Q158.0234 1.1562 157.6094 1.8672 Q157.1953 2.5781 156.3047 2.9688 L155.8047 2.1875 Q156.3828 1.9219 156.6562 1.4297 Q156.9297 0.9375 156.9609 0 L155.9141 0 Z"
         id="path185" />
    </g>
    <g
       transform="translate(368,415)"
       style="font-size:21px; fill:rgb(38,38,38); text-rendering:geometricPrecision; color-rendering:optimizeQuality; image-rendering:optimizeQuality; font-family:'mwb_cmmi10'; color-interpolation:linearRGB; stroke:rgb(38,38,38);"
       id="g187">
      <path
         style="stroke:none;"
         d="M3.2656 -0.3125 Q3.2656 -0.4688 3.2969 -0.5469 L5.5 -7.75 L3.6094 -7.75 Q2.8438 -7.75 2.1719 -7.2656 Q1.5 -6.7812 1.0625 -6.0469 Q1.0312 -5.9688 0.9375 -5.9688 L0.7031 -5.9688 Q0.5 -5.9688 0.5 -6.1719 Q0.5 -6.2188 0.5469 -6.2969 Q1.2344 -7.4688 2.0156 -8.2578 Q2.7969 -9.0469 3.7812 -9.0469 L10.2188 -9.0469 Q10.4531 -9.0469 10.6016 -8.8984 Q10.75 -8.75 10.75 -8.5156 Q10.75 -8.2188 10.5312 -7.9844 Q10.3125 -7.75 10 -7.75 L6.1875 -7.75 L4.7812 -0.5 Q4.7031 -0.1719 4.4766 0.0547 Q4.25 0.2812 3.9062 0.2812 Q3.6406 0.2812 3.4531 0.1094 Q3.2656 -0.0625 3.2656 -0.3125 Z"
         id="path189" />
    </g>
    <g
       style="fill:rgb(38,38,38); text-rendering:geometricPrecision; color-interpolation:linearRGB; color-rendering:optimizeQuality; image-rendering:optimizeQuality; stroke:rgb(38,38,38);"
       id="g191">
      <line
         y2="369"
         style="fill:none;"
         x1="73"
         x2="507"
         y1="369"
         id="line193" />
      <line
         y2="40"
         style="fill:none;"
         x1="73"
         x2="507"
         y1="40"
         id="line195" />
      <line
         y2="364.66"
         style="fill:none;"
         x1="73"
         x2="73"
         y1="369"
         id="line197" />
      <line
         y2="44.34"
         style="fill:none;"
         x1="73"
         x2="73"
         y1="40"
         id="line199" />
      <line
         y2="364.66"
         style="fill:none;"
         x1="159.8"
         x2="159.8"
         y1="369"
         id="line201" />
      <line
         y2="44.34"
         style="fill:none;"
         x1="159.8"
         x2="159.8"
         y1="40"
         id="line203" />
      <line
         y2="364.66"
         style="fill:none;"
         x1="246.6"
         x2="246.6"
         y1="369"
         id="line205" />
      <line
         y2="44.34"
         style="fill:none;"
         x1="246.6"
         x2="246.6"
         y1="40"
         id="line207" />
      <line
         y2="364.66"
         style="fill:none;"
         x1="333.4"
         x2="333.4"
         y1="369"
         id="line209" />
      <line
         y2="44.34"
         style="fill:none;"
         x1="333.4"
         x2="333.4"
         y1="40"
         id="line211" />
      <line
         y2="364.66"
         style="fill:none;"
         x1="420.2"
         x2="420.2"
         y1="369"
         id="line213" />
      <line
         y2="44.34"
         style="fill:none;"
         x1="420.2"
         x2="420.2"
         y1="40"
         id="line215" />
      <line
         y2="364.66"
         style="fill:none;"
         x1="507"
         x2="507"
         y1="369"
         id="line217" />
      <line
         y2="44.34"
         style="fill:none;"
         x1="507"
         x2="507"
         y1="40"
         id="line219" />
    </g>
    <g
       transform="translate(60,391)"
       style="font-size:13px; fill:rgb(38,38,38); text-rendering:geometricPrecision; color-rendering:optimizeQuality; image-rendering:optimizeQuality; font-family:'SansSerif'; color-interpolation:linearRGB; stroke:rgb(38,38,38);"
       id="g221">
      <path
         style="stroke:none;"
         d="M4.8438 0 L3.7031 0 L3.7031 -7.2812 Q3.2812 -6.8906 2.6172 -6.4922 Q1.9531 -6.0938 1.4219 -5.9062 L1.4219 -7.0156 Q2.375 -7.4531 3.0938 -8.0938 Q3.8125 -8.7344 4.1094 -9.3438 L4.8438 -9.3438 L4.8438 0 ZM7.7769 -4.5938 Q7.7769 -6.2344 8.1128 -7.2422 Q8.4487 -8.25 9.1206 -8.7969 Q9.7925 -9.3438 10.8081 -9.3438 Q11.5581 -9.3438 12.1206 -9.0391 Q12.6831 -8.7344 13.0503 -8.1719 Q13.4175 -7.6094 13.6284 -6.7891 Q13.8394 -5.9688 13.8394 -4.5938 Q13.8394 -2.9531 13.5034 -1.9453 Q13.1675 -0.9375 12.4956 -0.3906 Q11.8237 0.1562 10.8081 0.1562 Q9.4644 0.1562 8.6831 -0.8125 Q7.7769 -1.9688 7.7769 -4.5938 ZM8.9487 -4.5938 Q8.9487 -2.2969 9.48 -1.5391 Q10.0112 -0.7812 10.8081 -0.7812 Q11.5894 -0.7812 12.1284 -1.5391 Q12.6675 -2.2969 12.6675 -4.5938 Q12.6675 -6.8906 12.1284 -7.6406 Q11.5894 -8.3906 10.7925 -8.3906 Q10.0112 -8.3906 9.5269 -7.7344 Q8.9487 -6.875 8.9487 -4.5938 Z"
         id="path223" />
    </g>
    <g
       transform="translate(75,385)"
       style="font-size:11px; fill:rgb(38,38,38); text-rendering:geometricPrecision; color-rendering:optimizeQuality; image-rendering:optimizeQuality; font-family:'SansSerif'; color-interpolation:linearRGB; stroke:rgb(38,38,38);"
       id="g225">
      <path
         style="stroke:none;"
         d="M0.3438 -2.3594 L0.3438 -3.3281 L3.3125 -3.3281 L3.3125 -2.3594 L0.3438 -2.3594 ZM7.7568 0 L6.7881 0 L6.7881 -6.1562 Q6.4443 -5.8281 5.8818 -5.4922 Q5.3193 -5.1562 4.8662 -5 L4.8662 -5.9375 Q5.6787 -6.3125 6.2803 -6.8516 Q6.8818 -7.3906 7.1318 -7.9062 L7.7568 -7.9062 L7.7568 0 Z"
         id="path227" />
    </g>
    <g
       transform="translate(148,391)"
       style="font-size:13px; fill:rgb(38,38,38); text-rendering:geometricPrecision; color-rendering:optimizeQuality; image-rendering:optimizeQuality; font-family:'SansSerif'; color-interpolation:linearRGB; stroke:rgb(38,38,38);"
       id="g229">
      <path
         style="stroke:none;"
         d="M4.8438 0 L3.7031 0 L3.7031 -7.2812 Q3.2812 -6.8906 2.6172 -6.4922 Q1.9531 -6.0938 1.4219 -5.9062 L1.4219 -7.0156 Q2.375 -7.4531 3.0938 -8.0938 Q3.8125 -8.7344 4.1094 -9.3438 L4.8438 -9.3438 L4.8438 0 ZM7.7769 -4.5938 Q7.7769 -6.2344 8.1128 -7.2422 Q8.4487 -8.25 9.1206 -8.7969 Q9.7925 -9.3438 10.8081 -9.3438 Q11.5581 -9.3438 12.1206 -9.0391 Q12.6831 -8.7344 13.0503 -8.1719 Q13.4175 -7.6094 13.6284 -6.7891 Q13.8394 -5.9688 13.8394 -4.5938 Q13.8394 -2.9531 13.5034 -1.9453 Q13.1675 -0.9375 12.4956 -0.3906 Q11.8237 0.1562 10.8081 0.1562 Q9.4644 0.1562 8.6831 -0.8125 Q7.7769 -1.9688 7.7769 -4.5938 ZM8.9487 -4.5938 Q8.9487 -2.2969 9.48 -1.5391 Q10.0112 -0.7812 10.8081 -0.7812 Q11.5894 -0.7812 12.1284 -1.5391 Q12.6675 -2.2969 12.6675 -4.5938 Q12.6675 -6.8906 12.1284 -7.6406 Q11.5894 -8.3906 10.7925 -8.3906 Q10.0112 -8.3906 9.5269 -7.7344 Q8.9487 -6.875 8.9487 -4.5938 Z"
         id="path231" />
    </g>
    <g
       transform="translate(163,385)"
       style="font-size:11px; fill:rgb(38,38,38); text-rendering:geometricPrecision; color-rendering:optimizeQuality; image-rendering:optimizeQuality; font-family:'SansSerif'; color-interpolation:linearRGB; stroke:rgb(38,38,38);"
       id="g233">
      <path
         style="stroke:none;"
         d="M0.4531 -3.8906 Q0.4531 -5.2812 0.7422 -6.1328 Q1.0312 -6.9844 1.6016 -7.4453 Q2.1719 -7.9062 3.0312 -7.9062 Q3.6562 -7.9062 4.1328 -7.6484 Q4.6094 -7.3906 4.9219 -6.9141 Q5.2344 -6.4375 5.4141 -5.7422 Q5.5938 -5.0469 5.5938 -3.8906 Q5.5938 -2.5 5.3047 -1.6484 Q5.0156 -0.7969 4.4531 -0.3281 Q3.8906 0.1406 3.0312 0.1406 Q1.8906 0.1406 1.2344 -0.6875 Q0.4531 -1.6719 0.4531 -3.8906 ZM1.4531 -3.8906 Q1.4531 -1.9375 1.9062 -1.2969 Q2.3594 -0.6562 3.0312 -0.6562 Q3.6875 -0.6562 4.1406 -1.3047 Q4.5938 -1.9531 4.5938 -3.8906 Q4.5938 -5.8281 4.1406 -6.4688 Q3.6875 -7.1094 3.0156 -7.1094 Q2.3438 -7.1094 1.9531 -6.5469 Q1.4531 -5.8281 1.4531 -3.8906 Z"
         id="path235" />
    </g>
    <g
       transform="translate(235,391)"
       style="font-size:13px; fill:rgb(38,38,38); text-rendering:geometricPrecision; color-rendering:optimizeQuality; image-rendering:optimizeQuality; font-family:'SansSerif'; color-interpolation:linearRGB; stroke:rgb(38,38,38);"
       id="g237">
      <path
         style="stroke:none;"
         d="M4.8438 0 L3.7031 0 L3.7031 -7.2812 Q3.2812 -6.8906 2.6172 -6.4922 Q1.9531 -6.0938 1.4219 -5.9062 L1.4219 -7.0156 Q2.375 -7.4531 3.0938 -8.0938 Q3.8125 -8.7344 4.1094 -9.3438 L4.8438 -9.3438 L4.8438 0 ZM7.7769 -4.5938 Q7.7769 -6.2344 8.1128 -7.2422 Q8.4487 -8.25 9.1206 -8.7969 Q9.7925 -9.3438 10.8081 -9.3438 Q11.5581 -9.3438 12.1206 -9.0391 Q12.6831 -8.7344 13.0503 -8.1719 Q13.4175 -7.6094 13.6284 -6.7891 Q13.8394 -5.9688 13.8394 -4.5938 Q13.8394 -2.9531 13.5034 -1.9453 Q13.1675 -0.9375 12.4956 -0.3906 Q11.8237 0.1562 10.8081 0.1562 Q9.4644 0.1562 8.6831 -0.8125 Q7.7769 -1.9688 7.7769 -4.5938 ZM8.9487 -4.5938 Q8.9487 -2.2969 9.48 -1.5391 Q10.0112 -0.7812 10.8081 -0.7812 Q11.5894 -0.7812 12.1284 -1.5391 Q12.6675 -2.2969 12.6675 -4.5938 Q12.6675 -6.8906 12.1284 -7.6406 Q11.5894 -8.3906 10.7925 -8.3906 Q10.0112 -8.3906 9.5269 -7.7344 Q8.9487 -6.875 8.9487 -4.5938 Z"
         id="path239" />
    </g>
    <g
       transform="translate(250,385)"
       style="font-size:11px; fill:rgb(38,38,38); text-rendering:geometricPrecision; color-rendering:optimizeQuality; image-rendering:optimizeQuality; font-family:'SansSerif'; color-interpolation:linearRGB; stroke:rgb(38,38,38);"
       id="g241">
      <path
         style="stroke:none;"
         d="M4.0938 0 L3.125 0 L3.125 -6.1562 Q2.7812 -5.8281 2.2188 -5.4922 Q1.6562 -5.1562 1.2031 -5 L1.2031 -5.9375 Q2.0156 -6.3125 2.6172 -6.8516 Q3.2188 -7.3906 3.4688 -7.9062 L4.0938 -7.9062 L4.0938 0 Z"
         id="path243" />
    </g>
    <g
       transform="translate(322,391)"
       style="font-size:13px; fill:rgb(38,38,38); text-rendering:geometricPrecision; color-rendering:optimizeQuality; image-rendering:optimizeQuality; font-family:'SansSerif'; color-interpolation:linearRGB; stroke:rgb(38,38,38);"
       id="g245">
      <path
         style="stroke:none;"
         d="M4.8438 0 L3.7031 0 L3.7031 -7.2812 Q3.2812 -6.8906 2.6172 -6.4922 Q1.9531 -6.0938 1.4219 -5.9062 L1.4219 -7.0156 Q2.375 -7.4531 3.0938 -8.0938 Q3.8125 -8.7344 4.1094 -9.3438 L4.8438 -9.3438 L4.8438 0 ZM7.7769 -4.5938 Q7.7769 -6.2344 8.1128 -7.2422 Q8.4487 -8.25 9.1206 -8.7969 Q9.7925 -9.3438 10.8081 -9.3438 Q11.5581 -9.3438 12.1206 -9.0391 Q12.6831 -8.7344 13.0503 -8.1719 Q13.4175 -7.6094 13.6284 -6.7891 Q13.8394 -5.9688 13.8394 -4.5938 Q13.8394 -2.9531 13.5034 -1.9453 Q13.1675 -0.9375 12.4956 -0.3906 Q11.8237 0.1562 10.8081 0.1562 Q9.4644 0.1562 8.6831 -0.8125 Q7.7769 -1.9688 7.7769 -4.5938 ZM8.9487 -4.5938 Q8.9487 -2.2969 9.48 -1.5391 Q10.0112 -0.7812 10.8081 -0.7812 Q11.5894 -0.7812 12.1284 -1.5391 Q12.6675 -2.2969 12.6675 -4.5938 Q12.6675 -6.8906 12.1284 -7.6406 Q11.5894 -8.3906 10.7925 -8.3906 Q10.0112 -8.3906 9.5269 -7.7344 Q8.9487 -6.875 8.9487 -4.5938 Z"
         id="path247" />
    </g>
    <g
       transform="translate(337,385)"
       style="font-size:11px; fill:rgb(38,38,38); text-rendering:geometricPrecision; color-rendering:optimizeQuality; image-rendering:optimizeQuality; font-family:'SansSerif'; color-interpolation:linearRGB; stroke:rgb(38,38,38);"
       id="g249">
      <path
         style="stroke:none;"
         d="M5.5312 -0.9219 L5.5312 0 L0.3281 0 Q0.3281 -0.3438 0.4531 -0.6719 Q0.6406 -1.2031 1.0781 -1.7188 Q1.5156 -2.2344 2.3438 -2.9062 Q3.625 -3.9688 4.0781 -4.5781 Q4.5312 -5.1875 4.5312 -5.7344 Q4.5312 -6.3125 4.125 -6.7109 Q3.7188 -7.1094 3.0469 -7.1094 Q2.3594 -7.1094 1.9375 -6.6875 Q1.5156 -6.2656 1.5156 -5.5312 L0.5156 -5.625 Q0.625 -6.7344 1.2891 -7.3203 Q1.9531 -7.9062 3.0781 -7.9062 Q4.2031 -7.9062 4.8672 -7.2812 Q5.5312 -6.6562 5.5312 -5.7188 Q5.5312 -5.25 5.3359 -4.7891 Q5.1406 -4.3281 4.6953 -3.8281 Q4.25 -3.3281 3.2031 -2.4375 Q2.3281 -1.7188 2.0859 -1.4531 Q1.8438 -1.1875 1.6719 -0.9219 L5.5312 -0.9219 Z"
         id="path251" />
    </g>
    <g
       transform="translate(409,391)"
       style="font-size:13px; fill:rgb(38,38,38); text-rendering:geometricPrecision; color-rendering:optimizeQuality; image-rendering:optimizeQuality; font-family:'SansSerif'; color-interpolation:linearRGB; stroke:rgb(38,38,38);"
       id="g253">
      <path
         style="stroke:none;"
         d="M4.8438 0 L3.7031 0 L3.7031 -7.2812 Q3.2812 -6.8906 2.6172 -6.4922 Q1.9531 -6.0938 1.4219 -5.9062 L1.4219 -7.0156 Q2.375 -7.4531 3.0938 -8.0938 Q3.8125 -8.7344 4.1094 -9.3438 L4.8438 -9.3438 L4.8438 0 ZM7.7769 -4.5938 Q7.7769 -6.2344 8.1128 -7.2422 Q8.4487 -8.25 9.1206 -8.7969 Q9.7925 -9.3438 10.8081 -9.3438 Q11.5581 -9.3438 12.1206 -9.0391 Q12.6831 -8.7344 13.0503 -8.1719 Q13.4175 -7.6094 13.6284 -6.7891 Q13.8394 -5.9688 13.8394 -4.5938 Q13.8394 -2.9531 13.5034 -1.9453 Q13.1675 -0.9375 12.4956 -0.3906 Q11.8237 0.1562 10.8081 0.1562 Q9.4644 0.1562 8.6831 -0.8125 Q7.7769 -1.9688 7.7769 -4.5938 ZM8.9487 -4.5938 Q8.9487 -2.2969 9.48 -1.5391 Q10.0112 -0.7812 10.8081 -0.7812 Q11.5894 -0.7812 12.1284 -1.5391 Q12.6675 -2.2969 12.6675 -4.5938 Q12.6675 -6.8906 12.1284 -7.6406 Q11.5894 -8.3906 10.7925 -8.3906 Q10.0112 -8.3906 9.5269 -7.7344 Q8.9487 -6.875 8.9487 -4.5938 Z"
         id="path255" />
    </g>
    <g
       transform="translate(424,385)"
       style="font-size:11px; fill:rgb(38,38,38); text-rendering:geometricPrecision; color-rendering:optimizeQuality; image-rendering:optimizeQuality; font-family:'SansSerif'; color-interpolation:linearRGB; stroke:rgb(38,38,38);"
       id="g257">
      <path
         style="stroke:none;"
         d="M0.4688 -2.0781 L1.4219 -2.2031 Q1.5938 -1.3906 1.9922 -1.0234 Q2.3906 -0.6562 2.9688 -0.6562 Q3.6562 -0.6562 4.125 -1.1328 Q4.5938 -1.6094 4.5938 -2.2969 Q4.5938 -2.9688 4.1562 -3.3984 Q3.7188 -3.8281 3.0469 -3.8281 Q2.7812 -3.8281 2.375 -3.7344 L2.4688 -4.5781 Q2.5781 -4.5625 2.625 -4.5625 Q3.25 -4.5625 3.7422 -4.8828 Q4.2344 -5.2031 4.2344 -5.875 Q4.2344 -6.4062 3.875 -6.7578 Q3.5156 -7.1094 2.9531 -7.1094 Q2.3906 -7.1094 2.0156 -6.7578 Q1.6406 -6.4062 1.5312 -5.6875 L0.5625 -5.8594 Q0.7344 -6.8438 1.3672 -7.375 Q2 -7.9062 2.9219 -7.9062 Q3.5781 -7.9062 4.1172 -7.6328 Q4.6562 -7.3594 4.9453 -6.875 Q5.2344 -6.3906 5.2344 -5.8594 Q5.2344 -5.3438 4.9609 -4.9297 Q4.6875 -4.5156 4.1406 -4.2656 Q4.8438 -4.1094 5.2344 -3.6016 Q5.625 -3.0938 5.625 -2.3281 Q5.625 -1.2969 4.8672 -0.5781 Q4.1094 0.1406 2.9688 0.1406 Q1.9219 0.1406 1.2422 -0.4766 Q0.5625 -1.0938 0.4688 -2.0781 Z"
         id="path259" />
    </g>
    <g
       transform="translate(496,391)"
       style="font-size:13px; fill:rgb(38,38,38); text-rendering:geometricPrecision; color-rendering:optimizeQuality; image-rendering:optimizeQuality; font-family:'SansSerif'; color-interpolation:linearRGB; stroke:rgb(38,38,38);"
       id="g261">
      <path
         style="stroke:none;"
         d="M4.8438 0 L3.7031 0 L3.7031 -7.2812 Q3.2812 -6.8906 2.6172 -6.4922 Q1.9531 -6.0938 1.4219 -5.9062 L1.4219 -7.0156 Q2.375 -7.4531 3.0938 -8.0938 Q3.8125 -8.7344 4.1094 -9.3438 L4.8438 -9.3438 L4.8438 0 ZM7.7769 -4.5938 Q7.7769 -6.2344 8.1128 -7.2422 Q8.4487 -8.25 9.1206 -8.7969 Q9.7925 -9.3438 10.8081 -9.3438 Q11.5581 -9.3438 12.1206 -9.0391 Q12.6831 -8.7344 13.0503 -8.1719 Q13.4175 -7.6094 13.6284 -6.7891 Q13.8394 -5.9688 13.8394 -4.5938 Q13.8394 -2.9531 13.5034 -1.9453 Q13.1675 -0.9375 12.4956 -0.3906 Q11.8237 0.1562 10.8081 0.1562 Q9.4644 0.1562 8.6831 -0.8125 Q7.7769 -1.9688 7.7769 -4.5938 ZM8.9487 -4.5938 Q8.9487 -2.2969 9.48 -1.5391 Q10.0112 -0.7812 10.8081 -0.7812 Q11.5894 -0.7812 12.1284 -1.5391 Q12.6675 -2.2969 12.6675 -4.5938 Q12.6675 -6.8906 12.1284 -7.6406 Q11.5894 -8.3906 10.7925 -8.3906 Q10.0112 -8.3906 9.5269 -7.7344 Q8.9487 -6.875 8.9487 -4.5938 Z"
         id="path263" />
    </g>
    <g
       transform="translate(511,385)"
       style="font-size:11px; fill:rgb(38,38,38); text-rendering:geometricPrecision; color-rendering:optimizeQuality; image-rendering:optimizeQuality; font-family:'SansSerif'; color-interpolation:linearRGB; stroke:rgb(38,38,38);"
       id="g265">
      <path
         style="stroke:none;"
         d="M3.5625 0 L3.5625 -1.8906 L0.1406 -1.8906 L0.1406 -2.7656 L3.7344 -7.875 L4.5156 -7.875 L4.5156 -2.7656 L5.5938 -2.7656 L5.5938 -1.8906 L4.5156 -1.8906 L4.5156 0 L3.5625 0 ZM3.5625 -2.7656 L3.5625 -6.3281 L1.0938 -2.7656 L3.5625 -2.7656 Z"
         id="path267" />
    </g>
    <g
       style="fill:rgb(38,38,38); text-rendering:geometricPrecision; color-interpolation:linearRGB; color-rendering:optimizeQuality; image-rendering:optimizeQuality; stroke:rgb(38,38,38);"
       id="g269">
      <line
         y2="342.7501"
         style="fill:none;"
         x1="73"
         x2="75.17"
         y1="342.7501"
         id="line271" />
      <line
         y2="342.7501"
         style="fill:none;"
         x1="507"
         x2="504.83"
         y1="342.7501"
         id="line273" />
      <line
         y2="324.9795"
         style="fill:none;"
         x1="73"
         x2="75.17"
         y1="324.9795"
         id="line275" />
      <line
         y2="324.9795"
         style="fill:none;"
         x1="507"
         x2="504.83"
         y1="324.9795"
         id="line277" />
      <line
         y2="312.3711"
         style="fill:none;"
         x1="73"
         x2="75.17"
         y1="312.3711"
         id="line279" />
      <line
         y2="312.3711"
         style="fill:none;"
         x1="507"
         x2="504.83"
         y1="312.3711"
         id="line281" />
      <line
         y2="302.5913"
         style="fill:none;"
         x1="73"
         x2="75.17"
         y1="302.5913"
         id="line283" />
      <line
         y2="302.5913"
         style="fill:none;"
         x1="507"
         x2="504.83"
         y1="302.5913"
         id="line285" />
      <line
         y2="294.6006"
         style="fill:none;"
         x1="73"
         x2="75.17"
         y1="294.6006"
         id="line287" />
      <line
         y2="294.6006"
         style="fill:none;"
         x1="507"
         x2="504.83"
         y1="294.6006"
         id="line289" />
      <line
         y2="287.8445"
         style="fill:none;"
         x1="73"
         x2="75.17"
         y1="287.8445"
         id="line291" />
      <line
         y2="287.8445"
         style="fill:none;"
         x1="507"
         x2="504.83"
         y1="287.8445"
         id="line293" />
      <line
         y2="281.9922"
         style="fill:none;"
         x1="73"
         x2="75.17"
         y1="281.9922"
         id="line295" />
      <line
         y2="281.9922"
         style="fill:none;"
         x1="507"
         x2="504.83"
         y1="281.9922"
         id="line297" />
      <line
         y2="276.83"
         style="fill:none;"
         x1="73"
         x2="75.17"
         y1="276.83"
         id="line299" />
      <line
         y2="276.83"
         style="fill:none;"
         x1="507"
         x2="504.83"
         y1="276.83"
         id="line301" />
      <line
         y2="241.8334"
         style="fill:none;"
         x1="73"
         x2="75.17"
         y1="241.8334"
         id="line303" />
      <line
         y2="241.8334"
         style="fill:none;"
         x1="507"
         x2="504.83"
         y1="241.8334"
         id="line305" />
      <line
         y2="224.0628"
         style="fill:none;"
         x1="73"
         x2="75.17"
         y1="224.0628"
         id="line307" />
      <line
         y2="224.0628"
         style="fill:none;"
         x1="507"
         x2="504.83"
         y1="224.0628"
         id="line309" />
      <line
         y2="211.4544"
         style="fill:none;"
         x1="73"
         x2="75.17"
         y1="211.4544"
         id="line311" />
      <line
         y2="211.4544"
         style="fill:none;"
         x1="507"
         x2="504.83"
         y1="211.4544"
         id="line313" />
      <line
         y2="201.6746"
         style="fill:none;"
         x1="73"
         x2="75.17"
         y1="201.6746"
         id="line315" />
      <line
         y2="201.6746"
         style="fill:none;"
         x1="507"
         x2="504.83"
         y1="201.6746"
         id="line317" />
      <line
         y2="193.6839"
         style="fill:none;"
         x1="73"
         x2="75.17"
         y1="193.6839"
         id="line319" />
      <line
         y2="193.6839"
         style="fill:none;"
         x1="507"
         x2="504.83"
         y1="193.6839"
         id="line321" />
      <line
         y2="186.9278"
         style="fill:none;"
         x1="73"
         x2="75.17"
         y1="186.9278"
         id="line323" />
      <line
         y2="186.9278"
         style="fill:none;"
         x1="507"
         x2="504.83"
         y1="186.9278"
         id="line325" />
      <line
         y2="181.0755"
         style="fill:none;"
         x1="73"
         x2="75.17"
         y1="181.0755"
         id="line327" />
      <line
         y2="181.0755"
         style="fill:none;"
         x1="507"
         x2="504.83"
         y1="181.0755"
         id="line329" />
      <line
         y2="175.9133"
         style="fill:none;"
         x1="73"
         x2="75.17"
         y1="175.9133"
         id="line331" />
      <line
         y2="175.9133"
         style="fill:none;"
         x1="507"
         x2="504.83"
         y1="175.9133"
         id="line333" />
      <line
         y2="140.9167"
         style="fill:none;"
         x1="73"
         x2="75.17"
         y1="140.9167"
         id="line335" />
      <line
         y2="140.9167"
         style="fill:none;"
         x1="507"
         x2="504.83"
         y1="140.9167"
         id="line337" />
      <line
         y2="123.1462"
         style="fill:none;"
         x1="73"
         x2="75.17"
         y1="123.1462"
         id="line339" />
      <line
         y2="123.1462"
         style="fill:none;"
         x1="507"
         x2="504.83"
         y1="123.1462"
         id="line341" />
      <line
         y2="110.5377"
         style="fill:none;"
         x1="73"
         x2="75.17"
         y1="110.5377"
         id="line343" />
      <line
         y2="110.5377"
         style="fill:none;"
         x1="507"
         x2="504.83"
         y1="110.5377"
         id="line345" />
      <line
         y2="100.7579"
         style="fill:none;"
         x1="73"
         x2="75.17"
         y1="100.7579"
         id="line347" />
      <line
         y2="100.7579"
         style="fill:none;"
         x1="507"
         x2="504.83"
         y1="100.7579"
         id="line349" />
      <line
         y2="92.7672"
         style="fill:none;"
         x1="73"
         x2="75.17"
         y1="92.7672"
         id="line351" />
      <line
         y2="92.7672"
         style="fill:none;"
         x1="507"
         x2="504.83"
         y1="92.7672"
         id="line353" />
      <line
         y2="86.0111"
         style="fill:none;"
         x1="73"
         x2="75.17"
         y1="86.0111"
         id="line355" />
      <line
         y2="86.0111"
         style="fill:none;"
         x1="507"
         x2="504.83"
         y1="86.0111"
         id="line357" />
      <line
         y2="80.1588"
         style="fill:none;"
         x1="73"
         x2="75.17"
         y1="80.1588"
         id="line359" />
      <line
         y2="80.1588"
         style="fill:none;"
         x1="507"
         x2="504.83"
         y1="80.1588"
         id="line361" />
      <line
         y2="74.9966"
         style="fill:none;"
         x1="73"
         x2="75.17"
         y1="74.9966"
         id="line363" />
      <line
         y2="74.9966"
         style="fill:none;"
         x1="507"
         x2="504.83"
         y1="74.9966"
         id="line365" />
    </g>
    <g
       transform="translate(41.6667,204.5) rotate(-90)"
       style="font-size:21px; fill:rgb(38,38,38); text-rendering:geometricPrecision; color-rendering:optimizeQuality; image-rendering:optimizeQuality; color-interpolation:linearRGB; stroke:rgb(38,38,38);"
       id="g367">
      <path
         style="stroke:none;"
         d="M-150.0219 -7.6801 L-150.0219 -22.7113 L-143.3656 -22.7113 Q-141.35 -22.7113 -140.3031 -22.3051 Q-139.2562 -21.8988 -138.6312 -20.8754 Q-138.0062 -19.852 -138.0062 -18.6176 Q-138.0062 -17.0082 -139.0453 -15.9145 Q-140.0844 -14.8207 -142.2406 -14.5238 Q-141.4594 -14.1332 -141.0375 -13.7738 Q-140.1781 -12.977 -139.3969 -11.7738 L-136.7719 -7.6801 L-139.2875 -7.6801 L-141.2719 -10.8051 Q-142.1469 -12.1645 -142.7094 -12.8832 Q-143.2719 -13.602 -143.7172 -13.8832 Q-144.1625 -14.1645 -144.6156 -14.2895 Q-144.9594 -14.352 -145.725 -14.352 L-148.0375 -14.352 L-148.0375 -7.6801 L-150.0219 -7.6801 ZM-148.0375 -16.0707 L-143.7562 -16.0707 Q-142.3969 -16.0707 -141.6312 -16.3598 Q-140.8656 -16.6488 -140.4594 -17.266 Q-140.0531 -17.8832 -140.0531 -18.6176 Q-140.0531 -19.6801 -140.8344 -20.3676 Q-141.6156 -21.0551 -143.2875 -21.0551 L-148.0375 -21.0551 L-148.0375 -16.0707 Z"
         id="path369" />
    </g>
    <g
       transform="translate(41.6667,204.5) rotate(-90)"
       style="font-size:21px; fill:rgb(38,38,38); text-rendering:geometricPrecision; color-rendering:optimizeQuality; image-rendering:optimizeQuality; color-interpolation:linearRGB; stroke:rgb(38,38,38);"
       id="g371">
      <path
         style="stroke:none;"
         d="M-129.0565 -11.1801 L-127.1503 -10.9457 Q-127.6034 -9.2738 -128.8221 -8.352 Q-130.0409 -7.4301 -131.9471 -7.4301 Q-134.3378 -7.4301 -135.7362 -8.9066 Q-137.1346 -10.3832 -137.1346 -13.0395 Q-137.1346 -15.7738 -135.7206 -17.2973 Q-134.3065 -18.8207 -132.0409 -18.8207 Q-129.8534 -18.8207 -128.4706 -17.3285 Q-127.0878 -15.8363 -127.0878 -13.1488 Q-127.0878 -12.977 -127.1034 -12.6488 L-135.2284 -12.6488 Q-135.119 -10.852 -134.205 -9.8988 Q-133.2909 -8.9457 -131.9315 -8.9457 Q-130.9159 -8.9457 -130.1971 -9.4848 Q-129.4784 -10.0238 -129.0565 -11.1801 ZM-135.119 -14.1645 L-129.0409 -14.1645 Q-129.1659 -15.5395 -129.744 -16.227 Q-130.619 -17.3051 -132.0253 -17.3051 Q-133.2909 -17.3051 -134.1581 -16.4535 Q-135.0253 -15.602 -135.119 -14.1645 Z"
         id="path373" />
      <path
         style="stroke:none;"
         d="M-119.9344 -11.6645 L-118.1063 -11.4301 Q-118.4032 -9.5551 -119.6297 -8.4926 Q-120.8563 -7.4301 -122.6532 -7.4301 Q-124.8875 -7.4301 -126.2391 -8.891 Q-127.5907 -10.352 -127.5907 -13.0863 Q-127.5907 -14.852 -127.0125 -16.1723 Q-126.4344 -17.4926 -125.2391 -18.1566 Q-124.0438 -18.8207 -122.6375 -18.8207 Q-120.8563 -18.8207 -119.7313 -17.9223 Q-118.6063 -17.0238 -118.2938 -15.3676 L-120.075 -15.0863 Q-120.3407 -16.1957 -120.9891 -16.7504 Q-121.6375 -17.3051 -122.5594 -17.3051 Q-123.9657 -17.3051 -124.8329 -16.3051 Q-125.7 -15.3051 -125.7 -13.1332 Q-125.7 -10.9457 -124.8563 -9.9457 Q-124.0125 -8.9457 -122.6688 -8.9457 Q-121.575 -8.9457 -120.8485 -9.6176 Q-120.1219 -10.2895 -119.9344 -11.6645 Z"
         id="path375" />
      <path
         style="stroke:none;"
         d="M-118.2342 -13.1176 Q-118.2342 -16.1488 -116.5623 -17.602 Q-115.1561 -18.8207 -113.1404 -18.8207 Q-110.8904 -18.8207 -109.4607 -17.3441 Q-108.0311 -15.8676 -108.0311 -13.2738 Q-108.0311 -11.1801 -108.6639 -9.977 Q-109.2967 -8.7738 -110.4998 -8.102 Q-111.7029 -7.4301 -113.1404 -7.4301 Q-115.4217 -7.4301 -116.8279 -8.8988 Q-118.2342 -10.3676 -118.2342 -13.1176 ZM-116.3436 -13.1176 Q-116.3436 -11.0395 -115.4295 -9.9926 Q-114.5154 -8.9457 -113.1404 -8.9457 Q-111.7654 -8.9457 -110.8514 -9.9926 Q-109.9373 -11.0395 -109.9373 -13.1801 Q-109.9373 -15.2113 -110.8514 -16.2504 Q-111.7654 -17.2895 -113.1404 -17.2895 Q-114.5154 -17.2895 -115.4295 -16.2504 Q-116.3436 -15.2113 -116.3436 -13.1176 Z"
         id="path377" />
      <path
         style="stroke:none;"
         d="M-107.2237 -6.7738 L-105.4269 -6.5082 Q-105.3175 -5.6801 -104.8019 -5.3051 Q-104.1144 -4.7895 -102.9269 -4.7895 Q-101.6456 -4.7895 -100.9503 -5.3051 Q-100.255 -5.8207 -100.005 -6.7426 Q-99.8644 -7.3051 -99.88 -9.102 Q-101.0831 -7.6801 -102.88 -7.6801 Q-105.13 -7.6801 -106.3644 -9.2973 Q-107.5987 -10.9145 -107.5987 -13.1801 Q-107.5987 -14.7426 -107.0284 -16.0629 Q-106.4581 -17.3832 -105.3878 -18.102 Q-104.3175 -18.8207 -102.88 -18.8207 Q-100.9425 -18.8207 -99.6925 -17.2582 L-99.6925 -18.5707 L-97.9894 -18.5707 L-97.9894 -9.1645 Q-97.9894 -6.6176 -98.5128 -5.5551 Q-99.0362 -4.4926 -100.1534 -3.8754 Q-101.2706 -3.2582 -102.9112 -3.2582 Q-104.8644 -3.2582 -106.0675 -4.1332 Q-107.2706 -5.0082 -107.2237 -6.7738 ZM-105.6925 -13.3207 Q-105.6925 -11.1801 -104.8409 -10.1957 Q-103.9894 -9.2113 -102.7081 -9.2113 Q-101.4425 -9.2113 -100.5831 -10.1879 Q-99.7237 -11.1645 -99.7237 -13.2582 Q-99.7237 -15.2582 -100.6066 -16.2738 Q-101.4894 -17.2895 -102.7394 -17.2895 Q-103.9737 -17.2895 -104.8331 -16.2895 Q-105.6925 -15.2895 -105.6925 -13.3207 Z"
         id="path379" />
      <path
         style="stroke:none;"
         d="M-96.2133 -7.6801 L-96.2133 -18.5707 L-94.557 -18.5707 L-94.557 -17.0238 Q-93.3539 -18.8207 -91.0883 -18.8207 Q-90.1039 -18.8207 -89.2836 -18.4613 Q-88.4633 -18.102 -88.0492 -17.5316 Q-87.6352 -16.9613 -87.4789 -16.1645 Q-87.3695 -15.6645 -87.3695 -14.3832 L-87.3695 -7.6801 L-89.2133 -7.6801 L-89.2133 -14.3051 Q-89.2133 -15.4301 -89.432 -15.9926 Q-89.6508 -16.5551 -90.1977 -16.8832 Q-90.7445 -17.2113 -91.4789 -17.2113 Q-92.6664 -17.2113 -93.518 -16.4691 Q-94.3695 -15.727 -94.3695 -13.6332 L-94.3695 -7.6801 L-96.2133 -7.6801 Z"
         id="path381" />
      <path
         style="stroke:none;"
         d="M-85.1911 -20.5863 L-85.1911 -22.7113 L-83.3473 -22.7113 L-83.3473 -20.5863 L-85.1911 -20.5863 ZM-85.1911 -7.6801 L-85.1911 -18.5707 L-83.3473 -18.5707 L-83.3473 -7.6801 L-85.1911 -7.6801 Z"
         id="path383" />
      <path
         style="stroke:none;"
         d="M-76.0635 -9.3363 L-75.7979 -7.6957 Q-76.5791 -7.5395 -77.2041 -7.5395 Q-78.2041 -7.5395 -78.7588 -7.8598 Q-79.3135 -8.1801 -79.5401 -8.6957 Q-79.7666 -9.2113 -79.7666 -10.8676 L-79.7666 -17.1332 L-81.1104 -17.1332 L-81.1104 -18.5707 L-79.7666 -18.5707 L-79.7666 -21.2738 L-77.9229 -22.3676 L-77.9229 -18.5707 L-76.0635 -18.5707 L-76.0635 -17.1332 L-77.9229 -17.1332 L-77.9229 -10.7738 Q-77.9229 -9.977 -77.8291 -9.7504 Q-77.7354 -9.5238 -77.5166 -9.391 Q-77.2979 -9.2582 -76.876 -9.2582 Q-76.5791 -9.2582 -76.0635 -9.3363 Z"
         id="path385" />
      <path
         style="stroke:none;"
         d="M-72.3911 -20.5863 L-72.3911 -22.7113 L-70.5473 -22.7113 L-70.5473 -20.5863 L-72.3911 -20.5863 ZM-72.3911 -7.6801 L-72.3911 -18.5707 L-70.5473 -18.5707 L-70.5473 -7.6801 L-72.3911 -7.6801 Z"
         id="path387" />
      <path
         style="stroke:none;"
         d="M-67.9823 -13.1176 Q-67.9823 -16.1488 -66.3104 -17.602 Q-64.9041 -18.8207 -62.8885 -18.8207 Q-60.6385 -18.8207 -59.2088 -17.3441 Q-57.7791 -15.8676 -57.7791 -13.2738 Q-57.7791 -11.1801 -58.4119 -9.977 Q-59.0448 -8.7738 -60.2479 -8.102 Q-61.451 -7.4301 -62.8885 -7.4301 Q-65.1698 -7.4301 -66.576 -8.8988 Q-67.9823 -10.3676 -67.9823 -13.1176 ZM-66.0916 -13.1176 Q-66.0916 -11.0395 -65.1776 -9.9926 Q-64.2635 -8.9457 -62.8885 -8.9457 Q-61.5135 -8.9457 -60.5994 -9.9926 Q-59.6854 -11.0395 -59.6854 -13.1801 Q-59.6854 -15.2113 -60.5994 -16.2504 Q-61.5135 -17.2895 -62.8885 -17.2895 Q-64.2635 -17.2895 -65.1776 -16.2504 Q-66.0916 -15.2113 -66.0916 -13.1176 Z"
         id="path389" />
      <path
         style="stroke:none;"
         d="M-56.6281 -7.6801 L-56.6281 -18.5707 L-54.9718 -18.5707 L-54.9718 -17.0238 Q-53.7687 -18.8207 -51.5031 -18.8207 Q-50.5187 -18.8207 -49.6984 -18.4613 Q-48.8781 -18.102 -48.464 -17.5316 Q-48.0499 -16.9613 -47.8937 -16.1645 Q-47.7843 -15.6645 -47.7843 -14.3832 L-47.7843 -7.6801 L-49.6281 -7.6801 L-49.6281 -14.3051 Q-49.6281 -15.4301 -49.8468 -15.9926 Q-50.0656 -16.5551 -50.6124 -16.8832 Q-51.1593 -17.2113 -51.8937 -17.2113 Q-53.0812 -17.2113 -53.9328 -16.4691 Q-54.7843 -15.727 -54.7843 -13.6332 L-54.7843 -7.6801 L-56.6281 -7.6801 Z"
         id="path391" />
      <path
         style="stroke:none;"
         d="M-38.4947 -3.5082 L-38.4947 -18.5707 L-36.8229 -18.5707 L-36.8229 -17.1488 Q-36.2291 -17.9926 -35.4791 -18.4066 Q-34.7291 -18.8207 -33.6666 -18.8207 Q-32.2604 -18.8207 -31.1979 -18.102 Q-30.1354 -17.3832 -29.5885 -16.0707 Q-29.0416 -14.7582 -29.0416 -13.2113 Q-29.0416 -11.5395 -29.6432 -10.1957 Q-30.2447 -8.852 -31.3854 -8.141 Q-32.526 -7.4301 -33.7916 -7.4301 Q-34.7135 -7.4301 -35.4479 -7.8207 Q-36.1822 -8.2113 -36.651 -8.8051 L-36.651 -3.5082 L-38.4947 -3.5082 ZM-36.8229 -13.0707 Q-36.8229 -10.9613 -35.9713 -9.9535 Q-35.1197 -8.9457 -33.9166 -8.9457 Q-32.6822 -8.9457 -31.8072 -9.9926 Q-30.9322 -11.0395 -30.9322 -13.2113 Q-30.9322 -15.3051 -31.7916 -16.3363 Q-32.651 -17.3676 -33.8385 -17.3676 Q-35.0104 -17.3676 -35.9166 -16.266 Q-36.8229 -15.1645 -36.8229 -13.0707 Z"
         id="path393" />
      <path
         style="stroke:none;"
         d="M-19.4268 -11.1801 L-17.5205 -10.9457 Q-17.9736 -9.2738 -19.1924 -8.352 Q-20.4111 -7.4301 -22.3174 -7.4301 Q-24.708 -7.4301 -26.1064 -8.9066 Q-27.5049 -10.3832 -27.5049 -13.0395 Q-27.5049 -15.7738 -26.0908 -17.2973 Q-24.6768 -18.8207 -22.4111 -18.8207 Q-20.2236 -18.8207 -18.8408 -17.3285 Q-17.458 -15.8363 -17.458 -13.1488 Q-17.458 -12.977 -17.4736 -12.6488 L-25.5986 -12.6488 Q-25.4893 -10.852 -24.5752 -9.8988 Q-23.6611 -8.9457 -22.3018 -8.9457 Q-21.2861 -8.9457 -20.5674 -9.4848 Q-19.8486 -10.0238 -19.4268 -11.1801 ZM-25.4893 -14.1645 L-19.4111 -14.1645 Q-19.5361 -15.5395 -20.1143 -16.227 Q-20.9893 -17.3051 -22.3955 -17.3051 Q-23.6611 -17.3051 -24.5283 -16.4535 Q-25.3955 -15.602 -25.4893 -14.1645 Z"
         id="path395" />
      <path
         style="stroke:none;"
         d="M-17.4297 -7.6801 L-17.4297 -18.5707 L-15.7578 -18.5707 L-15.7578 -16.9145 Q-15.1328 -18.0707 -14.5937 -18.4457 Q-14.0547 -18.8207 -13.3984 -18.8207 Q-12.4765 -18.8207 -11.5078 -18.227 L-12.1484 -16.5082 Q-12.8203 -16.9145 -13.4922 -16.9145 Q-14.1015 -16.9145 -14.5859 -16.5473 Q-15.0703 -16.1801 -15.2734 -15.5395 Q-15.5859 -14.5551 -15.5859 -13.3832 L-15.5859 -7.6801 L-17.4297 -7.6801 Z"
         id="path397" />
      <path
         style="stroke:none;"
         d="M-9.672 -7.6801 L-9.672 -17.1332 L-11.3126 -17.1332 L-11.3126 -18.5707 L-9.672 -18.5707 L-9.672 -19.727 Q-9.672 -20.8207 -9.4845 -21.352 Q-9.2188 -22.0707 -8.547 -22.516 Q-7.8751 -22.9613 -6.6563 -22.9613 Q-5.8751 -22.9613 -4.9376 -22.7895 L-5.2188 -21.1801 Q-5.7813 -21.2738 -6.297 -21.2738 Q-7.1407 -21.2738 -7.4923 -20.9145 Q-7.8438 -20.5551 -7.8438 -19.5707 L-7.8438 -18.5707 L-5.7188 -18.5707 L-5.7188 -17.1332 L-7.8438 -17.1332 L-7.8438 -7.6801 L-9.672 -7.6801 Z"
         id="path399" />
      <path
         style="stroke:none;"
         d="M-4.2784 -13.1176 Q-4.2784 -16.1488 -2.6065 -17.602 Q-1.2003 -18.8207 0.8153 -18.8207 Q3.0653 -18.8207 4.495 -17.3441 Q5.9247 -15.8676 5.9247 -13.2738 Q5.9247 -11.1801 5.2919 -9.977 Q4.6591 -8.7738 3.456 -8.102 Q2.2528 -7.4301 0.8153 -7.4301 Q-1.4659 -7.4301 -2.8722 -8.8988 Q-4.2784 -10.3676 -4.2784 -13.1176 ZM-2.3878 -13.1176 Q-2.3878 -11.0395 -1.4737 -9.9926 Q-0.5597 -8.9457 0.8153 -8.9457 Q2.1903 -8.9457 3.1044 -9.9926 Q4.0185 -11.0395 4.0185 -13.1801 Q4.0185 -15.2113 3.1044 -16.2504 Q2.1903 -17.2895 0.8153 -17.2895 Q-0.5597 -17.2895 -1.4737 -16.2504 Q-2.3878 -15.2113 -2.3878 -13.1176 Z"
         id="path401" />
      <path
         style="stroke:none;"
         d="M6.4519 -7.6801 L6.4519 -18.5707 L8.1238 -18.5707 L8.1238 -16.9145 Q8.7488 -18.0707 9.2879 -18.4457 Q9.8269 -18.8207 10.4832 -18.8207 Q11.405 -18.8207 12.3738 -18.227 L11.7332 -16.5082 Q11.0613 -16.9145 10.3894 -16.9145 Q9.78 -16.9145 9.2957 -16.5473 Q8.8113 -16.1801 8.6082 -15.5395 Q8.2957 -14.5551 8.2957 -13.3832 L8.2957 -7.6801 L6.4519 -7.6801 Z"
         id="path403" />
      <path
         style="stroke:none;"
         d="M13.7721 -7.6801 L13.7721 -18.5707 L15.4127 -18.5707 L15.4127 -17.0395 Q15.9284 -17.8363 16.7799 -18.3285 Q17.6315 -18.8207 18.7252 -18.8207 Q19.9284 -18.8207 20.7018 -18.3129 Q21.4752 -17.8051 21.7877 -16.9145 Q23.0846 -18.8207 25.1627 -18.8207 Q26.7721 -18.8207 27.6471 -17.9223 Q28.5221 -17.0238 28.5221 -15.1488 L28.5221 -7.6801 L26.6784 -7.6801 L26.6784 -14.5395 Q26.6784 -15.6488 26.5065 -16.1332 Q26.3346 -16.6176 25.858 -16.9145 Q25.3815 -17.2113 24.7409 -17.2113 Q23.6002 -17.2113 22.8424 -16.4535 Q22.0846 -15.6957 22.0846 -14.0082 L22.0846 -7.6801 L20.2409 -7.6801 L20.2409 -14.7582 Q20.2409 -15.9926 19.7877 -16.602 Q19.3346 -17.2113 18.3034 -17.2113 Q17.5221 -17.2113 16.8659 -16.8051 Q16.2096 -16.3988 15.9127 -15.6098 Q15.6159 -14.8207 15.6159 -13.3363 L15.6159 -7.6801 L13.7721 -7.6801 Z"
         id="path405" />
      <path
         style="stroke:none;"
         d="M37.814 -9.0238 Q36.7984 -8.1488 35.8453 -7.7895 Q34.8922 -7.4301 33.814 -7.4301 Q32.0172 -7.4301 31.0562 -8.3051 Q30.0953 -9.1801 30.0953 -10.5551 Q30.0953 -11.352 30.4547 -12.016 Q30.814 -12.6801 31.4078 -13.0785 Q32.0015 -13.477 32.7359 -13.6801 Q33.2828 -13.8207 34.3765 -13.9613 Q36.6109 -14.227 37.6734 -14.5863 Q37.6734 -14.977 37.6734 -15.0707 Q37.6734 -16.1957 37.1578 -16.6645 Q36.439 -17.2895 35.0484 -17.2895 Q33.7515 -17.2895 33.1265 -16.8363 Q32.5015 -16.3832 32.2047 -15.2113 L30.4078 -15.4613 Q30.6578 -16.6176 31.2203 -17.3285 Q31.7828 -18.0395 32.8453 -18.4301 Q33.9078 -18.8207 35.314 -18.8207 Q36.7203 -18.8207 37.5875 -18.4926 Q38.4547 -18.1645 38.8687 -17.6645 Q39.2828 -17.1645 39.439 -16.3988 Q39.5328 -15.9301 39.5328 -14.7113 L39.5328 -12.2426 Q39.5328 -9.6645 39.65 -8.9848 Q39.7672 -8.3051 40.1109 -7.6801 L38.189 -7.6801 Q37.9078 -8.2582 37.814 -9.0238 ZM37.6734 -13.1488 Q36.6578 -12.7426 34.6578 -12.4457 Q33.5172 -12.2895 33.0406 -12.0785 Q32.564 -11.8676 32.314 -11.477 Q32.064 -11.0863 32.064 -10.602 Q32.064 -9.8676 32.6187 -9.3754 Q33.1734 -8.8832 34.2515 -8.8832 Q35.314 -8.8832 36.15 -9.352 Q36.9859 -9.8207 37.3765 -10.6176 Q37.6734 -11.2426 37.6734 -12.4613 L37.6734 -13.1488 Z"
         id="path407" />
      <path
         style="stroke:none;"
         d="M40.9722 -7.6801 L40.9722 -18.5707 L42.6284 -18.5707 L42.6284 -17.0238 Q43.8315 -18.8207 46.0972 -18.8207 Q47.0815 -18.8207 47.9019 -18.4613 Q48.7222 -18.102 49.1362 -17.5316 Q49.5503 -16.9613 49.7065 -16.1645 Q49.8159 -15.6645 49.8159 -14.3832 L49.8159 -7.6801 L47.9722 -7.6801 L47.9722 -14.3051 Q47.9722 -15.4301 47.7534 -15.9926 Q47.5347 -16.5551 46.9878 -16.8832 Q46.4409 -17.2113 45.7065 -17.2113 Q44.519 -17.2113 43.6675 -16.4691 Q42.8159 -15.727 42.8159 -13.6332 L42.8159 -7.6801 L40.9722 -7.6801 Z"
         id="path409" />
      <path
         style="stroke:none;"
         d="M59.0882 -11.6645 L60.9163 -11.4301 Q60.6194 -9.5551 59.3928 -8.4926 Q58.1663 -7.4301 56.3694 -7.4301 Q54.135 -7.4301 52.7835 -8.891 Q51.4319 -10.352 51.4319 -13.0863 Q51.4319 -14.852 52.01 -16.1723 Q52.5882 -17.4926 53.7835 -18.1566 Q54.9788 -18.8207 56.385 -18.8207 Q58.1663 -18.8207 59.2913 -17.9223 Q60.4163 -17.0238 60.7288 -15.3676 L58.9475 -15.0863 Q58.6819 -16.1957 58.0335 -16.7504 Q57.385 -17.3051 56.4632 -17.3051 Q55.0569 -17.3051 54.1897 -16.3051 Q53.3225 -15.3051 53.3225 -13.1332 Q53.3225 -10.9457 54.1663 -9.9457 Q55.01 -8.9457 56.3538 -8.9457 Q57.4475 -8.9457 58.1741 -9.6176 Q58.9007 -10.2895 59.0882 -11.6645 Z"
         id="path411" />
      <path
         style="stroke:none;"
         d="M68.929 -11.1801 L70.8353 -10.9457 Q70.3821 -9.2738 69.1634 -8.352 Q67.9446 -7.4301 66.0384 -7.4301 Q63.6478 -7.4301 62.2493 -8.9066 Q60.8509 -10.3832 60.8509 -13.0395 Q60.8509 -15.7738 62.2649 -17.2973 Q63.679 -18.8207 65.9446 -18.8207 Q68.1321 -18.8207 69.5149 -17.3285 Q70.8978 -15.8363 70.8978 -13.1488 Q70.8978 -12.977 70.8821 -12.6488 L62.7571 -12.6488 Q62.8665 -10.852 63.7806 -9.8988 Q64.6946 -8.9457 66.054 -8.9457 Q67.0696 -8.9457 67.7884 -9.4848 Q68.5071 -10.0238 68.929 -11.1801 ZM62.8665 -14.1645 L68.9446 -14.1645 Q68.8196 -15.5395 68.2415 -16.227 Q67.3665 -17.3051 65.9603 -17.3051 Q64.6946 -17.3051 63.8274 -16.4535 Q62.9603 -15.602 62.8665 -14.1645 Z"
         id="path413" />
      <path
         style="stroke:none;"
         d="M71.6449 -3.8988 Q71.6449 -3.9926 71.723 -4.0707 Q72.4886 -4.8051 72.9105 -5.7582 Q73.3324 -6.7113 73.3324 -7.7582 L73.3324 -8.0238 Q72.9886 -7.6801 72.4886 -7.6801 Q72.0042 -7.6801 71.6683 -8.016 Q71.3324 -8.352 71.3324 -8.8363 Q71.3324 -9.3363 71.6683 -9.6645 Q72.0042 -9.9926 72.4886 -9.9926 Q73.2386 -9.9926 73.5589 -9.2973 Q73.8792 -8.602 73.8792 -7.7582 Q73.8792 -6.5863 73.4105 -5.5395 Q72.9417 -4.4926 72.0824 -3.6488 Q72.0042 -3.602 71.9574 -3.602 Q71.848 -3.602 71.7464 -3.6957 Q71.6449 -3.7895 71.6449 -3.8988 Z"
         id="path415" />
      <rect
         x="82.6038"
         width="40.7409"
         height="0.8533"
         y="-25.908"
         style="stroke:none;"
         id="rect417" />
      <path
         style="stroke:none;"
         d="M83.5413 -12.5082 L85.4163 -12.6801 Q85.5569 -11.5395 86.0413 -10.8207 Q86.5257 -10.102 87.5569 -9.6566 Q88.5882 -9.2113 89.8694 -9.2113 Q90.9944 -9.2113 91.8694 -9.5473 Q92.7444 -9.8832 93.1741 -10.477 Q93.6038 -11.0707 93.6038 -11.7582 Q93.6038 -12.4613 93.1897 -12.9926 Q92.7757 -13.5238 91.8382 -13.8832 Q91.2288 -14.1176 89.1585 -14.6176 Q87.0882 -15.1176 86.26 -15.5551 Q85.1819 -16.1176 84.6507 -16.9535 Q84.1194 -17.7895 84.1194 -18.8207 Q84.1194 -19.9613 84.7678 -20.9535 Q85.4163 -21.9457 86.6585 -22.4535 Q87.9007 -22.9613 89.4163 -22.9613 Q91.0882 -22.9613 92.3616 -22.4301 Q93.635 -21.8988 94.3225 -20.852 Q95.01 -19.8051 95.0569 -18.477 L93.1507 -18.3363 Q92.9944 -19.7582 92.1116 -20.4848 Q91.2288 -21.2113 89.4944 -21.2113 Q87.6975 -21.2113 86.8694 -20.5551 Q86.0413 -19.8988 86.0413 -18.9613 Q86.0413 -18.1488 86.6194 -17.6332 Q87.1975 -17.102 89.6194 -16.5551 Q92.0413 -16.0082 92.9475 -15.602 Q94.26 -14.9926 94.885 -14.0629 Q95.51 -13.1332 95.51 -11.9301 Q95.51 -10.727 94.8225 -9.6645 Q94.135 -8.602 92.8538 -8.016 Q91.5725 -7.4301 89.9632 -7.4301 Q87.9163 -7.4301 86.5335 -8.0238 Q85.1507 -8.6176 84.3694 -9.8129 Q83.5882 -11.0082 83.5413 -12.5082 Z"
         id="path419" />
      <path
         style="stroke:none;"
         d="M96.0494 -7.6801 L96.0494 -22.7113 L98.0963 -22.7113 L105.9869 -10.9145 L105.9869 -22.7113 L107.8932 -22.7113 L107.8932 -7.6801 L105.8619 -7.6801 L97.9557 -19.4926 L97.9557 -7.6801 L96.0494 -7.6801 Z"
         id="path421" />
      <path
         style="stroke:none;"
         d="M111.2231 -7.6801 L111.2231 -22.7113 L117.8794 -22.7113 Q119.895 -22.7113 120.9419 -22.3051 Q121.9887 -21.8988 122.6137 -20.8754 Q123.2387 -19.852 123.2387 -18.6176 Q123.2387 -17.0082 122.1997 -15.9145 Q121.1606 -14.8207 119.0044 -14.5238 Q119.7856 -14.1332 120.2075 -13.7738 Q121.0669 -12.977 121.8481 -11.7738 L124.4731 -7.6801 L121.9575 -7.6801 L119.9731 -10.8051 Q119.0981 -12.1645 118.5356 -12.8832 Q117.9731 -13.602 117.5278 -13.8832 Q117.0825 -14.1645 116.6294 -14.2895 Q116.2856 -14.352 115.52 -14.352 L113.2075 -14.352 L113.2075 -7.6801 L111.2231 -7.6801 ZM113.2075 -16.0707 L117.4887 -16.0707 Q118.8481 -16.0707 119.6137 -16.3598 Q120.3794 -16.6488 120.7856 -17.266 Q121.1919 -17.8832 121.1919 -18.6176 Q121.1919 -19.6801 120.4106 -20.3676 Q119.6294 -21.0551 117.9575 -21.0551 L113.2075 -21.0551 L113.2075 -16.0707 Z"
         id="path423" />
      <path
         style="stroke:none;"
         d="M129.8603 -2.477 Q128.6884 -3.3988 127.8447 -4.5941 Q127.001 -5.7895 126.4619 -7.141 Q125.9228 -8.4926 125.6572 -9.9691 Q125.3916 -11.4457 125.3916 -12.9301 Q125.3916 -14.4301 125.6572 -15.9066 Q125.9228 -17.3832 126.4697 -18.7504 Q127.0166 -20.1176 127.8681 -21.3051 Q128.7197 -22.4926 129.8603 -23.3832 Q129.8603 -23.4301 129.9541 -23.4301 L130.1572 -23.4301 Q130.2197 -23.4301 130.2666 -23.3754 Q130.3134 -23.3207 130.3134 -23.2426 Q130.3134 -23.1488 130.2822 -23.1176 Q129.2509 -22.102 128.5713 -20.9535 Q127.8916 -19.8051 127.4775 -18.5082 Q127.0635 -17.2113 126.876 -15.8207 Q126.6885 -14.4301 126.6885 -12.9301 Q126.6885 -6.2582 130.2509 -2.7895 Q130.3134 -2.727 130.3134 -2.6176 Q130.3134 -2.5707 130.2588 -2.5004 Q130.2041 -2.4301 130.1572 -2.4301 L129.9541 -2.4301 Q129.8603 -2.4301 129.8603 -2.477 Z"
         id="path425" />
      <path
         style="stroke:none;"
         d="M134.9066 -7.9926 Q134.9066 -8.1488 134.9379 -8.227 L137.141 -15.4301 L135.2504 -15.4301 Q134.4848 -15.4301 133.8129 -14.9457 Q133.141 -14.4613 132.7035 -13.727 Q132.6723 -13.6488 132.5785 -13.6488 L132.3441 -13.6488 Q132.141 -13.6488 132.141 -13.852 Q132.141 -13.8988 132.1879 -13.977 Q132.8754 -15.1488 133.6566 -15.9379 Q134.4379 -16.727 135.4223 -16.727 L141.8598 -16.727 Q142.0941 -16.727 142.2426 -16.5785 Q142.391 -16.4301 142.391 -16.1957 Q142.391 -15.8988 142.1723 -15.6645 Q141.9535 -15.4301 141.641 -15.4301 L137.8285 -15.4301 L136.4223 -8.1801 Q136.3441 -7.852 136.1176 -7.6254 Q135.891 -7.3988 135.5473 -7.3988 Q135.2816 -7.3988 135.0941 -7.5707 Q134.9066 -7.7426 134.9066 -7.9926 Z"
         id="path427" />
      <path
         style="stroke:none;"
         d="M144.7411 -2.4301 Q144.5536 -2.4301 144.5536 -2.6176 Q144.5536 -2.7113 144.6005 -2.7426 Q148.1943 -6.2582 148.1943 -12.9301 Q148.1943 -19.602 144.6474 -23.0707 Q144.5536 -23.1176 144.5536 -23.2426 Q144.5536 -23.3207 144.6161 -23.3754 Q144.6786 -23.4301 144.7411 -23.4301 L144.9443 -23.4301 Q145.0068 -23.4301 145.038 -23.3832 Q146.5536 -22.1957 147.5536 -20.4926 Q148.5536 -18.7895 149.0224 -16.8676 Q149.4911 -14.9457 149.4911 -12.9301 Q149.4911 -11.4457 149.2411 -10.0004 Q148.9911 -8.5551 148.4443 -7.1566 Q147.8974 -5.7582 147.0536 -4.5785 Q146.2099 -3.3988 145.038 -2.477 Q145.0068 -2.4301 144.9443 -2.4301 L144.7411 -2.4301 Z"
         id="path429" />
    </g>
    <g
       style="fill:rgb(38,38,38); text-rendering:geometricPrecision; color-interpolation:linearRGB; color-rendering:optimizeQuality; image-rendering:optimizeQuality; stroke:rgb(38,38,38);"
       id="g431">
      <line
         y2="40"
         style="fill:none;"
         x1="73"
         x2="73"
         y1="369"
         id="line433" />
      <line
         y2="40"
         style="fill:none;"
         x1="507"
         x2="507"
         y1="369"
         id="line435" />
      <line
         y2="272.2123"
         style="fill:none;"
         x1="73"
         x2="77.34"
         y1="272.2123"
         id="line437" />
      <line
         y2="272.2123"
         style="fill:none;"
         x1="507"
         x2="502.66"
         y1="272.2123"
         id="line439" />
      <line
         y2="171.2956"
         style="fill:none;"
         x1="73"
         x2="77.34"
         y1="171.2956"
         id="line441" />
      <line
         y2="171.2956"
         style="fill:none;"
         x1="507"
         x2="502.66"
         y1="171.2956"
         id="line443" />
      <line
         y2="70.379"
         style="fill:none;"
         x1="73"
         x2="77.34"
         y1="70.379"
         id="line445" />
      <line
         y2="70.379"
         style="fill:none;"
         x1="507"
         x2="502.66"
         y1="70.379"
         id="line447" />
    </g>
    <g
       transform="translate(45,280)"
       style="font-size:13px; fill:rgb(38,38,38); text-rendering:geometricPrecision; color-rendering:optimizeQuality; image-rendering:optimizeQuality; font-family:'SansSerif'; color-interpolation:linearRGB; stroke:rgb(38,38,38);"
       id="g449">
      <path
         style="stroke:none;"
         d="M4.8438 0 L3.7031 0 L3.7031 -7.2812 Q3.2812 -6.8906 2.6172 -6.4922 Q1.9531 -6.0938 1.4219 -5.9062 L1.4219 -7.0156 Q2.375 -7.4531 3.0938 -8.0938 Q3.8125 -8.7344 4.1094 -9.3438 L4.8438 -9.3438 L4.8438 0 ZM7.7769 -4.5938 Q7.7769 -6.2344 8.1128 -7.2422 Q8.4487 -8.25 9.1206 -8.7969 Q9.7925 -9.3438 10.8081 -9.3438 Q11.5581 -9.3438 12.1206 -9.0391 Q12.6831 -8.7344 13.0503 -8.1719 Q13.4175 -7.6094 13.6284 -6.7891 Q13.8394 -5.9688 13.8394 -4.5938 Q13.8394 -2.9531 13.5034 -1.9453 Q13.1675 -0.9375 12.4956 -0.3906 Q11.8237 0.1562 10.8081 0.1562 Q9.4644 0.1562 8.6831 -0.8125 Q7.7769 -1.9688 7.7769 -4.5938 ZM8.9487 -4.5938 Q8.9487 -2.2969 9.48 -1.5391 Q10.0112 -0.7812 10.8081 -0.7812 Q11.5894 -0.7812 12.1284 -1.5391 Q12.6675 -2.2969 12.6675 -4.5938 Q12.6675 -6.8906 12.1284 -7.6406 Q11.5894 -8.3906 10.7925 -8.3906 Q10.0112 -8.3906 9.5269 -7.7344 Q8.9487 -6.875 8.9487 -4.5938 Z"
         id="path451" />
    </g>
    <g
       transform="translate(60,274)"
       style="font-size:11px; fill:rgb(38,38,38); text-rendering:geometricPrecision; color-rendering:optimizeQuality; image-rendering:optimizeQuality; font-family:'SansSerif'; color-interpolation:linearRGB; stroke:rgb(38,38,38);"
       id="g453">
      <path
         style="stroke:none;"
         d="M0.4531 -3.8906 Q0.4531 -5.2812 0.7422 -6.1328 Q1.0312 -6.9844 1.6016 -7.4453 Q2.1719 -7.9062 3.0312 -7.9062 Q3.6562 -7.9062 4.1328 -7.6484 Q4.6094 -7.3906 4.9219 -6.9141 Q5.2344 -6.4375 5.4141 -5.7422 Q5.5938 -5.0469 5.5938 -3.8906 Q5.5938 -2.5 5.3047 -1.6484 Q5.0156 -0.7969 4.4531 -0.3281 Q3.8906 0.1406 3.0312 0.1406 Q1.8906 0.1406 1.2344 -0.6875 Q0.4531 -1.6719 0.4531 -3.8906 ZM1.4531 -3.8906 Q1.4531 -1.9375 1.9062 -1.2969 Q2.3594 -0.6562 3.0312 -0.6562 Q3.6875 -0.6562 4.1406 -1.3047 Q4.5938 -1.9531 4.5938 -3.8906 Q4.5938 -5.8281 4.1406 -6.4688 Q3.6875 -7.1094 3.0156 -7.1094 Q2.3438 -7.1094 1.9531 -6.5469 Q1.4531 -5.8281 1.4531 -3.8906 Z"
         id="path455" />
    </g>
    <g
       transform="translate(45,179)"
       style="font-size:13px; fill:rgb(38,38,38); text-rendering:geometricPrecision; color-rendering:optimizeQuality; image-rendering:optimizeQuality; font-family:'SansSerif'; color-interpolation:linearRGB; stroke:rgb(38,38,38);"
       id="g457">
      <path
         style="stroke:none;"
         d="M4.8438 0 L3.7031 0 L3.7031 -7.2812 Q3.2812 -6.8906 2.6172 -6.4922 Q1.9531 -6.0938 1.4219 -5.9062 L1.4219 -7.0156 Q2.375 -7.4531 3.0938 -8.0938 Q3.8125 -8.7344 4.1094 -9.3438 L4.8438 -9.3438 L4.8438 0 ZM7.7769 -4.5938 Q7.7769 -6.2344 8.1128 -7.2422 Q8.4487 -8.25 9.1206 -8.7969 Q9.7925 -9.3438 10.8081 -9.3438 Q11.5581 -9.3438 12.1206 -9.0391 Q12.6831 -8.7344 13.0503 -8.1719 Q13.4175 -7.6094 13.6284 -6.7891 Q13.8394 -5.9688 13.8394 -4.5938 Q13.8394 -2.9531 13.5034 -1.9453 Q13.1675 -0.9375 12.4956 -0.3906 Q11.8237 0.1562 10.8081 0.1562 Q9.4644 0.1562 8.6831 -0.8125 Q7.7769 -1.9688 7.7769 -4.5938 ZM8.9487 -4.5938 Q8.9487 -2.2969 9.48 -1.5391 Q10.0112 -0.7812 10.8081 -0.7812 Q11.5894 -0.7812 12.1284 -1.5391 Q12.6675 -2.2969 12.6675 -4.5938 Q12.6675 -6.8906 12.1284 -7.6406 Q11.5894 -8.3906 10.7925 -8.3906 Q10.0112 -8.3906 9.5269 -7.7344 Q8.9487 -6.875 8.9487 -4.5938 Z"
         id="path459" />
    </g>
    <g
       transform="translate(60,173)"
       style="font-size:11px; fill:rgb(38,38,38); text-rendering:geometricPrecision; color-rendering:optimizeQuality; image-rendering:optimizeQuality; font-family:'SansSerif'; color-interpolation:linearRGB; stroke:rgb(38,38,38);"
       id="g461">
      <path
         style="stroke:none;"
         d="M4.0938 0 L3.125 0 L3.125 -6.1562 Q2.7812 -5.8281 2.2188 -5.4922 Q1.6562 -5.1562 1.2031 -5 L1.2031 -5.9375 Q2.0156 -6.3125 2.6172 -6.8516 Q3.2188 -7.3906 3.4688 -7.9062 L4.0938 -7.9062 L4.0938 0 Z"
         id="path463" />
    </g>
    <g
       transform="translate(45,78)"
       style="font-size:13px; fill:rgb(38,38,38); text-rendering:geometricPrecision; color-rendering:optimizeQuality; image-rendering:optimizeQuality; font-family:'SansSerif'; color-interpolation:linearRGB; stroke:rgb(38,38,38);"
       id="g465">
      <path
         style="stroke:none;"
         d="M4.8438 0 L3.7031 0 L3.7031 -7.2812 Q3.2812 -6.8906 2.6172 -6.4922 Q1.9531 -6.0938 1.4219 -5.9062 L1.4219 -7.0156 Q2.375 -7.4531 3.0938 -8.0938 Q3.8125 -8.7344 4.1094 -9.3438 L4.8438 -9.3438 L4.8438 0 ZM7.7769 -4.5938 Q7.7769 -6.2344 8.1128 -7.2422 Q8.4487 -8.25 9.1206 -8.7969 Q9.7925 -9.3438 10.8081 -9.3438 Q11.5581 -9.3438 12.1206 -9.0391 Q12.6831 -8.7344 13.0503 -8.1719 Q13.4175 -7.6094 13.6284 -6.7891 Q13.8394 -5.9688 13.8394 -4.5938 Q13.8394 -2.9531 13.5034 -1.9453 Q13.1675 -0.9375 12.4956 -0.3906 Q11.8237 0.1562 10.8081 0.1562 Q9.4644 0.1562 8.6831 -0.8125 Q7.7769 -1.9688 7.7769 -4.5938 ZM8.9487 -4.5938 Q8.9487 -2.2969 9.48 -1.5391 Q10.0112 -0.7812 10.8081 -0.7812 Q11.5894 -0.7812 12.1284 -1.5391 Q12.6675 -2.2969 12.6675 -4.5938 Q12.6675 -6.8906 12.1284 -7.6406 Q11.5894 -8.3906 10.7925 -8.3906 Q10.0112 -8.3906 9.5269 -7.7344 Q8.9487 -6.875 8.9487 -4.5938 Z"
         id="path467" />
    </g>
    <g
       transform="translate(60,72)"
       style="font-size:11px; fill:rgb(38,38,38); text-rendering:geometricPrecision; color-rendering:optimizeQuality; image-rendering:optimizeQuality; font-family:'SansSerif'; color-interpolation:linearRGB; stroke:rgb(38,38,38);"
       id="g469">
      <path
         style="stroke:none;"
         d="M5.5312 -0.9219 L5.5312 0 L0.3281 0 Q0.3281 -0.3438 0.4531 -0.6719 Q0.6406 -1.2031 1.0781 -1.7188 Q1.5156 -2.2344 2.3438 -2.9062 Q3.625 -3.9688 4.0781 -4.5781 Q4.5312 -5.1875 4.5312 -5.7344 Q4.5312 -6.3125 4.125 -6.7109 Q3.7188 -7.1094 3.0469 -7.1094 Q2.3594 -7.1094 1.9375 -6.6875 Q1.5156 -6.2656 1.5156 -5.5312 L0.5156 -5.625 Q0.625 -6.7344 1.2891 -7.3203 Q1.9531 -7.9062 3.0781 -7.9062 Q4.2031 -7.9062 4.8672 -7.2812 Q5.5312 -6.6562 5.5312 -5.7188 Q5.5312 -5.25 5.3359 -4.7891 Q5.1406 -4.3281 4.6953 -3.8281 Q4.25 -3.3281 3.2031 -2.4375 Q2.3281 -1.7188 2.0859 -1.4531 Q1.8438 -1.1875 1.6719 -0.9219 L5.5312 -0.9219 Z"
         id="path471" />
    </g>
    <g
       style="stroke-linecap:butt; text-rendering:geometricPrecision; color-rendering:optimizeQuality; image-rendering:optimizeQuality; stroke-linejoin:bevel; stroke-dasharray:10,6; color-interpolation:linearRGB; stroke-width:1.3333; stroke-miterlimit:1;"
       id="g479">
      <path
         d="M73 70.379 L81.68 70.379 L90.36 70.379 L99.04 70.379 L107.72 70.379 L116.4 70.379 L125.08 70.379 L133.76 70.379 L142.44 70.379 L151.12 70.379 L159.8 70.379"
         style="fill:none; fill-rule:evenodd;"
         id="path481" />
      <path
         d="M281.32 106.5684 L290 116.6601 L298.68 126.7518 L307.36 136.8434 L316.04 146.9351 L324.72 157.0268 L333.4 167.1184 L342.08 177.2101 L350.76 187.3018 L359.44 197.3934 L368.12 207.4851 L376.8 217.5768 L385.48 227.6684 L394.16 237.7601 L402.84 247.8518 L411.52 257.9435 L420.2 268.0351 L428.88 278.1268 L437.56 288.2184 L446.24 298.3101 L454.92 308.4018 L463.6 318.4935 L472.28 328.5851 L480.96 338.6768 L489.64 348.7685 L498.32 358.8601 L507 368.9518"
         style="fill:none; fill-rule:evenodd;"
         id="path483" />
    </g>
    <g
       style="fill:white; text-rendering:optimizeSpeed; color-rendering:optimizeSpeed; image-rendering:optimizeSpeed; shape-rendering:crispEdges; color-interpolation:sRGB; stroke:white;"
       id="g489">
      <path
         style="stroke:none;"
         d="M86 356 L86 299 L312 299 L312 356 Z"
         id="path491" />
    </g>
    <g
       transform="translate(116.2,62.5071)"
       style="font-size:21px; text-rendering:geometricPrecision; color-rendering:optimizeQuality; image-rendering:optimizeQuality; font-family:'mwa_cmsy10'; color-interpolation:linearRGB;"
       id="g511">
      <path
         style="stroke:none;"
         d="M-9.0695 1.8505 L-13.257 -7.337 L-14.4914 -6.3995 Q-14.5539 -6.337 -14.632 -6.337 Q-14.7257 -6.337 -14.8351 -6.4307 Q-14.9445 -6.5245 -14.9445 -6.6339 Q-14.9445 -6.7432 -14.8507 -6.8057 L-12.3507 -8.6807 Q-12.2882 -8.7432 -12.1945 -8.7432 Q-12.0695 -8.7432 -11.9914 -8.6026 L-8.2257 -0.3214 L0.6961 -18.8214 Q0.7899 -19.0245 1.0555 -19.0245 Q1.2274 -19.0245 1.3446 -18.8995 Q1.4618 -18.7745 1.4618 -18.6026 Q1.4618 -18.4932 1.4461 -18.462 L-8.3195 1.788 Q-8.4445 1.9755 -8.6476 1.9755 L-8.882 1.9755 Q-8.9914 1.9755 -9.0695 1.8505 Z"
         id="path513" />
    </g>
    <g
       transform="translate(116.2,62.5071)"
       style="font-size:21px; text-rendering:geometricPrecision; color-rendering:optimizeQuality; image-rendering:optimizeQuality; font-family:'mwa_cmsy10'; color-interpolation:linearRGB;"
       id="g515">
      <rect
         x="1.3333"
         width="15.1112"
         height="0.8533"
         y="-19.034"
         style="stroke:none;"
         id="rect517" />
      <path
         style="stroke:none;"
         d="M2.9271 0 L2.9271 -15.0312 L4.974 -15.0312 L12.8646 -3.2344 L12.8646 -15.0312 L14.7708 -15.0312 L14.7708 0 L12.7396 0 L4.8333 -11.8125 L4.8333 0 L2.9271 0 Z"
         id="path519" />
    </g>
    <g
       transform="translate(409.96,199.6156)"
       style="font-size:21px;font-family:mwa_cmsy10;color-interpolation:linearRGB;color-rendering:optimizeQuality;image-rendering:optimizeQuality;text-rendering:geometricPrecision"
       id="g521">
      <path
         style="stroke:none"
         d="m -38.5399,-11.9143 -4.1875,-9.1875 -1.2344,0.9375 q -0.0625,0.0625 -0.1406,0.0625 -0.0938,0 -0.2032,-0.0937 -0.1093,-0.0938 -0.1093,-0.2031 0,-0.1094 0.0937,-0.1719 l 2.5,-1.875 q 0.0625,-0.0625 0.1563,-0.0625 0.125,0 0.2031,0.1406 l 3.7656,8.2813 8.9219,-18.5 q 0.0937,-0.2032 0.3594,-0.2032 0.1718,0 0.289,0.125 0.1172,0.125 0.1172,0.2969 0,0.1094 -0.0156,0.1406 l -9.7656,20.25 q -0.125,0.1875 -0.3282,0.1875 l -0.2343,0 q -0.1094,0 -0.1875,-0.125 z"
         id="path523"
         inkscape:connector-curvature="0" />
      <rect
         x="-28.803801"
         width="14.5445"
         height="0.82130003"
         y="-32.7668"
         style="stroke:none"
         id="rect525" />
      <path
         style="stroke:none"
         d="m -27.21,-14.2266 0,-15.0312 2.0468,0 7.8907,11.7968 0,-11.7968 1.9062,0 0,15.0312 -2.0312,0 -7.9063,-11.8125 0,11.8125 -1.9062,0 z"
         id="path527"
         inkscape:connector-curvature="0" />
      <path
         style="stroke:none"
         d="m -7.7436,-9.0235 q -1.1719,-0.9218 -2.0157,-2.1172 -0.8437,-1.1953 -1.3828,-2.5468 -0.539,-1.3516 -0.8047,-2.8282 -0.2656,-1.4765 -0.2656,-2.9609 0,-1.5 0.2656,-2.9766 0.2657,-1.4765 0.8125,-2.8437 0.5469,-1.3672 1.3985,-2.5547 0.8515,-1.1875 1.9922,-2.0781 0,-0.0469 0.0937,-0.0469 l 0.2031,0 q 0.0625,0 0.1094,0.0547 0.0469,0.0547 0.0469,0.1328 0,0.0938 -0.0313,0.125 -1.0312,1.0156 -1.7109,2.1641 -0.6797,1.1484 -1.0938,2.4453 -0.414,1.2969 -0.6015,2.6875 -0.1875,1.3906 -0.1875,2.8906 0,6.6719 3.5625,10.1406 0.0625,0.0625 0.0625,0.1719 0,0.0469 -0.0547,0.1172 -0.0547,0.0703 -0.1016,0.0703 l -0.2031,0 q -0.0937,0 -0.0937,-0.0469 z"
         id="path529"
         inkscape:connector-curvature="0" />
      <path
         style="stroke:none"
         d="m -4.7116,-14.2266 0,-15.0312 2.9844,0 3.5625,10.6406 q 0.5,1.4844 0.7188,2.2344 0.25,-0.8282 0.7968,-2.4219 l 3.6094,-10.4531 2.6719,0 0,15.0312 -1.9219,0 0,-12.5781 -4.3594,12.5781 -1.7968,0 -4.3594,-12.7969 0,12.7969 -1.9063,0 z"
         id="path531"
         inkscape:connector-curvature="0" />
      <path
         style="stroke:none"
         d="m 13.8333,-19.0547 q -0.1719,0 -0.2812,-0.1328 -0.1094,-0.1328 -0.1094,-0.2891 0,-0.1562 0.1094,-0.2891 0.1093,-0.1328 0.2812,-0.1328 l 12.0469,0 q 0.1719,0 0.2812,0.1328 0.1094,0.1329 0.1094,0.2891 0,0.1563 -0.1094,0.2891 -0.1093,0.1328 -0.2812,0.1328 l -12.0469,0 z"
         id="path533"
         inkscape:connector-curvature="0" />
      <path
         style="stroke:none"
         d="m 35.4912,-14.2266 -1.8437,0 0,-11.7656 q -0.6719,0.6406 -1.7578,1.2734 -1.086,0.6328 -1.9453,0.961 l 0,-1.7969 q 1.5468,-0.7188 2.7109,-1.7578 1.1641,-1.0391 1.6484,-2.0078 l 1.1875,0 0,15.0937 z"
         id="path535"
         inkscape:connector-curvature="0" />
      <path
         style="stroke:none"
         d="m 39.2891,-8.9766 q -0.1875,0 -0.1875,-0.1875 0,-0.0937 0.0469,-0.125 3.5938,-3.5156 3.5938,-10.1875 0,-6.6719 -3.5469,-10.1406 -0.0938,-0.0469 -0.0938,-0.1719 0,-0.0781 0.0625,-0.1328 0.0625,-0.0547 0.125,-0.0547 l 0.2032,0 q 0.0625,0 0.0937,0.0469 1.5156,1.1875 2.5156,2.8906 1,1.7031 1.4688,3.625 0.4687,1.9219 0.4687,3.9375 0,1.4844 -0.25,2.9297 -0.25,1.4453 -0.7968,2.8437 -0.5469,1.3985 -1.3907,2.5782 -0.8437,1.1797 -2.0156,2.1015 -0.0312,0.0469 -0.0937,0.0469 l -0.2032,0 z"
         id="path537"
         inkscape:connector-curvature="0" />
      <rect
         x="-45.914902"
         width="91.829903"
         height="1.1733"
         y="-7.9200001"
         style="stroke:none"
         id="rect539" />
      <path
         style="stroke:none"
         d="m -7.9412,10.1153 0,-10.8906 1.6719,0 0,1.6562 q 0.625,-1.1562 1.164,-1.5312 0.5391,-0.375 1.1953,-0.375 0.9219,0 1.8907,0.5937 L -2.66,1.2872 q -0.6718,-0.4063 -1.3437,-0.4063 -0.6094,0 -1.0938,0.3672 -0.4843,0.3672 -0.6875,1.0078 -0.3125,0.9844 -0.3125,2.1563 l 0,5.7031 -1.8437,0 z"
         id="path541"
         inkscape:connector-curvature="0" />
      <path
         style="stroke:none"
         d="m 2.79392,10.61687 q 0,-0.18756 0.03744,-0.28128 l 2.64384,-8.64372 -2.26884,0 q -0.91872,0 -1.725,0.58128 Q 0.6752,2.85431 0.1502,3.73559 0.11264,3.82931 2e-4,3.82931 l -0.28128,0 q -0.24372,0 -0.24372,-0.24372 0,-0.05628 0.05616,-0.15 0.825,-1.40628 1.76256,-2.35308 0.93744,-0.94692 2.11872,-0.94692 l 7.725,0 q 0.28128,0 0.45936,0.1782 0.1782,0.17808 0.1782,0.45936 0,0.35616 -0.26256,0.63744 -0.26244,0.28128 -0.63744,0.28128 l -4.575,0 -1.68756,8.7 q -0.09372,0.39372 -0.36564,0.66564 -0.2718,0.2718 -0.68436,0.2718 -0.31872,0 -0.54372,-0.20616 -0.225,-0.20628 -0.225,-0.50628 z"
         id="path543"
         inkscape:connector-curvature="0" />
    </g>
  </g>
</svg>
