<?xml version="1.0" encoding="UTF-8" standalone="no"?>
<!-- Created with Inkscape (http://www.inkscape.org/) -->

<svg
   xmlns:dc="http://purl.org/dc/elements/1.1/"
   xmlns:cc="http://creativecommons.org/ns#"
   xmlns:rdf="http://www.w3.org/1999/02/22-rdf-syntax-ns#"
   xmlns:svg="http://www.w3.org/2000/svg"
   xmlns="http://www.w3.org/2000/svg"
   xmlns:sodipodi="http://sodipodi.sourceforge.net/DTD/sodipodi-0.dtd"
   xmlns:inkscape="http://www.inkscape.org/namespaces/inkscape"
   width="175.78011mm"
   height="103.28427mm"
   viewBox="0 0 622.84289 365.96789"
   id="svg4234"
   version="1.1"
   inkscape:version="0.91 r13725"
   sodipodi:docname="snr_props.svg">
  <sodipodi:namedview
     id="base"
     pagecolor="#ffffff"
     bordercolor="#666666"
     borderopacity="1.0"
     inkscape:pageopacity="0.0"
     inkscape:pageshadow="2"
     inkscape:zoom="1.7436179"
     inkscape:cx="298.23048"
     inkscape:cy="182.98395"
     inkscape:document-units="px"
     inkscape:current-layer="layer1"
     showgrid="true"
     inkscape:snap-grids="true"
     inkscape:window-width="1536"
     inkscape:window-height="811"
     inkscape:window-x="-8"
     inkscape:window-y="-8"
     inkscape:window-maximized="1">
    <inkscape:grid
       type="xygrid"
       id="grid4782"
       originx="-22.617187"
       originy="-499.4922" />
  </sodipodi:namedview>
  <defs
     id="defs4236">
    <marker
       inkscape:stockid="Arrow1Lend"
       orient="auto"
       refY="0"
       refX="0"
       id="Arrow1Lend"
       style="overflow:visible"
       inkscape:isstock="true">
      <path
         id="path4793"
         d="M 0,0 5,-5 -12.5,0 5,5 0,0 Z"
         style="fill:#000000;fill-opacity:1;fill-rule:evenodd;stroke:#000000;stroke-width:1pt;stroke-opacity:1"
         transform="matrix(-0.8,0,0,-0.8,-10,0)"
         inkscape:connector-curvature="0" />
    </marker>
    <marker
       inkscape:stockid="Arrow1Lstart"
       orient="auto"
       refY="0"
       refX="0"
       id="Arrow1Lstart"
       style="overflow:visible"
       inkscape:isstock="true">
      <path
         id="path4790"
         d="M 0,0 5,-5 -12.5,0 5,5 0,0 Z"
         style="fill:#000000;fill-opacity:1;fill-rule:evenodd;stroke:#000000;stroke-width:1pt;stroke-opacity:1"
         transform="matrix(0.8,0,0,0.8,10,0)"
         inkscape:connector-curvature="0" />
    </marker>
  </defs>
  <metadata
     id="metadata4239">
    <rdf:RDF>
      <cc:Work
         rdf:about="">
        <dc:format>image/svg+xml</dc:format>
        <dc:type
           rdf:resource="http://purl.org/dc/dcmitype/StillImage" />
        <dc:title></dc:title>
      </cc:Work>
    </rdf:RDF>
  </metadata>
  <g
     inkscape:label="Layer 1"
     inkscape:groupmode="layer"
     id="layer1"
     transform="translate(-22.617187,-186.90212)">
    <path
       style="fill:none;fill-rule:evenodd;stroke:#000000;stroke-width:3;stroke-linecap:butt;stroke-linejoin:miter;stroke-miterlimit:4;stroke-dasharray:none;stroke-opacity:1;marker-start:url(#Arrow1Lstart);marker-end:url(#Arrow1Lend)"
       d="m 120,192.3622 0,300 520,0"
       id="path4784"
       inkscape:connector-curvature="0" />
    <text
       xml:space="preserve"
       style="font-style:normal;font-weight:normal;font-size:40px;line-height:125%;font-family:sans-serif;letter-spacing:0px;word-spacing:0px;fill:#000000;fill-opacity:1;stroke:none;stroke-width:1px;stroke-linecap:butt;stroke-linejoin:miter;stroke-opacity:1"
       x="327.04971"
       y="552.36218"
       id="text5098"
       sodipodi:linespacing="125%"><tspan
         sodipodi:role="line"
         id="tspan5100"
         x="327.04971"
         y="552.36218">Time</tspan></text>
    <text
       xml:space="preserve"
       style="font-style:normal;font-weight:normal;font-size:40px;line-height:125%;font-family:sans-serif;letter-spacing:0px;word-spacing:0px;fill:#000000;fill-opacity:1;stroke:none;stroke-width:1px;stroke-linecap:butt;stroke-linejoin:miter;stroke-opacity:1"
       x="20"
       y="361.68945"
       id="text5102"
       sodipodi:linespacing="125%"><tspan
         sodipodi:role="line"
         id="tspan5104"
         x="20"
         y="361.68945">SNR</tspan></text>
    <path
       style="fill:#ddff55;fill-rule:evenodd;stroke:#000000;stroke-width:2;stroke-linecap:butt;stroke-linejoin:miter;stroke-miterlimit:4;stroke-dasharray:none;stroke-opacity:1"
       d="m 120,492.3622 0,-200 c 100,100 240,180 457.04209,200 l -457.04209,0"
       id="path5142"
       inkscape:connector-curvature="0"
       sodipodi:nodetypes="cccc" />
    <path
       style="fill:none;fill-rule:evenodd;stroke:#000000;stroke-width:3;stroke-linecap:butt;stroke-linejoin:miter;stroke-miterlimit:4;stroke-dasharray:6,6;stroke-dashoffset:0;stroke-opacity:1"
       d="m 120,292.3622 200,0 0,0"
       id="path5144"
       inkscape:connector-curvature="0" />
    <g
       id="g5199"
       transform="matrix(2,0,0,2,-116.10672,-68.223137)">
      <g
         id="content"
         transform="matrix(0.52281127,0,0,-0.52281127,-91.491971,467.13218)"
         xml:space="preserve"
         stroke-miterlimit="10.433"
         font-style="normal"
         font-variant="normal"
         font-weight="normal"
         font-stretch="normal"
         font-size-adjust="none"
         letter-spacing="normal"
         word-spacing="normal"
         style="font-style:normal;font-variant:normal;font-weight:normal;font-stretch:normal;letter-spacing:normal;word-spacing:normal;text-anchor:start;fill:none;fill-opacity:1;fill-rule:evenodd;stroke:#000000;stroke-linecap:butt;stroke-linejoin:miter;stroke-miterlimit:10.43299961;stroke-dasharray:none;stroke-dashoffset:0;stroke-opacity:1"><path
           d="m 485.16,414.42 0.02,-0.29 0.03,-0.29 0.03,-0.28 0.03,-0.28 0.03,-0.27 0.03,-0.27 0.04,-0.25 0.03,-0.26 0.04,-0.25 0.03,-0.24 0.04,-0.24 0.04,-0.23 0.04,-0.22 0.04,-0.22 0.04,-0.21 0.04,-0.21 0.04,-0.2 0.04,-0.19 0.04,-0.19 0.03,-0.18 0.04,-0.17 0.04,-0.17 0.04,-0.16 0.03,-0.15 0.04,-0.15 0.03,-0.13 0.03,-0.13 0.04,-0.13 0.03,-0.11 0.02,-0.11 0.03,-0.1 0.02,-0.1 c 0.55,-2.25 0.8,-3.34 2.94,-3.34 2.25,0 6.08,2.25 6.08,3.25 0,0.25 -0.19,0.34 -0.44,0.34 -0.65,0 -1.7,-0.54 -1.84,-0.65 -0.36,-0.19 -0.45,-0.19 -0.55,-0.19 -1.4,0 -1.7,1.34 -2.3,4.33 -0.34,1.64 -0.79,3.64 -1.18,10.47 -0.36,5.07 -0.57,10.15 -0.57,15.23 0,1.2 0.07,2.5 0.07,3.69 0,0.79 0,1 -0.55,1 -0.7,0 -2.75,-0.85 -3.64,-2.19 l -0.36,-0.55 c -3.92,-8.42 -7.61,-14.45 -10.2,-18.48 -2.94,-4.53 -8.13,-12.66 -10.82,-12.66 -1.84,0 -3.39,1.19 -3.84,2.99 -0.05,0.11 -0.14,0.4 -0.34,0.4 -0.75,0 -1.85,-2.39 -1.85,-3.79 0,-1.99 2.14,-4.18 4.49,-4.18 3.44,0 9.17,8.97 10.26,10.71 l 1.35,1.94 c 3.48,5.39 6.37,10.56 6.67,11.12 2.5,4.42 3.84,7.31 4.48,8.56 l 0.05,0 0,-2.89 c 0,-2.89 0.11,-5.78 0.25,-8.67 0.06,-1 0.25,-4.73 0.5,-7.33 l -9.11,0 c -0.8,0 -1.55,0 -2.84,-0.79 l -1.35,-1.94 z"
           id="path5202"
           inkscape:connector-curvature="0"
           style="fill:#000000;stroke-width:0" /></g>    </g>
    <g
       id="g5242"
       transform="matrix(2,0,0,2,34.071924,-199.37902)">
      <g
         word-spacing="normal"
         letter-spacing="normal"
         font-size-adjust="none"
         font-stretch="normal"
         font-weight="normal"
         font-variant="normal"
         font-style="normal"
         stroke-miterlimit="10.433"
         xml:space="preserve"
         transform="matrix(0.52281127,0,0,-0.52281127,-91.491971,467.13218)"
         id="g5244"
         style="font-style:normal;font-variant:normal;font-weight:normal;font-stretch:normal;letter-spacing:normal;word-spacing:normal;text-anchor:start;fill:none;fill-opacity:1;fill-rule:evenodd;stroke:#000000;stroke-linecap:butt;stroke-linejoin:miter;stroke-miterlimit:10.43299961;stroke-dasharray:none;stroke-dashoffset:0;stroke-opacity:1"><path
           id="path5246"
           d="m 473.21,440.23 -0.57,0 -0.55,-0.01 -0.53,-0.02 -0.51,-0.02 -0.49,-0.03 -0.47,-0.03 -0.46,-0.04 -0.43,-0.04 -0.42,-0.04 -0.4,-0.05 -0.39,-0.05 -0.37,-0.06 -0.35,-0.06 -0.34,-0.06 -0.32,-0.06 -0.3,-0.06 -0.3,-0.07 -0.27,-0.06 -0.27,-0.07 -0.25,-0.07 -0.23,-0.06 -0.23,-0.07 -0.21,-0.07 -0.2,-0.06 -0.19,-0.06 -0.17,-0.06 -0.17,-0.06 -0.16,-0.06 -0.14,-0.05 -0.13,-0.05 -0.13,-0.05 -0.12,-0.04 c -5.07,-2.14 -6.23,-5.53 -6.23,-6.19 0,-0.34 0.25,-0.39 0.55,-0.39 0.9,0 3.29,1.25 3.68,2.34 0.61,1.89 0.75,2.35 4.1,2.78 1.69,0.21 3.33,0.3 5.03,0.3 l 4.53,0 c -3.14,-3.03 -4.58,-8.36 -6.37,-15.53 -1.46,-5.89 -2.6,-9.77 -4.64,-12.41 -0.5,-0.54 -0.55,-0.61 -1.9,-0.61 l -3.18,0 c -0.96,0 -1.5,0 -2.74,-0.73 -0.54,-0.31 -1.65,-1.16 -1.65,-1.66 0,-0.29 0.06,-0.34 1.15,-0.34 l 17.03,0 c 5.83,0 10.18,4.33 10.18,6.12 0,0.36 -0.41,0.36 -0.55,0.36 -0.86,0 -3.19,-1.15 -3.69,-2.4 -0.36,-1.03 -0.5,-1.35 -3,-1.35 l -9.51,0 c 3.54,3.05 5.03,7.99 6.73,14.75 1.34,5.44 2.53,10.27 4.58,13.32 0.3,0.43 0.36,0.48 1.34,0.48 l 4.24,0 c 1,0 1.45,0 2.75,0.75 0.43,0.25 1.59,1.05 1.59,1.64 0,0.31 -0.05,0.36 -1.16,0.36 z"
           inkscape:connector-curvature="0"
           style="fill:#000000;stroke-width:0" /></g>    </g>
  </g>
</svg>
