<?xml version="1.0" encoding="UTF-8" standalone="no"?>
<!-- Created with Inkscape (http://www.inkscape.org/) -->

<svg
   xmlns:dc="http://purl.org/dc/elements/1.1/"
   xmlns:cc="http://creativecommons.org/ns#"
   xmlns:rdf="http://www.w3.org/1999/02/22-rdf-syntax-ns#"
   xmlns:svg="http://www.w3.org/2000/svg"
   xmlns="http://www.w3.org/2000/svg"
   xmlns:sodipodi="http://sodipodi.sourceforge.net/DTD/sodipodi-0.dtd"
   xmlns:inkscape="http://www.inkscape.org/namespaces/inkscape"
   width="270.67276"
   height="219.17087"
   id="svg4295"
   version="1.1"
   inkscape:version="0.48.4 r9939"
   sodipodi:docname="VORcircuit.svg">
  <defs
     id="defs4297" />
  <sodipodi:namedview
     id="base"
     pagecolor="#ffffff"
     bordercolor="#666666"
     borderopacity="1.0"
     inkscape:pageopacity="0.0"
     inkscape:pageshadow="2"
     inkscape:zoom="4.1895609"
     inkscape:cx="135.33638"
     inkscape:cy="115.82445"
     inkscape:document-units="px"
     inkscape:current-layer="layer1"
     showgrid="false"
     inkscape:window-width="1264"
     inkscape:window-height="1522"
     inkscape:window-x="1280"
     inkscape:window-y="0"
     inkscape:window-maximized="0"
     fit-margin-top="0"
     fit-margin-left="0"
     fit-margin-right="0"
     fit-margin-bottom="0" />
  <metadata
     id="metadata4300">
    <rdf:RDF>
      <cc:Work
         rdf:about="">
        <dc:format>image/svg+xml</dc:format>
        <dc:type
           rdf:resource="http://purl.org/dc/dcmitype/StillImage" />
      </cc:Work>
    </rdf:RDF>
  </metadata>
  <g
     inkscape:label="Layer 1"
     inkscape:groupmode="layer"
     id="layer1"
     transform="translate(-61.820324,-402.89646)">
    <path
       inkscape:connector-curvature="0"
       id="path232"
       style="fill:none;stroke:#110f0d;stroke-width:3.91375017;stroke-linecap:butt;stroke-linejoin:miter;stroke-miterlimit:4;stroke-opacity:1;stroke-dasharray:none"
       d="m 257.00524,458.95421 c -0.74,4.73125 -4.58375,6.25 -8.28,4.055 -1.33,-1.0125 -2.365,-3.5475 -0.88625,-5.06625 1.18125,-1.015 3.695,-1.18375 5.32125,-1.18375 0.74,-0.16875 1.62625,0.34 1.775,-0.67625 0.1475,0 0.295,0 0.44375,-0.16875 0,-0.33625 0.14625,-0.67625 0,-1.0125" />
    <path
       inkscape:connector-curvature="0"
       id="path236"
       style="fill:none;stroke:#110f0d;stroke-width:3.91375017;stroke-linecap:butt;stroke-linejoin:miter;stroke-miterlimit:4;stroke-opacity:1;stroke-dasharray:none"
       d="m 246.95162,458.44884 c 0,1.8575 0.4425,5.7425 -2.36625,4.56 -1.62625,-0.84375 -1.77375,-3.715 -1.77375,-5.405 0,-4.22125 2.36625,-7.2625 5.91375,-8.1075 1.33125,-0.3375 5.91375,-0.505 6.3575,-1.855" />
    <path
       inkscape:connector-curvature="0"
       id="path240"
       style="fill:none;stroke:#110f0d;stroke-width:3.91375017;stroke-linecap:butt;stroke-linejoin:miter;stroke-miterlimit:4;stroke-opacity:1;stroke-dasharray:none"
       d="m 249.02062,448.65146 c 0,-1.01125 0,-2.02625 -0.295,-2.87125 -1.33125,-0.16875 -3.54875,-1.18125 -4.28875,-2.53125 -0.88625,-1.52125 -0.88625,-4.90125 -0.14625,-6.42 0.73875,-1.69 2.2175,-3.2075 3.25125,-4.3925 1.33125,-1.35 2.21875,-2.53125 3.54875,-3.88375 0.1475,-0.3375 0.44375,-0.67625 0.44375,-1.01375 0.8875,-0.67625 2.9575,-1.18125 3.54875,-0.33625 0.8875,1.0125 0.8875,3.03875 0.8875,4.72875 0,1.69 -0.445,3.04 -0.8875,4.72875 -0.2975,1.01375 -1.18375,3.20875 -0.8875,4.2225" />
    <path
       inkscape:connector-curvature="0"
       id="path244"
       style="fill:none;stroke:#110f0d;stroke-width:3.91375017;stroke-linecap:butt;stroke-linejoin:miter;stroke-miterlimit:4;stroke-opacity:1;stroke-dasharray:none"
       d="m 253.45674,426.52621 c 0.1475,-0.67625 1.32875,-2.1975 1.9225,-2.7025 l 0,-0.3375 c 1.4775,-1.18375 3.2525,-1.8575 5.17375,-1.68875 0.88875,2.3625 0.44375,4.89625 -0.14625,7.095 -0.445,2.025 0,5.23375 -1.48,6.755" />
    <path
       inkscape:connector-curvature="0"
       id="path248"
       style="fill:none;stroke:#110f0d;stroke-width:3.91375017;stroke-linecap:butt;stroke-linejoin:miter;stroke-miterlimit:4;stroke-opacity:1;stroke-dasharray:none"
       d="m 260.84924,422.64134 c 0.8875,-2.36625 3.54875,-3.21 5.6175,-4.055 1.1825,-0.505 2.51375,-0.505 3.9925,-0.67625 1.62625,0 2.66125,0.5075 3.9925,0.8475 1.03375,1.68625 -0.59125,4.0525 -2.07,4.38875 l 0,0.34 c -2.21875,0.67375 -3.10625,2.02625 -4.2875,4.0525 -1.48,2.195 -1.3325,4.56 -1.775,7.26375" />
    <path
       inkscape:connector-curvature="0"
       id="path252"
       style="fill:none;stroke:#110f0d;stroke-width:3.91375017;stroke-linecap:butt;stroke-linejoin:miter;stroke-miterlimit:4;stroke-opacity:1;stroke-dasharray:none"
       d="m 306.82887,426.18934 c 0,-1.52125 -0.73875,-5.06875 -1.47875,-5.9125 -1.1825,-1.35125 -3.39875,-1.85875 -4.87875,-2.195 -1.035,-0.17125 -2.5125,-0.34 -3.5475,-0.17125 -1.18375,0.33875 -1.18375,0.8475 -1.47875,2.02875 -0.445,2.36375 0.295,3.5475 1.625,5.23625 0,0.16875 0.445,0 0.445,0 0.1475,0.16875 0.1475,0.675 0.295,0.8425 0.14875,0.17125 0.29625,0.67625 0.44375,1.01625 0.29625,0.67375 0.59125,1.51875 1.035,2.195 0.73875,1.52 1.6275,3.37625 2.6625,4.22125 0,0.5075 0.14625,0.67625 0.44125,1.0125" />
    <path
       inkscape:connector-curvature="0"
       id="path256"
       style="fill:none;stroke:#110f0d;stroke-width:3.91375017;stroke-linecap:butt;stroke-linejoin:miter;stroke-miterlimit:4;stroke-opacity:1;stroke-dasharray:none"
       d="m 274.59924,419.09396 c 0.59,-0.3375 0.88625,-0.84375 1.47875,-1.18375 0.59,-0.50625 1.47875,-0.50625 1.625,-1.34875 1.03625,-0.84625 3.69625,-0.3375 5.0275,-0.3375 1.775,0 3.54875,0 5.3225,0.1675 2.6625,0.33875 5.17375,2.02625 7.245,3.88375" />
    <path
       inkscape:connector-curvature="0"
       id="path260"
       style="fill:none;stroke:#110f0d;stroke-width:3.91375017;stroke-linecap:butt;stroke-linejoin:miter;stroke-miterlimit:4;stroke-opacity:1;stroke-dasharray:none"
       d="m 306.09037,421.62884 0,-0.33875 c 1.1825,-1.35125 3.845,-1.01375 5.17375,-0.3375 0.73875,0.3375 1.18375,0.67625 1.775,1.18125 0.88875,0.845 1.3325,0.67625 2.3675,1.01375 0,1.52125 0,2.87125 -0.44375,4.22375 -0.59125,1.0125 -0.74125,2.195 -0.88625,3.5475 -0.59375,2.3625 -2.07375,4.5575 -2.3675,7.09125" />
    <path
       inkscape:connector-curvature="0"
       id="path264"
       style="fill:none;stroke:#110f0d;stroke-width:3.91375017;stroke-linecap:butt;stroke-linejoin:miter;stroke-miterlimit:4;stroke-opacity:1;stroke-dasharray:none"
       d="m 315.40674,424.83684 c 0.14625,-1.18125 1.4775,-1.18125 2.36375,-1.01375 1.03375,0 1.33125,0.3375 2.21875,1.01375 1.32875,1.3525 2.5125,2.1975 3.69625,3.5475 0.73875,0.845 1.33125,1.35 1.92,2.195 0.59125,0.67625 1.185,1.3525 1.775,2.365 0.44375,0.845 0.74,1.35 1.0325,2.5325 0,0.5075 0.15,1.015 0.15,1.68875 0,1.1825 0.1475,1.01375 -0.73875,1.3525 -0.74125,0.3375 -2.0725,0.16875 -2.9575,0.16875 1.03625,0 2.36625,3.885 1.62625,4.89875 -1.035,1.18125 -3.8425,-1.18125 -4.5825,-1.69 -1.47875,-0.84375 -3.2525,-1.0125 -5.02625,-0.505 -1.18375,0.3375 -3.2525,1.51875 -4.14125,2.7" />
    <path
       inkscape:connector-curvature="0"
       id="path268"
       style="fill:none;stroke:#110f0d;stroke-width:3.91375017;stroke-linecap:butt;stroke-linejoin:miter;stroke-miterlimit:4;stroke-opacity:1;stroke-dasharray:none"
       d="m 318.95287,452.53759 c 0.445,0.67375 0.295,1.18125 1.1825,1.51875 0.88625,0.33625 1.92125,0.16875 2.80875,0 1.775,0 3.4025,-0.3375 4.43625,0.845 0.74,0.84375 0.8875,3.21 0.74,4.39125 -0.14875,1.69 -1.77375,1.85875 -2.6625,2.87125 -0.88625,0 -2.21625,0.16875 -2.95625,0.16875 -1.035,-0.16875 -1.18375,-0.505 -1.92125,-1.01375 -1.3325,-0.84375 -2.21875,-1.35 -3.1075,-2.53375 -1.18,-2.02625 -2.06625,-5.7425 -4.43375,-6.755 -0.14875,-0.16875 0,-0.33625 -0.14875,-0.33625" />
    <path
       inkscape:connector-curvature="0"
       id="path272"
       style="fill:none;stroke:#110f0d;stroke-width:3.91375017;stroke-linecap:butt;stroke-linejoin:miter;stroke-miterlimit:4;stroke-opacity:1;stroke-dasharray:none"
       d="m 323.38774,442.90934 c 0.29625,0.67625 0.59375,1.01375 0.8875,1.18125 0,1.185 0.14875,2.87375 -0.29375,3.37875 0.4425,1.1825 1.3275,0.67625 2.0675,1.01375 0.4425,0.16875 1.18375,0.845 1.77375,1.3525 1.33,1.18125 1.47875,3.71625 2.515,5.235 0.59125,3.88375 -0.15,4.39125 -2.07125,4.72875" />
    <path
       inkscape:connector-curvature="0"
       id="path276"
       style="fill:none;stroke:#110f0d;stroke-width:3.91375017;stroke-linecap:butt;stroke-linejoin:miter;stroke-miterlimit:4;stroke-opacity:1;stroke-dasharray:none"
       d="m 256.11787,460.64434 c 0.59125,2.19625 0.4425,4.055 1.33,6.08125 0.73875,1.35 2.51375,3.37625 3.54875,4.0525 4.14,2.36375 8.575,4.9 13.30625,5.06875 5.61875,0.3375 11.38375,0 17.00125,0 4.28875,0 8.72375,0.16875 12.71625,-1.0125 1.33125,-0.34 2.36625,-1.3525 3.4,-2.19875 1.03625,-0.6725 2.515,-1.34875 3.25375,-2.53375 1.77375,-0.505 3.84375,-3.04 5.0275,-4.5575 1.92125,-2.36625 2.365,-4.56125 2.365,-7.6" />
    <path
       inkscape:connector-curvature="0"
       id="path280"
       style="fill:none;stroke:#110f0d;stroke-width:3.91375017;stroke-linecap:butt;stroke-linejoin:miter;stroke-miterlimit:4;stroke-opacity:1;stroke-dasharray:none"
       d="m 275.48549,432.77621 c 3.69625,-2.1975 4.43625,-6.42 9.90625,-5.91125 3.99125,0.1675 7.3925,3.885 9.4625,6.92625" />
    <path
       d="m 242.81162,459.79896 c 0,1.01625 0.44375,1.86 0.8875,1.86 0.59125,0 1.03375,-0.84375 1.03375,-1.86 0,-1.18125 -0.4425,-2.02625 -1.03375,-2.02625 -0.44375,0 -0.8875,0.845 -0.8875,2.02625"
       style="fill:#110f0d;fill-opacity:1;fill-rule:nonzero;stroke:none"
       id="path282"
       inkscape:connector-curvature="0" />
    <path
       d="m 243.25524,459.79896 c 0,1.01625 0.44375,1.86 0.88625,1.86 0.59125,0 1.03625,-0.84375 1.03625,-1.86 0,-1.18125 -0.445,-2.02625 -1.03625,-2.02625 -0.4425,0 -0.88625,0.845 -0.88625,2.02625"
       style="fill:#110f0d;fill-opacity:1;fill-rule:nonzero;stroke:none"
       id="path284"
       inkscape:connector-curvature="0" />
    <path
       d="m 244.14149,459.79896 c 0,1.01625 0.44375,1.86 0.73875,1.86 0.44375,0 0.74125,-0.84375 0.74125,-1.86 0,-1.18125 -0.2975,-2.02625 -0.74125,-2.02625 -0.295,0 -0.73875,0.845 -0.73875,2.02625"
       style="fill:#ffffff;fill-opacity:1;fill-rule:nonzero;stroke:none"
       id="path286"
       inkscape:connector-curvature="0" />
    <text
       transform="scale(0.95799848,1.043843)"
       id="text304"
       x="191.02849"
       y="543.01013"
       style="font-size:14.36997795px">
      <tspan
         style="font-size:21.55496597px;font-variant:normal;font-weight:bold;writing-mode:lr-tb;fill:#110f0d;fill-opacity:1;fill-rule:nonzero;stroke:none;font-family:Arial;-inkscape-font-specification:Arial-BoldMT"
         x="191.02849"
         y="543.01013"
         id="tspan306">-</tspan>
    </text>
    <path
       inkscape:connector-curvature="0"
       id="path310"
       style="fill:none;stroke:#110f0d;stroke-width:0.625;stroke-linecap:butt;stroke-linejoin:miter;stroke-miterlimit:4;stroke-opacity:1;stroke-dasharray:2.5, 2.5;stroke-dashoffset:0"
       d="m 254.89899,469.19534 -21.9875,36.07249" />
    <text
       style="font-size:15px"
       id="text312"
       x="61.828869"
       y="576.28333">
      <tspan
         style="font-size:17.5px;font-variant:normal;font-weight:bold;writing-mode:lr-tb;fill:#110f0d;fill-opacity:1;fill-rule:nonzero;stroke:none;font-family:Arial;-inkscape-font-specification:Arial-BoldMT"
         x="61.828869 73.501366 83.231369 92.961365 98.788872 103.65387 114.34637 125.03887 129.90387 139.63387"
         y="576.28333"
         sodipodi:role="line"
         id="tspan314">Vestibular</tspan>
    </text>
    <text
       style="font-size:15px"
       id="text316"
       x="61.828869"
       y="596.65332">
      <tspan
         style="font-size:17.5px;font-variant:normal;font-weight:bold;writing-mode:lr-tb;fill:#110f0d;fill-opacity:1;fill-rule:nonzero;stroke:none;font-family:Arial;-inkscape-font-specification:Arial-BoldMT"
         x="61.828869 66.693871 77.386368 88.078873 98.77137"
         y="596.65332"
         sodipodi:role="line"
         id="tspan318">input</tspan>
    </text>
    <path
       inkscape:connector-curvature="0"
       id="path334"
       style="fill:none;stroke:#110f0d;stroke-width:0.625;stroke-linecap:butt;stroke-linejoin:miter;stroke-miterlimit:4;stroke-opacity:1;stroke-dasharray:2.5, 2.5;stroke-dashoffset:0"
       d="m 248.65812,451.73009 -36.3225,-20.20875" />
    <text
       style="font-size:15px"
       id="text336"
       x="121.82712"
       y="454.61456">
      <tspan
         style="font-size:17.5px;font-variant:normal;font-weight:bold;writing-mode:lr-tb;fill:#231f20;fill-opacity:1;fill-rule:nonzero;stroke:none;font-family:Arial;-inkscape-font-specification:Arial-BoldMT"
         x="121.82712 133.49962"
         y="454.61456"
         sodipodi:role="line"
         id="tspan338">PF</tspan>
    </text>
    <path
       d="m 210.37812,434.45534 c 0.36375,-0.0112 0.69625,0.085 0.9525,0.2525 0.8025,1.56 2.9725,2.69875 2.90625,4.29875 -0.0675,1.595 -1.8925,2.975 -2.59,4.58875 -0.235,0.18625 -0.5575,0.31 -0.92125,0.32125 -0.3625,0.015 -0.69375,-0.0838 -0.93625,-0.25125 -0.24375,-0.1725 -0.4,-0.41 -0.4025,-0.68375 0.6475,-2.60375 0.30375,-5.1225 -0.29125,-7.72625 -0.007,-0.19125 0.11125,-0.38125 0.36625,-0.4775 0.23125,-0.1875 0.555,-0.30875 0.91625,-0.3225"
       style="fill:#231f20;fill-opacity:1;fill-rule:nonzero;stroke:none"
       id="path384"
       inkscape:connector-curvature="0" />
    <g
       id="g386"
       transform="matrix(1.25,0,0,-1.25,210.37812,434.45534)">
      <path
         d="M 0,0 C 0.291,0.009 0.557,-0.068 0.762,-0.202 1.404,-1.45 3.14,-2.361 3.087,-3.641 3.033,-4.917 1.573,-6.021 1.015,-7.312 0.827,-7.461 0.569,-7.56 0.278,-7.569 c -0.29,-0.012 -0.555,0.067 -0.749,0.201 -0.195,0.138 -0.32,0.328 -0.322,0.547 0.518,2.083 0.243,4.098 -0.233,6.181 -0.006,0.153 0.089,0.305 0.293,0.382 C -0.548,-0.108 -0.289,-0.011 0,0 z"
         style="fill:none;stroke:#231f20;stroke-width:1;stroke-linecap:round;stroke-linejoin:miter;stroke-miterlimit:1;stroke-opacity:1;stroke-dasharray:none"
         id="path388"
         inkscape:connector-curvature="0" />
    </g>
    <path
       d="m 158.36512,534.17758 c 0,0.36375 -0.11,0.6925 -0.28625,0.9425 -1.58875,0.74625 -2.8075,2.87125 -4.40125,2.74625 -1.5925,-0.125 -2.905,-2 -4.4925,-2.75625 -0.1775,-0.24125 -0.2875,-0.56875 -0.2875,-0.9325 0,-0.36125 0.11,-0.69 0.2875,-0.9275 0.17875,-0.2375 0.42375,-0.38375 0.69625,-0.37625 2.5775,0.7425 5.11,0.4925 7.73375,-0.007 0.18875,0 0.375,0.125 0.4625,0.38375 0.1775,0.2375 0.2875,0.56625 0.2875,0.9275"
       style="fill:#231f20;fill-opacity:1;fill-rule:nonzero;stroke:none"
       id="path390"
       inkscape:connector-curvature="0" />
    <g
       id="g392"
       transform="matrix(1.25,0,0,-1.25,158.36512,534.17758)">
      <path
         d="M 0,0 C 0,-0.291 -0.088,-0.554 -0.229,-0.754 -1.5,-1.351 -2.475,-3.051 -3.75,-2.951 c -1.274,0.1 -2.324,1.6 -3.594,2.205 -0.142,0.193 -0.23,0.455 -0.23,0.746 0,0.289 0.088,0.552 0.23,0.742 0.143,0.19 0.339,0.307 0.557,0.301 2.062,-0.594 4.088,-0.394 6.187,0.006 0.151,0 0.3,-0.1 0.37,-0.307 C -0.088,0.552 0,0.289 0,0 z"
         style="fill:none;stroke:#231f20;stroke-width:1;stroke-linecap:round;stroke-linejoin:miter;stroke-miterlimit:1;stroke-opacity:1;stroke-dasharray:none"
         id="path394"
         inkscape:connector-curvature="0" />
    </g>
    <path
       d="m 177.16037,585.72546 c -0.36375,0 -0.6925,-0.11 -0.9425,-0.28625 -0.74625,-1.58875 -2.87125,-2.8075 -2.74625,-4.40125 0.125,-1.5925 2,-2.905 2.75625,-4.4925 0.24125,-0.1775 0.56875,-0.2875 0.9325,-0.2875 0.36125,0 0.69,0.11 0.9275,0.2875 0.2375,0.17875 0.38375,0.42375 0.37625,0.69625 -0.7425,2.5775 -0.4925,5.11 0.008,7.73375 0,0.18875 -0.125,0.375 -0.38375,0.4625 -0.2375,0.1775 -0.56625,0.2875 -0.9275,0.2875"
       style="fill:#231f20;fill-opacity:1;fill-rule:nonzero;stroke:none"
       id="path396"
       inkscape:connector-curvature="0" />
    <g
       id="g398"
       transform="matrix(1.25,0,0,-1.25,177.16037,585.72545)">
      <path
         d="M 0,0 C -0.291,0 -0.554,0.088 -0.754,0.229 -1.351,1.5 -3.051,2.475 -2.951,3.75 c 0.1,1.274 1.6,2.324 2.205,3.594 0.193,0.142 0.455,0.23 0.746,0.23 0.289,0 0.552,-0.088 0.742,-0.23 C 0.932,7.201 1.049,7.005 1.043,6.787 0.449,4.725 0.649,2.699 1.049,0.6 1.049,0.449 0.949,0.3 0.742,0.23 0.552,0.088 0.289,0 0,0 z"
         style="fill:none;stroke:#231f20;stroke-width:1.5;stroke-linecap:round;stroke-linejoin:miter;stroke-miterlimit:1;stroke-opacity:1;stroke-dasharray:none"
         id="path400"
         inkscape:connector-curvature="0" />
    </g>
    <path
       d="m 199.45649,559.74158 c 0,1.74625 -1.46875,3.16375 -3.28125,3.16375 -1.81125,0 -3.28125,-1.4175 -3.28125,-3.16375 0,-1.74625 1.47,-3.16375 3.28125,-3.16375 1.8125,0 3.28125,1.4175 3.28125,3.16375"
       style="fill:#0a6b38;fill-opacity:1;fill-rule:nonzero;stroke:none"
       id="path402"
       inkscape:connector-curvature="0" />
    <g
       id="g404"
       transform="matrix(1.25,0,0,-1.25,246.38887,541.71671)">
      <path
         d="m 0,0 c 0,-7.043 -5.709,-12.75 -12.75,-12.75 -7.042,0 -12.75,5.707 -12.75,12.75 0,7.041 5.708,12.75 12.75,12.75 C -5.709,12.75 0,7.041 0,0 z"
         style="fill:none;stroke:#231f20;stroke-width:1.5;stroke-linecap:butt;stroke-linejoin:round;stroke-miterlimit:10;stroke-opacity:1;stroke-dasharray:none"
         id="path406"
         inkscape:connector-curvature="0" />
    </g>
    <g
       id="g408"
       transform="matrix(1.25,0,0,-1.25,186.27287,440.99159)">
      <path
         d="M 0,0 16,-13"
         style="fill:#231f20;fill-opacity:1;fill-rule:nonzero;stroke:#0a6b38;stroke-width:1.5;stroke-linecap:round;stroke-linejoin:miter;stroke-miterlimit:1;stroke-opacity:1;stroke-dasharray:none"
         id="path410"
         inkscape:connector-curvature="0" />
    </g>
    <g
       id="g412"
       transform="matrix(1.25,0,0,-1.25,186.89787,416.61659)">
      <path
         d="M 0,0 0,-19.5"
         style="fill:none;stroke:#0a6b38;stroke-width:1.5;stroke-linecap:round;stroke-linejoin:miter;stroke-miterlimit:1;stroke-opacity:1;stroke-dasharray:none"
         id="path414"
         inkscape:connector-curvature="0" />
    </g>
    <g
       id="g416"
       transform="matrix(1.25,0,0,-1.25,206.27287,431.61659)">
      <path
         d="M 0,0 0,-19.5"
         style="fill:none;stroke:#0a6b38;stroke-width:1.5;stroke-linecap:round;stroke-linejoin:miter;stroke-miterlimit:1;stroke-opacity:1;stroke-dasharray:none"
         id="path418"
         inkscape:connector-curvature="0" />
    </g>
    <g
       id="g420"
       transform="matrix(1.25,0,0,-1.25,196.11662,448.49159)">
      <path
         d="M 0,0 0,-11.5"
         style="fill:none;stroke:#0a6b38;stroke-width:1.5;stroke-linecap:round;stroke-linejoin:miter;stroke-miterlimit:1;stroke-opacity:1;stroke-dasharray:none"
         id="path422"
         inkscape:connector-curvature="0" />
    </g>
    <g
       id="g424"
       transform="matrix(1.25,0,0,-1.25,196.11662,425.05409)">
      <path
         d="M 0,0 0,-19.5"
         style="fill:none;stroke:#0a6b38;stroke-width:1.5;stroke-linecap:round;stroke-linejoin:miter;stroke-miterlimit:1;stroke-opacity:1;stroke-dasharray:none"
         id="path426"
         inkscape:connector-curvature="0" />
    </g>
    <g
       id="g428"
       transform="matrix(1.25,0,0,-1.25,212.07299,487.71034)">
      <path
         d="m 0,0 c 0,-7.114 -5.66,-12.88 -12.64,-12.88 -6.981,0 -12.639,5.766 -12.639,12.88 0,1.186 0.156,2.335 0.451,3.432 1.949,5.448 5.147,9.289 8.667,13.768 1.92,2.239 5.121,2.239 7.041,0 C -5.6,13.04 -2.4,8.88 -0.452,3.432 -0.158,2.335 0,1.186 0,0 z"
         style="fill:none;stroke:#0a6b38;stroke-width:1.5;stroke-linecap:round;stroke-linejoin:round;stroke-miterlimit:10;stroke-opacity:1;stroke-dasharray:none"
         id="path430"
         inkscape:connector-curvature="0" />
    </g>
    <g
       id="g432"
       transform="matrix(1.25,0,0,-1.25,196.17524,503.8102)">
      <path
         d="M 0,0 0,-43.745"
         style="fill:none;stroke:#0a6b38;stroke-width:1.5;stroke-linecap:round;stroke-linejoin:round;stroke-miterlimit:10;stroke-opacity:1;stroke-dasharray:none"
         id="path434"
         inkscape:connector-curvature="0" />
    </g>
    <g
       id="g436"
       transform="matrix(1.25,0,0,-1.25,106.74162,437.24159)">
      <path
         d="M 0,0 60.5,0"
         style="fill:#231f20;fill-opacity:1;fill-rule:nonzero;stroke:#231f20;stroke-width:1.5;stroke-linecap:round;stroke-linejoin:miter;stroke-miterlimit:1;stroke-opacity:1;stroke-dasharray:none"
         id="path438"
         inkscape:connector-curvature="0" />
    </g>
    <g
       id="g440"
       transform="matrix(1.25,0,0,-1.25,79.241618,580.99158)">
      <path
         d="M 0,0 76.382,0"
         style="fill:#231f20;fill-opacity:1;fill-rule:nonzero;stroke:#231f20;stroke-width:1.5;stroke-linecap:round;stroke-linejoin:miter;stroke-miterlimit:1;stroke-opacity:1;stroke-dasharray:none"
         id="path442"
         inkscape:connector-curvature="0" />
    </g>
    <g
       id="g444"
       transform="matrix(1.25,0,0,-1.25,153.63187,580.99158)">
      <path
         d="M 0,0 0,34.5"
         style="fill:none;stroke:#231f20;stroke-width:1.5;stroke-linecap:round;stroke-linejoin:miter;stroke-miterlimit:1;stroke-opacity:1;stroke-dasharray:none"
         id="path446"
         inkscape:connector-curvature="0" />
    </g>
    <g
       id="g448"
       transform="matrix(1.25,0,0,-1.25,230.45137,524.74158)">
      <path
         d="M 0,0 0,58.5"
         style="fill:#231f20;fill-opacity:1;fill-rule:nonzero;stroke:#231f20;stroke-width:1.5;stroke-linecap:round;stroke-linejoin:miter;stroke-miterlimit:1;stroke-opacity:1;stroke-dasharray:none"
         id="path450"
         inkscape:connector-curvature="0" />
    </g>
    <g
       id="g452"
       transform="matrix(1.25,0,0,-1.25,214.30024,438.99396)">
      <path
         d="M 0,0 12.921,-10.598"
         style="fill:none;stroke:#231f20;stroke-width:1.5;stroke-linecap:round;stroke-linejoin:miter;stroke-miterlimit:1;stroke-opacity:1;stroke-dasharray:none"
         id="path454"
         inkscape:connector-curvature="0" />
    </g>
    <path
       d="m 182.30799,441.97546 c -0.36375,0 -0.6925,-0.11 -0.9425,-0.28625 -0.74625,-1.58875 -2.87125,-2.8075 -2.74625,-4.40125 0.125,-1.5925 2,-2.905 2.75625,-4.4925 0.24125,-0.1775 0.56875,-0.2875 0.9325,-0.2875 0.36125,0 0.69,0.11 0.9275,0.2875 0.2375,0.17875 0.38375,0.42375 0.37625,0.69625 -0.7425,2.5775 -0.4925,5.11 0.007,7.73375 0,0.18875 -0.125,0.375 -0.38375,0.4625 -0.2375,0.1775 -0.56625,0.2875 -0.9275,0.2875"
       style="fill:#231f20;fill-opacity:1;fill-rule:nonzero;stroke:none"
       id="path456"
       inkscape:connector-curvature="0" />
    <g
       id="g458"
       transform="matrix(1.25,0,0,-1.25,182.30799,441.97546)">
      <path
         d="M 0,0 C -0.291,0 -0.554,0.088 -0.754,0.229 -1.351,1.5 -3.051,2.475 -2.951,3.75 c 0.1,1.274 1.6,2.324 2.205,3.594 0.193,0.142 0.455,0.23 0.746,0.23 0.289,0 0.552,-0.088 0.742,-0.23 C 0.932,7.201 1.049,7.005 1.043,6.787 0.449,4.725 0.649,2.699 1.049,0.6 1.049,0.449 0.949,0.3 0.742,0.23 0.552,0.088 0.289,0 0,0 z"
         style="fill:none;stroke:#231f20;stroke-width:1;stroke-linecap:round;stroke-linejoin:miter;stroke-miterlimit:1;stroke-opacity:1;stroke-dasharray:none"
         id="path460"
         inkscape:connector-curvature="0" />
    </g>
    <text
       style="font-size:15px"
       id="text462"
       x="183.58736"
       y="586.99194">
      <tspan
         style="font-size:17.5px;font-variant:normal;font-weight:bold;writing-mode:lr-tb;fill:#110f0d;fill-opacity:1;fill-rule:nonzero;stroke:none;font-family:Arial;-inkscape-font-specification:Arial-BoldMT"
         x="183.58736"
         y="586.99194"
         id="tspan464">V</tspan>
    </text>
    <text
       style="font-size:15px"
       id="text466"
       x="197.34238"
       y="586.99194">
      <tspan
         style="font-size:17.5px;font-variant:normal;font-weight:bold;writing-mode:lr-tb;fill:#110f0d;fill-opacity:1;fill-rule:nonzero;stroke:none;font-family:Arial;-inkscape-font-specification:Arial-BoldMT"
         x="197.34238"
         y="586.99194"
         id="tspan468">N</tspan>
    </text>
    <g
       id="g470"
       transform="matrix(1.25,0,0,-1.25,211.98387,580.28058)">
      <path
         d="m 0,0 c 0,-7.069 -5.444,-12.799 -12.16,-12.799 -6.716,0 -12.159,5.73 -12.159,12.799 0,7.069 5.443,12.8 12.159,12.8 C -5.444,12.8 0,7.069 0,0 z"
         style="fill:none;stroke:#110f0d;stroke-width:1;stroke-linecap:butt;stroke-linejoin:round;stroke-miterlimit:10;stroke-opacity:1;stroke-dasharray:none"
         id="path472"
         inkscape:connector-curvature="0" />
    </g>
    <text
       style="font-size:15px"
       id="text474"
       x="221.21425"
       y="547.17993">
      <tspan
         style="font-size:17.5px;font-variant:normal;font-weight:bold;writing-mode:lr-tb;fill:#110f0d;fill-opacity:1;fill-rule:nonzero;stroke:none;font-family:Arial;-inkscape-font-specification:Arial-BoldMT"
         x="221.21425 226.07924"
         y="547.17993"
         sodipodi:role="line"
         id="tspan476">IO</tspan>
    </text>
    <text
       style="font-size:15px"
       id="text478"
       x="187.09987"
       y="492.03406">
      <tspan
         style="font-size:15px;font-variant:normal;font-weight:bold;writing-mode:lr-tb;fill:#0a6b38;fill-opacity:1;fill-rule:nonzero;stroke:none;font-family:Arial;-inkscape-font-specification:Arial-BoldMT"
         x="187.09987 197.10487"
         y="492.03406"
         sodipodi:role="line"
         id="tspan480">Pk</tspan>
    </text>
    <text
       style="font-size:15px"
       id="text482"
       x="206.74162"
       y="470.36658">
      <tspan
         style="font-size:17.5px;font-variant:normal;font-weight:bold;writing-mode:lr-tb;fill:#231f20;fill-opacity:1;fill-rule:nonzero;stroke:none;font-family:Arial;-inkscape-font-specification:Arial-BoldMT"
         x="206.74162 219.37663"
         y="470.36658"
         sodipodi:role="line"
         id="tspan484">CF</tspan>
    </text>
    <path
       d="m 212.36662,580.99158 91.875,0"
       style="fill:#231f20;fill-opacity:1;fill-rule:nonzero;stroke:none"
       id="path486"
       inkscape:connector-curvature="0" />
    <path
       d="m 306.60424,579.96683 c -1.655,-0.49875 -2.72875,-0.96 -4.055,-1.49125 l 0,5.04375 c 0.47375,-0.225 2.4,-0.99125 4.055,-1.49125 1.77,-0.53375 3.3725,-0.9 4.4125,-1.03125 -1.04,-0.12875 -2.6425,-0.495 -4.4125,-1.03"
       style="fill:#231f20;fill-opacity:1;fill-rule:nonzero;stroke:none"
       id="path488"
       inkscape:connector-curvature="0" />
    <g
       id="g490"
       transform="matrix(1.25,0,0,-1.25,212.36662,580.99158)">
      <path
         d="M 0,0 73.5,0"
         style="fill:none;stroke:#231f20;stroke-width:1.5;stroke-linecap:round;stroke-linejoin:miter;stroke-miterlimit:1;stroke-opacity:1;stroke-dasharray:none"
         id="path492"
         inkscape:connector-curvature="0" />
    </g>
    <path
       d="m 307.78412,579.45533 c -2.48,-0.75125 -4.09125,-1.43875 -6.08125,-2.23875 l 0,7.5675 c 0.7125,-0.33875 3.60125,-1.49125 6.08125,-2.2375 2.655,-0.8025 5.06125,-1.35 6.6225,-1.5475 -1.56125,-0.195 -3.9675,-0.7425 -6.6225,-1.54375"
       style="fill:#231f20;fill-opacity:1;fill-rule:nonzero;stroke:none"
       id="path494"
       inkscape:connector-curvature="0" />
    <text
       style="font-size:15px"
       id="text496"
       x="116.81237"
       y="529.8222">
      <tspan
         style="font-size:17.5px;font-variant:normal;font-weight:bold;writing-mode:lr-tb;fill:#231f20;fill-opacity:1;fill-rule:nonzero;stroke:none;font-family:Arial;-inkscape-font-specification:Arial-BoldMT"
         x="116.81237 130.42737"
         y="529.8222"
         sodipodi:role="line"
         id="tspan498">GC</tspan>
    </text>
    <g
       id="g500"
       transform="matrix(1.25,0,0,-1.25,159.10187,524.63658)">
      <path
         d="m 0,0 c 0,-2.568 -2.082,-4.65 -4.65,-4.65 -2.568,0 -4.65,2.082 -4.65,4.65 0,2.568 2.082,4.65 4.65,4.65 C -2.082,4.65 0,2.568 0,0 z"
         style="fill:none;stroke:#110f0d;stroke-width:1.5;stroke-linecap:round;stroke-linejoin:round;stroke-miterlimit:10;stroke-opacity:1;stroke-dasharray:none"
         id="path502"
         inkscape:connector-curvature="0" />
    </g>
    <g
       id="g504"
       transform="matrix(1.25,0,0,-1.25,152.99162,518.8242)">
      <path
         d="M 0,0 0,64.6"
         style="fill:none;stroke:#231f20;stroke-width:1.5;stroke-linecap:round;stroke-linejoin:miter;stroke-miterlimit:1;stroke-opacity:1;stroke-dasharray:none"
         id="path506"
         inkscape:connector-curvature="0" />
    </g>
    <path
       inkscape:connector-curvature="0"
       id="path756"
       style="fill:none;stroke:#110f0d;stroke-width:2.68624997;stroke-linecap:square;stroke-linejoin:miter;stroke-miterlimit:10;stroke-opacity:1;stroke-dasharray:none"
       d="m 206.06049,620.72421 0,0" />
    <text
       style="font-size:15px"
       id="text1308"
       x="236.82887"
       y="576.28333">
      <tspan
         style="font-size:17.5px;font-variant:normal;font-weight:bold;writing-mode:lr-tb;fill:#110f0d;fill-opacity:1;fill-rule:nonzero;stroke:none;font-family:Arial;-inkscape-font-specification:Arial-BoldMT"
         x="236.82887 248.50139 258.23138"
         y="576.28333"
         sodipodi:role="line"
         id="tspan1310">Eye</tspan>
    </text>
    <text
       style="font-size:15px"
       id="text1312"
       x="236.82887"
       y="596.65332">
      <tspan
         style="font-size:17.5px;font-variant:normal;font-weight:bold;writing-mode:lr-tb;fill:#110f0d;fill-opacity:1;fill-rule:nonzero;stroke:none;font-family:Arial;-inkscape-font-specification:Arial-BoldMT"
         x="236.82887 252.38637 263.07886 272.80887 282.53888 298.09637 307.82635 318.51886"
         y="596.65332"
         sodipodi:role="line"
         id="tspan1314">movement</tspan>
    </text>
    <path
       style="fill:#0000ff;stroke:#0000ff;stroke-width:0.35264775px;stroke-linecap:butt;stroke-linejoin:miter;stroke-opacity:1"
       d="m 167.36684,406.21096 -12.34266,0 7.05295,8.8162 -3.52648,0 7.05295,7.05295 -3.52647,0 15.86915,10.57944 -7.05296,-10.57944 3.52648,0 -5.28972,-7.05295 3.52648,0 z"
       id="path6508"
       inkscape:connector-curvature="0"
       sodipodi:nodetypes="cccccccccccc" />
    <path
       style="fill:#0000ff;stroke:#0000ff;stroke-width:0.35264775px;stroke-linecap:butt;stroke-linejoin:miter;stroke-opacity:1"
       d="m 169.39569,548.69353 -12.34266,0 7.05295,8.8162 -3.52648,0 7.05295,7.05295 -3.52647,0 15.86915,10.57944 -7.05296,-10.57944 3.52648,0 -5.28972,-7.05295 3.52648,0 z"
       id="path6508-1"
       inkscape:connector-curvature="0"
       sodipodi:nodetypes="cccccccccccc" />
  </g>
</svg>
