<?xml version="1.0" encoding="UTF-8" standalone="no"?>
<svg
   xmlns:dc="http://purl.org/dc/elements/1.1/"
   xmlns:cc="http://creativecommons.org/ns#"
   xmlns:rdf="http://www.w3.org/1999/02/22-rdf-syntax-ns#"
   xmlns:svg="http://www.w3.org/2000/svg"
   xmlns="http://www.w3.org/2000/svg"
   xmlns:sodipodi="http://sodipodi.sourceforge.net/DTD/sodipodi-0.dtd"
   xmlns:inkscape="http://www.inkscape.org/namespaces/inkscape"
   style="fill-opacity:1; color-rendering:auto; color-interpolation:auto; stroke:black; text-rendering:auto; stroke-linecap:square; stroke-miterlimit:10; stroke-opacity:1; shape-rendering:auto; fill:black; stroke-dasharray:none; font-weight:normal; stroke-width:1; font-family:'Dialog'; font-style:normal; stroke-linejoin:miter; font-size:12px; stroke-dashoffset:0; image-rendering:auto;"
   width="768"
   height="576"
   id="svg2"
   version="1.1"
   inkscape:version="0.91 r13725"
   sodipodi:docname="recpowplotk.svg">
  <metadata
     id="metadata253">
    <rdf:RDF>
      <cc:Work
         rdf:about="">
        <dc:format>image/svg+xml</dc:format>
        <dc:type
           rdf:resource="http://purl.org/dc/dcmitype/StillImage" />
      </cc:Work>
    </rdf:RDF>
  </metadata>
  <sodipodi:namedview
     pagecolor="#ffffff"
     bordercolor="#666666"
     borderopacity="1"
     objecttolerance="10"
     gridtolerance="10"
     guidetolerance="10"
     inkscape:pageopacity="0"
     inkscape:pageshadow="2"
     inkscape:window-width="2560"
     inkscape:window-height="1538"
     id="namedview251"
     showgrid="false"
     inkscape:zoom="1.7002481"
     inkscape:cx="384"
     inkscape:cy="288"
     inkscape:window-x="2552"
     inkscape:window-y="-8"
     inkscape:window-maximized="1"
     inkscape:current-layer="g5" />
  <!--Generated by the Batik Graphics2D SVG Generator-->
  <defs
     id="genericDefs" />
  <g
     id="g5">
    <defs
       id="defs1">
      <clipPath
         clipPathUnits="userSpaceOnUse"
         id="clipPath1">
        <path
           d="M0 0 L768 0 L768 576 L0 576 L0 0 Z"
           id="path9" />
      </clipPath>
    </defs>
    <rect
       style="fill:#ffffff;fill-opacity:1;stroke:#000000;stroke-width:1;stroke-miterlimit:4;stroke-dasharray:none;stroke-dashoffset:0;stroke-opacity:1"
       id="rect4383"
       width="594.61908"
       height="469.93143"
       x="99.985413"
       y="42.548435" />
    <g
       style="fill:white; stroke:white;"
       id="g11" />
    <g
       transform="translate(389,562)"
       style="font-size:27px; fill:rgb(38,38,38); text-rendering:geometricPrecision; color-rendering:optimizeQuality; image-rendering:optimizeQuality; font-family:'mwb_cmmi10'; color-interpolation:linearRGB; stroke:rgb(38,38,38);"
       id="g21">
      <path
         style="stroke:none;"
         d="M1.4375 -0.4688 Q1.4375 -0.625 1.4688 -0.7031 L4.0469 -11.0781 Q4.1562 -11.4531 4.4688 -11.6953 Q4.7812 -11.9375 5.1875 -11.9375 Q5.5312 -11.9375 5.7656 -11.7266 Q6 -11.5156 6 -11.1875 Q6 -11.0938 5.9922 -11.0547 Q5.9844 -11.0156 5.9688 -10.9531 L5 -7.0469 Q6.0781 -7.4062 7.8672 -8.9062 Q9.6562 -10.4062 10.5781 -11.0234 Q11.5 -11.6406 12.8281 -11.6406 Q13.2656 -11.6406 13.5625 -11.3672 Q13.8594 -11.0938 13.8594 -10.6406 Q13.8594 -10 13.4062 -9.5625 Q12.9531 -9.125 12.3125 -9.125 Q11.875 -9.125 11.5781 -9.4062 Q11.2812 -9.6875 11.2812 -10.125 Q11.2812 -10.4219 11.3906 -10.6406 Q10.75 -10.375 10.0703 -9.8984 Q9.3906 -9.4219 8.8359 -8.9453 Q8.2812 -8.4688 7.5 -7.8203 Q6.7188 -7.1719 6.1094 -6.8281 Q7.2188 -6.8281 8.375 -6.5938 Q9.5312 -6.3594 10.3828 -5.7266 Q11.2344 -5.0938 11.2344 -4 Q11.2344 -3.5625 11.125 -3.25 Q10.875 -2.1562 10.875 -1.625 Q10.875 -0.4062 11.7188 -0.4062 Q12.6875 -0.4062 13.2031 -1.4766 Q13.7188 -2.5469 14.0469 -3.9688 Q14.0938 -4.125 14.25 -4.125 L14.5781 -4.125 Q14.6875 -4.125 14.75 -4.0547 Q14.8125 -3.9844 14.8125 -3.8906 Q14.8125 -3.8594 14.7969 -3.8125 Q13.7969 0.2969 11.6719 0.2969 Q10.9062 0.2969 10.3203 -0.0547 Q9.7344 -0.4062 9.4141 -1.0234 Q9.0938 -1.6406 9.0938 -2.4062 Q9.0938 -2.8906 9.2031 -3.2969 Q9.2969 -3.6719 9.2969 -3.9219 Q9.2969 -4.7812 8.5234 -5.2812 Q7.75 -5.7812 6.7031 -5.9688 Q5.6562 -6.1562 4.75 -6.1562 L3.375 -0.5938 Q3.2812 -0.2188 2.9609 0.0391 Q2.6406 0.2969 2.2344 0.2969 Q1.9062 0.2969 1.6719 0.0859 Q1.4375 -0.125 1.4375 -0.4688 Z"
         id="path23" />
    </g>
    <g
       style="fill:rgb(38,38,38); text-rendering:geometricPrecision; color-interpolation:linearRGB; color-rendering:optimizeQuality; image-rendering:optimizeQuality; stroke:rgb(38,38,38);"
       id="g25">
      <line
         y2="513"
         style="fill:none;"
         x1="100"
         x2="695"
         y1="513"
         id="line27" />
      <line
         y2="43"
         style="fill:none;"
         x1="100"
         x2="695"
         y1="43"
         id="line29" />
      <line
         y2="507.05"
         style="fill:none;"
         x1="100"
         x2="100"
         y1="513"
         id="line31" />
      <line
         y2="48.95"
         style="fill:none;"
         x1="100"
         x2="100"
         y1="43"
         id="line33" />
      <line
         y2="507.05"
         style="fill:none;"
         x1="199.1667"
         x2="199.1667"
         y1="513"
         id="line35" />
      <line
         y2="48.95"
         style="fill:none;"
         x1="199.1667"
         x2="199.1667"
         y1="43"
         id="line37" />
      <line
         y2="507.05"
         style="fill:none;"
         x1="298.3333"
         x2="298.3333"
         y1="513"
         id="line39" />
      <line
         y2="48.95"
         style="fill:none;"
         x1="298.3333"
         x2="298.3333"
         y1="43"
         id="line41" />
      <line
         y2="507.05"
         style="fill:none;"
         x1="397.5"
         x2="397.5"
         y1="513"
         id="line43" />
      <line
         y2="48.95"
         style="fill:none;"
         x1="397.5"
         x2="397.5"
         y1="43"
         id="line45" />
      <line
         y2="507.05"
         style="fill:none;"
         x1="496.6667"
         x2="496.6667"
         y1="513"
         id="line47" />
      <line
         y2="48.95"
         style="fill:none;"
         x1="496.6667"
         x2="496.6667"
         y1="43"
         id="line49" />
      <line
         y2="507.05"
         style="fill:none;"
         x1="595.8333"
         x2="595.8333"
         y1="513"
         id="line51" />
      <line
         y2="48.95"
         style="fill:none;"
         x1="595.8333"
         x2="595.8333"
         y1="43"
         id="line53" />
      <line
         y2="507.05"
         style="fill:none;"
         x1="695"
         x2="695"
         y1="513"
         id="line55" />
      <line
         y2="48.95"
         style="fill:none;"
         x1="695"
         x2="695"
         y1="43"
         id="line57" />
    </g>
    <g
       transform="translate(100,518.3333)"
       style="font-size:13px; fill:rgb(38,38,38); text-rendering:geometricPrecision; color-rendering:optimizeQuality; image-rendering:optimizeQuality; font-family:'SansSerif'; color-interpolation:linearRGB; stroke:rgb(38,38,38);"
       id="g59">
      <path
         style="stroke:none;"
         d="M-5.3733 10.2729 L-5.3733 9.1323 L-1.8577 9.1323 L-1.8577 10.2729 L-5.3733 10.2729 ZM5.0183 6.0386 L3.8777 6.1323 Q3.7371 5.4604 3.4558 5.1479 Q2.9871 4.6636 2.3152 4.6636 Q1.7683 4.6636 1.3464 4.9761 Q0.8152 5.3667 0.5027 6.1167 Q0.1902 6.8667 0.1746 8.2729 Q0.5808 7.6479 1.1824 7.3433 Q1.7839 7.0386 2.4402 7.0386 Q3.5808 7.0386 4.3855 7.8745 Q5.1902 8.7104 5.1902 10.0542 Q5.1902 10.9292 4.8074 11.6792 Q4.4246 12.4292 3.7683 12.8276 Q3.1121 13.2261 2.2683 13.2261 Q0.8464 13.2261 -0.0598 12.1792 Q-0.9661 11.1323 -0.9661 8.7104 Q-0.9661 6.0229 0.0339 4.7886 Q0.9089 3.7261 2.3777 3.7261 Q3.4714 3.7261 4.1746 4.3433 Q4.8777 4.9604 5.0183 6.0386 ZM0.3464 10.0542 Q0.3464 10.6479 0.5964 11.187 Q0.8464 11.7261 1.2996 12.0073 Q1.7527 12.2886 2.2527 12.2886 Q2.9714 12.2886 3.4949 11.7026 Q4.0183 11.1167 4.0183 10.1167 Q4.0183 9.1479 3.5027 8.5933 Q2.9871 8.0386 2.2058 8.0386 Q1.4246 8.0386 0.8855 8.5933 Q0.3464 9.1479 0.3464 10.0542 Z"
         id="path61" />
    </g>
    <g
       transform="translate(199.1667,518.3333)"
       style="font-size:13px; fill:rgb(38,38,38); text-rendering:geometricPrecision; color-rendering:optimizeQuality; image-rendering:optimizeQuality; font-family:'SansSerif'; color-interpolation:linearRGB; stroke:rgb(38,38,38);"
       id="g63">
      <path
         style="stroke:none;"
         d="M-5.3733 10.2729 L-5.3733 9.1323 L-1.8577 9.1323 L-1.8577 10.2729 L-5.3733 10.2729 ZM2.7527 13.0698 L2.7527 10.8354 L-1.2786 10.8354 L-1.2786 9.7886 L2.9558 3.7573 L3.8933 3.7573 L3.8933 9.7886 L5.1589 9.7886 L5.1589 10.8354 L3.8933 10.8354 L3.8933 13.0698 L2.7527 13.0698 ZM2.7527 9.7886 L2.7527 5.6011 L-0.1692 9.7886 L2.7527 9.7886 Z"
         id="path65" />
    </g>
    <g
       transform="translate(298.3333,518.3333)"
       style="font-size:13px; fill:rgb(38,38,38); text-rendering:geometricPrecision; color-rendering:optimizeQuality; image-rendering:optimizeQuality; font-family:'SansSerif'; color-interpolation:linearRGB; stroke:rgb(38,38,38);"
       id="g67">
      <path
         style="stroke:none;"
         d="M-5.3733 10.2729 L-5.3733 9.1323 L-1.8577 9.1323 L-1.8577 10.2729 L-5.3733 10.2729 ZM5.0964 11.9761 L5.0964 13.0698 L-1.0598 13.0698 Q-1.0754 12.6636 -0.9192 12.2729 Q-0.6848 11.6479 -0.1692 11.0386 Q0.3464 10.4292 1.3308 9.6323 Q2.8464 8.3823 3.3777 7.6558 Q3.9089 6.9292 3.9089 6.2886 Q3.9089 5.6011 3.4246 5.1401 Q2.9402 4.6792 2.1589 4.6792 Q1.3308 4.6792 0.8386 5.1714 Q0.3464 5.6636 0.3308 6.5386 L-0.8411 6.4136 Q-0.7161 5.1011 0.0652 4.4136 Q0.8464 3.7261 2.1746 3.7261 Q3.5183 3.7261 4.2996 4.4683 Q5.0808 5.2104 5.0808 6.3042 Q5.0808 6.8667 4.8542 7.4058 Q4.6277 7.9448 4.0964 8.5464 Q3.5652 9.1479 2.3308 10.1792 Q1.2996 11.0386 1.0105 11.3511 Q0.7214 11.6636 0.5339 11.9761 L5.0964 11.9761 Z"
         id="path69" />
    </g>
    <g
       transform="translate(397.5,518.3333)"
       style="font-size:13px; fill:rgb(38,38,38); text-rendering:geometricPrecision; color-rendering:optimizeQuality; image-rendering:optimizeQuality; font-family:'SansSerif'; color-interpolation:linearRGB; stroke:rgb(38,38,38);"
       id="g71">
      <path
         style="stroke:none;"
         d="M-3.0681 8.4761 Q-3.0681 6.8354 -2.7322 5.8276 Q-2.3962 4.8198 -1.7244 4.2729 Q-1.0525 3.7261 -0.0369 3.7261 Q0.7131 3.7261 1.2756 4.0308 Q1.8381 4.3354 2.2053 4.8979 Q2.5725 5.4604 2.7834 6.2808 Q2.9944 7.1011 2.9944 8.4761 Q2.9944 10.1167 2.6584 11.1245 Q2.3225 12.1323 1.6506 12.6792 Q0.9788 13.2261 -0.0369 13.2261 Q-1.3806 13.2261 -2.1619 12.2573 Q-3.0681 11.1011 -3.0681 8.4761 ZM-1.8962 8.4761 Q-1.8962 10.7729 -1.365 11.5308 Q-0.8337 12.2886 -0.0369 12.2886 Q0.7444 12.2886 1.2834 11.5308 Q1.8225 10.7729 1.8225 8.4761 Q1.8225 6.1792 1.2834 5.4292 Q0.7444 4.6792 -0.0525 4.6792 Q-0.8337 4.6792 -1.3181 5.3354 Q-1.8962 6.1948 -1.8962 8.4761 Z"
         id="path73" />
    </g>
    <g
       transform="translate(496.6667,518.3333)"
       style="font-size:13px; fill:rgb(38,38,38); text-rendering:geometricPrecision; color-rendering:optimizeQuality; image-rendering:optimizeQuality; font-family:'SansSerif'; color-interpolation:linearRGB; stroke:rgb(38,38,38);"
       id="g75">
      <path
         style="stroke:none;"
         d="M2.9319 11.9761 L2.9319 13.0698 L-3.2244 13.0698 Q-3.24 12.6636 -3.0837 12.2729 Q-2.8494 11.6479 -2.3337 11.0386 Q-1.8181 10.4292 -0.8337 9.6323 Q0.6819 8.3823 1.2131 7.6558 Q1.7444 6.9292 1.7444 6.2886 Q1.7444 5.6011 1.26 5.1401 Q0.7756 4.6792 -0.0056 4.6792 Q-0.8337 4.6792 -1.3259 5.1714 Q-1.8181 5.6636 -1.8337 6.5386 L-3.0056 6.4136 Q-2.8806 5.1011 -2.0994 4.4136 Q-1.3181 3.7261 0.01 3.7261 Q1.3538 3.7261 2.135 4.4683 Q2.9163 5.2104 2.9163 6.3042 Q2.9163 6.8667 2.6897 7.4058 Q2.4631 7.9448 1.9319 8.5464 Q1.4006 9.1479 0.1663 10.1792 Q-0.865 11.0386 -1.1541 11.3511 Q-1.4431 11.6636 -1.6306 11.9761 L2.9319 11.9761 Z"
         id="path77" />
    </g>
    <g
       transform="translate(595.8333,518.3333)"
       style="font-size:13px; fill:rgb(38,38,38); text-rendering:geometricPrecision; color-rendering:optimizeQuality; image-rendering:optimizeQuality; font-family:'SansSerif'; color-interpolation:linearRGB; stroke:rgb(38,38,38);"
       id="g79">
      <path
         style="stroke:none;"
         d="M0.5881 13.0698 L0.5881 10.8354 L-3.4431 10.8354 L-3.4431 9.7886 L0.7913 3.7573 L1.7288 3.7573 L1.7288 9.7886 L2.9944 9.7886 L2.9944 10.8354 L1.7288 10.8354 L1.7288 13.0698 L0.5881 13.0698 ZM0.5881 9.7886 L0.5881 5.6011 L-2.3337 9.7886 L0.5881 9.7886 Z"
         id="path81" />
    </g>
    <g
       transform="translate(695,518.3333)"
       style="font-size:13px; fill:rgb(38,38,38); text-rendering:geometricPrecision; color-rendering:optimizeQuality; image-rendering:optimizeQuality; font-family:'SansSerif'; color-interpolation:linearRGB; stroke:rgb(38,38,38);"
       id="g83">
      <path
         style="stroke:none;"
         d="M2.8538 6.0386 L1.7131 6.1323 Q1.5725 5.4604 1.2913 5.1479 Q0.8225 4.6636 0.1506 4.6636 Q-0.3962 4.6636 -0.8181 4.9761 Q-1.3494 5.3667 -1.6619 6.1167 Q-1.9744 6.8667 -1.99 8.2729 Q-1.5837 7.6479 -0.9822 7.3433 Q-0.3806 7.0386 0.2756 7.0386 Q1.4163 7.0386 2.2209 7.8745 Q3.0256 8.7104 3.0256 10.0542 Q3.0256 10.9292 2.6428 11.6792 Q2.26 12.4292 1.6038 12.8276 Q0.9475 13.2261 0.1038 13.2261 Q-1.3181 13.2261 -2.2244 12.1792 Q-3.1306 11.1323 -3.1306 8.7104 Q-3.1306 6.0229 -2.1306 4.7886 Q-1.2556 3.7261 0.2131 3.7261 Q1.3069 3.7261 2.01 4.3433 Q2.7131 4.9604 2.8538 6.0386 ZM-1.8181 10.0542 Q-1.8181 10.6479 -1.5681 11.187 Q-1.3181 11.7261 -0.865 12.0073 Q-0.4119 12.2886 0.0881 12.2886 Q0.8069 12.2886 1.3303 11.7026 Q1.8538 11.1167 1.8538 10.1167 Q1.8538 9.1479 1.3381 8.5933 Q0.8225 8.0386 0.0413 8.0386 Q-0.74 8.0386 -1.2791 8.5933 Q-1.8181 9.1479 -1.8181 10.0542 Z"
         id="path85" />
    </g>
    <g
       transform="translate(55,358) rotate(-90)"
       style="font-size:27px; fill:rgb(38,38,38); text-rendering:geometricPrecision; color-rendering:optimizeQuality; image-rendering:optimizeQuality; font-family:'mwb_cmr10'; color-interpolation:linearRGB; stroke:rgb(38,38,38);"
       id="g87">
      <path
         style="stroke:none;"
         d="M5.0156 0 L5.0156 -0.9531 Q8.4844 -0.9531 8.4844 -1.8125 L8.4844 -3.75 Q5.875 -4.0156 3.9219 -5.3125 Q2.8906 -6.0156 2.2031 -7.0391 Q1.5156 -8.0625 1.5156 -9.2344 Q1.5156 -10.375 2.2031 -11.4141 Q2.8906 -12.4531 3.9219 -13.125 Q4.9375 -13.7969 6.0625 -14.1797 Q7.1875 -14.5625 8.4844 -14.6875 L8.4844 -16.6406 Q8.4844 -17.5 5.0156 -17.5 L5.0156 -18.4375 L14.2812 -18.4375 L14.2812 -17.5 Q10.8281 -17.5 10.8281 -16.6406 L10.8281 -14.6875 Q11.9375 -14.6875 13.1953 -14.2734 Q14.4531 -13.8594 15.5156 -13.1484 Q16.5781 -12.4375 17.2656 -11.4141 Q17.9531 -10.3906 17.9531 -9.2344 Q17.9531 -8.0625 17.2656 -7.0469 Q16.5781 -6.0312 15.4844 -5.2969 Q14.3906 -4.5625 13.1328 -4.1562 Q11.875 -3.75 10.8281 -3.75 L10.8281 -1.8125 Q10.8281 -0.9531 14.2812 -0.9531 L14.2812 0 L5.0156 0 ZM10.8281 -4.4531 Q13 -4.7344 14.0703 -5.9141 Q15.1406 -7.0938 15.1406 -9.2344 Q15.1406 -11.375 14.0547 -12.5469 Q12.9688 -13.7188 10.8281 -13.9844 L10.8281 -4.4531 ZM8.4844 -4.4844 L8.4844 -13.9688 Q4.3281 -13.375 4.3281 -9.2344 Q4.3281 -5.0625 8.4844 -4.4844 Z"
         id="path89" />
    </g>
    <g
       transform="translate(55,338) rotate(-90)"
       style="font-size:27px; fill:rgb(38,38,38); text-rendering:geometricPrecision; color-rendering:optimizeQuality; image-rendering:optimizeQuality; font-family:'SansSerif'; color-interpolation:linearRGB; stroke:rgb(38,38,38);"
       id="g91">
      <path
         style="stroke:none;"
         d="M15.1108 0 L7.6265 -19.3281 L10.3921 -19.3281 L15.4077 -5.2812 Q16.0171 -3.5938 16.4233 -2.125 Q16.8765 -3.7031 17.4702 -5.2812 L22.689 -19.3281 L25.2983 -19.3281 L17.7358 0 L15.1108 0 ZM33.0117 0.3281 L38.6211 -19.6562 L40.5117 -19.6562 L34.918 0.3281 L33.0117 0.3281 Z"
         id="path93" />
    </g>
    <g
       transform="translate(55,289) rotate(-90)"
       style="font-size:27px; fill:rgb(38,38,38); text-rendering:geometricPrecision; color-rendering:optimizeQuality; image-rendering:optimizeQuality; font-family:'mwb_cmmi10'; color-interpolation:linearRGB; stroke:rgb(38,38,38);"
       id="g95">
      <path
         style="stroke:none;"
         d="M5.4375 0.2969 Q4.1562 0.2969 3.1562 -0.3047 Q2.1562 -0.9062 1.6172 -1.9375 Q1.0781 -2.9688 1.0781 -4.2656 Q1.0781 -6.1094 2.1016 -7.8984 Q3.125 -9.6875 4.8203 -10.8125 Q6.5156 -11.9375 8.375 -11.9375 Q9.75 -11.9375 10.7891 -11.2188 Q11.8281 -10.5 12.3672 -9.3047 Q12.9062 -8.1094 12.9062 -6.75 L12.9375 -4.9375 Q13.8594 -6.2188 14.5 -7.6016 Q15.1406 -8.9844 15.4844 -10.4531 Q15.5312 -10.6094 15.6875 -10.6094 L16 -10.6094 Q16.25 -10.6094 16.25 -10.3594 Q16.25 -10.3438 16.2344 -10.2812 Q15.9062 -9.0469 15.4375 -7.9062 Q14.9688 -6.7656 14.3281 -5.6953 Q13.6875 -4.625 12.9375 -3.75 Q12.9375 -0.4062 13.7188 -0.4062 Q14.2188 -0.4062 14.5391 -0.7031 Q14.8594 -1 15.1016 -1.4375 Q15.3438 -1.875 15.4062 -1.8906 L15.7344 -1.8906 Q15.9531 -1.8906 15.9531 -1.625 Q15.9531 -0.9531 15.1797 -0.3281 Q14.4062 0.2969 13.6562 0.2969 Q12.6875 0.2969 12.0391 -0.3359 Q11.3906 -0.9688 11.1562 -1.9844 Q9.8906 -0.8906 8.4141 -0.2969 Q6.9375 0.2969 5.4375 0.2969 ZM5.4844 -0.4062 Q8.375 -0.4062 11.0156 -2.7812 Q11.0156 -2.9375 10.9844 -3.1719 Q10.9531 -3.4062 10.9531 -3.4219 L10.9531 -6.3438 Q10.9531 -11.2344 8.3125 -11.2344 Q6.7344 -11.2344 5.5469 -9.8828 Q4.3594 -8.5312 3.7656 -6.6484 Q3.1719 -4.7656 3.1719 -3.2188 Q3.1719 -2.0469 3.7656 -1.2266 Q4.3594 -0.4062 5.4844 -0.4062 Z"
         id="path97" />
    </g>
    <g
       transform="translate(55,263) rotate(-90)"
       style="font-size:27px; fill:rgb(38,38,38); text-rendering:geometricPrecision; color-rendering:optimizeQuality; image-rendering:optimizeQuality; font-family:'mwb_cmmi10'; color-interpolation:linearRGB; stroke:rgb(38,38,38);"
       id="g99">
      <path
         style="stroke:none;"
         d="M0.7188 5.2344 Q0.6406 5.2344 0.5781 5.1406 Q0.5156 5.0469 0.5156 4.9688 L4.6719 -11.7188 Q5.0156 -13.0625 5.7031 -14.3281 Q6.3906 -15.5938 7.4297 -16.6797 Q8.4688 -17.7656 9.7031 -18.3984 Q10.9375 -19.0312 12.3438 -19.0312 Q13.3438 -19.0312 14.1562 -18.5938 Q14.9688 -18.1562 15.4375 -17.3594 Q15.9062 -16.5625 15.9062 -15.5625 Q15.9062 -14.5938 15.5312 -13.7188 Q15.1562 -12.8438 14.5 -12.0859 Q13.8438 -11.3281 13.0938 -10.8438 Q13.5312 -10.5781 13.875 -10.1484 Q14.2188 -9.7188 14.4297 -9.25 Q14.6406 -8.7812 14.7578 -8.2109 Q14.875 -7.6406 14.875 -7.125 Q14.875 -5.75 14.2812 -4.4062 Q13.6875 -3.0625 12.6641 -1.9688 Q11.6406 -0.875 10.3203 -0.2344 Q9 0.4062 7.625 0.4062 Q6.1094 0.4062 4.8906 -0.4219 Q3.6719 -1.25 3.2188 -2.6719 L1.2656 5.0781 Q1.2656 5.2344 1.0625 5.2344 L0.7188 5.2344 ZM7.6719 -0.3281 Q8.8906 -0.3281 9.8672 -1.125 Q10.8438 -1.9219 11.4844 -3.1328 Q12.125 -4.3438 12.4609 -5.6953 Q12.7969 -7.0469 12.7969 -8.1406 Q12.7969 -9.5156 12.0156 -10.3125 Q11.0938 -9.9688 10.2031 -9.9688 Q8.0625 -9.9688 8.0625 -10.6875 Q8.0625 -11.6406 10.5 -11.6406 Q11.375 -11.6406 12.1094 -11.3594 Q12.6875 -11.8125 13.1562 -12.6797 Q13.625 -13.5469 13.875 -14.5 Q14.125 -15.4531 14.125 -16.2812 Q14.125 -17.1719 13.6562 -17.7578 Q13.1875 -18.3438 12.2812 -18.3438 Q10.6406 -18.3438 9.2266 -17.3281 Q7.8125 -16.3125 6.8359 -14.7578 Q5.8594 -13.2031 5.4375 -11.5625 L3.9375 -5.5938 Q3.7969 -4.9688 3.75 -4.2031 Q3.75 -2.5156 4.8594 -1.4219 Q5.9688 -0.3281 7.6719 -0.3281 ZM8.8906 -10.7656 Q9.2969 -10.6719 10.2344 -10.6719 Q10.6875 -10.6719 11.1562 -10.8281 Q11.125 -10.8438 11.0469 -10.8438 Q10.7656 -10.9219 10.4219 -10.9219 Q9.2031 -10.9219 8.8906 -10.7656 Z"
         id="path101" />
    </g>
    <g
       transform="translate(55,247) rotate(-90)"
       style="font-size:27px; fill:rgb(38,38,38); text-rendering:geometricPrecision; color-rendering:optimizeQuality; image-rendering:optimizeQuality; font-family:'SansSerif'; color-interpolation:linearRGB; stroke:rgb(38,38,38);"
       id="g103">
      <path
         style="stroke:none;"
         d="M9.5796 0 L9.5796 -19.3281 L16.8765 -19.3281 Q18.7983 -19.3281 19.814 -19.1406 Q21.2358 -18.9062 22.1968 -18.2422 Q23.1577 -17.5781 23.7437 -16.375 Q24.3296 -15.1719 24.3296 -13.7344 Q24.3296 -11.2656 22.7671 -9.5625 Q21.2046 -7.8594 17.0952 -7.8594 L12.1421 -7.8594 L12.1421 0 L9.5796 0 ZM12.1421 -10.1406 L17.1421 -10.1406 Q19.6108 -10.1406 20.6577 -11.0625 Q21.7046 -11.9844 21.7046 -13.6562 Q21.7046 -14.875 21.0874 -15.7344 Q20.4702 -16.5938 19.4702 -16.875 Q18.8296 -17.0469 17.0796 -17.0469 L12.1421 -17.0469 L12.1421 -10.1406 Z"
         id="path105" />
    </g>
    <g
       transform="translate(68,221) rotate(-90)"
       style="font-size:21px; fill:rgb(38,38,38); text-rendering:geometricPrecision; color-rendering:optimizeQuality; image-rendering:optimizeQuality; font-family:'SansSerif'; color-interpolation:linearRGB; stroke:rgb(38,38,38);"
       id="g107">
      <path
         style="stroke:none;"
         d="M8.8438 -3.5 L10.75 -3.2656 Q10.2969 -1.5938 9.0781 -0.6719 Q7.8594 0.25 5.9531 0.25 Q3.5625 0.25 2.1641 -1.2266 Q0.7656 -2.7031 0.7656 -5.3594 Q0.7656 -8.0938 2.1797 -9.6172 Q3.5938 -11.1406 5.8594 -11.1406 Q8.0469 -11.1406 9.4297 -9.6484 Q10.8125 -8.1562 10.8125 -5.4688 Q10.8125 -5.2969 10.7969 -4.9688 L2.6719 -4.9688 Q2.7812 -3.1719 3.6953 -2.2188 Q4.6094 -1.2656 5.9688 -1.2656 Q6.9844 -1.2656 7.7031 -1.8047 Q8.4219 -2.3438 8.8438 -3.5 ZM2.7812 -6.4844 L8.8594 -6.4844 Q8.7344 -7.8594 8.1562 -8.5469 Q7.2812 -9.625 5.875 -9.625 Q4.6094 -9.625 3.7422 -8.7734 Q2.875 -7.9219 2.7812 -6.4844 ZM11.8354 0 L15.8042 -5.6562 L12.1323 -10.8906 L14.4448 -10.8906 L16.1167 -8.3438 Q16.5854 -7.6094 16.8667 -7.1094 Q17.3198 -7.7969 17.6948 -8.3125 L19.5386 -10.8906 L21.7417 -10.8906 L17.9761 -5.7656 L22.0229 0 L19.7573 0 L17.5229 -3.3906 L16.9292 -4.2969 L14.0698 0 L11.8354 0 Z"
         id="path109" />
    </g>
    <g
       style="fill:rgb(38,38,38); text-rendering:geometricPrecision; color-interpolation:linearRGB; color-rendering:optimizeQuality; image-rendering:optimizeQuality; stroke:rgb(38,38,38);"
       id="g111">
      <line
         y2="43"
         style="fill:none;"
         x1="100"
         x2="100"
         y1="513"
         id="line113" />
      <line
         y2="43"
         style="fill:none;"
         x1="695"
         x2="695"
         y1="513"
         id="line115" />
      <line
         y2="513"
         style="fill:none;"
         x1="100"
         x2="105.95"
         y1="513"
         id="line117" />
      <line
         y2="513"
         style="fill:none;"
         x1="695"
         x2="689.05"
         y1="513"
         id="line119" />
      <line
         y2="437.8"
         style="fill:none;"
         x1="100"
         x2="105.95"
         y1="437.8"
         id="line121" />
      <line
         y2="437.8"
         style="fill:none;"
         x1="695"
         x2="689.05"
         y1="437.8"
         id="line123" />
      <line
         y2="362.6"
         style="fill:none;"
         x1="100"
         x2="105.95"
         y1="362.6"
         id="line125" />
      <line
         y2="362.6"
         style="fill:none;"
         x1="695"
         x2="689.05"
         y1="362.6"
         id="line127" />
      <line
         y2="287.4"
         style="fill:none;"
         x1="100"
         x2="105.95"
         y1="287.4"
         id="line129" />
      <line
         y2="287.4"
         style="fill:none;"
         x1="695"
         x2="689.05"
         y1="287.4"
         id="line131" />
      <line
         y2="212.2"
         style="fill:none;"
         x1="100"
         x2="105.95"
         y1="212.2"
         id="line133" />
      <line
         y2="212.2"
         style="fill:none;"
         x1="695"
         x2="689.05"
         y1="212.2"
         id="line135" />
      <line
         y2="137"
         style="fill:none;"
         x1="100"
         x2="105.95"
         y1="137"
         id="line137" />
      <line
         y2="137"
         style="fill:none;"
         x1="695"
         x2="689.05"
         y1="137"
         id="line139" />
      <line
         y2="61.8"
         style="fill:none;"
         x1="100"
         x2="105.95"
         y1="61.8"
         id="line141" />
      <line
         y2="61.8"
         style="fill:none;"
         x1="695"
         x2="689.05"
         y1="61.8"
         id="line143" />
    </g>
    <g
       transform="translate(94.6667,513)"
       style="font-size:13px; fill:rgb(38,38,38); text-rendering:geometricPrecision; color-rendering:optimizeQuality; image-rendering:optimizeQuality; font-family:'SansSerif'; color-interpolation:linearRGB; stroke:rgb(38,38,38);"
       id="g145">
      <path
         style="stroke:none;"
         d="M-6.6831 0.8003 Q-6.6831 -0.8403 -6.3472 -1.8481 Q-6.0112 -2.856 -5.3394 -3.4028 Q-4.6675 -3.9497 -3.6519 -3.9497 Q-2.9019 -3.9497 -2.3394 -3.645 Q-1.7769 -3.3403 -1.4097 -2.7778 Q-1.0425 -2.2153 -0.8315 -1.395 Q-0.6206 -0.5747 -0.6206 0.8003 Q-0.6206 2.4409 -0.9565 3.4487 Q-1.2925 4.4565 -1.9644 5.0034 Q-2.6362 5.5503 -3.6519 5.5503 Q-4.9956 5.5503 -5.7769 4.5815 Q-6.6831 3.4253 -6.6831 0.8003 ZM-5.5112 0.8003 Q-5.5112 3.0972 -4.98 3.855 Q-4.4487 4.6128 -3.6519 4.6128 Q-2.8706 4.6128 -2.3315 3.855 Q-1.7925 3.0972 -1.7925 0.8003 Q-1.7925 -1.4966 -2.3315 -2.2466 Q-2.8706 -2.9966 -3.6675 -2.9966 Q-4.4487 -2.9966 -4.9331 -2.3403 Q-5.5112 -1.481 -5.5112 0.8003 Z"
         id="path147" />
    </g>
    <g
       transform="translate(94.6667,437.8)"
       style="font-size:13px; fill:rgb(38,38,38); text-rendering:geometricPrecision; color-rendering:optimizeQuality; image-rendering:optimizeQuality; font-family:'SansSerif'; color-interpolation:linearRGB; stroke:rgb(38,38,38);"
       id="g149">
      <path
         style="stroke:none;"
         d="M-17.5249 0.8003 Q-17.5249 -0.8403 -17.189 -1.8481 Q-16.853 -2.856 -16.1812 -3.4028 Q-15.5093 -3.9497 -14.4937 -3.9497 Q-13.7437 -3.9497 -13.1812 -3.645 Q-12.6187 -3.3403 -12.2515 -2.7778 Q-11.8843 -2.2153 -11.6733 -1.395 Q-11.4624 -0.5747 -11.4624 0.8003 Q-11.4624 2.4409 -11.7983 3.4487 Q-12.1343 4.4565 -12.8062 5.0034 Q-13.478 5.5503 -14.4937 5.5503 Q-15.8374 5.5503 -16.6187 4.5815 Q-17.5249 3.4253 -17.5249 0.8003 ZM-16.353 0.8003 Q-16.353 3.0972 -15.8218 3.855 Q-15.2905 4.6128 -14.4937 4.6128 Q-13.7124 4.6128 -13.1733 3.855 Q-12.6343 3.0972 -12.6343 0.8003 Q-12.6343 -1.4966 -13.1733 -2.2466 Q-13.7124 -2.9966 -14.5093 -2.9966 Q-15.2905 -2.9966 -15.7749 -2.3403 Q-16.353 -1.481 -16.353 0.8003 ZM-9.6543 5.394 L-9.6543 4.0972 L-8.3574 4.0972 L-8.3574 5.394 L-9.6543 5.394 ZM-0.6831 4.3003 L-0.6831 5.394 L-6.8394 5.394 Q-6.855 4.9878 -6.6987 4.5972 Q-6.4644 3.9722 -5.9487 3.3628 Q-5.4331 2.7534 -4.4487 1.9565 Q-2.9331 0.7065 -2.4019 -0.02 Q-1.8706 -0.7466 -1.8706 -1.3872 Q-1.8706 -2.0747 -2.355 -2.5356 Q-2.8394 -2.9966 -3.6206 -2.9966 Q-4.4487 -2.9966 -4.9409 -2.5044 Q-5.4331 -2.0122 -5.4487 -1.1372 L-6.6206 -1.2622 Q-6.4956 -2.5747 -5.7144 -3.2622 Q-4.9331 -3.9497 -3.605 -3.9497 Q-2.2612 -3.9497 -1.48 -3.2075 Q-0.6987 -2.4653 -0.6987 -1.3716 Q-0.6987 -0.8091 -0.9253 -0.27 Q-1.1519 0.269 -1.6831 0.8706 Q-2.2144 1.4722 -3.4487 2.5034 Q-4.48 3.3628 -4.769 3.6753 Q-5.0581 3.9878 -5.2456 4.3003 L-0.6831 4.3003 Z"
         id="path151" />
    </g>
    <g
       transform="translate(94.6667,362.6)"
       style="font-size:13px; fill:rgb(38,38,38); text-rendering:geometricPrecision; color-rendering:optimizeQuality; image-rendering:optimizeQuality; font-family:'SansSerif'; color-interpolation:linearRGB; stroke:rgb(38,38,38);"
       id="g153">
      <path
         style="stroke:none;"
         d="M-17.5249 0.8003 Q-17.5249 -0.8403 -17.189 -1.8481 Q-16.853 -2.856 -16.1812 -3.4028 Q-15.5093 -3.9497 -14.4937 -3.9497 Q-13.7437 -3.9497 -13.1812 -3.645 Q-12.6187 -3.3403 -12.2515 -2.7778 Q-11.8843 -2.2153 -11.6733 -1.395 Q-11.4624 -0.5747 -11.4624 0.8003 Q-11.4624 2.4409 -11.7983 3.4487 Q-12.1343 4.4565 -12.8062 5.0034 Q-13.478 5.5503 -14.4937 5.5503 Q-15.8374 5.5503 -16.6187 4.5815 Q-17.5249 3.4253 -17.5249 0.8003 ZM-16.353 0.8003 Q-16.353 3.0972 -15.8218 3.855 Q-15.2905 4.6128 -14.4937 4.6128 Q-13.7124 4.6128 -13.1733 3.855 Q-12.6343 3.0972 -12.6343 0.8003 Q-12.6343 -1.4966 -13.1733 -2.2466 Q-13.7124 -2.9966 -14.5093 -2.9966 Q-15.2905 -2.9966 -15.7749 -2.3403 Q-16.353 -1.481 -16.353 0.8003 ZM-9.6543 5.394 L-9.6543 4.0972 L-8.3574 4.0972 L-8.3574 5.394 L-9.6543 5.394 ZM-3.0269 5.394 L-3.0269 3.1597 L-7.0581 3.1597 L-7.0581 2.1128 L-2.8237 -3.9185 L-1.8862 -3.9185 L-1.8862 2.1128 L-0.6206 2.1128 L-0.6206 3.1597 L-1.8862 3.1597 L-1.8862 5.394 L-3.0269 5.394 ZM-3.0269 2.1128 L-3.0269 -2.0747 L-5.9487 2.1128 L-3.0269 2.1128 Z"
         id="path155" />
    </g>
    <g
       transform="translate(94.6667,287.4)"
       style="font-size:13px; fill:rgb(38,38,38); text-rendering:geometricPrecision; color-rendering:optimizeQuality; image-rendering:optimizeQuality; font-family:'SansSerif'; color-interpolation:linearRGB; stroke:rgb(38,38,38);"
       id="g157">
      <path
         style="stroke:none;"
         d="M-17.5249 0.8003 Q-17.5249 -0.8403 -17.189 -1.8481 Q-16.853 -2.856 -16.1812 -3.4028 Q-15.5093 -3.9497 -14.4937 -3.9497 Q-13.7437 -3.9497 -13.1812 -3.645 Q-12.6187 -3.3403 -12.2515 -2.7778 Q-11.8843 -2.2153 -11.6733 -1.395 Q-11.4624 -0.5747 -11.4624 0.8003 Q-11.4624 2.4409 -11.7983 3.4487 Q-12.1343 4.4565 -12.8062 5.0034 Q-13.478 5.5503 -14.4937 5.5503 Q-15.8374 5.5503 -16.6187 4.5815 Q-17.5249 3.4253 -17.5249 0.8003 ZM-16.353 0.8003 Q-16.353 3.0972 -15.8218 3.855 Q-15.2905 4.6128 -14.4937 4.6128 Q-13.7124 4.6128 -13.1733 3.855 Q-12.6343 3.0972 -12.6343 0.8003 Q-12.6343 -1.4966 -13.1733 -2.2466 Q-13.7124 -2.9966 -14.5093 -2.9966 Q-15.2905 -2.9966 -15.7749 -2.3403 Q-16.353 -1.481 -16.353 0.8003 ZM-9.6543 5.394 L-9.6543 4.0972 L-8.3574 4.0972 L-8.3574 5.394 L-9.6543 5.394 ZM-0.7612 -1.6372 L-1.9019 -1.5435 Q-2.0425 -2.2153 -2.3237 -2.5278 Q-2.7925 -3.0122 -3.4644 -3.0122 Q-4.0112 -3.0122 -4.4331 -2.6997 Q-4.9644 -2.3091 -5.2769 -1.5591 Q-5.5894 -0.8091 -5.605 0.5972 Q-5.1987 -0.0278 -4.5972 -0.3325 Q-3.9956 -0.6372 -3.3394 -0.6372 Q-2.1987 -0.6372 -1.394 0.1987 Q-0.5894 1.0347 -0.5894 2.3784 Q-0.5894 3.2534 -0.9722 4.0034 Q-1.355 4.7534 -2.0112 5.1519 Q-2.6675 5.5503 -3.5112 5.5503 Q-4.9331 5.5503 -5.8394 4.5034 Q-6.7456 3.4565 -6.7456 1.0347 Q-6.7456 -1.6528 -5.7456 -2.8872 Q-4.8706 -3.9497 -3.4019 -3.9497 Q-2.3081 -3.9497 -1.605 -3.3325 Q-0.9019 -2.7153 -0.7612 -1.6372 ZM-5.4331 2.3784 Q-5.4331 2.9722 -5.1831 3.5112 Q-4.9331 4.0503 -4.48 4.3315 Q-4.0269 4.6128 -3.5269 4.6128 Q-2.8081 4.6128 -2.2847 4.0269 Q-1.7612 3.4409 -1.7612 2.4409 Q-1.7612 1.4722 -2.2769 0.9175 Q-2.7925 0.3628 -3.5737 0.3628 Q-4.355 0.3628 -4.894 0.9175 Q-5.4331 1.4722 -5.4331 2.3784 Z"
         id="path159" />
    </g>
    <g
       transform="translate(94.6667,212.2)"
       style="font-size:13px; fill:rgb(38,38,38); text-rendering:geometricPrecision; color-rendering:optimizeQuality; image-rendering:optimizeQuality; font-family:'SansSerif'; color-interpolation:linearRGB; stroke:rgb(38,38,38);"
       id="g161">
      <path
         style="stroke:none;"
         d="M-17.5249 0.8003 Q-17.5249 -0.8403 -17.189 -1.8481 Q-16.853 -2.856 -16.1812 -3.4028 Q-15.5093 -3.9497 -14.4937 -3.9497 Q-13.7437 -3.9497 -13.1812 -3.645 Q-12.6187 -3.3403 -12.2515 -2.7778 Q-11.8843 -2.2153 -11.6733 -1.395 Q-11.4624 -0.5747 -11.4624 0.8003 Q-11.4624 2.4409 -11.7983 3.4487 Q-12.1343 4.4565 -12.8062 5.0034 Q-13.478 5.5503 -14.4937 5.5503 Q-15.8374 5.5503 -16.6187 4.5815 Q-17.5249 3.4253 -17.5249 0.8003 ZM-16.353 0.8003 Q-16.353 3.0972 -15.8218 3.855 Q-15.2905 4.6128 -14.4937 4.6128 Q-13.7124 4.6128 -13.1733 3.855 Q-12.6343 3.0972 -12.6343 0.8003 Q-12.6343 -1.4966 -13.1733 -2.2466 Q-13.7124 -2.9966 -14.5093 -2.9966 Q-15.2905 -2.9966 -15.7749 -2.3403 Q-16.353 -1.481 -16.353 0.8003 ZM-9.6543 5.394 L-9.6543 4.0972 L-8.3574 4.0972 L-8.3574 5.394 L-9.6543 5.394 ZM-4.9331 0.3472 Q-5.6362 0.0815 -5.98 -0.395 Q-6.3237 -0.8716 -6.3237 -1.5435 Q-6.3237 -2.5591 -5.5972 -3.2544 Q-4.8706 -3.9497 -3.6519 -3.9497 Q-2.4331 -3.9497 -1.6909 -3.2388 Q-0.9487 -2.5278 -0.9487 -1.5122 Q-0.9487 -0.8716 -1.2925 -0.395 Q-1.6362 0.0815 -2.3237 0.3472 Q-1.4644 0.6284 -1.019 1.2534 Q-0.5737 1.8784 -0.5737 2.7378 Q-0.5737 3.9253 -1.4175 4.7378 Q-2.2612 5.5503 -3.6362 5.5503 Q-5.0112 5.5503 -5.855 4.7378 Q-6.6987 3.9253 -6.6987 2.7065 Q-6.6987 1.8003 -6.2378 1.1831 Q-5.7769 0.5659 -4.9331 0.3472 ZM-5.1675 -1.5903 Q-5.1675 -0.9341 -4.7378 -0.5122 Q-4.3081 -0.0903 -3.6362 -0.0903 Q-2.9644 -0.0903 -2.5425 -0.5044 Q-2.1206 -0.9185 -2.1206 -1.5278 Q-2.1206 -2.1528 -2.5581 -2.5825 Q-2.9956 -3.0122 -3.6362 -3.0122 Q-4.2925 -3.0122 -4.73 -2.5903 Q-5.1675 -2.1685 -5.1675 -1.5903 ZM-5.5269 2.7065 Q-5.5269 3.1909 -5.2925 3.6519 Q-5.0581 4.1128 -4.605 4.3628 Q-4.1519 4.6128 -3.6206 4.6128 Q-2.8081 4.6128 -2.2769 4.0894 Q-1.7456 3.5659 -1.7456 2.7534 Q-1.7456 1.9253 -2.2925 1.3862 Q-2.8394 0.8472 -3.6675 0.8472 Q-4.4644 0.8472 -4.9956 1.3784 Q-5.5269 1.9097 -5.5269 2.7065 Z"
         id="path163" />
    </g>
    <g
       transform="translate(94.6667,137)"
       style="font-size:13px; fill:rgb(38,38,38); text-rendering:geometricPrecision; color-rendering:optimizeQuality; image-rendering:optimizeQuality; font-family:'SansSerif'; color-interpolation:linearRGB; stroke:rgb(38,38,38);"
       id="g165">
      <path
         style="stroke:none;"
         d="M-2.3862 5.394 L-3.5269 5.394 L-3.5269 -1.8872 Q-3.9487 -1.4966 -4.6128 -1.0981 Q-5.2769 -0.6997 -5.8081 -0.5122 L-5.8081 -1.6216 Q-4.855 -2.0591 -4.1362 -2.6997 Q-3.4175 -3.3403 -3.1206 -3.9497 L-2.3862 -3.9497 L-2.3862 5.394 Z"
         id="path167" />
    </g>
    <g
       transform="translate(94.6667,61.8)"
       style="font-size:13px; fill:rgb(38,38,38); text-rendering:geometricPrecision; color-rendering:optimizeQuality; image-rendering:optimizeQuality; font-family:'SansSerif'; color-interpolation:linearRGB; stroke:rgb(38,38,38);"
       id="g169">
      <path
         style="stroke:none;"
         d="M-13.228 5.394 L-14.3687 5.394 L-14.3687 -1.8872 Q-14.7905 -1.4966 -15.4546 -1.0981 Q-16.1187 -0.6997 -16.6499 -0.5122 L-16.6499 -1.6216 Q-15.6968 -2.0591 -14.978 -2.6997 Q-14.2593 -3.3403 -13.9624 -3.9497 L-13.228 -3.9497 L-13.228 5.394 ZM-9.6543 5.394 L-9.6543 4.0972 L-8.3574 4.0972 L-8.3574 5.394 L-9.6543 5.394 ZM-0.6831 4.3003 L-0.6831 5.394 L-6.8394 5.394 Q-6.855 4.9878 -6.6987 4.5972 Q-6.4644 3.9722 -5.9487 3.3628 Q-5.4331 2.7534 -4.4487 1.9565 Q-2.9331 0.7065 -2.4019 -0.02 Q-1.8706 -0.7466 -1.8706 -1.3872 Q-1.8706 -2.0747 -2.355 -2.5356 Q-2.8394 -2.9966 -3.6206 -2.9966 Q-4.4487 -2.9966 -4.9409 -2.5044 Q-5.4331 -2.0122 -5.4487 -1.1372 L-6.6206 -1.2622 Q-6.4956 -2.5747 -5.7144 -3.2622 Q-4.9331 -3.9497 -3.605 -3.9497 Q-2.2612 -3.9497 -1.48 -3.2075 Q-0.6987 -2.4653 -0.6987 -1.3716 Q-0.6987 -0.8091 -0.9253 -0.27 Q-1.1519 0.269 -1.6831 0.8706 Q-2.2144 1.4722 -3.4487 2.5034 Q-4.48 3.3628 -4.769 3.6753 Q-5.0581 3.9878 -5.2456 4.3003 L-0.6831 4.3003 Z"
         id="path171" />
    </g>
    <g
       style="fill:rgb(0,114,189); text-rendering:geometricPrecision; color-rendering:optimizeQuality; image-rendering:optimizeQuality; color-interpolation:linearRGB; stroke:rgb(0,114,189); stroke-width:2.6667;"
       id="g173">
      <path
         d="M100 396.1977 L104.9583 391.2511 L109.9167 386.1445 L114.875 380.8775 L119.8333 375.45 L124.7917 369.8624 L129.75 364.1158 L134.7083 358.212 L139.6667 352.1532 L144.625 345.9425 L149.5833 339.5837 L154.5417 333.0816 L159.5 326.4416 L164.4583 319.6701 L169.4167 312.7745 L174.375 305.7632 L179.3333 298.6453 L184.2917 291.4313 L189.25 284.1325 L194.2083 276.7614 L199.1667 269.3316 L204.125 261.8575 L209.0833 254.3548 L214.0417 246.84 L219 239.3309 L223.9583 231.8459 L228.9167 224.4045 L233.875 217.027 L238.8333 209.7343 L243.7917 202.5481 L248.75 195.4905 L253.7083 188.5842 L258.6667 181.852 L263.625 175.3171 L268.5833 169.0025 L273.5417 162.9313 L278.5 157.126 L283.4583 151.609 L288.4167 146.4019 L293.375 141.5256 L298.3333 137 L303.2917 132.8439 L308.25 129.0749 L313.2083 125.7092 L318.1667 122.7614 L323.125 120.2444 L328.0833 118.1694 L333.0417 116.5458 L338 115.3808 L342.9583 114.6796 L347.9167 114.4456 L352.875 114.6796 L357.8333 115.3808 L362.7917 116.5458 L367.75 118.1694 L372.7083 120.2444 L377.6667 122.7614 L382.625 125.7092 L387.5833 129.0749 L392.5417 132.8439 L397.5 137 L402.4583 141.5256 L407.4167 146.4019 L412.375 151.609 L417.3333 157.126 L422.2917 162.9313 L427.25 169.0025 L432.2083 175.3171 L437.1667 181.852 L442.125 188.5842 L447.0833 195.4905 L452.0417 202.5481 L457 209.7343 L461.9583 217.027 L466.9167 224.4045 L471.875 231.8459 L476.8333 239.3309 L481.7917 246.84 L486.75 254.3548 L491.7083 261.8575 L496.6667 269.3316 L501.625 276.7614 L506.5833 284.1325 L511.5417 291.4313 L516.5 298.6453 L521.4583 305.7632 L526.4167 312.7745 L531.375 319.6701 L536.3333 326.4416 L541.2917 333.0816 L546.25 339.5837 L551.2083 345.9425 L556.1667 352.1532 L561.125 358.212 L566.0833 364.1158 L571.0417 369.8624 L576 375.45 L580.9583 380.8775 L585.9167 386.1445 L590.875 391.2511 L595.8333 396.1977 L600.7917 400.9854 L605.75 405.6156 L610.7083 410.0901 L615.6667 414.4108 L620.625 418.5803 L625.5833 422.601 L630.5417 426.4758 L635.5 430.2078 L640.4583 433.8002 L645.4167 437.2561 L650.375 440.5791 L655.3333 443.7726 L660.2917 446.8403 L665.25 449.7856 L670.2083 452.6123 L675.1667 455.324 L680.125 457.9243 L685.0833 460.4169 L690.0417 462.8052 L695 465.093"
         style="fill:none; fill-rule:evenodd;"
         id="path175" />
      <path
         d="M100 425.7012 L104.9583 421.8026 L109.9167 417.7586 L114.875 413.5665 L119.8333 409.224 L124.7917 404.7288 L129.75 400.0792 L134.7083 395.2738 L139.6667 390.3114 L144.625 385.1916 L149.5833 379.914 L154.5417 374.4792 L159.5 368.8881 L164.4583 363.1423 L169.4167 357.2441 L174.375 351.1965 L179.3333 345.0034 L184.2917 338.6693 L189.25 332.1997 L194.2083 325.6011 L199.1667 318.8809 L204.125 312.0474 L209.0833 305.11 L214.0417 298.0793 L219 290.9667 L223.9583 283.7851 L228.9167 276.5481 L233.875 269.2707 L238.8333 261.9688 L243.7917 254.6595 L248.75 247.361 L253.7083 240.0922 L258.6667 232.8733 L263.625 225.7251 L268.5833 218.6692 L273.5417 211.7281 L278.5 204.9245 L283.4583 198.2819 L288.4167 191.8238 L293.375 185.5739 L298.3333 179.5561 L303.2917 173.7939 L308.25 168.3104 L313.2083 163.1284 L318.1667 158.2699 L323.125 153.7556 L328.0833 149.6057 L333.0417 145.8388 L338 142.4721 L342.9583 139.5212 L347.9167 137 L352.875 134.9204 L357.8333 133.2924 L362.7917 132.1239 L367.75 131.4205 L372.7083 131.1856 L377.6667 131.4205 L382.625 132.1239 L387.5833 133.2924 L392.5417 134.9204 L397.5 137 L402.4583 139.5212 L407.4167 142.4721 L412.375 145.8388 L417.3333 149.6057 L422.2917 153.7556 L427.25 158.2699 L432.2083 163.1284 L437.1667 168.3104 L442.125 173.7939 L447.0833 179.5561 L452.0417 185.5739 L457 191.8238 L461.9583 198.2819 L466.9167 204.9245 L471.875 211.7281 L476.8333 218.6692 L481.7917 225.7251 L486.75 232.8733 L491.7083 240.0922 L496.6667 247.361 L501.625 254.6595 L506.5833 261.9688 L511.5417 269.2707 L516.5 276.5481 L521.4583 283.7851 L526.4167 290.9667 L531.375 298.0793 L536.3333 305.11 L541.2917 312.0474 L546.25 318.8809 L551.2083 325.6011 L556.1667 332.1997 L561.125 338.6693 L566.0833 345.0034 L571.0417 351.1965 L576 357.2441 L580.9583 363.1423 L585.9167 368.8881 L590.875 374.4792 L595.8333 379.914 L600.7917 385.1916 L605.75 390.3114 L610.7083 395.2738 L615.6667 400.0792 L620.625 404.7288 L625.5833 409.224 L630.5417 413.5665 L635.5 417.7586 L640.4583 421.8026 L645.4167 425.7012 L650.375 429.4572 L655.3333 433.0737 L660.2917 436.5538 L665.25 439.9009 L670.2083 443.1183 L675.1667 446.2095 L680.125 449.178 L685.0833 452.0276 L690.0417 454.7616 L695 457.3838"
         style="fill:none; fill-rule:evenodd; stroke:rgb(217,83,25);"
         id="path177" />
      <path
         d="M100 445.0543 L104.9583 441.9167 L109.9167 438.6519 L114.875 435.2563 L119.8333 431.7267 L124.7917 428.0597 L129.75 424.2524 L134.7083 420.3018 L139.6667 416.2051 L144.625 411.96 L149.5833 407.564 L154.5417 403.0154 L159.5 398.3125 L164.4583 393.4541 L169.4167 388.4394 L174.375 383.2681 L179.3333 377.9403 L184.2917 372.4569 L189.25 366.8192 L194.2083 361.0292 L199.1667 355.0897 L204.125 349.0041 L209.0833 342.7769 L214.0417 336.4132 L219 329.9191 L223.9583 323.3016 L228.9167 316.569 L233.875 309.7301 L238.8333 302.7953 L243.7917 295.7757 L248.75 288.6837 L253.7083 281.533 L258.6667 274.3379 L263.625 267.1144 L268.5833 259.8793 L273.5417 252.6504 L278.5 245.4468 L283.4583 238.2883 L288.4167 231.1957 L293.375 224.1907 L298.3333 217.2957 L303.2917 210.5334 L308.25 203.9275 L313.2083 197.5017 L318.1667 191.2798 L323.125 185.2859 L328.0833 179.5438 L333.0417 174.077 L338 168.9085 L342.9583 164.0605 L347.9167 159.5544 L352.875 155.4105 L357.8333 151.6478 L362.7917 148.2839 L367.75 145.3347 L372.7083 142.8143 L377.6667 140.7351 L382.625 139.1071 L387.5833 137.9384 L392.5417 137.2349 L397.5 137 L402.4583 137.2349 L407.4167 137.9384 L412.375 139.1071 L417.3333 140.7351 L422.2917 142.8143 L427.25 145.3347 L432.2083 148.2839 L437.1667 151.6478 L442.125 155.4105 L447.0833 159.5544 L452.0417 164.0605 L457 168.9085 L461.9583 174.077 L466.9167 179.5438 L471.875 185.2859 L476.8333 191.2798 L481.7917 197.5017 L486.75 203.9275 L491.7083 210.5334 L496.6667 217.2957 L501.625 224.1907 L506.5833 231.1957 L511.5417 238.2883 L516.5 245.4468 L521.4583 252.6504 L526.4167 259.8793 L531.375 267.1144 L536.3333 274.3379 L541.2917 281.533 L546.25 288.6837 L551.2083 295.7757 L556.1667 302.7953 L561.125 309.7301 L566.0833 316.569 L571.0417 323.3016 L576 329.9191 L580.9583 336.4132 L585.9167 342.7769 L590.875 349.0041 L595.8333 355.0897 L600.7917 361.0292 L605.75 366.8192 L610.7083 372.4569 L615.6667 377.9403 L620.625 383.2681 L625.5833 388.4394 L630.5417 393.4541 L635.5 398.3125 L640.4583 403.0154 L645.4167 407.564 L650.375 411.96 L655.3333 416.2051 L660.2917 420.3018 L665.25 424.2524 L670.2083 428.0597 L675.1667 431.7267 L680.125 435.2563 L685.0833 438.6519 L690.0417 441.9167 L695 445.0543"
         style="fill:none; fill-rule:evenodd; stroke:rgb(237,177,32);"
         id="path179" />
      <path
         d="M100 457.3838 L104.9583 454.7616 L109.9167 452.0276 L114.875 449.178 L119.8333 446.2095 L124.7917 443.1183 L129.75 439.9009 L134.7083 436.5538 L139.6667 433.0737 L144.625 429.4572 L149.5833 425.7012 L154.5417 421.8026 L159.5 417.7586 L164.4583 413.5665 L169.4167 409.224 L174.375 404.7288 L179.3333 400.0792 L184.2917 395.2738 L189.25 390.3114 L194.2083 385.1916 L199.1667 379.914 L204.125 374.4792 L209.0833 368.8881 L214.0417 363.1423 L219 357.2441 L223.9583 351.1965 L228.9167 345.0034 L233.875 338.6693 L238.8333 332.1997 L243.7917 325.6011 L248.75 318.8809 L253.7083 312.0474 L258.6667 305.11 L263.625 298.0793 L268.5833 290.9667 L273.5417 283.7851 L278.5 276.5481 L283.4583 269.2707 L288.4167 261.9688 L293.375 254.6595 L298.3333 247.361 L303.2917 240.0922 L308.25 232.8733 L313.2083 225.7251 L318.1667 218.6692 L323.125 211.7281 L328.0833 204.9245 L333.0417 198.2819 L338 191.8238 L342.9583 185.5739 L347.9167 179.5561 L352.875 173.7939 L357.8333 168.3104 L362.7917 163.1284 L367.75 158.2699 L372.7083 153.7556 L377.6667 149.6057 L382.625 145.8388 L387.5833 142.4721 L392.5417 139.5212 L397.5 137 L402.4583 134.9204 L407.4167 133.2924 L412.375 132.1239 L417.3333 131.4205 L422.2917 131.1856 L427.25 131.4205 L432.2083 132.1239 L437.1667 133.2924 L442.125 134.9204 L447.0833 137 L452.0417 139.5212 L457 142.4721 L461.9583 145.8388 L466.9167 149.6057 L471.875 153.7556 L476.8333 158.2699 L481.7917 163.1284 L486.75 168.3104 L491.7083 173.7939 L496.6667 179.5561 L501.625 185.5739 L506.5833 191.8238 L511.5417 198.2819 L516.5 204.9245 L521.4583 211.7281 L526.4167 218.6692 L531.375 225.7251 L536.3333 232.8733 L541.2917 240.0922 L546.25 247.361 L551.2083 254.6595 L556.1667 261.9688 L561.125 269.2707 L566.0833 276.5481 L571.0417 283.7851 L576 290.9667 L580.9583 298.0793 L585.9167 305.11 L590.875 312.0474 L595.8333 318.8809 L600.7917 325.6011 L605.75 332.1997 L610.7083 338.6693 L615.6667 345.0034 L620.625 351.1965 L625.5833 357.2441 L630.5417 363.1423 L635.5 368.8881 L640.4583 374.4792 L645.4167 379.914 L650.375 385.1916 L655.3333 390.3114 L660.2917 395.2738 L665.25 400.0792 L670.2083 404.7288 L675.1667 409.224 L680.125 413.5665 L685.0833 417.7586 L690.0417 421.8026 L695 425.7012"
         style="fill:none; fill-rule:evenodd; stroke:rgb(126,47,142);"
         id="path181" />
      <path
         d="M100 465.093 L104.9583 462.8052 L109.9167 460.4169 L114.875 457.9243 L119.8333 455.324 L124.7917 452.6123 L129.75 449.7856 L134.7083 446.8403 L139.6667 443.7726 L144.625 440.5791 L149.5833 437.2561 L154.5417 433.8002 L159.5 430.2078 L164.4583 426.4758 L169.4167 422.601 L174.375 418.5803 L179.3333 414.4108 L184.2917 410.0901 L189.25 405.6156 L194.2083 400.9854 L199.1667 396.1977 L204.125 391.2511 L209.0833 386.1445 L214.0417 380.8775 L219 375.45 L223.9583 369.8624 L228.9167 364.1158 L233.875 358.212 L238.8333 352.1532 L243.7917 345.9425 L248.75 339.5837 L253.7083 333.0816 L258.6667 326.4416 L263.625 319.6701 L268.5833 312.7745 L273.5417 305.7632 L278.5 298.6453 L283.4583 291.4313 L288.4167 284.1325 L293.375 276.7614 L298.3333 269.3316 L303.2917 261.8575 L308.25 254.3548 L313.2083 246.84 L318.1667 239.3309 L323.125 231.8459 L328.0833 224.4045 L333.0417 217.027 L338 209.7343 L342.9583 202.5481 L347.9167 195.4905 L352.875 188.5842 L357.8333 181.852 L362.7917 175.3171 L367.75 169.0025 L372.7083 162.9313 L377.6667 157.126 L382.625 151.609 L387.5833 146.4019 L392.5417 141.5256 L397.5 137 L402.4583 132.8439 L407.4167 129.0749 L412.375 125.7092 L417.3333 122.7614 L422.2917 120.2444 L427.25 118.1694 L432.2083 116.5458 L437.1667 115.3808 L442.125 114.6796 L447.0833 114.4456 L452.0417 114.6796 L457 115.3808 L461.9583 116.5458 L466.9167 118.1694 L471.875 120.2444 L476.8333 122.7614 L481.7917 125.7092 L486.75 129.0749 L491.7083 132.8439 L496.6667 137 L501.625 141.5256 L506.5833 146.4019 L511.5417 151.609 L516.5 157.126 L521.4583 162.9313 L526.4167 169.0025 L531.375 175.3171 L536.3333 181.852 L541.2917 188.5842 L546.25 195.4905 L551.2083 202.5481 L556.1667 209.7343 L561.125 217.027 L566.0833 224.4045 L571.0417 231.8459 L576 239.3309 L580.9583 246.84 L585.9167 254.3548 L590.875 261.8575 L595.8333 269.3316 L600.7917 276.7614 L605.75 284.1325 L610.7083 291.4313 L615.6667 298.6453 L620.625 305.7632 L625.5833 312.7745 L630.5417 319.6701 L635.5 326.4416 L640.4583 333.0816 L645.4167 339.5837 L650.375 345.9425 L655.3333 352.1532 L660.2917 358.212 L665.25 364.1158 L670.2083 369.8624 L675.1667 375.45 L680.125 380.8775 L685.0833 386.1445 L690.0417 391.2511 L695 396.1977"
         style="fill:none; fill-rule:evenodd; stroke:rgb(119,172,48);"
         id="path183" />
    </g>
    <g
       style="fill:white; text-rendering:optimizeSpeed; color-rendering:optimizeSpeed; image-rendering:optimizeSpeed; shape-rendering:crispEdges; color-interpolation:sRGB; stroke:white;"
       id="g185">
      <path
         style="stroke:none;"
         d="M343 500 L343 332 L452 332 L452 500 Z"
         id="path187" />
    </g>
    <g
       transform="translate(394,361)"
       style="font-size:27px; text-rendering:geometricPrecision; color-rendering:optimizeQuality; image-rendering:optimizeQuality; font-family:'mwb_cmmi10'; color-interpolation:linearRGB;"
       id="g189">
      <path
         style="stroke:none;"
         d="M7.9688 5.2812 Q7.9688 4.6875 8.2344 3.5234 Q8.5 2.3594 8.8906 1.0469 Q9.2812 -0.2656 9.5625 -1.1094 Q9.6562 -2.4531 9.6562 -3.1406 Q9.6562 -4.875 9.3203 -6.375 Q8.9844 -7.875 8.0312 -8.8828 Q7.0781 -9.8906 5.375 -9.8906 Q4.4844 -9.8906 3.5938 -9.5078 Q2.7031 -9.125 2.0625 -8.4375 Q1.4219 -7.75 1.1875 -6.875 Q1.1406 -6.7188 0.9688 -6.7188 L0.6406 -6.7188 Q0.4375 -6.7188 0.4375 -6.9688 L0.4375 -7.0469 Q0.7344 -8.2656 1.5078 -9.3906 Q2.2812 -10.5156 3.3984 -11.2266 Q4.5156 -11.9375 5.75 -11.9375 Q7.0156 -11.9375 7.9375 -11.0781 Q8.8594 -10.2188 9.4141 -8.8984 Q9.9688 -7.5781 10.2109 -6.2344 Q10.4531 -4.8906 10.4531 -3.7031 Q11.8125 -7.3906 13.5 -10.6875 L13.9062 -11.5625 Q13.9844 -11.6406 14.0938 -11.6406 L14.4219 -11.6406 Q14.6406 -11.6406 14.6406 -11.3906 Q14.6406 -11.3438 14.5781 -11.2344 L14.1719 -10.3906 Q13 -8.0625 12.0156 -5.6562 Q11.0312 -3.25 10.3438 -1.0312 Q10.2344 -0.125 9.9375 1.4609 Q9.6406 3.0469 9.2188 4.4141 Q8.7969 5.7812 8.375 5.8281 Q7.9688 5.8281 7.9688 5.2812 Z"
         id="path191" />
    </g>
    <g
       transform="translate(408,361)"
       style="font-size:27px; text-rendering:geometricPrecision; color-rendering:optimizeQuality; image-rendering:optimizeQuality; font-family:'SansSerif'; color-interpolation:linearRGB;"
       id="g193">
      <path
         style="stroke:none;"
         d="M14.2656 -11.3594 L1.5 -11.3594 L1.5 -13.5781 L14.2656 -13.5781 L14.2656 -11.3594 ZM14.2656 -5.5 L1.5 -5.5 L1.5 -7.7188 L14.2656 -7.7188 L14.2656 -5.5 ZM16.627 -5.7969 L16.627 -8.1875 L23.9082 -8.1875 L23.9082 -5.7969 L16.627 -5.7969 ZM38.3525 -2.2812 L38.3525 0 L25.5713 0 Q25.5557 -0.8594 25.8525 -1.6406 Q26.3369 -2.9531 27.415 -4.2188 Q28.4932 -5.4844 30.5244 -7.1406 Q33.665 -9.7344 34.7744 -11.2422 Q35.8838 -12.75 35.8838 -14.0938 Q35.8838 -15.5 34.876 -16.4688 Q33.8682 -17.4375 32.2432 -17.4375 Q30.54 -17.4375 29.5088 -16.4141 Q28.4775 -15.3906 28.4619 -13.5625 L26.0244 -13.8125 Q26.2744 -16.5469 27.9072 -17.9766 Q29.54 -19.4062 32.3057 -19.4062 Q35.0869 -19.4062 36.7041 -17.8672 Q38.3213 -16.3281 38.3213 -14.0469 Q38.3213 -12.875 37.8447 -11.7578 Q37.3682 -10.6406 36.2744 -9.3984 Q35.1807 -8.1562 32.6182 -6 Q30.4775 -4.2031 29.876 -3.5625 Q29.2744 -2.9219 28.8682 -2.2812 L38.3525 -2.2812 Z"
         id="path195" />
    </g>
    <g
       style="fill:rgb(0,114,189); text-rendering:geometricPrecision; color-rendering:optimizeQuality; image-rendering:optimizeQuality; color-interpolation:linearRGB; stroke:rgb(0,114,189); stroke-width:2.6667;"
       id="g197">
      <line
         y2="350.6667"
         style="fill:none;"
         x1="350.9273"
         x2="390.5636"
         y1="350.6667"
         id="line199" />
    </g>
    <g
       transform="translate(394,394)"
       style="font-size:27px; text-rendering:geometricPrecision; color-rendering:optimizeQuality; image-rendering:optimizeQuality; font-family:'mwb_cmmi10'; color-interpolation:linearRGB;"
       id="g201">
      <path
         style="stroke:none;"
         d="M7.9688 5.2812 Q7.9688 4.6875 8.2344 3.5234 Q8.5 2.3594 8.8906 1.0469 Q9.2812 -0.2656 9.5625 -1.1094 Q9.6562 -2.4531 9.6562 -3.1406 Q9.6562 -4.875 9.3203 -6.375 Q8.9844 -7.875 8.0312 -8.8828 Q7.0781 -9.8906 5.375 -9.8906 Q4.4844 -9.8906 3.5938 -9.5078 Q2.7031 -9.125 2.0625 -8.4375 Q1.4219 -7.75 1.1875 -6.875 Q1.1406 -6.7188 0.9688 -6.7188 L0.6406 -6.7188 Q0.4375 -6.7188 0.4375 -6.9688 L0.4375 -7.0469 Q0.7344 -8.2656 1.5078 -9.3906 Q2.2812 -10.5156 3.3984 -11.2266 Q4.5156 -11.9375 5.75 -11.9375 Q7.0156 -11.9375 7.9375 -11.0781 Q8.8594 -10.2188 9.4141 -8.8984 Q9.9688 -7.5781 10.2109 -6.2344 Q10.4531 -4.8906 10.4531 -3.7031 Q11.8125 -7.3906 13.5 -10.6875 L13.9062 -11.5625 Q13.9844 -11.6406 14.0938 -11.6406 L14.4219 -11.6406 Q14.6406 -11.6406 14.6406 -11.3906 Q14.6406 -11.3438 14.5781 -11.2344 L14.1719 -10.3906 Q13 -8.0625 12.0156 -5.6562 Q11.0312 -3.25 10.3438 -1.0312 Q10.2344 -0.125 9.9375 1.4609 Q9.6406 3.0469 9.2188 4.4141 Q8.7969 5.7812 8.375 5.8281 Q7.9688 5.8281 7.9688 5.2812 Z"
         id="path203" />
    </g>
    <g
       transform="translate(408,394)"
       style="font-size:27px; text-rendering:geometricPrecision; color-rendering:optimizeQuality; image-rendering:optimizeQuality; font-family:'SansSerif'; color-interpolation:linearRGB;"
       id="g205">
      <path
         style="stroke:none;"
         d="M14.2656 -11.3594 L1.5 -11.3594 L1.5 -13.5781 L14.2656 -13.5781 L14.2656 -11.3594 ZM14.2656 -5.5 L1.5 -5.5 L1.5 -7.7188 L14.2656 -7.7188 L14.2656 -5.5 ZM16.627 -5.7969 L16.627 -8.1875 L23.9082 -8.1875 L23.9082 -5.7969 L16.627 -5.7969 ZM34.8213 0 L32.4463 0 L32.4463 -15.125 Q31.5869 -14.2969 30.1963 -13.4844 Q28.8057 -12.6719 27.6963 -12.2656 L27.6963 -14.5625 Q29.6963 -15.4844 31.1807 -16.8203 Q32.665 -18.1562 33.29 -19.4062 L34.8213 -19.4062 L34.8213 0 Z"
         id="path207" />
    </g>
    <g
       style="fill:rgb(217,83,25); text-rendering:geometricPrecision; color-rendering:optimizeQuality; image-rendering:optimizeQuality; color-interpolation:linearRGB; stroke:rgb(217,83,25); stroke-width:2.6667;"
       id="g209">
      <line
         y2="383.3333"
         style="fill:none;"
         x1="350.9273"
         x2="390.5636"
         y1="383.3333"
         id="line211" />
    </g>
    <g
       transform="translate(394,427)"
       style="font-size:27px; text-rendering:geometricPrecision; color-rendering:optimizeQuality; image-rendering:optimizeQuality; font-family:'mwb_cmmi10'; color-interpolation:linearRGB;"
       id="g213">
      <path
         style="stroke:none;"
         d="M7.9688 5.2812 Q7.9688 4.6875 8.2344 3.5234 Q8.5 2.3594 8.8906 1.0469 Q9.2812 -0.2656 9.5625 -1.1094 Q9.6562 -2.4531 9.6562 -3.1406 Q9.6562 -4.875 9.3203 -6.375 Q8.9844 -7.875 8.0312 -8.8828 Q7.0781 -9.8906 5.375 -9.8906 Q4.4844 -9.8906 3.5938 -9.5078 Q2.7031 -9.125 2.0625 -8.4375 Q1.4219 -7.75 1.1875 -6.875 Q1.1406 -6.7188 0.9688 -6.7188 L0.6406 -6.7188 Q0.4375 -6.7188 0.4375 -6.9688 L0.4375 -7.0469 Q0.7344 -8.2656 1.5078 -9.3906 Q2.2812 -10.5156 3.3984 -11.2266 Q4.5156 -11.9375 5.75 -11.9375 Q7.0156 -11.9375 7.9375 -11.0781 Q8.8594 -10.2188 9.4141 -8.8984 Q9.9688 -7.5781 10.2109 -6.2344 Q10.4531 -4.8906 10.4531 -3.7031 Q11.8125 -7.3906 13.5 -10.6875 L13.9062 -11.5625 Q13.9844 -11.6406 14.0938 -11.6406 L14.4219 -11.6406 Q14.6406 -11.6406 14.6406 -11.3906 Q14.6406 -11.3438 14.5781 -11.2344 L14.1719 -10.3906 Q13 -8.0625 12.0156 -5.6562 Q11.0312 -3.25 10.3438 -1.0312 Q10.2344 -0.125 9.9375 1.4609 Q9.6406 3.0469 9.2188 4.4141 Q8.7969 5.7812 8.375 5.8281 Q7.9688 5.8281 7.9688 5.2812 Z"
         id="path215" />
    </g>
    <g
       transform="translate(408,427)"
       style="font-size:27px; text-rendering:geometricPrecision; color-rendering:optimizeQuality; image-rendering:optimizeQuality; font-family:'SansSerif'; color-interpolation:linearRGB;"
       id="g217">
      <path
         style="stroke:none;"
         d="M14.2656 -11.3594 L1.5 -11.3594 L1.5 -13.5781 L14.2656 -13.5781 L14.2656 -11.3594 ZM14.2656 -5.5 L1.5 -5.5 L1.5 -7.7188 L14.2656 -7.7188 L14.2656 -5.5 ZM16.8926 -9.5312 Q16.8926 -12.9531 17.5957 -15.0469 Q18.2988 -17.1406 19.6895 -18.2734 Q21.0801 -19.4062 23.1895 -19.4062 Q24.752 -19.4062 25.9238 -18.7812 Q27.0957 -18.1562 27.8613 -16.9766 Q28.627 -15.7969 29.0566 -14.1016 Q29.4863 -12.4062 29.4863 -9.5312 Q29.4863 -6.125 28.791 -4.0391 Q28.0957 -1.9531 26.7051 -0.8125 Q25.3145 0.3281 23.1895 0.3281 Q20.3926 0.3281 18.7988 -1.6719 Q16.8926 -4.0938 16.8926 -9.5312 ZM19.3301 -9.5312 Q19.3301 -4.7656 20.4395 -3.1953 Q21.5488 -1.625 23.1895 -1.625 Q24.8301 -1.625 25.9395 -3.2031 Q27.0488 -4.7812 27.0488 -9.5312 Q27.0488 -14.2969 25.9395 -15.8672 Q24.8301 -17.4375 23.1582 -17.4375 Q21.5332 -17.4375 20.5488 -16.0625 Q19.3301 -14.2969 19.3301 -9.5312 Z"
         id="path219" />
    </g>
    <g
       style="fill:rgb(237,177,32); text-rendering:geometricPrecision; color-rendering:optimizeQuality; image-rendering:optimizeQuality; color-interpolation:linearRGB; stroke:rgb(237,177,32); stroke-width:2.6667;"
       id="g221">
      <line
         y2="416"
         style="fill:none;"
         x1="350.9273"
         x2="390.5636"
         y1="416"
         id="line223" />
    </g>
    <g
       transform="translate(394,459)"
       style="font-size:27px; text-rendering:geometricPrecision; color-rendering:optimizeQuality; image-rendering:optimizeQuality; font-family:'mwb_cmmi10'; color-interpolation:linearRGB;"
       id="g225">
      <path
         style="stroke:none;"
         d="M7.9688 5.2812 Q7.9688 4.6875 8.2344 3.5234 Q8.5 2.3594 8.8906 1.0469 Q9.2812 -0.2656 9.5625 -1.1094 Q9.6562 -2.4531 9.6562 -3.1406 Q9.6562 -4.875 9.3203 -6.375 Q8.9844 -7.875 8.0312 -8.8828 Q7.0781 -9.8906 5.375 -9.8906 Q4.4844 -9.8906 3.5938 -9.5078 Q2.7031 -9.125 2.0625 -8.4375 Q1.4219 -7.75 1.1875 -6.875 Q1.1406 -6.7188 0.9688 -6.7188 L0.6406 -6.7188 Q0.4375 -6.7188 0.4375 -6.9688 L0.4375 -7.0469 Q0.7344 -8.2656 1.5078 -9.3906 Q2.2812 -10.5156 3.3984 -11.2266 Q4.5156 -11.9375 5.75 -11.9375 Q7.0156 -11.9375 7.9375 -11.0781 Q8.8594 -10.2188 9.4141 -8.8984 Q9.9688 -7.5781 10.2109 -6.2344 Q10.4531 -4.8906 10.4531 -3.7031 Q11.8125 -7.3906 13.5 -10.6875 L13.9062 -11.5625 Q13.9844 -11.6406 14.0938 -11.6406 L14.4219 -11.6406 Q14.6406 -11.6406 14.6406 -11.3906 Q14.6406 -11.3438 14.5781 -11.2344 L14.1719 -10.3906 Q13 -8.0625 12.0156 -5.6562 Q11.0312 -3.25 10.3438 -1.0312 Q10.2344 -0.125 9.9375 1.4609 Q9.6406 3.0469 9.2188 4.4141 Q8.7969 5.7812 8.375 5.8281 Q7.9688 5.8281 7.9688 5.2812 Z"
         id="path227" />
    </g>
    <g
       transform="translate(408,459)"
       style="font-size:27px; text-rendering:geometricPrecision; color-rendering:optimizeQuality; image-rendering:optimizeQuality; font-family:'SansSerif'; color-interpolation:linearRGB;"
       id="g229">
      <path
         style="stroke:none;"
         d="M14.2656 -11.3594 L1.5 -11.3594 L1.5 -13.5781 L14.2656 -13.5781 L14.2656 -11.3594 ZM14.2656 -5.5 L1.5 -5.5 L1.5 -7.7188 L14.2656 -7.7188 L14.2656 -5.5 ZM25.8301 0 L23.4551 0 L23.4551 -15.125 Q22.5957 -14.2969 21.2051 -13.4844 Q19.8145 -12.6719 18.7051 -12.2656 L18.7051 -14.5625 Q20.7051 -15.4844 22.1895 -16.8203 Q23.6738 -18.1562 24.2988 -19.4062 L25.8301 -19.4062 L25.8301 0 Z"
         id="path231" />
    </g>
    <g
       style="fill:rgb(126,47,142); text-rendering:geometricPrecision; color-rendering:optimizeQuality; image-rendering:optimizeQuality; color-interpolation:linearRGB; stroke:rgb(126,47,142); stroke-width:2.6667;"
       id="g233">
      <line
         y2="448.6667"
         style="fill:none;"
         x1="350.9273"
         x2="390.5636"
         y1="448.6667"
         id="line235" />
    </g>
    <g
       transform="translate(394,492)"
       style="font-size:27px; text-rendering:geometricPrecision; color-rendering:optimizeQuality; image-rendering:optimizeQuality; font-family:'mwb_cmmi10'; color-interpolation:linearRGB;"
       id="g237">
      <path
         style="stroke:none;"
         d="M7.9688 5.2812 Q7.9688 4.6875 8.2344 3.5234 Q8.5 2.3594 8.8906 1.0469 Q9.2812 -0.2656 9.5625 -1.1094 Q9.6562 -2.4531 9.6562 -3.1406 Q9.6562 -4.875 9.3203 -6.375 Q8.9844 -7.875 8.0312 -8.8828 Q7.0781 -9.8906 5.375 -9.8906 Q4.4844 -9.8906 3.5938 -9.5078 Q2.7031 -9.125 2.0625 -8.4375 Q1.4219 -7.75 1.1875 -6.875 Q1.1406 -6.7188 0.9688 -6.7188 L0.6406 -6.7188 Q0.4375 -6.7188 0.4375 -6.9688 L0.4375 -7.0469 Q0.7344 -8.2656 1.5078 -9.3906 Q2.2812 -10.5156 3.3984 -11.2266 Q4.5156 -11.9375 5.75 -11.9375 Q7.0156 -11.9375 7.9375 -11.0781 Q8.8594 -10.2188 9.4141 -8.8984 Q9.9688 -7.5781 10.2109 -6.2344 Q10.4531 -4.8906 10.4531 -3.7031 Q11.8125 -7.3906 13.5 -10.6875 L13.9062 -11.5625 Q13.9844 -11.6406 14.0938 -11.6406 L14.4219 -11.6406 Q14.6406 -11.6406 14.6406 -11.3906 Q14.6406 -11.3438 14.5781 -11.2344 L14.1719 -10.3906 Q13 -8.0625 12.0156 -5.6562 Q11.0312 -3.25 10.3438 -1.0312 Q10.2344 -0.125 9.9375 1.4609 Q9.6406 3.0469 9.2188 4.4141 Q8.7969 5.7812 8.375 5.8281 Q7.9688 5.8281 7.9688 5.2812 Z"
         id="path239" />
    </g>
    <g
       transform="translate(408,492)"
       style="font-size:27px; text-rendering:geometricPrecision; color-rendering:optimizeQuality; image-rendering:optimizeQuality; font-family:'SansSerif'; color-interpolation:linearRGB;"
       id="g241">
      <path
         style="stroke:none;"
         d="M14.2656 -11.3594 L1.5 -11.3594 L1.5 -13.5781 L14.2656 -13.5781 L14.2656 -11.3594 ZM14.2656 -5.5 L1.5 -5.5 L1.5 -7.7188 L14.2656 -7.7188 L14.2656 -5.5 ZM29.3613 -2.2812 L29.3613 0 L16.5801 0 Q16.5645 -0.8594 16.8613 -1.6406 Q17.3457 -2.9531 18.4238 -4.2188 Q19.502 -5.4844 21.5332 -7.1406 Q24.6738 -9.7344 25.7832 -11.2422 Q26.8926 -12.75 26.8926 -14.0938 Q26.8926 -15.5 25.8848 -16.4688 Q24.877 -17.4375 23.252 -17.4375 Q21.5488 -17.4375 20.5176 -16.4141 Q19.4863 -15.3906 19.4707 -13.5625 L17.0332 -13.8125 Q17.2832 -16.5469 18.916 -17.9766 Q20.5488 -19.4062 23.3145 -19.4062 Q26.0957 -19.4062 27.7129 -17.8672 Q29.3301 -16.3281 29.3301 -14.0469 Q29.3301 -12.875 28.8535 -11.7578 Q28.377 -10.6406 27.2832 -9.3984 Q26.1895 -8.1562 23.627 -6 Q21.4863 -4.2031 20.8848 -3.5625 Q20.2832 -2.9219 19.877 -2.2812 L29.3613 -2.2812 Z"
         id="path243" />
    </g>
    <g
       style="fill:rgb(119,172,48); text-rendering:geometricPrecision; color-rendering:optimizeQuality; image-rendering:optimizeQuality; color-interpolation:linearRGB; stroke:rgb(119,172,48); stroke-width:2.6667;"
       id="g245">
      <line
         y2="481.3333"
         style="fill:none;"
         x1="350.9273"
         x2="390.5636"
         y1="481.3333"
         id="line247" />
      <path
         d="M343 500 L343 332 L452 332 L452 500 L343 500"
         style="fill:none; stroke-width:1; fill-rule:evenodd; stroke:rgb(38,38,38);"
         id="path249" />
    </g>
  </g>
</svg>
