<?xml version="1.0" encoding="UTF-8" standalone="no"?>
<svg
   xmlns:dc="http://purl.org/dc/elements/1.1/"
   xmlns:cc="http://creativecommons.org/ns#"
   xmlns:rdf="http://www.w3.org/1999/02/22-rdf-syntax-ns#"
   xmlns:svg="http://www.w3.org/2000/svg"
   xmlns="http://www.w3.org/2000/svg"
   xmlns:sodipodi="http://sodipodi.sourceforge.net/DTD/sodipodi-0.dtd"
   xmlns:inkscape="http://www.inkscape.org/namespaces/inkscape"
   style="fill-opacity:1; color-rendering:auto; color-interpolation:auto; stroke:black; text-rendering:auto; stroke-linecap:square; stroke-miterlimit:10; stroke-opacity:1; shape-rendering:auto; fill:black; stroke-dasharray:none; font-weight:normal; stroke-width:1; font-family:'Dialog'; font-style:normal; stroke-linejoin:miter; font-size:12px; stroke-dashoffset:0; image-rendering:auto;"
   width="768"
   height="576"
   id="svg2"
   version="1.1"
   inkscape:version="0.91 r13725"
   sodipodi:docname="recpowplotg.svg">
  <metadata
     id="metadata301">
    <rdf:RDF>
      <cc:Work
         rdf:about="">
        <dc:format>image/svg+xml</dc:format>
        <dc:type
           rdf:resource="http://purl.org/dc/dcmitype/StillImage" />
      </cc:Work>
    </rdf:RDF>
  </metadata>
  <sodipodi:namedview
     pagecolor="#ffffff"
     bordercolor="#666666"
     borderopacity="1"
     objecttolerance="10"
     gridtolerance="10"
     guidetolerance="10"
     inkscape:pageopacity="0"
     inkscape:pageshadow="2"
     inkscape:window-width="2560"
     inkscape:window-height="1538"
     id="namedview299"
     showgrid="false"
     inkscape:zoom="1.7002481"
     inkscape:cx="384"
     inkscape:cy="288"
     inkscape:window-x="2552"
     inkscape:window-y="-8"
     inkscape:window-maximized="1"
     inkscape:current-layer="g5" />
  <!--Generated by the Batik Graphics2D SVG Generator-->
  <defs
     id="genericDefs" />
  <g
     id="g5">
    <defs
       id="defs1">
      <clipPath
         clipPathUnits="userSpaceOnUse"
         id="clipPath1">
        <path
           d="M0 0 L768 0 L768 576 L0 576 L0 0 Z"
           id="path9" />
      </clipPath>
    </defs>
    <rect
       style="fill:#ffffff;fill-opacity:1;stroke:#000000;stroke-width:1;stroke-miterlimit:4;stroke-dasharray:none;stroke-dashoffset:0;stroke-opacity:1"
       id="rect4449"
       width="595.20728"
       height="470.51956"
       x="99.985413"
       y="42.548435" />
    <g
       style="fill:white; stroke:white;"
       id="g11" />
    <g
       transform="translate(390,562)"
       style="font-size:27px; fill:rgb(38,38,38); text-rendering:geometricPrecision; color-rendering:optimizeQuality; image-rendering:optimizeQuality; font-family:'mwb_cmmi10'; color-interpolation:linearRGB; stroke:rgb(38,38,38);"
       id="g21">
      <path
         style="stroke:none;"
         d="M7.9688 5.2812 Q7.9688 4.6875 8.2344 3.5234 Q8.5 2.3594 8.8906 1.0469 Q9.2812 -0.2656 9.5625 -1.1094 Q9.6562 -2.4531 9.6562 -3.1406 Q9.6562 -4.875 9.3203 -6.375 Q8.9844 -7.875 8.0312 -8.8828 Q7.0781 -9.8906 5.375 -9.8906 Q4.4844 -9.8906 3.5938 -9.5078 Q2.7031 -9.125 2.0625 -8.4375 Q1.4219 -7.75 1.1875 -6.875 Q1.1406 -6.7188 0.9688 -6.7188 L0.6406 -6.7188 Q0.4375 -6.7188 0.4375 -6.9688 L0.4375 -7.0469 Q0.7344 -8.2656 1.5078 -9.3906 Q2.2812 -10.5156 3.3984 -11.2266 Q4.5156 -11.9375 5.75 -11.9375 Q7.0156 -11.9375 7.9375 -11.0781 Q8.8594 -10.2188 9.4141 -8.8984 Q9.9688 -7.5781 10.2109 -6.2344 Q10.4531 -4.8906 10.4531 -3.7031 Q11.8125 -7.3906 13.5 -10.6875 L13.9062 -11.5625 Q13.9844 -11.6406 14.0938 -11.6406 L14.4219 -11.6406 Q14.6406 -11.6406 14.6406 -11.3906 Q14.6406 -11.3438 14.5781 -11.2344 L14.1719 -10.3906 Q13 -8.0625 12.0156 -5.6562 Q11.0312 -3.25 10.3438 -1.0312 Q10.2344 -0.125 9.9375 1.4609 Q9.6406 3.0469 9.2188 4.4141 Q8.7969 5.7812 8.375 5.8281 Q7.9688 5.8281 7.9688 5.2812 Z"
         id="path23" />
    </g>
    <g
       style="color-interpolation:linearRGB;fill:#f9f9f9;stroke:#262626;color-rendering:optimizeQuality;image-rendering:optimizeQuality;text-rendering:geometricPrecision"
       id="g25">
      <path
         style="fill:#f9f9f9"
         d="m 100,513 595,0"
         id="line27"
         inkscape:connector-curvature="0" />
      <path
         style="fill:#f9f9f9"
         d="m 100,43 595,0"
         id="line29"
         inkscape:connector-curvature="0" />
      <path
         style="fill:#f9f9f9"
         d="m 100,513 0,-5.95001"
         id="line31"
         inkscape:connector-curvature="0" />
      <path
         style="fill:#f9f9f9"
         d="m 100,43 0,5.950001"
         id="line33"
         inkscape:connector-curvature="0" />
      <path
         style="fill:#f9f9f9"
         d="m 174.375,513 0,-5.95001"
         id="line35"
         inkscape:connector-curvature="0" />
      <path
         style="fill:#f9f9f9"
         d="m 174.375,43 0,5.950001"
         id="line37"
         inkscape:connector-curvature="0" />
      <path
         style="fill:#f9f9f9"
         d="m 248.75,513 0,-5.95001"
         id="line39"
         inkscape:connector-curvature="0" />
      <path
         style="fill:#f9f9f9"
         d="m 248.75,43 0,5.950001"
         id="line41"
         inkscape:connector-curvature="0" />
      <path
         style="fill:#f9f9f9"
         d="m 323.125,513 0,-5.95001"
         id="line43"
         inkscape:connector-curvature="0" />
      <path
         style="fill:#f9f9f9"
         d="m 323.125,43 0,5.950001"
         id="line45"
         inkscape:connector-curvature="0" />
      <path
         style="fill:#f9f9f9"
         d="m 397.5,513 0,-5.95001"
         id="line47"
         inkscape:connector-curvature="0" />
      <path
         style="fill:#f9f9f9"
         d="m 397.5,43 0,5.950001"
         id="line49"
         inkscape:connector-curvature="0" />
      <path
         style="fill:#f9f9f9"
         d="m 471.875,513 0,-5.95001"
         id="line51"
         inkscape:connector-curvature="0" />
      <path
         style="fill:#f9f9f9"
         d="m 471.875,43 0,5.950001"
         id="line53"
         inkscape:connector-curvature="0" />
      <path
         style="fill:#f9f9f9"
         d="m 546.25,513 0,-5.95001"
         id="line55"
         inkscape:connector-curvature="0" />
      <path
         style="fill:#f9f9f9"
         d="m 546.25,43 0,5.950001"
         id="line57"
         inkscape:connector-curvature="0" />
      <path
         style="fill:#f9f9f9"
         d="m 620.625,513 0,-5.95001"
         id="line59"
         inkscape:connector-curvature="0" />
      <path
         style="fill:#f9f9f9"
         d="m 620.625,43 0,5.950001"
         id="line61"
         inkscape:connector-curvature="0" />
      <path
         style="fill:#f9f9f9"
         d="m 695,513 0,-5.95001"
         id="line63"
         inkscape:connector-curvature="0" />
      <path
         style="fill:#f9f9f9"
         d="m 695,43 0,5.950001"
         id="line65"
         inkscape:connector-curvature="0" />
    </g>
    <g
       transform="translate(100,518.3333)"
       style="font-size:13px; fill:rgb(38,38,38); text-rendering:geometricPrecision; color-rendering:optimizeQuality; image-rendering:optimizeQuality; font-family:'SansSerif'; color-interpolation:linearRGB; stroke:rgb(38,38,38);"
       id="g67">
      <path
         style="stroke:none;"
         d="M-5.3733 10.2729 L-5.3733 9.1323 L-1.8577 9.1323 L-1.8577 10.2729 L-5.3733 10.2729 ZM2.7527 13.0698 L2.7527 10.8354 L-1.2786 10.8354 L-1.2786 9.7886 L2.9558 3.7573 L3.8933 3.7573 L3.8933 9.7886 L5.1589 9.7886 L5.1589 10.8354 L3.8933 10.8354 L3.8933 13.0698 L2.7527 13.0698 ZM2.7527 9.7886 L2.7527 5.6011 L-0.1692 9.7886 L2.7527 9.7886 Z"
         id="path69" />
    </g>
    <g
       transform="translate(174.375,518.3333)"
       style="font-size:13px; fill:rgb(38,38,38); text-rendering:geometricPrecision; color-rendering:optimizeQuality; image-rendering:optimizeQuality; font-family:'SansSerif'; color-interpolation:linearRGB; stroke:rgb(38,38,38);"
       id="g71">
      <path
         style="stroke:none;"
         d="M-5.3733 10.2729 L-5.3733 9.1323 L-1.8577 9.1323 L-1.8577 10.2729 L-5.3733 10.2729 ZM-0.9036 10.6167 L0.2371 10.4604 Q0.4402 11.4292 0.9089 11.8589 Q1.3777 12.2886 2.0652 12.2886 Q2.8621 12.2886 3.4167 11.7339 Q3.9714 11.1792 3.9714 10.3511 Q3.9714 9.5542 3.4636 9.0464 Q2.9558 8.5386 2.1589 8.5386 Q1.8308 8.5386 1.3464 8.6636 L1.4714 7.6636 Q1.5964 7.6792 1.6589 7.6792 Q2.3933 7.6792 2.9792 7.2964 Q3.5652 6.9136 3.5652 6.1167 Q3.5652 5.4917 3.1355 5.0776 Q2.7058 4.6636 2.0339 4.6636 Q1.3621 4.6636 0.9246 5.0854 Q0.4871 5.5073 0.3464 6.3354 L-0.7942 6.1323 Q-0.5754 4.9917 0.1667 4.3589 Q0.9089 3.7261 2.0027 3.7261 Q2.7683 3.7261 3.4089 4.0542 Q4.0496 4.3823 4.3933 4.9448 Q4.7371 5.5073 4.7371 6.1479 Q4.7371 6.7417 4.4089 7.2417 Q4.0808 7.7417 3.4558 8.0229 Q4.2683 8.2261 4.7292 8.8198 Q5.1902 9.4136 5.1902 10.3198 Q5.1902 11.5386 4.2996 12.3901 Q3.4089 13.2417 2.0496 13.2417 Q0.8308 13.2417 0.0183 12.5073 Q-0.7942 11.7729 -0.9036 10.6167 Z"
         id="path73" />
    </g>
    <g
       transform="translate(248.75,518.3333)"
       style="font-size:13px; fill:rgb(38,38,38); text-rendering:geometricPrecision; color-rendering:optimizeQuality; image-rendering:optimizeQuality; font-family:'SansSerif'; color-interpolation:linearRGB; stroke:rgb(38,38,38);"
       id="g75">
      <path
         style="stroke:none;"
         d="M-5.3733 10.2729 L-5.3733 9.1323 L-1.8577 9.1323 L-1.8577 10.2729 L-5.3733 10.2729 ZM5.0964 11.9761 L5.0964 13.0698 L-1.0598 13.0698 Q-1.0754 12.6636 -0.9192 12.2729 Q-0.6848 11.6479 -0.1692 11.0386 Q0.3464 10.4292 1.3308 9.6323 Q2.8464 8.3823 3.3777 7.6558 Q3.9089 6.9292 3.9089 6.2886 Q3.9089 5.6011 3.4246 5.1401 Q2.9402 4.6792 2.1589 4.6792 Q1.3308 4.6792 0.8386 5.1714 Q0.3464 5.6636 0.3308 6.5386 L-0.8411 6.4136 Q-0.7161 5.1011 0.0652 4.4136 Q0.8464 3.7261 2.1746 3.7261 Q3.5183 3.7261 4.2996 4.4683 Q5.0808 5.2104 5.0808 6.3042 Q5.0808 6.8667 4.8542 7.4058 Q4.6277 7.9448 4.0964 8.5464 Q3.5652 9.1479 2.3308 10.1792 Q1.2996 11.0386 1.0105 11.3511 Q0.7214 11.6636 0.5339 11.9761 L5.0964 11.9761 Z"
         id="path77" />
    </g>
    <g
       transform="translate(323.125,518.3333)"
       style="font-size:13px; fill:rgb(38,38,38); text-rendering:geometricPrecision; color-rendering:optimizeQuality; image-rendering:optimizeQuality; font-family:'SansSerif'; color-interpolation:linearRGB; stroke:rgb(38,38,38);"
       id="g79">
      <path
         style="stroke:none;"
         d="M-5.3733 10.2729 L-5.3733 9.1323 L-1.8577 9.1323 L-1.8577 10.2729 L-5.3733 10.2729 ZM3.3933 13.0698 L2.2527 13.0698 L2.2527 5.7886 Q1.8308 6.1792 1.1667 6.5776 Q0.5027 6.9761 -0.0286 7.1636 L-0.0286 6.0542 Q0.9246 5.6167 1.6433 4.9761 Q2.3621 4.3354 2.6589 3.7261 L3.3933 3.7261 L3.3933 13.0698 Z"
         id="path81" />
    </g>
    <g
       transform="translate(397.5,518.3333)"
       style="font-size:13px; fill:rgb(38,38,38); text-rendering:geometricPrecision; color-rendering:optimizeQuality; image-rendering:optimizeQuality; font-family:'SansSerif'; color-interpolation:linearRGB; stroke:rgb(38,38,38);"
       id="g83">
      <path
         style="stroke:none;"
         d="M-3.0681 8.4761 Q-3.0681 6.8354 -2.7322 5.8276 Q-2.3962 4.8198 -1.7244 4.2729 Q-1.0525 3.7261 -0.0369 3.7261 Q0.7131 3.7261 1.2756 4.0308 Q1.8381 4.3354 2.2053 4.8979 Q2.5725 5.4604 2.7834 6.2808 Q2.9944 7.1011 2.9944 8.4761 Q2.9944 10.1167 2.6584 11.1245 Q2.3225 12.1323 1.6506 12.6792 Q0.9788 13.2261 -0.0369 13.2261 Q-1.3806 13.2261 -2.1619 12.2573 Q-3.0681 11.1011 -3.0681 8.4761 ZM-1.8962 8.4761 Q-1.8962 10.7729 -1.365 11.5308 Q-0.8337 12.2886 -0.0369 12.2886 Q0.7444 12.2886 1.2834 11.5308 Q1.8225 10.7729 1.8225 8.4761 Q1.8225 6.1792 1.2834 5.4292 Q0.7444 4.6792 -0.0525 4.6792 Q-0.8337 4.6792 -1.3181 5.3354 Q-1.8962 6.1948 -1.8962 8.4761 Z"
         id="path85" />
    </g>
    <g
       transform="translate(471.875,518.3333)"
       style="font-size:13px; fill:rgb(38,38,38); text-rendering:geometricPrecision; color-rendering:optimizeQuality; image-rendering:optimizeQuality; font-family:'SansSerif'; color-interpolation:linearRGB; stroke:rgb(38,38,38);"
       id="g87">
      <path
         style="stroke:none;"
         d="M1.2288 13.0698 L0.0881 13.0698 L0.0881 5.7886 Q-0.3337 6.1792 -0.9978 6.5776 Q-1.6619 6.9761 -2.1931 7.1636 L-2.1931 6.0542 Q-1.24 5.6167 -0.5212 4.9761 Q0.1975 4.3354 0.4944 3.7261 L1.2288 3.7261 L1.2288 13.0698 Z"
         id="path89" />
    </g>
    <g
       transform="translate(546.25,518.3333)"
       style="font-size:13px; fill:rgb(38,38,38); text-rendering:geometricPrecision; color-rendering:optimizeQuality; image-rendering:optimizeQuality; font-family:'SansSerif'; color-interpolation:linearRGB; stroke:rgb(38,38,38);"
       id="g91">
      <path
         style="stroke:none;"
         d="M2.9319 11.9761 L2.9319 13.0698 L-3.2244 13.0698 Q-3.24 12.6636 -3.0837 12.2729 Q-2.8494 11.6479 -2.3337 11.0386 Q-1.8181 10.4292 -0.8337 9.6323 Q0.6819 8.3823 1.2131 7.6558 Q1.7444 6.9292 1.7444 6.2886 Q1.7444 5.6011 1.26 5.1401 Q0.7756 4.6792 -0.0056 4.6792 Q-0.8337 4.6792 -1.3259 5.1714 Q-1.8181 5.6636 -1.8337 6.5386 L-3.0056 6.4136 Q-2.8806 5.1011 -2.0994 4.4136 Q-1.3181 3.7261 0.01 3.7261 Q1.3538 3.7261 2.135 4.4683 Q2.9163 5.2104 2.9163 6.3042 Q2.9163 6.8667 2.6897 7.4058 Q2.4631 7.9448 1.9319 8.5464 Q1.4006 9.1479 0.1663 10.1792 Q-0.865 11.0386 -1.1541 11.3511 Q-1.4431 11.6636 -1.6306 11.9761 L2.9319 11.9761 Z"
         id="path93" />
    </g>
    <g
       transform="translate(620.625,518.3333)"
       style="font-size:13px; fill:rgb(38,38,38); text-rendering:geometricPrecision; color-rendering:optimizeQuality; image-rendering:optimizeQuality; font-family:'SansSerif'; color-interpolation:linearRGB; stroke:rgb(38,38,38);"
       id="g95">
      <path
         style="stroke:none;"
         d="M-3.0681 10.6167 L-1.9275 10.4604 Q-1.7244 11.4292 -1.2556 11.8589 Q-0.7869 12.2886 -0.0994 12.2886 Q0.6975 12.2886 1.2522 11.7339 Q1.8069 11.1792 1.8069 10.3511 Q1.8069 9.5542 1.2991 9.0464 Q0.7913 8.5386 -0.0056 8.5386 Q-0.3337 8.5386 -0.8181 8.6636 L-0.6931 7.6636 Q-0.5681 7.6792 -0.5056 7.6792 Q0.2288 7.6792 0.8147 7.2964 Q1.4006 6.9136 1.4006 6.1167 Q1.4006 5.4917 0.9709 5.0776 Q0.5413 4.6636 -0.1306 4.6636 Q-0.8025 4.6636 -1.24 5.0854 Q-1.6775 5.5073 -1.8181 6.3354 L-2.9587 6.1323 Q-2.74 4.9917 -1.9978 4.3589 Q-1.2556 3.7261 -0.1619 3.7261 Q0.6038 3.7261 1.2444 4.0542 Q1.885 4.3823 2.2288 4.9448 Q2.5725 5.5073 2.5725 6.1479 Q2.5725 6.7417 2.2444 7.2417 Q1.9163 7.7417 1.2913 8.0229 Q2.1038 8.2261 2.5647 8.8198 Q3.0256 9.4136 3.0256 10.3198 Q3.0256 11.5386 2.135 12.3901 Q1.2444 13.2417 -0.115 13.2417 Q-1.3337 13.2417 -2.1462 12.5073 Q-2.9587 11.7729 -3.0681 10.6167 Z"
         id="path97" />
    </g>
    <g
       transform="translate(695,518.3333)"
       style="font-size:13px; fill:rgb(38,38,38); text-rendering:geometricPrecision; color-rendering:optimizeQuality; image-rendering:optimizeQuality; font-family:'SansSerif'; color-interpolation:linearRGB; stroke:rgb(38,38,38);"
       id="g99">
      <path
         style="stroke:none;"
         d="M0.5881 13.0698 L0.5881 10.8354 L-3.4431 10.8354 L-3.4431 9.7886 L0.7913 3.7573 L1.7288 3.7573 L1.7288 9.7886 L2.9944 9.7886 L2.9944 10.8354 L1.7288 10.8354 L1.7288 13.0698 L0.5881 13.0698 ZM0.5881 9.7886 L0.5881 5.6011 L-2.3337 9.7886 L0.5881 9.7886 Z"
         id="path101" />
    </g>
    <g
       transform="translate(55,358) rotate(-90)"
       style="font-size:27px; fill:rgb(38,38,38); text-rendering:geometricPrecision; color-rendering:optimizeQuality; image-rendering:optimizeQuality; font-family:'mwb_cmr10'; color-interpolation:linearRGB; stroke:rgb(38,38,38);"
       id="g103">
      <path
         style="stroke:none;"
         d="M5.0156 0 L5.0156 -0.9531 Q8.4844 -0.9531 8.4844 -1.8125 L8.4844 -3.75 Q5.875 -4.0156 3.9219 -5.3125 Q2.8906 -6.0156 2.2031 -7.0391 Q1.5156 -8.0625 1.5156 -9.2344 Q1.5156 -10.375 2.2031 -11.4141 Q2.8906 -12.4531 3.9219 -13.125 Q4.9375 -13.7969 6.0625 -14.1797 Q7.1875 -14.5625 8.4844 -14.6875 L8.4844 -16.6406 Q8.4844 -17.5 5.0156 -17.5 L5.0156 -18.4375 L14.2812 -18.4375 L14.2812 -17.5 Q10.8281 -17.5 10.8281 -16.6406 L10.8281 -14.6875 Q11.9375 -14.6875 13.1953 -14.2734 Q14.4531 -13.8594 15.5156 -13.1484 Q16.5781 -12.4375 17.2656 -11.4141 Q17.9531 -10.3906 17.9531 -9.2344 Q17.9531 -8.0625 17.2656 -7.0469 Q16.5781 -6.0312 15.4844 -5.2969 Q14.3906 -4.5625 13.1328 -4.1562 Q11.875 -3.75 10.8281 -3.75 L10.8281 -1.8125 Q10.8281 -0.9531 14.2812 -0.9531 L14.2812 0 L5.0156 0 ZM10.8281 -4.4531 Q13 -4.7344 14.0703 -5.9141 Q15.1406 -7.0938 15.1406 -9.2344 Q15.1406 -11.375 14.0547 -12.5469 Q12.9688 -13.7188 10.8281 -13.9844 L10.8281 -4.4531 ZM8.4844 -4.4844 L8.4844 -13.9688 Q4.3281 -13.375 4.3281 -9.2344 Q4.3281 -5.0625 8.4844 -4.4844 Z"
         id="path105" />
    </g>
    <g
       transform="translate(55,338) rotate(-90)"
       style="font-size:27px; fill:rgb(38,38,38); text-rendering:geometricPrecision; color-rendering:optimizeQuality; image-rendering:optimizeQuality; font-family:'SansSerif'; color-interpolation:linearRGB; stroke:rgb(38,38,38);"
       id="g107">
      <path
         style="stroke:none;"
         d="M15.1108 0 L7.6265 -19.3281 L10.3921 -19.3281 L15.4077 -5.2812 Q16.0171 -3.5938 16.4233 -2.125 Q16.8765 -3.7031 17.4702 -5.2812 L22.689 -19.3281 L25.2983 -19.3281 L17.7358 0 L15.1108 0 ZM33.0117 0.3281 L38.6211 -19.6562 L40.5117 -19.6562 L34.918 0.3281 L33.0117 0.3281 Z"
         id="path109" />
    </g>
    <g
       transform="translate(55,289) rotate(-90)"
       style="font-size:27px; fill:rgb(38,38,38); text-rendering:geometricPrecision; color-rendering:optimizeQuality; image-rendering:optimizeQuality; font-family:'mwb_cmmi10'; color-interpolation:linearRGB; stroke:rgb(38,38,38);"
       id="g111">
      <path
         style="stroke:none;"
         d="M5.4375 0.2969 Q4.1562 0.2969 3.1562 -0.3047 Q2.1562 -0.9062 1.6172 -1.9375 Q1.0781 -2.9688 1.0781 -4.2656 Q1.0781 -6.1094 2.1016 -7.8984 Q3.125 -9.6875 4.8203 -10.8125 Q6.5156 -11.9375 8.375 -11.9375 Q9.75 -11.9375 10.7891 -11.2188 Q11.8281 -10.5 12.3672 -9.3047 Q12.9062 -8.1094 12.9062 -6.75 L12.9375 -4.9375 Q13.8594 -6.2188 14.5 -7.6016 Q15.1406 -8.9844 15.4844 -10.4531 Q15.5312 -10.6094 15.6875 -10.6094 L16 -10.6094 Q16.25 -10.6094 16.25 -10.3594 Q16.25 -10.3438 16.2344 -10.2812 Q15.9062 -9.0469 15.4375 -7.9062 Q14.9688 -6.7656 14.3281 -5.6953 Q13.6875 -4.625 12.9375 -3.75 Q12.9375 -0.4062 13.7188 -0.4062 Q14.2188 -0.4062 14.5391 -0.7031 Q14.8594 -1 15.1016 -1.4375 Q15.3438 -1.875 15.4062 -1.8906 L15.7344 -1.8906 Q15.9531 -1.8906 15.9531 -1.625 Q15.9531 -0.9531 15.1797 -0.3281 Q14.4062 0.2969 13.6562 0.2969 Q12.6875 0.2969 12.0391 -0.3359 Q11.3906 -0.9688 11.1562 -1.9844 Q9.8906 -0.8906 8.4141 -0.2969 Q6.9375 0.2969 5.4375 0.2969 ZM5.4844 -0.4062 Q8.375 -0.4062 11.0156 -2.7812 Q11.0156 -2.9375 10.9844 -3.1719 Q10.9531 -3.4062 10.9531 -3.4219 L10.9531 -6.3438 Q10.9531 -11.2344 8.3125 -11.2344 Q6.7344 -11.2344 5.5469 -9.8828 Q4.3594 -8.5312 3.7656 -6.6484 Q3.1719 -4.7656 3.1719 -3.2188 Q3.1719 -2.0469 3.7656 -1.2266 Q4.3594 -0.4062 5.4844 -0.4062 Z"
         id="path113" />
    </g>
    <g
       transform="translate(55,263) rotate(-90)"
       style="font-size:27px; fill:rgb(38,38,38); text-rendering:geometricPrecision; color-rendering:optimizeQuality; image-rendering:optimizeQuality; font-family:'mwb_cmmi10'; color-interpolation:linearRGB; stroke:rgb(38,38,38);"
       id="g115">
      <path
         style="stroke:none;"
         d="M0.7188 5.2344 Q0.6406 5.2344 0.5781 5.1406 Q0.5156 5.0469 0.5156 4.9688 L4.6719 -11.7188 Q5.0156 -13.0625 5.7031 -14.3281 Q6.3906 -15.5938 7.4297 -16.6797 Q8.4688 -17.7656 9.7031 -18.3984 Q10.9375 -19.0312 12.3438 -19.0312 Q13.3438 -19.0312 14.1562 -18.5938 Q14.9688 -18.1562 15.4375 -17.3594 Q15.9062 -16.5625 15.9062 -15.5625 Q15.9062 -14.5938 15.5312 -13.7188 Q15.1562 -12.8438 14.5 -12.0859 Q13.8438 -11.3281 13.0938 -10.8438 Q13.5312 -10.5781 13.875 -10.1484 Q14.2188 -9.7188 14.4297 -9.25 Q14.6406 -8.7812 14.7578 -8.2109 Q14.875 -7.6406 14.875 -7.125 Q14.875 -5.75 14.2812 -4.4062 Q13.6875 -3.0625 12.6641 -1.9688 Q11.6406 -0.875 10.3203 -0.2344 Q9 0.4062 7.625 0.4062 Q6.1094 0.4062 4.8906 -0.4219 Q3.6719 -1.25 3.2188 -2.6719 L1.2656 5.0781 Q1.2656 5.2344 1.0625 5.2344 L0.7188 5.2344 ZM7.6719 -0.3281 Q8.8906 -0.3281 9.8672 -1.125 Q10.8438 -1.9219 11.4844 -3.1328 Q12.125 -4.3438 12.4609 -5.6953 Q12.7969 -7.0469 12.7969 -8.1406 Q12.7969 -9.5156 12.0156 -10.3125 Q11.0938 -9.9688 10.2031 -9.9688 Q8.0625 -9.9688 8.0625 -10.6875 Q8.0625 -11.6406 10.5 -11.6406 Q11.375 -11.6406 12.1094 -11.3594 Q12.6875 -11.8125 13.1562 -12.6797 Q13.625 -13.5469 13.875 -14.5 Q14.125 -15.4531 14.125 -16.2812 Q14.125 -17.1719 13.6562 -17.7578 Q13.1875 -18.3438 12.2812 -18.3438 Q10.6406 -18.3438 9.2266 -17.3281 Q7.8125 -16.3125 6.8359 -14.7578 Q5.8594 -13.2031 5.4375 -11.5625 L3.9375 -5.5938 Q3.7969 -4.9688 3.75 -4.2031 Q3.75 -2.5156 4.8594 -1.4219 Q5.9688 -0.3281 7.6719 -0.3281 ZM8.8906 -10.7656 Q9.2969 -10.6719 10.2344 -10.6719 Q10.6875 -10.6719 11.1562 -10.8281 Q11.125 -10.8438 11.0469 -10.8438 Q10.7656 -10.9219 10.4219 -10.9219 Q9.2031 -10.9219 8.8906 -10.7656 Z"
         id="path117" />
    </g>
    <g
       transform="translate(55,247) rotate(-90)"
       style="font-size:27px; fill:rgb(38,38,38); text-rendering:geometricPrecision; color-rendering:optimizeQuality; image-rendering:optimizeQuality; font-family:'SansSerif'; color-interpolation:linearRGB; stroke:rgb(38,38,38);"
       id="g119">
      <path
         style="stroke:none;"
         d="M9.5796 0 L9.5796 -19.3281 L16.8765 -19.3281 Q18.7983 -19.3281 19.814 -19.1406 Q21.2358 -18.9062 22.1968 -18.2422 Q23.1577 -17.5781 23.7437 -16.375 Q24.3296 -15.1719 24.3296 -13.7344 Q24.3296 -11.2656 22.7671 -9.5625 Q21.2046 -7.8594 17.0952 -7.8594 L12.1421 -7.8594 L12.1421 0 L9.5796 0 ZM12.1421 -10.1406 L17.1421 -10.1406 Q19.6108 -10.1406 20.6577 -11.0625 Q21.7046 -11.9844 21.7046 -13.6562 Q21.7046 -14.875 21.0874 -15.7344 Q20.4702 -16.5938 19.4702 -16.875 Q18.8296 -17.0469 17.0796 -17.0469 L12.1421 -17.0469 L12.1421 -10.1406 Z"
         id="path121" />
    </g>
    <g
       transform="translate(68,221) rotate(-90)"
       style="font-size:21px; fill:rgb(38,38,38); text-rendering:geometricPrecision; color-rendering:optimizeQuality; image-rendering:optimizeQuality; font-family:'SansSerif'; color-interpolation:linearRGB; stroke:rgb(38,38,38);"
       id="g123">
      <path
         style="stroke:none;"
         d="M8.8438 -3.5 L10.75 -3.2656 Q10.2969 -1.5938 9.0781 -0.6719 Q7.8594 0.25 5.9531 0.25 Q3.5625 0.25 2.1641 -1.2266 Q0.7656 -2.7031 0.7656 -5.3594 Q0.7656 -8.0938 2.1797 -9.6172 Q3.5938 -11.1406 5.8594 -11.1406 Q8.0469 -11.1406 9.4297 -9.6484 Q10.8125 -8.1562 10.8125 -5.4688 Q10.8125 -5.2969 10.7969 -4.9688 L2.6719 -4.9688 Q2.7812 -3.1719 3.6953 -2.2188 Q4.6094 -1.2656 5.9688 -1.2656 Q6.9844 -1.2656 7.7031 -1.8047 Q8.4219 -2.3438 8.8438 -3.5 ZM2.7812 -6.4844 L8.8594 -6.4844 Q8.7344 -7.8594 8.1562 -8.5469 Q7.2812 -9.625 5.875 -9.625 Q4.6094 -9.625 3.7422 -8.7734 Q2.875 -7.9219 2.7812 -6.4844 ZM11.8354 0 L15.8042 -5.6562 L12.1323 -10.8906 L14.4448 -10.8906 L16.1167 -8.3438 Q16.5854 -7.6094 16.8667 -7.1094 Q17.3198 -7.7969 17.6948 -8.3125 L19.5386 -10.8906 L21.7417 -10.8906 L17.9761 -5.7656 L22.0229 0 L19.7573 0 L17.5229 -3.3906 L16.9292 -4.2969 L14.0698 0 L11.8354 0 Z"
         id="path125" />
    </g>
    <g
       style="fill:rgb(38,38,38); text-rendering:geometricPrecision; color-interpolation:linearRGB; color-rendering:optimizeQuality; image-rendering:optimizeQuality; stroke:rgb(38,38,38);"
       id="g127">
      <line
         y2="43"
         style="fill:none;"
         x1="100"
         x2="100"
         y1="513"
         id="line129" />
      <line
         y2="43"
         style="fill:none;"
         x1="695"
         x2="695"
         y1="513"
         id="line131" />
      <line
         y2="513"
         style="fill:none;"
         x1="100"
         x2="105.95"
         y1="513"
         id="line133" />
      <line
         y2="513"
         style="fill:none;"
         x1="695"
         x2="689.05"
         y1="513"
         id="line135" />
      <line
         y2="466"
         style="fill:none;"
         x1="100"
         x2="105.95"
         y1="466"
         id="line137" />
      <line
         y2="466"
         style="fill:none;"
         x1="695"
         x2="689.05"
         y1="466"
         id="line139" />
      <line
         y2="419"
         style="fill:none;"
         x1="100"
         x2="105.95"
         y1="419"
         id="line141" />
      <line
         y2="419"
         style="fill:none;"
         x1="695"
         x2="689.05"
         y1="419"
         id="line143" />
      <line
         y2="372"
         style="fill:none;"
         x1="100"
         x2="105.95"
         y1="372"
         id="line145" />
      <line
         y2="372"
         style="fill:none;"
         x1="695"
         x2="689.05"
         y1="372"
         id="line147" />
      <line
         y2="325"
         style="fill:none;"
         x1="100"
         x2="105.95"
         y1="325"
         id="line149" />
      <line
         y2="325"
         style="fill:none;"
         x1="695"
         x2="689.05"
         y1="325"
         id="line151" />
      <line
         y2="278"
         style="fill:none;"
         x1="100"
         x2="105.95"
         y1="278"
         id="line153" />
      <line
         y2="278"
         style="fill:none;"
         x1="695"
         x2="689.05"
         y1="278"
         id="line155" />
      <line
         y2="231"
         style="fill:none;"
         x1="100"
         x2="105.95"
         y1="231"
         id="line157" />
      <line
         y2="231"
         style="fill:none;"
         x1="695"
         x2="689.05"
         y1="231"
         id="line159" />
      <line
         y2="184"
         style="fill:none;"
         x1="100"
         x2="105.95"
         y1="184"
         id="line161" />
      <line
         y2="184"
         style="fill:none;"
         x1="695"
         x2="689.05"
         y1="184"
         id="line163" />
      <line
         y2="137"
         style="fill:none;"
         x1="100"
         x2="105.95"
         y1="137"
         id="line165" />
      <line
         y2="137"
         style="fill:none;"
         x1="695"
         x2="689.05"
         y1="137"
         id="line167" />
      <line
         y2="90"
         style="fill:none;"
         x1="100"
         x2="105.95"
         y1="90"
         id="line169" />
      <line
         y2="90"
         style="fill:none;"
         x1="695"
         x2="689.05"
         y1="90"
         id="line171" />
      <line
         y2="43"
         style="fill:none;"
         x1="100"
         x2="105.95"
         y1="43"
         id="line173" />
      <line
         y2="43"
         style="fill:none;"
         x1="695"
         x2="689.05"
         y1="43"
         id="line175" />
    </g>
    <g
       transform="translate(94.6667,513)"
       style="font-size:13px; fill:rgb(38,38,38); text-rendering:geometricPrecision; color-rendering:optimizeQuality; image-rendering:optimizeQuality; font-family:'SansSerif'; color-interpolation:linearRGB; stroke:rgb(38,38,38);"
       id="g177">
      <path
         style="stroke:none;"
         d="M-17.5249 0.8003 Q-17.5249 -0.8403 -17.189 -1.8481 Q-16.853 -2.856 -16.1812 -3.4028 Q-15.5093 -3.9497 -14.4937 -3.9497 Q-13.7437 -3.9497 -13.1812 -3.645 Q-12.6187 -3.3403 -12.2515 -2.7778 Q-11.8843 -2.2153 -11.6733 -1.395 Q-11.4624 -0.5747 -11.4624 0.8003 Q-11.4624 2.4409 -11.7983 3.4487 Q-12.1343 4.4565 -12.8062 5.0034 Q-13.478 5.5503 -14.4937 5.5503 Q-15.8374 5.5503 -16.6187 4.5815 Q-17.5249 3.4253 -17.5249 0.8003 ZM-16.353 0.8003 Q-16.353 3.0972 -15.8218 3.855 Q-15.2905 4.6128 -14.4937 4.6128 Q-13.7124 4.6128 -13.1733 3.855 Q-12.6343 3.0972 -12.6343 0.8003 Q-12.6343 -1.4966 -13.1733 -2.2466 Q-13.7124 -2.9966 -14.5093 -2.9966 Q-15.2905 -2.9966 -15.7749 -2.3403 Q-16.353 -1.481 -16.353 0.8003 ZM-9.6543 5.394 L-9.6543 4.0972 L-8.3574 4.0972 L-8.3574 5.394 L-9.6543 5.394 ZM-3.0269 5.394 L-3.0269 3.1597 L-7.0581 3.1597 L-7.0581 2.1128 L-2.8237 -3.9185 L-1.8862 -3.9185 L-1.8862 2.1128 L-0.6206 2.1128 L-0.6206 3.1597 L-1.8862 3.1597 L-1.8862 5.394 L-3.0269 5.394 ZM-3.0269 2.1128 L-3.0269 -2.0747 L-5.9487 2.1128 L-3.0269 2.1128 Z"
         id="path179" />
    </g>
    <g
       transform="translate(94.6667,466)"
       style="font-size:13px; fill:rgb(38,38,38); text-rendering:geometricPrecision; color-rendering:optimizeQuality; image-rendering:optimizeQuality; font-family:'SansSerif'; color-interpolation:linearRGB; stroke:rgb(38,38,38);"
       id="g181">
      <path
         style="stroke:none;"
         d="M-17.5249 0.8003 Q-17.5249 -0.8403 -17.189 -1.8481 Q-16.853 -2.856 -16.1812 -3.4028 Q-15.5093 -3.9497 -14.4937 -3.9497 Q-13.7437 -3.9497 -13.1812 -3.645 Q-12.6187 -3.3403 -12.2515 -2.7778 Q-11.8843 -2.2153 -11.6733 -1.395 Q-11.4624 -0.5747 -11.4624 0.8003 Q-11.4624 2.4409 -11.7983 3.4487 Q-12.1343 4.4565 -12.8062 5.0034 Q-13.478 5.5503 -14.4937 5.5503 Q-15.8374 5.5503 -16.6187 4.5815 Q-17.5249 3.4253 -17.5249 0.8003 ZM-16.353 0.8003 Q-16.353 3.0972 -15.8218 3.855 Q-15.2905 4.6128 -14.4937 4.6128 Q-13.7124 4.6128 -13.1733 3.855 Q-12.6343 3.0972 -12.6343 0.8003 Q-12.6343 -1.4966 -13.1733 -2.2466 Q-13.7124 -2.9966 -14.5093 -2.9966 Q-15.2905 -2.9966 -15.7749 -2.3403 Q-16.353 -1.481 -16.353 0.8003 ZM-9.6543 5.394 L-9.6543 4.0972 L-8.3574 4.0972 L-8.3574 5.394 L-9.6543 5.394 ZM-6.6831 2.9565 L-5.4956 2.8472 Q-5.355 3.7378 -4.8706 4.1753 Q-4.3862 4.6128 -3.6987 4.6128 Q-2.8706 4.6128 -2.3003 3.9878 Q-1.73 3.3628 -1.73 2.3472 Q-1.73 1.3628 -2.2769 0.8003 Q-2.8237 0.2378 -3.7144 0.2378 Q-4.2769 0.2378 -4.7222 0.4878 Q-5.1675 0.7378 -5.4175 1.1284 L-6.48 0.9878 L-5.5894 -3.7778 L-0.9644 -3.7778 L-0.9644 -2.6997 L-4.6675 -2.6997 L-5.1675 -0.1997 Q-4.3394 -0.7778 -3.4175 -0.7778 Q-2.1987 -0.7778 -1.3628 0.0659 Q-0.5269 0.9097 -0.5269 2.2378 Q-0.5269 3.5034 -1.2612 4.4253 Q-2.1519 5.5503 -3.6987 5.5503 Q-4.9644 5.5503 -5.769 4.8394 Q-6.5737 4.1284 -6.6831 2.9565 Z"
         id="path183" />
    </g>
    <g
       transform="translate(94.6667,419)"
       style="font-size:13px; fill:rgb(38,38,38); text-rendering:geometricPrecision; color-rendering:optimizeQuality; image-rendering:optimizeQuality; font-family:'SansSerif'; color-interpolation:linearRGB; stroke:rgb(38,38,38);"
       id="g185">
      <path
         style="stroke:none;"
         d="M-17.5249 0.8003 Q-17.5249 -0.8403 -17.189 -1.8481 Q-16.853 -2.856 -16.1812 -3.4028 Q-15.5093 -3.9497 -14.4937 -3.9497 Q-13.7437 -3.9497 -13.1812 -3.645 Q-12.6187 -3.3403 -12.2515 -2.7778 Q-11.8843 -2.2153 -11.6733 -1.395 Q-11.4624 -0.5747 -11.4624 0.8003 Q-11.4624 2.4409 -11.7983 3.4487 Q-12.1343 4.4565 -12.8062 5.0034 Q-13.478 5.5503 -14.4937 5.5503 Q-15.8374 5.5503 -16.6187 4.5815 Q-17.5249 3.4253 -17.5249 0.8003 ZM-16.353 0.8003 Q-16.353 3.0972 -15.8218 3.855 Q-15.2905 4.6128 -14.4937 4.6128 Q-13.7124 4.6128 -13.1733 3.855 Q-12.6343 3.0972 -12.6343 0.8003 Q-12.6343 -1.4966 -13.1733 -2.2466 Q-13.7124 -2.9966 -14.5093 -2.9966 Q-15.2905 -2.9966 -15.7749 -2.3403 Q-16.353 -1.481 -16.353 0.8003 ZM-9.6543 5.394 L-9.6543 4.0972 L-8.3574 4.0972 L-8.3574 5.394 L-9.6543 5.394 ZM-0.7612 -1.6372 L-1.9019 -1.5435 Q-2.0425 -2.2153 -2.3237 -2.5278 Q-2.7925 -3.0122 -3.4644 -3.0122 Q-4.0112 -3.0122 -4.4331 -2.6997 Q-4.9644 -2.3091 -5.2769 -1.5591 Q-5.5894 -0.8091 -5.605 0.5972 Q-5.1987 -0.0278 -4.5972 -0.3325 Q-3.9956 -0.6372 -3.3394 -0.6372 Q-2.1987 -0.6372 -1.394 0.1987 Q-0.5894 1.0347 -0.5894 2.3784 Q-0.5894 3.2534 -0.9722 4.0034 Q-1.355 4.7534 -2.0112 5.1519 Q-2.6675 5.5503 -3.5112 5.5503 Q-4.9331 5.5503 -5.8394 4.5034 Q-6.7456 3.4565 -6.7456 1.0347 Q-6.7456 -1.6528 -5.7456 -2.8872 Q-4.8706 -3.9497 -3.4019 -3.9497 Q-2.3081 -3.9497 -1.605 -3.3325 Q-0.9019 -2.7153 -0.7612 -1.6372 ZM-5.4331 2.3784 Q-5.4331 2.9722 -5.1831 3.5112 Q-4.9331 4.0503 -4.48 4.3315 Q-4.0269 4.6128 -3.5269 4.6128 Q-2.8081 4.6128 -2.2847 4.0269 Q-1.7612 3.4409 -1.7612 2.4409 Q-1.7612 1.4722 -2.2769 0.9175 Q-2.7925 0.3628 -3.5737 0.3628 Q-4.355 0.3628 -4.894 0.9175 Q-5.4331 1.4722 -5.4331 2.3784 Z"
         id="path187" />
    </g>
    <g
       transform="translate(94.6667,372)"
       style="font-size:13px; fill:rgb(38,38,38); text-rendering:geometricPrecision; color-rendering:optimizeQuality; image-rendering:optimizeQuality; font-family:'SansSerif'; color-interpolation:linearRGB; stroke:rgb(38,38,38);"
       id="g189">
      <path
         style="stroke:none;"
         d="M-17.5249 0.8003 Q-17.5249 -0.8403 -17.189 -1.8481 Q-16.853 -2.856 -16.1812 -3.4028 Q-15.5093 -3.9497 -14.4937 -3.9497 Q-13.7437 -3.9497 -13.1812 -3.645 Q-12.6187 -3.3403 -12.2515 -2.7778 Q-11.8843 -2.2153 -11.6733 -1.395 Q-11.4624 -0.5747 -11.4624 0.8003 Q-11.4624 2.4409 -11.7983 3.4487 Q-12.1343 4.4565 -12.8062 5.0034 Q-13.478 5.5503 -14.4937 5.5503 Q-15.8374 5.5503 -16.6187 4.5815 Q-17.5249 3.4253 -17.5249 0.8003 ZM-16.353 0.8003 Q-16.353 3.0972 -15.8218 3.855 Q-15.2905 4.6128 -14.4937 4.6128 Q-13.7124 4.6128 -13.1733 3.855 Q-12.6343 3.0972 -12.6343 0.8003 Q-12.6343 -1.4966 -13.1733 -2.2466 Q-13.7124 -2.9966 -14.5093 -2.9966 Q-15.2905 -2.9966 -15.7749 -2.3403 Q-16.353 -1.481 -16.353 0.8003 ZM-9.6543 5.394 L-9.6543 4.0972 L-8.3574 4.0972 L-8.3574 5.394 L-9.6543 5.394 ZM-6.6206 -2.6997 L-6.6206 -3.7935 L-0.5894 -3.7935 L-0.5894 -2.9028 Q-1.48 -1.9497 -2.355 -0.3872 Q-3.23 1.1753 -3.6987 2.8315 Q-4.0425 4.0034 -4.1362 5.394 L-5.3081 5.394 Q-5.2925 4.3003 -4.8784 2.7456 Q-4.4644 1.1909 -3.6987 -0.2544 Q-2.9331 -1.6997 -2.0581 -2.6997 L-6.6206 -2.6997 Z"
         id="path191" />
    </g>
    <g
       transform="translate(94.6667,325)"
       style="font-size:13px; fill:rgb(38,38,38); text-rendering:geometricPrecision; color-rendering:optimizeQuality; image-rendering:optimizeQuality; font-family:'SansSerif'; color-interpolation:linearRGB; stroke:rgb(38,38,38);"
       id="g193">
      <path
         style="stroke:none;"
         d="M-17.5249 0.8003 Q-17.5249 -0.8403 -17.189 -1.8481 Q-16.853 -2.856 -16.1812 -3.4028 Q-15.5093 -3.9497 -14.4937 -3.9497 Q-13.7437 -3.9497 -13.1812 -3.645 Q-12.6187 -3.3403 -12.2515 -2.7778 Q-11.8843 -2.2153 -11.6733 -1.395 Q-11.4624 -0.5747 -11.4624 0.8003 Q-11.4624 2.4409 -11.7983 3.4487 Q-12.1343 4.4565 -12.8062 5.0034 Q-13.478 5.5503 -14.4937 5.5503 Q-15.8374 5.5503 -16.6187 4.5815 Q-17.5249 3.4253 -17.5249 0.8003 ZM-16.353 0.8003 Q-16.353 3.0972 -15.8218 3.855 Q-15.2905 4.6128 -14.4937 4.6128 Q-13.7124 4.6128 -13.1733 3.855 Q-12.6343 3.0972 -12.6343 0.8003 Q-12.6343 -1.4966 -13.1733 -2.2466 Q-13.7124 -2.9966 -14.5093 -2.9966 Q-15.2905 -2.9966 -15.7749 -2.3403 Q-16.353 -1.481 -16.353 0.8003 ZM-9.6543 5.394 L-9.6543 4.0972 L-8.3574 4.0972 L-8.3574 5.394 L-9.6543 5.394 ZM-4.9331 0.3472 Q-5.6362 0.0815 -5.98 -0.395 Q-6.3237 -0.8716 -6.3237 -1.5435 Q-6.3237 -2.5591 -5.5972 -3.2544 Q-4.8706 -3.9497 -3.6519 -3.9497 Q-2.4331 -3.9497 -1.6909 -3.2388 Q-0.9487 -2.5278 -0.9487 -1.5122 Q-0.9487 -0.8716 -1.2925 -0.395 Q-1.6362 0.0815 -2.3237 0.3472 Q-1.4644 0.6284 -1.019 1.2534 Q-0.5737 1.8784 -0.5737 2.7378 Q-0.5737 3.9253 -1.4175 4.7378 Q-2.2612 5.5503 -3.6362 5.5503 Q-5.0112 5.5503 -5.855 4.7378 Q-6.6987 3.9253 -6.6987 2.7065 Q-6.6987 1.8003 -6.2378 1.1831 Q-5.7769 0.5659 -4.9331 0.3472 ZM-5.1675 -1.5903 Q-5.1675 -0.9341 -4.7378 -0.5122 Q-4.3081 -0.0903 -3.6362 -0.0903 Q-2.9644 -0.0903 -2.5425 -0.5044 Q-2.1206 -0.9185 -2.1206 -1.5278 Q-2.1206 -2.1528 -2.5581 -2.5825 Q-2.9956 -3.0122 -3.6362 -3.0122 Q-4.2925 -3.0122 -4.73 -2.5903 Q-5.1675 -2.1685 -5.1675 -1.5903 ZM-5.5269 2.7065 Q-5.5269 3.1909 -5.2925 3.6519 Q-5.0581 4.1128 -4.605 4.3628 Q-4.1519 4.6128 -3.6206 4.6128 Q-2.8081 4.6128 -2.2769 4.0894 Q-1.7456 3.5659 -1.7456 2.7534 Q-1.7456 1.9253 -2.2925 1.3862 Q-2.8394 0.8472 -3.6675 0.8472 Q-4.4644 0.8472 -4.9956 1.3784 Q-5.5269 1.9097 -5.5269 2.7065 Z"
         id="path195" />
    </g>
    <g
       transform="translate(94.6667,278)"
       style="font-size:13px; fill:rgb(38,38,38); text-rendering:geometricPrecision; color-rendering:optimizeQuality; image-rendering:optimizeQuality; font-family:'SansSerif'; color-interpolation:linearRGB; stroke:rgb(38,38,38);"
       id="g197">
      <path
         style="stroke:none;"
         d="M-17.5249 0.8003 Q-17.5249 -0.8403 -17.189 -1.8481 Q-16.853 -2.856 -16.1812 -3.4028 Q-15.5093 -3.9497 -14.4937 -3.9497 Q-13.7437 -3.9497 -13.1812 -3.645 Q-12.6187 -3.3403 -12.2515 -2.7778 Q-11.8843 -2.2153 -11.6733 -1.395 Q-11.4624 -0.5747 -11.4624 0.8003 Q-11.4624 2.4409 -11.7983 3.4487 Q-12.1343 4.4565 -12.8062 5.0034 Q-13.478 5.5503 -14.4937 5.5503 Q-15.8374 5.5503 -16.6187 4.5815 Q-17.5249 3.4253 -17.5249 0.8003 ZM-16.353 0.8003 Q-16.353 3.0972 -15.8218 3.855 Q-15.2905 4.6128 -14.4937 4.6128 Q-13.7124 4.6128 -13.1733 3.855 Q-12.6343 3.0972 -12.6343 0.8003 Q-12.6343 -1.4966 -13.1733 -2.2466 Q-13.7124 -2.9966 -14.5093 -2.9966 Q-15.2905 -2.9966 -15.7749 -2.3403 Q-16.353 -1.481 -16.353 0.8003 ZM-9.6543 5.394 L-9.6543 4.0972 L-8.3574 4.0972 L-8.3574 5.394 L-9.6543 5.394 ZM-6.5112 3.2378 L-5.4175 3.144 Q-5.2769 3.9097 -4.8862 4.2612 Q-4.4956 4.6128 -3.8706 4.6128 Q-3.355 4.6128 -2.9565 4.3706 Q-2.5581 4.1284 -2.3003 3.73 Q-2.0425 3.3315 -1.8784 2.644 Q-1.7144 1.9565 -1.7144 1.2378 Q-1.7144 1.1597 -1.7144 1.019 Q-2.0581 1.5659 -2.6519 1.9019 Q-3.2456 2.2378 -3.9331 2.2378 Q-5.0894 2.2378 -5.8862 1.4019 Q-6.6831 0.5659 -6.6831 -0.8091 Q-6.6831 -2.231 -5.855 -3.0903 Q-5.0269 -3.9497 -3.7612 -3.9497 Q-2.855 -3.9497 -2.105 -3.4575 Q-1.355 -2.9653 -0.9644 -2.0669 Q-0.5737 -1.1685 -0.5737 0.5503 Q-0.5737 2.3315 -0.9565 3.3862 Q-1.3394 4.4409 -2.105 4.9956 Q-2.8706 5.5503 -3.9019 5.5503 Q-4.9956 5.5503 -5.6909 4.9487 Q-6.3862 4.3472 -6.5112 3.2378 ZM-1.8394 -0.8716 Q-1.8394 -1.856 -2.3628 -2.4263 Q-2.8862 -2.9966 -3.6206 -2.9966 Q-4.3862 -2.9966 -4.9487 -2.3794 Q-5.5112 -1.7622 -5.5112 -0.7622 Q-5.5112 0.1128 -4.98 0.6675 Q-4.4487 1.2222 -3.6519 1.2222 Q-2.855 1.2222 -2.3472 0.6675 Q-1.8394 0.1128 -1.8394 -0.8716 Z"
         id="path199" />
    </g>
    <g
       transform="translate(94.6667,231)"
       style="font-size:13px; fill:rgb(38,38,38); text-rendering:geometricPrecision; color-rendering:optimizeQuality; image-rendering:optimizeQuality; font-family:'SansSerif'; color-interpolation:linearRGB; stroke:rgb(38,38,38);"
       id="g201">
      <path
         style="stroke:none;"
         d="M-2.3862 5.394 L-3.5269 5.394 L-3.5269 -1.8872 Q-3.9487 -1.4966 -4.6128 -1.0981 Q-5.2769 -0.6997 -5.8081 -0.5122 L-5.8081 -1.6216 Q-4.855 -2.0591 -4.1362 -2.6997 Q-3.4175 -3.3403 -3.1206 -3.9497 L-2.3862 -3.9497 L-2.3862 5.394 Z"
         id="path203" />
    </g>
    <g
       transform="translate(94.6667,184)"
       style="font-size:13px; fill:rgb(38,38,38); text-rendering:geometricPrecision; color-rendering:optimizeQuality; image-rendering:optimizeQuality; font-family:'SansSerif'; color-interpolation:linearRGB; stroke:rgb(38,38,38);"
       id="g205">
      <path
         style="stroke:none;"
         d="M-13.228 5.394 L-14.3687 5.394 L-14.3687 -1.8872 Q-14.7905 -1.4966 -15.4546 -1.0981 Q-16.1187 -0.6997 -16.6499 -0.5122 L-16.6499 -1.6216 Q-15.6968 -2.0591 -14.978 -2.6997 Q-14.2593 -3.3403 -13.9624 -3.9497 L-13.228 -3.9497 L-13.228 5.394 ZM-9.6543 5.394 L-9.6543 4.0972 L-8.3574 4.0972 L-8.3574 5.394 L-9.6543 5.394 ZM-2.3862 5.394 L-3.5269 5.394 L-3.5269 -1.8872 Q-3.9487 -1.4966 -4.6128 -1.0981 Q-5.2769 -0.6997 -5.8081 -0.5122 L-5.8081 -1.6216 Q-4.855 -2.0591 -4.1362 -2.6997 Q-3.4175 -3.3403 -3.1206 -3.9497 L-2.3862 -3.9497 L-2.3862 5.394 Z"
         id="path207" />
    </g>
    <g
       transform="translate(94.6667,137)"
       style="font-size:13px; fill:rgb(38,38,38); text-rendering:geometricPrecision; color-rendering:optimizeQuality; image-rendering:optimizeQuality; font-family:'SansSerif'; color-interpolation:linearRGB; stroke:rgb(38,38,38);"
       id="g209">
      <path
         style="stroke:none;"
         d="M-13.228 5.394 L-14.3687 5.394 L-14.3687 -1.8872 Q-14.7905 -1.4966 -15.4546 -1.0981 Q-16.1187 -0.6997 -16.6499 -0.5122 L-16.6499 -1.6216 Q-15.6968 -2.0591 -14.978 -2.6997 Q-14.2593 -3.3403 -13.9624 -3.9497 L-13.228 -3.9497 L-13.228 5.394 ZM-9.6543 5.394 L-9.6543 4.0972 L-8.3574 4.0972 L-8.3574 5.394 L-9.6543 5.394 ZM-0.6831 4.3003 L-0.6831 5.394 L-6.8394 5.394 Q-6.855 4.9878 -6.6987 4.5972 Q-6.4644 3.9722 -5.9487 3.3628 Q-5.4331 2.7534 -4.4487 1.9565 Q-2.9331 0.7065 -2.4019 -0.02 Q-1.8706 -0.7466 -1.8706 -1.3872 Q-1.8706 -2.0747 -2.355 -2.5356 Q-2.8394 -2.9966 -3.6206 -2.9966 Q-4.4487 -2.9966 -4.9409 -2.5044 Q-5.4331 -2.0122 -5.4487 -1.1372 L-6.6206 -1.2622 Q-6.4956 -2.5747 -5.7144 -3.2622 Q-4.9331 -3.9497 -3.605 -3.9497 Q-2.2612 -3.9497 -1.48 -3.2075 Q-0.6987 -2.4653 -0.6987 -1.3716 Q-0.6987 -0.8091 -0.9253 -0.27 Q-1.1519 0.269 -1.6831 0.8706 Q-2.2144 1.4722 -3.4487 2.5034 Q-4.48 3.3628 -4.769 3.6753 Q-5.0581 3.9878 -5.2456 4.3003 L-0.6831 4.3003 Z"
         id="path211" />
    </g>
    <g
       transform="translate(94.6667,90)"
       style="font-size:13px; fill:rgb(38,38,38); text-rendering:geometricPrecision; color-rendering:optimizeQuality; image-rendering:optimizeQuality; font-family:'SansSerif'; color-interpolation:linearRGB; stroke:rgb(38,38,38);"
       id="g213">
      <path
         style="stroke:none;"
         d="M-13.228 5.394 L-14.3687 5.394 L-14.3687 -1.8872 Q-14.7905 -1.4966 -15.4546 -1.0981 Q-16.1187 -0.6997 -16.6499 -0.5122 L-16.6499 -1.6216 Q-15.6968 -2.0591 -14.978 -2.6997 Q-14.2593 -3.3403 -13.9624 -3.9497 L-13.228 -3.9497 L-13.228 5.394 ZM-9.6543 5.394 L-9.6543 4.0972 L-8.3574 4.0972 L-8.3574 5.394 L-9.6543 5.394 ZM-6.6831 2.9409 L-5.5425 2.7847 Q-5.3394 3.7534 -4.8706 4.1831 Q-4.4019 4.6128 -3.7144 4.6128 Q-2.9175 4.6128 -2.3628 4.0581 Q-1.8081 3.5034 -1.8081 2.6753 Q-1.8081 1.8784 -2.3159 1.3706 Q-2.8237 0.8628 -3.6206 0.8628 Q-3.9487 0.8628 -4.4331 0.9878 L-4.3081 -0.0122 Q-4.1831 0.0034 -4.1206 0.0034 Q-3.3862 0.0034 -2.8003 -0.3794 Q-2.2144 -0.7622 -2.2144 -1.5591 Q-2.2144 -2.1841 -2.644 -2.5981 Q-3.0737 -3.0122 -3.7456 -3.0122 Q-4.4175 -3.0122 -4.855 -2.5903 Q-5.2925 -2.1685 -5.4331 -1.3403 L-6.5737 -1.5435 Q-6.355 -2.6841 -5.6128 -3.3169 Q-4.8706 -3.9497 -3.7769 -3.9497 Q-3.0112 -3.9497 -2.3706 -3.6216 Q-1.73 -3.2935 -1.3862 -2.731 Q-1.0425 -2.1685 -1.0425 -1.5278 Q-1.0425 -0.9341 -1.3706 -0.4341 Q-1.6987 0.0659 -2.3237 0.3472 Q-1.5112 0.5503 -1.0503 1.144 Q-0.5894 1.7378 -0.5894 2.644 Q-0.5894 3.8628 -1.48 4.7144 Q-2.3706 5.5659 -3.73 5.5659 Q-4.9487 5.5659 -5.7612 4.8315 Q-6.5737 4.0972 -6.6831 2.9409 Z"
         id="path215" />
    </g>
    <g
       transform="translate(94.6667,43)"
       style="font-size:13px; fill:rgb(38,38,38); text-rendering:geometricPrecision; color-rendering:optimizeQuality; image-rendering:optimizeQuality; font-family:'SansSerif'; color-interpolation:linearRGB; stroke:rgb(38,38,38);"
       id="g217">
      <path
         style="stroke:none;"
         d="M-13.228 5.394 L-14.3687 5.394 L-14.3687 -1.8872 Q-14.7905 -1.4966 -15.4546 -1.0981 Q-16.1187 -0.6997 -16.6499 -0.5122 L-16.6499 -1.6216 Q-15.6968 -2.0591 -14.978 -2.6997 Q-14.2593 -3.3403 -13.9624 -3.9497 L-13.228 -3.9497 L-13.228 5.394 ZM-9.6543 5.394 L-9.6543 4.0972 L-8.3574 4.0972 L-8.3574 5.394 L-9.6543 5.394 ZM-3.0269 5.394 L-3.0269 3.1597 L-7.0581 3.1597 L-7.0581 2.1128 L-2.8237 -3.9185 L-1.8862 -3.9185 L-1.8862 2.1128 L-0.6206 2.1128 L-0.6206 3.1597 L-1.8862 3.1597 L-1.8862 5.394 L-3.0269 5.394 ZM-3.0269 2.1128 L-3.0269 -2.0747 L-5.9487 2.1128 L-3.0269 2.1128 Z"
         id="path219" />
    </g>
    <g
       style="fill:rgb(0,114,189); text-rendering:geometricPrecision; color-rendering:optimizeQuality; image-rendering:optimizeQuality; color-interpolation:linearRGB; stroke:rgb(0,114,189); stroke-width:2.6667;"
       id="g221">
      <path
         d="M100 130.6304 L107.4375 134.9497 L114.875 139.3656 L122.3125 143.8756 L129.75 148.4769 L137.1875 153.1665 L144.625 157.9409 L152.0625 162.7962 L159.5 167.7283 L166.9375 172.7328 L174.375 177.8049 L181.8125 182.9394 L189.25 188.1311 L196.6875 193.3742 L204.125 198.6629 L211.5625 203.9911 L219 209.3526 L226.4375 214.7408 L233.875 220.1493 L241.3125 225.5712 L248.75 231 L256.1875 236.4288 L263.625 241.8507 L271.0625 247.2592 L278.5 252.6474 L285.9375 258.0089 L293.375 263.3371 L300.8125 268.6258 L308.25 273.869 L315.6875 279.0606 L323.125 284.1951 L330.5625 289.2672 L338 294.2717 L345.4375 299.2038 L352.875 304.0591 L360.3125 308.8335 L367.75 313.523 L375.1875 318.1244 L382.625 322.6344 L390.0625 327.0502 L397.5 331.3696 L404.9375 335.5902 L412.375 339.7105 L419.8125 343.729 L427.25 347.6445 L434.6875 351.4563 L442.125 355.1639 L449.5625 358.767 L457 362.2657 L464.4375 365.6602 L471.875 368.9512 L479.3125 372.1393 L486.75 375.2255 L494.1875 378.2109 L501.625 381.0969 L509.0625 383.8848 L516.5 386.5764 L523.9375 389.1732 L531.375 391.6772 L538.8125 394.0903 L546.25 396.4145 L553.6875 398.6518 L561.125 400.8045 L568.5625 402.8746 L576 404.8644 L583.4375 406.7762 L590.875 408.6122 L598.3125 410.3746 L605.75 412.0657 L613.1875 413.6877 L620.625 415.243 L628.0625 416.7337 L635.5 418.162 L642.9375 419.5301 L650.375 420.8401 L657.8125 422.094 L665.25 423.294 L672.6875 424.442 L680.125 425.5401 L687.5625 426.59 L695 427.5937"
         style="fill:none; fill-rule:evenodd;"
         id="path223" />
      <path
         d="M100 157.8869 L107.4375 159.6311 L114.875 161.4301 L122.3125 163.2845 L129.75 165.1941 L137.1875 167.159 L144.625 169.1793 L152.0625 171.2545 L159.5 173.3842 L166.9375 175.5679 L174.375 177.8049 L181.8125 180.0941 L189.25 182.4344 L196.6875 184.8247 L204.125 187.2634 L211.5625 189.7488 L219 192.2792 L226.4375 194.8525 L233.875 197.4665 L241.3125 200.1189 L248.75 202.807 L256.1875 205.5282 L263.625 208.2798 L271.0625 211.0586 L278.5 213.8616 L285.9375 216.6855 L293.375 219.527 L300.8125 222.3828 L308.25 225.2492 L315.6875 228.1228 L323.125 231 L330.5625 233.8772 L338 236.7508 L345.4375 239.6172 L352.875 242.473 L360.3125 245.3145 L367.75 248.1384 L375.1875 250.9414 L382.625 253.7202 L390.0625 256.4717 L397.5 259.193 L404.9375 261.8812 L412.375 264.5335 L419.8125 267.1475 L427.25 269.7208 L434.6875 272.2512 L442.125 274.7366 L449.5625 277.1753 L457 279.5656 L464.4375 281.9059 L471.875 284.1951 L479.3125 286.4321 L486.75 288.6158 L494.1875 290.7455 L501.625 292.8207 L509.0625 294.841 L516.5 296.8059 L523.9375 298.7156 L531.375 300.5698 L538.8125 302.3689 L546.25 304.1131 L553.6875 305.8028 L561.125 307.4384 L568.5625 309.0207 L576 310.5502 L583.4375 312.0278 L590.875 313.4543 L598.3125 314.8306 L605.75 316.1577 L613.1875 317.4367 L620.625 318.6685 L628.0625 319.8542 L635.5 320.9951 L642.9375 322.0923 L650.375 323.1469 L657.8125 324.1601 L665.25 325.1331 L672.6875 326.0672 L680.125 326.9634 L687.5625 327.8232 L695 328.6474"
         style="fill:none; fill-rule:evenodd; stroke:rgb(217,83,25);"
         id="path225" />
      <path
         d="M100 231 L107.4375 231 L114.875 231 L122.3125 231 L129.75 231 L137.1875 231 L144.625 231 L152.0625 231 L159.5 231 L166.9375 231 L174.375 231 L181.8125 231 L189.25 231 L196.6875 231 L204.125 231 L211.5625 231 L219 231 L226.4375 231 L233.875 231 L241.3125 231 L248.75 231 L256.1875 231 L263.625 231 L271.0625 231 L278.5 231 L285.9375 231 L293.375 231 L300.8125 231 L308.25 231 L315.6875 231 L323.125 231 L330.5625 231 L338 231 L345.4375 231 L352.875 231 L360.3125 231 L367.75 231 L375.1875 231 L382.625 231 L390.0625 231 L397.5 231 L404.9375 231 L412.375 231 L419.8125 231 L427.25 231 L434.6875 231 L442.125 231 L449.5625 231 L457 231 L464.4375 231 L471.875 231 L479.3125 231 L486.75 231 L494.1875 231 L501.625 231 L509.0625 231 L516.5 231 L523.9375 231 L531.375 231 L538.8125 231 L546.25 231 L553.6875 231 L561.125 231 L568.5625 231 L576 231 L583.4375 231 L590.875 231 L598.3125 231 L605.75 231 L613.1875 231 L620.625 231 L628.0625 231 L635.5 231 L642.9375 231 L650.375 231 L657.8125 231 L665.25 231 L672.6875 231 L680.125 231 L687.5625 231 L695 231"
         style="fill:none; fill-rule:evenodd; stroke:rgb(237,177,32);"
         id="path227" />
      <path
         d="M100 328.6474 L107.4375 327.8232 L114.875 326.9634 L122.3125 326.0672 L129.75 325.1331 L137.1875 324.1601 L144.625 323.1469 L152.0625 322.0923 L159.5 320.9951 L166.9375 319.8542 L174.375 318.6685 L181.8125 317.4367 L189.25 316.1577 L196.6875 314.8306 L204.125 313.4543 L211.5625 312.0278 L219 310.5502 L226.4375 309.0207 L233.875 307.4384 L241.3125 305.8028 L248.75 304.1131 L256.1875 302.3689 L263.625 300.5698 L271.0625 298.7156 L278.5 296.8059 L285.9375 294.841 L293.375 292.8207 L300.8125 290.7455 L308.25 288.6158 L315.6875 286.4321 L323.125 284.1951 L330.5625 281.9059 L338 279.5656 L345.4375 277.1753 L352.875 274.7366 L360.3125 272.2512 L367.75 269.7208 L375.1875 267.1475 L382.625 264.5335 L390.0625 261.8812 L397.5 259.193 L404.9375 256.4717 L412.375 253.7202 L419.8125 250.9414 L427.25 248.1384 L434.6875 245.3145 L442.125 242.473 L449.5625 239.6172 L457 236.7508 L464.4375 233.8772 L471.875 231 L479.3125 228.1228 L486.75 225.2492 L494.1875 222.3828 L501.625 219.527 L509.0625 216.6855 L516.5 213.8616 L523.9375 211.0586 L531.375 208.2798 L538.8125 205.5282 L546.25 202.807 L553.6875 200.1189 L561.125 197.4665 L568.5625 194.8525 L576 192.2792 L583.4375 189.7488 L590.875 187.2634 L598.3125 184.8247 L605.75 182.4344 L613.1875 180.0941 L620.625 177.8049 L628.0625 175.5679 L635.5 173.3842 L642.9375 171.2545 L650.375 169.1793 L657.8125 167.159 L665.25 165.1941 L672.6875 163.2845 L680.125 161.4301 L687.5625 159.6311 L695 157.8869"
         style="fill:none; fill-rule:evenodd; stroke:rgb(126,47,142);"
         id="path229" />
      <path
         d="M100 427.5937 L107.4375 426.59 L114.875 425.5401 L122.3125 424.442 L129.75 423.294 L137.1875 422.094 L144.625 420.8401 L152.0625 419.5301 L159.5 418.162 L166.9375 416.7337 L174.375 415.243 L181.8125 413.6877 L189.25 412.0657 L196.6875 410.3746 L204.125 408.6122 L211.5625 406.7762 L219 404.8644 L226.4375 402.8746 L233.875 400.8045 L241.3125 398.6518 L248.75 396.4145 L256.1875 394.0903 L263.625 391.6772 L271.0625 389.1732 L278.5 386.5764 L285.9375 383.8848 L293.375 381.0969 L300.8125 378.2109 L308.25 375.2255 L315.6875 372.1393 L323.125 368.9512 L330.5625 365.6602 L338 362.2657 L345.4375 358.767 L352.875 355.1639 L360.3125 351.4563 L367.75 347.6445 L375.1875 343.729 L382.625 339.7105 L390.0625 335.5902 L397.5 331.3696 L404.9375 327.0502 L412.375 322.6344 L419.8125 318.1244 L427.25 313.523 L434.6875 308.8335 L442.125 304.0591 L449.5625 299.2038 L457 294.2717 L464.4375 289.2672 L471.875 284.1951 L479.3125 279.0606 L486.75 273.869 L494.1875 268.6258 L501.625 263.3371 L509.0625 258.0089 L516.5 252.6474 L523.9375 247.2592 L531.375 241.8507 L538.8125 236.4288 L546.25 231 L553.6875 225.5712 L561.125 220.1493 L568.5625 214.7408 L576 209.3526 L583.4375 203.9911 L590.875 198.6629 L598.3125 193.3742 L605.75 188.1311 L613.1875 182.9394 L620.625 177.8049 L628.0625 172.7328 L635.5 167.7283 L642.9375 162.7962 L650.375 157.9409 L657.8125 153.1665 L665.25 148.4769 L672.6875 143.8756 L680.125 139.3656 L687.5625 134.9497 L695 130.6304"
         style="fill:none; fill-rule:evenodd; stroke:rgb(119,172,48);"
         id="path231" />
    </g>
    <g
       style="fill:white; text-rendering:optimizeSpeed; color-rendering:optimizeSpeed; image-rendering:optimizeSpeed; shape-rendering:crispEdges; color-interpolation:sRGB; stroke:white;"
       id="g233">
      <path
         style="stroke:none;"
         d="M342 224 L342 56 L453 56 L453 224 Z"
         id="path235" />
    </g>
    <g
       transform="translate(393,85)"
       style="font-size:27px; text-rendering:geometricPrecision; color-rendering:optimizeQuality; image-rendering:optimizeQuality; font-family:'mwb_cmmi10'; color-interpolation:linearRGB;"
       id="g237">
      <path
         style="stroke:none;"
         d="M1.4375 -0.4688 Q1.4375 -0.625 1.4688 -0.7031 L4.0469 -11.0781 Q4.1562 -11.4531 4.4688 -11.6953 Q4.7812 -11.9375 5.1875 -11.9375 Q5.5312 -11.9375 5.7656 -11.7266 Q6 -11.5156 6 -11.1875 Q6 -11.0938 5.9922 -11.0547 Q5.9844 -11.0156 5.9688 -10.9531 L5 -7.0469 Q6.0781 -7.4062 7.8672 -8.9062 Q9.6562 -10.4062 10.5781 -11.0234 Q11.5 -11.6406 12.8281 -11.6406 Q13.2656 -11.6406 13.5625 -11.3672 Q13.8594 -11.0938 13.8594 -10.6406 Q13.8594 -10 13.4062 -9.5625 Q12.9531 -9.125 12.3125 -9.125 Q11.875 -9.125 11.5781 -9.4062 Q11.2812 -9.6875 11.2812 -10.125 Q11.2812 -10.4219 11.3906 -10.6406 Q10.75 -10.375 10.0703 -9.8984 Q9.3906 -9.4219 8.8359 -8.9453 Q8.2812 -8.4688 7.5 -7.8203 Q6.7188 -7.1719 6.1094 -6.8281 Q7.2188 -6.8281 8.375 -6.5938 Q9.5312 -6.3594 10.3828 -5.7266 Q11.2344 -5.0938 11.2344 -4 Q11.2344 -3.5625 11.125 -3.25 Q10.875 -2.1562 10.875 -1.625 Q10.875 -0.4062 11.7188 -0.4062 Q12.6875 -0.4062 13.2031 -1.4766 Q13.7188 -2.5469 14.0469 -3.9688 Q14.0938 -4.125 14.25 -4.125 L14.5781 -4.125 Q14.6875 -4.125 14.75 -4.0547 Q14.8125 -3.9844 14.8125 -3.8906 Q14.8125 -3.8594 14.7969 -3.8125 Q13.7969 0.2969 11.6719 0.2969 Q10.9062 0.2969 10.3203 -0.0547 Q9.7344 -0.4062 9.4141 -1.0234 Q9.0938 -1.6406 9.0938 -2.4062 Q9.0938 -2.8906 9.2031 -3.2969 Q9.2969 -3.6719 9.2969 -3.9219 Q9.2969 -4.7812 8.5234 -5.2812 Q7.75 -5.7812 6.7031 -5.9688 Q5.6562 -6.1562 4.75 -6.1562 L3.375 -0.5938 Q3.2812 -0.2188 2.9609 0.0391 Q2.6406 0.2969 2.2344 0.2969 Q1.9062 0.2969 1.6719 0.0859 Q1.4375 -0.125 1.4375 -0.4688 Z"
         id="path239" />
    </g>
    <g
       transform="translate(409,85)"
       style="font-size:27px; text-rendering:geometricPrecision; color-rendering:optimizeQuality; image-rendering:optimizeQuality; font-family:'SansSerif'; color-interpolation:linearRGB;"
       id="g241">
      <path
         style="stroke:none;"
         d="M14.2656 -11.3594 L1.5 -11.3594 L1.5 -13.5781 L14.2656 -13.5781 L14.2656 -11.3594 ZM14.2656 -5.5 L1.5 -5.5 L1.5 -7.7188 L14.2656 -7.7188 L14.2656 -5.5 ZM16.627 -5.7969 L16.627 -8.1875 L23.9082 -8.1875 L23.9082 -5.7969 L16.627 -5.7969 ZM38.3525 -2.2812 L38.3525 0 L25.5713 0 Q25.5557 -0.8594 25.8525 -1.6406 Q26.3369 -2.9531 27.415 -4.2188 Q28.4932 -5.4844 30.5244 -7.1406 Q33.665 -9.7344 34.7744 -11.2422 Q35.8838 -12.75 35.8838 -14.0938 Q35.8838 -15.5 34.876 -16.4688 Q33.8682 -17.4375 32.2432 -17.4375 Q30.54 -17.4375 29.5088 -16.4141 Q28.4775 -15.3906 28.4619 -13.5625 L26.0244 -13.8125 Q26.2744 -16.5469 27.9072 -17.9766 Q29.54 -19.4062 32.3057 -19.4062 Q35.0869 -19.4062 36.7041 -17.8672 Q38.3213 -16.3281 38.3213 -14.0469 Q38.3213 -12.875 37.8447 -11.7578 Q37.3682 -10.6406 36.2744 -9.3984 Q35.1807 -8.1562 32.6182 -6 Q30.4775 -4.2031 29.876 -3.5625 Q29.2744 -2.9219 28.8682 -2.2812 L38.3525 -2.2812 Z"
         id="path243" />
    </g>
    <g
       style="fill:rgb(0,114,189); text-rendering:geometricPrecision; color-rendering:optimizeQuality; image-rendering:optimizeQuality; color-interpolation:linearRGB; stroke:rgb(0,114,189); stroke-width:2.6667;"
       id="g245">
      <line
         y2="74.6667"
         style="fill:none;"
         x1="349.9286"
         x2="389.5714"
         y1="74.6667"
         id="line247" />
    </g>
    <g
       transform="translate(393,118)"
       style="font-size:27px; text-rendering:geometricPrecision; color-rendering:optimizeQuality; image-rendering:optimizeQuality; font-family:'mwb_cmmi10'; color-interpolation:linearRGB;"
       id="g249">
      <path
         style="stroke:none;"
         d="M1.4375 -0.4688 Q1.4375 -0.625 1.4688 -0.7031 L4.0469 -11.0781 Q4.1562 -11.4531 4.4688 -11.6953 Q4.7812 -11.9375 5.1875 -11.9375 Q5.5312 -11.9375 5.7656 -11.7266 Q6 -11.5156 6 -11.1875 Q6 -11.0938 5.9922 -11.0547 Q5.9844 -11.0156 5.9688 -10.9531 L5 -7.0469 Q6.0781 -7.4062 7.8672 -8.9062 Q9.6562 -10.4062 10.5781 -11.0234 Q11.5 -11.6406 12.8281 -11.6406 Q13.2656 -11.6406 13.5625 -11.3672 Q13.8594 -11.0938 13.8594 -10.6406 Q13.8594 -10 13.4062 -9.5625 Q12.9531 -9.125 12.3125 -9.125 Q11.875 -9.125 11.5781 -9.4062 Q11.2812 -9.6875 11.2812 -10.125 Q11.2812 -10.4219 11.3906 -10.6406 Q10.75 -10.375 10.0703 -9.8984 Q9.3906 -9.4219 8.8359 -8.9453 Q8.2812 -8.4688 7.5 -7.8203 Q6.7188 -7.1719 6.1094 -6.8281 Q7.2188 -6.8281 8.375 -6.5938 Q9.5312 -6.3594 10.3828 -5.7266 Q11.2344 -5.0938 11.2344 -4 Q11.2344 -3.5625 11.125 -3.25 Q10.875 -2.1562 10.875 -1.625 Q10.875 -0.4062 11.7188 -0.4062 Q12.6875 -0.4062 13.2031 -1.4766 Q13.7188 -2.5469 14.0469 -3.9688 Q14.0938 -4.125 14.25 -4.125 L14.5781 -4.125 Q14.6875 -4.125 14.75 -4.0547 Q14.8125 -3.9844 14.8125 -3.8906 Q14.8125 -3.8594 14.7969 -3.8125 Q13.7969 0.2969 11.6719 0.2969 Q10.9062 0.2969 10.3203 -0.0547 Q9.7344 -0.4062 9.4141 -1.0234 Q9.0938 -1.6406 9.0938 -2.4062 Q9.0938 -2.8906 9.2031 -3.2969 Q9.2969 -3.6719 9.2969 -3.9219 Q9.2969 -4.7812 8.5234 -5.2812 Q7.75 -5.7812 6.7031 -5.9688 Q5.6562 -6.1562 4.75 -6.1562 L3.375 -0.5938 Q3.2812 -0.2188 2.9609 0.0391 Q2.6406 0.2969 2.2344 0.2969 Q1.9062 0.2969 1.6719 0.0859 Q1.4375 -0.125 1.4375 -0.4688 Z"
         id="path251" />
    </g>
    <g
       transform="translate(409,118)"
       style="font-size:27px; text-rendering:geometricPrecision; color-rendering:optimizeQuality; image-rendering:optimizeQuality; font-family:'SansSerif'; color-interpolation:linearRGB;"
       id="g253">
      <path
         style="stroke:none;"
         d="M14.2656 -11.3594 L1.5 -11.3594 L1.5 -13.5781 L14.2656 -13.5781 L14.2656 -11.3594 ZM14.2656 -5.5 L1.5 -5.5 L1.5 -7.7188 L14.2656 -7.7188 L14.2656 -5.5 ZM16.627 -5.7969 L16.627 -8.1875 L23.9082 -8.1875 L23.9082 -5.7969 L16.627 -5.7969 ZM34.8213 0 L32.4463 0 L32.4463 -15.125 Q31.5869 -14.2969 30.1963 -13.4844 Q28.8057 -12.6719 27.6963 -12.2656 L27.6963 -14.5625 Q29.6963 -15.4844 31.1807 -16.8203 Q32.665 -18.1562 33.29 -19.4062 L34.8213 -19.4062 L34.8213 0 Z"
         id="path255" />
    </g>
    <g
       style="fill:rgb(217,83,25); text-rendering:geometricPrecision; color-rendering:optimizeQuality; image-rendering:optimizeQuality; color-interpolation:linearRGB; stroke:rgb(217,83,25); stroke-width:2.6667;"
       id="g257">
      <line
         y2="107.3333"
         style="fill:none;"
         x1="349.9286"
         x2="389.5714"
         y1="107.3333"
         id="line259" />
    </g>
    <g
       transform="translate(393,151)"
       style="font-size:27px; text-rendering:geometricPrecision; color-rendering:optimizeQuality; image-rendering:optimizeQuality; font-family:'mwb_cmmi10'; color-interpolation:linearRGB;"
       id="g261">
      <path
         style="stroke:none;"
         d="M1.4375 -0.4688 Q1.4375 -0.625 1.4688 -0.7031 L4.0469 -11.0781 Q4.1562 -11.4531 4.4688 -11.6953 Q4.7812 -11.9375 5.1875 -11.9375 Q5.5312 -11.9375 5.7656 -11.7266 Q6 -11.5156 6 -11.1875 Q6 -11.0938 5.9922 -11.0547 Q5.9844 -11.0156 5.9688 -10.9531 L5 -7.0469 Q6.0781 -7.4062 7.8672 -8.9062 Q9.6562 -10.4062 10.5781 -11.0234 Q11.5 -11.6406 12.8281 -11.6406 Q13.2656 -11.6406 13.5625 -11.3672 Q13.8594 -11.0938 13.8594 -10.6406 Q13.8594 -10 13.4062 -9.5625 Q12.9531 -9.125 12.3125 -9.125 Q11.875 -9.125 11.5781 -9.4062 Q11.2812 -9.6875 11.2812 -10.125 Q11.2812 -10.4219 11.3906 -10.6406 Q10.75 -10.375 10.0703 -9.8984 Q9.3906 -9.4219 8.8359 -8.9453 Q8.2812 -8.4688 7.5 -7.8203 Q6.7188 -7.1719 6.1094 -6.8281 Q7.2188 -6.8281 8.375 -6.5938 Q9.5312 -6.3594 10.3828 -5.7266 Q11.2344 -5.0938 11.2344 -4 Q11.2344 -3.5625 11.125 -3.25 Q10.875 -2.1562 10.875 -1.625 Q10.875 -0.4062 11.7188 -0.4062 Q12.6875 -0.4062 13.2031 -1.4766 Q13.7188 -2.5469 14.0469 -3.9688 Q14.0938 -4.125 14.25 -4.125 L14.5781 -4.125 Q14.6875 -4.125 14.75 -4.0547 Q14.8125 -3.9844 14.8125 -3.8906 Q14.8125 -3.8594 14.7969 -3.8125 Q13.7969 0.2969 11.6719 0.2969 Q10.9062 0.2969 10.3203 -0.0547 Q9.7344 -0.4062 9.4141 -1.0234 Q9.0938 -1.6406 9.0938 -2.4062 Q9.0938 -2.8906 9.2031 -3.2969 Q9.2969 -3.6719 9.2969 -3.9219 Q9.2969 -4.7812 8.5234 -5.2812 Q7.75 -5.7812 6.7031 -5.9688 Q5.6562 -6.1562 4.75 -6.1562 L3.375 -0.5938 Q3.2812 -0.2188 2.9609 0.0391 Q2.6406 0.2969 2.2344 0.2969 Q1.9062 0.2969 1.6719 0.0859 Q1.4375 -0.125 1.4375 -0.4688 Z"
         id="path263" />
    </g>
    <g
       transform="translate(409,151)"
       style="font-size:27px; text-rendering:geometricPrecision; color-rendering:optimizeQuality; image-rendering:optimizeQuality; font-family:'SansSerif'; color-interpolation:linearRGB;"
       id="g265">
      <path
         style="stroke:none;"
         d="M14.2656 -11.3594 L1.5 -11.3594 L1.5 -13.5781 L14.2656 -13.5781 L14.2656 -11.3594 ZM14.2656 -5.5 L1.5 -5.5 L1.5 -7.7188 L14.2656 -7.7188 L14.2656 -5.5 ZM16.8926 -9.5312 Q16.8926 -12.9531 17.5957 -15.0469 Q18.2988 -17.1406 19.6895 -18.2734 Q21.0801 -19.4062 23.1895 -19.4062 Q24.752 -19.4062 25.9238 -18.7812 Q27.0957 -18.1562 27.8613 -16.9766 Q28.627 -15.7969 29.0566 -14.1016 Q29.4863 -12.4062 29.4863 -9.5312 Q29.4863 -6.125 28.791 -4.0391 Q28.0957 -1.9531 26.7051 -0.8125 Q25.3145 0.3281 23.1895 0.3281 Q20.3926 0.3281 18.7988 -1.6719 Q16.8926 -4.0938 16.8926 -9.5312 ZM19.3301 -9.5312 Q19.3301 -4.7656 20.4395 -3.1953 Q21.5488 -1.625 23.1895 -1.625 Q24.8301 -1.625 25.9395 -3.2031 Q27.0488 -4.7812 27.0488 -9.5312 Q27.0488 -14.2969 25.9395 -15.8672 Q24.8301 -17.4375 23.1582 -17.4375 Q21.5332 -17.4375 20.5488 -16.0625 Q19.3301 -14.2969 19.3301 -9.5312 Z"
         id="path267" />
    </g>
    <g
       style="fill:rgb(237,177,32); text-rendering:geometricPrecision; color-rendering:optimizeQuality; image-rendering:optimizeQuality; color-interpolation:linearRGB; stroke:rgb(237,177,32); stroke-width:2.6667;"
       id="g269">
      <line
         y2="140"
         style="fill:none;"
         x1="349.9286"
         x2="389.5714"
         y1="140"
         id="line271" />
    </g>
    <g
       transform="translate(393,183)"
       style="font-size:27px; text-rendering:geometricPrecision; color-rendering:optimizeQuality; image-rendering:optimizeQuality; font-family:'mwb_cmmi10'; color-interpolation:linearRGB;"
       id="g273">
      <path
         style="stroke:none;"
         d="M1.4375 -0.4688 Q1.4375 -0.625 1.4688 -0.7031 L4.0469 -11.0781 Q4.1562 -11.4531 4.4688 -11.6953 Q4.7812 -11.9375 5.1875 -11.9375 Q5.5312 -11.9375 5.7656 -11.7266 Q6 -11.5156 6 -11.1875 Q6 -11.0938 5.9922 -11.0547 Q5.9844 -11.0156 5.9688 -10.9531 L5 -7.0469 Q6.0781 -7.4062 7.8672 -8.9062 Q9.6562 -10.4062 10.5781 -11.0234 Q11.5 -11.6406 12.8281 -11.6406 Q13.2656 -11.6406 13.5625 -11.3672 Q13.8594 -11.0938 13.8594 -10.6406 Q13.8594 -10 13.4062 -9.5625 Q12.9531 -9.125 12.3125 -9.125 Q11.875 -9.125 11.5781 -9.4062 Q11.2812 -9.6875 11.2812 -10.125 Q11.2812 -10.4219 11.3906 -10.6406 Q10.75 -10.375 10.0703 -9.8984 Q9.3906 -9.4219 8.8359 -8.9453 Q8.2812 -8.4688 7.5 -7.8203 Q6.7188 -7.1719 6.1094 -6.8281 Q7.2188 -6.8281 8.375 -6.5938 Q9.5312 -6.3594 10.3828 -5.7266 Q11.2344 -5.0938 11.2344 -4 Q11.2344 -3.5625 11.125 -3.25 Q10.875 -2.1562 10.875 -1.625 Q10.875 -0.4062 11.7188 -0.4062 Q12.6875 -0.4062 13.2031 -1.4766 Q13.7188 -2.5469 14.0469 -3.9688 Q14.0938 -4.125 14.25 -4.125 L14.5781 -4.125 Q14.6875 -4.125 14.75 -4.0547 Q14.8125 -3.9844 14.8125 -3.8906 Q14.8125 -3.8594 14.7969 -3.8125 Q13.7969 0.2969 11.6719 0.2969 Q10.9062 0.2969 10.3203 -0.0547 Q9.7344 -0.4062 9.4141 -1.0234 Q9.0938 -1.6406 9.0938 -2.4062 Q9.0938 -2.8906 9.2031 -3.2969 Q9.2969 -3.6719 9.2969 -3.9219 Q9.2969 -4.7812 8.5234 -5.2812 Q7.75 -5.7812 6.7031 -5.9688 Q5.6562 -6.1562 4.75 -6.1562 L3.375 -0.5938 Q3.2812 -0.2188 2.9609 0.0391 Q2.6406 0.2969 2.2344 0.2969 Q1.9062 0.2969 1.6719 0.0859 Q1.4375 -0.125 1.4375 -0.4688 Z"
         id="path275" />
    </g>
    <g
       transform="translate(409,183)"
       style="font-size:27px; text-rendering:geometricPrecision; color-rendering:optimizeQuality; image-rendering:optimizeQuality; font-family:'SansSerif'; color-interpolation:linearRGB;"
       id="g277">
      <path
         style="stroke:none;"
         d="M14.2656 -11.3594 L1.5 -11.3594 L1.5 -13.5781 L14.2656 -13.5781 L14.2656 -11.3594 ZM14.2656 -5.5 L1.5 -5.5 L1.5 -7.7188 L14.2656 -7.7188 L14.2656 -5.5 ZM25.8301 0 L23.4551 0 L23.4551 -15.125 Q22.5957 -14.2969 21.2051 -13.4844 Q19.8145 -12.6719 18.7051 -12.2656 L18.7051 -14.5625 Q20.7051 -15.4844 22.1895 -16.8203 Q23.6738 -18.1562 24.2988 -19.4062 L25.8301 -19.4062 L25.8301 0 Z"
         id="path279" />
    </g>
    <g
       style="fill:rgb(126,47,142); text-rendering:geometricPrecision; color-rendering:optimizeQuality; image-rendering:optimizeQuality; color-interpolation:linearRGB; stroke:rgb(126,47,142); stroke-width:2.6667;"
       id="g281">
      <line
         y2="172.6667"
         style="fill:none;"
         x1="349.9286"
         x2="389.5714"
         y1="172.6667"
         id="line283" />
    </g>
    <g
       transform="translate(393,216)"
       style="font-size:27px; text-rendering:geometricPrecision; color-rendering:optimizeQuality; image-rendering:optimizeQuality; font-family:'mwb_cmmi10'; color-interpolation:linearRGB;"
       id="g285">
      <path
         style="stroke:none;"
         d="M1.4375 -0.4688 Q1.4375 -0.625 1.4688 -0.7031 L4.0469 -11.0781 Q4.1562 -11.4531 4.4688 -11.6953 Q4.7812 -11.9375 5.1875 -11.9375 Q5.5312 -11.9375 5.7656 -11.7266 Q6 -11.5156 6 -11.1875 Q6 -11.0938 5.9922 -11.0547 Q5.9844 -11.0156 5.9688 -10.9531 L5 -7.0469 Q6.0781 -7.4062 7.8672 -8.9062 Q9.6562 -10.4062 10.5781 -11.0234 Q11.5 -11.6406 12.8281 -11.6406 Q13.2656 -11.6406 13.5625 -11.3672 Q13.8594 -11.0938 13.8594 -10.6406 Q13.8594 -10 13.4062 -9.5625 Q12.9531 -9.125 12.3125 -9.125 Q11.875 -9.125 11.5781 -9.4062 Q11.2812 -9.6875 11.2812 -10.125 Q11.2812 -10.4219 11.3906 -10.6406 Q10.75 -10.375 10.0703 -9.8984 Q9.3906 -9.4219 8.8359 -8.9453 Q8.2812 -8.4688 7.5 -7.8203 Q6.7188 -7.1719 6.1094 -6.8281 Q7.2188 -6.8281 8.375 -6.5938 Q9.5312 -6.3594 10.3828 -5.7266 Q11.2344 -5.0938 11.2344 -4 Q11.2344 -3.5625 11.125 -3.25 Q10.875 -2.1562 10.875 -1.625 Q10.875 -0.4062 11.7188 -0.4062 Q12.6875 -0.4062 13.2031 -1.4766 Q13.7188 -2.5469 14.0469 -3.9688 Q14.0938 -4.125 14.25 -4.125 L14.5781 -4.125 Q14.6875 -4.125 14.75 -4.0547 Q14.8125 -3.9844 14.8125 -3.8906 Q14.8125 -3.8594 14.7969 -3.8125 Q13.7969 0.2969 11.6719 0.2969 Q10.9062 0.2969 10.3203 -0.0547 Q9.7344 -0.4062 9.4141 -1.0234 Q9.0938 -1.6406 9.0938 -2.4062 Q9.0938 -2.8906 9.2031 -3.2969 Q9.2969 -3.6719 9.2969 -3.9219 Q9.2969 -4.7812 8.5234 -5.2812 Q7.75 -5.7812 6.7031 -5.9688 Q5.6562 -6.1562 4.75 -6.1562 L3.375 -0.5938 Q3.2812 -0.2188 2.9609 0.0391 Q2.6406 0.2969 2.2344 0.2969 Q1.9062 0.2969 1.6719 0.0859 Q1.4375 -0.125 1.4375 -0.4688 Z"
         id="path287" />
    </g>
    <g
       transform="translate(409,216)"
       style="font-size:27px; text-rendering:geometricPrecision; color-rendering:optimizeQuality; image-rendering:optimizeQuality; font-family:'SansSerif'; color-interpolation:linearRGB;"
       id="g289">
      <path
         style="stroke:none;"
         d="M14.2656 -11.3594 L1.5 -11.3594 L1.5 -13.5781 L14.2656 -13.5781 L14.2656 -11.3594 ZM14.2656 -5.5 L1.5 -5.5 L1.5 -7.7188 L14.2656 -7.7188 L14.2656 -5.5 ZM29.3613 -2.2812 L29.3613 0 L16.5801 0 Q16.5645 -0.8594 16.8613 -1.6406 Q17.3457 -2.9531 18.4238 -4.2188 Q19.502 -5.4844 21.5332 -7.1406 Q24.6738 -9.7344 25.7832 -11.2422 Q26.8926 -12.75 26.8926 -14.0938 Q26.8926 -15.5 25.8848 -16.4688 Q24.877 -17.4375 23.252 -17.4375 Q21.5488 -17.4375 20.5176 -16.4141 Q19.4863 -15.3906 19.4707 -13.5625 L17.0332 -13.8125 Q17.2832 -16.5469 18.916 -17.9766 Q20.5488 -19.4062 23.3145 -19.4062 Q26.0957 -19.4062 27.7129 -17.8672 Q29.3301 -16.3281 29.3301 -14.0469 Q29.3301 -12.875 28.8535 -11.7578 Q28.377 -10.6406 27.2832 -9.3984 Q26.1895 -8.1562 23.627 -6 Q21.4863 -4.2031 20.8848 -3.5625 Q20.2832 -2.9219 19.877 -2.2812 L29.3613 -2.2812 Z"
         id="path291" />
    </g>
    <g
       style="fill:rgb(119,172,48); text-rendering:geometricPrecision; color-rendering:optimizeQuality; image-rendering:optimizeQuality; color-interpolation:linearRGB; stroke:rgb(119,172,48); stroke-width:2.6667;"
       id="g293">
      <line
         y2="205.3333"
         style="fill:none;"
         x1="349.9286"
         x2="389.5714"
         y1="205.3333"
         id="line295" />
      <path
         d="M342 224 L342 56 L453 56 L453 224 L342 224"
         style="fill:none; stroke-width:1; fill-rule:evenodd; stroke:rgb(38,38,38);"
         id="path297" />
    </g>
  </g>
</svg>
