<?xml version="1.0" encoding="UTF-8" standalone="no"?>
<!-- Created with Inkscape (http://www.inkscape.org/) -->

<svg
   xmlns:dc="http://purl.org/dc/elements/1.1/"
   xmlns:cc="http://creativecommons.org/ns#"
   xmlns:rdf="http://www.w3.org/1999/02/22-rdf-syntax-ns#"
   xmlns:svg="http://www.w3.org/2000/svg"
   xmlns="http://www.w3.org/2000/svg"
   xmlns:sodipodi="http://sodipodi.sourceforge.net/DTD/sodipodi-0.dtd"
   xmlns:inkscape="http://www.inkscape.org/namespaces/inkscape"
   width="316.79831"
   height="110.96747"
   id="svg2"
   version="1.1"
   inkscape:version="0.48.4 r9939"
   sodipodi:docname="serial_anim_02.svg">
  <sodipodi:namedview
     id="base"
     pagecolor="#ffffff"
     bordercolor="#666666"
     borderopacity="1.0"
     inkscape:pageopacity="0.0"
     inkscape:pageshadow="2"
     inkscape:zoom="7.6704953"
     inkscape:cx="155.79885"
     inkscape:cy="55.483735"
     inkscape:document-units="px"
     inkscape:current-layer="layer1"
     showgrid="true"
     inkscape:snap-global="false"
     showguides="true"
     inkscape:guide-bbox="true"
     inkscape:window-width="2560"
     inkscape:window-height="1578"
     inkscape:window-x="-8"
     inkscape:window-y="-8"
     inkscape:window-maximized="1"
     fit-margin-top="0"
     fit-margin-left="0"
     fit-margin-right="0"
     fit-margin-bottom="0">
    <inkscape:grid
       originy="-568.9396px"
       originx="-94.052284px"
       snapvisiblegridlinesonly="true"
       enabled="true"
       visible="true"
       empspacing="5"
       id="grid2985"
       type="xygrid" />
    <sodipodi:guide
       id="guide3093"
       position="286.70194,-24.103452"
       orientation="1,0" />
  </sodipodi:namedview>
  <defs
     id="defs4">
    <marker
       style="overflow:visible"
       id="Arrow2Send"
       refX="0"
       refY="0"
       orient="auto"
       inkscape:stockid="Arrow2Send">
      <path
         transform="matrix(-0.3,0,0,-0.3,0.69,0)"
         d="M 8.7185878,4.0337352 -2.2072895,0.01601326 8.7185884,-4.0017078 c -1.7454984,2.3720609 -1.7354408,5.6174519 -6e-7,8.035443 z"
         style="font-size:12px;fill-rule:evenodd;stroke-width:0.625;stroke-linejoin:round"
         id="path4544"
         inkscape:connector-curvature="0" />
    </marker>
    <marker
       style="overflow:visible"
       id="Arrow2Sstart"
       refX="0"
       refY="0"
       orient="auto"
       inkscape:stockid="Arrow2Sstart">
      <path
         transform="matrix(0.3,0,0,0.3,-0.69,0)"
         d="M 8.7185878,4.0337352 -2.2072895,0.01601326 8.7185884,-4.0017078 c -1.7454984,2.3720609 -1.7354408,5.6174519 -6e-7,8.035443 z"
         style="font-size:12px;fill-rule:evenodd;stroke-width:0.625;stroke-linejoin:round"
         id="path4541"
         inkscape:connector-curvature="0" />
    </marker>
    <marker
       style="overflow:visible"
       id="Arrow2Send-4"
       refX="0"
       refY="0"
       orient="auto"
       inkscape:stockid="Arrow2Send">
      <path
         transform="matrix(-0.3,0,0,-0.3,0.69,0)"
         d="M 8.7185878,4.0337352 -2.2072895,0.01601326 8.7185884,-4.0017078 c -1.7454984,2.3720609 -1.7354408,5.6174519 -6e-7,8.035443 z"
         style="font-size:12px;fill-rule:evenodd;stroke-width:0.625;stroke-linejoin:round"
         id="path4544-5"
         inkscape:connector-curvature="0" />
    </marker>
    <marker
       style="overflow:visible"
       id="Arrow2Send-3"
       refX="0"
       refY="0"
       orient="auto"
       inkscape:stockid="Arrow2Send">
      <path
         transform="matrix(-0.3,0,0,-0.3,0.69,0)"
         d="M 8.7185878,4.0337352 -2.2072895,0.01601326 8.7185884,-4.0017078 c -1.7454984,2.3720609 -1.7354408,5.6174519 -6e-7,8.035443 z"
         style="font-size:12px;fill-rule:evenodd;stroke-width:0.625;stroke-linejoin:round"
         id="path4544-52"
         inkscape:connector-curvature="0" />
    </marker>
    <marker
       style="overflow:visible"
       id="Arrow2Send-9"
       refX="0"
       refY="0"
       orient="auto"
       inkscape:stockid="Arrow2Send">
      <path
         transform="matrix(-0.3,0,0,-0.3,0.69,0)"
         d="M 8.7185878,4.0337352 -2.2072895,0.01601326 8.7185884,-4.0017078 c -1.7454984,2.3720609 -1.7354408,5.6174519 -6e-7,8.035443 z"
         style="font-size:12px;fill-rule:evenodd;stroke-width:0.625;stroke-linejoin:round"
         id="path4544-4"
         inkscape:connector-curvature="0" />
    </marker>
    <marker
       style="overflow:visible"
       id="Arrow2Send-0"
       refX="0"
       refY="0"
       orient="auto"
       inkscape:stockid="Arrow2Send">
      <path
         transform="matrix(-0.3,0,0,-0.3,0.69,0)"
         d="M 8.7185878,4.0337352 -2.2072895,0.01601326 8.7185884,-4.0017078 c -1.7454984,2.3720609 -1.7354408,5.6174519 -6e-7,8.035443 z"
         style="font-size:12px;fill-rule:evenodd;stroke-width:0.625;stroke-linejoin:round"
         id="path4544-59"
         inkscape:connector-curvature="0" />
    </marker>
    <marker
       style="overflow:visible"
       id="Arrow2Send-6"
       refX="0"
       refY="0"
       orient="auto"
       inkscape:stockid="Arrow2Send">
      <path
         transform="matrix(-0.3,0,0,-0.3,0.69,0)"
         d="M 8.7185878,4.0337352 -2.2072895,0.01601326 8.7185884,-4.0017078 c -1.7454984,2.3720609 -1.7354408,5.6174519 -6e-7,8.035443 z"
         style="font-size:12px;fill-rule:evenodd;stroke-width:0.625;stroke-linejoin:round"
         id="path4544-594"
         inkscape:connector-curvature="0" />
    </marker>
    <marker
       style="overflow:visible"
       id="Arrow2Send-43"
       refX="0"
       refY="0"
       orient="auto"
       inkscape:stockid="Arrow2Send">
      <path
         transform="matrix(-0.3,0,0,-0.3,0.69,0)"
         d="M 8.7185878,4.0337352 -2.2072895,0.01601326 8.7185884,-4.0017078 c -1.7454984,2.3720609 -1.7354408,5.6174519 -6e-7,8.035443 z"
         style="font-size:12px;fill-rule:evenodd;stroke-width:0.625;stroke-linejoin:round"
         id="path4544-54"
         inkscape:connector-curvature="0" />
    </marker>
    <marker
       style="overflow:visible"
       id="Arrow2Send-41"
       refX="0"
       refY="0"
       orient="auto"
       inkscape:stockid="Arrow2Send">
      <path
         transform="matrix(-0.3,0,0,-0.3,0.69,0)"
         d="M 8.7185878,4.0337352 -2.2072895,0.01601326 8.7185884,-4.0017078 c -1.7454984,2.3720609 -1.7354408,5.6174519 -6e-7,8.035443 z"
         style="font-size:12px;fill-rule:evenodd;stroke-width:0.625;stroke-linejoin:round"
         id="path4544-6"
         inkscape:connector-curvature="0" />
    </marker>
    <marker
       style="overflow:visible"
       id="Arrow2Send-1"
       refX="0"
       refY="0"
       orient="auto"
       inkscape:stockid="Arrow2Send">
      <path
         transform="matrix(-0.3,0,0,-0.3,0.69,0)"
         d="M 8.7185878,4.0337352 -2.2072895,0.01601326 8.7185884,-4.0017078 c -1.7454984,2.3720609 -1.7354408,5.6174519 -6e-7,8.035443 z"
         style="font-size:12px;fill-rule:evenodd;stroke-width:0.625;stroke-linejoin:round"
         id="path4544-58"
         inkscape:connector-curvature="0" />
    </marker>
    <marker
       style="overflow:visible"
       id="Arrow2Send-01"
       refX="0"
       refY="0"
       orient="auto"
       inkscape:stockid="Arrow2Send">
      <path
         transform="matrix(-0.3,0,0,-0.3,0.69,0)"
         d="M 8.7185878,4.0337352 -2.2072895,0.01601326 8.7185884,-4.0017078 c -1.7454984,2.3720609 -1.7354408,5.6174519 -6e-7,8.035443 z"
         style="font-size:12px;fill-rule:evenodd;stroke-width:0.625;stroke-linejoin:round"
         id="path4544-40"
         inkscape:connector-curvature="0" />
    </marker>
    <marker
       style="overflow:visible"
       id="Arrow2Send-91"
       refX="0"
       refY="0"
       orient="auto"
       inkscape:stockid="Arrow2Send">
      <path
         transform="matrix(-0.3,0,0,-0.3,0.69,0)"
         d="M 8.7185878,4.0337352 -2.2072895,0.01601326 8.7185884,-4.0017078 c -1.7454984,2.3720609 -1.7354408,5.6174519 -6e-7,8.035443 z"
         style="font-size:12px;fill-rule:evenodd;stroke-width:0.625;stroke-linejoin:round"
         id="path4544-7"
         inkscape:connector-curvature="0" />
    </marker>
    <marker
       style="overflow:visible"
       id="Arrow2Send-96"
       refX="0"
       refY="0"
       orient="auto"
       inkscape:stockid="Arrow2Send">
      <path
         transform="matrix(-0.3,0,0,-0.3,0.69,0)"
         d="M 8.7185878,4.0337352 -2.2072895,0.01601326 8.7185884,-4.0017078 c -1.7454984,2.3720609 -1.7354408,5.6174519 -6e-7,8.035443 z"
         style="font-size:12px;fill-rule:evenodd;stroke-width:0.625;stroke-linejoin:round"
         id="path4544-8"
         inkscape:connector-curvature="0" />
    </marker>
    <marker
       style="overflow:visible"
       id="Arrow2Send-30"
       refX="0"
       refY="0"
       orient="auto"
       inkscape:stockid="Arrow2Send">
      <path
         transform="matrix(-0.3,0,0,-0.3,0.69,0)"
         d="M 8.7185878,4.0337352 -2.2072895,0.01601326 8.7185884,-4.0017078 c -1.7454984,2.3720609 -1.7354408,5.6174519 -6e-7,8.035443 z"
         style="font-size:12px;fill-rule:evenodd;stroke-width:0.625;stroke-linejoin:round"
         id="path4544-2"
         inkscape:connector-curvature="0" />
    </marker>
    <marker
       style="overflow:visible"
       id="Arrow2Send-92"
       refX="0"
       refY="0"
       orient="auto"
       inkscape:stockid="Arrow2Send">
      <path
         transform="matrix(-0.3,0,0,-0.3,0.69,0)"
         d="M 8.7185878,4.0337352 -2.2072895,0.01601326 8.7185884,-4.0017078 c -1.7454984,2.3720609 -1.7354408,5.6174519 -6e-7,8.035443 z"
         style="font-size:12px;fill-rule:evenodd;stroke-width:0.625;stroke-linejoin:round"
         id="path4544-24"
         inkscape:connector-curvature="0" />
    </marker>
    <marker
       style="overflow:visible"
       id="Arrow2Send-8"
       refX="0"
       refY="0"
       orient="auto"
       inkscape:stockid="Arrow2Send">
      <path
         transform="matrix(-0.3,0,0,-0.3,0.69,0)"
         d="M 8.7185878,4.0337352 -2.2072895,0.01601326 8.7185884,-4.0017078 c -1.7454984,2.3720609 -1.7354408,5.6174519 -6e-7,8.035443 z"
         style="font-size:12px;fill-rule:evenodd;stroke-width:0.625;stroke-linejoin:round"
         id="path4544-72"
         inkscape:connector-curvature="0" />
    </marker>
    <marker
       style="overflow:visible"
       id="Arrow2Send-34"
       refX="0"
       refY="0"
       orient="auto"
       inkscape:stockid="Arrow2Send">
      <path
         transform="matrix(-0.3,0,0,-0.3,0.69,0)"
         d="M 8.7185878,4.0337352 -2.2072895,0.01601326 8.7185884,-4.0017078 c -1.7454984,2.3720609 -1.7354408,5.6174519 -6e-7,8.035443 z"
         style="font-size:12px;fill-rule:evenodd;stroke-width:0.625;stroke-linejoin:round"
         id="path4544-3"
         inkscape:connector-curvature="0" />
    </marker>
    <marker
       style="overflow:visible"
       id="Arrow2Send-32"
       refX="0"
       refY="0"
       orient="auto"
       inkscape:stockid="Arrow2Send">
      <path
         transform="matrix(-0.3,0,0,-0.3,0.69,0)"
         d="M 8.7185878,4.0337352 -2.2072895,0.01601326 8.7185884,-4.0017078 c -1.7454984,2.3720609 -1.7354408,5.6174519 -6e-7,8.035443 z"
         style="font-size:12px;fill-rule:evenodd;stroke-width:0.625;stroke-linejoin:round"
         id="path4544-76"
         inkscape:connector-curvature="0" />
    </marker>
    <marker
       style="overflow:visible"
       id="Arrow2Send-36"
       refX="0"
       refY="0"
       orient="auto"
       inkscape:stockid="Arrow2Send">
      <path
         transform="matrix(-0.3,0,0,-0.3,0.69,0)"
         d="M 8.7185878,4.0337352 -2.2072895,0.01601326 8.7185884,-4.0017078 c -1.7454984,2.3720609 -1.7354408,5.6174519 -6e-7,8.035443 z"
         style="font-size:12px;fill-rule:evenodd;stroke-width:0.625;stroke-linejoin:round"
         id="path4544-9"
         inkscape:connector-curvature="0" />
    </marker>
    <marker
       style="overflow:visible"
       id="Arrow2Send-33"
       refX="0"
       refY="0"
       orient="auto"
       inkscape:stockid="Arrow2Send">
      <path
         transform="matrix(-0.3,0,0,-0.3,0.69,0)"
         d="M 8.7185878,4.0337352 -2.2072895,0.01601326 8.7185884,-4.0017078 c -1.7454984,2.3720609 -1.7354408,5.6174519 -6e-7,8.035443 z"
         style="font-size:12px;fill-rule:evenodd;stroke-width:0.625;stroke-linejoin:round"
         id="path4544-0"
         inkscape:connector-curvature="0" />
    </marker>
    <marker
       style="overflow:visible"
       id="Arrow2SendM"
       refX="0"
       refY="0"
       orient="auto"
       inkscape:stockid="Arrow2SendM">
      <path
         transform="matrix(-0.3,0,0,-0.3,0.69,0)"
         d="M 8.7185878,4.0337352 -2.2072895,0.01601326 8.7185884,-4.0017078 c -1.7454984,2.3720609 -1.7354408,5.6174519 -6e-7,8.035443 z"
         style="font-size:12px;fill:#aa0000;fill-rule:evenodd;stroke:#aa0000;stroke-width:0.625;stroke-linejoin:round"
         id="path3097"
         inkscape:connector-curvature="0" />
    </marker>
    <marker
       style="overflow:visible"
       id="Arrow2Sendg"
       refX="0"
       refY="0"
       orient="auto"
       inkscape:stockid="Arrow2Sendg">
      <path
         transform="matrix(-0.3,0,0,-0.3,0.69,0)"
         d="M 8.7185878,4.0337352 -2.2072895,0.01601326 8.7185884,-4.0017078 c -1.7454984,2.3720609 -1.7354408,5.6174519 -6e-7,8.035443 z"
         style="font-size:12px;fill:#aa0000;fill-rule:evenodd;stroke:#aa0000;stroke-width:0.625;stroke-linejoin:round"
         id="path3100"
         inkscape:connector-curvature="0" />
    </marker>
    <marker
       style="overflow:visible"
       id="Arrow2Send3"
       refX="0"
       refY="0"
       orient="auto"
       inkscape:stockid="Arrow2Send3">
      <path
         transform="matrix(-0.3,0,0,-0.3,0.69,0)"
         d="M 8.7185878,4.0337352 -2.2072895,0.01601326 8.7185884,-4.0017078 c -1.7454984,2.3720609 -1.7354408,5.6174519 -6e-7,8.035443 z"
         style="font-size:12px;fill:#aa0000;fill-rule:evenodd;stroke:#aa0000;stroke-width:0.625;stroke-linejoin:round"
         id="path3103"
         inkscape:connector-curvature="0" />
    </marker>
    <marker
       style="overflow:visible"
       id="Arrow2Sends"
       refX="0"
       refY="0"
       orient="auto"
       inkscape:stockid="Arrow2Sends">
      <path
         transform="matrix(-0.3,0,0,-0.3,0.69,0)"
         d="M 8.7185878,4.0337352 -2.2072895,0.01601326 8.7185884,-4.0017078 c -1.7454984,2.3720609 -1.7354408,5.6174519 -6e-7,8.035443 z"
         style="font-size:12px;fill:#aa0000;fill-rule:evenodd;stroke:#aa0000;stroke-width:0.625;stroke-linejoin:round"
         id="path3106"
         inkscape:connector-curvature="0" />
    </marker>
    <marker
       style="overflow:visible"
       id="Arrow2Sendz"
       refX="0"
       refY="0"
       orient="auto"
       inkscape:stockid="Arrow2Sendz">
      <path
         transform="matrix(-0.3,0,0,-0.3,0.69,0)"
         d="M 8.7185878,4.0337352 -2.2072895,0.01601326 8.7185884,-4.0017078 c -1.7454984,2.3720609 -1.7354408,5.6174519 -6e-7,8.035443 z"
         style="font-size:12px;fill:#aa0000;fill-rule:evenodd;stroke:#aa0000;stroke-width:0.625;stroke-linejoin:round"
         id="path3109"
         inkscape:connector-curvature="0" />
    </marker>
    <marker
       style="overflow:visible"
       id="Arrow2SendI"
       refX="0"
       refY="0"
       orient="auto"
       inkscape:stockid="Arrow2SendI">
      <path
         transform="matrix(-0.3,0,0,-0.3,0.69,0)"
         d="M 8.7185878,4.0337352 -2.2072895,0.01601326 8.7185884,-4.0017078 c -1.7454984,2.3720609 -1.7354408,5.6174519 -6e-7,8.035443 z"
         style="font-size:12px;fill:#aa0000;fill-rule:evenodd;stroke:#aa0000;stroke-width:0.625;stroke-linejoin:round"
         id="path3112"
         inkscape:connector-curvature="0" />
    </marker>
    <marker
       style="overflow:visible"
       id="Arrow2Send7"
       refX="0"
       refY="0"
       orient="auto"
       inkscape:stockid="Arrow2Send7">
      <path
         transform="matrix(-0.3,0,0,-0.3,0.69,0)"
         d="M 8.7185878,4.0337352 -2.2072895,0.01601326 8.7185884,-4.0017078 c -1.7454984,2.3720609 -1.7354408,5.6174519 -6e-7,8.035443 z"
         style="font-size:12px;fill:#aa0000;fill-rule:evenodd;stroke:#aa0000;stroke-width:0.625;stroke-linejoin:round"
         id="path3115"
         inkscape:connector-curvature="0" />
    </marker>
    <marker
       style="overflow:visible"
       id="Arrow2SendG"
       refX="0"
       refY="0"
       orient="auto"
       inkscape:stockid="Arrow2SendG">
      <path
         transform="matrix(-0.3,0,0,-0.3,0.69,0)"
         d="M 8.7185878,4.0337352 -2.2072895,0.01601326 8.7185884,-4.0017078 c -1.7454984,2.3720609 -1.7354408,5.6174519 -6e-7,8.035443 z"
         style="font-size:12px;fill:#aa0000;fill-rule:evenodd;stroke:#aa0000;stroke-width:0.625;stroke-linejoin:round"
         id="path3118"
         inkscape:connector-curvature="0" />
    </marker>
    <marker
       style="overflow:visible"
       id="Arrow2SendJ"
       refX="0"
       refY="0"
       orient="auto"
       inkscape:stockid="Arrow2SendJ">
      <path
         transform="matrix(-0.3,0,0,-0.3,0.69,0)"
         d="M 8.7185878,4.0337352 -2.2072895,0.01601326 8.7185884,-4.0017078 c -1.7454984,2.3720609 -1.7354408,5.6174519 -6e-7,8.035443 z"
         style="font-size:12px;fill:#aa0000;fill-rule:evenodd;stroke:#aa0000;stroke-width:0.625;stroke-linejoin:round"
         id="path3121"
         inkscape:connector-curvature="0" />
    </marker>
    <marker
       style="overflow:visible"
       id="Arrow2Sendzk"
       refX="0"
       refY="0"
       orient="auto"
       inkscape:stockid="Arrow2Sendzk">
      <path
         transform="matrix(-0.3,0,0,-0.3,0.69,0)"
         d="M 8.7185878,4.0337352 -2.2072895,0.01601326 8.7185884,-4.0017078 c -1.7454984,2.3720609 -1.7354408,5.6174519 -6e-7,8.035443 z"
         style="font-size:12px;fill:#000080;fill-rule:evenodd;stroke:#000080;stroke-width:0.625;stroke-linejoin:round"
         id="path3315"
         inkscape:connector-curvature="0" />
    </marker>
    <marker
       style="overflow:visible"
       id="Arrow2SendD"
       refX="0"
       refY="0"
       orient="auto"
       inkscape:stockid="Arrow2SendD">
      <path
         transform="matrix(-0.3,0,0,-0.3,0.69,0)"
         d="M 8.7185878,4.0337352 -2.2072895,0.01601326 8.7185884,-4.0017078 c -1.7454984,2.3720609 -1.7354408,5.6174519 -6e-7,8.035443 z"
         style="font-size:12px;fill:#000080;fill-rule:evenodd;stroke:#000080;stroke-width:0.625;stroke-linejoin:round"
         id="path3318"
         inkscape:connector-curvature="0" />
    </marker>
    <marker
       style="overflow:visible"
       id="Arrow2SendO"
       refX="0"
       refY="0"
       orient="auto"
       inkscape:stockid="Arrow2SendO">
      <path
         transform="matrix(-0.3,0,0,-0.3,0.69,0)"
         d="M 8.7185878,4.0337352 -2.2072895,0.01601326 8.7185884,-4.0017078 c -1.7454984,2.3720609 -1.7354408,5.6174519 -6e-7,8.035443 z"
         style="font-size:12px;fill:#000080;fill-rule:evenodd;stroke:#000080;stroke-width:0.625;stroke-linejoin:round"
         id="path3321"
         inkscape:connector-curvature="0" />
    </marker>
    <marker
       style="overflow:visible"
       id="Arrow2Sendu"
       refX="0"
       refY="0"
       orient="auto"
       inkscape:stockid="Arrow2Sendu">
      <path
         transform="matrix(-0.3,0,0,-0.3,0.69,0)"
         d="M 8.7185878,4.0337352 -2.2072895,0.01601326 8.7185884,-4.0017078 c -1.7454984,2.3720609 -1.7354408,5.6174519 -6e-7,8.035443 z"
         style="font-size:12px;fill:#000080;fill-rule:evenodd;stroke:#000080;stroke-width:0.625;stroke-linejoin:round"
         id="path3324"
         inkscape:connector-curvature="0" />
    </marker>
    <marker
       style="overflow:visible"
       id="Arrow2Sendd"
       refX="0"
       refY="0"
       orient="auto"
       inkscape:stockid="Arrow2Sendd">
      <path
         transform="matrix(-0.3,0,0,-0.3,0.69,0)"
         d="M 8.7185878,4.0337352 -2.2072895,0.01601326 8.7185884,-4.0017078 c -1.7454984,2.3720609 -1.7354408,5.6174519 -6e-7,8.035443 z"
         style="font-size:12px;fill:#000080;fill-rule:evenodd;stroke:#000080;stroke-width:0.625;stroke-linejoin:round"
         id="path3327"
         inkscape:connector-curvature="0" />
    </marker>
    <marker
       style="overflow:visible"
       id="Arrow2Send9"
       refX="0"
       refY="0"
       orient="auto"
       inkscape:stockid="Arrow2Send9">
      <path
         transform="matrix(-0.3,0,0,-0.3,0.69,0)"
         d="M 8.7185878,4.0337352 -2.2072895,0.01601326 8.7185884,-4.0017078 c -1.7454984,2.3720609 -1.7354408,5.6174519 -6e-7,8.035443 z"
         style="font-size:12px;fill:#000080;fill-rule:evenodd;stroke:#000080;stroke-width:0.625;stroke-linejoin:round"
         id="path3330"
         inkscape:connector-curvature="0" />
    </marker>
    <marker
       style="overflow:visible"
       id="Arrow2SendI1"
       refX="0"
       refY="0"
       orient="auto"
       inkscape:stockid="Arrow2SendI1">
      <path
         transform="matrix(-0.3,0,0,-0.3,0.69,0)"
         d="M 8.7185878,4.0337352 -2.2072895,0.01601326 8.7185884,-4.0017078 c -1.7454984,2.3720609 -1.7354408,5.6174519 -6e-7,8.035443 z"
         style="font-size:12px;fill:#000080;fill-rule:evenodd;stroke:#000080;stroke-width:0.625;stroke-linejoin:round"
         id="path3333"
         inkscape:connector-curvature="0" />
    </marker>
    <marker
       style="overflow:visible"
       id="Arrow2Senda"
       refX="0"
       refY="0"
       orient="auto"
       inkscape:stockid="Arrow2Senda">
      <path
         transform="matrix(-0.3,0,0,-0.3,0.69,0)"
         d="M 8.7185878,4.0337352 -2.2072895,0.01601326 8.7185884,-4.0017078 c -1.7454984,2.3720609 -1.7354408,5.6174519 -6e-7,8.035443 z"
         style="font-size:12px;fill:#000080;fill-rule:evenodd;stroke:#000080;stroke-width:0.625;stroke-linejoin:round"
         id="path3336"
         inkscape:connector-curvature="0" />
    </marker>
    <marker
       style="overflow:visible"
       id="Arrow2SendaN"
       refX="0"
       refY="0"
       orient="auto"
       inkscape:stockid="Arrow2SendaN">
      <path
         transform="matrix(-0.3,0,0,-0.3,0.69,0)"
         d="M 8.7185878,4.0337352 -2.2072895,0.01601326 8.7185884,-4.0017078 c -1.7454984,2.3720609 -1.7354408,5.6174519 -6e-7,8.035443 z"
         style="font-size:12px;fill:#000080;fill-rule:evenodd;stroke:#000080;stroke-width:0.625;stroke-linejoin:round"
         id="path3339"
         inkscape:connector-curvature="0" />
    </marker>
    <marker
       style="overflow:visible"
       id="Arrow2SendMd"
       refX="0"
       refY="0"
       orient="auto"
       inkscape:stockid="Arrow2SendMd">
      <path
         transform="matrix(-0.3,0,0,-0.3,0.69,0)"
         d="M 8.7185878,4.0337352 -2.2072895,0.01601326 8.7185884,-4.0017078 c -1.7454984,2.3720609 -1.7354408,5.6174519 -6e-7,8.035443 z"
         style="stroke-linejoin:round;font-size:12px;fill-rule:evenodd;stroke:#b3b3b3;stroke-width:0.625;fill:#b3b3b3"
         id="path3209"
         inkscape:connector-curvature="0" />
    </marker>
    <marker
       style="overflow:visible"
       id="Arrow2Sendgn"
       refX="0"
       refY="0"
       orient="auto"
       inkscape:stockid="Arrow2Sendgn">
      <path
         transform="matrix(-0.3,0,0,-0.3,0.69,0)"
         d="M 8.7185878,4.0337352 -2.2072895,0.01601326 8.7185884,-4.0017078 c -1.7454984,2.3720609 -1.7354408,5.6174519 -6e-7,8.035443 z"
         style="stroke-linejoin:round;font-size:12px;fill-rule:evenodd;stroke:#b3b3b3;stroke-width:0.625;fill:#b3b3b3"
         id="path3212"
         inkscape:connector-curvature="0" />
    </marker>
    <marker
       style="overflow:visible"
       id="Arrow2Send37"
       refX="0"
       refY="0"
       orient="auto"
       inkscape:stockid="Arrow2Send37">
      <path
         transform="matrix(-0.3,0,0,-0.3,0.69,0)"
         d="M 8.7185878,4.0337352 -2.2072895,0.01601326 8.7185884,-4.0017078 c -1.7454984,2.3720609 -1.7354408,5.6174519 -6e-7,8.035443 z"
         style="stroke-linejoin:round;font-size:12px;fill-rule:evenodd;stroke:#b3b3b3;stroke-width:0.625;fill:#b3b3b3"
         id="path3215"
         inkscape:connector-curvature="0" />
    </marker>
    <marker
       style="overflow:visible"
       id="Arrow2Sendsl"
       refX="0"
       refY="0"
       orient="auto"
       inkscape:stockid="Arrow2Sendsl">
      <path
         transform="matrix(-0.3,0,0,-0.3,0.69,0)"
         d="M 8.7185878,4.0337352 -2.2072895,0.01601326 8.7185884,-4.0017078 c -1.7454984,2.3720609 -1.7354408,5.6174519 -6e-7,8.035443 z"
         style="stroke-linejoin:round;font-size:12px;fill-rule:evenodd;stroke:#b3b3b3;stroke-width:0.625;fill:#b3b3b3"
         id="path3218"
         inkscape:connector-curvature="0" />
    </marker>
    <marker
       style="overflow:visible"
       id="Arrow2Sendz5"
       refX="0"
       refY="0"
       orient="auto"
       inkscape:stockid="Arrow2Sendz5">
      <path
         transform="matrix(-0.3,0,0,-0.3,0.69,0)"
         d="M 8.7185878,4.0337352 -2.2072895,0.01601326 8.7185884,-4.0017078 c -1.7454984,2.3720609 -1.7354408,5.6174519 -6e-7,8.035443 z"
         style="stroke-linejoin:round;font-size:12px;fill-rule:evenodd;stroke:#b3b3b3;stroke-width:0.625;fill:#b3b3b3"
         id="path3221"
         inkscape:connector-curvature="0" />
    </marker>
    <marker
       style="overflow:visible"
       id="Arrow2SendIk"
       refX="0"
       refY="0"
       orient="auto"
       inkscape:stockid="Arrow2SendIk">
      <path
         transform="matrix(-0.3,0,0,-0.3,0.69,0)"
         d="M 8.7185878,4.0337352 -2.2072895,0.01601326 8.7185884,-4.0017078 c -1.7454984,2.3720609 -1.7354408,5.6174519 -6e-7,8.035443 z"
         style="stroke-linejoin:round;font-size:12px;fill-rule:evenodd;stroke:#b3b3b3;stroke-width:0.625;fill:#b3b3b3"
         id="path3224"
         inkscape:connector-curvature="0" />
    </marker>
    <marker
       style="overflow:visible"
       id="Arrow2Send7y"
       refX="0"
       refY="0"
       orient="auto"
       inkscape:stockid="Arrow2Send7y">
      <path
         transform="matrix(-0.3,0,0,-0.3,0.69,0)"
         d="M 8.7185878,4.0337352 -2.2072895,0.01601326 8.7185884,-4.0017078 c -1.7454984,2.3720609 -1.7354408,5.6174519 -6e-7,8.035443 z"
         style="stroke-linejoin:round;font-size:12px;fill-rule:evenodd;stroke:#b3b3b3;stroke-width:0.625;fill:#b3b3b3"
         id="path3227"
         inkscape:connector-curvature="0" />
    </marker>
    <marker
       style="overflow:visible"
       id="Arrow2SendGx"
       refX="0"
       refY="0"
       orient="auto"
       inkscape:stockid="Arrow2SendGx">
      <path
         transform="matrix(-0.3,0,0,-0.3,0.69,0)"
         d="M 8.7185878,4.0337352 -2.2072895,0.01601326 8.7185884,-4.0017078 c -1.7454984,2.3720609 -1.7354408,5.6174519 -6e-7,8.035443 z"
         style="stroke-linejoin:round;font-size:12px;fill-rule:evenodd;stroke:#b3b3b3;stroke-width:0.625;fill:#b3b3b3"
         id="path3230"
         inkscape:connector-curvature="0" />
    </marker>
    <marker
       style="overflow:visible"
       id="Arrow2SendJ7"
       refX="0"
       refY="0"
       orient="auto"
       inkscape:stockid="Arrow2SendJ7">
      <path
         transform="matrix(-0.3,0,0,-0.3,0.69,0)"
         d="M 8.7185878,4.0337352 -2.2072895,0.01601326 8.7185884,-4.0017078 c -1.7454984,2.3720609 -1.7354408,5.6174519 -6e-7,8.035443 z"
         style="stroke-linejoin:round;font-size:12px;fill-rule:evenodd;stroke:#b3b3b3;stroke-width:0.625;fill:#b3b3b3"
         id="path3233"
         inkscape:connector-curvature="0" />
    </marker>
    <marker
       style="overflow:visible"
       id="Arrow2SendzkY"
       refX="0"
       refY="0"
       orient="auto"
       inkscape:stockid="Arrow2SendzkY">
      <path
         transform="matrix(-0.3,0,0,-0.3,0.69,0)"
         d="M 8.7185878,4.0337352 -2.2072895,0.01601326 8.7185884,-4.0017078 c -1.7454984,2.3720609 -1.7354408,5.6174519 -6e-7,8.035443 z"
         style="stroke-linejoin:round;font-size:12px;fill-rule:evenodd;stroke:#b3b3b3;stroke-width:0.625;fill:#b3b3b3"
         id="path3510"
         inkscape:connector-curvature="0" />
    </marker>
    <marker
       style="overflow:visible"
       id="Arrow2SendDy"
       refX="0"
       refY="0"
       orient="auto"
       inkscape:stockid="Arrow2SendDy">
      <path
         transform="matrix(-0.3,0,0,-0.3,0.69,0)"
         d="M 8.7185878,4.0337352 -2.2072895,0.01601326 8.7185884,-4.0017078 c -1.7454984,2.3720609 -1.7354408,5.6174519 -6e-7,8.035443 z"
         style="stroke-linejoin:round;font-size:12px;fill-rule:evenodd;stroke:#b3b3b3;stroke-width:0.625;fill:#b3b3b3"
         id="path3513"
         inkscape:connector-curvature="0" />
    </marker>
    <marker
       style="overflow:visible"
       id="Arrow2SendOv"
       refX="0"
       refY="0"
       orient="auto"
       inkscape:stockid="Arrow2SendOv">
      <path
         transform="matrix(-0.3,0,0,-0.3,0.69,0)"
         d="M 8.7185878,4.0337352 -2.2072895,0.01601326 8.7185884,-4.0017078 c -1.7454984,2.3720609 -1.7354408,5.6174519 -6e-7,8.035443 z"
         style="stroke-linejoin:round;font-size:12px;fill-rule:evenodd;stroke:#b3b3b3;stroke-width:0.625;fill:#b3b3b3"
         id="path3516"
         inkscape:connector-curvature="0" />
    </marker>
    <marker
       style="overflow:visible"
       id="Arrow2Sendug"
       refX="0"
       refY="0"
       orient="auto"
       inkscape:stockid="Arrow2Sendug">
      <path
         transform="matrix(-0.3,0,0,-0.3,0.69,0)"
         d="M 8.7185878,4.0337352 -2.2072895,0.01601326 8.7185884,-4.0017078 c -1.7454984,2.3720609 -1.7354408,5.6174519 -6e-7,8.035443 z"
         style="stroke-linejoin:round;font-size:12px;fill-rule:evenodd;stroke:#b3b3b3;stroke-width:0.625;fill:#b3b3b3"
         id="path3519"
         inkscape:connector-curvature="0" />
    </marker>
    <marker
       style="overflow:visible"
       id="Arrow2SenddF"
       refX="0"
       refY="0"
       orient="auto"
       inkscape:stockid="Arrow2SenddF">
      <path
         transform="matrix(-0.3,0,0,-0.3,0.69,0)"
         d="M 8.7185878,4.0337352 -2.2072895,0.01601326 8.7185884,-4.0017078 c -1.7454984,2.3720609 -1.7354408,5.6174519 -6e-7,8.035443 z"
         style="stroke-linejoin:round;font-size:12px;fill-rule:evenodd;stroke:#b3b3b3;stroke-width:0.625;fill:#b3b3b3"
         id="path3522"
         inkscape:connector-curvature="0" />
    </marker>
    <marker
       style="overflow:visible"
       id="Arrow2Send9q"
       refX="0"
       refY="0"
       orient="auto"
       inkscape:stockid="Arrow2Send9q">
      <path
         transform="matrix(-0.3,0,0,-0.3,0.69,0)"
         d="M 8.7185878,4.0337352 -2.2072895,0.01601326 8.7185884,-4.0017078 c -1.7454984,2.3720609 -1.7354408,5.6174519 -6e-7,8.035443 z"
         style="stroke-linejoin:round;font-size:12px;fill-rule:evenodd;stroke:#b3b3b3;stroke-width:0.625;fill:#b3b3b3"
         id="path3525"
         inkscape:connector-curvature="0" />
    </marker>
    <marker
       style="overflow:visible"
       id="Arrow2SendI1V"
       refX="0"
       refY="0"
       orient="auto"
       inkscape:stockid="Arrow2SendI1V">
      <path
         transform="matrix(-0.3,0,0,-0.3,0.69,0)"
         d="M 8.7185878,4.0337352 -2.2072895,0.01601326 8.7185884,-4.0017078 c -1.7454984,2.3720609 -1.7354408,5.6174519 -6e-7,8.035443 z"
         style="stroke-linejoin:round;font-size:12px;fill-rule:evenodd;stroke:#b3b3b3;stroke-width:0.625;fill:#b3b3b3"
         id="path3528"
         inkscape:connector-curvature="0" />
    </marker>
    <marker
       style="overflow:visible"
       id="Arrow2Sendac"
       refX="0"
       refY="0"
       orient="auto"
       inkscape:stockid="Arrow2Sendac">
      <path
         transform="matrix(-0.3,0,0,-0.3,0.69,0)"
         d="M 8.7185878,4.0337352 -2.2072895,0.01601326 8.7185884,-4.0017078 c -1.7454984,2.3720609 -1.7354408,5.6174519 -6e-7,8.035443 z"
         style="stroke-linejoin:round;font-size:12px;fill-rule:evenodd;stroke:#b3b3b3;stroke-width:0.625;fill:#b3b3b3"
         id="path3531"
         inkscape:connector-curvature="0" />
    </marker>
    <marker
       style="overflow:visible"
       id="Arrow2SendaN3"
       refX="0"
       refY="0"
       orient="auto"
       inkscape:stockid="Arrow2SendaN3">
      <path
         transform="matrix(-0.3,0,0,-0.3,0.69,0)"
         d="M 8.7185878,4.0337352 -2.2072895,0.01601326 8.7185884,-4.0017078 c -1.7454984,2.3720609 -1.7354408,5.6174519 -6e-7,8.035443 z"
         style="stroke-linejoin:round;font-size:12px;fill-rule:evenodd;stroke:#b3b3b3;stroke-width:0.625;fill:#b3b3b3"
         id="path3534"
         inkscape:connector-curvature="0" />
    </marker>
    <marker
       style="overflow:visible"
       id="Arrow2Senduge"
       refX="0"
       refY="0"
       orient="auto"
       inkscape:stockid="Arrow2Senduge">
      <path
         transform="matrix(-0.3,0,0,-0.3,0.69,0)"
         d="M 8.7185878,4.0337352 -2.2072895,0.01601326 8.7185884,-4.0017078 c -1.7454984,2.3720609 -1.7354408,5.6174519 -6e-7,8.035443 z"
         style="stroke-linejoin:round;font-size:12px;fill-rule:evenodd;stroke:#000080;stroke-width:0.625;fill:#000080"
         id="path3847"
         inkscape:connector-curvature="0" />
    </marker>
  </defs>
  <metadata
     id="metadata7">
    <rdf:RDF>
      <cc:Work
         rdf:about="">
        <dc:format>image/svg+xml</dc:format>
        <dc:type
           rdf:resource="http://purl.org/dc/dcmitype/StillImage" />
        <dc:title />
      </cc:Work>
    </rdf:RDF>
  </metadata>
  <g
     transform="translate(-94.052284,-372.45511)"
     id="layer1"
     inkscape:groupmode="layer"
     inkscape:label="Layer 1">
    <path
       transform="translate(214.68036,371.7341)"
       d="m 90.20699,56.182171 c 0,4.529085 -3.671549,8.200635 -8.200635,8.200635 -4.529085,0 -8.200635,-3.67155 -8.200635,-8.200635 0,-4.529086 3.67155,-8.200635 8.200635,-8.200635 4.529086,0 8.200635,3.671549 8.200635,8.200635 z"
       sodipodi:ry="8.200635"
       sodipodi:rx="8.200635"
       sodipodi:cy="56.182171"
       sodipodi:cx="82.006355"
       id="path3113"
       style="fill:#008000;fill-rule:evenodd;stroke:#008000;stroke-width:1px;stroke-linecap:butt;stroke-linejoin:miter;stroke-opacity:1"
       sodipodi:type="arc" />
    <path
       d="m 190,347.36218 c 0,2.76143 -2.23858,5 -5,5 -2.76142,0 -5,-2.23857 -5,-5 0,-2.76142 2.23858,-5 5,-5 2.76142,0 5,2.23858 5,5 z"
       sodipodi:ry="5"
       sodipodi:rx="5"
       sodipodi:cy="347.36218"
       sodipodi:cx="185"
       id="path2994-3-2-1"
       style="fill:#d40000;stroke:#000000;stroke-width:1;stroke-linecap:round;stroke-linejoin:round;stroke-miterlimit:4;stroke-dasharray:none;stroke-dashoffset:0"
       sodipodi:type="arc"
       transform="matrix(-1,0,0,1,583.57964,80.543974)" />
    <path
       d="m 190,347.36218 c 0,2.76143 -2.23858,5 -5,5 -2.76142,0 -5,-2.23857 -5,-5 0,-2.76142 2.23858,-5 5,-5 2.76142,0 5,2.23858 5,5 z"
       sodipodi:ry="5"
       sodipodi:rx="5"
       sodipodi:cy="347.36218"
       sodipodi:cx="185"
       id="path2994-3-2-7"
       style="fill:#d40000;stroke:#000000;stroke-width:1;stroke-linecap:round;stroke-linejoin:round;stroke-miterlimit:4;stroke-dasharray:none;stroke-dashoffset:0"
       sodipodi:type="arc"
       transform="matrix(-1,0,0,1,558.1251,80.543974)" />
    <path
       d="m 190,347.36218 c 0,2.76143 -2.23858,5 -5,5 -2.76142,0 -5,-2.23857 -5,-5 0,-2.76142 2.23858,-5 5,-5 2.76142,0 5,2.23858 5,5 z"
       sodipodi:ry="5"
       sodipodi:rx="5"
       sodipodi:cy="347.36218"
       sodipodi:cx="185"
       id="path2994-3-2-4"
       style="fill:#d40000;stroke:#000000;stroke-width:1;stroke-linecap:round;stroke-linejoin:round;stroke-miterlimit:4;stroke-dasharray:none;stroke-dashoffset:0"
       sodipodi:type="arc"
       transform="matrix(-1,0,0,1,507.216,80.543974)" />
    <path
       d="m 190,347.36218 c 0,2.76143 -2.23858,5 -5,5 -2.76142,0 -5,-2.23857 -5,-5 0,-2.76142 2.23858,-5 5,-5 2.76142,0 5,2.23858 5,5 z"
       sodipodi:ry="5"
       sodipodi:rx="5"
       sodipodi:cy="347.36218"
       sodipodi:cx="185"
       id="path2994-3-2-0"
       style="fill:#d40000;stroke:#000000;stroke-width:1;stroke-linecap:round;stroke-linejoin:round;stroke-miterlimit:4;stroke-dasharray:none;stroke-dashoffset:0"
       sodipodi:type="arc"
       transform="matrix(-1,0,0,1,532.67055,80.543974)" />
    <path
       d="m 190,347.36218 c 0,2.76143 -2.23858,5 -5,5 -2.76142,0 -5,-2.23857 -5,-5 0,-2.76142 2.23858,-5 5,-5 2.76142,0 5,2.23858 5,5 z"
       sodipodi:ry="5"
       sodipodi:rx="5"
       sodipodi:cy="347.36218"
       sodipodi:cx="185"
       id="path2994-3-2-9"
       style="fill:#d40000;stroke:#000000;stroke-width:1;stroke-linecap:round;stroke-linejoin:round;stroke-miterlimit:4;stroke-dasharray:none;stroke-dashoffset:0"
       sodipodi:type="arc"
       transform="matrix(-1,0,0,1,481.76147,80.543974)" />
    <path
       d="m 190,347.36218 c 0,2.76143 -2.23858,5 -5,5 -2.76142,0 -5,-2.23857 -5,-5 0,-2.76142 2.23858,-5 5,-5 2.76142,0 5,2.23858 5,5 z"
       sodipodi:ry="5"
       sodipodi:rx="5"
       sodipodi:cy="347.36218"
       sodipodi:cx="185"
       id="path2994-4"
       style="fill:#0000ff;stroke:#000000;stroke-width:1;stroke-linecap:round;stroke-linejoin:round;stroke-miterlimit:4;stroke-dasharray:none;stroke-dashoffset:0"
       sodipodi:type="arc"
       transform="matrix(-1,0,0,1,354.48874,80.543974)" />
    <path
       d="m 190,347.36218 c 0,2.76143 -2.23858,5 -5,5 -2.76142,0 -5,-2.23857 -5,-5 0,-2.76142 2.23858,-5 5,-5 2.76142,0 5,2.23858 5,5 z"
       sodipodi:ry="5"
       sodipodi:rx="5"
       sodipodi:cy="347.36218"
       sodipodi:cx="185"
       id="path2994-8"
       style="fill:#0000ff;stroke:#000000;stroke-width:1;stroke-linecap:round;stroke-linejoin:round;stroke-miterlimit:4;stroke-dasharray:none;stroke-dashoffset:0"
       sodipodi:type="arc"
       transform="matrix(-1,0,0,1,379.94328,80.543974)" />
    <path
       d="m 190,347.36218 c 0,2.76143 -2.23858,5 -5,5 -2.76142,0 -5,-2.23857 -5,-5 0,-2.76142 2.23858,-5 5,-5 2.76142,0 5,2.23858 5,5 z"
       sodipodi:ry="5"
       sodipodi:rx="5"
       sodipodi:cy="347.36218"
       sodipodi:cx="185"
       id="path2994-82"
       style="fill:#0000ff;stroke:#000000;stroke-width:1;stroke-linecap:round;stroke-linejoin:round;stroke-miterlimit:4;stroke-dasharray:none;stroke-dashoffset:0"
       sodipodi:type="arc"
       transform="matrix(-1,0,0,1,405.39783,80.543974)" />
    <path
       d="m 190,347.36218 c 0,2.76143 -2.23858,5 -5,5 -2.76142,0 -5,-2.23857 -5,-5 0,-2.76142 2.23858,-5 5,-5 2.76142,0 5,2.23858 5,5 z"
       sodipodi:ry="5"
       sodipodi:rx="5"
       sodipodi:cy="347.36218"
       sodipodi:cx="185"
       id="path2994-45"
       style="fill:#0000ff;stroke:#000000;stroke-width:1;stroke-linecap:round;stroke-linejoin:round;stroke-miterlimit:4;stroke-dasharray:none;stroke-dashoffset:0"
       sodipodi:type="arc"
       transform="matrix(-1,0,0,1,430.85237,80.543974)" />
    <path
       d="m 190,347.36218 c 0,2.76143 -2.23858,5 -5,5 -2.76142,0 -5,-2.23857 -5,-5 0,-2.76142 2.23858,-5 5,-5 2.76142,0 5,2.23858 5,5 z"
       sodipodi:ry="5"
       sodipodi:rx="5"
       sodipodi:cy="347.36218"
       sodipodi:cx="185"
       id="path2994-5"
       style="fill:#0000ff;stroke:#000000;stroke-width:1;stroke-linecap:round;stroke-linejoin:round;stroke-miterlimit:4;stroke-dasharray:none;stroke-dashoffset:0"
       sodipodi:type="arc"
       transform="matrix(-1,0,0,1,456.30692,80.543974)" />
    <path
       sodipodi:nodetypes="cc"
       inkscape:connector-curvature="0"
       id="path5894-5"
       d="m 170.14697,422.83289 c 7.6964,-18.27924 17.6254,-18.42304 23.96805,-2.65131"
       style="stroke-linejoin:miter;marker-end:url(#Arrow2Sendz5);stroke-opacity:1;stroke:#b3b3b3;stroke-linecap:butt;stroke-miterlimit:4;stroke-dasharray:none;stroke-width:2;fill:none" />
    <path
       sodipodi:nodetypes="cc"
       inkscape:connector-curvature="0"
       id="path5894-5-4"
       d="m 374.04845,422.83289 c 7.6964,-18.27924 17.6254,-18.42304 23.96805,-2.65131"
       style="stroke-linejoin:miter;marker-end:url(#Arrow2Sendsl);stroke-opacity:1;stroke:#b3b3b3;stroke-linecap:butt;stroke-miterlimit:4;stroke-dasharray:none;stroke-width:2;fill:none" />
    <path
       sodipodi:nodetypes="cc"
       inkscape:connector-curvature="0"
       id="path5894-5-9"
       d="m 348.56077,422.83289 c 7.6964,-18.27924 17.6254,-18.42304 23.96805,-2.65131"
       style="stroke-linejoin:miter;marker-end:url(#Arrow2Sendgn);stroke-opacity:1;stroke:#b3b3b3;stroke-linecap:butt;stroke-miterlimit:4;stroke-dasharray:none;stroke-width:2;fill:none" />
    <path
       sodipodi:nodetypes="cc"
       inkscape:connector-curvature="0"
       id="path5894-5-93"
       d="m 323.07308,422.83289 c 7.6964,-18.27924 17.6254,-18.42304 23.96805,-2.65131"
       style="stroke-linejoin:miter;marker-end:url(#Arrow2SendJ7);stroke-opacity:1;stroke:#b3b3b3;stroke-linecap:butt;stroke-miterlimit:4;stroke-dasharray:none;stroke-width:2;fill:none" />
    <path
       sodipodi:nodetypes="cc"
       inkscape:connector-curvature="0"
       id="path5894-5-48"
       d="m 297.5854,422.83289 c 7.6964,-18.27924 17.6254,-18.42304 23.96805,-2.65131"
       style="stroke-linejoin:miter;marker-end:url(#Arrow2SendGx);stroke-opacity:1;stroke:#b3b3b3;stroke-linecap:butt;stroke-miterlimit:4;stroke-dasharray:none;stroke-width:2;fill:none" />
    <path
       sodipodi:nodetypes="cc"
       inkscape:connector-curvature="0"
       id="path5894-5-8"
       d="m 272.09771,422.83289 c 7.6964,-18.27924 17.6254,-18.42304 23.96805,-2.65131"
       style="stroke-linejoin:miter;marker-end:url(#Arrow2SendMd);stroke-opacity:1;stroke:#b3b3b3;stroke-linecap:butt;stroke-miterlimit:4;stroke-dasharray:none;stroke-width:2;fill:none" />
    <path
       sodipodi:nodetypes="cc"
       inkscape:connector-curvature="0"
       id="path5894-5-2"
       d="m 246.61003,422.83289 c 7.6964,-18.27924 17.6254,-18.42304 23.96805,-2.65131"
       style="stroke-linejoin:miter;marker-end:url(#Arrow2Send37);stroke-opacity:1;stroke:#b3b3b3;stroke-linecap:butt;stroke-miterlimit:4;stroke-dasharray:none;stroke-width:2;fill:none" />
    <path
       sodipodi:nodetypes="cc"
       inkscape:connector-curvature="0"
       id="path5894-5-98"
       d="m 221.12234,422.83289 c 7.6964,-18.27924 17.6254,-18.42304 23.96805,-2.65131"
       style="stroke-linejoin:miter;marker-end:url(#Arrow2SendIk);stroke-opacity:1;stroke:#b3b3b3;stroke-linecap:butt;stroke-miterlimit:4;stroke-dasharray:none;stroke-width:2;fill:none" />
    <path
       sodipodi:nodetypes="cc"
       inkscape:connector-curvature="0"
       id="path5894-5-49"
       d="m 195.63466,422.83289 c 7.6964,-18.27924 17.6254,-18.42304 23.96805,-2.65131"
       style="stroke-linejoin:miter;marker-end:url(#Arrow2Send7y);stroke-opacity:1;stroke:#b3b3b3;stroke-linecap:butt;stroke-miterlimit:4;stroke-dasharray:none;stroke-width:2;fill:none" />
    <path
       sodipodi:nodetypes="cc"
       inkscape:connector-curvature="0"
       id="path5894-5-1"
       d="m 192.29046,431.41882 c -7.6964,18.27925 -17.6254,18.42304 -23.96805,2.65131"
       style="stroke-linejoin:miter;marker-end:url(#Arrow2SendDy);stroke-opacity:1;stroke-dashoffset:0;stroke:#b3b3b3;stroke-linecap:butt;stroke-miterlimit:4;stroke-dasharray:none;stroke-width:2;fill:none" />
    <path
       sodipodi:nodetypes="cc"
       inkscape:connector-curvature="0"
       id="path5894-5-1-1"
       d="m 395.5174,431.41882 c -7.6964,18.27925 -17.6254,18.42304 -23.96805,2.65131"
       style="stroke-linejoin:miter;marker-end:url(#Arrow2Sendac);stroke-opacity:1;stroke-dashoffset:0;stroke:#b3b3b3;stroke-linecap:butt;stroke-miterlimit:4;stroke-dasharray:none;stroke-width:2;fill:none" />
    <path
       sodipodi:nodetypes="cc"
       inkscape:connector-curvature="0"
       id="path5894-5-1-19"
       d="m 370.11401,431.41882 c -7.6964,18.27925 -17.6254,18.42304 -23.96805,2.65131"
       style="stroke-linejoin:miter;marker-end:url(#Arrow2SenddF);stroke-opacity:1;stroke-dashoffset:0;stroke:#b3b3b3;stroke-linecap:butt;stroke-miterlimit:4;stroke-dasharray:none;stroke-width:2;fill:none" />
    <path
       sodipodi:nodetypes="cc"
       inkscape:connector-curvature="0"
       id="path5894-5-1-0"
       d="m 344.71065,431.41882 c -7.6964,18.27925 -17.6254,18.42304 -23.96805,2.65131"
       style="stroke-linejoin:miter;marker-end:url(#Arrow2SendI1V);stroke-opacity:1;stroke-dashoffset:0;stroke:#b3b3b3;stroke-linecap:butt;stroke-miterlimit:4;stroke-dasharray:none;stroke-width:2;fill:none" />
    <path
       sodipodi:nodetypes="cc"
       inkscape:connector-curvature="0"
       id="path5894-5-1-8"
       d="m 319.30728,431.41882 c -7.6964,18.27925 -17.6254,18.42304 -23.96805,2.65131"
       style="stroke-linejoin:miter;marker-end:url(#Arrow2SendOv);stroke-opacity:1;stroke-dashoffset:0;stroke:#b3b3b3;stroke-linecap:butt;stroke-miterlimit:4;stroke-dasharray:none;stroke-width:2;fill:none" />
    <path
       sodipodi:nodetypes="cc"
       inkscape:connector-curvature="0"
       id="path5894-5-1-9"
       d="m 293.90392,431.41882 c -7.6964,18.27925 -17.6254,18.42304 -23.96805,2.65131"
       style="stroke-linejoin:miter;marker-end:url(#Arrow2Senduge);stroke-opacity:1;stroke-dashoffset:0;stroke:#000080;stroke-linecap:butt;stroke-miterlimit:4;stroke-dasharray:none;stroke-width:2;fill:none" />
    <path
       sodipodi:nodetypes="cc"
       inkscape:connector-curvature="0"
       id="path5894-5-1-95"
       d="m 268.50055,431.41882 c -7.6964,18.27925 -17.6254,18.42304 -23.96805,2.65131"
       style="stroke-linejoin:miter;marker-end:url(#Arrow2SendzkY);stroke-opacity:1;stroke-dashoffset:0;stroke:#b3b3b3;stroke-linecap:butt;stroke-miterlimit:4;stroke-dasharray:none;stroke-width:2;fill:none" />
    <path
       sodipodi:nodetypes="cc"
       inkscape:connector-curvature="0"
       id="path5894-5-1-191"
       d="m 243.09718,431.41882 c -7.6964,18.27925 -17.6254,18.42304 -23.96805,2.65131"
       style="stroke-linejoin:miter;marker-end:url(#Arrow2Send9q);stroke-opacity:1;stroke-dashoffset:0;stroke:#b3b3b3;stroke-linecap:butt;stroke-miterlimit:4;stroke-dasharray:none;stroke-width:2;fill:none" />
    <path
       sodipodi:nodetypes="cc"
       inkscape:connector-curvature="0"
       id="path5894-5-1-15"
       d="m 217.69382,431.41882 c -7.6964,18.27925 -17.6254,18.42304 -23.96805,2.65131"
       style="stroke-linejoin:miter;marker-end:url(#Arrow2SendaN3);stroke-opacity:1;stroke-dashoffset:0;stroke:#b3b3b3;stroke-linecap:butt;stroke-miterlimit:4;stroke-dasharray:none;stroke-width:2;fill:none" />
    <text
       sodipodi:linespacing="125%"
       id="text3089"
       y="387.01566"
       x="156.22169"
       style="font-size:40px;font-style:normal;font-weight:normal;line-height:125%;letter-spacing:0px;word-spacing:0px;fill:#b3b3b3;fill-opacity:1;stroke:none;font-family:Sans"
       xml:space="preserve"><tspan
         style="font-size:20px;fill:#b3b3b3"
         y="387.01566"
         x="156.22169"
         id="tspan3091"
         sodipodi:role="line">Candidate potentiation event</tspan></text>
    <text
       sodipodi:linespacing="125%"
       id="text3089-1"
       y="479.44797"
       x="158.99513"
       style="font-size:40px;font-style:normal;font-weight:normal;line-height:125%;letter-spacing:0px;word-spacing:0px;fill:#000000;fill-opacity:1;stroke:none;font-family:Sans"
       xml:space="preserve"><tspan
         style="font-size:20px;fill:#000000"
         y="479.44797"
         x="158.99513"
         id="tspan3091-7"
         sodipodi:role="line">Candidate depression event</tspan></text>
    <text
       sodipodi:linespacing="125%"
       id="text3124"
       y="413.00558"
       x="90.966347"
       style="font-size:40px;font-style:normal;font-weight:normal;line-height:125%;letter-spacing:0px;word-spacing:0px;fill:#000000;fill-opacity:1;stroke:none;font-family:Sans"
       xml:space="preserve"><tspan
         y="413.00558"
         x="90.966347"
         id="tspan3126"
         sodipodi:role="line">PF</tspan></text>
    <text
       sodipodi:linespacing="125%"
       id="text3128"
       y="465.58362"
       x="92.060097"
       style="font-size:40px;font-style:normal;font-weight:normal;line-height:125%;letter-spacing:0px;word-spacing:0px;fill:#000000;fill-opacity:1;stroke:none;font-family:Sans"
       xml:space="preserve"><tspan
         y="465.58362"
         x="92.060097"
         id="tspan3130"
         sodipodi:role="line">CF</tspan></text>
  </g>
</svg>
